M48
; DRILL file KiCad 10.0.4 date 2026-09-24T17:48:53
; FORMAT={-:-/ absolute / metric / decimal}
; #@! TF.CreationDate,2026-09-24T17:48:53+02:00
; #@! TF.GenerationSoftware,Kicad,Pcbnew,10.0.4
; #@! TF.FileFunction,Plated,1,2,PTH
FMAT,2
METRIC
; #@! TA.AperFunction,Plated,PTH,ComponentDrill
T1C1.200
; #@! TA.AperFunction,Plated,PTH,ComponentDrill
T2C1.300
; #@! TA.AperFunction,Plated,PTH,ComponentDrill
T3C1.400
%
G90
G05
T1
X78.215Y-55.875
X78.215Y-69.465
X80.935Y-43.285
X84.765Y-80.8
X84.765Y-103.2
X94.765Y-80.8
X94.765Y-103.2
X103.435Y-43.285
X106.155Y-55.875
X106.155Y-69.465
X107.905Y-77.5
X107.905Y-105.0
X113.945Y-51.08
X113.945Y-63.42
X124.75Y-119.0
X125.495Y-77.5
X125.495Y-105.0
X136.445Y-51.08
X136.445Y-63.42
X143.085Y-77.5
X143.085Y-105.0
X147.25Y-119.0
X154.25Y-119.0
X160.675Y-77.5
X160.675Y-105.0
X165.125Y-50.33
X167.625Y-64.67
X178.265Y-77.5
X178.265Y-105.0
X181.75Y-119.0
X190.125Y-64.67
X192.625Y-50.33
T2
X71.025Y-89.305
X71.025Y-94.305
X203.232Y-115.25
X203.232Y-120.25
X203.465Y-54.125
X203.465Y-59.125
T3
X69.675Y-51.795
X69.675Y-61.955
X90.92Y-120.0
X101.08Y-120.0
X145.705Y-56.875
X155.865Y-56.875
X203.765Y-86.17
X203.765Y-96.33
M30
