%TF.GenerationSoftware,KiCad,Pcbnew,10.0.6*%
%TF.CreationDate,2026-09-28T09:24:33+02:00*%
%TF.ProjectId,monitor-boost,6d6f6e69-746f-4722-9d62-6f6f73742e6b,rev?*%
%TF.SameCoordinates,Original*%
%TF.FileFunction,Soldermask,Bot*%
%TF.FilePolarity,Negative*%
%FSLAX46Y46*%
G04 Gerber Fmt 4.6, Leading zero omitted, Abs format (unit mm)*
G04 Created by KiCad (PCBNEW 10.0.6) date 2026-09-28 09:24:33*
%MOMM*%
%LPD*%
G01*
G04 APERTURE LIST*
G04 Aperture macros list*
%AMRoundRect*
0 Rectangle with rounded corners*
0 $1 Rounding radius*
0 $2 $3 $4 $5 $6 $7 $8 $9 X,Y pos of 4 corners*
0 Add a 4 corners polygon primitive as box body*
4,1,4,$2,$3,$4,$5,$6,$7,$8,$9,$2,$3,0*
0 Add four circle primitives for the rounded corners*
1,1,$1+$1,$2,$3*
1,1,$1+$1,$4,$5*
1,1,$1+$1,$6,$7*
1,1,$1+$1,$8,$9*
0 Add four rect primitives between the rounded corners*
20,1,$1+$1,$2,$3,$4,$5,0*
20,1,$1+$1,$4,$5,$6,$7,0*
20,1,$1+$1,$6,$7,$8,$9,0*
20,1,$1+$1,$8,$9,$2,$3,0*%
G04 Aperture macros list end*
%ADD10C,2.400000*%
%ADD11C,1.600000*%
%ADD12RoundRect,0.250000X0.550000X-0.950000X0.550000X0.950000X-0.550000X0.950000X-0.550000X-0.950000X0*%
%ADD13O,1.600000X2.400000*%
%ADD14R,1.700000X1.800000*%
%ADD15O,1.700000X1.800000*%
%ADD16RoundRect,0.250001X-1.149999X1.149999X-1.149999X-1.149999X1.149999X-1.149999X1.149999X1.149999X0*%
%ADD17C,2.800000*%
%ADD18C,1.440000*%
%ADD19RoundRect,0.250001X-0.949999X0.949999X-0.949999X-0.949999X0.949999X-0.949999X0.949999X0.949999X0*%
%ADD20RoundRect,0.250000X-1.050000X1.050000X-1.050000X-1.050000X1.050000X-1.050000X1.050000X1.050000X0*%
%ADD21C,2.600000*%
%ADD22RoundRect,0.250000X0.550000X0.550000X-0.550000X0.550000X-0.550000X-0.550000X0.550000X-0.550000X0*%
%ADD23R,2.000000X2.000000*%
%ADD24C,2.000000*%
%ADD25R,1.700000X2.000000*%
%ADD26O,1.700000X2.000000*%
%ADD27C,4.000000*%
G04 APERTURE END LIST*
D10*
%TO.C,R2*%
X86000000Y-40000000D03*
X86000000Y-67940000D03*
%TD*%
D11*
%TO.C,C17*%
X70500000Y-123000000D03*
X75500000Y-123000000D03*
%TD*%
%TO.C,R15*%
X67620000Y-116000000D03*
X67620000Y-126160000D03*
%TD*%
%TO.C,C3*%
X30000000Y-60000000D03*
X30000000Y-65000000D03*
%TD*%
%TO.C,R17*%
X82500000Y-100160000D03*
X82500000Y-90000000D03*
%TD*%
%TO.C,R14*%
X64300000Y-128000000D03*
X64300000Y-117840000D03*
%TD*%
%TO.C,C13*%
X53000000Y-133500000D03*
X58000000Y-133500000D03*
%TD*%
%TO.C,C14*%
X106000000Y-108000000D03*
X101000000Y-108000000D03*
%TD*%
%TO.C,R7*%
X80000000Y-120000000D03*
X80000000Y-130160000D03*
%TD*%
D12*
%TO.C,U1*%
X60000000Y-112000000D03*
D13*
X62540000Y-112000000D03*
X65080000Y-112000000D03*
X67620000Y-112000000D03*
X70160000Y-112000000D03*
X72700000Y-112000000D03*
X75240000Y-112000000D03*
X77780000Y-112000000D03*
X77780000Y-104380000D03*
X75240000Y-104380000D03*
X72700000Y-104380000D03*
X70160000Y-104380000D03*
X67620000Y-104380000D03*
X65080000Y-104380000D03*
X62540000Y-104380000D03*
X60000000Y-104380000D03*
%TD*%
D14*
%TO.C,Q2*%
X68000000Y-84000000D03*
D15*
X65460000Y-84000000D03*
X62920000Y-84000000D03*
%TD*%
D16*
%TO.C,J1*%
X25000000Y-46000000D03*
D17*
X25000000Y-51000000D03*
%TD*%
D16*
%TO.C,J2*%
X153000000Y-42000000D03*
D17*
X153000000Y-47000000D03*
%TD*%
D11*
%TO.C,R16*%
X79240000Y-87000000D03*
X79240000Y-97160000D03*
%TD*%
%TO.C,C18*%
X86000000Y-100160000D03*
X86000000Y-95160000D03*
%TD*%
%TO.C,C15*%
X95000000Y-98000000D03*
X90000000Y-98000000D03*
%TD*%
D18*
%TO.C,RV1*%
X55000000Y-122000000D03*
X55000000Y-124540000D03*
X55000000Y-127080000D03*
%TD*%
D11*
%TO.C,R9*%
X51000000Y-127080000D03*
X40840000Y-127080000D03*
%TD*%
D19*
%TO.C,C1*%
X39000000Y-45000000D03*
D10*
X39000000Y-52500000D03*
%TD*%
%TO.C,R1*%
X76000000Y-40000000D03*
X76000000Y-67940000D03*
%TD*%
D11*
%TO.C,R3*%
X59500000Y-87750000D03*
X49340000Y-87750000D03*
%TD*%
%TO.C,R8*%
X55000000Y-108000000D03*
X55000000Y-118160000D03*
%TD*%
D20*
%TO.C,D2*%
X162000000Y-36000000D03*
D21*
X162000000Y-51240000D03*
%TD*%
D14*
%TO.C,Q3*%
X68000000Y-90000000D03*
D15*
X65460000Y-90000000D03*
X62920000Y-90000000D03*
%TD*%
D11*
%TO.C,R18*%
X158000000Y-72000000D03*
X158000000Y-82160000D03*
%TD*%
D22*
%TO.C,C9*%
X55500000Y-81500000D03*
D11*
X53000000Y-81500000D03*
%TD*%
D23*
%TO.C,D3*%
X158000000Y-92000000D03*
D24*
X158000000Y-86920000D03*
%TD*%
D11*
%TO.C,R12*%
X120000000Y-108000000D03*
X109840000Y-108000000D03*
%TD*%
%TO.C,C10*%
X55000000Y-101000000D03*
X50000000Y-101000000D03*
%TD*%
D19*
%TO.C,C6*%
X139000000Y-42000000D03*
D10*
X139000000Y-49500000D03*
%TD*%
D23*
%TO.C,D1*%
X80000000Y-30000000D03*
D24*
X85080000Y-30000000D03*
%TD*%
D11*
%TO.C,C12*%
X85000000Y-117000000D03*
X85000000Y-122000000D03*
%TD*%
D19*
%TO.C,C5*%
X121500000Y-42000000D03*
D10*
X121500000Y-49500000D03*
%TD*%
D25*
%TO.C,Q1*%
X68000000Y-30000000D03*
D26*
X70540000Y-30000000D03*
X73080000Y-30000000D03*
%TD*%
D11*
%TO.C,C11*%
X57000000Y-104380000D03*
X52000000Y-104380000D03*
%TD*%
D19*
%TO.C,C2*%
X47000000Y-63000000D03*
D10*
X47000000Y-70500000D03*
%TD*%
D11*
%TO.C,R5*%
X68000000Y-36000000D03*
X78160000Y-36000000D03*
%TD*%
D22*
%TO.C,D4*%
X98000000Y-87000000D03*
D11*
X90380000Y-87000000D03*
%TD*%
%TO.C,R6*%
X60000000Y-78500000D03*
X60000000Y-68340000D03*
%TD*%
%TO.C,R13*%
X98000000Y-104380000D03*
X98000000Y-94220000D03*
%TD*%
%TO.C,R11*%
X98000000Y-112000000D03*
X98000000Y-122160000D03*
%TD*%
%TO.C,R4*%
X68000000Y-78500000D03*
X68000000Y-68340000D03*
%TD*%
D27*
%TO.C,L1*%
X32000000Y-30000000D03*
X60200000Y-30000000D03*
%TD*%
D11*
%TO.C,C16*%
X95000000Y-104380000D03*
X90000000Y-104380000D03*
%TD*%
%TO.C,R10*%
X112000000Y-114000000D03*
X101840000Y-114000000D03*
%TD*%
D19*
%TO.C,C4*%
X104000000Y-42000000D03*
D10*
X104000000Y-49500000D03*
%TD*%
D11*
%TO.C,C7*%
X92500000Y-40000000D03*
X92500000Y-45000000D03*
%TD*%
M02*
