%TF.GenerationSoftware,KiCad,Pcbnew,10.0.6*%
%TF.CreationDate,2026-09-28T09:24:33+02:00*%
%TF.ProjectId,monitor-boost,6d6f6e69-746f-4722-9d62-6f6f73742e6b,rev?*%
%TF.SameCoordinates,Original*%
%TF.FileFunction,Legend,Top*%
%TF.FilePolarity,Positive*%
%FSLAX46Y46*%
G04 Gerber Fmt 4.6, Leading zero omitted, Abs format (unit mm)*
G04 Created by KiCad (PCBNEW 10.0.6) date 2026-09-28 09:24:33*
%MOMM*%
%LPD*%
G01*
G04 APERTURE LIST*
%ADD10C,0.150000*%
%ADD11C,0.120000*%
%ADD12C,0.200000*%
G04 APERTURE END LIST*
D10*
X92074819Y-54136666D02*
X91598628Y-54469999D01*
X92074819Y-54708094D02*
X91074819Y-54708094D01*
X91074819Y-54708094D02*
X91074819Y-54327142D01*
X91074819Y-54327142D02*
X91122438Y-54231904D01*
X91122438Y-54231904D02*
X91170057Y-54184285D01*
X91170057Y-54184285D02*
X91265295Y-54136666D01*
X91265295Y-54136666D02*
X91408152Y-54136666D01*
X91408152Y-54136666D02*
X91503390Y-54184285D01*
X91503390Y-54184285D02*
X91551009Y-54231904D01*
X91551009Y-54231904D02*
X91598628Y-54327142D01*
X91598628Y-54327142D02*
X91598628Y-54708094D01*
X91170057Y-53755713D02*
X91122438Y-53708094D01*
X91122438Y-53708094D02*
X91074819Y-53612856D01*
X91074819Y-53612856D02*
X91074819Y-53374761D01*
X91074819Y-53374761D02*
X91122438Y-53279523D01*
X91122438Y-53279523D02*
X91170057Y-53231904D01*
X91170057Y-53231904D02*
X91265295Y-53184285D01*
X91265295Y-53184285D02*
X91360533Y-53184285D01*
X91360533Y-53184285D02*
X91503390Y-53231904D01*
X91503390Y-53231904D02*
X92074819Y-53803332D01*
X92074819Y-53803332D02*
X92074819Y-53184285D01*
X72357142Y-120859580D02*
X72309523Y-120907200D01*
X72309523Y-120907200D02*
X72166666Y-120954819D01*
X72166666Y-120954819D02*
X72071428Y-120954819D01*
X72071428Y-120954819D02*
X71928571Y-120907200D01*
X71928571Y-120907200D02*
X71833333Y-120811961D01*
X71833333Y-120811961D02*
X71785714Y-120716723D01*
X71785714Y-120716723D02*
X71738095Y-120526247D01*
X71738095Y-120526247D02*
X71738095Y-120383390D01*
X71738095Y-120383390D02*
X71785714Y-120192914D01*
X71785714Y-120192914D02*
X71833333Y-120097676D01*
X71833333Y-120097676D02*
X71928571Y-120002438D01*
X71928571Y-120002438D02*
X72071428Y-119954819D01*
X72071428Y-119954819D02*
X72166666Y-119954819D01*
X72166666Y-119954819D02*
X72309523Y-120002438D01*
X72309523Y-120002438D02*
X72357142Y-120050057D01*
X73309523Y-120954819D02*
X72738095Y-120954819D01*
X73023809Y-120954819D02*
X73023809Y-119954819D01*
X73023809Y-119954819D02*
X72928571Y-120097676D01*
X72928571Y-120097676D02*
X72833333Y-120192914D01*
X72833333Y-120192914D02*
X72738095Y-120240533D01*
X73642857Y-119954819D02*
X74309523Y-119954819D01*
X74309523Y-119954819D02*
X73880952Y-120954819D01*
X70444819Y-121722857D02*
X69968628Y-122056190D01*
X70444819Y-122294285D02*
X69444819Y-122294285D01*
X69444819Y-122294285D02*
X69444819Y-121913333D01*
X69444819Y-121913333D02*
X69492438Y-121818095D01*
X69492438Y-121818095D02*
X69540057Y-121770476D01*
X69540057Y-121770476D02*
X69635295Y-121722857D01*
X69635295Y-121722857D02*
X69778152Y-121722857D01*
X69778152Y-121722857D02*
X69873390Y-121770476D01*
X69873390Y-121770476D02*
X69921009Y-121818095D01*
X69921009Y-121818095D02*
X69968628Y-121913333D01*
X69968628Y-121913333D02*
X69968628Y-122294285D01*
X70444819Y-120770476D02*
X70444819Y-121341904D01*
X70444819Y-121056190D02*
X69444819Y-121056190D01*
X69444819Y-121056190D02*
X69587676Y-121151428D01*
X69587676Y-121151428D02*
X69682914Y-121246666D01*
X69682914Y-121246666D02*
X69730533Y-121341904D01*
X69444819Y-119865714D02*
X69444819Y-120341904D01*
X69444819Y-120341904D02*
X69921009Y-120389523D01*
X69921009Y-120389523D02*
X69873390Y-120341904D01*
X69873390Y-120341904D02*
X69825771Y-120246666D01*
X69825771Y-120246666D02*
X69825771Y-120008571D01*
X69825771Y-120008571D02*
X69873390Y-119913333D01*
X69873390Y-119913333D02*
X69921009Y-119865714D01*
X69921009Y-119865714D02*
X70016247Y-119818095D01*
X70016247Y-119818095D02*
X70254342Y-119818095D01*
X70254342Y-119818095D02*
X70349580Y-119865714D01*
X70349580Y-119865714D02*
X70397200Y-119913333D01*
X70397200Y-119913333D02*
X70444819Y-120008571D01*
X70444819Y-120008571D02*
X70444819Y-120246666D01*
X70444819Y-120246666D02*
X70397200Y-120341904D01*
X70397200Y-120341904D02*
X70349580Y-120389523D01*
X32859580Y-62666666D02*
X32907200Y-62714285D01*
X32907200Y-62714285D02*
X32954819Y-62857142D01*
X32954819Y-62857142D02*
X32954819Y-62952380D01*
X32954819Y-62952380D02*
X32907200Y-63095237D01*
X32907200Y-63095237D02*
X32811961Y-63190475D01*
X32811961Y-63190475D02*
X32716723Y-63238094D01*
X32716723Y-63238094D02*
X32526247Y-63285713D01*
X32526247Y-63285713D02*
X32383390Y-63285713D01*
X32383390Y-63285713D02*
X32192914Y-63238094D01*
X32192914Y-63238094D02*
X32097676Y-63190475D01*
X32097676Y-63190475D02*
X32002438Y-63095237D01*
X32002438Y-63095237D02*
X31954819Y-62952380D01*
X31954819Y-62952380D02*
X31954819Y-62857142D01*
X31954819Y-62857142D02*
X32002438Y-62714285D01*
X32002438Y-62714285D02*
X32050057Y-62666666D01*
X31954819Y-62333332D02*
X31954819Y-61714285D01*
X31954819Y-61714285D02*
X32335771Y-62047618D01*
X32335771Y-62047618D02*
X32335771Y-61904761D01*
X32335771Y-61904761D02*
X32383390Y-61809523D01*
X32383390Y-61809523D02*
X32431009Y-61761904D01*
X32431009Y-61761904D02*
X32526247Y-61714285D01*
X32526247Y-61714285D02*
X32764342Y-61714285D01*
X32764342Y-61714285D02*
X32859580Y-61761904D01*
X32859580Y-61761904D02*
X32907200Y-61809523D01*
X32907200Y-61809523D02*
X32954819Y-61904761D01*
X32954819Y-61904761D02*
X32954819Y-62190475D01*
X32954819Y-62190475D02*
X32907200Y-62285713D01*
X32907200Y-62285713D02*
X32859580Y-62333332D01*
X80584819Y-95722857D02*
X80108628Y-96056190D01*
X80584819Y-96294285D02*
X79584819Y-96294285D01*
X79584819Y-96294285D02*
X79584819Y-95913333D01*
X79584819Y-95913333D02*
X79632438Y-95818095D01*
X79632438Y-95818095D02*
X79680057Y-95770476D01*
X79680057Y-95770476D02*
X79775295Y-95722857D01*
X79775295Y-95722857D02*
X79918152Y-95722857D01*
X79918152Y-95722857D02*
X80013390Y-95770476D01*
X80013390Y-95770476D02*
X80061009Y-95818095D01*
X80061009Y-95818095D02*
X80108628Y-95913333D01*
X80108628Y-95913333D02*
X80108628Y-96294285D01*
X80584819Y-94770476D02*
X80584819Y-95341904D01*
X80584819Y-95056190D02*
X79584819Y-95056190D01*
X79584819Y-95056190D02*
X79727676Y-95151428D01*
X79727676Y-95151428D02*
X79822914Y-95246666D01*
X79822914Y-95246666D02*
X79870533Y-95341904D01*
X79584819Y-94437142D02*
X79584819Y-93770476D01*
X79584819Y-93770476D02*
X80584819Y-94199047D01*
X62384819Y-123562857D02*
X61908628Y-123896190D01*
X62384819Y-124134285D02*
X61384819Y-124134285D01*
X61384819Y-124134285D02*
X61384819Y-123753333D01*
X61384819Y-123753333D02*
X61432438Y-123658095D01*
X61432438Y-123658095D02*
X61480057Y-123610476D01*
X61480057Y-123610476D02*
X61575295Y-123562857D01*
X61575295Y-123562857D02*
X61718152Y-123562857D01*
X61718152Y-123562857D02*
X61813390Y-123610476D01*
X61813390Y-123610476D02*
X61861009Y-123658095D01*
X61861009Y-123658095D02*
X61908628Y-123753333D01*
X61908628Y-123753333D02*
X61908628Y-124134285D01*
X62384819Y-122610476D02*
X62384819Y-123181904D01*
X62384819Y-122896190D02*
X61384819Y-122896190D01*
X61384819Y-122896190D02*
X61527676Y-122991428D01*
X61527676Y-122991428D02*
X61622914Y-123086666D01*
X61622914Y-123086666D02*
X61670533Y-123181904D01*
X61718152Y-121753333D02*
X62384819Y-121753333D01*
X61337200Y-121991428D02*
X62051485Y-122229523D01*
X62051485Y-122229523D02*
X62051485Y-121610476D01*
X54857142Y-129859580D02*
X54809523Y-129907200D01*
X54809523Y-129907200D02*
X54666666Y-129954819D01*
X54666666Y-129954819D02*
X54571428Y-129954819D01*
X54571428Y-129954819D02*
X54428571Y-129907200D01*
X54428571Y-129907200D02*
X54333333Y-129811961D01*
X54333333Y-129811961D02*
X54285714Y-129716723D01*
X54285714Y-129716723D02*
X54238095Y-129526247D01*
X54238095Y-129526247D02*
X54238095Y-129383390D01*
X54238095Y-129383390D02*
X54285714Y-129192914D01*
X54285714Y-129192914D02*
X54333333Y-129097676D01*
X54333333Y-129097676D02*
X54428571Y-129002438D01*
X54428571Y-129002438D02*
X54571428Y-128954819D01*
X54571428Y-128954819D02*
X54666666Y-128954819D01*
X54666666Y-128954819D02*
X54809523Y-129002438D01*
X54809523Y-129002438D02*
X54857142Y-129050057D01*
X55809523Y-129954819D02*
X55238095Y-129954819D01*
X55523809Y-129954819D02*
X55523809Y-128954819D01*
X55523809Y-128954819D02*
X55428571Y-129097676D01*
X55428571Y-129097676D02*
X55333333Y-129192914D01*
X55333333Y-129192914D02*
X55238095Y-129240533D01*
X56142857Y-128954819D02*
X56761904Y-128954819D01*
X56761904Y-128954819D02*
X56428571Y-129335771D01*
X56428571Y-129335771D02*
X56571428Y-129335771D01*
X56571428Y-129335771D02*
X56666666Y-129383390D01*
X56666666Y-129383390D02*
X56714285Y-129431009D01*
X56714285Y-129431009D02*
X56761904Y-129526247D01*
X56761904Y-129526247D02*
X56761904Y-129764342D01*
X56761904Y-129764342D02*
X56714285Y-129859580D01*
X56714285Y-129859580D02*
X56666666Y-129907200D01*
X56666666Y-129907200D02*
X56571428Y-129954819D01*
X56571428Y-129954819D02*
X56285714Y-129954819D01*
X56285714Y-129954819D02*
X56190476Y-129907200D01*
X56190476Y-129907200D02*
X56142857Y-129859580D01*
X102857142Y-111109580D02*
X102809523Y-111157200D01*
X102809523Y-111157200D02*
X102666666Y-111204819D01*
X102666666Y-111204819D02*
X102571428Y-111204819D01*
X102571428Y-111204819D02*
X102428571Y-111157200D01*
X102428571Y-111157200D02*
X102333333Y-111061961D01*
X102333333Y-111061961D02*
X102285714Y-110966723D01*
X102285714Y-110966723D02*
X102238095Y-110776247D01*
X102238095Y-110776247D02*
X102238095Y-110633390D01*
X102238095Y-110633390D02*
X102285714Y-110442914D01*
X102285714Y-110442914D02*
X102333333Y-110347676D01*
X102333333Y-110347676D02*
X102428571Y-110252438D01*
X102428571Y-110252438D02*
X102571428Y-110204819D01*
X102571428Y-110204819D02*
X102666666Y-110204819D01*
X102666666Y-110204819D02*
X102809523Y-110252438D01*
X102809523Y-110252438D02*
X102857142Y-110300057D01*
X103809523Y-111204819D02*
X103238095Y-111204819D01*
X103523809Y-111204819D02*
X103523809Y-110204819D01*
X103523809Y-110204819D02*
X103428571Y-110347676D01*
X103428571Y-110347676D02*
X103333333Y-110442914D01*
X103333333Y-110442914D02*
X103238095Y-110490533D01*
X104666666Y-110538152D02*
X104666666Y-111204819D01*
X104428571Y-110157200D02*
X104190476Y-110871485D01*
X104190476Y-110871485D02*
X104809523Y-110871485D01*
X82824819Y-125246666D02*
X82348628Y-125579999D01*
X82824819Y-125818094D02*
X81824819Y-125818094D01*
X81824819Y-125818094D02*
X81824819Y-125437142D01*
X81824819Y-125437142D02*
X81872438Y-125341904D01*
X81872438Y-125341904D02*
X81920057Y-125294285D01*
X81920057Y-125294285D02*
X82015295Y-125246666D01*
X82015295Y-125246666D02*
X82158152Y-125246666D01*
X82158152Y-125246666D02*
X82253390Y-125294285D01*
X82253390Y-125294285D02*
X82301009Y-125341904D01*
X82301009Y-125341904D02*
X82348628Y-125437142D01*
X82348628Y-125437142D02*
X82348628Y-125818094D01*
X81824819Y-124913332D02*
X81824819Y-124246666D01*
X81824819Y-124246666D02*
X82824819Y-124675237D01*
X57124819Y-108951904D02*
X57934342Y-108951904D01*
X57934342Y-108951904D02*
X58029580Y-108904285D01*
X58029580Y-108904285D02*
X58077200Y-108856666D01*
X58077200Y-108856666D02*
X58124819Y-108761428D01*
X58124819Y-108761428D02*
X58124819Y-108570952D01*
X58124819Y-108570952D02*
X58077200Y-108475714D01*
X58077200Y-108475714D02*
X58029580Y-108428095D01*
X58029580Y-108428095D02*
X57934342Y-108380476D01*
X57934342Y-108380476D02*
X57124819Y-108380476D01*
X58124819Y-107380476D02*
X58124819Y-107951904D01*
X58124819Y-107666190D02*
X57124819Y-107666190D01*
X57124819Y-107666190D02*
X57267676Y-107761428D01*
X57267676Y-107761428D02*
X57362914Y-107856666D01*
X57362914Y-107856666D02*
X57410533Y-107951904D01*
X65364761Y-87500057D02*
X65269523Y-87452438D01*
X65269523Y-87452438D02*
X65174285Y-87357200D01*
X65174285Y-87357200D02*
X65031428Y-87214342D01*
X65031428Y-87214342D02*
X64936190Y-87166723D01*
X64936190Y-87166723D02*
X64840952Y-87166723D01*
X64888571Y-87404819D02*
X64793333Y-87357200D01*
X64793333Y-87357200D02*
X64698095Y-87261961D01*
X64698095Y-87261961D02*
X64650476Y-87071485D01*
X64650476Y-87071485D02*
X64650476Y-86738152D01*
X64650476Y-86738152D02*
X64698095Y-86547676D01*
X64698095Y-86547676D02*
X64793333Y-86452438D01*
X64793333Y-86452438D02*
X64888571Y-86404819D01*
X64888571Y-86404819D02*
X65079047Y-86404819D01*
X65079047Y-86404819D02*
X65174285Y-86452438D01*
X65174285Y-86452438D02*
X65269523Y-86547676D01*
X65269523Y-86547676D02*
X65317142Y-86738152D01*
X65317142Y-86738152D02*
X65317142Y-87071485D01*
X65317142Y-87071485D02*
X65269523Y-87261961D01*
X65269523Y-87261961D02*
X65174285Y-87357200D01*
X65174285Y-87357200D02*
X65079047Y-87404819D01*
X65079047Y-87404819D02*
X64888571Y-87404819D01*
X65698095Y-86500057D02*
X65745714Y-86452438D01*
X65745714Y-86452438D02*
X65840952Y-86404819D01*
X65840952Y-86404819D02*
X66079047Y-86404819D01*
X66079047Y-86404819D02*
X66174285Y-86452438D01*
X66174285Y-86452438D02*
X66221904Y-86500057D01*
X66221904Y-86500057D02*
X66269523Y-86595295D01*
X66269523Y-86595295D02*
X66269523Y-86690533D01*
X66269523Y-86690533D02*
X66221904Y-86833390D01*
X66221904Y-86833390D02*
X65650476Y-87404819D01*
X65650476Y-87404819D02*
X66269523Y-87404819D01*
X29574819Y-48583333D02*
X30289104Y-48583333D01*
X30289104Y-48583333D02*
X30431961Y-48630952D01*
X30431961Y-48630952D02*
X30527200Y-48726190D01*
X30527200Y-48726190D02*
X30574819Y-48869047D01*
X30574819Y-48869047D02*
X30574819Y-48964285D01*
X30574819Y-47583333D02*
X30574819Y-48154761D01*
X30574819Y-47869047D02*
X29574819Y-47869047D01*
X29574819Y-47869047D02*
X29717676Y-47964285D01*
X29717676Y-47964285D02*
X29812914Y-48059523D01*
X29812914Y-48059523D02*
X29860533Y-48154761D01*
X157574819Y-44583333D02*
X158289104Y-44583333D01*
X158289104Y-44583333D02*
X158431961Y-44630952D01*
X158431961Y-44630952D02*
X158527200Y-44726190D01*
X158527200Y-44726190D02*
X158574819Y-44869047D01*
X158574819Y-44869047D02*
X158574819Y-44964285D01*
X157670057Y-44154761D02*
X157622438Y-44107142D01*
X157622438Y-44107142D02*
X157574819Y-44011904D01*
X157574819Y-44011904D02*
X157574819Y-43773809D01*
X157574819Y-43773809D02*
X157622438Y-43678571D01*
X157622438Y-43678571D02*
X157670057Y-43630952D01*
X157670057Y-43630952D02*
X157765295Y-43583333D01*
X157765295Y-43583333D02*
X157860533Y-43583333D01*
X157860533Y-43583333D02*
X158003390Y-43630952D01*
X158003390Y-43630952D02*
X158574819Y-44202380D01*
X158574819Y-44202380D02*
X158574819Y-43583333D01*
X82064819Y-92722857D02*
X81588628Y-93056190D01*
X82064819Y-93294285D02*
X81064819Y-93294285D01*
X81064819Y-93294285D02*
X81064819Y-92913333D01*
X81064819Y-92913333D02*
X81112438Y-92818095D01*
X81112438Y-92818095D02*
X81160057Y-92770476D01*
X81160057Y-92770476D02*
X81255295Y-92722857D01*
X81255295Y-92722857D02*
X81398152Y-92722857D01*
X81398152Y-92722857D02*
X81493390Y-92770476D01*
X81493390Y-92770476D02*
X81541009Y-92818095D01*
X81541009Y-92818095D02*
X81588628Y-92913333D01*
X81588628Y-92913333D02*
X81588628Y-93294285D01*
X82064819Y-91770476D02*
X82064819Y-92341904D01*
X82064819Y-92056190D02*
X81064819Y-92056190D01*
X81064819Y-92056190D02*
X81207676Y-92151428D01*
X81207676Y-92151428D02*
X81302914Y-92246666D01*
X81302914Y-92246666D02*
X81350533Y-92341904D01*
X81064819Y-90913333D02*
X81064819Y-91103809D01*
X81064819Y-91103809D02*
X81112438Y-91199047D01*
X81112438Y-91199047D02*
X81160057Y-91246666D01*
X81160057Y-91246666D02*
X81302914Y-91341904D01*
X81302914Y-91341904D02*
X81493390Y-91389523D01*
X81493390Y-91389523D02*
X81874342Y-91389523D01*
X81874342Y-91389523D02*
X81969580Y-91341904D01*
X81969580Y-91341904D02*
X82017200Y-91294285D01*
X82017200Y-91294285D02*
X82064819Y-91199047D01*
X82064819Y-91199047D02*
X82064819Y-91008571D01*
X82064819Y-91008571D02*
X82017200Y-90913333D01*
X82017200Y-90913333D02*
X81969580Y-90865714D01*
X81969580Y-90865714D02*
X81874342Y-90818095D01*
X81874342Y-90818095D02*
X81636247Y-90818095D01*
X81636247Y-90818095D02*
X81541009Y-90865714D01*
X81541009Y-90865714D02*
X81493390Y-90913333D01*
X81493390Y-90913333D02*
X81445771Y-91008571D01*
X81445771Y-91008571D02*
X81445771Y-91199047D01*
X81445771Y-91199047D02*
X81493390Y-91294285D01*
X81493390Y-91294285D02*
X81541009Y-91341904D01*
X81541009Y-91341904D02*
X81636247Y-91389523D01*
X83859580Y-98302857D02*
X83907200Y-98350476D01*
X83907200Y-98350476D02*
X83954819Y-98493333D01*
X83954819Y-98493333D02*
X83954819Y-98588571D01*
X83954819Y-98588571D02*
X83907200Y-98731428D01*
X83907200Y-98731428D02*
X83811961Y-98826666D01*
X83811961Y-98826666D02*
X83716723Y-98874285D01*
X83716723Y-98874285D02*
X83526247Y-98921904D01*
X83526247Y-98921904D02*
X83383390Y-98921904D01*
X83383390Y-98921904D02*
X83192914Y-98874285D01*
X83192914Y-98874285D02*
X83097676Y-98826666D01*
X83097676Y-98826666D02*
X83002438Y-98731428D01*
X83002438Y-98731428D02*
X82954819Y-98588571D01*
X82954819Y-98588571D02*
X82954819Y-98493333D01*
X82954819Y-98493333D02*
X83002438Y-98350476D01*
X83002438Y-98350476D02*
X83050057Y-98302857D01*
X83954819Y-97350476D02*
X83954819Y-97921904D01*
X83954819Y-97636190D02*
X82954819Y-97636190D01*
X82954819Y-97636190D02*
X83097676Y-97731428D01*
X83097676Y-97731428D02*
X83192914Y-97826666D01*
X83192914Y-97826666D02*
X83240533Y-97921904D01*
X83383390Y-96779047D02*
X83335771Y-96874285D01*
X83335771Y-96874285D02*
X83288152Y-96921904D01*
X83288152Y-96921904D02*
X83192914Y-96969523D01*
X83192914Y-96969523D02*
X83145295Y-96969523D01*
X83145295Y-96969523D02*
X83050057Y-96921904D01*
X83050057Y-96921904D02*
X83002438Y-96874285D01*
X83002438Y-96874285D02*
X82954819Y-96779047D01*
X82954819Y-96779047D02*
X82954819Y-96588571D01*
X82954819Y-96588571D02*
X83002438Y-96493333D01*
X83002438Y-96493333D02*
X83050057Y-96445714D01*
X83050057Y-96445714D02*
X83145295Y-96398095D01*
X83145295Y-96398095D02*
X83192914Y-96398095D01*
X83192914Y-96398095D02*
X83288152Y-96445714D01*
X83288152Y-96445714D02*
X83335771Y-96493333D01*
X83335771Y-96493333D02*
X83383390Y-96588571D01*
X83383390Y-96588571D02*
X83383390Y-96779047D01*
X83383390Y-96779047D02*
X83431009Y-96874285D01*
X83431009Y-96874285D02*
X83478628Y-96921904D01*
X83478628Y-96921904D02*
X83573866Y-96969523D01*
X83573866Y-96969523D02*
X83764342Y-96969523D01*
X83764342Y-96969523D02*
X83859580Y-96921904D01*
X83859580Y-96921904D02*
X83907200Y-96874285D01*
X83907200Y-96874285D02*
X83954819Y-96779047D01*
X83954819Y-96779047D02*
X83954819Y-96588571D01*
X83954819Y-96588571D02*
X83907200Y-96493333D01*
X83907200Y-96493333D02*
X83859580Y-96445714D01*
X83859580Y-96445714D02*
X83764342Y-96398095D01*
X83764342Y-96398095D02*
X83573866Y-96398095D01*
X83573866Y-96398095D02*
X83478628Y-96445714D01*
X83478628Y-96445714D02*
X83431009Y-96493333D01*
X83431009Y-96493333D02*
X83383390Y-96588571D01*
X91857142Y-101109580D02*
X91809523Y-101157200D01*
X91809523Y-101157200D02*
X91666666Y-101204819D01*
X91666666Y-101204819D02*
X91571428Y-101204819D01*
X91571428Y-101204819D02*
X91428571Y-101157200D01*
X91428571Y-101157200D02*
X91333333Y-101061961D01*
X91333333Y-101061961D02*
X91285714Y-100966723D01*
X91285714Y-100966723D02*
X91238095Y-100776247D01*
X91238095Y-100776247D02*
X91238095Y-100633390D01*
X91238095Y-100633390D02*
X91285714Y-100442914D01*
X91285714Y-100442914D02*
X91333333Y-100347676D01*
X91333333Y-100347676D02*
X91428571Y-100252438D01*
X91428571Y-100252438D02*
X91571428Y-100204819D01*
X91571428Y-100204819D02*
X91666666Y-100204819D01*
X91666666Y-100204819D02*
X91809523Y-100252438D01*
X91809523Y-100252438D02*
X91857142Y-100300057D01*
X92809523Y-101204819D02*
X92238095Y-101204819D01*
X92523809Y-101204819D02*
X92523809Y-100204819D01*
X92523809Y-100204819D02*
X92428571Y-100347676D01*
X92428571Y-100347676D02*
X92333333Y-100442914D01*
X92333333Y-100442914D02*
X92238095Y-100490533D01*
X93714285Y-100204819D02*
X93238095Y-100204819D01*
X93238095Y-100204819D02*
X93190476Y-100681009D01*
X93190476Y-100681009D02*
X93238095Y-100633390D01*
X93238095Y-100633390D02*
X93333333Y-100585771D01*
X93333333Y-100585771D02*
X93571428Y-100585771D01*
X93571428Y-100585771D02*
X93666666Y-100633390D01*
X93666666Y-100633390D02*
X93714285Y-100681009D01*
X93714285Y-100681009D02*
X93761904Y-100776247D01*
X93761904Y-100776247D02*
X93761904Y-101014342D01*
X93761904Y-101014342D02*
X93714285Y-101109580D01*
X93714285Y-101109580D02*
X93666666Y-101157200D01*
X93666666Y-101157200D02*
X93571428Y-101204819D01*
X93571428Y-101204819D02*
X93333333Y-101204819D01*
X93333333Y-101204819D02*
X93238095Y-101157200D01*
X93238095Y-101157200D02*
X93190476Y-101109580D01*
X51794819Y-125135238D02*
X51318628Y-125468571D01*
X51794819Y-125706666D02*
X50794819Y-125706666D01*
X50794819Y-125706666D02*
X50794819Y-125325714D01*
X50794819Y-125325714D02*
X50842438Y-125230476D01*
X50842438Y-125230476D02*
X50890057Y-125182857D01*
X50890057Y-125182857D02*
X50985295Y-125135238D01*
X50985295Y-125135238D02*
X51128152Y-125135238D01*
X51128152Y-125135238D02*
X51223390Y-125182857D01*
X51223390Y-125182857D02*
X51271009Y-125230476D01*
X51271009Y-125230476D02*
X51318628Y-125325714D01*
X51318628Y-125325714D02*
X51318628Y-125706666D01*
X50794819Y-124849523D02*
X51794819Y-124516190D01*
X51794819Y-124516190D02*
X50794819Y-124182857D01*
X51794819Y-123325714D02*
X51794819Y-123897142D01*
X51794819Y-123611428D02*
X50794819Y-123611428D01*
X50794819Y-123611428D02*
X50937676Y-123706666D01*
X50937676Y-123706666D02*
X51032914Y-123801904D01*
X51032914Y-123801904D02*
X51080533Y-123897142D01*
X45753333Y-129904819D02*
X45420000Y-129428628D01*
X45181905Y-129904819D02*
X45181905Y-128904819D01*
X45181905Y-128904819D02*
X45562857Y-128904819D01*
X45562857Y-128904819D02*
X45658095Y-128952438D01*
X45658095Y-128952438D02*
X45705714Y-129000057D01*
X45705714Y-129000057D02*
X45753333Y-129095295D01*
X45753333Y-129095295D02*
X45753333Y-129238152D01*
X45753333Y-129238152D02*
X45705714Y-129333390D01*
X45705714Y-129333390D02*
X45658095Y-129381009D01*
X45658095Y-129381009D02*
X45562857Y-129428628D01*
X45562857Y-129428628D02*
X45181905Y-129428628D01*
X46229524Y-129904819D02*
X46420000Y-129904819D01*
X46420000Y-129904819D02*
X46515238Y-129857200D01*
X46515238Y-129857200D02*
X46562857Y-129809580D01*
X46562857Y-129809580D02*
X46658095Y-129666723D01*
X46658095Y-129666723D02*
X46705714Y-129476247D01*
X46705714Y-129476247D02*
X46705714Y-129095295D01*
X46705714Y-129095295D02*
X46658095Y-129000057D01*
X46658095Y-129000057D02*
X46610476Y-128952438D01*
X46610476Y-128952438D02*
X46515238Y-128904819D01*
X46515238Y-128904819D02*
X46324762Y-128904819D01*
X46324762Y-128904819D02*
X46229524Y-128952438D01*
X46229524Y-128952438D02*
X46181905Y-129000057D01*
X46181905Y-129000057D02*
X46134286Y-129095295D01*
X46134286Y-129095295D02*
X46134286Y-129333390D01*
X46134286Y-129333390D02*
X46181905Y-129428628D01*
X46181905Y-129428628D02*
X46229524Y-129476247D01*
X46229524Y-129476247D02*
X46324762Y-129523866D01*
X46324762Y-129523866D02*
X46515238Y-129523866D01*
X46515238Y-129523866D02*
X46610476Y-129476247D01*
X46610476Y-129476247D02*
X46658095Y-129428628D01*
X46658095Y-129428628D02*
X46705714Y-129333390D01*
X48609580Y-48916666D02*
X48657200Y-48964285D01*
X48657200Y-48964285D02*
X48704819Y-49107142D01*
X48704819Y-49107142D02*
X48704819Y-49202380D01*
X48704819Y-49202380D02*
X48657200Y-49345237D01*
X48657200Y-49345237D02*
X48561961Y-49440475D01*
X48561961Y-49440475D02*
X48466723Y-49488094D01*
X48466723Y-49488094D02*
X48276247Y-49535713D01*
X48276247Y-49535713D02*
X48133390Y-49535713D01*
X48133390Y-49535713D02*
X47942914Y-49488094D01*
X47942914Y-49488094D02*
X47847676Y-49440475D01*
X47847676Y-49440475D02*
X47752438Y-49345237D01*
X47752438Y-49345237D02*
X47704819Y-49202380D01*
X47704819Y-49202380D02*
X47704819Y-49107142D01*
X47704819Y-49107142D02*
X47752438Y-48964285D01*
X47752438Y-48964285D02*
X47800057Y-48916666D01*
X48704819Y-47964285D02*
X48704819Y-48535713D01*
X48704819Y-48249999D02*
X47704819Y-48249999D01*
X47704819Y-48249999D02*
X47847676Y-48345237D01*
X47847676Y-48345237D02*
X47942914Y-48440475D01*
X47942914Y-48440475D02*
X47990533Y-48535713D01*
X82074819Y-54136666D02*
X81598628Y-54469999D01*
X82074819Y-54708094D02*
X81074819Y-54708094D01*
X81074819Y-54708094D02*
X81074819Y-54327142D01*
X81074819Y-54327142D02*
X81122438Y-54231904D01*
X81122438Y-54231904D02*
X81170057Y-54184285D01*
X81170057Y-54184285D02*
X81265295Y-54136666D01*
X81265295Y-54136666D02*
X81408152Y-54136666D01*
X81408152Y-54136666D02*
X81503390Y-54184285D01*
X81503390Y-54184285D02*
X81551009Y-54231904D01*
X81551009Y-54231904D02*
X81598628Y-54327142D01*
X81598628Y-54327142D02*
X81598628Y-54708094D01*
X82074819Y-53184285D02*
X82074819Y-53755713D01*
X82074819Y-53469999D02*
X81074819Y-53469999D01*
X81074819Y-53469999D02*
X81217676Y-53565237D01*
X81217676Y-53565237D02*
X81312914Y-53660475D01*
X81312914Y-53660475D02*
X81360533Y-53755713D01*
X54253333Y-90574819D02*
X53920000Y-90098628D01*
X53681905Y-90574819D02*
X53681905Y-89574819D01*
X53681905Y-89574819D02*
X54062857Y-89574819D01*
X54062857Y-89574819D02*
X54158095Y-89622438D01*
X54158095Y-89622438D02*
X54205714Y-89670057D01*
X54205714Y-89670057D02*
X54253333Y-89765295D01*
X54253333Y-89765295D02*
X54253333Y-89908152D01*
X54253333Y-89908152D02*
X54205714Y-90003390D01*
X54205714Y-90003390D02*
X54158095Y-90051009D01*
X54158095Y-90051009D02*
X54062857Y-90098628D01*
X54062857Y-90098628D02*
X53681905Y-90098628D01*
X54586667Y-89574819D02*
X55205714Y-89574819D01*
X55205714Y-89574819D02*
X54872381Y-89955771D01*
X54872381Y-89955771D02*
X55015238Y-89955771D01*
X55015238Y-89955771D02*
X55110476Y-90003390D01*
X55110476Y-90003390D02*
X55158095Y-90051009D01*
X55158095Y-90051009D02*
X55205714Y-90146247D01*
X55205714Y-90146247D02*
X55205714Y-90384342D01*
X55205714Y-90384342D02*
X55158095Y-90479580D01*
X55158095Y-90479580D02*
X55110476Y-90527200D01*
X55110476Y-90527200D02*
X55015238Y-90574819D01*
X55015238Y-90574819D02*
X54729524Y-90574819D01*
X54729524Y-90574819D02*
X54634286Y-90527200D01*
X54634286Y-90527200D02*
X54586667Y-90479580D01*
X57824819Y-113246666D02*
X57348628Y-113579999D01*
X57824819Y-113818094D02*
X56824819Y-113818094D01*
X56824819Y-113818094D02*
X56824819Y-113437142D01*
X56824819Y-113437142D02*
X56872438Y-113341904D01*
X56872438Y-113341904D02*
X56920057Y-113294285D01*
X56920057Y-113294285D02*
X57015295Y-113246666D01*
X57015295Y-113246666D02*
X57158152Y-113246666D01*
X57158152Y-113246666D02*
X57253390Y-113294285D01*
X57253390Y-113294285D02*
X57301009Y-113341904D01*
X57301009Y-113341904D02*
X57348628Y-113437142D01*
X57348628Y-113437142D02*
X57348628Y-113818094D01*
X57253390Y-112675237D02*
X57205771Y-112770475D01*
X57205771Y-112770475D02*
X57158152Y-112818094D01*
X57158152Y-112818094D02*
X57062914Y-112865713D01*
X57062914Y-112865713D02*
X57015295Y-112865713D01*
X57015295Y-112865713D02*
X56920057Y-112818094D01*
X56920057Y-112818094D02*
X56872438Y-112770475D01*
X56872438Y-112770475D02*
X56824819Y-112675237D01*
X56824819Y-112675237D02*
X56824819Y-112484761D01*
X56824819Y-112484761D02*
X56872438Y-112389523D01*
X56872438Y-112389523D02*
X56920057Y-112341904D01*
X56920057Y-112341904D02*
X57015295Y-112294285D01*
X57015295Y-112294285D02*
X57062914Y-112294285D01*
X57062914Y-112294285D02*
X57158152Y-112341904D01*
X57158152Y-112341904D02*
X57205771Y-112389523D01*
X57205771Y-112389523D02*
X57253390Y-112484761D01*
X57253390Y-112484761D02*
X57253390Y-112675237D01*
X57253390Y-112675237D02*
X57301009Y-112770475D01*
X57301009Y-112770475D02*
X57348628Y-112818094D01*
X57348628Y-112818094D02*
X57443866Y-112865713D01*
X57443866Y-112865713D02*
X57634342Y-112865713D01*
X57634342Y-112865713D02*
X57729580Y-112818094D01*
X57729580Y-112818094D02*
X57777200Y-112770475D01*
X57777200Y-112770475D02*
X57824819Y-112675237D01*
X57824819Y-112675237D02*
X57824819Y-112484761D01*
X57824819Y-112484761D02*
X57777200Y-112389523D01*
X57777200Y-112389523D02*
X57729580Y-112341904D01*
X57729580Y-112341904D02*
X57634342Y-112294285D01*
X57634342Y-112294285D02*
X57443866Y-112294285D01*
X57443866Y-112294285D02*
X57348628Y-112341904D01*
X57348628Y-112341904D02*
X57301009Y-112389523D01*
X57301009Y-112389523D02*
X57253390Y-112484761D01*
X166224819Y-44358094D02*
X165224819Y-44358094D01*
X165224819Y-44358094D02*
X165224819Y-44119999D01*
X165224819Y-44119999D02*
X165272438Y-43977142D01*
X165272438Y-43977142D02*
X165367676Y-43881904D01*
X165367676Y-43881904D02*
X165462914Y-43834285D01*
X165462914Y-43834285D02*
X165653390Y-43786666D01*
X165653390Y-43786666D02*
X165796247Y-43786666D01*
X165796247Y-43786666D02*
X165986723Y-43834285D01*
X165986723Y-43834285D02*
X166081961Y-43881904D01*
X166081961Y-43881904D02*
X166177200Y-43977142D01*
X166177200Y-43977142D02*
X166224819Y-44119999D01*
X166224819Y-44119999D02*
X166224819Y-44358094D01*
X165320057Y-43405713D02*
X165272438Y-43358094D01*
X165272438Y-43358094D02*
X165224819Y-43262856D01*
X165224819Y-43262856D02*
X165224819Y-43024761D01*
X165224819Y-43024761D02*
X165272438Y-42929523D01*
X165272438Y-42929523D02*
X165320057Y-42881904D01*
X165320057Y-42881904D02*
X165415295Y-42834285D01*
X165415295Y-42834285D02*
X165510533Y-42834285D01*
X165510533Y-42834285D02*
X165653390Y-42881904D01*
X165653390Y-42881904D02*
X166224819Y-43453332D01*
X166224819Y-43453332D02*
X166224819Y-42834285D01*
X164754819Y-36261904D02*
X163754819Y-36261904D01*
X164754819Y-35690476D02*
X164183390Y-36119047D01*
X163754819Y-35690476D02*
X164326247Y-36261904D01*
X65364761Y-93500057D02*
X65269523Y-93452438D01*
X65269523Y-93452438D02*
X65174285Y-93357200D01*
X65174285Y-93357200D02*
X65031428Y-93214342D01*
X65031428Y-93214342D02*
X64936190Y-93166723D01*
X64936190Y-93166723D02*
X64840952Y-93166723D01*
X64888571Y-93404819D02*
X64793333Y-93357200D01*
X64793333Y-93357200D02*
X64698095Y-93261961D01*
X64698095Y-93261961D02*
X64650476Y-93071485D01*
X64650476Y-93071485D02*
X64650476Y-92738152D01*
X64650476Y-92738152D02*
X64698095Y-92547676D01*
X64698095Y-92547676D02*
X64793333Y-92452438D01*
X64793333Y-92452438D02*
X64888571Y-92404819D01*
X64888571Y-92404819D02*
X65079047Y-92404819D01*
X65079047Y-92404819D02*
X65174285Y-92452438D01*
X65174285Y-92452438D02*
X65269523Y-92547676D01*
X65269523Y-92547676D02*
X65317142Y-92738152D01*
X65317142Y-92738152D02*
X65317142Y-93071485D01*
X65317142Y-93071485D02*
X65269523Y-93261961D01*
X65269523Y-93261961D02*
X65174285Y-93357200D01*
X65174285Y-93357200D02*
X65079047Y-93404819D01*
X65079047Y-93404819D02*
X64888571Y-93404819D01*
X65650476Y-92404819D02*
X66269523Y-92404819D01*
X66269523Y-92404819D02*
X65936190Y-92785771D01*
X65936190Y-92785771D02*
X66079047Y-92785771D01*
X66079047Y-92785771D02*
X66174285Y-92833390D01*
X66174285Y-92833390D02*
X66221904Y-92881009D01*
X66221904Y-92881009D02*
X66269523Y-92976247D01*
X66269523Y-92976247D02*
X66269523Y-93214342D01*
X66269523Y-93214342D02*
X66221904Y-93309580D01*
X66221904Y-93309580D02*
X66174285Y-93357200D01*
X66174285Y-93357200D02*
X66079047Y-93404819D01*
X66079047Y-93404819D02*
X65793333Y-93404819D01*
X65793333Y-93404819D02*
X65698095Y-93357200D01*
X65698095Y-93357200D02*
X65650476Y-93309580D01*
X160824819Y-77722857D02*
X160348628Y-78056190D01*
X160824819Y-78294285D02*
X159824819Y-78294285D01*
X159824819Y-78294285D02*
X159824819Y-77913333D01*
X159824819Y-77913333D02*
X159872438Y-77818095D01*
X159872438Y-77818095D02*
X159920057Y-77770476D01*
X159920057Y-77770476D02*
X160015295Y-77722857D01*
X160015295Y-77722857D02*
X160158152Y-77722857D01*
X160158152Y-77722857D02*
X160253390Y-77770476D01*
X160253390Y-77770476D02*
X160301009Y-77818095D01*
X160301009Y-77818095D02*
X160348628Y-77913333D01*
X160348628Y-77913333D02*
X160348628Y-78294285D01*
X160824819Y-76770476D02*
X160824819Y-77341904D01*
X160824819Y-77056190D02*
X159824819Y-77056190D01*
X159824819Y-77056190D02*
X159967676Y-77151428D01*
X159967676Y-77151428D02*
X160062914Y-77246666D01*
X160062914Y-77246666D02*
X160110533Y-77341904D01*
X160253390Y-76199047D02*
X160205771Y-76294285D01*
X160205771Y-76294285D02*
X160158152Y-76341904D01*
X160158152Y-76341904D02*
X160062914Y-76389523D01*
X160062914Y-76389523D02*
X160015295Y-76389523D01*
X160015295Y-76389523D02*
X159920057Y-76341904D01*
X159920057Y-76341904D02*
X159872438Y-76294285D01*
X159872438Y-76294285D02*
X159824819Y-76199047D01*
X159824819Y-76199047D02*
X159824819Y-76008571D01*
X159824819Y-76008571D02*
X159872438Y-75913333D01*
X159872438Y-75913333D02*
X159920057Y-75865714D01*
X159920057Y-75865714D02*
X160015295Y-75818095D01*
X160015295Y-75818095D02*
X160062914Y-75818095D01*
X160062914Y-75818095D02*
X160158152Y-75865714D01*
X160158152Y-75865714D02*
X160205771Y-75913333D01*
X160205771Y-75913333D02*
X160253390Y-76008571D01*
X160253390Y-76008571D02*
X160253390Y-76199047D01*
X160253390Y-76199047D02*
X160301009Y-76294285D01*
X160301009Y-76294285D02*
X160348628Y-76341904D01*
X160348628Y-76341904D02*
X160443866Y-76389523D01*
X160443866Y-76389523D02*
X160634342Y-76389523D01*
X160634342Y-76389523D02*
X160729580Y-76341904D01*
X160729580Y-76341904D02*
X160777200Y-76294285D01*
X160777200Y-76294285D02*
X160824819Y-76199047D01*
X160824819Y-76199047D02*
X160824819Y-76008571D01*
X160824819Y-76008571D02*
X160777200Y-75913333D01*
X160777200Y-75913333D02*
X160729580Y-75865714D01*
X160729580Y-75865714D02*
X160634342Y-75818095D01*
X160634342Y-75818095D02*
X160443866Y-75818095D01*
X160443866Y-75818095D02*
X160348628Y-75865714D01*
X160348628Y-75865714D02*
X160301009Y-75913333D01*
X160301009Y-75913333D02*
X160253390Y-76008571D01*
X54083333Y-85609580D02*
X54035714Y-85657200D01*
X54035714Y-85657200D02*
X53892857Y-85704819D01*
X53892857Y-85704819D02*
X53797619Y-85704819D01*
X53797619Y-85704819D02*
X53654762Y-85657200D01*
X53654762Y-85657200D02*
X53559524Y-85561961D01*
X53559524Y-85561961D02*
X53511905Y-85466723D01*
X53511905Y-85466723D02*
X53464286Y-85276247D01*
X53464286Y-85276247D02*
X53464286Y-85133390D01*
X53464286Y-85133390D02*
X53511905Y-84942914D01*
X53511905Y-84942914D02*
X53559524Y-84847676D01*
X53559524Y-84847676D02*
X53654762Y-84752438D01*
X53654762Y-84752438D02*
X53797619Y-84704819D01*
X53797619Y-84704819D02*
X53892857Y-84704819D01*
X53892857Y-84704819D02*
X54035714Y-84752438D01*
X54035714Y-84752438D02*
X54083333Y-84800057D01*
X54559524Y-85704819D02*
X54750000Y-85704819D01*
X54750000Y-85704819D02*
X54845238Y-85657200D01*
X54845238Y-85657200D02*
X54892857Y-85609580D01*
X54892857Y-85609580D02*
X54988095Y-85466723D01*
X54988095Y-85466723D02*
X55035714Y-85276247D01*
X55035714Y-85276247D02*
X55035714Y-84895295D01*
X55035714Y-84895295D02*
X54988095Y-84800057D01*
X54988095Y-84800057D02*
X54940476Y-84752438D01*
X54940476Y-84752438D02*
X54845238Y-84704819D01*
X54845238Y-84704819D02*
X54654762Y-84704819D01*
X54654762Y-84704819D02*
X54559524Y-84752438D01*
X54559524Y-84752438D02*
X54511905Y-84800057D01*
X54511905Y-84800057D02*
X54464286Y-84895295D01*
X54464286Y-84895295D02*
X54464286Y-85133390D01*
X54464286Y-85133390D02*
X54511905Y-85228628D01*
X54511905Y-85228628D02*
X54559524Y-85276247D01*
X54559524Y-85276247D02*
X54654762Y-85323866D01*
X54654762Y-85323866D02*
X54845238Y-85323866D01*
X54845238Y-85323866D02*
X54940476Y-85276247D01*
X54940476Y-85276247D02*
X54988095Y-85228628D01*
X54988095Y-85228628D02*
X55035714Y-85133390D01*
X155254819Y-90198094D02*
X154254819Y-90198094D01*
X154254819Y-90198094D02*
X154254819Y-89959999D01*
X154254819Y-89959999D02*
X154302438Y-89817142D01*
X154302438Y-89817142D02*
X154397676Y-89721904D01*
X154397676Y-89721904D02*
X154492914Y-89674285D01*
X154492914Y-89674285D02*
X154683390Y-89626666D01*
X154683390Y-89626666D02*
X154826247Y-89626666D01*
X154826247Y-89626666D02*
X155016723Y-89674285D01*
X155016723Y-89674285D02*
X155111961Y-89721904D01*
X155111961Y-89721904D02*
X155207200Y-89817142D01*
X155207200Y-89817142D02*
X155254819Y-89959999D01*
X155254819Y-89959999D02*
X155254819Y-90198094D01*
X154254819Y-89293332D02*
X154254819Y-88674285D01*
X154254819Y-88674285D02*
X154635771Y-89007618D01*
X154635771Y-89007618D02*
X154635771Y-88864761D01*
X154635771Y-88864761D02*
X154683390Y-88769523D01*
X154683390Y-88769523D02*
X154731009Y-88721904D01*
X154731009Y-88721904D02*
X154826247Y-88674285D01*
X154826247Y-88674285D02*
X155064342Y-88674285D01*
X155064342Y-88674285D02*
X155159580Y-88721904D01*
X155159580Y-88721904D02*
X155207200Y-88769523D01*
X155207200Y-88769523D02*
X155254819Y-88864761D01*
X155254819Y-88864761D02*
X155254819Y-89150475D01*
X155254819Y-89150475D02*
X155207200Y-89245713D01*
X155207200Y-89245713D02*
X155159580Y-89293332D01*
X114277142Y-110824819D02*
X113943809Y-110348628D01*
X113705714Y-110824819D02*
X113705714Y-109824819D01*
X113705714Y-109824819D02*
X114086666Y-109824819D01*
X114086666Y-109824819D02*
X114181904Y-109872438D01*
X114181904Y-109872438D02*
X114229523Y-109920057D01*
X114229523Y-109920057D02*
X114277142Y-110015295D01*
X114277142Y-110015295D02*
X114277142Y-110158152D01*
X114277142Y-110158152D02*
X114229523Y-110253390D01*
X114229523Y-110253390D02*
X114181904Y-110301009D01*
X114181904Y-110301009D02*
X114086666Y-110348628D01*
X114086666Y-110348628D02*
X113705714Y-110348628D01*
X115229523Y-110824819D02*
X114658095Y-110824819D01*
X114943809Y-110824819D02*
X114943809Y-109824819D01*
X114943809Y-109824819D02*
X114848571Y-109967676D01*
X114848571Y-109967676D02*
X114753333Y-110062914D01*
X114753333Y-110062914D02*
X114658095Y-110110533D01*
X115610476Y-109920057D02*
X115658095Y-109872438D01*
X115658095Y-109872438D02*
X115753333Y-109824819D01*
X115753333Y-109824819D02*
X115991428Y-109824819D01*
X115991428Y-109824819D02*
X116086666Y-109872438D01*
X116086666Y-109872438D02*
X116134285Y-109920057D01*
X116134285Y-109920057D02*
X116181904Y-110015295D01*
X116181904Y-110015295D02*
X116181904Y-110110533D01*
X116181904Y-110110533D02*
X116134285Y-110253390D01*
X116134285Y-110253390D02*
X115562857Y-110824819D01*
X115562857Y-110824819D02*
X116181904Y-110824819D01*
X51857142Y-103859580D02*
X51809523Y-103907200D01*
X51809523Y-103907200D02*
X51666666Y-103954819D01*
X51666666Y-103954819D02*
X51571428Y-103954819D01*
X51571428Y-103954819D02*
X51428571Y-103907200D01*
X51428571Y-103907200D02*
X51333333Y-103811961D01*
X51333333Y-103811961D02*
X51285714Y-103716723D01*
X51285714Y-103716723D02*
X51238095Y-103526247D01*
X51238095Y-103526247D02*
X51238095Y-103383390D01*
X51238095Y-103383390D02*
X51285714Y-103192914D01*
X51285714Y-103192914D02*
X51333333Y-103097676D01*
X51333333Y-103097676D02*
X51428571Y-103002438D01*
X51428571Y-103002438D02*
X51571428Y-102954819D01*
X51571428Y-102954819D02*
X51666666Y-102954819D01*
X51666666Y-102954819D02*
X51809523Y-103002438D01*
X51809523Y-103002438D02*
X51857142Y-103050057D01*
X52809523Y-103954819D02*
X52238095Y-103954819D01*
X52523809Y-103954819D02*
X52523809Y-102954819D01*
X52523809Y-102954819D02*
X52428571Y-103097676D01*
X52428571Y-103097676D02*
X52333333Y-103192914D01*
X52333333Y-103192914D02*
X52238095Y-103240533D01*
X53428571Y-102954819D02*
X53523809Y-102954819D01*
X53523809Y-102954819D02*
X53619047Y-103002438D01*
X53619047Y-103002438D02*
X53666666Y-103050057D01*
X53666666Y-103050057D02*
X53714285Y-103145295D01*
X53714285Y-103145295D02*
X53761904Y-103335771D01*
X53761904Y-103335771D02*
X53761904Y-103573866D01*
X53761904Y-103573866D02*
X53714285Y-103764342D01*
X53714285Y-103764342D02*
X53666666Y-103859580D01*
X53666666Y-103859580D02*
X53619047Y-103907200D01*
X53619047Y-103907200D02*
X53523809Y-103954819D01*
X53523809Y-103954819D02*
X53428571Y-103954819D01*
X53428571Y-103954819D02*
X53333333Y-103907200D01*
X53333333Y-103907200D02*
X53285714Y-103859580D01*
X53285714Y-103859580D02*
X53238095Y-103764342D01*
X53238095Y-103764342D02*
X53190476Y-103573866D01*
X53190476Y-103573866D02*
X53190476Y-103335771D01*
X53190476Y-103335771D02*
X53238095Y-103145295D01*
X53238095Y-103145295D02*
X53285714Y-103050057D01*
X53285714Y-103050057D02*
X53333333Y-103002438D01*
X53333333Y-103002438D02*
X53428571Y-102954819D01*
X148609580Y-45916666D02*
X148657200Y-45964285D01*
X148657200Y-45964285D02*
X148704819Y-46107142D01*
X148704819Y-46107142D02*
X148704819Y-46202380D01*
X148704819Y-46202380D02*
X148657200Y-46345237D01*
X148657200Y-46345237D02*
X148561961Y-46440475D01*
X148561961Y-46440475D02*
X148466723Y-46488094D01*
X148466723Y-46488094D02*
X148276247Y-46535713D01*
X148276247Y-46535713D02*
X148133390Y-46535713D01*
X148133390Y-46535713D02*
X147942914Y-46488094D01*
X147942914Y-46488094D02*
X147847676Y-46440475D01*
X147847676Y-46440475D02*
X147752438Y-46345237D01*
X147752438Y-46345237D02*
X147704819Y-46202380D01*
X147704819Y-46202380D02*
X147704819Y-46107142D01*
X147704819Y-46107142D02*
X147752438Y-45964285D01*
X147752438Y-45964285D02*
X147800057Y-45916666D01*
X147704819Y-45059523D02*
X147704819Y-45249999D01*
X147704819Y-45249999D02*
X147752438Y-45345237D01*
X147752438Y-45345237D02*
X147800057Y-45392856D01*
X147800057Y-45392856D02*
X147942914Y-45488094D01*
X147942914Y-45488094D02*
X148133390Y-45535713D01*
X148133390Y-45535713D02*
X148514342Y-45535713D01*
X148514342Y-45535713D02*
X148609580Y-45488094D01*
X148609580Y-45488094D02*
X148657200Y-45440475D01*
X148657200Y-45440475D02*
X148704819Y-45345237D01*
X148704819Y-45345237D02*
X148704819Y-45154761D01*
X148704819Y-45154761D02*
X148657200Y-45059523D01*
X148657200Y-45059523D02*
X148609580Y-45011904D01*
X148609580Y-45011904D02*
X148514342Y-44964285D01*
X148514342Y-44964285D02*
X148276247Y-44964285D01*
X148276247Y-44964285D02*
X148181009Y-45011904D01*
X148181009Y-45011904D02*
X148133390Y-45059523D01*
X148133390Y-45059523D02*
X148085771Y-45154761D01*
X148085771Y-45154761D02*
X148085771Y-45345237D01*
X148085771Y-45345237D02*
X148133390Y-45440475D01*
X148133390Y-45440475D02*
X148181009Y-45488094D01*
X148181009Y-45488094D02*
X148276247Y-45535713D01*
X81801905Y-26354819D02*
X81801905Y-25354819D01*
X81801905Y-25354819D02*
X82040000Y-25354819D01*
X82040000Y-25354819D02*
X82182857Y-25402438D01*
X82182857Y-25402438D02*
X82278095Y-25497676D01*
X82278095Y-25497676D02*
X82325714Y-25592914D01*
X82325714Y-25592914D02*
X82373333Y-25783390D01*
X82373333Y-25783390D02*
X82373333Y-25926247D01*
X82373333Y-25926247D02*
X82325714Y-26116723D01*
X82325714Y-26116723D02*
X82278095Y-26211961D01*
X82278095Y-26211961D02*
X82182857Y-26307200D01*
X82182857Y-26307200D02*
X82040000Y-26354819D01*
X82040000Y-26354819D02*
X81801905Y-26354819D01*
X83325714Y-26354819D02*
X82754286Y-26354819D01*
X83040000Y-26354819D02*
X83040000Y-25354819D01*
X83040000Y-25354819D02*
X82944762Y-25497676D01*
X82944762Y-25497676D02*
X82849524Y-25592914D01*
X82849524Y-25592914D02*
X82754286Y-25640533D01*
X88109580Y-120142857D02*
X88157200Y-120190476D01*
X88157200Y-120190476D02*
X88204819Y-120333333D01*
X88204819Y-120333333D02*
X88204819Y-120428571D01*
X88204819Y-120428571D02*
X88157200Y-120571428D01*
X88157200Y-120571428D02*
X88061961Y-120666666D01*
X88061961Y-120666666D02*
X87966723Y-120714285D01*
X87966723Y-120714285D02*
X87776247Y-120761904D01*
X87776247Y-120761904D02*
X87633390Y-120761904D01*
X87633390Y-120761904D02*
X87442914Y-120714285D01*
X87442914Y-120714285D02*
X87347676Y-120666666D01*
X87347676Y-120666666D02*
X87252438Y-120571428D01*
X87252438Y-120571428D02*
X87204819Y-120428571D01*
X87204819Y-120428571D02*
X87204819Y-120333333D01*
X87204819Y-120333333D02*
X87252438Y-120190476D01*
X87252438Y-120190476D02*
X87300057Y-120142857D01*
X88204819Y-119190476D02*
X88204819Y-119761904D01*
X88204819Y-119476190D02*
X87204819Y-119476190D01*
X87204819Y-119476190D02*
X87347676Y-119571428D01*
X87347676Y-119571428D02*
X87442914Y-119666666D01*
X87442914Y-119666666D02*
X87490533Y-119761904D01*
X87300057Y-118809523D02*
X87252438Y-118761904D01*
X87252438Y-118761904D02*
X87204819Y-118666666D01*
X87204819Y-118666666D02*
X87204819Y-118428571D01*
X87204819Y-118428571D02*
X87252438Y-118333333D01*
X87252438Y-118333333D02*
X87300057Y-118285714D01*
X87300057Y-118285714D02*
X87395295Y-118238095D01*
X87395295Y-118238095D02*
X87490533Y-118238095D01*
X87490533Y-118238095D02*
X87633390Y-118285714D01*
X87633390Y-118285714D02*
X88204819Y-118857142D01*
X88204819Y-118857142D02*
X88204819Y-118238095D01*
X131109580Y-45916666D02*
X131157200Y-45964285D01*
X131157200Y-45964285D02*
X131204819Y-46107142D01*
X131204819Y-46107142D02*
X131204819Y-46202380D01*
X131204819Y-46202380D02*
X131157200Y-46345237D01*
X131157200Y-46345237D02*
X131061961Y-46440475D01*
X131061961Y-46440475D02*
X130966723Y-46488094D01*
X130966723Y-46488094D02*
X130776247Y-46535713D01*
X130776247Y-46535713D02*
X130633390Y-46535713D01*
X130633390Y-46535713D02*
X130442914Y-46488094D01*
X130442914Y-46488094D02*
X130347676Y-46440475D01*
X130347676Y-46440475D02*
X130252438Y-46345237D01*
X130252438Y-46345237D02*
X130204819Y-46202380D01*
X130204819Y-46202380D02*
X130204819Y-46107142D01*
X130204819Y-46107142D02*
X130252438Y-45964285D01*
X130252438Y-45964285D02*
X130300057Y-45916666D01*
X130204819Y-45011904D02*
X130204819Y-45488094D01*
X130204819Y-45488094D02*
X130681009Y-45535713D01*
X130681009Y-45535713D02*
X130633390Y-45488094D01*
X130633390Y-45488094D02*
X130585771Y-45392856D01*
X130585771Y-45392856D02*
X130585771Y-45154761D01*
X130585771Y-45154761D02*
X130633390Y-45059523D01*
X130633390Y-45059523D02*
X130681009Y-45011904D01*
X130681009Y-45011904D02*
X130776247Y-44964285D01*
X130776247Y-44964285D02*
X131014342Y-44964285D01*
X131014342Y-44964285D02*
X131109580Y-45011904D01*
X131109580Y-45011904D02*
X131157200Y-45059523D01*
X131157200Y-45059523D02*
X131204819Y-45154761D01*
X131204819Y-45154761D02*
X131204819Y-45392856D01*
X131204819Y-45392856D02*
X131157200Y-45488094D01*
X131157200Y-45488094D02*
X131109580Y-45535713D01*
X70444761Y-26450057D02*
X70349523Y-26402438D01*
X70349523Y-26402438D02*
X70254285Y-26307200D01*
X70254285Y-26307200D02*
X70111428Y-26164342D01*
X70111428Y-26164342D02*
X70016190Y-26116723D01*
X70016190Y-26116723D02*
X69920952Y-26116723D01*
X69968571Y-26354819D02*
X69873333Y-26307200D01*
X69873333Y-26307200D02*
X69778095Y-26211961D01*
X69778095Y-26211961D02*
X69730476Y-26021485D01*
X69730476Y-26021485D02*
X69730476Y-25688152D01*
X69730476Y-25688152D02*
X69778095Y-25497676D01*
X69778095Y-25497676D02*
X69873333Y-25402438D01*
X69873333Y-25402438D02*
X69968571Y-25354819D01*
X69968571Y-25354819D02*
X70159047Y-25354819D01*
X70159047Y-25354819D02*
X70254285Y-25402438D01*
X70254285Y-25402438D02*
X70349523Y-25497676D01*
X70349523Y-25497676D02*
X70397142Y-25688152D01*
X70397142Y-25688152D02*
X70397142Y-26021485D01*
X70397142Y-26021485D02*
X70349523Y-26211961D01*
X70349523Y-26211961D02*
X70254285Y-26307200D01*
X70254285Y-26307200D02*
X70159047Y-26354819D01*
X70159047Y-26354819D02*
X69968571Y-26354819D01*
X71349523Y-26354819D02*
X70778095Y-26354819D01*
X71063809Y-26354819D02*
X71063809Y-25354819D01*
X71063809Y-25354819D02*
X70968571Y-25497676D01*
X70968571Y-25497676D02*
X70873333Y-25592914D01*
X70873333Y-25592914D02*
X70778095Y-25640533D01*
X53857142Y-107239580D02*
X53809523Y-107287200D01*
X53809523Y-107287200D02*
X53666666Y-107334819D01*
X53666666Y-107334819D02*
X53571428Y-107334819D01*
X53571428Y-107334819D02*
X53428571Y-107287200D01*
X53428571Y-107287200D02*
X53333333Y-107191961D01*
X53333333Y-107191961D02*
X53285714Y-107096723D01*
X53285714Y-107096723D02*
X53238095Y-106906247D01*
X53238095Y-106906247D02*
X53238095Y-106763390D01*
X53238095Y-106763390D02*
X53285714Y-106572914D01*
X53285714Y-106572914D02*
X53333333Y-106477676D01*
X53333333Y-106477676D02*
X53428571Y-106382438D01*
X53428571Y-106382438D02*
X53571428Y-106334819D01*
X53571428Y-106334819D02*
X53666666Y-106334819D01*
X53666666Y-106334819D02*
X53809523Y-106382438D01*
X53809523Y-106382438D02*
X53857142Y-106430057D01*
X54809523Y-107334819D02*
X54238095Y-107334819D01*
X54523809Y-107334819D02*
X54523809Y-106334819D01*
X54523809Y-106334819D02*
X54428571Y-106477676D01*
X54428571Y-106477676D02*
X54333333Y-106572914D01*
X54333333Y-106572914D02*
X54238095Y-106620533D01*
X55761904Y-107334819D02*
X55190476Y-107334819D01*
X55476190Y-107334819D02*
X55476190Y-106334819D01*
X55476190Y-106334819D02*
X55380952Y-106477676D01*
X55380952Y-106477676D02*
X55285714Y-106572914D01*
X55285714Y-106572914D02*
X55190476Y-106620533D01*
X56609580Y-66916666D02*
X56657200Y-66964285D01*
X56657200Y-66964285D02*
X56704819Y-67107142D01*
X56704819Y-67107142D02*
X56704819Y-67202380D01*
X56704819Y-67202380D02*
X56657200Y-67345237D01*
X56657200Y-67345237D02*
X56561961Y-67440475D01*
X56561961Y-67440475D02*
X56466723Y-67488094D01*
X56466723Y-67488094D02*
X56276247Y-67535713D01*
X56276247Y-67535713D02*
X56133390Y-67535713D01*
X56133390Y-67535713D02*
X55942914Y-67488094D01*
X55942914Y-67488094D02*
X55847676Y-67440475D01*
X55847676Y-67440475D02*
X55752438Y-67345237D01*
X55752438Y-67345237D02*
X55704819Y-67202380D01*
X55704819Y-67202380D02*
X55704819Y-67107142D01*
X55704819Y-67107142D02*
X55752438Y-66964285D01*
X55752438Y-66964285D02*
X55800057Y-66916666D01*
X55800057Y-66535713D02*
X55752438Y-66488094D01*
X55752438Y-66488094D02*
X55704819Y-66392856D01*
X55704819Y-66392856D02*
X55704819Y-66154761D01*
X55704819Y-66154761D02*
X55752438Y-66059523D01*
X55752438Y-66059523D02*
X55800057Y-66011904D01*
X55800057Y-66011904D02*
X55895295Y-65964285D01*
X55895295Y-65964285D02*
X55990533Y-65964285D01*
X55990533Y-65964285D02*
X56133390Y-66011904D01*
X56133390Y-66011904D02*
X56704819Y-66583332D01*
X56704819Y-66583332D02*
X56704819Y-65964285D01*
X72913333Y-34084819D02*
X72580000Y-33608628D01*
X72341905Y-34084819D02*
X72341905Y-33084819D01*
X72341905Y-33084819D02*
X72722857Y-33084819D01*
X72722857Y-33084819D02*
X72818095Y-33132438D01*
X72818095Y-33132438D02*
X72865714Y-33180057D01*
X72865714Y-33180057D02*
X72913333Y-33275295D01*
X72913333Y-33275295D02*
X72913333Y-33418152D01*
X72913333Y-33418152D02*
X72865714Y-33513390D01*
X72865714Y-33513390D02*
X72818095Y-33561009D01*
X72818095Y-33561009D02*
X72722857Y-33608628D01*
X72722857Y-33608628D02*
X72341905Y-33608628D01*
X73818095Y-33084819D02*
X73341905Y-33084819D01*
X73341905Y-33084819D02*
X73294286Y-33561009D01*
X73294286Y-33561009D02*
X73341905Y-33513390D01*
X73341905Y-33513390D02*
X73437143Y-33465771D01*
X73437143Y-33465771D02*
X73675238Y-33465771D01*
X73675238Y-33465771D02*
X73770476Y-33513390D01*
X73770476Y-33513390D02*
X73818095Y-33561009D01*
X73818095Y-33561009D02*
X73865714Y-33656247D01*
X73865714Y-33656247D02*
X73865714Y-33894342D01*
X73865714Y-33894342D02*
X73818095Y-33989580D01*
X73818095Y-33989580D02*
X73770476Y-34037200D01*
X73770476Y-34037200D02*
X73675238Y-34084819D01*
X73675238Y-34084819D02*
X73437143Y-34084819D01*
X73437143Y-34084819D02*
X73341905Y-34037200D01*
X73341905Y-34037200D02*
X73294286Y-33989580D01*
X93451905Y-89574819D02*
X93451905Y-88574819D01*
X93451905Y-88574819D02*
X93690000Y-88574819D01*
X93690000Y-88574819D02*
X93832857Y-88622438D01*
X93832857Y-88622438D02*
X93928095Y-88717676D01*
X93928095Y-88717676D02*
X93975714Y-88812914D01*
X93975714Y-88812914D02*
X94023333Y-89003390D01*
X94023333Y-89003390D02*
X94023333Y-89146247D01*
X94023333Y-89146247D02*
X93975714Y-89336723D01*
X93975714Y-89336723D02*
X93928095Y-89431961D01*
X93928095Y-89431961D02*
X93832857Y-89527200D01*
X93832857Y-89527200D02*
X93690000Y-89574819D01*
X93690000Y-89574819D02*
X93451905Y-89574819D01*
X94880476Y-88908152D02*
X94880476Y-89574819D01*
X94642381Y-88527200D02*
X94404286Y-89241485D01*
X94404286Y-89241485D02*
X95023333Y-89241485D01*
X97738095Y-89254819D02*
X97738095Y-88254819D01*
X98309523Y-89254819D02*
X97880952Y-88683390D01*
X98309523Y-88254819D02*
X97738095Y-88826247D01*
X58084819Y-73586666D02*
X57608628Y-73919999D01*
X58084819Y-74158094D02*
X57084819Y-74158094D01*
X57084819Y-74158094D02*
X57084819Y-73777142D01*
X57084819Y-73777142D02*
X57132438Y-73681904D01*
X57132438Y-73681904D02*
X57180057Y-73634285D01*
X57180057Y-73634285D02*
X57275295Y-73586666D01*
X57275295Y-73586666D02*
X57418152Y-73586666D01*
X57418152Y-73586666D02*
X57513390Y-73634285D01*
X57513390Y-73634285D02*
X57561009Y-73681904D01*
X57561009Y-73681904D02*
X57608628Y-73777142D01*
X57608628Y-73777142D02*
X57608628Y-74158094D01*
X57084819Y-72729523D02*
X57084819Y-72919999D01*
X57084819Y-72919999D02*
X57132438Y-73015237D01*
X57132438Y-73015237D02*
X57180057Y-73062856D01*
X57180057Y-73062856D02*
X57322914Y-73158094D01*
X57322914Y-73158094D02*
X57513390Y-73205713D01*
X57513390Y-73205713D02*
X57894342Y-73205713D01*
X57894342Y-73205713D02*
X57989580Y-73158094D01*
X57989580Y-73158094D02*
X58037200Y-73110475D01*
X58037200Y-73110475D02*
X58084819Y-73015237D01*
X58084819Y-73015237D02*
X58084819Y-72824761D01*
X58084819Y-72824761D02*
X58037200Y-72729523D01*
X58037200Y-72729523D02*
X57989580Y-72681904D01*
X57989580Y-72681904D02*
X57894342Y-72634285D01*
X57894342Y-72634285D02*
X57656247Y-72634285D01*
X57656247Y-72634285D02*
X57561009Y-72681904D01*
X57561009Y-72681904D02*
X57513390Y-72729523D01*
X57513390Y-72729523D02*
X57465771Y-72824761D01*
X57465771Y-72824761D02*
X57465771Y-73015237D01*
X57465771Y-73015237D02*
X57513390Y-73110475D01*
X57513390Y-73110475D02*
X57561009Y-73158094D01*
X57561009Y-73158094D02*
X57656247Y-73205713D01*
X96084819Y-99942857D02*
X95608628Y-100276190D01*
X96084819Y-100514285D02*
X95084819Y-100514285D01*
X95084819Y-100514285D02*
X95084819Y-100133333D01*
X95084819Y-100133333D02*
X95132438Y-100038095D01*
X95132438Y-100038095D02*
X95180057Y-99990476D01*
X95180057Y-99990476D02*
X95275295Y-99942857D01*
X95275295Y-99942857D02*
X95418152Y-99942857D01*
X95418152Y-99942857D02*
X95513390Y-99990476D01*
X95513390Y-99990476D02*
X95561009Y-100038095D01*
X95561009Y-100038095D02*
X95608628Y-100133333D01*
X95608628Y-100133333D02*
X95608628Y-100514285D01*
X96084819Y-98990476D02*
X96084819Y-99561904D01*
X96084819Y-99276190D02*
X95084819Y-99276190D01*
X95084819Y-99276190D02*
X95227676Y-99371428D01*
X95227676Y-99371428D02*
X95322914Y-99466666D01*
X95322914Y-99466666D02*
X95370533Y-99561904D01*
X95084819Y-98657142D02*
X95084819Y-98038095D01*
X95084819Y-98038095D02*
X95465771Y-98371428D01*
X95465771Y-98371428D02*
X95465771Y-98228571D01*
X95465771Y-98228571D02*
X95513390Y-98133333D01*
X95513390Y-98133333D02*
X95561009Y-98085714D01*
X95561009Y-98085714D02*
X95656247Y-98038095D01*
X95656247Y-98038095D02*
X95894342Y-98038095D01*
X95894342Y-98038095D02*
X95989580Y-98085714D01*
X95989580Y-98085714D02*
X96037200Y-98133333D01*
X96037200Y-98133333D02*
X96084819Y-98228571D01*
X96084819Y-98228571D02*
X96084819Y-98514285D01*
X96084819Y-98514285D02*
X96037200Y-98609523D01*
X96037200Y-98609523D02*
X95989580Y-98657142D01*
X100824819Y-117722857D02*
X100348628Y-118056190D01*
X100824819Y-118294285D02*
X99824819Y-118294285D01*
X99824819Y-118294285D02*
X99824819Y-117913333D01*
X99824819Y-117913333D02*
X99872438Y-117818095D01*
X99872438Y-117818095D02*
X99920057Y-117770476D01*
X99920057Y-117770476D02*
X100015295Y-117722857D01*
X100015295Y-117722857D02*
X100158152Y-117722857D01*
X100158152Y-117722857D02*
X100253390Y-117770476D01*
X100253390Y-117770476D02*
X100301009Y-117818095D01*
X100301009Y-117818095D02*
X100348628Y-117913333D01*
X100348628Y-117913333D02*
X100348628Y-118294285D01*
X100824819Y-116770476D02*
X100824819Y-117341904D01*
X100824819Y-117056190D02*
X99824819Y-117056190D01*
X99824819Y-117056190D02*
X99967676Y-117151428D01*
X99967676Y-117151428D02*
X100062914Y-117246666D01*
X100062914Y-117246666D02*
X100110533Y-117341904D01*
X100824819Y-115818095D02*
X100824819Y-116389523D01*
X100824819Y-116103809D02*
X99824819Y-116103809D01*
X99824819Y-116103809D02*
X99967676Y-116199047D01*
X99967676Y-116199047D02*
X100062914Y-116294285D01*
X100062914Y-116294285D02*
X100110533Y-116389523D01*
X66084819Y-73586666D02*
X65608628Y-73919999D01*
X66084819Y-74158094D02*
X65084819Y-74158094D01*
X65084819Y-74158094D02*
X65084819Y-73777142D01*
X65084819Y-73777142D02*
X65132438Y-73681904D01*
X65132438Y-73681904D02*
X65180057Y-73634285D01*
X65180057Y-73634285D02*
X65275295Y-73586666D01*
X65275295Y-73586666D02*
X65418152Y-73586666D01*
X65418152Y-73586666D02*
X65513390Y-73634285D01*
X65513390Y-73634285D02*
X65561009Y-73681904D01*
X65561009Y-73681904D02*
X65608628Y-73777142D01*
X65608628Y-73777142D02*
X65608628Y-74158094D01*
X65418152Y-72729523D02*
X66084819Y-72729523D01*
X65037200Y-72967618D02*
X65751485Y-73205713D01*
X65751485Y-73205713D02*
X65751485Y-72586666D01*
X45933333Y-21454819D02*
X45457143Y-21454819D01*
X45457143Y-21454819D02*
X45457143Y-20454819D01*
X46790476Y-21454819D02*
X46219048Y-21454819D01*
X46504762Y-21454819D02*
X46504762Y-20454819D01*
X46504762Y-20454819D02*
X46409524Y-20597676D01*
X46409524Y-20597676D02*
X46314286Y-20692914D01*
X46314286Y-20692914D02*
X46219048Y-20740533D01*
X91857142Y-107489580D02*
X91809523Y-107537200D01*
X91809523Y-107537200D02*
X91666666Y-107584819D01*
X91666666Y-107584819D02*
X91571428Y-107584819D01*
X91571428Y-107584819D02*
X91428571Y-107537200D01*
X91428571Y-107537200D02*
X91333333Y-107441961D01*
X91333333Y-107441961D02*
X91285714Y-107346723D01*
X91285714Y-107346723D02*
X91238095Y-107156247D01*
X91238095Y-107156247D02*
X91238095Y-107013390D01*
X91238095Y-107013390D02*
X91285714Y-106822914D01*
X91285714Y-106822914D02*
X91333333Y-106727676D01*
X91333333Y-106727676D02*
X91428571Y-106632438D01*
X91428571Y-106632438D02*
X91571428Y-106584819D01*
X91571428Y-106584819D02*
X91666666Y-106584819D01*
X91666666Y-106584819D02*
X91809523Y-106632438D01*
X91809523Y-106632438D02*
X91857142Y-106680057D01*
X92809523Y-107584819D02*
X92238095Y-107584819D01*
X92523809Y-107584819D02*
X92523809Y-106584819D01*
X92523809Y-106584819D02*
X92428571Y-106727676D01*
X92428571Y-106727676D02*
X92333333Y-106822914D01*
X92333333Y-106822914D02*
X92238095Y-106870533D01*
X93666666Y-106584819D02*
X93476190Y-106584819D01*
X93476190Y-106584819D02*
X93380952Y-106632438D01*
X93380952Y-106632438D02*
X93333333Y-106680057D01*
X93333333Y-106680057D02*
X93238095Y-106822914D01*
X93238095Y-106822914D02*
X93190476Y-107013390D01*
X93190476Y-107013390D02*
X93190476Y-107394342D01*
X93190476Y-107394342D02*
X93238095Y-107489580D01*
X93238095Y-107489580D02*
X93285714Y-107537200D01*
X93285714Y-107537200D02*
X93380952Y-107584819D01*
X93380952Y-107584819D02*
X93571428Y-107584819D01*
X93571428Y-107584819D02*
X93666666Y-107537200D01*
X93666666Y-107537200D02*
X93714285Y-107489580D01*
X93714285Y-107489580D02*
X93761904Y-107394342D01*
X93761904Y-107394342D02*
X93761904Y-107156247D01*
X93761904Y-107156247D02*
X93714285Y-107061009D01*
X93714285Y-107061009D02*
X93666666Y-107013390D01*
X93666666Y-107013390D02*
X93571428Y-106965771D01*
X93571428Y-106965771D02*
X93380952Y-106965771D01*
X93380952Y-106965771D02*
X93285714Y-107013390D01*
X93285714Y-107013390D02*
X93238095Y-107061009D01*
X93238095Y-107061009D02*
X93190476Y-107156247D01*
X106277142Y-116824819D02*
X105943809Y-116348628D01*
X105705714Y-116824819D02*
X105705714Y-115824819D01*
X105705714Y-115824819D02*
X106086666Y-115824819D01*
X106086666Y-115824819D02*
X106181904Y-115872438D01*
X106181904Y-115872438D02*
X106229523Y-115920057D01*
X106229523Y-115920057D02*
X106277142Y-116015295D01*
X106277142Y-116015295D02*
X106277142Y-116158152D01*
X106277142Y-116158152D02*
X106229523Y-116253390D01*
X106229523Y-116253390D02*
X106181904Y-116301009D01*
X106181904Y-116301009D02*
X106086666Y-116348628D01*
X106086666Y-116348628D02*
X105705714Y-116348628D01*
X107229523Y-116824819D02*
X106658095Y-116824819D01*
X106943809Y-116824819D02*
X106943809Y-115824819D01*
X106943809Y-115824819D02*
X106848571Y-115967676D01*
X106848571Y-115967676D02*
X106753333Y-116062914D01*
X106753333Y-116062914D02*
X106658095Y-116110533D01*
X107848571Y-115824819D02*
X107943809Y-115824819D01*
X107943809Y-115824819D02*
X108039047Y-115872438D01*
X108039047Y-115872438D02*
X108086666Y-115920057D01*
X108086666Y-115920057D02*
X108134285Y-116015295D01*
X108134285Y-116015295D02*
X108181904Y-116205771D01*
X108181904Y-116205771D02*
X108181904Y-116443866D01*
X108181904Y-116443866D02*
X108134285Y-116634342D01*
X108134285Y-116634342D02*
X108086666Y-116729580D01*
X108086666Y-116729580D02*
X108039047Y-116777200D01*
X108039047Y-116777200D02*
X107943809Y-116824819D01*
X107943809Y-116824819D02*
X107848571Y-116824819D01*
X107848571Y-116824819D02*
X107753333Y-116777200D01*
X107753333Y-116777200D02*
X107705714Y-116729580D01*
X107705714Y-116729580D02*
X107658095Y-116634342D01*
X107658095Y-116634342D02*
X107610476Y-116443866D01*
X107610476Y-116443866D02*
X107610476Y-116205771D01*
X107610476Y-116205771D02*
X107658095Y-116015295D01*
X107658095Y-116015295D02*
X107705714Y-115920057D01*
X107705714Y-115920057D02*
X107753333Y-115872438D01*
X107753333Y-115872438D02*
X107848571Y-115824819D01*
X113609580Y-45916666D02*
X113657200Y-45964285D01*
X113657200Y-45964285D02*
X113704819Y-46107142D01*
X113704819Y-46107142D02*
X113704819Y-46202380D01*
X113704819Y-46202380D02*
X113657200Y-46345237D01*
X113657200Y-46345237D02*
X113561961Y-46440475D01*
X113561961Y-46440475D02*
X113466723Y-46488094D01*
X113466723Y-46488094D02*
X113276247Y-46535713D01*
X113276247Y-46535713D02*
X113133390Y-46535713D01*
X113133390Y-46535713D02*
X112942914Y-46488094D01*
X112942914Y-46488094D02*
X112847676Y-46440475D01*
X112847676Y-46440475D02*
X112752438Y-46345237D01*
X112752438Y-46345237D02*
X112704819Y-46202380D01*
X112704819Y-46202380D02*
X112704819Y-46107142D01*
X112704819Y-46107142D02*
X112752438Y-45964285D01*
X112752438Y-45964285D02*
X112800057Y-45916666D01*
X113038152Y-45059523D02*
X113704819Y-45059523D01*
X112657200Y-45297618D02*
X113371485Y-45535713D01*
X113371485Y-45535713D02*
X113371485Y-44916666D01*
X95359580Y-42666666D02*
X95407200Y-42714285D01*
X95407200Y-42714285D02*
X95454819Y-42857142D01*
X95454819Y-42857142D02*
X95454819Y-42952380D01*
X95454819Y-42952380D02*
X95407200Y-43095237D01*
X95407200Y-43095237D02*
X95311961Y-43190475D01*
X95311961Y-43190475D02*
X95216723Y-43238094D01*
X95216723Y-43238094D02*
X95026247Y-43285713D01*
X95026247Y-43285713D02*
X94883390Y-43285713D01*
X94883390Y-43285713D02*
X94692914Y-43238094D01*
X94692914Y-43238094D02*
X94597676Y-43190475D01*
X94597676Y-43190475D02*
X94502438Y-43095237D01*
X94502438Y-43095237D02*
X94454819Y-42952380D01*
X94454819Y-42952380D02*
X94454819Y-42857142D01*
X94454819Y-42857142D02*
X94502438Y-42714285D01*
X94502438Y-42714285D02*
X94550057Y-42666666D01*
X94454819Y-42333332D02*
X94454819Y-41666666D01*
X94454819Y-41666666D02*
X95454819Y-42095237D01*
%TO.C,R2*%
D11*
X81380000Y-41350000D02*
X81380000Y-66590000D01*
X81380000Y-66590000D02*
X84560000Y-66590000D01*
X84560000Y-41350000D02*
X81380000Y-41350000D01*
X87440000Y-41350000D02*
X90620000Y-41350000D01*
X90620000Y-41350000D02*
X90620000Y-66590000D01*
X90620000Y-66590000D02*
X87440000Y-66590000D01*
%TO.C,C17*%
X70380000Y-121630000D02*
X75620000Y-121630000D01*
X70380000Y-121967000D02*
X70380000Y-121630000D01*
X70380000Y-124370000D02*
X70380000Y-124033000D01*
X75620000Y-121630000D02*
X75620000Y-121967000D01*
X75620000Y-124033000D02*
X75620000Y-124370000D01*
X75620000Y-124370000D02*
X70380000Y-124370000D01*
%TO.C,R15*%
X67620000Y-117040000D02*
X67620000Y-117810000D01*
X67620000Y-125120000D02*
X67620000Y-124350000D01*
X66250000Y-117810000D02*
X68990000Y-117810000D01*
X68990000Y-124350000D01*
X66250000Y-124350000D01*
X66250000Y-117810000D01*
%TO.C,C3*%
X28630000Y-59880000D02*
X28967000Y-59880000D01*
X28630000Y-65120000D02*
X28630000Y-59880000D01*
X28967000Y-65120000D02*
X28630000Y-65120000D01*
X31033000Y-59880000D02*
X31370000Y-59880000D01*
X31370000Y-59880000D02*
X31370000Y-65120000D01*
X31370000Y-65120000D02*
X31033000Y-65120000D01*
%TO.C,R17*%
X82500000Y-91040000D02*
X82500000Y-91810000D01*
X82500000Y-99120000D02*
X82500000Y-98350000D01*
X81130000Y-91810000D02*
X83870000Y-91810000D01*
X83870000Y-98350000D01*
X81130000Y-98350000D01*
X81130000Y-91810000D01*
%TO.C,R14*%
X64300000Y-118880000D02*
X64300000Y-119650000D01*
X64300000Y-126960000D02*
X64300000Y-126190000D01*
X62930000Y-119650000D02*
X65670000Y-119650000D01*
X65670000Y-126190000D01*
X62930000Y-126190000D01*
X62930000Y-119650000D01*
%TO.C,C13*%
X51780000Y-130630000D02*
X59220000Y-130630000D01*
X51780000Y-136370000D02*
X51780000Y-130630000D01*
X59220000Y-130630000D02*
X59220000Y-136370000D01*
X59220000Y-136370000D02*
X51780000Y-136370000D01*
%TO.C,C14*%
X99780000Y-106380000D02*
X107220000Y-106380000D01*
X99780000Y-109620000D02*
X99780000Y-106380000D01*
X107220000Y-106380000D02*
X107220000Y-109620000D01*
X107220000Y-109620000D02*
X99780000Y-109620000D01*
%TO.C,R7*%
X80000000Y-121040000D02*
X80000000Y-121810000D01*
X80000000Y-129120000D02*
X80000000Y-128350000D01*
X78630000Y-121810000D02*
X81370000Y-121810000D01*
X81370000Y-128350000D01*
X78630000Y-128350000D01*
X78630000Y-121810000D01*
%TO.C,U1*%
X58670000Y-105940000D02*
X58670000Y-107190000D01*
X58670000Y-109190000D02*
X58670000Y-110440000D01*
X58670000Y-110440000D02*
X79110000Y-110440000D01*
X79110000Y-105940000D02*
X58670000Y-105940000D01*
X79110000Y-110440000D02*
X79110000Y-105940000D01*
X58610000Y-102940000D02*
X79170000Y-102940000D01*
X79170000Y-113440000D01*
X58610000Y-113440000D01*
X58610000Y-102940000D01*
X58670000Y-107190000D02*
G75*
G02*
X58670000Y-109190000I0J-1000000D01*
G01*
%TO.C,Q2*%
X60881300Y-82640000D02*
X70038700Y-82640000D01*
X60881300Y-86110000D02*
X60881300Y-82640000D01*
X63677500Y-86110000D02*
X63677500Y-85890000D01*
X67242500Y-86110000D02*
X67242500Y-85890000D01*
X70038700Y-82640000D02*
X70038700Y-86110000D01*
X70038700Y-86110000D02*
X60881300Y-86110000D01*
%TO.C,J1*%
X21080000Y-42880000D02*
X29120000Y-42880000D01*
X21080000Y-45700000D02*
X21080000Y-42880000D01*
X21080000Y-53620000D02*
X21080000Y-46300000D01*
X23200000Y-42880000D02*
X23200000Y-44120000D01*
X23200000Y-47880000D02*
X23200000Y-50457000D01*
X23200000Y-51543000D02*
X23200000Y-53620000D01*
X24500000Y-42880000D02*
X24500000Y-44120000D01*
X24500000Y-47880000D02*
X24500000Y-49188000D01*
X24500000Y-52812000D02*
X24500000Y-53620000D01*
X25500000Y-42880000D02*
X25500000Y-44120000D01*
X25500000Y-47880000D02*
X25500000Y-49188000D01*
X25500000Y-52812000D02*
X25500000Y-53620000D01*
X29120000Y-42880000D02*
X29120000Y-53620000D01*
X29120000Y-53620000D02*
X21080000Y-53620000D01*
X21080000Y-46000000D02*
X20470000Y-46440000D01*
X20470000Y-45560000D01*
X21080000Y-46000000D01*
G36*
X21080000Y-46000000D02*
G01*
X20470000Y-46440000D01*
X20470000Y-45560000D01*
X21080000Y-46000000D01*
G37*
%TO.C,J2*%
X149080000Y-38880000D02*
X157120000Y-38880000D01*
X149080000Y-41700000D02*
X149080000Y-38880000D01*
X149080000Y-49620000D02*
X149080000Y-42300000D01*
X151200000Y-38880000D02*
X151200000Y-40120000D01*
X151200000Y-43880000D02*
X151200000Y-46457000D01*
X151200000Y-47543000D02*
X151200000Y-49620000D01*
X152500000Y-38880000D02*
X152500000Y-40120000D01*
X152500000Y-43880000D02*
X152500000Y-45188000D01*
X152500000Y-48812000D02*
X152500000Y-49620000D01*
X153500000Y-38880000D02*
X153500000Y-40120000D01*
X153500000Y-43880000D02*
X153500000Y-45188000D01*
X153500000Y-48812000D02*
X153500000Y-49620000D01*
X157120000Y-38880000D02*
X157120000Y-49620000D01*
X157120000Y-49620000D02*
X149080000Y-49620000D01*
X149080000Y-42000000D02*
X148470000Y-42440000D01*
X148470000Y-41560000D01*
X149080000Y-42000000D01*
G36*
X149080000Y-42000000D02*
G01*
X148470000Y-42440000D01*
X148470000Y-41560000D01*
X149080000Y-42000000D01*
G37*
%TO.C,R16*%
X79240000Y-88040000D02*
X79240000Y-88810000D01*
X79240000Y-96120000D02*
X79240000Y-95350000D01*
X77870000Y-88810000D02*
X80610000Y-88810000D01*
X80610000Y-95350000D01*
X77870000Y-95350000D01*
X77870000Y-88810000D01*
%TO.C,C18*%
X84630000Y-95040000D02*
X84967000Y-95040000D01*
X84630000Y-100280000D02*
X84630000Y-95040000D01*
X84967000Y-100280000D02*
X84630000Y-100280000D01*
X87033000Y-95040000D02*
X87370000Y-95040000D01*
X87370000Y-95040000D02*
X87370000Y-100280000D01*
X87370000Y-100280000D02*
X87033000Y-100280000D01*
%TO.C,C15*%
X88780000Y-96380000D02*
X96220000Y-96380000D01*
X88780000Y-99620000D02*
X88780000Y-96380000D01*
X96220000Y-96380000D02*
X96220000Y-99620000D01*
X96220000Y-99620000D02*
X88780000Y-99620000D01*
%TO.C,RV1*%
X52480000Y-119665000D02*
X57530000Y-119665000D01*
X52480000Y-129415000D02*
X52480000Y-119665000D01*
X57530000Y-119665000D02*
X57530000Y-129415000D01*
X57530000Y-129415000D02*
X52480000Y-129415000D01*
%TO.C,R9*%
X41880000Y-127080000D02*
X42650000Y-127080000D01*
X49960000Y-127080000D02*
X49190000Y-127080000D01*
X42650000Y-125710000D02*
X49190000Y-125710000D01*
X49190000Y-128450000D01*
X42650000Y-128450000D01*
X42650000Y-125710000D01*
%TO.C,C1*%
X37560000Y-51070000D02*
X31258000Y-51070000D01*
X37560000Y-51110000D02*
X31271000Y-51110000D01*
X37560000Y-51150000D02*
X31283000Y-51150000D01*
X37560000Y-51190000D02*
X31295000Y-51190000D01*
X37560000Y-51230000D02*
X31308000Y-51230000D01*
X37560000Y-51270000D02*
X31321000Y-51270000D01*
X37560000Y-51310000D02*
X31334000Y-51310000D01*
X37560000Y-51350000D02*
X31348000Y-51350000D01*
X37560000Y-51390000D02*
X31361000Y-51390000D01*
X37560000Y-51430000D02*
X31375000Y-51430000D01*
X37560000Y-51470000D02*
X31389000Y-51470000D01*
X37560000Y-51510000D02*
X31403000Y-51510000D01*
X37560000Y-51550000D02*
X31418000Y-51550000D01*
X37560000Y-51590000D02*
X31433000Y-51590000D01*
X37560000Y-51630000D02*
X31448000Y-51630000D01*
X37560000Y-51670000D02*
X31463000Y-51670000D01*
X37560000Y-51710000D02*
X31479000Y-51710000D01*
X37560000Y-51750000D02*
X31495000Y-51750000D01*
X37560000Y-51790000D02*
X31511000Y-51790000D01*
X37560000Y-51830000D02*
X31527000Y-51830000D01*
X37560000Y-51870000D02*
X31543000Y-51870000D01*
X37560000Y-51910000D02*
X31560000Y-51910000D01*
X37560000Y-51950000D02*
X31577000Y-51950000D01*
X37560000Y-51990000D02*
X31594000Y-51990000D01*
X37560000Y-52030000D02*
X31612000Y-52030000D01*
X37560000Y-52070000D02*
X31630000Y-52070000D01*
X37560000Y-52110000D02*
X31648000Y-52110000D01*
X37560000Y-52150000D02*
X31666000Y-52150000D01*
X37560000Y-52190000D02*
X31685000Y-52190000D01*
X37560000Y-52230000D02*
X31704000Y-52230000D01*
X37560000Y-52270000D02*
X31723000Y-52270000D01*
X37560000Y-52310000D02*
X31742000Y-52310000D01*
X37560000Y-52350000D02*
X31762000Y-52350000D01*
X37560000Y-52390000D02*
X31782000Y-52390000D01*
X37560000Y-52430000D02*
X31802000Y-52430000D01*
X37560000Y-52470000D02*
X31822000Y-52470000D01*
X37560000Y-52510000D02*
X31843000Y-52510000D01*
X37560000Y-52550000D02*
X31864000Y-52550000D01*
X37560000Y-52590000D02*
X31885000Y-52590000D01*
X37560000Y-52630000D02*
X31907000Y-52630000D01*
X37560000Y-52670000D02*
X31929000Y-52670000D01*
X37560000Y-52710000D02*
X31951000Y-52710000D01*
X37560000Y-52750000D02*
X31974000Y-52750000D01*
X37560000Y-52790000D02*
X31996000Y-52790000D01*
X37560000Y-52830000D02*
X32019000Y-52830000D01*
X37560000Y-52870000D02*
X32043000Y-52870000D01*
X37560000Y-52910000D02*
X32067000Y-52910000D01*
X37560000Y-52950000D02*
X32091000Y-52950000D01*
X37560000Y-52990000D02*
X32115000Y-52990000D01*
X37560000Y-53030000D02*
X32140000Y-53030000D01*
X37560000Y-53070000D02*
X32165000Y-53070000D01*
X37560000Y-53110000D02*
X32190000Y-53110000D01*
X37560000Y-53150000D02*
X32215000Y-53150000D01*
X37560000Y-53190000D02*
X32241000Y-53190000D01*
X37560000Y-53230000D02*
X32268000Y-53230000D01*
X37560000Y-53270000D02*
X32294000Y-53270000D01*
X37560000Y-53310000D02*
X32321000Y-53310000D01*
X37560000Y-53350000D02*
X32349000Y-53350000D01*
X37560000Y-53390000D02*
X32376000Y-53390000D01*
X37560000Y-53430000D02*
X32404000Y-53430000D01*
X37560000Y-53470000D02*
X32433000Y-53470000D01*
X37560000Y-53510000D02*
X32461000Y-53510000D01*
X37560000Y-53550000D02*
X32491000Y-53550000D01*
X37560000Y-53590000D02*
X32520000Y-53590000D01*
X37560000Y-53630000D02*
X32550000Y-53630000D01*
X37560000Y-53670000D02*
X32580000Y-53670000D01*
X37560000Y-53710000D02*
X32611000Y-53710000D01*
X37560000Y-53750000D02*
X32642000Y-53750000D01*
X37560000Y-53790000D02*
X32673000Y-53790000D01*
X37560000Y-53830000D02*
X32705000Y-53830000D01*
X37560000Y-53870000D02*
X32738000Y-53870000D01*
X37560000Y-53910000D02*
X32770000Y-53910000D01*
X39765000Y-56830000D02*
X38235000Y-56830000D01*
X40097000Y-56790000D02*
X37903000Y-56790000D01*
X40351000Y-56750000D02*
X37649000Y-56750000D01*
X40564000Y-56710000D02*
X37436000Y-56710000D01*
X40751000Y-56670000D02*
X37249000Y-56670000D01*
X40920000Y-56630000D02*
X37080000Y-56630000D01*
X41074000Y-56590000D02*
X36926000Y-56590000D01*
X41217000Y-56550000D02*
X36783000Y-56550000D01*
X41351000Y-56510000D02*
X36649000Y-56510000D01*
X41477000Y-56470000D02*
X36523000Y-56470000D01*
X41597000Y-56430000D02*
X36403000Y-56430000D01*
X41710000Y-56390000D02*
X36290000Y-56390000D01*
X41819000Y-56350000D02*
X36181000Y-56350000D01*
X41923000Y-56310000D02*
X36077000Y-56310000D01*
X42023000Y-56270000D02*
X35977000Y-56270000D01*
X42120000Y-56230000D02*
X35880000Y-56230000D01*
X42213000Y-56190000D02*
X35787000Y-56190000D01*
X42303000Y-56150000D02*
X35697000Y-56150000D01*
X42390000Y-56110000D02*
X35610000Y-56110000D01*
X42475000Y-56070000D02*
X35525000Y-56070000D01*
X42557000Y-56030000D02*
X35443000Y-56030000D01*
X42637000Y-55990000D02*
X35363000Y-55990000D01*
X42714000Y-55950000D02*
X35286000Y-55950000D01*
X42790000Y-55910000D02*
X35210000Y-55910000D01*
X42864000Y-55870000D02*
X35136000Y-55870000D01*
X42936000Y-55830000D02*
X35064000Y-55830000D01*
X43006000Y-55790000D02*
X34994000Y-55790000D01*
X43075000Y-55750000D02*
X34925000Y-55750000D01*
X43142000Y-55710000D02*
X34858000Y-55710000D01*
X43208000Y-55670000D02*
X34792000Y-55670000D01*
X43273000Y-55630000D02*
X34727000Y-55630000D01*
X43336000Y-55590000D02*
X34664000Y-55590000D01*
X43398000Y-55550000D02*
X34602000Y-55550000D01*
X43459000Y-55510000D02*
X34541000Y-55510000D01*
X43518000Y-55470000D02*
X34482000Y-55470000D01*
X43555000Y-40060509D02*
X43555000Y-41660509D01*
X43576000Y-55430000D02*
X34424000Y-55430000D01*
X43634000Y-55390000D02*
X34366000Y-55390000D01*
X43690000Y-55350000D02*
X34310000Y-55350000D01*
X43745000Y-55310000D02*
X34255000Y-55310000D01*
X43800000Y-55270000D02*
X34200000Y-55270000D01*
X43853000Y-55230000D02*
X34147000Y-55230000D01*
X43906000Y-55190000D02*
X34094000Y-55190000D01*
X43957000Y-55150000D02*
X34043000Y-55150000D01*
X44008000Y-55110000D02*
X33992000Y-55110000D01*
X44058000Y-55070000D02*
X33942000Y-55070000D01*
X44107000Y-55030000D02*
X33893000Y-55030000D01*
X44156000Y-54990000D02*
X33844000Y-54990000D01*
X44204000Y-54950000D02*
X33796000Y-54950000D01*
X44250000Y-54910000D02*
X33750000Y-54910000D01*
X44297000Y-54870000D02*
X33703000Y-54870000D01*
X44342000Y-54830000D02*
X33658000Y-54830000D01*
X44355000Y-40860509D02*
X42755000Y-40860509D01*
X44387000Y-54790000D02*
X33613000Y-54790000D01*
X44431000Y-54750000D02*
X33569000Y-54750000D01*
X44475000Y-54710000D02*
X33525000Y-54710000D01*
X44518000Y-54670000D02*
X33482000Y-54670000D01*
X44560000Y-54630000D02*
X33440000Y-54630000D01*
X44602000Y-54590000D02*
X33398000Y-54590000D01*
X44643000Y-54550000D02*
X33357000Y-54550000D01*
X44683000Y-54510000D02*
X33317000Y-54510000D01*
X44723000Y-54470000D02*
X33277000Y-54470000D01*
X44763000Y-54430000D02*
X33237000Y-54430000D01*
X44802000Y-54390000D02*
X33198000Y-54390000D01*
X44840000Y-54350000D02*
X33160000Y-54350000D01*
X44878000Y-54310000D02*
X33122000Y-54310000D01*
X44915000Y-54270000D02*
X33085000Y-54270000D01*
X44952000Y-54230000D02*
X33048000Y-54230000D01*
X44988000Y-54190000D02*
X33012000Y-54190000D01*
X45024000Y-54150000D02*
X32976000Y-54150000D01*
X45060000Y-54110000D02*
X32940000Y-54110000D01*
X45094000Y-54070000D02*
X32906000Y-54070000D01*
X45129000Y-54030000D02*
X32871000Y-54030000D01*
X45163000Y-53990000D02*
X32837000Y-53990000D01*
X45197000Y-53950000D02*
X32803000Y-53950000D01*
X45230000Y-53910000D02*
X40440000Y-53910000D01*
X45262000Y-53870000D02*
X40440000Y-53870000D01*
X45295000Y-53830000D02*
X40440000Y-53830000D01*
X45327000Y-53790000D02*
X40440000Y-53790000D01*
X45358000Y-53750000D02*
X40440000Y-53750000D01*
X45389000Y-53710000D02*
X40440000Y-53710000D01*
X45420000Y-53670000D02*
X40440000Y-53670000D01*
X45450000Y-53630000D02*
X40440000Y-53630000D01*
X45480000Y-53590000D02*
X40440000Y-53590000D01*
X45509000Y-53550000D02*
X40440000Y-53550000D01*
X45539000Y-53510000D02*
X40440000Y-53510000D01*
X45567000Y-53470000D02*
X40440000Y-53470000D01*
X45596000Y-53430000D02*
X40440000Y-53430000D01*
X45624000Y-53390000D02*
X40440000Y-53390000D01*
X45651000Y-53350000D02*
X40440000Y-53350000D01*
X45679000Y-53310000D02*
X40440000Y-53310000D01*
X45706000Y-53270000D02*
X40440000Y-53270000D01*
X45732000Y-53230000D02*
X40440000Y-53230000D01*
X45759000Y-53190000D02*
X40440000Y-53190000D01*
X45785000Y-53150000D02*
X40440000Y-53150000D01*
X45810000Y-53110000D02*
X40440000Y-53110000D01*
X45835000Y-53070000D02*
X40440000Y-53070000D01*
X45860000Y-53030000D02*
X40440000Y-53030000D01*
X45885000Y-52990000D02*
X40440000Y-52990000D01*
X45909000Y-52950000D02*
X40440000Y-52950000D01*
X45933000Y-52910000D02*
X40440000Y-52910000D01*
X45957000Y-52870000D02*
X40440000Y-52870000D01*
X45981000Y-52830000D02*
X40440000Y-52830000D01*
X46004000Y-52790000D02*
X40440000Y-52790000D01*
X46026000Y-52750000D02*
X40440000Y-52750000D01*
X46049000Y-52710000D02*
X40440000Y-52710000D01*
X46071000Y-52670000D02*
X40440000Y-52670000D01*
X46093000Y-52630000D02*
X40440000Y-52630000D01*
X46115000Y-52590000D02*
X40440000Y-52590000D01*
X46136000Y-52550000D02*
X40440000Y-52550000D01*
X46157000Y-52510000D02*
X40440000Y-52510000D01*
X46178000Y-52470000D02*
X40440000Y-52470000D01*
X46198000Y-52430000D02*
X40440000Y-52430000D01*
X46218000Y-52390000D02*
X40440000Y-52390000D01*
X46238000Y-52350000D02*
X40440000Y-52350000D01*
X46258000Y-52310000D02*
X40440000Y-52310000D01*
X46277000Y-52270000D02*
X40440000Y-52270000D01*
X46296000Y-52230000D02*
X40440000Y-52230000D01*
X46315000Y-52190000D02*
X40440000Y-52190000D01*
X46334000Y-52150000D02*
X40440000Y-52150000D01*
X46352000Y-52110000D02*
X40440000Y-52110000D01*
X46370000Y-52070000D02*
X40440000Y-52070000D01*
X46388000Y-52030000D02*
X40440000Y-52030000D01*
X46406000Y-51990000D02*
X40440000Y-51990000D01*
X46423000Y-51950000D02*
X40440000Y-51950000D01*
X46440000Y-51910000D02*
X40440000Y-51910000D01*
X46457000Y-51870000D02*
X40440000Y-51870000D01*
X46473000Y-51830000D02*
X40440000Y-51830000D01*
X46489000Y-51790000D02*
X40440000Y-51790000D01*
X46505000Y-51750000D02*
X40440000Y-51750000D01*
X46521000Y-51710000D02*
X40440000Y-51710000D01*
X46537000Y-51670000D02*
X40440000Y-51670000D01*
X46552000Y-51630000D02*
X40440000Y-51630000D01*
X46567000Y-51590000D02*
X40440000Y-51590000D01*
X46582000Y-51550000D02*
X40440000Y-51550000D01*
X46597000Y-51510000D02*
X40440000Y-51510000D01*
X46611000Y-51470000D02*
X40440000Y-51470000D01*
X46625000Y-51430000D02*
X40440000Y-51430000D01*
X46639000Y-51390000D02*
X40440000Y-51390000D01*
X46652000Y-51350000D02*
X40440000Y-51350000D01*
X46666000Y-51310000D02*
X40440000Y-51310000D01*
X46679000Y-51270000D02*
X40440000Y-51270000D01*
X46692000Y-51230000D02*
X40440000Y-51230000D01*
X46705000Y-51190000D02*
X40440000Y-51190000D01*
X46717000Y-51150000D02*
X40440000Y-51150000D01*
X46729000Y-51110000D02*
X40440000Y-51110000D01*
X46742000Y-51070000D02*
X40440000Y-51070000D01*
X46753000Y-51030000D02*
X31247000Y-51030000D01*
X46765000Y-50990000D02*
X31235000Y-50990000D01*
X46776000Y-50950000D02*
X31224000Y-50950000D01*
X46787000Y-50910000D02*
X31213000Y-50910000D01*
X46798000Y-50870000D02*
X31202000Y-50870000D01*
X46809000Y-50830000D02*
X31191000Y-50830000D01*
X46820000Y-50790000D02*
X31180000Y-50790000D01*
X46830000Y-50750000D02*
X31170000Y-50750000D01*
X46840000Y-50710000D02*
X31160000Y-50710000D01*
X46850000Y-50670000D02*
X31150000Y-50670000D01*
X46859000Y-50630000D02*
X31141000Y-50630000D01*
X46869000Y-50590000D02*
X31131000Y-50590000D01*
X46878000Y-50550000D02*
X31122000Y-50550000D01*
X46887000Y-50510000D02*
X31113000Y-50510000D01*
X46896000Y-50470000D02*
X31104000Y-50470000D01*
X46904000Y-50430000D02*
X31096000Y-50430000D01*
X46913000Y-50390000D02*
X31087000Y-50390000D01*
X46921000Y-50350000D02*
X31079000Y-50350000D01*
X46929000Y-50310000D02*
X31071000Y-50310000D01*
X46936000Y-50270000D02*
X31064000Y-50270000D01*
X46944000Y-50230000D02*
X31056000Y-50230000D01*
X46951000Y-50190000D02*
X31049000Y-50190000D01*
X46958000Y-50150000D02*
X31042000Y-50150000D01*
X46965000Y-50110000D02*
X31035000Y-50110000D01*
X46972000Y-50070000D02*
X31028000Y-50070000D01*
X46978000Y-50030000D02*
X31022000Y-50030000D01*
X46985000Y-49990000D02*
X31015000Y-49990000D01*
X46991000Y-49950000D02*
X31009000Y-49950000D01*
X46997000Y-49910000D02*
X31003000Y-49910000D01*
X47002000Y-49870000D02*
X30998000Y-49870000D01*
X47008000Y-49830000D02*
X30992000Y-49830000D01*
X47013000Y-49790000D02*
X30987000Y-49790000D01*
X47018000Y-49750000D02*
X30982000Y-49750000D01*
X47023000Y-49710000D02*
X30977000Y-49710000D01*
X47028000Y-49670000D02*
X30972000Y-49670000D01*
X47032000Y-49630000D02*
X30968000Y-49630000D01*
X47036000Y-49590000D02*
X30964000Y-49590000D01*
X47040000Y-49550000D02*
X30960000Y-49550000D01*
X47044000Y-49510000D02*
X30956000Y-49510000D01*
X47048000Y-49470000D02*
X30952000Y-49470000D01*
X47051000Y-49430000D02*
X30949000Y-49430000D01*
X47055000Y-49390000D02*
X30945000Y-49390000D01*
X47058000Y-49350000D02*
X30942000Y-49350000D01*
X47061000Y-49310000D02*
X30939000Y-49310000D01*
X47063000Y-49270000D02*
X30937000Y-49270000D01*
X47066000Y-49230000D02*
X30934000Y-49230000D01*
X47068000Y-49190000D02*
X30932000Y-49190000D01*
X47070000Y-49150000D02*
X30930000Y-49150000D01*
X47072000Y-49110000D02*
X30928000Y-49110000D01*
X47074000Y-49070000D02*
X30926000Y-49070000D01*
X47075000Y-49030000D02*
X30925000Y-49030000D01*
X47076000Y-48990000D02*
X30924000Y-48990000D01*
X47078000Y-48910000D02*
X30922000Y-48910000D01*
X47078000Y-48950000D02*
X30922000Y-48950000D01*
X47079000Y-48870000D02*
X30921000Y-48870000D01*
X47080000Y-48750000D02*
X30920000Y-48750000D01*
X47080000Y-48790000D02*
X30920000Y-48790000D01*
X47080000Y-48830000D02*
X30920000Y-48830000D01*
X47120000Y-48750000D02*
G75*
G02*
X30880000Y-48750000I-8120000J0D01*
G01*
X30880000Y-48750000D02*
G75*
G02*
X47120000Y-48750000I8120000J0D01*
G01*
%TO.C,R1*%
X71380000Y-41350000D02*
X71380000Y-66590000D01*
X71380000Y-66590000D02*
X74560000Y-66590000D01*
X74560000Y-41350000D02*
X71380000Y-41350000D01*
X77440000Y-41350000D02*
X80620000Y-41350000D01*
X80620000Y-41350000D02*
X80620000Y-66590000D01*
X80620000Y-66590000D02*
X77440000Y-66590000D01*
%TO.C,R3*%
X50380000Y-87750000D02*
X51150000Y-87750000D01*
X58460000Y-87750000D02*
X57690000Y-87750000D01*
X51150000Y-86380000D02*
X57690000Y-86380000D01*
X57690000Y-89120000D01*
X51150000Y-89120000D01*
X51150000Y-86380000D01*
%TO.C,R8*%
X55000000Y-109040000D02*
X55000000Y-109810000D01*
X55000000Y-117120000D02*
X55000000Y-116350000D01*
X53630000Y-109810000D02*
X56370000Y-109810000D01*
X56370000Y-116350000D01*
X53630000Y-116350000D01*
X53630000Y-109810000D01*
%TO.C,D2*%
X162000000Y-37540000D02*
X162000000Y-39000000D01*
X162000000Y-49700000D02*
X162000000Y-48240000D01*
X164770000Y-40350000D02*
X159230000Y-40350000D01*
X164770000Y-40470000D02*
X159230000Y-40470000D01*
X164770000Y-40590000D02*
X159230000Y-40590000D01*
X159230000Y-39000000D02*
X164770000Y-39000000D01*
X164770000Y-48240000D01*
X159230000Y-48240000D01*
X159230000Y-39000000D01*
%TO.C,Q3*%
X60881300Y-88640000D02*
X70038700Y-88640000D01*
X60881300Y-92110000D02*
X60881300Y-88640000D01*
X63677500Y-92110000D02*
X63677500Y-91890000D01*
X67242500Y-92110000D02*
X67242500Y-91890000D01*
X70038700Y-88640000D02*
X70038700Y-92110000D01*
X70038700Y-92110000D02*
X60881300Y-92110000D01*
%TO.C,R18*%
X158000000Y-73040000D02*
X158000000Y-73810000D01*
X158000000Y-81120000D02*
X158000000Y-80350000D01*
X156630000Y-73810000D02*
X159370000Y-73810000D01*
X159370000Y-80350000D01*
X156630000Y-80350000D01*
X156630000Y-73810000D01*
%TO.C,C9*%
X51650000Y-81783000D02*
X51650000Y-81217000D01*
X51690000Y-82017000D02*
X51690000Y-80983000D01*
X51730000Y-82177000D02*
X51730000Y-80823000D01*
X51770000Y-82305000D02*
X51770000Y-80695000D01*
X51810000Y-82414000D02*
X51810000Y-80586000D01*
X51850000Y-82511000D02*
X51850000Y-80489000D01*
X51890000Y-82598000D02*
X51890000Y-80402000D01*
X51930000Y-82677000D02*
X51930000Y-80323000D01*
X51970000Y-80460000D02*
X51970000Y-80249000D01*
X51970000Y-82751000D02*
X51970000Y-82540000D01*
X52010000Y-80460000D02*
X52010000Y-80181000D01*
X52010000Y-82819000D02*
X52010000Y-82540000D01*
X52050000Y-80460000D02*
X52050000Y-80117000D01*
X52050000Y-82883000D02*
X52050000Y-82540000D01*
X52090000Y-80460000D02*
X52090000Y-80057000D01*
X52090000Y-82943000D02*
X52090000Y-82540000D01*
X52130000Y-80460000D02*
X52130000Y-80001000D01*
X52130000Y-82999000D02*
X52130000Y-82540000D01*
X52170000Y-80460000D02*
X52170000Y-79947000D01*
X52170000Y-83053000D02*
X52170000Y-82540000D01*
X52210000Y-80460000D02*
X52210000Y-79896000D01*
X52210000Y-83104000D02*
X52210000Y-82540000D01*
X52250000Y-80460000D02*
X52250000Y-79848000D01*
X52250000Y-83152000D02*
X52250000Y-82540000D01*
X52290000Y-80460000D02*
X52290000Y-79801000D01*
X52290000Y-83199000D02*
X52290000Y-82540000D01*
X52330000Y-80460000D02*
X52330000Y-79757000D01*
X52330000Y-83243000D02*
X52330000Y-82540000D01*
X52370000Y-80460000D02*
X52370000Y-79715000D01*
X52370000Y-83285000D02*
X52370000Y-82540000D01*
X52410000Y-80460000D02*
X52410000Y-79675000D01*
X52410000Y-83325000D02*
X52410000Y-82540000D01*
X52450000Y-80460000D02*
X52450000Y-79636000D01*
X52450000Y-83364000D02*
X52450000Y-82540000D01*
X52490000Y-80460000D02*
X52490000Y-79599000D01*
X52490000Y-83401000D02*
X52490000Y-82540000D01*
X52530000Y-80460000D02*
X52530000Y-79564000D01*
X52530000Y-83436000D02*
X52530000Y-82540000D01*
X52570000Y-80460000D02*
X52570000Y-79530000D01*
X52570000Y-83470000D02*
X52570000Y-82540000D01*
X52610000Y-80460000D02*
X52610000Y-79497000D01*
X52610000Y-83503000D02*
X52610000Y-82540000D01*
X52650000Y-80460000D02*
X52650000Y-79465000D01*
X52650000Y-83535000D02*
X52650000Y-82540000D01*
X52690000Y-80460000D02*
X52690000Y-79435000D01*
X52690000Y-83565000D02*
X52690000Y-82540000D01*
X52730000Y-80460000D02*
X52730000Y-79406000D01*
X52730000Y-83594000D02*
X52730000Y-82540000D01*
X52770000Y-80460000D02*
X52770000Y-79378000D01*
X52770000Y-83622000D02*
X52770000Y-82540000D01*
X52810000Y-80460000D02*
X52810000Y-79351000D01*
X52810000Y-83649000D02*
X52810000Y-82540000D01*
X52850000Y-80460000D02*
X52850000Y-79325000D01*
X52850000Y-83675000D02*
X52850000Y-82540000D01*
X52890000Y-80460000D02*
X52890000Y-79301000D01*
X52890000Y-83699000D02*
X52890000Y-82540000D01*
X52930000Y-80460000D02*
X52930000Y-79277000D01*
X52930000Y-83723000D02*
X52930000Y-82540000D01*
X52970000Y-80460000D02*
X52970000Y-79254000D01*
X52970000Y-83746000D02*
X52970000Y-82540000D01*
X53010000Y-80460000D02*
X53010000Y-79232000D01*
X53010000Y-83768000D02*
X53010000Y-82540000D01*
X53050000Y-80460000D02*
X53050000Y-79211000D01*
X53050000Y-83789000D02*
X53050000Y-82540000D01*
X53090000Y-80460000D02*
X53090000Y-79191000D01*
X53090000Y-83809000D02*
X53090000Y-82540000D01*
X53130000Y-80460000D02*
X53130000Y-79171000D01*
X53130000Y-83829000D02*
X53130000Y-82540000D01*
X53170000Y-80460000D02*
X53170000Y-79153000D01*
X53170000Y-83847000D02*
X53170000Y-82540000D01*
X53210000Y-80460000D02*
X53210000Y-79135000D01*
X53210000Y-83865000D02*
X53210000Y-82540000D01*
X53250000Y-80460000D02*
X53250000Y-79118000D01*
X53250000Y-83882000D02*
X53250000Y-82540000D01*
X53290000Y-80460000D02*
X53290000Y-79102000D01*
X53290000Y-83898000D02*
X53290000Y-82540000D01*
X53330000Y-80460000D02*
X53330000Y-79087000D01*
X53330000Y-83913000D02*
X53330000Y-82540000D01*
X53370000Y-80460000D02*
X53370000Y-79072000D01*
X53370000Y-83928000D02*
X53370000Y-82540000D01*
X53410000Y-80460000D02*
X53410000Y-79058000D01*
X53410000Y-83942000D02*
X53410000Y-82540000D01*
X53450000Y-80460000D02*
X53450000Y-79045000D01*
X53450000Y-83955000D02*
X53450000Y-82540000D01*
X53490000Y-80460000D02*
X53490000Y-79033000D01*
X53490000Y-83967000D02*
X53490000Y-82540000D01*
X53530000Y-80460000D02*
X53530000Y-79021000D01*
X53530000Y-83979000D02*
X53530000Y-82540000D01*
X53570000Y-80460000D02*
X53570000Y-79010000D01*
X53570000Y-83990000D02*
X53570000Y-82540000D01*
X53610000Y-80460000D02*
X53610000Y-78999000D01*
X53610000Y-84001000D02*
X53610000Y-82540000D01*
X53650000Y-80460000D02*
X53650000Y-78990000D01*
X53650000Y-84010000D02*
X53650000Y-82540000D01*
X53690000Y-80460000D02*
X53690000Y-78981000D01*
X53690000Y-84019000D02*
X53690000Y-82540000D01*
X53730000Y-80460000D02*
X53730000Y-78972000D01*
X53730000Y-84028000D02*
X53730000Y-82540000D01*
X53770000Y-80460000D02*
X53770000Y-78964000D01*
X53770000Y-84036000D02*
X53770000Y-82540000D01*
X53810000Y-80460000D02*
X53810000Y-78957000D01*
X53810000Y-84043000D02*
X53810000Y-82540000D01*
X53850000Y-80460000D02*
X53850000Y-78951000D01*
X53850000Y-84049000D02*
X53850000Y-82540000D01*
X53890000Y-80460000D02*
X53890000Y-78945000D01*
X53890000Y-84055000D02*
X53890000Y-82540000D01*
X53930000Y-80460000D02*
X53930000Y-78940000D01*
X53930000Y-84060000D02*
X53930000Y-82540000D01*
X53970000Y-80460000D02*
X53970000Y-78935000D01*
X53970000Y-84065000D02*
X53970000Y-82540000D01*
X54010000Y-80460000D02*
X54010000Y-78931000D01*
X54010000Y-84069000D02*
X54010000Y-82540000D01*
X54050000Y-84072000D02*
X54050000Y-78928000D01*
X54090000Y-84075000D02*
X54090000Y-78925000D01*
X54130000Y-84077000D02*
X54130000Y-78923000D01*
X54170000Y-84079000D02*
X54170000Y-78921000D01*
X54210000Y-84080000D02*
X54210000Y-78920000D01*
X54250000Y-84080000D02*
X54250000Y-78920000D01*
X56804775Y-83225000D02*
X56804775Y-82725000D01*
X57054775Y-82975000D02*
X56554775Y-82975000D01*
X56870000Y-81500000D02*
G75*
G02*
X51630000Y-81500000I-2620000J0D01*
G01*
X51630000Y-81500000D02*
G75*
G02*
X56870000Y-81500000I2620000J0D01*
G01*
%TO.C,D3*%
D12*
X157143000Y-90300000D02*
X158857000Y-90300000D01*
D11*
X159200000Y-89460000D02*
G75*
G02*
X156800000Y-89460000I-1200000J0D01*
G01*
X156800000Y-89460000D02*
G75*
G02*
X159200000Y-89460000I1200000J0D01*
G01*
%TO.C,R12*%
X110880000Y-108000000D02*
X111650000Y-108000000D01*
X118960000Y-108000000D02*
X118190000Y-108000000D01*
X111650000Y-106630000D02*
X118190000Y-106630000D01*
X118190000Y-109370000D01*
X111650000Y-109370000D01*
X111650000Y-106630000D01*
%TO.C,C10*%
X49880000Y-99630000D02*
X55120000Y-99630000D01*
X49880000Y-99967000D02*
X49880000Y-99630000D01*
X49880000Y-102370000D02*
X49880000Y-102033000D01*
X55120000Y-99630000D02*
X55120000Y-99967000D01*
X55120000Y-102033000D02*
X55120000Y-102370000D01*
X55120000Y-102370000D02*
X49880000Y-102370000D01*
%TO.C,C6*%
X137560000Y-48070000D02*
X131258000Y-48070000D01*
X137560000Y-48110000D02*
X131271000Y-48110000D01*
X137560000Y-48150000D02*
X131283000Y-48150000D01*
X137560000Y-48190000D02*
X131295000Y-48190000D01*
X137560000Y-48230000D02*
X131308000Y-48230000D01*
X137560000Y-48270000D02*
X131321000Y-48270000D01*
X137560000Y-48310000D02*
X131334000Y-48310000D01*
X137560000Y-48350000D02*
X131348000Y-48350000D01*
X137560000Y-48390000D02*
X131361000Y-48390000D01*
X137560000Y-48430000D02*
X131375000Y-48430000D01*
X137560000Y-48470000D02*
X131389000Y-48470000D01*
X137560000Y-48510000D02*
X131403000Y-48510000D01*
X137560000Y-48550000D02*
X131418000Y-48550000D01*
X137560000Y-48590000D02*
X131433000Y-48590000D01*
X137560000Y-48630000D02*
X131448000Y-48630000D01*
X137560000Y-48670000D02*
X131463000Y-48670000D01*
X137560000Y-48710000D02*
X131479000Y-48710000D01*
X137560000Y-48750000D02*
X131495000Y-48750000D01*
X137560000Y-48790000D02*
X131511000Y-48790000D01*
X137560000Y-48830000D02*
X131527000Y-48830000D01*
X137560000Y-48870000D02*
X131543000Y-48870000D01*
X137560000Y-48910000D02*
X131560000Y-48910000D01*
X137560000Y-48950000D02*
X131577000Y-48950000D01*
X137560000Y-48990000D02*
X131594000Y-48990000D01*
X137560000Y-49030000D02*
X131612000Y-49030000D01*
X137560000Y-49070000D02*
X131630000Y-49070000D01*
X137560000Y-49110000D02*
X131648000Y-49110000D01*
X137560000Y-49150000D02*
X131666000Y-49150000D01*
X137560000Y-49190000D02*
X131685000Y-49190000D01*
X137560000Y-49230000D02*
X131704000Y-49230000D01*
X137560000Y-49270000D02*
X131723000Y-49270000D01*
X137560000Y-49310000D02*
X131742000Y-49310000D01*
X137560000Y-49350000D02*
X131762000Y-49350000D01*
X137560000Y-49390000D02*
X131782000Y-49390000D01*
X137560000Y-49430000D02*
X131802000Y-49430000D01*
X137560000Y-49470000D02*
X131822000Y-49470000D01*
X137560000Y-49510000D02*
X131843000Y-49510000D01*
X137560000Y-49550000D02*
X131864000Y-49550000D01*
X137560000Y-49590000D02*
X131885000Y-49590000D01*
X137560000Y-49630000D02*
X131907000Y-49630000D01*
X137560000Y-49670000D02*
X131929000Y-49670000D01*
X137560000Y-49710000D02*
X131951000Y-49710000D01*
X137560000Y-49750000D02*
X131974000Y-49750000D01*
X137560000Y-49790000D02*
X131996000Y-49790000D01*
X137560000Y-49830000D02*
X132019000Y-49830000D01*
X137560000Y-49870000D02*
X132043000Y-49870000D01*
X137560000Y-49910000D02*
X132067000Y-49910000D01*
X137560000Y-49950000D02*
X132091000Y-49950000D01*
X137560000Y-49990000D02*
X132115000Y-49990000D01*
X137560000Y-50030000D02*
X132140000Y-50030000D01*
X137560000Y-50070000D02*
X132165000Y-50070000D01*
X137560000Y-50110000D02*
X132190000Y-50110000D01*
X137560000Y-50150000D02*
X132215000Y-50150000D01*
X137560000Y-50190000D02*
X132241000Y-50190000D01*
X137560000Y-50230000D02*
X132268000Y-50230000D01*
X137560000Y-50270000D02*
X132294000Y-50270000D01*
X137560000Y-50310000D02*
X132321000Y-50310000D01*
X137560000Y-50350000D02*
X132349000Y-50350000D01*
X137560000Y-50390000D02*
X132376000Y-50390000D01*
X137560000Y-50430000D02*
X132404000Y-50430000D01*
X137560000Y-50470000D02*
X132433000Y-50470000D01*
X137560000Y-50510000D02*
X132461000Y-50510000D01*
X137560000Y-50550000D02*
X132491000Y-50550000D01*
X137560000Y-50590000D02*
X132520000Y-50590000D01*
X137560000Y-50630000D02*
X132550000Y-50630000D01*
X137560000Y-50670000D02*
X132580000Y-50670000D01*
X137560000Y-50710000D02*
X132611000Y-50710000D01*
X137560000Y-50750000D02*
X132642000Y-50750000D01*
X137560000Y-50790000D02*
X132673000Y-50790000D01*
X137560000Y-50830000D02*
X132705000Y-50830000D01*
X137560000Y-50870000D02*
X132738000Y-50870000D01*
X137560000Y-50910000D02*
X132770000Y-50910000D01*
X139765000Y-53830000D02*
X138235000Y-53830000D01*
X140097000Y-53790000D02*
X137903000Y-53790000D01*
X140351000Y-53750000D02*
X137649000Y-53750000D01*
X140564000Y-53710000D02*
X137436000Y-53710000D01*
X140751000Y-53670000D02*
X137249000Y-53670000D01*
X140920000Y-53630000D02*
X137080000Y-53630000D01*
X141074000Y-53590000D02*
X136926000Y-53590000D01*
X141217000Y-53550000D02*
X136783000Y-53550000D01*
X141351000Y-53510000D02*
X136649000Y-53510000D01*
X141477000Y-53470000D02*
X136523000Y-53470000D01*
X141597000Y-53430000D02*
X136403000Y-53430000D01*
X141710000Y-53390000D02*
X136290000Y-53390000D01*
X141819000Y-53350000D02*
X136181000Y-53350000D01*
X141923000Y-53310000D02*
X136077000Y-53310000D01*
X142023000Y-53270000D02*
X135977000Y-53270000D01*
X142120000Y-53230000D02*
X135880000Y-53230000D01*
X142213000Y-53190000D02*
X135787000Y-53190000D01*
X142303000Y-53150000D02*
X135697000Y-53150000D01*
X142390000Y-53110000D02*
X135610000Y-53110000D01*
X142475000Y-53070000D02*
X135525000Y-53070000D01*
X142557000Y-53030000D02*
X135443000Y-53030000D01*
X142637000Y-52990000D02*
X135363000Y-52990000D01*
X142714000Y-52950000D02*
X135286000Y-52950000D01*
X142790000Y-52910000D02*
X135210000Y-52910000D01*
X142864000Y-52870000D02*
X135136000Y-52870000D01*
X142936000Y-52830000D02*
X135064000Y-52830000D01*
X143006000Y-52790000D02*
X134994000Y-52790000D01*
X143075000Y-52750000D02*
X134925000Y-52750000D01*
X143142000Y-52710000D02*
X134858000Y-52710000D01*
X143208000Y-52670000D02*
X134792000Y-52670000D01*
X143273000Y-52630000D02*
X134727000Y-52630000D01*
X143336000Y-52590000D02*
X134664000Y-52590000D01*
X143398000Y-52550000D02*
X134602000Y-52550000D01*
X143459000Y-52510000D02*
X134541000Y-52510000D01*
X143518000Y-52470000D02*
X134482000Y-52470000D01*
X143555000Y-37060509D02*
X143555000Y-38660509D01*
X143576000Y-52430000D02*
X134424000Y-52430000D01*
X143634000Y-52390000D02*
X134366000Y-52390000D01*
X143690000Y-52350000D02*
X134310000Y-52350000D01*
X143745000Y-52310000D02*
X134255000Y-52310000D01*
X143800000Y-52270000D02*
X134200000Y-52270000D01*
X143853000Y-52230000D02*
X134147000Y-52230000D01*
X143906000Y-52190000D02*
X134094000Y-52190000D01*
X143957000Y-52150000D02*
X134043000Y-52150000D01*
X144008000Y-52110000D02*
X133992000Y-52110000D01*
X144058000Y-52070000D02*
X133942000Y-52070000D01*
X144107000Y-52030000D02*
X133893000Y-52030000D01*
X144156000Y-51990000D02*
X133844000Y-51990000D01*
X144204000Y-51950000D02*
X133796000Y-51950000D01*
X144250000Y-51910000D02*
X133750000Y-51910000D01*
X144297000Y-51870000D02*
X133703000Y-51870000D01*
X144342000Y-51830000D02*
X133658000Y-51830000D01*
X144355000Y-37860509D02*
X142755000Y-37860509D01*
X144387000Y-51790000D02*
X133613000Y-51790000D01*
X144431000Y-51750000D02*
X133569000Y-51750000D01*
X144475000Y-51710000D02*
X133525000Y-51710000D01*
X144518000Y-51670000D02*
X133482000Y-51670000D01*
X144560000Y-51630000D02*
X133440000Y-51630000D01*
X144602000Y-51590000D02*
X133398000Y-51590000D01*
X144643000Y-51550000D02*
X133357000Y-51550000D01*
X144683000Y-51510000D02*
X133317000Y-51510000D01*
X144723000Y-51470000D02*
X133277000Y-51470000D01*
X144763000Y-51430000D02*
X133237000Y-51430000D01*
X144802000Y-51390000D02*
X133198000Y-51390000D01*
X144840000Y-51350000D02*
X133160000Y-51350000D01*
X144878000Y-51310000D02*
X133122000Y-51310000D01*
X144915000Y-51270000D02*
X133085000Y-51270000D01*
X144952000Y-51230000D02*
X133048000Y-51230000D01*
X144988000Y-51190000D02*
X133012000Y-51190000D01*
X145024000Y-51150000D02*
X132976000Y-51150000D01*
X145060000Y-51110000D02*
X132940000Y-51110000D01*
X145094000Y-51070000D02*
X132906000Y-51070000D01*
X145129000Y-51030000D02*
X132871000Y-51030000D01*
X145163000Y-50990000D02*
X132837000Y-50990000D01*
X145197000Y-50950000D02*
X132803000Y-50950000D01*
X145230000Y-50910000D02*
X140440000Y-50910000D01*
X145262000Y-50870000D02*
X140440000Y-50870000D01*
X145295000Y-50830000D02*
X140440000Y-50830000D01*
X145327000Y-50790000D02*
X140440000Y-50790000D01*
X145358000Y-50750000D02*
X140440000Y-50750000D01*
X145389000Y-50710000D02*
X140440000Y-50710000D01*
X145420000Y-50670000D02*
X140440000Y-50670000D01*
X145450000Y-50630000D02*
X140440000Y-50630000D01*
X145480000Y-50590000D02*
X140440000Y-50590000D01*
X145509000Y-50550000D02*
X140440000Y-50550000D01*
X145539000Y-50510000D02*
X140440000Y-50510000D01*
X145567000Y-50470000D02*
X140440000Y-50470000D01*
X145596000Y-50430000D02*
X140440000Y-50430000D01*
X145624000Y-50390000D02*
X140440000Y-50390000D01*
X145651000Y-50350000D02*
X140440000Y-50350000D01*
X145679000Y-50310000D02*
X140440000Y-50310000D01*
X145706000Y-50270000D02*
X140440000Y-50270000D01*
X145732000Y-50230000D02*
X140440000Y-50230000D01*
X145759000Y-50190000D02*
X140440000Y-50190000D01*
X145785000Y-50150000D02*
X140440000Y-50150000D01*
X145810000Y-50110000D02*
X140440000Y-50110000D01*
X145835000Y-50070000D02*
X140440000Y-50070000D01*
X145860000Y-50030000D02*
X140440000Y-50030000D01*
X145885000Y-49990000D02*
X140440000Y-49990000D01*
X145909000Y-49950000D02*
X140440000Y-49950000D01*
X145933000Y-49910000D02*
X140440000Y-49910000D01*
X145957000Y-49870000D02*
X140440000Y-49870000D01*
X145981000Y-49830000D02*
X140440000Y-49830000D01*
X146004000Y-49790000D02*
X140440000Y-49790000D01*
X146026000Y-49750000D02*
X140440000Y-49750000D01*
X146049000Y-49710000D02*
X140440000Y-49710000D01*
X146071000Y-49670000D02*
X140440000Y-49670000D01*
X146093000Y-49630000D02*
X140440000Y-49630000D01*
X146115000Y-49590000D02*
X140440000Y-49590000D01*
X146136000Y-49550000D02*
X140440000Y-49550000D01*
X146157000Y-49510000D02*
X140440000Y-49510000D01*
X146178000Y-49470000D02*
X140440000Y-49470000D01*
X146198000Y-49430000D02*
X140440000Y-49430000D01*
X146218000Y-49390000D02*
X140440000Y-49390000D01*
X146238000Y-49350000D02*
X140440000Y-49350000D01*
X146258000Y-49310000D02*
X140440000Y-49310000D01*
X146277000Y-49270000D02*
X140440000Y-49270000D01*
X146296000Y-49230000D02*
X140440000Y-49230000D01*
X146315000Y-49190000D02*
X140440000Y-49190000D01*
X146334000Y-49150000D02*
X140440000Y-49150000D01*
X146352000Y-49110000D02*
X140440000Y-49110000D01*
X146370000Y-49070000D02*
X140440000Y-49070000D01*
X146388000Y-49030000D02*
X140440000Y-49030000D01*
X146406000Y-48990000D02*
X140440000Y-48990000D01*
X146423000Y-48950000D02*
X140440000Y-48950000D01*
X146440000Y-48910000D02*
X140440000Y-48910000D01*
X146457000Y-48870000D02*
X140440000Y-48870000D01*
X146473000Y-48830000D02*
X140440000Y-48830000D01*
X146489000Y-48790000D02*
X140440000Y-48790000D01*
X146505000Y-48750000D02*
X140440000Y-48750000D01*
X146521000Y-48710000D02*
X140440000Y-48710000D01*
X146537000Y-48670000D02*
X140440000Y-48670000D01*
X146552000Y-48630000D02*
X140440000Y-48630000D01*
X146567000Y-48590000D02*
X140440000Y-48590000D01*
X146582000Y-48550000D02*
X140440000Y-48550000D01*
X146597000Y-48510000D02*
X140440000Y-48510000D01*
X146611000Y-48470000D02*
X140440000Y-48470000D01*
X146625000Y-48430000D02*
X140440000Y-48430000D01*
X146639000Y-48390000D02*
X140440000Y-48390000D01*
X146652000Y-48350000D02*
X140440000Y-48350000D01*
X146666000Y-48310000D02*
X140440000Y-48310000D01*
X146679000Y-48270000D02*
X140440000Y-48270000D01*
X146692000Y-48230000D02*
X140440000Y-48230000D01*
X146705000Y-48190000D02*
X140440000Y-48190000D01*
X146717000Y-48150000D02*
X140440000Y-48150000D01*
X146729000Y-48110000D02*
X140440000Y-48110000D01*
X146742000Y-48070000D02*
X140440000Y-48070000D01*
X146753000Y-48030000D02*
X131247000Y-48030000D01*
X146765000Y-47990000D02*
X131235000Y-47990000D01*
X146776000Y-47950000D02*
X131224000Y-47950000D01*
X146787000Y-47910000D02*
X131213000Y-47910000D01*
X146798000Y-47870000D02*
X131202000Y-47870000D01*
X146809000Y-47830000D02*
X131191000Y-47830000D01*
X146820000Y-47790000D02*
X131180000Y-47790000D01*
X146830000Y-47750000D02*
X131170000Y-47750000D01*
X146840000Y-47710000D02*
X131160000Y-47710000D01*
X146850000Y-47670000D02*
X131150000Y-47670000D01*
X146859000Y-47630000D02*
X131141000Y-47630000D01*
X146869000Y-47590000D02*
X131131000Y-47590000D01*
X146878000Y-47550000D02*
X131122000Y-47550000D01*
X146887000Y-47510000D02*
X131113000Y-47510000D01*
X146896000Y-47470000D02*
X131104000Y-47470000D01*
X146904000Y-47430000D02*
X131096000Y-47430000D01*
X146913000Y-47390000D02*
X131087000Y-47390000D01*
X146921000Y-47350000D02*
X131079000Y-47350000D01*
X146929000Y-47310000D02*
X131071000Y-47310000D01*
X146936000Y-47270000D02*
X131064000Y-47270000D01*
X146944000Y-47230000D02*
X131056000Y-47230000D01*
X146951000Y-47190000D02*
X131049000Y-47190000D01*
X146958000Y-47150000D02*
X131042000Y-47150000D01*
X146965000Y-47110000D02*
X131035000Y-47110000D01*
X146972000Y-47070000D02*
X131028000Y-47070000D01*
X146978000Y-47030000D02*
X131022000Y-47030000D01*
X146985000Y-46990000D02*
X131015000Y-46990000D01*
X146991000Y-46950000D02*
X131009000Y-46950000D01*
X146997000Y-46910000D02*
X131003000Y-46910000D01*
X147002000Y-46870000D02*
X130998000Y-46870000D01*
X147008000Y-46830000D02*
X130992000Y-46830000D01*
X147013000Y-46790000D02*
X130987000Y-46790000D01*
X147018000Y-46750000D02*
X130982000Y-46750000D01*
X147023000Y-46710000D02*
X130977000Y-46710000D01*
X147028000Y-46670000D02*
X130972000Y-46670000D01*
X147032000Y-46630000D02*
X130968000Y-46630000D01*
X147036000Y-46590000D02*
X130964000Y-46590000D01*
X147040000Y-46550000D02*
X130960000Y-46550000D01*
X147044000Y-46510000D02*
X130956000Y-46510000D01*
X147048000Y-46470000D02*
X130952000Y-46470000D01*
X147051000Y-46430000D02*
X130949000Y-46430000D01*
X147055000Y-46390000D02*
X130945000Y-46390000D01*
X147058000Y-46350000D02*
X130942000Y-46350000D01*
X147061000Y-46310000D02*
X130939000Y-46310000D01*
X147063000Y-46270000D02*
X130937000Y-46270000D01*
X147066000Y-46230000D02*
X130934000Y-46230000D01*
X147068000Y-46190000D02*
X130932000Y-46190000D01*
X147070000Y-46150000D02*
X130930000Y-46150000D01*
X147072000Y-46110000D02*
X130928000Y-46110000D01*
X147074000Y-46070000D02*
X130926000Y-46070000D01*
X147075000Y-46030000D02*
X130925000Y-46030000D01*
X147076000Y-45990000D02*
X130924000Y-45990000D01*
X147078000Y-45910000D02*
X130922000Y-45910000D01*
X147078000Y-45950000D02*
X130922000Y-45950000D01*
X147079000Y-45870000D02*
X130921000Y-45870000D01*
X147080000Y-45750000D02*
X130920000Y-45750000D01*
X147080000Y-45790000D02*
X130920000Y-45790000D01*
X147080000Y-45830000D02*
X130920000Y-45830000D01*
X147120000Y-45750000D02*
G75*
G02*
X130880000Y-45750000I-8120000J0D01*
G01*
X130880000Y-45750000D02*
G75*
G02*
X147120000Y-45750000I8120000J0D01*
G01*
%TO.C,D1*%
X77430000Y-26740000D02*
X87650000Y-26740000D01*
X77430000Y-28120000D02*
X87650000Y-28120000D01*
X77430000Y-31360000D02*
X77430000Y-26740000D01*
X80690000Y-26740000D02*
X80690000Y-28120000D01*
X84390000Y-26740000D02*
X84390000Y-28120000D01*
X87650000Y-26740000D02*
X87650000Y-31360000D01*
X87650000Y-31360000D02*
X77430000Y-31360000D01*
%TO.C,C12*%
X83380000Y-115780000D02*
X86620000Y-115780000D01*
X83380000Y-123220000D02*
X83380000Y-115780000D01*
X86620000Y-115780000D02*
X86620000Y-123220000D01*
X86620000Y-123220000D02*
X83380000Y-123220000D01*
%TO.C,C5*%
X120060000Y-48070000D02*
X113758000Y-48070000D01*
X120060000Y-48110000D02*
X113771000Y-48110000D01*
X120060000Y-48150000D02*
X113783000Y-48150000D01*
X120060000Y-48190000D02*
X113795000Y-48190000D01*
X120060000Y-48230000D02*
X113808000Y-48230000D01*
X120060000Y-48270000D02*
X113821000Y-48270000D01*
X120060000Y-48310000D02*
X113834000Y-48310000D01*
X120060000Y-48350000D02*
X113848000Y-48350000D01*
X120060000Y-48390000D02*
X113861000Y-48390000D01*
X120060000Y-48430000D02*
X113875000Y-48430000D01*
X120060000Y-48470000D02*
X113889000Y-48470000D01*
X120060000Y-48510000D02*
X113903000Y-48510000D01*
X120060000Y-48550000D02*
X113918000Y-48550000D01*
X120060000Y-48590000D02*
X113933000Y-48590000D01*
X120060000Y-48630000D02*
X113948000Y-48630000D01*
X120060000Y-48670000D02*
X113963000Y-48670000D01*
X120060000Y-48710000D02*
X113979000Y-48710000D01*
X120060000Y-48750000D02*
X113995000Y-48750000D01*
X120060000Y-48790000D02*
X114011000Y-48790000D01*
X120060000Y-48830000D02*
X114027000Y-48830000D01*
X120060000Y-48870000D02*
X114043000Y-48870000D01*
X120060000Y-48910000D02*
X114060000Y-48910000D01*
X120060000Y-48950000D02*
X114077000Y-48950000D01*
X120060000Y-48990000D02*
X114094000Y-48990000D01*
X120060000Y-49030000D02*
X114112000Y-49030000D01*
X120060000Y-49070000D02*
X114130000Y-49070000D01*
X120060000Y-49110000D02*
X114148000Y-49110000D01*
X120060000Y-49150000D02*
X114166000Y-49150000D01*
X120060000Y-49190000D02*
X114185000Y-49190000D01*
X120060000Y-49230000D02*
X114204000Y-49230000D01*
X120060000Y-49270000D02*
X114223000Y-49270000D01*
X120060000Y-49310000D02*
X114242000Y-49310000D01*
X120060000Y-49350000D02*
X114262000Y-49350000D01*
X120060000Y-49390000D02*
X114282000Y-49390000D01*
X120060000Y-49430000D02*
X114302000Y-49430000D01*
X120060000Y-49470000D02*
X114322000Y-49470000D01*
X120060000Y-49510000D02*
X114343000Y-49510000D01*
X120060000Y-49550000D02*
X114364000Y-49550000D01*
X120060000Y-49590000D02*
X114385000Y-49590000D01*
X120060000Y-49630000D02*
X114407000Y-49630000D01*
X120060000Y-49670000D02*
X114429000Y-49670000D01*
X120060000Y-49710000D02*
X114451000Y-49710000D01*
X120060000Y-49750000D02*
X114474000Y-49750000D01*
X120060000Y-49790000D02*
X114496000Y-49790000D01*
X120060000Y-49830000D02*
X114519000Y-49830000D01*
X120060000Y-49870000D02*
X114543000Y-49870000D01*
X120060000Y-49910000D02*
X114567000Y-49910000D01*
X120060000Y-49950000D02*
X114591000Y-49950000D01*
X120060000Y-49990000D02*
X114615000Y-49990000D01*
X120060000Y-50030000D02*
X114640000Y-50030000D01*
X120060000Y-50070000D02*
X114665000Y-50070000D01*
X120060000Y-50110000D02*
X114690000Y-50110000D01*
X120060000Y-50150000D02*
X114715000Y-50150000D01*
X120060000Y-50190000D02*
X114741000Y-50190000D01*
X120060000Y-50230000D02*
X114768000Y-50230000D01*
X120060000Y-50270000D02*
X114794000Y-50270000D01*
X120060000Y-50310000D02*
X114821000Y-50310000D01*
X120060000Y-50350000D02*
X114849000Y-50350000D01*
X120060000Y-50390000D02*
X114876000Y-50390000D01*
X120060000Y-50430000D02*
X114904000Y-50430000D01*
X120060000Y-50470000D02*
X114933000Y-50470000D01*
X120060000Y-50510000D02*
X114961000Y-50510000D01*
X120060000Y-50550000D02*
X114991000Y-50550000D01*
X120060000Y-50590000D02*
X115020000Y-50590000D01*
X120060000Y-50630000D02*
X115050000Y-50630000D01*
X120060000Y-50670000D02*
X115080000Y-50670000D01*
X120060000Y-50710000D02*
X115111000Y-50710000D01*
X120060000Y-50750000D02*
X115142000Y-50750000D01*
X120060000Y-50790000D02*
X115173000Y-50790000D01*
X120060000Y-50830000D02*
X115205000Y-50830000D01*
X120060000Y-50870000D02*
X115238000Y-50870000D01*
X120060000Y-50910000D02*
X115270000Y-50910000D01*
X122265000Y-53830000D02*
X120735000Y-53830000D01*
X122597000Y-53790000D02*
X120403000Y-53790000D01*
X122851000Y-53750000D02*
X120149000Y-53750000D01*
X123064000Y-53710000D02*
X119936000Y-53710000D01*
X123251000Y-53670000D02*
X119749000Y-53670000D01*
X123420000Y-53630000D02*
X119580000Y-53630000D01*
X123574000Y-53590000D02*
X119426000Y-53590000D01*
X123717000Y-53550000D02*
X119283000Y-53550000D01*
X123851000Y-53510000D02*
X119149000Y-53510000D01*
X123977000Y-53470000D02*
X119023000Y-53470000D01*
X124097000Y-53430000D02*
X118903000Y-53430000D01*
X124210000Y-53390000D02*
X118790000Y-53390000D01*
X124319000Y-53350000D02*
X118681000Y-53350000D01*
X124423000Y-53310000D02*
X118577000Y-53310000D01*
X124523000Y-53270000D02*
X118477000Y-53270000D01*
X124620000Y-53230000D02*
X118380000Y-53230000D01*
X124713000Y-53190000D02*
X118287000Y-53190000D01*
X124803000Y-53150000D02*
X118197000Y-53150000D01*
X124890000Y-53110000D02*
X118110000Y-53110000D01*
X124975000Y-53070000D02*
X118025000Y-53070000D01*
X125057000Y-53030000D02*
X117943000Y-53030000D01*
X125137000Y-52990000D02*
X117863000Y-52990000D01*
X125214000Y-52950000D02*
X117786000Y-52950000D01*
X125290000Y-52910000D02*
X117710000Y-52910000D01*
X125364000Y-52870000D02*
X117636000Y-52870000D01*
X125436000Y-52830000D02*
X117564000Y-52830000D01*
X125506000Y-52790000D02*
X117494000Y-52790000D01*
X125575000Y-52750000D02*
X117425000Y-52750000D01*
X125642000Y-52710000D02*
X117358000Y-52710000D01*
X125708000Y-52670000D02*
X117292000Y-52670000D01*
X125773000Y-52630000D02*
X117227000Y-52630000D01*
X125836000Y-52590000D02*
X117164000Y-52590000D01*
X125898000Y-52550000D02*
X117102000Y-52550000D01*
X125959000Y-52510000D02*
X117041000Y-52510000D01*
X126018000Y-52470000D02*
X116982000Y-52470000D01*
X126055000Y-37060509D02*
X126055000Y-38660509D01*
X126076000Y-52430000D02*
X116924000Y-52430000D01*
X126134000Y-52390000D02*
X116866000Y-52390000D01*
X126190000Y-52350000D02*
X116810000Y-52350000D01*
X126245000Y-52310000D02*
X116755000Y-52310000D01*
X126300000Y-52270000D02*
X116700000Y-52270000D01*
X126353000Y-52230000D02*
X116647000Y-52230000D01*
X126406000Y-52190000D02*
X116594000Y-52190000D01*
X126457000Y-52150000D02*
X116543000Y-52150000D01*
X126508000Y-52110000D02*
X116492000Y-52110000D01*
X126558000Y-52070000D02*
X116442000Y-52070000D01*
X126607000Y-52030000D02*
X116393000Y-52030000D01*
X126656000Y-51990000D02*
X116344000Y-51990000D01*
X126704000Y-51950000D02*
X116296000Y-51950000D01*
X126750000Y-51910000D02*
X116250000Y-51910000D01*
X126797000Y-51870000D02*
X116203000Y-51870000D01*
X126842000Y-51830000D02*
X116158000Y-51830000D01*
X126855000Y-37860509D02*
X125255000Y-37860509D01*
X126887000Y-51790000D02*
X116113000Y-51790000D01*
X126931000Y-51750000D02*
X116069000Y-51750000D01*
X126975000Y-51710000D02*
X116025000Y-51710000D01*
X127018000Y-51670000D02*
X115982000Y-51670000D01*
X127060000Y-51630000D02*
X115940000Y-51630000D01*
X127102000Y-51590000D02*
X115898000Y-51590000D01*
X127143000Y-51550000D02*
X115857000Y-51550000D01*
X127183000Y-51510000D02*
X115817000Y-51510000D01*
X127223000Y-51470000D02*
X115777000Y-51470000D01*
X127263000Y-51430000D02*
X115737000Y-51430000D01*
X127302000Y-51390000D02*
X115698000Y-51390000D01*
X127340000Y-51350000D02*
X115660000Y-51350000D01*
X127378000Y-51310000D02*
X115622000Y-51310000D01*
X127415000Y-51270000D02*
X115585000Y-51270000D01*
X127452000Y-51230000D02*
X115548000Y-51230000D01*
X127488000Y-51190000D02*
X115512000Y-51190000D01*
X127524000Y-51150000D02*
X115476000Y-51150000D01*
X127560000Y-51110000D02*
X115440000Y-51110000D01*
X127594000Y-51070000D02*
X115406000Y-51070000D01*
X127629000Y-51030000D02*
X115371000Y-51030000D01*
X127663000Y-50990000D02*
X115337000Y-50990000D01*
X127697000Y-50950000D02*
X115303000Y-50950000D01*
X127730000Y-50910000D02*
X122940000Y-50910000D01*
X127762000Y-50870000D02*
X122940000Y-50870000D01*
X127795000Y-50830000D02*
X122940000Y-50830000D01*
X127827000Y-50790000D02*
X122940000Y-50790000D01*
X127858000Y-50750000D02*
X122940000Y-50750000D01*
X127889000Y-50710000D02*
X122940000Y-50710000D01*
X127920000Y-50670000D02*
X122940000Y-50670000D01*
X127950000Y-50630000D02*
X122940000Y-50630000D01*
X127980000Y-50590000D02*
X122940000Y-50590000D01*
X128009000Y-50550000D02*
X122940000Y-50550000D01*
X128039000Y-50510000D02*
X122940000Y-50510000D01*
X128067000Y-50470000D02*
X122940000Y-50470000D01*
X128096000Y-50430000D02*
X122940000Y-50430000D01*
X128124000Y-50390000D02*
X122940000Y-50390000D01*
X128151000Y-50350000D02*
X122940000Y-50350000D01*
X128179000Y-50310000D02*
X122940000Y-50310000D01*
X128206000Y-50270000D02*
X122940000Y-50270000D01*
X128232000Y-50230000D02*
X122940000Y-50230000D01*
X128259000Y-50190000D02*
X122940000Y-50190000D01*
X128285000Y-50150000D02*
X122940000Y-50150000D01*
X128310000Y-50110000D02*
X122940000Y-50110000D01*
X128335000Y-50070000D02*
X122940000Y-50070000D01*
X128360000Y-50030000D02*
X122940000Y-50030000D01*
X128385000Y-49990000D02*
X122940000Y-49990000D01*
X128409000Y-49950000D02*
X122940000Y-49950000D01*
X128433000Y-49910000D02*
X122940000Y-49910000D01*
X128457000Y-49870000D02*
X122940000Y-49870000D01*
X128481000Y-49830000D02*
X122940000Y-49830000D01*
X128504000Y-49790000D02*
X122940000Y-49790000D01*
X128526000Y-49750000D02*
X122940000Y-49750000D01*
X128549000Y-49710000D02*
X122940000Y-49710000D01*
X128571000Y-49670000D02*
X122940000Y-49670000D01*
X128593000Y-49630000D02*
X122940000Y-49630000D01*
X128615000Y-49590000D02*
X122940000Y-49590000D01*
X128636000Y-49550000D02*
X122940000Y-49550000D01*
X128657000Y-49510000D02*
X122940000Y-49510000D01*
X128678000Y-49470000D02*
X122940000Y-49470000D01*
X128698000Y-49430000D02*
X122940000Y-49430000D01*
X128718000Y-49390000D02*
X122940000Y-49390000D01*
X128738000Y-49350000D02*
X122940000Y-49350000D01*
X128758000Y-49310000D02*
X122940000Y-49310000D01*
X128777000Y-49270000D02*
X122940000Y-49270000D01*
X128796000Y-49230000D02*
X122940000Y-49230000D01*
X128815000Y-49190000D02*
X122940000Y-49190000D01*
X128834000Y-49150000D02*
X122940000Y-49150000D01*
X128852000Y-49110000D02*
X122940000Y-49110000D01*
X128870000Y-49070000D02*
X122940000Y-49070000D01*
X128888000Y-49030000D02*
X122940000Y-49030000D01*
X128906000Y-48990000D02*
X122940000Y-48990000D01*
X128923000Y-48950000D02*
X122940000Y-48950000D01*
X128940000Y-48910000D02*
X122940000Y-48910000D01*
X128957000Y-48870000D02*
X122940000Y-48870000D01*
X128973000Y-48830000D02*
X122940000Y-48830000D01*
X128989000Y-48790000D02*
X122940000Y-48790000D01*
X129005000Y-48750000D02*
X122940000Y-48750000D01*
X129021000Y-48710000D02*
X122940000Y-48710000D01*
X129037000Y-48670000D02*
X122940000Y-48670000D01*
X129052000Y-48630000D02*
X122940000Y-48630000D01*
X129067000Y-48590000D02*
X122940000Y-48590000D01*
X129082000Y-48550000D02*
X122940000Y-48550000D01*
X129097000Y-48510000D02*
X122940000Y-48510000D01*
X129111000Y-48470000D02*
X122940000Y-48470000D01*
X129125000Y-48430000D02*
X122940000Y-48430000D01*
X129139000Y-48390000D02*
X122940000Y-48390000D01*
X129152000Y-48350000D02*
X122940000Y-48350000D01*
X129166000Y-48310000D02*
X122940000Y-48310000D01*
X129179000Y-48270000D02*
X122940000Y-48270000D01*
X129192000Y-48230000D02*
X122940000Y-48230000D01*
X129205000Y-48190000D02*
X122940000Y-48190000D01*
X129217000Y-48150000D02*
X122940000Y-48150000D01*
X129229000Y-48110000D02*
X122940000Y-48110000D01*
X129242000Y-48070000D02*
X122940000Y-48070000D01*
X129253000Y-48030000D02*
X113747000Y-48030000D01*
X129265000Y-47990000D02*
X113735000Y-47990000D01*
X129276000Y-47950000D02*
X113724000Y-47950000D01*
X129287000Y-47910000D02*
X113713000Y-47910000D01*
X129298000Y-47870000D02*
X113702000Y-47870000D01*
X129309000Y-47830000D02*
X113691000Y-47830000D01*
X129320000Y-47790000D02*
X113680000Y-47790000D01*
X129330000Y-47750000D02*
X113670000Y-47750000D01*
X129340000Y-47710000D02*
X113660000Y-47710000D01*
X129350000Y-47670000D02*
X113650000Y-47670000D01*
X129359000Y-47630000D02*
X113641000Y-47630000D01*
X129369000Y-47590000D02*
X113631000Y-47590000D01*
X129378000Y-47550000D02*
X113622000Y-47550000D01*
X129387000Y-47510000D02*
X113613000Y-47510000D01*
X129396000Y-47470000D02*
X113604000Y-47470000D01*
X129404000Y-47430000D02*
X113596000Y-47430000D01*
X129413000Y-47390000D02*
X113587000Y-47390000D01*
X129421000Y-47350000D02*
X113579000Y-47350000D01*
X129429000Y-47310000D02*
X113571000Y-47310000D01*
X129436000Y-47270000D02*
X113564000Y-47270000D01*
X129444000Y-47230000D02*
X113556000Y-47230000D01*
X129451000Y-47190000D02*
X113549000Y-47190000D01*
X129458000Y-47150000D02*
X113542000Y-47150000D01*
X129465000Y-47110000D02*
X113535000Y-47110000D01*
X129472000Y-47070000D02*
X113528000Y-47070000D01*
X129478000Y-47030000D02*
X113522000Y-47030000D01*
X129485000Y-46990000D02*
X113515000Y-46990000D01*
X129491000Y-46950000D02*
X113509000Y-46950000D01*
X129497000Y-46910000D02*
X113503000Y-46910000D01*
X129502000Y-46870000D02*
X113498000Y-46870000D01*
X129508000Y-46830000D02*
X113492000Y-46830000D01*
X129513000Y-46790000D02*
X113487000Y-46790000D01*
X129518000Y-46750000D02*
X113482000Y-46750000D01*
X129523000Y-46710000D02*
X113477000Y-46710000D01*
X129528000Y-46670000D02*
X113472000Y-46670000D01*
X129532000Y-46630000D02*
X113468000Y-46630000D01*
X129536000Y-46590000D02*
X113464000Y-46590000D01*
X129540000Y-46550000D02*
X113460000Y-46550000D01*
X129544000Y-46510000D02*
X113456000Y-46510000D01*
X129548000Y-46470000D02*
X113452000Y-46470000D01*
X129551000Y-46430000D02*
X113449000Y-46430000D01*
X129555000Y-46390000D02*
X113445000Y-46390000D01*
X129558000Y-46350000D02*
X113442000Y-46350000D01*
X129561000Y-46310000D02*
X113439000Y-46310000D01*
X129563000Y-46270000D02*
X113437000Y-46270000D01*
X129566000Y-46230000D02*
X113434000Y-46230000D01*
X129568000Y-46190000D02*
X113432000Y-46190000D01*
X129570000Y-46150000D02*
X113430000Y-46150000D01*
X129572000Y-46110000D02*
X113428000Y-46110000D01*
X129574000Y-46070000D02*
X113426000Y-46070000D01*
X129575000Y-46030000D02*
X113425000Y-46030000D01*
X129576000Y-45990000D02*
X113424000Y-45990000D01*
X129578000Y-45910000D02*
X113422000Y-45910000D01*
X129578000Y-45950000D02*
X113422000Y-45950000D01*
X129579000Y-45870000D02*
X113421000Y-45870000D01*
X129580000Y-45750000D02*
X113420000Y-45750000D01*
X129580000Y-45790000D02*
X113420000Y-45790000D01*
X129580000Y-45830000D02*
X113420000Y-45830000D01*
X129620000Y-45750000D02*
G75*
G02*
X113380000Y-45750000I-8120000J0D01*
G01*
X113380000Y-45750000D02*
G75*
G02*
X129620000Y-45750000I8120000J0D01*
G01*
%TO.C,Q1*%
X65430000Y-26740000D02*
X75650000Y-26740000D01*
X65430000Y-28120000D02*
X75650000Y-28120000D01*
X65430000Y-31360000D02*
X65430000Y-26740000D01*
X68690000Y-26740000D02*
X68690000Y-28120000D01*
X72390000Y-26740000D02*
X72390000Y-28120000D01*
X75650000Y-26740000D02*
X75650000Y-31360000D01*
X75650000Y-31360000D02*
X65430000Y-31360000D01*
%TO.C,C11*%
X51880000Y-103010000D02*
X57120000Y-103010000D01*
X51880000Y-103347000D02*
X51880000Y-103010000D01*
X51880000Y-105750000D02*
X51880000Y-105413000D01*
X57120000Y-103010000D02*
X57120000Y-103347000D01*
X57120000Y-105413000D02*
X57120000Y-105750000D01*
X57120000Y-105750000D02*
X51880000Y-105750000D01*
%TO.C,C2*%
X45560000Y-69070000D02*
X39258000Y-69070000D01*
X45560000Y-69110000D02*
X39271000Y-69110000D01*
X45560000Y-69150000D02*
X39283000Y-69150000D01*
X45560000Y-69190000D02*
X39295000Y-69190000D01*
X45560000Y-69230000D02*
X39308000Y-69230000D01*
X45560000Y-69270000D02*
X39321000Y-69270000D01*
X45560000Y-69310000D02*
X39334000Y-69310000D01*
X45560000Y-69350000D02*
X39348000Y-69350000D01*
X45560000Y-69390000D02*
X39361000Y-69390000D01*
X45560000Y-69430000D02*
X39375000Y-69430000D01*
X45560000Y-69470000D02*
X39389000Y-69470000D01*
X45560000Y-69510000D02*
X39403000Y-69510000D01*
X45560000Y-69550000D02*
X39418000Y-69550000D01*
X45560000Y-69590000D02*
X39433000Y-69590000D01*
X45560000Y-69630000D02*
X39448000Y-69630000D01*
X45560000Y-69670000D02*
X39463000Y-69670000D01*
X45560000Y-69710000D02*
X39479000Y-69710000D01*
X45560000Y-69750000D02*
X39495000Y-69750000D01*
X45560000Y-69790000D02*
X39511000Y-69790000D01*
X45560000Y-69830000D02*
X39527000Y-69830000D01*
X45560000Y-69870000D02*
X39543000Y-69870000D01*
X45560000Y-69910000D02*
X39560000Y-69910000D01*
X45560000Y-69950000D02*
X39577000Y-69950000D01*
X45560000Y-69990000D02*
X39594000Y-69990000D01*
X45560000Y-70030000D02*
X39612000Y-70030000D01*
X45560000Y-70070000D02*
X39630000Y-70070000D01*
X45560000Y-70110000D02*
X39648000Y-70110000D01*
X45560000Y-70150000D02*
X39666000Y-70150000D01*
X45560000Y-70190000D02*
X39685000Y-70190000D01*
X45560000Y-70230000D02*
X39704000Y-70230000D01*
X45560000Y-70270000D02*
X39723000Y-70270000D01*
X45560000Y-70310000D02*
X39742000Y-70310000D01*
X45560000Y-70350000D02*
X39762000Y-70350000D01*
X45560000Y-70390000D02*
X39782000Y-70390000D01*
X45560000Y-70430000D02*
X39802000Y-70430000D01*
X45560000Y-70470000D02*
X39822000Y-70470000D01*
X45560000Y-70510000D02*
X39843000Y-70510000D01*
X45560000Y-70550000D02*
X39864000Y-70550000D01*
X45560000Y-70590000D02*
X39885000Y-70590000D01*
X45560000Y-70630000D02*
X39907000Y-70630000D01*
X45560000Y-70670000D02*
X39929000Y-70670000D01*
X45560000Y-70710000D02*
X39951000Y-70710000D01*
X45560000Y-70750000D02*
X39974000Y-70750000D01*
X45560000Y-70790000D02*
X39996000Y-70790000D01*
X45560000Y-70830000D02*
X40019000Y-70830000D01*
X45560000Y-70870000D02*
X40043000Y-70870000D01*
X45560000Y-70910000D02*
X40067000Y-70910000D01*
X45560000Y-70950000D02*
X40091000Y-70950000D01*
X45560000Y-70990000D02*
X40115000Y-70990000D01*
X45560000Y-71030000D02*
X40140000Y-71030000D01*
X45560000Y-71070000D02*
X40165000Y-71070000D01*
X45560000Y-71110000D02*
X40190000Y-71110000D01*
X45560000Y-71150000D02*
X40215000Y-71150000D01*
X45560000Y-71190000D02*
X40241000Y-71190000D01*
X45560000Y-71230000D02*
X40268000Y-71230000D01*
X45560000Y-71270000D02*
X40294000Y-71270000D01*
X45560000Y-71310000D02*
X40321000Y-71310000D01*
X45560000Y-71350000D02*
X40349000Y-71350000D01*
X45560000Y-71390000D02*
X40376000Y-71390000D01*
X45560000Y-71430000D02*
X40404000Y-71430000D01*
X45560000Y-71470000D02*
X40433000Y-71470000D01*
X45560000Y-71510000D02*
X40461000Y-71510000D01*
X45560000Y-71550000D02*
X40491000Y-71550000D01*
X45560000Y-71590000D02*
X40520000Y-71590000D01*
X45560000Y-71630000D02*
X40550000Y-71630000D01*
X45560000Y-71670000D02*
X40580000Y-71670000D01*
X45560000Y-71710000D02*
X40611000Y-71710000D01*
X45560000Y-71750000D02*
X40642000Y-71750000D01*
X45560000Y-71790000D02*
X40673000Y-71790000D01*
X45560000Y-71830000D02*
X40705000Y-71830000D01*
X45560000Y-71870000D02*
X40738000Y-71870000D01*
X45560000Y-71910000D02*
X40770000Y-71910000D01*
X47765000Y-74830000D02*
X46235000Y-74830000D01*
X48097000Y-74790000D02*
X45903000Y-74790000D01*
X48351000Y-74750000D02*
X45649000Y-74750000D01*
X48564000Y-74710000D02*
X45436000Y-74710000D01*
X48751000Y-74670000D02*
X45249000Y-74670000D01*
X48920000Y-74630000D02*
X45080000Y-74630000D01*
X49074000Y-74590000D02*
X44926000Y-74590000D01*
X49217000Y-74550000D02*
X44783000Y-74550000D01*
X49351000Y-74510000D02*
X44649000Y-74510000D01*
X49477000Y-74470000D02*
X44523000Y-74470000D01*
X49597000Y-74430000D02*
X44403000Y-74430000D01*
X49710000Y-74390000D02*
X44290000Y-74390000D01*
X49819000Y-74350000D02*
X44181000Y-74350000D01*
X49923000Y-74310000D02*
X44077000Y-74310000D01*
X50023000Y-74270000D02*
X43977000Y-74270000D01*
X50120000Y-74230000D02*
X43880000Y-74230000D01*
X50213000Y-74190000D02*
X43787000Y-74190000D01*
X50303000Y-74150000D02*
X43697000Y-74150000D01*
X50390000Y-74110000D02*
X43610000Y-74110000D01*
X50475000Y-74070000D02*
X43525000Y-74070000D01*
X50557000Y-74030000D02*
X43443000Y-74030000D01*
X50637000Y-73990000D02*
X43363000Y-73990000D01*
X50714000Y-73950000D02*
X43286000Y-73950000D01*
X50790000Y-73910000D02*
X43210000Y-73910000D01*
X50864000Y-73870000D02*
X43136000Y-73870000D01*
X50936000Y-73830000D02*
X43064000Y-73830000D01*
X51006000Y-73790000D02*
X42994000Y-73790000D01*
X51075000Y-73750000D02*
X42925000Y-73750000D01*
X51142000Y-73710000D02*
X42858000Y-73710000D01*
X51208000Y-73670000D02*
X42792000Y-73670000D01*
X51273000Y-73630000D02*
X42727000Y-73630000D01*
X51336000Y-73590000D02*
X42664000Y-73590000D01*
X51398000Y-73550000D02*
X42602000Y-73550000D01*
X51459000Y-73510000D02*
X42541000Y-73510000D01*
X51518000Y-73470000D02*
X42482000Y-73470000D01*
X51555000Y-58060509D02*
X51555000Y-59660509D01*
X51576000Y-73430000D02*
X42424000Y-73430000D01*
X51634000Y-73390000D02*
X42366000Y-73390000D01*
X51690000Y-73350000D02*
X42310000Y-73350000D01*
X51745000Y-73310000D02*
X42255000Y-73310000D01*
X51800000Y-73270000D02*
X42200000Y-73270000D01*
X51853000Y-73230000D02*
X42147000Y-73230000D01*
X51906000Y-73190000D02*
X42094000Y-73190000D01*
X51957000Y-73150000D02*
X42043000Y-73150000D01*
X52008000Y-73110000D02*
X41992000Y-73110000D01*
X52058000Y-73070000D02*
X41942000Y-73070000D01*
X52107000Y-73030000D02*
X41893000Y-73030000D01*
X52156000Y-72990000D02*
X41844000Y-72990000D01*
X52204000Y-72950000D02*
X41796000Y-72950000D01*
X52250000Y-72910000D02*
X41750000Y-72910000D01*
X52297000Y-72870000D02*
X41703000Y-72870000D01*
X52342000Y-72830000D02*
X41658000Y-72830000D01*
X52355000Y-58860509D02*
X50755000Y-58860509D01*
X52387000Y-72790000D02*
X41613000Y-72790000D01*
X52431000Y-72750000D02*
X41569000Y-72750000D01*
X52475000Y-72710000D02*
X41525000Y-72710000D01*
X52518000Y-72670000D02*
X41482000Y-72670000D01*
X52560000Y-72630000D02*
X41440000Y-72630000D01*
X52602000Y-72590000D02*
X41398000Y-72590000D01*
X52643000Y-72550000D02*
X41357000Y-72550000D01*
X52683000Y-72510000D02*
X41317000Y-72510000D01*
X52723000Y-72470000D02*
X41277000Y-72470000D01*
X52763000Y-72430000D02*
X41237000Y-72430000D01*
X52802000Y-72390000D02*
X41198000Y-72390000D01*
X52840000Y-72350000D02*
X41160000Y-72350000D01*
X52878000Y-72310000D02*
X41122000Y-72310000D01*
X52915000Y-72270000D02*
X41085000Y-72270000D01*
X52952000Y-72230000D02*
X41048000Y-72230000D01*
X52988000Y-72190000D02*
X41012000Y-72190000D01*
X53024000Y-72150000D02*
X40976000Y-72150000D01*
X53060000Y-72110000D02*
X40940000Y-72110000D01*
X53094000Y-72070000D02*
X40906000Y-72070000D01*
X53129000Y-72030000D02*
X40871000Y-72030000D01*
X53163000Y-71990000D02*
X40837000Y-71990000D01*
X53197000Y-71950000D02*
X40803000Y-71950000D01*
X53230000Y-71910000D02*
X48440000Y-71910000D01*
X53262000Y-71870000D02*
X48440000Y-71870000D01*
X53295000Y-71830000D02*
X48440000Y-71830000D01*
X53327000Y-71790000D02*
X48440000Y-71790000D01*
X53358000Y-71750000D02*
X48440000Y-71750000D01*
X53389000Y-71710000D02*
X48440000Y-71710000D01*
X53420000Y-71670000D02*
X48440000Y-71670000D01*
X53450000Y-71630000D02*
X48440000Y-71630000D01*
X53480000Y-71590000D02*
X48440000Y-71590000D01*
X53509000Y-71550000D02*
X48440000Y-71550000D01*
X53539000Y-71510000D02*
X48440000Y-71510000D01*
X53567000Y-71470000D02*
X48440000Y-71470000D01*
X53596000Y-71430000D02*
X48440000Y-71430000D01*
X53624000Y-71390000D02*
X48440000Y-71390000D01*
X53651000Y-71350000D02*
X48440000Y-71350000D01*
X53679000Y-71310000D02*
X48440000Y-71310000D01*
X53706000Y-71270000D02*
X48440000Y-71270000D01*
X53732000Y-71230000D02*
X48440000Y-71230000D01*
X53759000Y-71190000D02*
X48440000Y-71190000D01*
X53785000Y-71150000D02*
X48440000Y-71150000D01*
X53810000Y-71110000D02*
X48440000Y-71110000D01*
X53835000Y-71070000D02*
X48440000Y-71070000D01*
X53860000Y-71030000D02*
X48440000Y-71030000D01*
X53885000Y-70990000D02*
X48440000Y-70990000D01*
X53909000Y-70950000D02*
X48440000Y-70950000D01*
X53933000Y-70910000D02*
X48440000Y-70910000D01*
X53957000Y-70870000D02*
X48440000Y-70870000D01*
X53981000Y-70830000D02*
X48440000Y-70830000D01*
X54004000Y-70790000D02*
X48440000Y-70790000D01*
X54026000Y-70750000D02*
X48440000Y-70750000D01*
X54049000Y-70710000D02*
X48440000Y-70710000D01*
X54071000Y-70670000D02*
X48440000Y-70670000D01*
X54093000Y-70630000D02*
X48440000Y-70630000D01*
X54115000Y-70590000D02*
X48440000Y-70590000D01*
X54136000Y-70550000D02*
X48440000Y-70550000D01*
X54157000Y-70510000D02*
X48440000Y-70510000D01*
X54178000Y-70470000D02*
X48440000Y-70470000D01*
X54198000Y-70430000D02*
X48440000Y-70430000D01*
X54218000Y-70390000D02*
X48440000Y-70390000D01*
X54238000Y-70350000D02*
X48440000Y-70350000D01*
X54258000Y-70310000D02*
X48440000Y-70310000D01*
X54277000Y-70270000D02*
X48440000Y-70270000D01*
X54296000Y-70230000D02*
X48440000Y-70230000D01*
X54315000Y-70190000D02*
X48440000Y-70190000D01*
X54334000Y-70150000D02*
X48440000Y-70150000D01*
X54352000Y-70110000D02*
X48440000Y-70110000D01*
X54370000Y-70070000D02*
X48440000Y-70070000D01*
X54388000Y-70030000D02*
X48440000Y-70030000D01*
X54406000Y-69990000D02*
X48440000Y-69990000D01*
X54423000Y-69950000D02*
X48440000Y-69950000D01*
X54440000Y-69910000D02*
X48440000Y-69910000D01*
X54457000Y-69870000D02*
X48440000Y-69870000D01*
X54473000Y-69830000D02*
X48440000Y-69830000D01*
X54489000Y-69790000D02*
X48440000Y-69790000D01*
X54505000Y-69750000D02*
X48440000Y-69750000D01*
X54521000Y-69710000D02*
X48440000Y-69710000D01*
X54537000Y-69670000D02*
X48440000Y-69670000D01*
X54552000Y-69630000D02*
X48440000Y-69630000D01*
X54567000Y-69590000D02*
X48440000Y-69590000D01*
X54582000Y-69550000D02*
X48440000Y-69550000D01*
X54597000Y-69510000D02*
X48440000Y-69510000D01*
X54611000Y-69470000D02*
X48440000Y-69470000D01*
X54625000Y-69430000D02*
X48440000Y-69430000D01*
X54639000Y-69390000D02*
X48440000Y-69390000D01*
X54652000Y-69350000D02*
X48440000Y-69350000D01*
X54666000Y-69310000D02*
X48440000Y-69310000D01*
X54679000Y-69270000D02*
X48440000Y-69270000D01*
X54692000Y-69230000D02*
X48440000Y-69230000D01*
X54705000Y-69190000D02*
X48440000Y-69190000D01*
X54717000Y-69150000D02*
X48440000Y-69150000D01*
X54729000Y-69110000D02*
X48440000Y-69110000D01*
X54742000Y-69070000D02*
X48440000Y-69070000D01*
X54753000Y-69030000D02*
X39247000Y-69030000D01*
X54765000Y-68990000D02*
X39235000Y-68990000D01*
X54776000Y-68950000D02*
X39224000Y-68950000D01*
X54787000Y-68910000D02*
X39213000Y-68910000D01*
X54798000Y-68870000D02*
X39202000Y-68870000D01*
X54809000Y-68830000D02*
X39191000Y-68830000D01*
X54820000Y-68790000D02*
X39180000Y-68790000D01*
X54830000Y-68750000D02*
X39170000Y-68750000D01*
X54840000Y-68710000D02*
X39160000Y-68710000D01*
X54850000Y-68670000D02*
X39150000Y-68670000D01*
X54859000Y-68630000D02*
X39141000Y-68630000D01*
X54869000Y-68590000D02*
X39131000Y-68590000D01*
X54878000Y-68550000D02*
X39122000Y-68550000D01*
X54887000Y-68510000D02*
X39113000Y-68510000D01*
X54896000Y-68470000D02*
X39104000Y-68470000D01*
X54904000Y-68430000D02*
X39096000Y-68430000D01*
X54913000Y-68390000D02*
X39087000Y-68390000D01*
X54921000Y-68350000D02*
X39079000Y-68350000D01*
X54929000Y-68310000D02*
X39071000Y-68310000D01*
X54936000Y-68270000D02*
X39064000Y-68270000D01*
X54944000Y-68230000D02*
X39056000Y-68230000D01*
X54951000Y-68190000D02*
X39049000Y-68190000D01*
X54958000Y-68150000D02*
X39042000Y-68150000D01*
X54965000Y-68110000D02*
X39035000Y-68110000D01*
X54972000Y-68070000D02*
X39028000Y-68070000D01*
X54978000Y-68030000D02*
X39022000Y-68030000D01*
X54985000Y-67990000D02*
X39015000Y-67990000D01*
X54991000Y-67950000D02*
X39009000Y-67950000D01*
X54997000Y-67910000D02*
X39003000Y-67910000D01*
X55002000Y-67870000D02*
X38998000Y-67870000D01*
X55008000Y-67830000D02*
X38992000Y-67830000D01*
X55013000Y-67790000D02*
X38987000Y-67790000D01*
X55018000Y-67750000D02*
X38982000Y-67750000D01*
X55023000Y-67710000D02*
X38977000Y-67710000D01*
X55028000Y-67670000D02*
X38972000Y-67670000D01*
X55032000Y-67630000D02*
X38968000Y-67630000D01*
X55036000Y-67590000D02*
X38964000Y-67590000D01*
X55040000Y-67550000D02*
X38960000Y-67550000D01*
X55044000Y-67510000D02*
X38956000Y-67510000D01*
X55048000Y-67470000D02*
X38952000Y-67470000D01*
X55051000Y-67430000D02*
X38949000Y-67430000D01*
X55055000Y-67390000D02*
X38945000Y-67390000D01*
X55058000Y-67350000D02*
X38942000Y-67350000D01*
X55061000Y-67310000D02*
X38939000Y-67310000D01*
X55063000Y-67270000D02*
X38937000Y-67270000D01*
X55066000Y-67230000D02*
X38934000Y-67230000D01*
X55068000Y-67190000D02*
X38932000Y-67190000D01*
X55070000Y-67150000D02*
X38930000Y-67150000D01*
X55072000Y-67110000D02*
X38928000Y-67110000D01*
X55074000Y-67070000D02*
X38926000Y-67070000D01*
X55075000Y-67030000D02*
X38925000Y-67030000D01*
X55076000Y-66990000D02*
X38924000Y-66990000D01*
X55078000Y-66910000D02*
X38922000Y-66910000D01*
X55078000Y-66950000D02*
X38922000Y-66950000D01*
X55079000Y-66870000D02*
X38921000Y-66870000D01*
X55080000Y-66750000D02*
X38920000Y-66750000D01*
X55080000Y-66790000D02*
X38920000Y-66790000D01*
X55080000Y-66830000D02*
X38920000Y-66830000D01*
X55120000Y-66750000D02*
G75*
G02*
X38880000Y-66750000I-8120000J0D01*
G01*
X38880000Y-66750000D02*
G75*
G02*
X55120000Y-66750000I8120000J0D01*
G01*
%TO.C,R5*%
X69040000Y-36000000D02*
X69810000Y-36000000D01*
X77120000Y-36000000D02*
X76350000Y-36000000D01*
X69810000Y-34630000D02*
X76350000Y-34630000D01*
X76350000Y-37370000D01*
X69810000Y-37370000D01*
X69810000Y-34630000D01*
%TO.C,D4*%
X91420000Y-87000000D02*
X92070000Y-87000000D01*
X95470000Y-88120000D02*
X95470000Y-85880000D01*
X95590000Y-88120000D02*
X95590000Y-85880000D01*
X95710000Y-88120000D02*
X95710000Y-85880000D01*
X96960000Y-87000000D02*
X96310000Y-87000000D01*
X92070000Y-85880000D02*
X96310000Y-85880000D01*
X96310000Y-88120000D01*
X92070000Y-88120000D01*
X92070000Y-85880000D01*
%TO.C,R6*%
X60000000Y-69380000D02*
X60000000Y-70150000D01*
X60000000Y-77460000D02*
X60000000Y-76690000D01*
X58630000Y-70150000D02*
X61370000Y-70150000D01*
X61370000Y-76690000D01*
X58630000Y-76690000D01*
X58630000Y-70150000D01*
%TO.C,R13*%
X98000000Y-95260000D02*
X98000000Y-96030000D01*
X98000000Y-103340000D02*
X98000000Y-102570000D01*
X96630000Y-96030000D02*
X99370000Y-96030000D01*
X99370000Y-102570000D01*
X96630000Y-102570000D01*
X96630000Y-96030000D01*
%TO.C,R11*%
X98000000Y-113040000D02*
X98000000Y-113810000D01*
X98000000Y-121120000D02*
X98000000Y-120350000D01*
X96630000Y-113810000D02*
X99370000Y-113810000D01*
X99370000Y-120350000D01*
X96630000Y-120350000D01*
X96630000Y-113810000D01*
%TO.C,R4*%
X68000000Y-69380000D02*
X68000000Y-70150000D01*
X68000000Y-77460000D02*
X68000000Y-76690000D01*
X66630000Y-70150000D02*
X69370000Y-70150000D01*
X69370000Y-76690000D01*
X66630000Y-76690000D01*
X66630000Y-70150000D01*
%TO.C,L1*%
X28730000Y-22380000D02*
X63470000Y-22380000D01*
X63470000Y-37620000D01*
X28730000Y-37620000D01*
X28730000Y-22380000D01*
%TO.C,C16*%
X88780000Y-102760000D02*
X96220000Y-102760000D01*
X88780000Y-106000000D02*
X88780000Y-102760000D01*
X96220000Y-102760000D02*
X96220000Y-106000000D01*
X96220000Y-106000000D02*
X88780000Y-106000000D01*
%TO.C,R10*%
X102880000Y-114000000D02*
X103650000Y-114000000D01*
X110960000Y-114000000D02*
X110190000Y-114000000D01*
X103650000Y-112630000D02*
X110190000Y-112630000D01*
X110190000Y-115370000D01*
X103650000Y-115370000D01*
X103650000Y-112630000D01*
%TO.C,C4*%
X102560000Y-48070000D02*
X96258000Y-48070000D01*
X102560000Y-48110000D02*
X96271000Y-48110000D01*
X102560000Y-48150000D02*
X96283000Y-48150000D01*
X102560000Y-48190000D02*
X96295000Y-48190000D01*
X102560000Y-48230000D02*
X96308000Y-48230000D01*
X102560000Y-48270000D02*
X96321000Y-48270000D01*
X102560000Y-48310000D02*
X96334000Y-48310000D01*
X102560000Y-48350000D02*
X96348000Y-48350000D01*
X102560000Y-48390000D02*
X96361000Y-48390000D01*
X102560000Y-48430000D02*
X96375000Y-48430000D01*
X102560000Y-48470000D02*
X96389000Y-48470000D01*
X102560000Y-48510000D02*
X96403000Y-48510000D01*
X102560000Y-48550000D02*
X96418000Y-48550000D01*
X102560000Y-48590000D02*
X96433000Y-48590000D01*
X102560000Y-48630000D02*
X96448000Y-48630000D01*
X102560000Y-48670000D02*
X96463000Y-48670000D01*
X102560000Y-48710000D02*
X96479000Y-48710000D01*
X102560000Y-48750000D02*
X96495000Y-48750000D01*
X102560000Y-48790000D02*
X96511000Y-48790000D01*
X102560000Y-48830000D02*
X96527000Y-48830000D01*
X102560000Y-48870000D02*
X96543000Y-48870000D01*
X102560000Y-48910000D02*
X96560000Y-48910000D01*
X102560000Y-48950000D02*
X96577000Y-48950000D01*
X102560000Y-48990000D02*
X96594000Y-48990000D01*
X102560000Y-49030000D02*
X96612000Y-49030000D01*
X102560000Y-49070000D02*
X96630000Y-49070000D01*
X102560000Y-49110000D02*
X96648000Y-49110000D01*
X102560000Y-49150000D02*
X96666000Y-49150000D01*
X102560000Y-49190000D02*
X96685000Y-49190000D01*
X102560000Y-49230000D02*
X96704000Y-49230000D01*
X102560000Y-49270000D02*
X96723000Y-49270000D01*
X102560000Y-49310000D02*
X96742000Y-49310000D01*
X102560000Y-49350000D02*
X96762000Y-49350000D01*
X102560000Y-49390000D02*
X96782000Y-49390000D01*
X102560000Y-49430000D02*
X96802000Y-49430000D01*
X102560000Y-49470000D02*
X96822000Y-49470000D01*
X102560000Y-49510000D02*
X96843000Y-49510000D01*
X102560000Y-49550000D02*
X96864000Y-49550000D01*
X102560000Y-49590000D02*
X96885000Y-49590000D01*
X102560000Y-49630000D02*
X96907000Y-49630000D01*
X102560000Y-49670000D02*
X96929000Y-49670000D01*
X102560000Y-49710000D02*
X96951000Y-49710000D01*
X102560000Y-49750000D02*
X96974000Y-49750000D01*
X102560000Y-49790000D02*
X96996000Y-49790000D01*
X102560000Y-49830000D02*
X97019000Y-49830000D01*
X102560000Y-49870000D02*
X97043000Y-49870000D01*
X102560000Y-49910000D02*
X97067000Y-49910000D01*
X102560000Y-49950000D02*
X97091000Y-49950000D01*
X102560000Y-49990000D02*
X97115000Y-49990000D01*
X102560000Y-50030000D02*
X97140000Y-50030000D01*
X102560000Y-50070000D02*
X97165000Y-50070000D01*
X102560000Y-50110000D02*
X97190000Y-50110000D01*
X102560000Y-50150000D02*
X97215000Y-50150000D01*
X102560000Y-50190000D02*
X97241000Y-50190000D01*
X102560000Y-50230000D02*
X97268000Y-50230000D01*
X102560000Y-50270000D02*
X97294000Y-50270000D01*
X102560000Y-50310000D02*
X97321000Y-50310000D01*
X102560000Y-50350000D02*
X97349000Y-50350000D01*
X102560000Y-50390000D02*
X97376000Y-50390000D01*
X102560000Y-50430000D02*
X97404000Y-50430000D01*
X102560000Y-50470000D02*
X97433000Y-50470000D01*
X102560000Y-50510000D02*
X97461000Y-50510000D01*
X102560000Y-50550000D02*
X97491000Y-50550000D01*
X102560000Y-50590000D02*
X97520000Y-50590000D01*
X102560000Y-50630000D02*
X97550000Y-50630000D01*
X102560000Y-50670000D02*
X97580000Y-50670000D01*
X102560000Y-50710000D02*
X97611000Y-50710000D01*
X102560000Y-50750000D02*
X97642000Y-50750000D01*
X102560000Y-50790000D02*
X97673000Y-50790000D01*
X102560000Y-50830000D02*
X97705000Y-50830000D01*
X102560000Y-50870000D02*
X97738000Y-50870000D01*
X102560000Y-50910000D02*
X97770000Y-50910000D01*
X104765000Y-53830000D02*
X103235000Y-53830000D01*
X105097000Y-53790000D02*
X102903000Y-53790000D01*
X105351000Y-53750000D02*
X102649000Y-53750000D01*
X105564000Y-53710000D02*
X102436000Y-53710000D01*
X105751000Y-53670000D02*
X102249000Y-53670000D01*
X105920000Y-53630000D02*
X102080000Y-53630000D01*
X106074000Y-53590000D02*
X101926000Y-53590000D01*
X106217000Y-53550000D02*
X101783000Y-53550000D01*
X106351000Y-53510000D02*
X101649000Y-53510000D01*
X106477000Y-53470000D02*
X101523000Y-53470000D01*
X106597000Y-53430000D02*
X101403000Y-53430000D01*
X106710000Y-53390000D02*
X101290000Y-53390000D01*
X106819000Y-53350000D02*
X101181000Y-53350000D01*
X106923000Y-53310000D02*
X101077000Y-53310000D01*
X107023000Y-53270000D02*
X100977000Y-53270000D01*
X107120000Y-53230000D02*
X100880000Y-53230000D01*
X107213000Y-53190000D02*
X100787000Y-53190000D01*
X107303000Y-53150000D02*
X100697000Y-53150000D01*
X107390000Y-53110000D02*
X100610000Y-53110000D01*
X107475000Y-53070000D02*
X100525000Y-53070000D01*
X107557000Y-53030000D02*
X100443000Y-53030000D01*
X107637000Y-52990000D02*
X100363000Y-52990000D01*
X107714000Y-52950000D02*
X100286000Y-52950000D01*
X107790000Y-52910000D02*
X100210000Y-52910000D01*
X107864000Y-52870000D02*
X100136000Y-52870000D01*
X107936000Y-52830000D02*
X100064000Y-52830000D01*
X108006000Y-52790000D02*
X99994000Y-52790000D01*
X108075000Y-52750000D02*
X99925000Y-52750000D01*
X108142000Y-52710000D02*
X99858000Y-52710000D01*
X108208000Y-52670000D02*
X99792000Y-52670000D01*
X108273000Y-52630000D02*
X99727000Y-52630000D01*
X108336000Y-52590000D02*
X99664000Y-52590000D01*
X108398000Y-52550000D02*
X99602000Y-52550000D01*
X108459000Y-52510000D02*
X99541000Y-52510000D01*
X108518000Y-52470000D02*
X99482000Y-52470000D01*
X108555000Y-37060509D02*
X108555000Y-38660509D01*
X108576000Y-52430000D02*
X99424000Y-52430000D01*
X108634000Y-52390000D02*
X99366000Y-52390000D01*
X108690000Y-52350000D02*
X99310000Y-52350000D01*
X108745000Y-52310000D02*
X99255000Y-52310000D01*
X108800000Y-52270000D02*
X99200000Y-52270000D01*
X108853000Y-52230000D02*
X99147000Y-52230000D01*
X108906000Y-52190000D02*
X99094000Y-52190000D01*
X108957000Y-52150000D02*
X99043000Y-52150000D01*
X109008000Y-52110000D02*
X98992000Y-52110000D01*
X109058000Y-52070000D02*
X98942000Y-52070000D01*
X109107000Y-52030000D02*
X98893000Y-52030000D01*
X109156000Y-51990000D02*
X98844000Y-51990000D01*
X109204000Y-51950000D02*
X98796000Y-51950000D01*
X109250000Y-51910000D02*
X98750000Y-51910000D01*
X109297000Y-51870000D02*
X98703000Y-51870000D01*
X109342000Y-51830000D02*
X98658000Y-51830000D01*
X109355000Y-37860509D02*
X107755000Y-37860509D01*
X109387000Y-51790000D02*
X98613000Y-51790000D01*
X109431000Y-51750000D02*
X98569000Y-51750000D01*
X109475000Y-51710000D02*
X98525000Y-51710000D01*
X109518000Y-51670000D02*
X98482000Y-51670000D01*
X109560000Y-51630000D02*
X98440000Y-51630000D01*
X109602000Y-51590000D02*
X98398000Y-51590000D01*
X109643000Y-51550000D02*
X98357000Y-51550000D01*
X109683000Y-51510000D02*
X98317000Y-51510000D01*
X109723000Y-51470000D02*
X98277000Y-51470000D01*
X109763000Y-51430000D02*
X98237000Y-51430000D01*
X109802000Y-51390000D02*
X98198000Y-51390000D01*
X109840000Y-51350000D02*
X98160000Y-51350000D01*
X109878000Y-51310000D02*
X98122000Y-51310000D01*
X109915000Y-51270000D02*
X98085000Y-51270000D01*
X109952000Y-51230000D02*
X98048000Y-51230000D01*
X109988000Y-51190000D02*
X98012000Y-51190000D01*
X110024000Y-51150000D02*
X97976000Y-51150000D01*
X110060000Y-51110000D02*
X97940000Y-51110000D01*
X110094000Y-51070000D02*
X97906000Y-51070000D01*
X110129000Y-51030000D02*
X97871000Y-51030000D01*
X110163000Y-50990000D02*
X97837000Y-50990000D01*
X110197000Y-50950000D02*
X97803000Y-50950000D01*
X110230000Y-50910000D02*
X105440000Y-50910000D01*
X110262000Y-50870000D02*
X105440000Y-50870000D01*
X110295000Y-50830000D02*
X105440000Y-50830000D01*
X110327000Y-50790000D02*
X105440000Y-50790000D01*
X110358000Y-50750000D02*
X105440000Y-50750000D01*
X110389000Y-50710000D02*
X105440000Y-50710000D01*
X110420000Y-50670000D02*
X105440000Y-50670000D01*
X110450000Y-50630000D02*
X105440000Y-50630000D01*
X110480000Y-50590000D02*
X105440000Y-50590000D01*
X110509000Y-50550000D02*
X105440000Y-50550000D01*
X110539000Y-50510000D02*
X105440000Y-50510000D01*
X110567000Y-50470000D02*
X105440000Y-50470000D01*
X110596000Y-50430000D02*
X105440000Y-50430000D01*
X110624000Y-50390000D02*
X105440000Y-50390000D01*
X110651000Y-50350000D02*
X105440000Y-50350000D01*
X110679000Y-50310000D02*
X105440000Y-50310000D01*
X110706000Y-50270000D02*
X105440000Y-50270000D01*
X110732000Y-50230000D02*
X105440000Y-50230000D01*
X110759000Y-50190000D02*
X105440000Y-50190000D01*
X110785000Y-50150000D02*
X105440000Y-50150000D01*
X110810000Y-50110000D02*
X105440000Y-50110000D01*
X110835000Y-50070000D02*
X105440000Y-50070000D01*
X110860000Y-50030000D02*
X105440000Y-50030000D01*
X110885000Y-49990000D02*
X105440000Y-49990000D01*
X110909000Y-49950000D02*
X105440000Y-49950000D01*
X110933000Y-49910000D02*
X105440000Y-49910000D01*
X110957000Y-49870000D02*
X105440000Y-49870000D01*
X110981000Y-49830000D02*
X105440000Y-49830000D01*
X111004000Y-49790000D02*
X105440000Y-49790000D01*
X111026000Y-49750000D02*
X105440000Y-49750000D01*
X111049000Y-49710000D02*
X105440000Y-49710000D01*
X111071000Y-49670000D02*
X105440000Y-49670000D01*
X111093000Y-49630000D02*
X105440000Y-49630000D01*
X111115000Y-49590000D02*
X105440000Y-49590000D01*
X111136000Y-49550000D02*
X105440000Y-49550000D01*
X111157000Y-49510000D02*
X105440000Y-49510000D01*
X111178000Y-49470000D02*
X105440000Y-49470000D01*
X111198000Y-49430000D02*
X105440000Y-49430000D01*
X111218000Y-49390000D02*
X105440000Y-49390000D01*
X111238000Y-49350000D02*
X105440000Y-49350000D01*
X111258000Y-49310000D02*
X105440000Y-49310000D01*
X111277000Y-49270000D02*
X105440000Y-49270000D01*
X111296000Y-49230000D02*
X105440000Y-49230000D01*
X111315000Y-49190000D02*
X105440000Y-49190000D01*
X111334000Y-49150000D02*
X105440000Y-49150000D01*
X111352000Y-49110000D02*
X105440000Y-49110000D01*
X111370000Y-49070000D02*
X105440000Y-49070000D01*
X111388000Y-49030000D02*
X105440000Y-49030000D01*
X111406000Y-48990000D02*
X105440000Y-48990000D01*
X111423000Y-48950000D02*
X105440000Y-48950000D01*
X111440000Y-48910000D02*
X105440000Y-48910000D01*
X111457000Y-48870000D02*
X105440000Y-48870000D01*
X111473000Y-48830000D02*
X105440000Y-48830000D01*
X111489000Y-48790000D02*
X105440000Y-48790000D01*
X111505000Y-48750000D02*
X105440000Y-48750000D01*
X111521000Y-48710000D02*
X105440000Y-48710000D01*
X111537000Y-48670000D02*
X105440000Y-48670000D01*
X111552000Y-48630000D02*
X105440000Y-48630000D01*
X111567000Y-48590000D02*
X105440000Y-48590000D01*
X111582000Y-48550000D02*
X105440000Y-48550000D01*
X111597000Y-48510000D02*
X105440000Y-48510000D01*
X111611000Y-48470000D02*
X105440000Y-48470000D01*
X111625000Y-48430000D02*
X105440000Y-48430000D01*
X111639000Y-48390000D02*
X105440000Y-48390000D01*
X111652000Y-48350000D02*
X105440000Y-48350000D01*
X111666000Y-48310000D02*
X105440000Y-48310000D01*
X111679000Y-48270000D02*
X105440000Y-48270000D01*
X111692000Y-48230000D02*
X105440000Y-48230000D01*
X111705000Y-48190000D02*
X105440000Y-48190000D01*
X111717000Y-48150000D02*
X105440000Y-48150000D01*
X111729000Y-48110000D02*
X105440000Y-48110000D01*
X111742000Y-48070000D02*
X105440000Y-48070000D01*
X111753000Y-48030000D02*
X96247000Y-48030000D01*
X111765000Y-47990000D02*
X96235000Y-47990000D01*
X111776000Y-47950000D02*
X96224000Y-47950000D01*
X111787000Y-47910000D02*
X96213000Y-47910000D01*
X111798000Y-47870000D02*
X96202000Y-47870000D01*
X111809000Y-47830000D02*
X96191000Y-47830000D01*
X111820000Y-47790000D02*
X96180000Y-47790000D01*
X111830000Y-47750000D02*
X96170000Y-47750000D01*
X111840000Y-47710000D02*
X96160000Y-47710000D01*
X111850000Y-47670000D02*
X96150000Y-47670000D01*
X111859000Y-47630000D02*
X96141000Y-47630000D01*
X111869000Y-47590000D02*
X96131000Y-47590000D01*
X111878000Y-47550000D02*
X96122000Y-47550000D01*
X111887000Y-47510000D02*
X96113000Y-47510000D01*
X111896000Y-47470000D02*
X96104000Y-47470000D01*
X111904000Y-47430000D02*
X96096000Y-47430000D01*
X111913000Y-47390000D02*
X96087000Y-47390000D01*
X111921000Y-47350000D02*
X96079000Y-47350000D01*
X111929000Y-47310000D02*
X96071000Y-47310000D01*
X111936000Y-47270000D02*
X96064000Y-47270000D01*
X111944000Y-47230000D02*
X96056000Y-47230000D01*
X111951000Y-47190000D02*
X96049000Y-47190000D01*
X111958000Y-47150000D02*
X96042000Y-47150000D01*
X111965000Y-47110000D02*
X96035000Y-47110000D01*
X111972000Y-47070000D02*
X96028000Y-47070000D01*
X111978000Y-47030000D02*
X96022000Y-47030000D01*
X111985000Y-46990000D02*
X96015000Y-46990000D01*
X111991000Y-46950000D02*
X96009000Y-46950000D01*
X111997000Y-46910000D02*
X96003000Y-46910000D01*
X112002000Y-46870000D02*
X95998000Y-46870000D01*
X112008000Y-46830000D02*
X95992000Y-46830000D01*
X112013000Y-46790000D02*
X95987000Y-46790000D01*
X112018000Y-46750000D02*
X95982000Y-46750000D01*
X112023000Y-46710000D02*
X95977000Y-46710000D01*
X112028000Y-46670000D02*
X95972000Y-46670000D01*
X112032000Y-46630000D02*
X95968000Y-46630000D01*
X112036000Y-46590000D02*
X95964000Y-46590000D01*
X112040000Y-46550000D02*
X95960000Y-46550000D01*
X112044000Y-46510000D02*
X95956000Y-46510000D01*
X112048000Y-46470000D02*
X95952000Y-46470000D01*
X112051000Y-46430000D02*
X95949000Y-46430000D01*
X112055000Y-46390000D02*
X95945000Y-46390000D01*
X112058000Y-46350000D02*
X95942000Y-46350000D01*
X112061000Y-46310000D02*
X95939000Y-46310000D01*
X112063000Y-46270000D02*
X95937000Y-46270000D01*
X112066000Y-46230000D02*
X95934000Y-46230000D01*
X112068000Y-46190000D02*
X95932000Y-46190000D01*
X112070000Y-46150000D02*
X95930000Y-46150000D01*
X112072000Y-46110000D02*
X95928000Y-46110000D01*
X112074000Y-46070000D02*
X95926000Y-46070000D01*
X112075000Y-46030000D02*
X95925000Y-46030000D01*
X112076000Y-45990000D02*
X95924000Y-45990000D01*
X112078000Y-45910000D02*
X95922000Y-45910000D01*
X112078000Y-45950000D02*
X95922000Y-45950000D01*
X112079000Y-45870000D02*
X95921000Y-45870000D01*
X112080000Y-45750000D02*
X95920000Y-45750000D01*
X112080000Y-45790000D02*
X95920000Y-45790000D01*
X112080000Y-45830000D02*
X95920000Y-45830000D01*
X112120000Y-45750000D02*
G75*
G02*
X95880000Y-45750000I-8120000J0D01*
G01*
X95880000Y-45750000D02*
G75*
G02*
X112120000Y-45750000I8120000J0D01*
G01*
%TO.C,C7*%
X91130000Y-39880000D02*
X91467000Y-39880000D01*
X91130000Y-45120000D02*
X91130000Y-39880000D01*
X91467000Y-45120000D02*
X91130000Y-45120000D01*
X93533000Y-39880000D02*
X93870000Y-39880000D01*
X93870000Y-39880000D02*
X93870000Y-45120000D01*
X93870000Y-45120000D02*
X93533000Y-45120000D01*
%TD*%
M02*
