M48
; DRILL file KiCad 10.0.6 date 2026-09-28T09:24:34
; FORMAT={-:-/ absolute / metric / decimal}
; #@! TF.CreationDate,2026-09-28T09:24:34+02:00
; #@! TF.GenerationSoftware,Kicad,Pcbnew,10.0.6
; #@! TF.FileFunction,MixedPlating,1,2
FMAT,2
METRIC
; #@! TA.AperFunction,Plated,PTH,ComponentDrill
T1C0.800
; #@! TA.AperFunction,Plated,PTH,ComponentDrill
T2C1.000
; #@! TA.AperFunction,Plated,PTH,ComponentDrill
T3C1.100
; #@! TA.AperFunction,Plated,PTH,ComponentDrill
T4C1.200
; #@! TA.AperFunction,Plated,PTH,ComponentDrill
T5C1.300
; #@! TA.AperFunction,Plated,PTH,ComponentDrill
T6C2.000
%
G90
G05
T1
X30.0Y-60.0
X30.0Y-65.0
X40.84Y-127.08
X49.34Y-87.75
X50.0Y-101.0
X51.0Y-127.08
X52.0Y-104.38
X53.0Y-81.5
X53.0Y-133.5
X55.0Y-101.0
X55.0Y-108.0
X55.0Y-118.16
X55.0Y-122.0
X55.0Y-124.54
X55.0Y-127.08
X55.5Y-81.5
X57.0Y-104.38
X58.0Y-133.5
X59.5Y-87.75
X60.0Y-68.34
X60.0Y-78.5
X60.0Y-104.38
X60.0Y-112.0
X62.54Y-104.38
X62.54Y-112.0
X64.3Y-117.84
X64.3Y-128.0
X65.08Y-104.38
X65.08Y-112.0
X67.62Y-104.38
X67.62Y-112.0
X67.62Y-116.0
X67.62Y-126.16
X68.0Y-36.0
X68.0Y-68.34
X68.0Y-78.5
X70.16Y-104.38
X70.16Y-112.0
X70.5Y-123.0
X72.7Y-104.38
X72.7Y-112.0
X75.24Y-104.38
X75.24Y-112.0
X75.5Y-123.0
X77.78Y-104.38
X77.78Y-112.0
X78.16Y-36.0
X79.24Y-87.0
X79.24Y-97.16
X80.0Y-120.0
X80.0Y-130.16
X82.5Y-90.0
X82.5Y-100.16
X85.0Y-117.0
X85.0Y-122.0
X86.0Y-95.16
X86.0Y-100.16
X90.0Y-98.0
X90.0Y-104.38
X90.38Y-87.0
X92.5Y-40.0
X92.5Y-45.0
X95.0Y-98.0
X95.0Y-104.38
X98.0Y-87.0
X98.0Y-94.22
X98.0Y-104.38
X98.0Y-112.0
X98.0Y-122.16
X101.0Y-108.0
X101.84Y-114.0
X106.0Y-108.0
X109.84Y-108.0
X112.0Y-114.0
X120.0Y-108.0
X158.0Y-72.0
X158.0Y-82.16
X158.0Y-86.92
X158.0Y-92.0
T2
X62.92Y-84.0
X62.92Y-90.0
X65.46Y-84.0
X65.46Y-90.0
X68.0Y-84.0
X68.0Y-90.0
T3
X68.0Y-30.0
X70.54Y-30.0
X73.08Y-30.0
X80.0Y-30.0
X85.08Y-30.0
T4
X39.0Y-45.0
X39.0Y-52.5
X47.0Y-63.0
X47.0Y-70.5
X76.0Y-40.0
X76.0Y-67.94
X86.0Y-40.0
X86.0Y-67.94
X104.0Y-42.0
X104.0Y-49.5
X121.5Y-42.0
X121.5Y-49.5
X139.0Y-42.0
X139.0Y-49.5
T5
X25.0Y-46.0
X25.0Y-51.0
X153.0Y-42.0
X153.0Y-47.0
X162.0Y-36.0
X162.0Y-51.24
T6
X32.0Y-30.0
X60.2Y-30.0
M30
