%TF.GenerationSoftware,KiCad,Pcbnew,10.0.4*%
%TF.CreationDate,2026-08-14T17:36:54+02:00*%
%TF.ProjectId,subxo,73756278-6f2e-46b6-9963-61645f706362,rev?*%
%TF.SameCoordinates,Original*%
%TF.FileFunction,Copper,L2,Bot*%
%TF.FilePolarity,Positive*%
%FSLAX46Y46*%
G04 Gerber Fmt 4.6, Leading zero omitted, Abs format (unit mm)*
G04 Created by KiCad (PCBNEW 10.0.4) date 2026-08-14 17:36:54*
%MOMM*%
%LPD*%
G01*
G04 APERTURE LIST*
G04 Aperture macros list*
%AMRoundRect*
0 Rectangle with rounded corners*
0 $1 Rounding radius*
0 $2 $3 $4 $5 $6 $7 $8 $9 X,Y pos of 4 corners*
0 Add a 4 corners polygon primitive as box body*
4,1,4,$2,$3,$4,$5,$6,$7,$8,$9,$2,$3,0*
0 Add four circle primitives for the rounded corners*
1,1,$1+$1,$2,$3*
1,1,$1+$1,$4,$5*
1,1,$1+$1,$6,$7*
1,1,$1+$1,$8,$9*
0 Add four rect primitives between the rounded corners*
20,1,$1+$1,$2,$3,$4,$5,0*
20,1,$1+$1,$4,$5,$6,$7,0*
20,1,$1+$1,$6,$7,$8,$9,0*
20,1,$1+$1,$8,$9,$2,$3,0*%
G04 Aperture macros list end*
%TA.AperFunction,ComponentPad*%
%ADD10C,1.600000*%
%TD*%
%TA.AperFunction,ComponentPad*%
%ADD11C,2.000000*%
%TD*%
%TA.AperFunction,ComponentPad*%
%ADD12RoundRect,0.250000X0.750000X0.750000X-0.750000X0.750000X-0.750000X-0.750000X0.750000X-0.750000X0*%
%TD*%
%TA.AperFunction,ComponentPad*%
%ADD13RoundRect,0.250000X-0.550000X-0.550000X0.550000X-0.550000X0.550000X0.550000X-0.550000X0.550000X0*%
%TD*%
%TA.AperFunction,ComponentPad*%
%ADD14RoundRect,0.250000X0.750000X-0.750000X0.750000X0.750000X-0.750000X0.750000X-0.750000X-0.750000X0*%
%TD*%
%TA.AperFunction,ComponentPad*%
%ADD15R,1.700000X1.700000*%
%TD*%
%TA.AperFunction,ComponentPad*%
%ADD16C,1.700000*%
%TD*%
%TA.AperFunction,ComponentPad*%
%ADD17R,3.000000X3.000000*%
%TD*%
%TA.AperFunction,ComponentPad*%
%ADD18C,3.000000*%
%TD*%
%TA.AperFunction,ComponentPad*%
%ADD19C,2.400000*%
%TD*%
%TA.AperFunction,ComponentPad*%
%ADD20RoundRect,0.250000X0.550000X-0.950000X0.550000X0.950000X-0.550000X0.950000X-0.550000X-0.950000X0*%
%TD*%
%TA.AperFunction,ComponentPad*%
%ADD21O,1.600000X2.400000*%
%TD*%
%TA.AperFunction,ComponentPad*%
%ADD22R,1.700000X2.000000*%
%TD*%
%TA.AperFunction,ComponentPad*%
%ADD23O,1.700000X2.000000*%
%TD*%
%TA.AperFunction,Conductor*%
%ADD24C,1.000000*%
%TD*%
G04 APERTURE END LIST*
D10*
%TO.P,C2_1,2*%
%TO.N,/C2A_SEL*%
X95600000Y-90800000D03*
%TO.P,C2_1,1*%
%TO.N,/N2*%
X95600000Y-85800000D03*
%TD*%
%TO.P,C2_3,2*%
%TO.N,/C2C_SEL*%
X95600000Y-107200000D03*
%TO.P,C2_3,1*%
%TO.N,/N2*%
X95600000Y-102200000D03*
%TD*%
D11*
%TO.P,C15,2*%
%TO.N,/GND*%
X134800000Y-80000000D03*
D12*
%TO.P,C15,1*%
%TO.N,/VG_DIV*%
X139800000Y-80000000D03*
%TD*%
D10*
%TO.P,C_out1,2*%
%TO.N,/POT_TOP*%
X153247349Y-127800000D03*
D13*
%TO.P,C_out1,1*%
%TO.N,/SW_COM*%
X149747349Y-127800000D03*
%TD*%
D11*
%TO.P,C10,2*%
%TO.N,/GND*%
X151400000Y-115367677D03*
D14*
%TO.P,C10,1*%
%TO.N,/VIN*%
X151400000Y-120367677D03*
%TD*%
D10*
%TO.P,R3,2*%
%TO.N,/INV_IN*%
X134110000Y-99700000D03*
%TO.P,R3,1*%
%TO.N,/OUT1*%
X126490000Y-99700000D03*
%TD*%
D14*
%TO.P,C11,1*%
%TO.N,/V12*%
X139200000Y-109767677D03*
D11*
%TO.P,C11,2*%
%TO.N,/GND*%
X139200000Y-104767677D03*
%TD*%
D10*
%TO.P,C14,1*%
%TO.N,/V12*%
X153200000Y-99090000D03*
%TO.P,C14,2*%
%TO.N,/GND*%
X153200000Y-94090000D03*
%TD*%
%TO.P,R7,1*%
%TO.N,/GND*%
X148800000Y-64800000D03*
%TO.P,R7,2*%
%TO.N,/OUT_GND*%
X141180000Y-64800000D03*
%TD*%
D15*
%TO.P,JP3,1,Pin_1_1*%
%TO.N,/GND*%
X146175000Y-59800000D03*
D16*
%TO.P,JP3,2,Pin_2_2*%
%TO.N,/OUT_GND*%
X143635000Y-59800000D03*
%TD*%
D17*
%TO.P,J1,1,Pin_1_1*%
%TO.N,/IN_L*%
X109460000Y-46920000D03*
D18*
%TO.P,J1,2,Pin_2_2*%
%TO.N,/GND*%
X104380000Y-46920000D03*
%TD*%
D17*
%TO.P,J3,1,Pin_1_1*%
%TO.N,/OUT_TIP*%
X141300000Y-46920000D03*
D18*
%TO.P,J3,2,Pin_2_2*%
%TO.N,/OUT_RING*%
X146380000Y-46920000D03*
%TO.P,J3,3,Pin_3_3*%
%TO.N,/OUT_GND*%
X151460000Y-46920000D03*
%TD*%
D10*
%TO.P,R9,1*%
%TO.N,/VG_DIV*%
X161800000Y-92500000D03*
%TO.P,R9,2*%
%TO.N,/GND*%
X161800000Y-100120000D03*
%TD*%
%TO.P,C12,1*%
%TO.N,/V12*%
X149600000Y-99090000D03*
%TO.P,C12,2*%
%TO.N,/GND*%
X149600000Y-94090000D03*
%TD*%
D17*
%TO.P,J6,1,Pin_1_1*%
%TO.N,/POT_TOP*%
X165876464Y-128000000D03*
D18*
%TO.P,J6,2,Pin_2_2*%
%TO.N,/POT_W*%
X170956464Y-128000000D03*
%TO.P,J6,3,Pin_3_3*%
%TO.N,/GND*%
X176036464Y-128000000D03*
%TD*%
D17*
%TO.P,J5,1,Pin_1_1*%
%TO.N,/OUT1*%
X127760000Y-128000000D03*
D18*
%TO.P,J5,2,Pin_2_2*%
%TO.N,/OUT2*%
X132840000Y-128000000D03*
%TO.P,J5,3,Pin_3_3*%
%TO.N,/SW_COM*%
X137920000Y-128000000D03*
%TD*%
D10*
%TO.P,R8,1*%
%TO.N,/V12*%
X158200000Y-100200000D03*
%TO.P,R8,2*%
%TO.N,/VG_DIV*%
X158200000Y-92580000D03*
%TD*%
D17*
%TO.P,J2,1,Pin_1_1*%
%TO.N,/IN_R*%
X122460000Y-46920000D03*
D18*
%TO.P,J2,2,Pin_2_2*%
%TO.N,/GND*%
X117380000Y-46920000D03*
%TD*%
D10*
%TO.P,R6,1*%
%TO.N,/POT_W*%
X148800000Y-68900000D03*
%TO.P,R6,2*%
%TO.N,/OUT_RING*%
X141180000Y-68900000D03*
%TD*%
D11*
%TO.P,C1_1,1*%
%TO.N,/OUT1*%
X113400000Y-130545000D03*
%TO.P,C1_1,2*%
%TO.N,/C1A_SEL*%
X113400000Y-123045000D03*
%TD*%
D10*
%TO.P,R1_2,1*%
%TO.N,/A_R*%
X125100000Y-70810000D03*
%TO.P,R1_2,2*%
%TO.N,/N1*%
X125100000Y-63190000D03*
%TD*%
%TO.P,C13,1*%
%TO.N,/V12*%
X147600000Y-109800000D03*
%TO.P,C13,2*%
%TO.N,/GND*%
X152600000Y-109800000D03*
%TD*%
%TO.P,R2,1*%
%TO.N,/N1*%
X114800000Y-95810000D03*
%TO.P,R2,2*%
%TO.N,/N2*%
X114800000Y-88190000D03*
%TD*%
%TO.P,C2_2,1*%
%TO.N,/N2*%
X95600000Y-93900000D03*
%TO.P,C2_2,2*%
%TO.N,/C2B_SEL*%
X95600000Y-98900000D03*
%TD*%
%TO.P,R_b1,1*%
%TO.N,/A_L*%
X112500000Y-70810000D03*
%TO.P,R_b1,2*%
%TO.N,/VGND*%
X112500000Y-63190000D03*
%TD*%
%TO.P,R1_1,1*%
%TO.N,/A_L*%
X117000000Y-70810000D03*
%TO.P,R1_1,2*%
%TO.N,/N1*%
X117000000Y-63190000D03*
%TD*%
D19*
%TO.P,C_in1,1*%
%TO.N,/IN_L*%
X103500000Y-54300000D03*
%TO.P,C_in1,2*%
%TO.N,/A_L*%
X103500000Y-69300000D03*
%TD*%
D11*
%TO.P,C1_2,1*%
%TO.N,/OUT1*%
X131245000Y-105000000D03*
%TO.P,C1_2,2*%
%TO.N,/C1B_SEL*%
X123745000Y-105000000D03*
%TD*%
D15*
%TO.P,JP1,1,Pin_1_1*%
%TO.N,/C1A_SEL*%
X115150000Y-114500000D03*
D16*
%TO.P,JP1,2,Pin_2_2*%
%TO.N,/N1*%
X117690000Y-114500000D03*
%TO.P,JP1,3,Pin_3_3*%
%TO.N,/C1B_SEL*%
X120230000Y-114500000D03*
%TO.P,JP1,4,Pin_4_4*%
%TO.N,/N1*%
X122770000Y-114500000D03*
%TO.P,JP1,5,Pin_5_5*%
%TO.N,/C1C_SEL*%
X125310000Y-114500000D03*
%TO.P,JP1,6,Pin_6_6*%
%TO.N,/N1*%
X127850000Y-114500000D03*
%TD*%
D10*
%TO.P,R4,2*%
%TO.N,/OUT2*%
X141800000Y-88090000D03*
%TO.P,R4,1*%
%TO.N,/INV_IN*%
X141800000Y-95710000D03*
%TD*%
D20*
%TO.P,U1,1*%
%TO.N,/OUT1*%
X121380000Y-95810000D03*
D21*
%TO.P,U1,2,-_2*%
X123920000Y-95810000D03*
%TO.P,U1,3,+_3*%
%TO.N,/N2*%
X126460000Y-95810000D03*
%TO.P,U1,4,V+_4*%
%TO.N,/V12*%
X129000000Y-95810000D03*
%TO.P,U1,5,+_5*%
%TO.N,/VGND*%
X131540000Y-95810000D03*
%TO.P,U1,6,-_6*%
%TO.N,/INV_IN*%
X134080000Y-95810000D03*
%TO.P,U1,7*%
%TO.N,/OUT2*%
X136620000Y-95810000D03*
%TO.P,U1,8*%
%TO.N,/VGND*%
X136620000Y-88190000D03*
%TO.P,U1,9,-_9*%
X134080000Y-88190000D03*
%TO.P,U1,10,+_10*%
%TO.N,/VG_DIV*%
X131540000Y-88190000D03*
%TO.P,U1,11,V-_11*%
%TO.N,/GND*%
X129000000Y-88190000D03*
%TO.P,U1,12,+_12*%
%TO.N,/VGND*%
X126460000Y-88190000D03*
%TO.P,U1,13,-_13*%
%TO.N,/SPARE_OUT*%
X123920000Y-88190000D03*
%TO.P,U1,14*%
X121380000Y-88190000D03*
%TD*%
D10*
%TO.P,R_b2,1*%
%TO.N,/A_R*%
X121200000Y-63200000D03*
%TO.P,R_b2,2*%
%TO.N,/VGND*%
X121200000Y-70820000D03*
%TD*%
D18*
%TO.P,J4,2,Pin_2_2*%
%TO.N,/GND*%
X165320000Y-46900000D03*
D17*
%TO.P,J4,1,Pin_1_1*%
%TO.N,/VIN*%
X170400000Y-46900000D03*
%TD*%
D10*
%TO.P,R5,1*%
%TO.N,/POT_W*%
X148800000Y-73000000D03*
%TO.P,R5,2*%
%TO.N,/OUT_TIP*%
X141180000Y-73000000D03*
%TD*%
D15*
%TO.P,JP2,1,Pin_1_1*%
%TO.N,/C2A_SEL*%
X105000000Y-93150000D03*
D16*
%TO.P,JP2,2,Pin_2_2*%
%TO.N,/VGND*%
X105000000Y-95690000D03*
%TO.P,JP2,3,Pin_3_3*%
%TO.N,/C2B_SEL*%
X105000000Y-98230000D03*
%TO.P,JP2,4,Pin_4_4*%
%TO.N,/VGND*%
X105000000Y-100770000D03*
%TO.P,JP2,5,Pin_5_5*%
%TO.N,/C2C_SEL*%
X105000000Y-103310000D03*
%TO.P,JP2,6,Pin_6_6*%
%TO.N,/VGND*%
X105000000Y-105850000D03*
%TD*%
D22*
%TO.P,U2,1,VI_1*%
%TO.N,/VIN*%
X142240000Y-117950000D03*
D23*
%TO.P,U2,2,GND_2*%
%TO.N,/GND*%
X139700000Y-117950000D03*
%TO.P,U2,3,VO_3*%
%TO.N,/V12*%
X137160000Y-117950000D03*
%TD*%
D11*
%TO.P,C1_3,1*%
%TO.N,/OUT1*%
X119800000Y-130545000D03*
%TO.P,C1_3,2*%
%TO.N,/C1C_SEL*%
X119800000Y-123045000D03*
%TD*%
D19*
%TO.P,C_in2,1*%
%TO.N,/IN_R*%
X132500000Y-54000000D03*
%TO.P,C_in2,2*%
%TO.N,/A_R*%
X132500000Y-69000000D03*
%TD*%
%TO.N,/N1*%
D24*
X106600000Y-59000000D02*
X114500000Y-59000000D01*
X87700000Y-107300000D02*
X87700000Y-77900000D01*
X87700000Y-77900000D02*
X106600000Y-59000000D01*
X91400000Y-111000000D02*
X87700000Y-107300000D01*
X117700000Y-111000000D02*
X91400000Y-111000000D01*
%TO.N,/OUT2*%
X132840000Y-125160000D02*
X132840000Y-128000000D01*
X132850000Y-125150000D02*
X132840000Y-125160000D01*
X153650000Y-125150000D02*
X132850000Y-125150000D01*
X171900000Y-106900000D02*
X153650000Y-125150000D01*
X171900000Y-55200000D02*
X171900000Y-106900000D01*
X174300000Y-52800000D02*
X171900000Y-55200000D01*
X174300000Y-44400000D02*
X174300000Y-52800000D01*
X172750000Y-42850000D02*
X174300000Y-44400000D01*
X161950000Y-42850000D02*
X172750000Y-42850000D01*
X160500000Y-44300000D02*
X161950000Y-42850000D01*
X160500000Y-52400000D02*
X160500000Y-44300000D01*
X164300000Y-56200000D02*
X160500000Y-52400000D01*
X162500000Y-96900000D02*
X164300000Y-95100000D01*
X155700000Y-93000000D02*
X155700000Y-95000000D01*
X150790000Y-88090000D02*
X155700000Y-93000000D01*
X157600000Y-96900000D02*
X162500000Y-96900000D01*
X164300000Y-95100000D02*
X164300000Y-56200000D01*
X141800000Y-88090000D02*
X150790000Y-88090000D01*
X155700000Y-95000000D02*
X157600000Y-96900000D01*
%TO.N,/INV_IN*%
X137810000Y-99700000D02*
X141800000Y-95710000D01*
X134110000Y-99700000D02*
X137810000Y-99700000D01*
X134080000Y-99670000D02*
X134110000Y-99700000D01*
X134080000Y-95810000D02*
X134080000Y-99670000D01*
%TO.N,/OUT1*%
X123920000Y-97130000D02*
X123920000Y-95810000D01*
X126490000Y-99700000D02*
X123920000Y-97130000D01*
X131245000Y-104455000D02*
X126490000Y-99700000D01*
X131245000Y-105000000D02*
X131245000Y-104455000D01*
%TO.N,/OUT2*%
X136620000Y-93270000D02*
X141800000Y-88090000D01*
X136620000Y-95810000D02*
X136620000Y-93270000D01*
%TO.N,/VGND*%
X134080000Y-90920000D02*
X134080000Y-88190000D01*
X133369441Y-91630559D02*
X134080000Y-90920000D01*
X131540000Y-91630559D02*
X133369441Y-91630559D01*
X131540000Y-95810000D02*
X131540000Y-91630559D01*
X92000000Y-104900000D02*
X102000000Y-104900000D01*
X102000000Y-104900000D02*
X102000000Y-105850000D01*
%TO.N,/N2*%
X95600000Y-93900000D02*
X93450000Y-93900000D01*
X93450000Y-93900000D02*
X93450000Y-100050000D01*
X93450000Y-100050000D02*
X95600000Y-102200000D01*
X93450000Y-87950000D02*
X93450000Y-93900000D01*
X95600000Y-85800000D02*
X93450000Y-87950000D01*
%TO.N,/C1A_SEL*%
X113400000Y-116250000D02*
X113400000Y-123045000D01*
X115150000Y-114500000D02*
X113400000Y-116250000D01*
%TO.N,/C1B_SEL*%
X126300000Y-105000000D02*
X123745000Y-105000000D01*
X131000000Y-109700000D02*
X126300000Y-105000000D01*
X117000000Y-118932081D02*
X117000000Y-125600000D01*
X120230000Y-115702081D02*
X117000000Y-118932081D01*
X117000000Y-125600000D02*
X118200000Y-126800000D01*
X131000000Y-117500000D02*
X131000000Y-109700000D01*
X120230000Y-114500000D02*
X120230000Y-115702081D01*
X118200000Y-126800000D02*
X121700000Y-126800000D01*
X121700000Y-126800000D02*
X131000000Y-117500000D01*
%TO.N,/N1*%
X117000000Y-61500000D02*
X114500000Y-59000000D01*
X117000000Y-63190000D02*
X117000000Y-61500000D01*
X114500000Y-59000000D02*
X120910000Y-59000000D01*
X120910000Y-59000000D02*
X125100000Y-63190000D01*
%TO.N,/VG_DIV*%
X136900000Y-82900000D02*
X139800000Y-80000000D01*
X131540000Y-85860000D02*
X134500000Y-82900000D01*
X134500000Y-82900000D02*
X136900000Y-82900000D01*
X131540000Y-88190000D02*
X131540000Y-85860000D01*
%TO.N,/N1*%
X114800000Y-108100000D02*
X117700000Y-111000000D01*
X114800000Y-95810000D02*
X114800000Y-108100000D01*
X127850000Y-112466296D02*
X126383704Y-111000000D01*
X126383704Y-111000000D02*
X123000000Y-111000000D01*
X127850000Y-114500000D02*
X127850000Y-112466296D01*
X117690000Y-111010000D02*
X117700000Y-111000000D01*
X117690000Y-114500000D02*
X117690000Y-111010000D01*
X123000000Y-111000000D02*
X117700000Y-111000000D01*
%TO.N,/VGND*%
X113870000Y-78150000D02*
X97850000Y-78150000D01*
X121200000Y-70820000D02*
X113870000Y-78150000D01*
%TO.N,/V12*%
X139200000Y-108200000D02*
X139200000Y-109767677D01*
X129000000Y-98000000D02*
X139200000Y-108200000D01*
X129000000Y-95810000D02*
X129000000Y-98000000D01*
%TO.N,/N2*%
X126460000Y-94410000D02*
X126460000Y-95810000D01*
X125310000Y-93260000D02*
X126460000Y-94410000D01*
X119870000Y-93260000D02*
X125310000Y-93260000D01*
X114800000Y-88190000D02*
X119870000Y-93260000D01*
%TO.N,/C2C_SEL*%
X106202081Y-103310000D02*
X105000000Y-103310000D01*
X107200000Y-106761270D02*
X107200000Y-104307919D01*
X105911270Y-108050000D02*
X107200000Y-106761270D01*
X95600000Y-107200000D02*
X96450000Y-108050000D01*
X96450000Y-108050000D02*
X105911270Y-108050000D01*
X107200000Y-104307919D02*
X106202081Y-103310000D01*
%TO.N,/N2*%
X112410000Y-85800000D02*
X114800000Y-88190000D01*
X95600000Y-85800000D02*
X112410000Y-85800000D01*
%TO.N,/C2A_SEL*%
X102650000Y-90800000D02*
X105000000Y-93150000D01*
X95600000Y-90800000D02*
X102650000Y-90800000D01*
%TO.N,/C2B_SEL*%
X96270000Y-98230000D02*
X105000000Y-98230000D01*
X95600000Y-98900000D02*
X96270000Y-98230000D01*
%TO.N,/VGND*%
X90850000Y-103750000D02*
X92000000Y-104900000D01*
X90850000Y-85150000D02*
X90850000Y-103750000D01*
X97850000Y-78150000D02*
X90850000Y-85150000D01*
X126460000Y-76080000D02*
X126460000Y-88190000D01*
X121200000Y-70820000D02*
X126460000Y-76080000D01*
X121200000Y-69033705D02*
X121200000Y-70820000D01*
X118316296Y-66150000D02*
X121200000Y-69033705D01*
%TO.N,/A_R*%
X121200000Y-63800000D02*
X125100000Y-67700000D01*
X125100000Y-67700000D02*
X125100000Y-70810000D01*
X121200000Y-63200000D02*
X121200000Y-63800000D01*
%TO.N,/POT_W*%
X174600000Y-41000000D02*
X176400000Y-42800000D01*
X176400000Y-42800000D02*
X176400000Y-122556464D01*
X156000000Y-43900000D02*
X158900000Y-41000000D01*
X158900000Y-41000000D02*
X174600000Y-41000000D01*
X176400000Y-122556464D02*
X170956464Y-128000000D01*
X148800000Y-68900000D02*
X156000000Y-61700000D01*
X156000000Y-61700000D02*
X156000000Y-43900000D01*
X148800000Y-68900000D02*
X148800000Y-73000000D01*
%TO.N,/OUT_GND*%
X141180000Y-62255000D02*
X143635000Y-59800000D01*
X141180000Y-64800000D02*
X141180000Y-62255000D01*
X143635000Y-54745000D02*
X143635000Y-59800000D01*
X151460000Y-46920000D02*
X143635000Y-54745000D01*
%TO.N,/OUT_RING*%
X139030000Y-66750000D02*
X141180000Y-68900000D01*
X139030000Y-54270000D02*
X139030000Y-66750000D01*
X146380000Y-46920000D02*
X139030000Y-54270000D01*
%TO.N,/OUT_TIP*%
X138700000Y-73000000D02*
X141180000Y-73000000D01*
X136400000Y-70700000D02*
X138700000Y-73000000D01*
X141300000Y-46920000D02*
X136400000Y-51820000D01*
X136400000Y-51820000D02*
X136400000Y-70700000D01*
%TO.N,/VGND*%
X115460000Y-66150000D02*
X118316296Y-66150000D01*
X112500000Y-63190000D02*
X115460000Y-66150000D01*
%TO.N,/A_R*%
X130690000Y-70810000D02*
X132500000Y-69000000D01*
X125100000Y-70810000D02*
X130690000Y-70810000D01*
%TO.N,/VG_DIV*%
X161720000Y-92580000D02*
X161800000Y-92500000D01*
X158200000Y-92580000D02*
X161720000Y-92580000D01*
%TO.N,/IN_L*%
X103500000Y-52880000D02*
X109460000Y-46920000D01*
X103500000Y-54300000D02*
X103500000Y-52880000D01*
%TO.N,/A_L*%
X105010000Y-70810000D02*
X103500000Y-69300000D01*
X112500000Y-70810000D02*
X105010000Y-70810000D01*
%TO.N,/IN_R*%
X129120000Y-46920000D02*
X122460000Y-46920000D01*
X132500000Y-50300000D02*
X129120000Y-46920000D01*
%TO.N,/VIN*%
X167500000Y-49800000D02*
X170400000Y-46900000D01*
X167500000Y-104467677D02*
X167500000Y-49800000D01*
X151600000Y-120367677D02*
X167500000Y-104467677D01*
X149182323Y-117950000D02*
X151600000Y-120367677D01*
X142240000Y-117950000D02*
X149182323Y-117950000D01*
%TO.N,/VG_DIV*%
X158200000Y-88900000D02*
X158200000Y-92580000D01*
X149300000Y-80000000D02*
X158200000Y-88900000D01*
X139800000Y-80000000D02*
X149300000Y-80000000D01*
%TO.N,/V12*%
X150000000Y-99490000D02*
X149600000Y-99090000D01*
X150000000Y-105600000D02*
X150000000Y-99490000D01*
X147600000Y-109800000D02*
X147600000Y-108000000D01*
X147600000Y-108000000D02*
X150000000Y-105600000D01*
%TO.N,/POT_TOP*%
X165676464Y-127800000D02*
X165876464Y-128000000D01*
X153247349Y-127800000D02*
X165676464Y-127800000D01*
%TO.N,/SW_COM*%
X138120000Y-127800000D02*
X137920000Y-128000000D01*
X149747349Y-127800000D02*
X138120000Y-127800000D01*
%TO.N,/V12*%
X149600000Y-99090000D02*
X153200000Y-99090000D01*
X158200000Y-100200000D02*
X154310000Y-100200000D01*
X154310000Y-100200000D02*
X153200000Y-99090000D01*
X139232323Y-109800000D02*
X139200000Y-109767677D01*
X147600000Y-109800000D02*
X139232323Y-109800000D01*
X137160000Y-111807677D02*
X139200000Y-109767677D01*
X137160000Y-117950000D02*
X137160000Y-111807677D01*
%TO.N,/C1C_SEL*%
X125310000Y-117535000D02*
X119800000Y-123045000D01*
X125310000Y-114500000D02*
X125310000Y-117535000D01*
%TO.N,/OUT1*%
X125215000Y-130545000D02*
X127760000Y-128000000D01*
X119800000Y-130545000D02*
X125215000Y-130545000D01*
X113400000Y-130545000D02*
X119800000Y-130545000D01*
X127760000Y-128000000D02*
X127760000Y-125203227D01*
X132850000Y-120113227D02*
X132850000Y-106605000D01*
X127760000Y-125203227D02*
X132850000Y-120113227D01*
X121380000Y-95810000D02*
X123920000Y-95810000D01*
X132850000Y-106605000D02*
X131245000Y-105000000D01*
%TO.N,/N1*%
X122770000Y-114500000D02*
X122770000Y-111230000D01*
X122770000Y-111230000D02*
X123000000Y-111000000D01*
%TO.N,/A_L*%
X117000000Y-70810000D02*
X112500000Y-70810000D01*
%TO.N,/VGND*%
X105000000Y-100770000D02*
X106202081Y-100770000D01*
X106202081Y-100770000D02*
X108000000Y-98972081D01*
X108000000Y-98972081D02*
X108000000Y-97000000D01*
X102000000Y-101000000D02*
X102230000Y-100770000D01*
X105000000Y-105850000D02*
X102000000Y-105850000D01*
X102230000Y-100770000D02*
X105000000Y-100770000D01*
X102000000Y-101000000D02*
X102000000Y-104900000D01*
X134080000Y-88190000D02*
X136620000Y-88190000D01*
X106690000Y-95690000D02*
X105000000Y-95690000D01*
X108000000Y-97000000D02*
X106690000Y-95690000D01*
%TO.N,/SPARE_OUT*%
X121380000Y-88190000D02*
X123920000Y-88190000D01*
%TO.N,/IN_R*%
X132500000Y-50300000D02*
X132500000Y-54000000D01*
%TO.N,/VGND*%
X128500559Y-91630559D02*
X131540000Y-91630559D01*
X126460000Y-89590000D02*
X128500559Y-91630559D01*
X126460000Y-88190000D02*
X126460000Y-89590000D01*
%TD*%
%TA.AperFunction,Conductor*%
%TO.N,/GND*%
G36*
X177703032Y-37400648D02*
G01*
X178036929Y-37417052D01*
X178049037Y-37418245D01*
X178152146Y-37433539D01*
X178376699Y-37466849D01*
X178388617Y-37469219D01*
X178709951Y-37549709D01*
X178721588Y-37553240D01*
X178792806Y-37578722D01*
X179033467Y-37664832D01*
X179044688Y-37669479D01*
X179344163Y-37811120D01*
X179354871Y-37816844D01*
X179638988Y-37987137D01*
X179649106Y-37993897D01*
X179915170Y-38191224D01*
X179924576Y-38198944D01*
X180170013Y-38421395D01*
X180178604Y-38429986D01*
X180365755Y-38636475D01*
X180401055Y-38675423D01*
X180408775Y-38684829D01*
X180606102Y-38950893D01*
X180612862Y-38961011D01*
X180741776Y-39176092D01*
X180783148Y-39245116D01*
X180788885Y-39255848D01*
X180930514Y-39555297D01*
X180935170Y-39566540D01*
X181046759Y-39878411D01*
X181050292Y-39890055D01*
X181130777Y-40211369D01*
X181133151Y-40223305D01*
X181181754Y-40550962D01*
X181182947Y-40563071D01*
X181199351Y-40896966D01*
X181199500Y-40903051D01*
X181199500Y-133002279D01*
X181199351Y-133008358D01*
X181182976Y-133341967D01*
X181181785Y-133354067D01*
X181133264Y-133681447D01*
X181130894Y-133693373D01*
X181050544Y-134014431D01*
X181047018Y-134026067D01*
X180935611Y-134337713D01*
X180930962Y-134348946D01*
X180789566Y-134648196D01*
X180783838Y-134658922D01*
X180613829Y-134942858D01*
X180607080Y-134952971D01*
X180410064Y-135218917D01*
X180402356Y-135228320D01*
X180180249Y-135473684D01*
X180171657Y-135482287D01*
X179926593Y-135704716D01*
X179917201Y-135712436D01*
X179651528Y-135909799D01*
X179641424Y-135916563D01*
X179357691Y-136086963D01*
X179346973Y-136092704D01*
X179047929Y-136234492D01*
X179036701Y-136239156D01*
X178725202Y-136350977D01*
X178713571Y-136354519D01*
X178392620Y-136435297D01*
X178380698Y-136437683D01*
X178053378Y-136486640D01*
X178041279Y-136487847D01*
X177707693Y-136504666D01*
X177701615Y-136504823D01*
X177638768Y-136504907D01*
X177638766Y-136504907D01*
X108702469Y-136596699D01*
X108702468Y-136596699D01*
X108701701Y-136596700D01*
X108639490Y-136596783D01*
X108633652Y-136596653D01*
X108313182Y-136581976D01*
X108301554Y-136580893D01*
X107986777Y-136536540D01*
X107975302Y-136534368D01*
X107666089Y-136460597D01*
X107654869Y-136457355D01*
X107594497Y-136436783D01*
X107353974Y-136354823D01*
X107343110Y-136350540D01*
X107053185Y-136220152D01*
X107042771Y-136214865D01*
X106766413Y-136057788D01*
X106756543Y-136051546D01*
X106496174Y-135869157D01*
X106486936Y-135862013D01*
X106244888Y-135655945D01*
X106236362Y-135647965D01*
X106075290Y-135482287D01*
X106014769Y-135420036D01*
X106007036Y-135411293D01*
X105806038Y-135161250D01*
X105802488Y-135156614D01*
X105782109Y-135128664D01*
X105765389Y-135105730D01*
X105765387Y-135105728D01*
X101423595Y-129150702D01*
X86011102Y-108011548D01*
X86011101Y-108011546D01*
X85991099Y-107984113D01*
X85973909Y-107960535D01*
X85970726Y-107955956D01*
X85801501Y-107700457D01*
X85795781Y-107690915D01*
X85651512Y-107423665D01*
X85646673Y-107413648D01*
X85527006Y-107134506D01*
X85523087Y-107124094D01*
X85429004Y-106835353D01*
X85426028Y-106824601D01*
X85364970Y-106557816D01*
X85358276Y-106528573D01*
X85356280Y-106517598D01*
X85351144Y-106479786D01*
X85315411Y-106216693D01*
X85314409Y-106205583D01*
X85300625Y-105899411D01*
X85300500Y-105893834D01*
X85300500Y-105879792D01*
X85300501Y-105830742D01*
X85300500Y-105830738D01*
X85300500Y-77793713D01*
X86349500Y-77793713D01*
X86349500Y-107406287D01*
X86351421Y-107418414D01*
X86366813Y-107515600D01*
X86382754Y-107616243D01*
X86438223Y-107786959D01*
X86448444Y-107818414D01*
X86544951Y-108007820D01*
X86669889Y-108179784D01*
X86669893Y-108179788D01*
X86669896Y-108179792D01*
X86765329Y-108275225D01*
X86824538Y-108334434D01*
X86824549Y-108334444D01*
X90369895Y-111879791D01*
X90520213Y-112030109D01*
X90692179Y-112155048D01*
X90692181Y-112155049D01*
X90692184Y-112155051D01*
X90881588Y-112251557D01*
X91083757Y-112317246D01*
X91293713Y-112350500D01*
X116215500Y-112350500D01*
X116282539Y-112370185D01*
X116328294Y-112422989D01*
X116339500Y-112474500D01*
X116339500Y-112699409D01*
X116319815Y-112766448D01*
X116267011Y-112812203D01*
X116197853Y-112822147D01*
X116185575Y-112819744D01*
X116115500Y-112802317D01*
X116115501Y-112802317D01*
X116084339Y-112800204D01*
X116073954Y-112799500D01*
X114226046Y-112799500D01*
X114214177Y-112800304D01*
X114184500Y-112802317D01*
X114004978Y-112846963D01*
X114004976Y-112846964D01*
X113839249Y-112929156D01*
X113695059Y-113045059D01*
X113579156Y-113189249D01*
X113496964Y-113354976D01*
X113496963Y-113354978D01*
X113452317Y-113534500D01*
X113449500Y-113576048D01*
X113449500Y-114239242D01*
X113429815Y-114306281D01*
X113413181Y-114326923D01*
X112369894Y-115370209D01*
X112369890Y-115370213D01*
X112244951Y-115542179D01*
X112148444Y-115731585D01*
X112082753Y-115933760D01*
X112049500Y-116143713D01*
X112049500Y-121727134D01*
X112029815Y-121794173D01*
X112013181Y-121814815D01*
X112005739Y-121822256D01*
X112005733Y-121822263D01*
X111858067Y-122014706D01*
X111736777Y-122224785D01*
X111736773Y-122224794D01*
X111643947Y-122448895D01*
X111581161Y-122683214D01*
X111549500Y-122923711D01*
X111549500Y-123166288D01*
X111581161Y-123406785D01*
X111643947Y-123641104D01*
X111736773Y-123865205D01*
X111736777Y-123865214D01*
X111758974Y-123903661D01*
X111858064Y-124075289D01*
X111858066Y-124075292D01*
X111858067Y-124075293D01*
X112005733Y-124267736D01*
X112005739Y-124267743D01*
X112177256Y-124439260D01*
X112177263Y-124439266D01*
X112250433Y-124495411D01*
X112369711Y-124586936D01*
X112579788Y-124708224D01*
X112803900Y-124801054D01*
X113038211Y-124863838D01*
X113214025Y-124886984D01*
X113278711Y-124895500D01*
X113278712Y-124895500D01*
X113521289Y-124895500D01*
X113569388Y-124889167D01*
X113761789Y-124863838D01*
X113996100Y-124801054D01*
X114220212Y-124708224D01*
X114430289Y-124586936D01*
X114622738Y-124439265D01*
X114794265Y-124267738D01*
X114941936Y-124075289D01*
X115063224Y-123865212D01*
X115156054Y-123641100D01*
X115218838Y-123406789D01*
X115250500Y-123166288D01*
X115250500Y-122923712D01*
X115218838Y-122683211D01*
X115156054Y-122448900D01*
X115063224Y-122224788D01*
X114941936Y-122014711D01*
X114794265Y-121822262D01*
X114794260Y-121822256D01*
X114786819Y-121814815D01*
X114753334Y-121753492D01*
X114750500Y-121727134D01*
X114750500Y-116860757D01*
X114770185Y-116793718D01*
X114786819Y-116773076D01*
X115323076Y-116236819D01*
X115384399Y-116203334D01*
X115410757Y-116200500D01*
X116073952Y-116200500D01*
X116073954Y-116200500D01*
X116115495Y-116197683D01*
X116295021Y-116153037D01*
X116460753Y-116070842D01*
X116604940Y-115954940D01*
X116604941Y-115954937D01*
X116604944Y-115954936D01*
X116609695Y-115950186D01*
X116611161Y-115951652D01*
X116660377Y-115917388D01*
X116730199Y-115914806D01*
X116761683Y-115927604D01*
X116936274Y-116028405D01*
X117142219Y-116113710D01*
X117357537Y-116171404D01*
X117462718Y-116185251D01*
X117544102Y-116195966D01*
X117607999Y-116224233D01*
X117646470Y-116282557D01*
X117647301Y-116352422D01*
X117615598Y-116406586D01*
X116120211Y-117901974D01*
X115969894Y-118052290D01*
X115969890Y-118052294D01*
X115844951Y-118224260D01*
X115748444Y-118413666D01*
X115682753Y-118615841D01*
X115649500Y-118825794D01*
X115649500Y-125706286D01*
X115679398Y-125895059D01*
X115682754Y-125916243D01*
X115745956Y-126110759D01*
X115748444Y-126118414D01*
X115844951Y-126307820D01*
X115969889Y-126479784D01*
X115969893Y-126479788D01*
X115969896Y-126479792D01*
X116049456Y-126559352D01*
X116124538Y-126634434D01*
X116124549Y-126634444D01*
X117169895Y-127679791D01*
X117320213Y-127830109D01*
X117492179Y-127955048D01*
X117492181Y-127955049D01*
X117492184Y-127955051D01*
X117681588Y-128051557D01*
X117883757Y-128117246D01*
X118093713Y-128150500D01*
X118093714Y-128150500D01*
X121806286Y-128150500D01*
X121806287Y-128150500D01*
X122016243Y-128117246D01*
X122218412Y-128051557D01*
X122407816Y-127955051D01*
X122474934Y-127906287D01*
X122579792Y-127830104D01*
X122730104Y-127679792D01*
X122730105Y-127679790D01*
X122737165Y-127672730D01*
X122737170Y-127672723D01*
X131287821Y-119122073D01*
X131349142Y-119088590D01*
X131418834Y-119093574D01*
X131474767Y-119135446D01*
X131499184Y-119200910D01*
X131499500Y-119209756D01*
X131499500Y-119502469D01*
X131479815Y-119569508D01*
X131463181Y-119590150D01*
X126729894Y-124323436D01*
X126729890Y-124323440D01*
X126604951Y-124495406D01*
X126508444Y-124684812D01*
X126442753Y-124886987D01*
X126409500Y-125096940D01*
X126409500Y-125525500D01*
X126389815Y-125592539D01*
X126337011Y-125638294D01*
X126285500Y-125649500D01*
X126186046Y-125649500D01*
X126174177Y-125650304D01*
X126144500Y-125652317D01*
X125964978Y-125696963D01*
X125964976Y-125696964D01*
X125799249Y-125779156D01*
X125655059Y-125895059D01*
X125539156Y-126039249D01*
X125456964Y-126204976D01*
X125456963Y-126204978D01*
X125412317Y-126384500D01*
X125409500Y-126426048D01*
X125409500Y-128389243D01*
X125389815Y-128456282D01*
X125373181Y-128476924D01*
X124691924Y-129158181D01*
X124630601Y-129191666D01*
X124604243Y-129194500D01*
X121117866Y-129194500D01*
X121050827Y-129174815D01*
X121030185Y-129158181D01*
X121022743Y-129150739D01*
X121022736Y-129150733D01*
X120830293Y-129003067D01*
X120830292Y-129003066D01*
X120830289Y-129003064D01*
X120620212Y-128881776D01*
X120604406Y-128875229D01*
X120396104Y-128788947D01*
X120161785Y-128726161D01*
X119921289Y-128694500D01*
X119921288Y-128694500D01*
X119678712Y-128694500D01*
X119678711Y-128694500D01*
X119438214Y-128726161D01*
X119203895Y-128788947D01*
X118979794Y-128881773D01*
X118979785Y-128881777D01*
X118769706Y-129003067D01*
X118577263Y-129150733D01*
X118577256Y-129150739D01*
X118569815Y-129158181D01*
X118508492Y-129191666D01*
X118482134Y-129194500D01*
X114717866Y-129194500D01*
X114650827Y-129174815D01*
X114630185Y-129158181D01*
X114622743Y-129150739D01*
X114622736Y-129150733D01*
X114430293Y-129003067D01*
X114430292Y-129003066D01*
X114430289Y-129003064D01*
X114220212Y-128881776D01*
X114204406Y-128875229D01*
X113996104Y-128788947D01*
X113761785Y-128726161D01*
X113521289Y-128694500D01*
X113521288Y-128694500D01*
X113278712Y-128694500D01*
X113278711Y-128694500D01*
X113038214Y-128726161D01*
X112803895Y-128788947D01*
X112579794Y-128881773D01*
X112579785Y-128881777D01*
X112369706Y-129003067D01*
X112177263Y-129150733D01*
X112177256Y-129150739D01*
X112005739Y-129322256D01*
X112005733Y-129322263D01*
X111858067Y-129514706D01*
X111736777Y-129724785D01*
X111736773Y-129724794D01*
X111643947Y-129948895D01*
X111581161Y-130183214D01*
X111549500Y-130423711D01*
X111549500Y-130666288D01*
X111581161Y-130906785D01*
X111643947Y-131141104D01*
X111736773Y-131365205D01*
X111736776Y-131365212D01*
X111858064Y-131575289D01*
X111858066Y-131575292D01*
X111858067Y-131575293D01*
X112005733Y-131767736D01*
X112005739Y-131767743D01*
X112177256Y-131939260D01*
X112177262Y-131939265D01*
X112369711Y-132086936D01*
X112579788Y-132208224D01*
X112803900Y-132301054D01*
X113038211Y-132363838D01*
X113218586Y-132387584D01*
X113278711Y-132395500D01*
X113278712Y-132395500D01*
X113521289Y-132395500D01*
X113569388Y-132389167D01*
X113761789Y-132363838D01*
X113996100Y-132301054D01*
X114220212Y-132208224D01*
X114430289Y-132086936D01*
X114622738Y-131939265D01*
X114622743Y-131939260D01*
X114630185Y-131931819D01*
X114691508Y-131898334D01*
X114717866Y-131895500D01*
X118482134Y-131895500D01*
X118549173Y-131915185D01*
X118569815Y-131931819D01*
X118577256Y-131939260D01*
X118577262Y-131939265D01*
X118769711Y-132086936D01*
X118979788Y-132208224D01*
X119203900Y-132301054D01*
X119438211Y-132363838D01*
X119618586Y-132387584D01*
X119678711Y-132395500D01*
X119678712Y-132395500D01*
X119921289Y-132395500D01*
X119969388Y-132389167D01*
X120161789Y-132363838D01*
X120396100Y-132301054D01*
X120620212Y-132208224D01*
X120830289Y-132086936D01*
X121022738Y-131939265D01*
X121022743Y-131939260D01*
X121030185Y-131931819D01*
X121091508Y-131898334D01*
X121117866Y-131895500D01*
X125321286Y-131895500D01*
X125321287Y-131895500D01*
X125531243Y-131862246D01*
X125733412Y-131796557D01*
X125922816Y-131700051D01*
X125944789Y-131684086D01*
X126094786Y-131575109D01*
X126094788Y-131575106D01*
X126094792Y-131575104D01*
X126245104Y-131424792D01*
X126245105Y-131424790D01*
X126252165Y-131417730D01*
X126252170Y-131417723D01*
X127283076Y-130386819D01*
X127344399Y-130353334D01*
X127370757Y-130350500D01*
X129333952Y-130350500D01*
X129333954Y-130350500D01*
X129375495Y-130347683D01*
X129555021Y-130303037D01*
X129720753Y-130220842D01*
X129864940Y-130104940D01*
X129980842Y-129960753D01*
X130063037Y-129795021D01*
X130107683Y-129615495D01*
X130110500Y-129573954D01*
X130110500Y-126426046D01*
X130107683Y-126384505D01*
X130105819Y-126377011D01*
X130096756Y-126340566D01*
X130063037Y-126204979D01*
X129980842Y-126039247D01*
X129881968Y-125916243D01*
X129864940Y-125895059D01*
X129762785Y-125812945D01*
X129720753Y-125779158D01*
X129720751Y-125779157D01*
X129720750Y-125779156D01*
X129555023Y-125696964D01*
X129555021Y-125696963D01*
X129555019Y-125696962D01*
X129555015Y-125696961D01*
X129464451Y-125674438D01*
X129404144Y-125639156D01*
X129372486Y-125576870D01*
X129379528Y-125507356D01*
X129406693Y-125466428D01*
X133722723Y-121150397D01*
X133722730Y-121150392D01*
X133729790Y-121143332D01*
X133729792Y-121143331D01*
X133880104Y-120993019D01*
X133880106Y-120993015D01*
X133880109Y-120993013D01*
X134005048Y-120821047D01*
X134005047Y-120821047D01*
X134005051Y-120821043D01*
X134101557Y-120631639D01*
X134167246Y-120429470D01*
X134200500Y-120219514D01*
X134200500Y-106716422D01*
X134200501Y-106716397D01*
X134200501Y-106498715D01*
X134189207Y-106427411D01*
X134167246Y-106288757D01*
X134101557Y-106086588D01*
X134005051Y-105897184D01*
X133956778Y-105830742D01*
X133956777Y-105830740D01*
X133956776Y-105830738D01*
X133880107Y-105725212D01*
X133880106Y-105725211D01*
X133880104Y-105725208D01*
X133729792Y-105574896D01*
X133729791Y-105574895D01*
X133726680Y-105571784D01*
X133726665Y-105571770D01*
X133131819Y-104976924D01*
X133098334Y-104915601D01*
X133095500Y-104889243D01*
X133095500Y-104878711D01*
X133083020Y-104783916D01*
X133063838Y-104638211D01*
X133001054Y-104403900D01*
X132908224Y-104179788D01*
X132885111Y-104139755D01*
X132868638Y-104071855D01*
X132891491Y-104005828D01*
X132946412Y-103962637D01*
X133015965Y-103955996D01*
X133078068Y-103988012D01*
X133080156Y-103990051D01*
X135295687Y-106205583D01*
X137449834Y-108359730D01*
X137483319Y-108421053D01*
X137478335Y-108490745D01*
X137476141Y-108496224D01*
X137396987Y-108681063D01*
X137396984Y-108681074D01*
X137352312Y-108886426D01*
X137352312Y-108886432D01*
X137349500Y-108933639D01*
X137349500Y-108933650D01*
X137349500Y-109656919D01*
X137329815Y-109723958D01*
X137313181Y-109744600D01*
X136129894Y-110927886D01*
X136129890Y-110927890D01*
X136004951Y-111099856D01*
X135908444Y-111289262D01*
X135842753Y-111491437D01*
X135809500Y-111701390D01*
X135809500Y-116724536D01*
X135789815Y-116791575D01*
X135783877Y-116800021D01*
X135743052Y-116853226D01*
X135631595Y-117046273D01*
X135631593Y-117046277D01*
X135546293Y-117252209D01*
X135546290Y-117252219D01*
X135488597Y-117467534D01*
X135488594Y-117467547D01*
X135459501Y-117688533D01*
X135459500Y-117688549D01*
X135459500Y-118211450D01*
X135459501Y-118211466D01*
X135488594Y-118432452D01*
X135488595Y-118432457D01*
X135488596Y-118432463D01*
X135526029Y-118572165D01*
X135546290Y-118647780D01*
X135546293Y-118647790D01*
X135620025Y-118825794D01*
X135631595Y-118853726D01*
X135743052Y-119046774D01*
X135743057Y-119046780D01*
X135743058Y-119046782D01*
X135878751Y-119223622D01*
X135878757Y-119223629D01*
X136036370Y-119381242D01*
X136036376Y-119381247D01*
X136213226Y-119516948D01*
X136406274Y-119628405D01*
X136612219Y-119713710D01*
X136827537Y-119771404D01*
X137048543Y-119800500D01*
X137048550Y-119800500D01*
X137271450Y-119800500D01*
X137271457Y-119800500D01*
X137492463Y-119771404D01*
X137707781Y-119713710D01*
X137913726Y-119628405D01*
X138106774Y-119516948D01*
X138283624Y-119381247D01*
X138441247Y-119223624D01*
X138576948Y-119046774D01*
X138688405Y-118853726D01*
X138773710Y-118647781D01*
X138831404Y-118432463D01*
X138860500Y-118211457D01*
X138860500Y-117688543D01*
X138831404Y-117467537D01*
X138773710Y-117252219D01*
X138688405Y-117046274D01*
X138576948Y-116853226D01*
X138536123Y-116800021D01*
X138510930Y-116734851D01*
X138510500Y-116724536D01*
X138510500Y-112418434D01*
X138530185Y-112351395D01*
X138546819Y-112330753D01*
X139223076Y-111654496D01*
X139284399Y-111621011D01*
X139310757Y-111618177D01*
X140034027Y-111618177D01*
X140034038Y-111618177D01*
X140081245Y-111615365D01*
X140286612Y-111570690D01*
X140479813Y-111487956D01*
X140653865Y-111370154D01*
X140802477Y-111221542D01*
X140813675Y-111204996D01*
X140867552Y-111160512D01*
X140916365Y-111150500D01*
X146610515Y-111150500D01*
X146677554Y-111170185D01*
X146683393Y-111174177D01*
X146734949Y-111211634D01*
X146844312Y-111267357D01*
X146966423Y-111329577D01*
X146966425Y-111329577D01*
X146966428Y-111329579D01*
X147213507Y-111409860D01*
X147345706Y-111430797D01*
X147470098Y-111450500D01*
X147470103Y-111450500D01*
X147729902Y-111450500D01*
X147843298Y-111432539D01*
X147986493Y-111409860D01*
X148233572Y-111329579D01*
X148465051Y-111211634D01*
X148675229Y-111058931D01*
X148858931Y-110875229D01*
X149011634Y-110665051D01*
X149129579Y-110433572D01*
X149209860Y-110186493D01*
X149244165Y-109969896D01*
X149250500Y-109929902D01*
X149250500Y-109670097D01*
X149223423Y-109499142D01*
X149209860Y-109413507D01*
X149129579Y-109166428D01*
X149129577Y-109166425D01*
X149129577Y-109166423D01*
X149067357Y-109044312D01*
X149011634Y-108934949D01*
X148974181Y-108883400D01*
X148967029Y-108863354D01*
X148955523Y-108845450D01*
X148952068Y-108821423D01*
X148950702Y-108817594D01*
X148950500Y-108810515D01*
X148950500Y-108610756D01*
X148970185Y-108543717D01*
X148986814Y-108523080D01*
X150872723Y-106637170D01*
X150872730Y-106637165D01*
X150879790Y-106630105D01*
X150879792Y-106630104D01*
X151030104Y-106479792D01*
X151030106Y-106479788D01*
X151030109Y-106479786D01*
X151155048Y-106307820D01*
X151155047Y-106307820D01*
X151155051Y-106307816D01*
X151251557Y-106118412D01*
X151317246Y-105916243D01*
X151323019Y-105879792D01*
X151350501Y-105706286D01*
X151350501Y-105493713D01*
X151350501Y-105489312D01*
X151350500Y-105489297D01*
X151350500Y-100564500D01*
X151370185Y-100497461D01*
X151422989Y-100451706D01*
X151474500Y-100440500D01*
X152210515Y-100440500D01*
X152277554Y-100460185D01*
X152283393Y-100464177D01*
X152334949Y-100501634D01*
X152566428Y-100619579D01*
X152813507Y-100699860D01*
X152876444Y-100709827D01*
X152939575Y-100739755D01*
X152944724Y-100744619D01*
X153276770Y-101076665D01*
X153276784Y-101076680D01*
X153279895Y-101079791D01*
X153279896Y-101079792D01*
X153430208Y-101230104D01*
X153574516Y-101334949D01*
X153588350Y-101345000D01*
X153602182Y-101355050D01*
X153602184Y-101355051D01*
X153791588Y-101451557D01*
X153993757Y-101517246D01*
X154203713Y-101550500D01*
X154416287Y-101550500D01*
X157210515Y-101550500D01*
X157277554Y-101570185D01*
X157283393Y-101574177D01*
X157334949Y-101611634D01*
X157395951Y-101642716D01*
X157566423Y-101729577D01*
X157566425Y-101729577D01*
X157566428Y-101729579D01*
X157813507Y-101809860D01*
X157945706Y-101830797D01*
X158070098Y-101850500D01*
X158070103Y-101850500D01*
X158329902Y-101850500D01*
X158443298Y-101832539D01*
X158586493Y-101809860D01*
X158833572Y-101729579D01*
X159065051Y-101611634D01*
X159275229Y-101458931D01*
X159458931Y-101275229D01*
X159611634Y-101065051D01*
X159729579Y-100833572D01*
X159809860Y-100586493D01*
X159839015Y-100402413D01*
X159850500Y-100329902D01*
X159850500Y-100070097D01*
X159815936Y-99851871D01*
X159809860Y-99813507D01*
X159729579Y-99566428D01*
X159729577Y-99566425D01*
X159729577Y-99566423D01*
X159653051Y-99416235D01*
X159611634Y-99334949D01*
X159458931Y-99124771D01*
X159275229Y-98941069D01*
X159148917Y-98849298D01*
X159065054Y-98788368D01*
X159065053Y-98788367D01*
X159065051Y-98788366D01*
X158979737Y-98744896D01*
X158833576Y-98670422D01*
X158586493Y-98590140D01*
X158329902Y-98549500D01*
X158329897Y-98549500D01*
X158070103Y-98549500D01*
X158070098Y-98549500D01*
X157813506Y-98590140D01*
X157566423Y-98670422D01*
X157334948Y-98788366D01*
X157310354Y-98806235D01*
X157284958Y-98824687D01*
X157283401Y-98825818D01*
X157217594Y-98849298D01*
X157210515Y-98849500D01*
X154938888Y-98849500D01*
X154871849Y-98829815D01*
X154826094Y-98777011D01*
X154816416Y-98744904D01*
X154809860Y-98703507D01*
X154729579Y-98456428D01*
X154611634Y-98224949D01*
X154458931Y-98014771D01*
X154275229Y-97831069D01*
X154122101Y-97719815D01*
X154065054Y-97678368D01*
X154065053Y-97678367D01*
X154065051Y-97678366D01*
X153953703Y-97621631D01*
X153833576Y-97560422D01*
X153586493Y-97480140D01*
X153329902Y-97439500D01*
X153329897Y-97439500D01*
X153070103Y-97439500D01*
X153070098Y-97439500D01*
X152813506Y-97480140D01*
X152566423Y-97560422D01*
X152334948Y-97678366D01*
X152283401Y-97715818D01*
X152217594Y-97739298D01*
X152210515Y-97739500D01*
X150589485Y-97739500D01*
X150522446Y-97719815D01*
X150516599Y-97715818D01*
X150465051Y-97678366D01*
X150233576Y-97560422D01*
X149986493Y-97480140D01*
X149729902Y-97439500D01*
X149729897Y-97439500D01*
X149470103Y-97439500D01*
X149470098Y-97439500D01*
X149213506Y-97480140D01*
X148966423Y-97560422D01*
X148734945Y-97678368D01*
X148524774Y-97831066D01*
X148524768Y-97831071D01*
X148341071Y-98014768D01*
X148341066Y-98014774D01*
X148188368Y-98224945D01*
X148070422Y-98456423D01*
X147990140Y-98703506D01*
X147949500Y-98960097D01*
X147949500Y-99219902D01*
X147990140Y-99476493D01*
X148070422Y-99723576D01*
X148188368Y-99955054D01*
X148341066Y-100165225D01*
X148341071Y-100165231D01*
X148524774Y-100348934D01*
X148573055Y-100384011D01*
X148598384Y-100402413D01*
X148641050Y-100457742D01*
X148649500Y-100502732D01*
X148649500Y-104989242D01*
X148629815Y-105056281D01*
X148613181Y-105076923D01*
X146569894Y-107120209D01*
X146569890Y-107120213D01*
X146444951Y-107292179D01*
X146348444Y-107481585D01*
X146282753Y-107683760D01*
X146249500Y-107893713D01*
X146249500Y-108325500D01*
X146229815Y-108392539D01*
X146177011Y-108438294D01*
X146125500Y-108449500D01*
X140960119Y-108449500D01*
X140893080Y-108429815D01*
X140857428Y-108395002D01*
X140802482Y-108313818D01*
X140802479Y-108313815D01*
X140802477Y-108313812D01*
X140653865Y-108165200D01*
X140595323Y-108125577D01*
X140550839Y-108071700D01*
X140542355Y-108042289D01*
X140517246Y-107883757D01*
X140451557Y-107681588D01*
X140355051Y-107492184D01*
X140355049Y-107492181D01*
X140355048Y-107492179D01*
X140230109Y-107320213D01*
X140079791Y-107169895D01*
X137266870Y-104356974D01*
X134429675Y-101519780D01*
X134396191Y-101458458D01*
X134401175Y-101388766D01*
X134443047Y-101332833D01*
X134492037Y-101312135D01*
X134491764Y-101310995D01*
X134496489Y-101309860D01*
X134496493Y-101309860D01*
X134743572Y-101229579D01*
X134975051Y-101111634D01*
X135026599Y-101074181D01*
X135092406Y-101050702D01*
X135099485Y-101050500D01*
X137916286Y-101050500D01*
X137916287Y-101050500D01*
X138126243Y-101017246D01*
X138328412Y-100951557D01*
X138517816Y-100855051D01*
X138537844Y-100840500D01*
X138689792Y-100730104D01*
X138840104Y-100579792D01*
X138840105Y-100579790D01*
X138847165Y-100572730D01*
X138847170Y-100572723D01*
X142055277Y-97364617D01*
X142116598Y-97331134D01*
X142123516Y-97329834D01*
X142186493Y-97319860D01*
X142433572Y-97239579D01*
X142665051Y-97121634D01*
X142875229Y-96968931D01*
X143058931Y-96785229D01*
X143211634Y-96575051D01*
X143329579Y-96343572D01*
X143409860Y-96096493D01*
X143434662Y-95939897D01*
X143450500Y-95839902D01*
X143450500Y-95580097D01*
X143426660Y-95429579D01*
X143409860Y-95323507D01*
X143329579Y-95076428D01*
X143329577Y-95076425D01*
X143329577Y-95076423D01*
X143278013Y-94975225D01*
X143211634Y-94844949D01*
X143058931Y-94634771D01*
X142875229Y-94451069D01*
X142857851Y-94438443D01*
X142665054Y-94298368D01*
X142665053Y-94298367D01*
X142665051Y-94298366D01*
X142592764Y-94261534D01*
X142433576Y-94180422D01*
X142186493Y-94100140D01*
X141929902Y-94059500D01*
X141929897Y-94059500D01*
X141670103Y-94059500D01*
X141670098Y-94059500D01*
X141413506Y-94100140D01*
X141166423Y-94180422D01*
X140934945Y-94298368D01*
X140724774Y-94451066D01*
X140724768Y-94451071D01*
X140541071Y-94634768D01*
X140541066Y-94634774D01*
X140388368Y-94844945D01*
X140270422Y-95076425D01*
X140190139Y-95323508D01*
X140180171Y-95386442D01*
X140150240Y-95449576D01*
X140145379Y-95454723D01*
X137286924Y-98313181D01*
X137225601Y-98346666D01*
X137199243Y-98349500D01*
X135554500Y-98349500D01*
X135487461Y-98329815D01*
X135441706Y-98277011D01*
X135430500Y-98225500D01*
X135430500Y-97629271D01*
X135450185Y-97562232D01*
X135502989Y-97516477D01*
X135572147Y-97506533D01*
X135627382Y-97528951D01*
X135754949Y-97621634D01*
X135807504Y-97648412D01*
X135986423Y-97739577D01*
X135986425Y-97739577D01*
X135986428Y-97739579D01*
X136233507Y-97819860D01*
X136365706Y-97840797D01*
X136490098Y-97860500D01*
X136490103Y-97860500D01*
X136749902Y-97860500D01*
X136863298Y-97842539D01*
X137006493Y-97819860D01*
X137253572Y-97739579D01*
X137254124Y-97739298D01*
X137273610Y-97729369D01*
X137485051Y-97621634D01*
X137695229Y-97468931D01*
X137878931Y-97285229D01*
X138031634Y-97075051D01*
X138149579Y-96843572D01*
X138229860Y-96596493D01*
X138254080Y-96443572D01*
X138270500Y-96339902D01*
X138270500Y-95280097D01*
X138242971Y-95106287D01*
X138229860Y-95023507D01*
X138149579Y-94776428D01*
X138149577Y-94776425D01*
X138149577Y-94776423D01*
X138062201Y-94604940D01*
X138031634Y-94544949D01*
X137994181Y-94493400D01*
X137970702Y-94427594D01*
X137970500Y-94420515D01*
X137970500Y-93880757D01*
X137990185Y-93813718D01*
X138006819Y-93793076D01*
X140000109Y-91799786D01*
X142055277Y-89744617D01*
X142116598Y-89711134D01*
X142123516Y-89709834D01*
X142186493Y-89699860D01*
X142433572Y-89619579D01*
X142665051Y-89501634D01*
X142716599Y-89464181D01*
X142782406Y-89440702D01*
X142789485Y-89440500D01*
X150179243Y-89440500D01*
X150246282Y-89460185D01*
X150266924Y-89476819D01*
X154313181Y-93523076D01*
X154346666Y-93584399D01*
X154349500Y-93610757D01*
X154349500Y-95106286D01*
X154382023Y-95311631D01*
X154382754Y-95316243D01*
X154446743Y-95513181D01*
X154448444Y-95518414D01*
X154544951Y-95707820D01*
X154669889Y-95879784D01*
X154669893Y-95879788D01*
X154669896Y-95879792D01*
X154756874Y-95966770D01*
X154824538Y-96034434D01*
X154824549Y-96034444D01*
X156566770Y-97776665D01*
X156566784Y-97776680D01*
X156569895Y-97779791D01*
X156569896Y-97779792D01*
X156720208Y-97930104D01*
X156857847Y-98030104D01*
X156892184Y-98055051D01*
X157081588Y-98151557D01*
X157283757Y-98217246D01*
X157493714Y-98250501D01*
X157493715Y-98250501D01*
X157711398Y-98250501D01*
X157711422Y-98250500D01*
X162606286Y-98250500D01*
X162606287Y-98250500D01*
X162816243Y-98217246D01*
X163018412Y-98151557D01*
X163207816Y-98055051D01*
X163242153Y-98030104D01*
X163379792Y-97930104D01*
X163530104Y-97779792D01*
X163530105Y-97779790D01*
X163537165Y-97772730D01*
X163537170Y-97772723D01*
X165330104Y-95979792D01*
X165330106Y-95979788D01*
X165330109Y-95979786D01*
X165455048Y-95807820D01*
X165455047Y-95807820D01*
X165455051Y-95807816D01*
X165551557Y-95618412D01*
X165617246Y-95416243D01*
X165650500Y-95206287D01*
X165650500Y-94993714D01*
X165650500Y-56311422D01*
X165650501Y-56311397D01*
X165650501Y-56093715D01*
X165643656Y-56050500D01*
X165617246Y-55883757D01*
X165562343Y-55714784D01*
X165551557Y-55681588D01*
X165455051Y-55492184D01*
X165455049Y-55492181D01*
X165455048Y-55492179D01*
X165330110Y-55320215D01*
X165330106Y-55320211D01*
X165330104Y-55320208D01*
X165179792Y-55169896D01*
X165179791Y-55169895D01*
X165176680Y-55166784D01*
X165176665Y-55166770D01*
X161886819Y-51876924D01*
X161853334Y-51815601D01*
X161850500Y-51789243D01*
X161850500Y-44910757D01*
X161870185Y-44843718D01*
X161886819Y-44823076D01*
X162473076Y-44236819D01*
X162534399Y-44203334D01*
X162560757Y-44200500D01*
X172139243Y-44200500D01*
X172206282Y-44220185D01*
X172226924Y-44236819D01*
X172437990Y-44447885D01*
X172471475Y-44509208D01*
X172466491Y-44578900D01*
X172424619Y-44634833D01*
X172359155Y-44659250D01*
X172295215Y-44646654D01*
X172195023Y-44596964D01*
X172195021Y-44596963D01*
X172015497Y-44552317D01*
X172015501Y-44552317D01*
X171984339Y-44550204D01*
X171973954Y-44549500D01*
X168826046Y-44549500D01*
X168814177Y-44550304D01*
X168784500Y-44552317D01*
X168604978Y-44596963D01*
X168604976Y-44596964D01*
X168439249Y-44679156D01*
X168295059Y-44795059D01*
X168179156Y-44939249D01*
X168096964Y-45104976D01*
X168096963Y-45104978D01*
X168052317Y-45284500D01*
X168049500Y-45326048D01*
X168049500Y-47289242D01*
X168029815Y-47356281D01*
X168013181Y-47376923D01*
X166469894Y-48920209D01*
X166469890Y-48920213D01*
X166344951Y-49092179D01*
X166248444Y-49281585D01*
X166182753Y-49483760D01*
X166149500Y-49693713D01*
X166149500Y-103856920D01*
X166129815Y-103923959D01*
X166113181Y-103944601D01*
X151687681Y-118370101D01*
X151626358Y-118403586D01*
X151556666Y-118398602D01*
X151512319Y-118370101D01*
X150216767Y-117074549D01*
X150216758Y-117074539D01*
X150154143Y-117011924D01*
X150062115Y-116919896D01*
X150062111Y-116919893D01*
X150062107Y-116919889D01*
X149890143Y-116794951D01*
X149700737Y-116698444D01*
X149700736Y-116698443D01*
X149700735Y-116698443D01*
X149498566Y-116632754D01*
X149498564Y-116632753D01*
X149498563Y-116632753D01*
X149337280Y-116607208D01*
X149288610Y-116599500D01*
X149288609Y-116599500D01*
X143942436Y-116599500D01*
X143875397Y-116579815D01*
X143831348Y-116530594D01*
X143810842Y-116489247D01*
X143694940Y-116345059D01*
X143592785Y-116262945D01*
X143550753Y-116229158D01*
X143550751Y-116229157D01*
X143550750Y-116229156D01*
X143385023Y-116146964D01*
X143385021Y-116146963D01*
X143205497Y-116102317D01*
X143205501Y-116102317D01*
X143174339Y-116100204D01*
X143163954Y-116099500D01*
X141316046Y-116099500D01*
X141304177Y-116100304D01*
X141274500Y-116102317D01*
X141094978Y-116146963D01*
X141094976Y-116146964D01*
X140929249Y-116229156D01*
X140785059Y-116345059D01*
X140669156Y-116489249D01*
X140586964Y-116654976D01*
X140586963Y-116654978D01*
X140542317Y-116834500D01*
X140539500Y-116876048D01*
X140539500Y-119023951D01*
X140542317Y-119065499D01*
X140586963Y-119245021D01*
X140586964Y-119245023D01*
X140669156Y-119410750D01*
X140785059Y-119554940D01*
X140867173Y-119620945D01*
X140929247Y-119670842D01*
X141094979Y-119753037D01*
X141274501Y-119797682D01*
X141274502Y-119797682D01*
X141274505Y-119797683D01*
X141316046Y-119800500D01*
X141316048Y-119800500D01*
X143163952Y-119800500D01*
X143163954Y-119800500D01*
X143205495Y-119797683D01*
X143385021Y-119753037D01*
X143550753Y-119670842D01*
X143694940Y-119554940D01*
X143810842Y-119410753D01*
X143831348Y-119369405D01*
X143878768Y-119318094D01*
X143942436Y-119300500D01*
X148571566Y-119300500D01*
X148638605Y-119320185D01*
X148659247Y-119336819D01*
X149513181Y-120190753D01*
X149546666Y-120252076D01*
X149549500Y-120278434D01*
X149549500Y-121201715D01*
X149550956Y-121226161D01*
X149552312Y-121248927D01*
X149596984Y-121454279D01*
X149596987Y-121454290D01*
X149679718Y-121647485D01*
X149679720Y-121647488D01*
X149679721Y-121647490D01*
X149797523Y-121821542D01*
X149946135Y-121970154D01*
X150120187Y-122087956D01*
X150120189Y-122087957D01*
X150120191Y-122087958D01*
X150248987Y-122143112D01*
X150313388Y-122170690D01*
X150313396Y-122170691D01*
X150313397Y-122170692D01*
X150518749Y-122215364D01*
X150518750Y-122215364D01*
X150518755Y-122215365D01*
X150565962Y-122218177D01*
X150565973Y-122218177D01*
X152234027Y-122218177D01*
X152234038Y-122218177D01*
X152281245Y-122215365D01*
X152486612Y-122170690D01*
X152679813Y-122087956D01*
X152853865Y-121970154D01*
X153002477Y-121821542D01*
X153120279Y-121647490D01*
X153203013Y-121454289D01*
X153247688Y-121248922D01*
X153250500Y-121201715D01*
X153250500Y-120678433D01*
X153270185Y-120611394D01*
X153286814Y-120590757D01*
X168372723Y-105504847D01*
X168372730Y-105504842D01*
X168379790Y-105497782D01*
X168379792Y-105497781D01*
X168530104Y-105347469D01*
X168530106Y-105347465D01*
X168530109Y-105347463D01*
X168655048Y-105175497D01*
X168655047Y-105175497D01*
X168655051Y-105175493D01*
X168751557Y-104986089D01*
X168817246Y-104783920D01*
X168831338Y-104694949D01*
X168850501Y-104573963D01*
X168850501Y-104361390D01*
X168850501Y-104356989D01*
X168850500Y-104356974D01*
X168850500Y-50410757D01*
X168870185Y-50343718D01*
X168886819Y-50323076D01*
X169923077Y-49286819D01*
X169984400Y-49253334D01*
X170010758Y-49250500D01*
X171973952Y-49250500D01*
X171973954Y-49250500D01*
X172015495Y-49247683D01*
X172195021Y-49203037D01*
X172360753Y-49120842D01*
X172504940Y-49004940D01*
X172620842Y-48860753D01*
X172703037Y-48695021D01*
X172705165Y-48686460D01*
X172740447Y-48626155D01*
X172802733Y-48594496D01*
X172872247Y-48601537D01*
X172926919Y-48645043D01*
X172949391Y-48711200D01*
X172949500Y-48716388D01*
X172949500Y-52189242D01*
X172929815Y-52256281D01*
X172913181Y-52276923D01*
X170869894Y-54320209D01*
X170869890Y-54320213D01*
X170744951Y-54492179D01*
X170648444Y-54681585D01*
X170582753Y-54883760D01*
X170549500Y-55093713D01*
X170549500Y-106289243D01*
X170529815Y-106356282D01*
X170513181Y-106376924D01*
X153126924Y-123763181D01*
X153065601Y-123796666D01*
X153039243Y-123799500D01*
X132743713Y-123799500D01*
X132695042Y-123807208D01*
X132533760Y-123832753D01*
X132331585Y-123898444D01*
X132142179Y-123994951D01*
X131970213Y-124119890D01*
X131809890Y-124280213D01*
X131684951Y-124452179D01*
X131588444Y-124641585D01*
X131522753Y-124843760D01*
X131489500Y-125053713D01*
X131489500Y-126012384D01*
X131469815Y-126079423D01*
X131440987Y-126110759D01*
X131286886Y-126229005D01*
X131286877Y-126229013D01*
X131069013Y-126446877D01*
X131069007Y-126446884D01*
X130881441Y-126691325D01*
X130727381Y-126958162D01*
X130727376Y-126958173D01*
X130609464Y-127242837D01*
X130529717Y-127540457D01*
X130489501Y-127845930D01*
X130489500Y-127845946D01*
X130489500Y-128154053D01*
X130489501Y-128154069D01*
X130529717Y-128459542D01*
X130609464Y-128757162D01*
X130727376Y-129041826D01*
X130727381Y-129041837D01*
X130794553Y-129158181D01*
X130881438Y-129308670D01*
X130881440Y-129308673D01*
X130881441Y-129308674D01*
X131069007Y-129553115D01*
X131069013Y-129553122D01*
X131286877Y-129770986D01*
X131286883Y-129770991D01*
X131531330Y-129958562D01*
X131702830Y-130057578D01*
X131798162Y-130112618D01*
X131798167Y-130112620D01*
X131798170Y-130112622D01*
X132082836Y-130230535D01*
X132380456Y-130310282D01*
X132685940Y-130350500D01*
X132685947Y-130350500D01*
X132994053Y-130350500D01*
X132994060Y-130350500D01*
X133299544Y-130310282D01*
X133597164Y-130230535D01*
X133881830Y-130112622D01*
X134148670Y-129958562D01*
X134393117Y-129770991D01*
X134610991Y-129553117D01*
X134798562Y-129308670D01*
X134952622Y-129041830D01*
X135070535Y-128757164D01*
X135150282Y-128459544D01*
X135190500Y-128154060D01*
X135190500Y-127845940D01*
X135150282Y-127540456D01*
X135070535Y-127242836D01*
X134952622Y-126958170D01*
X134952620Y-126958167D01*
X134952618Y-126958162D01*
X134796533Y-126687815D01*
X134797943Y-126687000D01*
X134779061Y-126626736D01*
X134797534Y-126559352D01*
X134849504Y-126512653D01*
X134903041Y-126500500D01*
X135856959Y-126500500D01*
X135923998Y-126520185D01*
X135969753Y-126572989D01*
X135979697Y-126642147D01*
X135962423Y-126687212D01*
X135963467Y-126687815D01*
X135807381Y-126958162D01*
X135807376Y-126958173D01*
X135689464Y-127242837D01*
X135609717Y-127540457D01*
X135569501Y-127845930D01*
X135569500Y-127845946D01*
X135569500Y-128154053D01*
X135569501Y-128154069D01*
X135609717Y-128459542D01*
X135689464Y-128757162D01*
X135807376Y-129041826D01*
X135807381Y-129041837D01*
X135874553Y-129158181D01*
X135961438Y-129308670D01*
X135961440Y-129308673D01*
X135961441Y-129308674D01*
X136149007Y-129553115D01*
X136149013Y-129553122D01*
X136366877Y-129770986D01*
X136366883Y-129770991D01*
X136611330Y-129958562D01*
X136782830Y-130057578D01*
X136878162Y-130112618D01*
X136878167Y-130112620D01*
X136878170Y-130112622D01*
X137162836Y-130230535D01*
X137460456Y-130310282D01*
X137765940Y-130350500D01*
X137765947Y-130350500D01*
X138074053Y-130350500D01*
X138074060Y-130350500D01*
X138379544Y-130310282D01*
X138677164Y-130230535D01*
X138961830Y-130112622D01*
X139228670Y-129958562D01*
X139473117Y-129770991D01*
X139690991Y-129553117D01*
X139878562Y-129308670D01*
X139928030Y-129222989D01*
X139934086Y-129212500D01*
X139984653Y-129164284D01*
X140041473Y-129150500D01*
X148390145Y-129150500D01*
X148457184Y-129170185D01*
X148477826Y-129186819D01*
X148493484Y-129202477D01*
X148667536Y-129320279D01*
X148667538Y-129320280D01*
X148667540Y-129320281D01*
X148689253Y-129329579D01*
X148860737Y-129403013D01*
X148860745Y-129403014D01*
X148860746Y-129403015D01*
X149066098Y-129447687D01*
X149066099Y-129447687D01*
X149066104Y-129447688D01*
X149113311Y-129450500D01*
X149113322Y-129450500D01*
X150381376Y-129450500D01*
X150381387Y-129450500D01*
X150428594Y-129447688D01*
X150633961Y-129403013D01*
X150827162Y-129320279D01*
X151001214Y-129202477D01*
X151149826Y-129053865D01*
X151267628Y-128879813D01*
X151350362Y-128686612D01*
X151395037Y-128481245D01*
X151397849Y-128434038D01*
X151397849Y-128231863D01*
X151417534Y-128164824D01*
X151470338Y-128119069D01*
X151539496Y-128109125D01*
X151603052Y-128138150D01*
X151639780Y-128193545D01*
X151717771Y-128433574D01*
X151835717Y-128665054D01*
X151988415Y-128875225D01*
X151988418Y-128875229D01*
X152172120Y-129058931D01*
X152382298Y-129211634D01*
X152505679Y-129274500D01*
X152613772Y-129329577D01*
X152613774Y-129329577D01*
X152613777Y-129329579D01*
X152860856Y-129409860D01*
X152993055Y-129430797D01*
X153117447Y-129450500D01*
X153117452Y-129450500D01*
X153377251Y-129450500D01*
X153490647Y-129432539D01*
X153633842Y-129409860D01*
X153880921Y-129329579D01*
X154112400Y-129211634D01*
X154163948Y-129174181D01*
X154229755Y-129150702D01*
X154236834Y-129150500D01*
X163401964Y-129150500D01*
X163469003Y-129170185D01*
X163514758Y-129222989D01*
X163525964Y-129274500D01*
X163525964Y-129573951D01*
X163528781Y-129615499D01*
X163573427Y-129795021D01*
X163573428Y-129795023D01*
X163655620Y-129960750D01*
X163771523Y-130104940D01*
X163853637Y-130170945D01*
X163915711Y-130220842D01*
X164081443Y-130303037D01*
X164260965Y-130347682D01*
X164260966Y-130347682D01*
X164260969Y-130347683D01*
X164302510Y-130350500D01*
X164302512Y-130350500D01*
X167450416Y-130350500D01*
X167450418Y-130350500D01*
X167491959Y-130347683D01*
X167671485Y-130303037D01*
X167837217Y-130220842D01*
X167981404Y-130104940D01*
X168097306Y-129960753D01*
X168179501Y-129795021D01*
X168224147Y-129615495D01*
X168226964Y-129573954D01*
X168226964Y-126426046D01*
X168224147Y-126384505D01*
X168222283Y-126377011D01*
X168213220Y-126340566D01*
X168179501Y-126204979D01*
X168097306Y-126039247D01*
X167998432Y-125916243D01*
X167981404Y-125895059D01*
X167879249Y-125812945D01*
X167837217Y-125779158D01*
X167837215Y-125779157D01*
X167837214Y-125779156D01*
X167671487Y-125696964D01*
X167671485Y-125696963D01*
X167491961Y-125652317D01*
X167491965Y-125652317D01*
X167460803Y-125650204D01*
X167450418Y-125649500D01*
X164302510Y-125649500D01*
X164290641Y-125650304D01*
X164260964Y-125652317D01*
X164081442Y-125696963D01*
X164081440Y-125696964D01*
X163915713Y-125779156D01*
X163771523Y-125895059D01*
X163655620Y-126039249D01*
X163573428Y-126204976D01*
X163573427Y-126204977D01*
X163567451Y-126229009D01*
X163547844Y-126307853D01*
X163536013Y-126355426D01*
X163500731Y-126415733D01*
X163438445Y-126447392D01*
X163415678Y-126449500D01*
X154540632Y-126449500D01*
X154473593Y-126429815D01*
X154427838Y-126377011D01*
X154417894Y-126307853D01*
X154446919Y-126244297D01*
X154467748Y-126225181D01*
X154495556Y-126204978D01*
X154529792Y-126180104D01*
X154680104Y-126029792D01*
X154680105Y-126029790D01*
X154687165Y-126022730D01*
X154687171Y-126022723D01*
X172772723Y-107937171D01*
X172772730Y-107937165D01*
X172779790Y-107930105D01*
X172779792Y-107930104D01*
X172930104Y-107779792D01*
X172930106Y-107779788D01*
X172930109Y-107779786D01*
X173055048Y-107607820D01*
X173055047Y-107607820D01*
X173055051Y-107607816D01*
X173151557Y-107418412D01*
X173217246Y-107216243D01*
X173250501Y-107006286D01*
X173250501Y-106793713D01*
X173250501Y-106789312D01*
X173250500Y-106789297D01*
X173250500Y-55810757D01*
X173270185Y-55743718D01*
X173286819Y-55723076D01*
X174837819Y-54172076D01*
X174899142Y-54138591D01*
X174968834Y-54143575D01*
X175024767Y-54185447D01*
X175049184Y-54250911D01*
X175049500Y-54259757D01*
X175049500Y-121945705D01*
X175029815Y-122012744D01*
X175013181Y-122033386D01*
X171406971Y-125639595D01*
X171345648Y-125673080D01*
X171303105Y-125674853D01*
X171110525Y-125649500D01*
X171110524Y-125649500D01*
X170802404Y-125649500D01*
X170802398Y-125649500D01*
X170802394Y-125649501D01*
X170496921Y-125689717D01*
X170199301Y-125769464D01*
X169914637Y-125887376D01*
X169914626Y-125887381D01*
X169698117Y-126012384D01*
X169651586Y-126039249D01*
X169647789Y-126041441D01*
X169403348Y-126229007D01*
X169403341Y-126229013D01*
X169185477Y-126446877D01*
X169185471Y-126446884D01*
X168997905Y-126691325D01*
X168843845Y-126958162D01*
X168843840Y-126958173D01*
X168725928Y-127242837D01*
X168646181Y-127540457D01*
X168605965Y-127845930D01*
X168605964Y-127845946D01*
X168605964Y-128154053D01*
X168605965Y-128154069D01*
X168646181Y-128459542D01*
X168725928Y-128757162D01*
X168843840Y-129041826D01*
X168843845Y-129041837D01*
X168911017Y-129158181D01*
X168997902Y-129308670D01*
X168997904Y-129308673D01*
X168997905Y-129308674D01*
X169185471Y-129553115D01*
X169185477Y-129553122D01*
X169403341Y-129770986D01*
X169403347Y-129770991D01*
X169647794Y-129958562D01*
X169819294Y-130057578D01*
X169914626Y-130112618D01*
X169914631Y-130112620D01*
X169914634Y-130112622D01*
X170199300Y-130230535D01*
X170496920Y-130310282D01*
X170802404Y-130350500D01*
X170802411Y-130350500D01*
X171110517Y-130350500D01*
X171110524Y-130350500D01*
X171416008Y-130310282D01*
X171713628Y-130230535D01*
X171998294Y-130112622D01*
X172265134Y-129958562D01*
X172509581Y-129770991D01*
X172727455Y-129553117D01*
X172915026Y-129308670D01*
X173069086Y-129041830D01*
X173186999Y-128757164D01*
X173266746Y-128459544D01*
X173306964Y-128154060D01*
X173306964Y-127845940D01*
X173281609Y-127653355D01*
X173292374Y-127584323D01*
X173316864Y-127549494D01*
X177430104Y-123436256D01*
X177430106Y-123436252D01*
X177430109Y-123436250D01*
X177555048Y-123264284D01*
X177555047Y-123264284D01*
X177555051Y-123264280D01*
X177651557Y-123074876D01*
X177717246Y-122872707D01*
X177750500Y-122662751D01*
X177750500Y-122450178D01*
X177750500Y-42693713D01*
X177717246Y-42483757D01*
X177651557Y-42281588D01*
X177555051Y-42092184D01*
X177555049Y-42092181D01*
X177555048Y-42092179D01*
X177430109Y-41920213D01*
X177279791Y-41769895D01*
X175634444Y-40124549D01*
X175634435Y-40124539D01*
X175630104Y-40120208D01*
X175479792Y-39969896D01*
X175479788Y-39969893D01*
X175479784Y-39969889D01*
X175307820Y-39844951D01*
X175118414Y-39748444D01*
X175118413Y-39748443D01*
X175118412Y-39748443D01*
X174916243Y-39682754D01*
X174916241Y-39682753D01*
X174916240Y-39682753D01*
X174754957Y-39657208D01*
X174706287Y-39649500D01*
X159006286Y-39649500D01*
X158793713Y-39649500D01*
X158745042Y-39657208D01*
X158583760Y-39682753D01*
X158381585Y-39748444D01*
X158192179Y-39844951D01*
X158020213Y-39969890D01*
X154969890Y-43020213D01*
X154844951Y-43192179D01*
X154748444Y-43381585D01*
X154682753Y-43583760D01*
X154649500Y-43793713D01*
X154649500Y-61089242D01*
X154629815Y-61156281D01*
X154613181Y-61176923D01*
X148544724Y-67245379D01*
X148483401Y-67278864D01*
X148476443Y-67280171D01*
X148413508Y-67290139D01*
X148166425Y-67370422D01*
X147934945Y-67488368D01*
X147724774Y-67641066D01*
X147724768Y-67641071D01*
X147541071Y-67824768D01*
X147541066Y-67824774D01*
X147388368Y-68034945D01*
X147270422Y-68266423D01*
X147190140Y-68513506D01*
X147149500Y-68770097D01*
X147149500Y-69029902D01*
X147190140Y-69286493D01*
X147270422Y-69533576D01*
X147388368Y-69765055D01*
X147425817Y-69816598D01*
X147449298Y-69882404D01*
X147449500Y-69889484D01*
X147449500Y-72010515D01*
X147429815Y-72077554D01*
X147425818Y-72083401D01*
X147388366Y-72134948D01*
X147270422Y-72366423D01*
X147190140Y-72613506D01*
X147149500Y-72870097D01*
X147149500Y-73129902D01*
X147190140Y-73386493D01*
X147270422Y-73633576D01*
X147388368Y-73865054D01*
X147508287Y-74030109D01*
X147541069Y-74075229D01*
X147724771Y-74258931D01*
X147934949Y-74411634D01*
X148082445Y-74486787D01*
X148166423Y-74529577D01*
X148166425Y-74529577D01*
X148166428Y-74529579D01*
X148413507Y-74609860D01*
X148545706Y-74630797D01*
X148670098Y-74650500D01*
X148670103Y-74650500D01*
X148929902Y-74650500D01*
X149043298Y-74632539D01*
X149186493Y-74609860D01*
X149433572Y-74529579D01*
X149665051Y-74411634D01*
X149875229Y-74258931D01*
X150058931Y-74075229D01*
X150211634Y-73865051D01*
X150329579Y-73633572D01*
X150409860Y-73386493D01*
X150432539Y-73243298D01*
X150450500Y-73129902D01*
X150450500Y-72870097D01*
X150428294Y-72729895D01*
X150409860Y-72613507D01*
X150329579Y-72366428D01*
X150329577Y-72366425D01*
X150329577Y-72366423D01*
X150255802Y-72221633D01*
X150211634Y-72134949D01*
X150174181Y-72083400D01*
X150150702Y-72017594D01*
X150150500Y-72010515D01*
X150150500Y-69889484D01*
X150170185Y-69822445D01*
X150174183Y-69816598D01*
X150211631Y-69765055D01*
X150211632Y-69765054D01*
X150211634Y-69765051D01*
X150329579Y-69533572D01*
X150409860Y-69286493D01*
X150419828Y-69223554D01*
X150449755Y-69160424D01*
X150454601Y-69155292D01*
X156872723Y-62737171D01*
X156872730Y-62737165D01*
X156879790Y-62730105D01*
X156879792Y-62730104D01*
X157030104Y-62579792D01*
X157030106Y-62579788D01*
X157030109Y-62579786D01*
X157155048Y-62407820D01*
X157155047Y-62407820D01*
X157155051Y-62407816D01*
X157251557Y-62218412D01*
X157317246Y-62016243D01*
X157327985Y-61948443D01*
X157350501Y-61806286D01*
X157350501Y-61593713D01*
X157350501Y-61589312D01*
X157350500Y-61589297D01*
X157350500Y-44510757D01*
X157370185Y-44443718D01*
X157386819Y-44423076D01*
X159423077Y-42386819D01*
X159484400Y-42353334D01*
X159510758Y-42350500D01*
X160240243Y-42350500D01*
X160307282Y-42370185D01*
X160353037Y-42422989D01*
X160362981Y-42492147D01*
X160333956Y-42555703D01*
X160327927Y-42562177D01*
X159869896Y-43020208D01*
X159620211Y-43269893D01*
X159469894Y-43420209D01*
X159469890Y-43420213D01*
X159344951Y-43592179D01*
X159248444Y-43781585D01*
X159182753Y-43983760D01*
X159149500Y-44193713D01*
X159149500Y-52506286D01*
X159171487Y-52645110D01*
X159182754Y-52716243D01*
X159195361Y-52755044D01*
X159248444Y-52918414D01*
X159344951Y-53107820D01*
X159469889Y-53279784D01*
X159469893Y-53279788D01*
X159469896Y-53279792D01*
X159570027Y-53379923D01*
X159624538Y-53434434D01*
X159624549Y-53434444D01*
X162913181Y-56723076D01*
X162946666Y-56784399D01*
X162949500Y-56810757D01*
X162949500Y-91051666D01*
X162929815Y-91118705D01*
X162877011Y-91164460D01*
X162807853Y-91174404D01*
X162752615Y-91151984D01*
X162665054Y-91088368D01*
X162665053Y-91088367D01*
X162665051Y-91088366D01*
X162543213Y-91026286D01*
X162433576Y-90970422D01*
X162186493Y-90890140D01*
X161929902Y-90849500D01*
X161929897Y-90849500D01*
X161670103Y-90849500D01*
X161670098Y-90849500D01*
X161413506Y-90890140D01*
X161166423Y-90970422D01*
X160934945Y-91088368D01*
X160773289Y-91205818D01*
X160707483Y-91229298D01*
X160700404Y-91229500D01*
X159674500Y-91229500D01*
X159607461Y-91209815D01*
X159561706Y-91157011D01*
X159550500Y-91105500D01*
X159550500Y-89011422D01*
X159550501Y-89011397D01*
X159550501Y-88793715D01*
X159517246Y-88583760D01*
X159517246Y-88583757D01*
X159451557Y-88381588D01*
X159355051Y-88192184D01*
X159352314Y-88188417D01*
X159230104Y-88020208D01*
X159079792Y-87869896D01*
X159079791Y-87869895D01*
X159076680Y-87866784D01*
X159076665Y-87866770D01*
X150334444Y-79124549D01*
X150334435Y-79124539D01*
X150328645Y-79118749D01*
X150179792Y-78969896D01*
X150179788Y-78969893D01*
X150179784Y-78969889D01*
X150007820Y-78844951D01*
X149818414Y-78748444D01*
X149818413Y-78748443D01*
X149818412Y-78748443D01*
X149616243Y-78682754D01*
X149616241Y-78682753D01*
X149616240Y-78682753D01*
X149454957Y-78657208D01*
X149406287Y-78649500D01*
X149406286Y-78649500D01*
X141538242Y-78649500D01*
X141471203Y-78629815D01*
X141435552Y-78595003D01*
X141402477Y-78546135D01*
X141367099Y-78510757D01*
X141253865Y-78397523D01*
X141079813Y-78279721D01*
X141079811Y-78279720D01*
X141079808Y-78279718D01*
X140886613Y-78196987D01*
X140886602Y-78196984D01*
X140681250Y-78152312D01*
X140666492Y-78151433D01*
X140634038Y-78149500D01*
X138965962Y-78149500D01*
X138935416Y-78151319D01*
X138918749Y-78152312D01*
X138713397Y-78196984D01*
X138713386Y-78196987D01*
X138520191Y-78279718D01*
X138346137Y-78397521D01*
X138346132Y-78397525D01*
X138197525Y-78546132D01*
X138197521Y-78546137D01*
X138079718Y-78720191D01*
X137996987Y-78913386D01*
X137996984Y-78913397D01*
X137952312Y-79118749D01*
X137952312Y-79118755D01*
X137949500Y-79165962D01*
X137949500Y-79165973D01*
X137949500Y-79889242D01*
X137929815Y-79956281D01*
X137913181Y-79976923D01*
X136376924Y-81513181D01*
X136315601Y-81546666D01*
X136289243Y-81549500D01*
X134606287Y-81549500D01*
X134393713Y-81549500D01*
X134345042Y-81557208D01*
X134183760Y-81582753D01*
X133981585Y-81648444D01*
X133792179Y-81744951D01*
X133620213Y-81869890D01*
X130509890Y-84980213D01*
X130384951Y-85152179D01*
X130288444Y-85341585D01*
X130222753Y-85543760D01*
X130189500Y-85753713D01*
X130189500Y-86800515D01*
X130169815Y-86867554D01*
X130165818Y-86873401D01*
X130128366Y-86924948D01*
X130010422Y-87156423D01*
X129930140Y-87403506D01*
X129889500Y-87660097D01*
X129889500Y-88719902D01*
X129930140Y-88976493D01*
X130010422Y-89223576D01*
X130077369Y-89354965D01*
X130125246Y-89448928D01*
X130128368Y-89455054D01*
X130247901Y-89619577D01*
X130281069Y-89665229D01*
X130464771Y-89848931D01*
X130674949Y-90001634D01*
X130761186Y-90045574D01*
X130811982Y-90093549D01*
X130828777Y-90161370D01*
X130806240Y-90227505D01*
X130751524Y-90270956D01*
X130704891Y-90280059D01*
X129111317Y-90280059D01*
X129044278Y-90260374D01*
X129023636Y-90243740D01*
X128046715Y-89266820D01*
X128013230Y-89205497D01*
X128016464Y-89140823D01*
X128069860Y-88976493D01*
X128098809Y-88793714D01*
X128110500Y-88719902D01*
X128110500Y-87660097D01*
X128088947Y-87524021D01*
X128069860Y-87403507D01*
X127989579Y-87156428D01*
X127989577Y-87156425D01*
X127989577Y-87156423D01*
X127910515Y-87001257D01*
X127871634Y-86924949D01*
X127834181Y-86873400D01*
X127810702Y-86807594D01*
X127810500Y-86800515D01*
X127810500Y-75973713D01*
X127777246Y-75763760D01*
X127777246Y-75763757D01*
X127711557Y-75561588D01*
X127615051Y-75372184D01*
X127615049Y-75372181D01*
X127615048Y-75372179D01*
X127490109Y-75200213D01*
X127339791Y-75049895D01*
X124962076Y-72672181D01*
X124928591Y-72610858D01*
X124933575Y-72541166D01*
X124975447Y-72485233D01*
X125040911Y-72460816D01*
X125049757Y-72460500D01*
X125229902Y-72460500D01*
X125343298Y-72442539D01*
X125486493Y-72419860D01*
X125733572Y-72339579D01*
X125965051Y-72221634D01*
X126016599Y-72184181D01*
X126082406Y-72160702D01*
X126089485Y-72160500D01*
X130796286Y-72160500D01*
X130796287Y-72160500D01*
X131006243Y-72127246D01*
X131208412Y-72061557D01*
X131397816Y-71965051D01*
X131416389Y-71951557D01*
X131569792Y-71840104D01*
X131720104Y-71689792D01*
X131720105Y-71689790D01*
X131727165Y-71682730D01*
X131727171Y-71682723D01*
X132323075Y-71086819D01*
X132384398Y-71053334D01*
X132410756Y-71050500D01*
X132634398Y-71050500D01*
X132694905Y-71042534D01*
X132900891Y-71015416D01*
X133160526Y-70945847D01*
X133404096Y-70844957D01*
X133408850Y-70842988D01*
X133408853Y-70842986D01*
X133408859Y-70842984D01*
X133641641Y-70708587D01*
X133854890Y-70544956D01*
X134044956Y-70354890D01*
X134208587Y-70141641D01*
X134342984Y-69908859D01*
X134351010Y-69889484D01*
X134381200Y-69816598D01*
X134445847Y-69660526D01*
X134515416Y-69400891D01*
X134550500Y-69134397D01*
X134550500Y-68865603D01*
X134515416Y-68599109D01*
X134445847Y-68339474D01*
X134368985Y-68153913D01*
X134342988Y-68091149D01*
X134342980Y-68091133D01*
X134258673Y-67945111D01*
X134208587Y-67858359D01*
X134044956Y-67645110D01*
X134044951Y-67645104D01*
X133854895Y-67455048D01*
X133854888Y-67455042D01*
X133641645Y-67291416D01*
X133641644Y-67291415D01*
X133641641Y-67291413D01*
X133548832Y-67237830D01*
X133408866Y-67157019D01*
X133408850Y-67157011D01*
X133160524Y-67054152D01*
X133030708Y-67019368D01*
X132900891Y-66984584D01*
X132900885Y-66984583D01*
X132900880Y-66984582D01*
X132634398Y-66949500D01*
X132634397Y-66949500D01*
X132365603Y-66949500D01*
X132365602Y-66949500D01*
X132099119Y-66984582D01*
X132099112Y-66984583D01*
X132099109Y-66984584D01*
X132044239Y-66999286D01*
X131839475Y-67054152D01*
X131591149Y-67157011D01*
X131591133Y-67157019D01*
X131358354Y-67291416D01*
X131145111Y-67455042D01*
X131145104Y-67455048D01*
X130955048Y-67645104D01*
X130955042Y-67645111D01*
X130791416Y-67858354D01*
X130657019Y-68091133D01*
X130657011Y-68091149D01*
X130554152Y-68339475D01*
X130484585Y-68599106D01*
X130484582Y-68599119D01*
X130449500Y-68865602D01*
X130449500Y-69089242D01*
X130429815Y-69156281D01*
X130413181Y-69176923D01*
X130166924Y-69423181D01*
X130105601Y-69456666D01*
X130079243Y-69459500D01*
X126574500Y-69459500D01*
X126507461Y-69439815D01*
X126461706Y-69387011D01*
X126450500Y-69335500D01*
X126450500Y-67593713D01*
X126447449Y-67574448D01*
X126417246Y-67383757D01*
X126351557Y-67181588D01*
X126255051Y-66992184D01*
X126255049Y-66992181D01*
X126255048Y-66992179D01*
X126130110Y-66820215D01*
X126130106Y-66820211D01*
X126130104Y-66820208D01*
X125979792Y-66669896D01*
X125979791Y-66669895D01*
X125976680Y-66666784D01*
X125976665Y-66666770D01*
X124129144Y-64819249D01*
X124095659Y-64757926D01*
X124100643Y-64688234D01*
X124142515Y-64632301D01*
X124207979Y-64607884D01*
X124273120Y-64621083D01*
X124466423Y-64719577D01*
X124466425Y-64719577D01*
X124466428Y-64719579D01*
X124713507Y-64799860D01*
X124835927Y-64819249D01*
X124970098Y-64840500D01*
X124970103Y-64840500D01*
X125229902Y-64840500D01*
X125343298Y-64822539D01*
X125486493Y-64799860D01*
X125733572Y-64719579D01*
X125965051Y-64601634D01*
X126175229Y-64448931D01*
X126358931Y-64265229D01*
X126511634Y-64055051D01*
X126629579Y-63823572D01*
X126709860Y-63576493D01*
X126732539Y-63433298D01*
X126750500Y-63319902D01*
X126750500Y-63060097D01*
X126726130Y-62906234D01*
X126709860Y-62803507D01*
X126629579Y-62556428D01*
X126629577Y-62556425D01*
X126629577Y-62556423D01*
X126553857Y-62407816D01*
X126511634Y-62324949D01*
X126358931Y-62114771D01*
X126175229Y-61931069D01*
X125965051Y-61778366D01*
X125733572Y-61660421D01*
X125486493Y-61580140D01*
X125486491Y-61580139D01*
X125423556Y-61570171D01*
X125360421Y-61540241D01*
X125355274Y-61535379D01*
X121944444Y-58124549D01*
X121944435Y-58124539D01*
X121940104Y-58120208D01*
X121789792Y-57969896D01*
X121789788Y-57969893D01*
X121789784Y-57969889D01*
X121617820Y-57844951D01*
X121428414Y-57748444D01*
X121428413Y-57748443D01*
X121428412Y-57748443D01*
X121226243Y-57682754D01*
X121226241Y-57682753D01*
X121226240Y-57682753D01*
X121064957Y-57657208D01*
X121016287Y-57649500D01*
X114606287Y-57649500D01*
X106706286Y-57649500D01*
X106493713Y-57649500D01*
X106445042Y-57657208D01*
X106283760Y-57682753D01*
X106081585Y-57748444D01*
X105892179Y-57844951D01*
X105720213Y-57969890D01*
X86669890Y-77020213D01*
X86544951Y-77192179D01*
X86448444Y-77381585D01*
X86382753Y-77583760D01*
X86349500Y-77793713D01*
X85300500Y-77793713D01*
X85300500Y-54165602D01*
X101449500Y-54165602D01*
X101449500Y-54434397D01*
X101484582Y-54700880D01*
X101484583Y-54700885D01*
X101484584Y-54700891D01*
X101484585Y-54700893D01*
X101554152Y-54960524D01*
X101657011Y-55208850D01*
X101657019Y-55208866D01*
X101737830Y-55348832D01*
X101791413Y-55441641D01*
X101791415Y-55441644D01*
X101791416Y-55441645D01*
X101955042Y-55654888D01*
X101955048Y-55654895D01*
X102145104Y-55844951D01*
X102145111Y-55844957D01*
X102270387Y-55941084D01*
X102358359Y-56008587D01*
X102505803Y-56093714D01*
X102591133Y-56142980D01*
X102591149Y-56142988D01*
X102746008Y-56207132D01*
X102839474Y-56245847D01*
X103099109Y-56315416D01*
X103287319Y-56340193D01*
X103365602Y-56350500D01*
X103365603Y-56350500D01*
X103634398Y-56350500D01*
X103694905Y-56342534D01*
X103900891Y-56315416D01*
X104160526Y-56245847D01*
X104347457Y-56168417D01*
X104408850Y-56142988D01*
X104408853Y-56142986D01*
X104408859Y-56142984D01*
X104641641Y-56008587D01*
X104854890Y-55844956D01*
X105044956Y-55654890D01*
X105208587Y-55441641D01*
X105342984Y-55208859D01*
X105445847Y-54960526D01*
X105515416Y-54700891D01*
X105550500Y-54434397D01*
X105550500Y-54165603D01*
X105515416Y-53899109D01*
X105445847Y-53639474D01*
X105359124Y-53430106D01*
X105342988Y-53391149D01*
X105342980Y-53391133D01*
X105227958Y-53191910D01*
X105211485Y-53124010D01*
X105234337Y-53057983D01*
X105247658Y-53042235D01*
X108983076Y-49306819D01*
X109044399Y-49273334D01*
X109070757Y-49270500D01*
X111033952Y-49270500D01*
X111033954Y-49270500D01*
X111075495Y-49267683D01*
X111255021Y-49223037D01*
X111420753Y-49140842D01*
X111564940Y-49024940D01*
X111680842Y-48880753D01*
X111763037Y-48715021D01*
X111807683Y-48535495D01*
X111810500Y-48493954D01*
X111810500Y-45346048D01*
X120109500Y-45346048D01*
X120109500Y-48493951D01*
X120112317Y-48535499D01*
X120156963Y-48715021D01*
X120156964Y-48715023D01*
X120239156Y-48880750D01*
X120355059Y-49024940D01*
X120437173Y-49090945D01*
X120499247Y-49140842D01*
X120664979Y-49223037D01*
X120844501Y-49267682D01*
X120844502Y-49267682D01*
X120844505Y-49267683D01*
X120886046Y-49270500D01*
X120886048Y-49270500D01*
X124033952Y-49270500D01*
X124033954Y-49270500D01*
X124075495Y-49267683D01*
X124255021Y-49223037D01*
X124420753Y-49140842D01*
X124564940Y-49024940D01*
X124680842Y-48880753D01*
X124763037Y-48715021D01*
X124807683Y-48535495D01*
X124810500Y-48493954D01*
X124810500Y-48394500D01*
X124830185Y-48327461D01*
X124882989Y-48281706D01*
X124934500Y-48270500D01*
X128509243Y-48270500D01*
X128576282Y-48290185D01*
X128596924Y-48306819D01*
X131113181Y-50823076D01*
X131146666Y-50884399D01*
X131149500Y-50910757D01*
X131149500Y-52399291D01*
X131129815Y-52466330D01*
X131113181Y-52486972D01*
X130955048Y-52645104D01*
X130955042Y-52645111D01*
X130791416Y-52858354D01*
X130657019Y-53091133D01*
X130657011Y-53091149D01*
X130554152Y-53339475D01*
X130484585Y-53599106D01*
X130484582Y-53599119D01*
X130449500Y-53865602D01*
X130449500Y-54134397D01*
X130484582Y-54400880D01*
X130484583Y-54400885D01*
X130484584Y-54400891D01*
X130493562Y-54434397D01*
X130554152Y-54660524D01*
X130657011Y-54908850D01*
X130657019Y-54908866D01*
X130737830Y-55048832D01*
X130791413Y-55141641D01*
X130791415Y-55141644D01*
X130791416Y-55141645D01*
X130955042Y-55354888D01*
X130955048Y-55354895D01*
X131145104Y-55544951D01*
X131145110Y-55544956D01*
X131358359Y-55708587D01*
X131507968Y-55794964D01*
X131591133Y-55842980D01*
X131591149Y-55842988D01*
X131746008Y-55907132D01*
X131839474Y-55945847D01*
X132099109Y-56015416D01*
X132287319Y-56040193D01*
X132365602Y-56050500D01*
X132365603Y-56050500D01*
X132634398Y-56050500D01*
X132694905Y-56042534D01*
X132900891Y-56015416D01*
X133160526Y-55945847D01*
X133404096Y-55844957D01*
X133408850Y-55842988D01*
X133408853Y-55842986D01*
X133408859Y-55842984D01*
X133641641Y-55708587D01*
X133854890Y-55544956D01*
X134044956Y-55354890D01*
X134208587Y-55141641D01*
X134342984Y-54908859D01*
X134353381Y-54883760D01*
X134429127Y-54700891D01*
X134445847Y-54660526D01*
X134515416Y-54400891D01*
X134550500Y-54134397D01*
X134550500Y-53865603D01*
X134515416Y-53599109D01*
X134445847Y-53339474D01*
X134349893Y-53107820D01*
X134342988Y-53091149D01*
X134342980Y-53091133D01*
X134258673Y-52945111D01*
X134208587Y-52858359D01*
X134044956Y-52645110D01*
X134044951Y-52645104D01*
X133886819Y-52486972D01*
X133853334Y-52425649D01*
X133850500Y-52399291D01*
X133850500Y-51713713D01*
X135049500Y-51713713D01*
X135049500Y-70806286D01*
X135082622Y-71015414D01*
X135082754Y-71016243D01*
X135136115Y-71180472D01*
X135148444Y-71218414D01*
X135244951Y-71407820D01*
X135369889Y-71579784D01*
X135369893Y-71579788D01*
X135369896Y-71579792D01*
X135465155Y-71675051D01*
X135524538Y-71734434D01*
X135524549Y-71734444D01*
X137820209Y-74030105D01*
X137820213Y-74030109D01*
X137992179Y-74155048D01*
X137992181Y-74155049D01*
X137992184Y-74155051D01*
X138181588Y-74251557D01*
X138383757Y-74317246D01*
X138593713Y-74350500D01*
X138806286Y-74350500D01*
X140190515Y-74350500D01*
X140257554Y-74370185D01*
X140263393Y-74374177D01*
X140314949Y-74411634D01*
X140424312Y-74467357D01*
X140546423Y-74529577D01*
X140546425Y-74529577D01*
X140546428Y-74529579D01*
X140793507Y-74609860D01*
X140925706Y-74630797D01*
X141050098Y-74650500D01*
X141050103Y-74650500D01*
X141309902Y-74650500D01*
X141423298Y-74632539D01*
X141566493Y-74609860D01*
X141813572Y-74529579D01*
X142045051Y-74411634D01*
X142255229Y-74258931D01*
X142438931Y-74075229D01*
X142591634Y-73865051D01*
X142709579Y-73633572D01*
X142789860Y-73386493D01*
X142812539Y-73243298D01*
X142830500Y-73129902D01*
X142830500Y-72870097D01*
X142808294Y-72729895D01*
X142789860Y-72613507D01*
X142709579Y-72366428D01*
X142709577Y-72366425D01*
X142709577Y-72366423D01*
X142635802Y-72221633D01*
X142591634Y-72134949D01*
X142438931Y-71924771D01*
X142255229Y-71741069D01*
X142255225Y-71741066D01*
X142045054Y-71588368D01*
X142045053Y-71588367D01*
X142045051Y-71588366D01*
X141972764Y-71551534D01*
X141813576Y-71470422D01*
X141566493Y-71390140D01*
X141309902Y-71349500D01*
X141309897Y-71349500D01*
X141050103Y-71349500D01*
X141050098Y-71349500D01*
X140793506Y-71390140D01*
X140546423Y-71470422D01*
X140314948Y-71588366D01*
X140263401Y-71625818D01*
X140197594Y-71649298D01*
X140190515Y-71649500D01*
X139310758Y-71649500D01*
X139243719Y-71629815D01*
X139223077Y-71613181D01*
X137786819Y-70176923D01*
X137753334Y-70115600D01*
X137750500Y-70089242D01*
X137750500Y-67668161D01*
X137770185Y-67601122D01*
X137822989Y-67555367D01*
X137892147Y-67545423D01*
X137955703Y-67574448D01*
X137974818Y-67595275D01*
X137999896Y-67629792D01*
X138125146Y-67755042D01*
X138154538Y-67784434D01*
X138154549Y-67784444D01*
X139525379Y-69155275D01*
X139558864Y-69216598D01*
X139560171Y-69223556D01*
X139570139Y-69286491D01*
X139570140Y-69286493D01*
X139650421Y-69533572D01*
X139752937Y-69734771D01*
X139768368Y-69765054D01*
X139899069Y-69944949D01*
X139921069Y-69975229D01*
X140104771Y-70158931D01*
X140314949Y-70311634D01*
X140462445Y-70386787D01*
X140546423Y-70429577D01*
X140546425Y-70429577D01*
X140546428Y-70429579D01*
X140793507Y-70509860D01*
X140925706Y-70530797D01*
X141050098Y-70550500D01*
X141050103Y-70550500D01*
X141309902Y-70550500D01*
X141423298Y-70532539D01*
X141566493Y-70509860D01*
X141813572Y-70429579D01*
X142045051Y-70311634D01*
X142255229Y-70158931D01*
X142438931Y-69975229D01*
X142591634Y-69765051D01*
X142709579Y-69533572D01*
X142789860Y-69286493D01*
X142821101Y-69089242D01*
X142830500Y-69029902D01*
X142830500Y-68770097D01*
X142803417Y-68599106D01*
X142789860Y-68513507D01*
X142709579Y-68266428D01*
X142709577Y-68266425D01*
X142709577Y-68266423D01*
X142620261Y-68091133D01*
X142591634Y-68034949D01*
X142438931Y-67824771D01*
X142255229Y-67641069D01*
X142190049Y-67593713D01*
X142045054Y-67488368D01*
X142045053Y-67488367D01*
X142045051Y-67488366D01*
X141813572Y-67370421D01*
X141690032Y-67330280D01*
X141566491Y-67290139D01*
X141503556Y-67280171D01*
X141440422Y-67250241D01*
X141435275Y-67245379D01*
X141139396Y-66949500D01*
X140833146Y-66643251D01*
X140799662Y-66581929D01*
X140804646Y-66512238D01*
X140846517Y-66456304D01*
X140911982Y-66431887D01*
X140940226Y-66433098D01*
X141050098Y-66450500D01*
X141050103Y-66450500D01*
X141309902Y-66450500D01*
X141427417Y-66431887D01*
X141566493Y-66409860D01*
X141813572Y-66329579D01*
X142045051Y-66211634D01*
X142255229Y-66058931D01*
X142438931Y-65875229D01*
X142591634Y-65665051D01*
X142709579Y-65433572D01*
X142789860Y-65186493D01*
X142820197Y-64994949D01*
X142830500Y-64929902D01*
X142830500Y-64670097D01*
X142804797Y-64507816D01*
X142789860Y-64413507D01*
X142709579Y-64166428D01*
X142709577Y-64166425D01*
X142709577Y-64166423D01*
X142647357Y-64044312D01*
X142591634Y-63934949D01*
X142554181Y-63883400D01*
X142530702Y-63817594D01*
X142530500Y-63810515D01*
X142530500Y-62865757D01*
X142550185Y-62798718D01*
X142566819Y-62778076D01*
X143144380Y-62200515D01*
X143829482Y-61515412D01*
X143890803Y-61481929D01*
X143900960Y-61480158D01*
X143967463Y-61471404D01*
X144182781Y-61413710D01*
X144388726Y-61328405D01*
X144581774Y-61216948D01*
X144758624Y-61081247D01*
X144916247Y-60923624D01*
X145051948Y-60746774D01*
X145163405Y-60553726D01*
X145248710Y-60347781D01*
X145306404Y-60132463D01*
X145335500Y-59911457D01*
X145335500Y-59688543D01*
X145306404Y-59467537D01*
X145248710Y-59252219D01*
X145163405Y-59046274D01*
X145051948Y-58853226D01*
X145011123Y-58800021D01*
X144985930Y-58734851D01*
X144985500Y-58724536D01*
X144985500Y-55355757D01*
X145005185Y-55288718D01*
X145021819Y-55268076D01*
X148012972Y-52276923D01*
X151009493Y-49280401D01*
X151070814Y-49246918D01*
X151113353Y-49245145D01*
X151284543Y-49267683D01*
X151305924Y-49270498D01*
X151305940Y-49270500D01*
X151305947Y-49270500D01*
X151614053Y-49270500D01*
X151614060Y-49270500D01*
X151919544Y-49230282D01*
X152217164Y-49150535D01*
X152501830Y-49032622D01*
X152768670Y-48878562D01*
X153013117Y-48690991D01*
X153230991Y-48473117D01*
X153418562Y-48228670D01*
X153572622Y-47961830D01*
X153690535Y-47677164D01*
X153770282Y-47379544D01*
X153810500Y-47074060D01*
X153810500Y-46765940D01*
X153770282Y-46460456D01*
X153690535Y-46162836D01*
X153572622Y-45878170D01*
X153572620Y-45878167D01*
X153572618Y-45878162D01*
X153507254Y-45764949D01*
X153418562Y-45611330D01*
X153230991Y-45366883D01*
X153230986Y-45366877D01*
X153013122Y-45149013D01*
X153013115Y-45149007D01*
X152768674Y-44961441D01*
X152768673Y-44961440D01*
X152768670Y-44961438D01*
X152662280Y-44900014D01*
X152501837Y-44807381D01*
X152501826Y-44807376D01*
X152217162Y-44689464D01*
X151919542Y-44609717D01*
X151614069Y-44569501D01*
X151614066Y-44569500D01*
X151614060Y-44569500D01*
X151305940Y-44569500D01*
X151305934Y-44569500D01*
X151305930Y-44569501D01*
X151000457Y-44609717D01*
X150702837Y-44689464D01*
X150418173Y-44807376D01*
X150418162Y-44807381D01*
X150168772Y-44951367D01*
X150155122Y-44959249D01*
X150151325Y-44961441D01*
X149906884Y-45149007D01*
X149906877Y-45149013D01*
X149689013Y-45366877D01*
X149689007Y-45366884D01*
X149501441Y-45611325D01*
X149347381Y-45878162D01*
X149347376Y-45878173D01*
X149229464Y-46162837D01*
X149149717Y-46460457D01*
X149109501Y-46765930D01*
X149109500Y-46765946D01*
X149109500Y-47074060D01*
X149134853Y-47266641D01*
X149124087Y-47335676D01*
X149099595Y-47370507D01*
X148871000Y-47599102D01*
X148809677Y-47632587D01*
X148739985Y-47627603D01*
X148684052Y-47585731D01*
X148659635Y-47520267D01*
X148663543Y-47479334D01*
X148690282Y-47379544D01*
X148730500Y-47074060D01*
X148730500Y-46765940D01*
X148690282Y-46460456D01*
X148610535Y-46162836D01*
X148492622Y-45878170D01*
X148492620Y-45878167D01*
X148492618Y-45878162D01*
X148427254Y-45764949D01*
X148338562Y-45611330D01*
X148150991Y-45366883D01*
X148150986Y-45366877D01*
X147933122Y-45149013D01*
X147933115Y-45149007D01*
X147688674Y-44961441D01*
X147688673Y-44961440D01*
X147688670Y-44961438D01*
X147582280Y-44900014D01*
X147421837Y-44807381D01*
X147421826Y-44807376D01*
X147137162Y-44689464D01*
X146839542Y-44609717D01*
X146534069Y-44569501D01*
X146534066Y-44569500D01*
X146534060Y-44569500D01*
X146225940Y-44569500D01*
X146225934Y-44569500D01*
X146225930Y-44569501D01*
X145920457Y-44609717D01*
X145622837Y-44689464D01*
X145338173Y-44807376D01*
X145338162Y-44807381D01*
X145088772Y-44951367D01*
X145075122Y-44959249D01*
X145071325Y-44961441D01*
X144826884Y-45149007D01*
X144826877Y-45149013D01*
X144609013Y-45366877D01*
X144609007Y-45366884D01*
X144421441Y-45611325D01*
X144267381Y-45878162D01*
X144267376Y-45878173D01*
X144149464Y-46162837D01*
X144069717Y-46460457D01*
X144029501Y-46765930D01*
X144029500Y-46765946D01*
X144029500Y-47074060D01*
X144054853Y-47266642D01*
X144044087Y-47335677D01*
X144019597Y-47370507D01*
X143862180Y-47527923D01*
X143800858Y-47561408D01*
X143731167Y-47556424D01*
X143675233Y-47514553D01*
X143650816Y-47449088D01*
X143650500Y-47440242D01*
X143650500Y-45346048D01*
X143650500Y-45346046D01*
X143647683Y-45304505D01*
X143603037Y-45124979D01*
X143520842Y-44959247D01*
X143440578Y-44859395D01*
X143404940Y-44815059D01*
X143302785Y-44732945D01*
X143260753Y-44699158D01*
X143260751Y-44699157D01*
X143260750Y-44699156D01*
X143095023Y-44616964D01*
X143095021Y-44616963D01*
X142915497Y-44572317D01*
X142915501Y-44572317D01*
X142884339Y-44570204D01*
X142873954Y-44569500D01*
X139726046Y-44569500D01*
X139714177Y-44570304D01*
X139684500Y-44572317D01*
X139504978Y-44616963D01*
X139504976Y-44616964D01*
X139339249Y-44699156D01*
X139195059Y-44815059D01*
X139079156Y-44959249D01*
X138996964Y-45124976D01*
X138996963Y-45124978D01*
X138952317Y-45304500D01*
X138949500Y-45346048D01*
X138949500Y-47309242D01*
X138929815Y-47376281D01*
X138913181Y-47396923D01*
X135369894Y-50940209D01*
X135369890Y-50940213D01*
X135244951Y-51112179D01*
X135148444Y-51301585D01*
X135082753Y-51503760D01*
X135049500Y-51713713D01*
X133850500Y-51713713D01*
X133850500Y-50411422D01*
X133850501Y-50411397D01*
X133850501Y-50193714D01*
X133817246Y-49983760D01*
X133817246Y-49983757D01*
X133751557Y-49781588D01*
X133655051Y-49592184D01*
X133655049Y-49592181D01*
X133655048Y-49592179D01*
X133530110Y-49420215D01*
X133530106Y-49420211D01*
X133530104Y-49420208D01*
X133379792Y-49269896D01*
X133379791Y-49269895D01*
X133376680Y-49266784D01*
X133376665Y-49266770D01*
X130154444Y-46044549D01*
X130154435Y-46044539D01*
X130150104Y-46040208D01*
X129999792Y-45889896D01*
X129999788Y-45889893D01*
X129999784Y-45889889D01*
X129827820Y-45764951D01*
X129638414Y-45668444D01*
X129638413Y-45668443D01*
X129638412Y-45668443D01*
X129436243Y-45602754D01*
X129436241Y-45602753D01*
X129436240Y-45602753D01*
X129274957Y-45577208D01*
X129226287Y-45569500D01*
X129226286Y-45569500D01*
X124934500Y-45569500D01*
X124867461Y-45549815D01*
X124821706Y-45497011D01*
X124810500Y-45445500D01*
X124810500Y-45346048D01*
X124810500Y-45346046D01*
X124807683Y-45304505D01*
X124763037Y-45124979D01*
X124680842Y-44959247D01*
X124600578Y-44859395D01*
X124564940Y-44815059D01*
X124462785Y-44732945D01*
X124420753Y-44699158D01*
X124420751Y-44699157D01*
X124420750Y-44699156D01*
X124255023Y-44616964D01*
X124255021Y-44616963D01*
X124075497Y-44572317D01*
X124075501Y-44572317D01*
X124044339Y-44570204D01*
X124033954Y-44569500D01*
X120886046Y-44569500D01*
X120874177Y-44570304D01*
X120844500Y-44572317D01*
X120664978Y-44616963D01*
X120664976Y-44616964D01*
X120499249Y-44699156D01*
X120355059Y-44815059D01*
X120239156Y-44959249D01*
X120156964Y-45124976D01*
X120156963Y-45124978D01*
X120112317Y-45304500D01*
X120109500Y-45346048D01*
X111810500Y-45346048D01*
X111810500Y-45346046D01*
X111807683Y-45304505D01*
X111763037Y-45124979D01*
X111680842Y-44959247D01*
X111600578Y-44859395D01*
X111564940Y-44815059D01*
X111462785Y-44732945D01*
X111420753Y-44699158D01*
X111420751Y-44699157D01*
X111420750Y-44699156D01*
X111255023Y-44616964D01*
X111255021Y-44616963D01*
X111075497Y-44572317D01*
X111075501Y-44572317D01*
X111044339Y-44570204D01*
X111033954Y-44569500D01*
X107886046Y-44569500D01*
X107874177Y-44570304D01*
X107844500Y-44572317D01*
X107664978Y-44616963D01*
X107664976Y-44616964D01*
X107499249Y-44699156D01*
X107355059Y-44815059D01*
X107239156Y-44959249D01*
X107156964Y-45124976D01*
X107156963Y-45124978D01*
X107112317Y-45304500D01*
X107109500Y-45346048D01*
X107109500Y-47309242D01*
X107089815Y-47376281D01*
X107073181Y-47396923D01*
X102469894Y-52000209D01*
X102469890Y-52000213D01*
X102344951Y-52172179D01*
X102248444Y-52361585D01*
X102182753Y-52563759D01*
X102160141Y-52706522D01*
X102130211Y-52769656D01*
X102125349Y-52774804D01*
X101955048Y-52945104D01*
X101955042Y-52945111D01*
X101791416Y-53158354D01*
X101657019Y-53391133D01*
X101657011Y-53391149D01*
X101554152Y-53639475D01*
X101524112Y-53751588D01*
X101493668Y-53865209D01*
X101484585Y-53899106D01*
X101484582Y-53899119D01*
X101449500Y-54165602D01*
X85300500Y-54165602D01*
X85300500Y-40903051D01*
X85300649Y-40896967D01*
X85317052Y-40563072D01*
X85318245Y-40550962D01*
X85366849Y-40223296D01*
X85369218Y-40211385D01*
X85449710Y-39890043D01*
X85453240Y-39878411D01*
X85499743Y-39748444D01*
X85564835Y-39566525D01*
X85569476Y-39555318D01*
X85711124Y-39255828D01*
X85716840Y-39245136D01*
X85887145Y-38960998D01*
X85893888Y-38950905D01*
X86091232Y-38684818D01*
X86098935Y-38675433D01*
X86321405Y-38429975D01*
X86329975Y-38421405D01*
X86575433Y-38198935D01*
X86584818Y-38191232D01*
X86850905Y-37993888D01*
X86860998Y-37987145D01*
X87145136Y-37816840D01*
X87155828Y-37811124D01*
X87455318Y-37669476D01*
X87466525Y-37664835D01*
X87778412Y-37553239D01*
X87790043Y-37549710D01*
X88111385Y-37469218D01*
X88123296Y-37466849D01*
X88450962Y-37418244D01*
X88463068Y-37417052D01*
X88796967Y-37400648D01*
X88803051Y-37400500D01*
X88865892Y-37400500D01*
X177634108Y-37400500D01*
X177696949Y-37400500D01*
X177703032Y-37400648D01*
G37*
%TD.AperFunction*%
%TD*%
M02*
