%TF.GenerationSoftware,KiCad,Pcbnew,10.0.4*%
%TF.CreationDate,2026-08-14T12:06:55+02:00*%
%TF.ProjectId,subxo,73756278-6f2e-46b6-9963-61645f706362,rev?*%
%TF.SameCoordinates,Original*%
%TF.FileFunction,AssemblyDrawing,Top*%
%FSLAX46Y46*%
G04 Gerber Fmt 4.6, Leading zero omitted, Abs format (unit mm)*
G04 Created by KiCad (PCBNEW 10.0.4) date 2026-08-14 12:06:55*
%MOMM*%
%LPD*%
G01*
G04 APERTURE LIST*
%ADD10C,0.150000*%
%ADD11C,0.100000*%
%ADD12C,0.120000*%
G04 APERTURE END LIST*
D10*
X185604819Y-130666666D02*
X185604819Y-131142856D01*
X185604819Y-131142856D02*
X184604819Y-131142856D01*
X185604819Y-130333332D02*
X184604819Y-130333332D01*
X184604819Y-130333332D02*
X185319104Y-129999999D01*
X185319104Y-129999999D02*
X184604819Y-129666666D01*
X184604819Y-129666666D02*
X185604819Y-129666666D01*
X184604819Y-129285713D02*
X184604819Y-128619047D01*
X184604819Y-128619047D02*
X185604819Y-129047618D01*
X185033390Y-128095237D02*
X184985771Y-128190475D01*
X184985771Y-128190475D02*
X184938152Y-128238094D01*
X184938152Y-128238094D02*
X184842914Y-128285713D01*
X184842914Y-128285713D02*
X184795295Y-128285713D01*
X184795295Y-128285713D02*
X184700057Y-128238094D01*
X184700057Y-128238094D02*
X184652438Y-128190475D01*
X184652438Y-128190475D02*
X184604819Y-128095237D01*
X184604819Y-128095237D02*
X184604819Y-127904761D01*
X184604819Y-127904761D02*
X184652438Y-127809523D01*
X184652438Y-127809523D02*
X184700057Y-127761904D01*
X184700057Y-127761904D02*
X184795295Y-127714285D01*
X184795295Y-127714285D02*
X184842914Y-127714285D01*
X184842914Y-127714285D02*
X184938152Y-127761904D01*
X184938152Y-127761904D02*
X184985771Y-127809523D01*
X184985771Y-127809523D02*
X185033390Y-127904761D01*
X185033390Y-127904761D02*
X185033390Y-128095237D01*
X185033390Y-128095237D02*
X185081009Y-128190475D01*
X185081009Y-128190475D02*
X185128628Y-128238094D01*
X185128628Y-128238094D02*
X185223866Y-128285713D01*
X185223866Y-128285713D02*
X185414342Y-128285713D01*
X185414342Y-128285713D02*
X185509580Y-128238094D01*
X185509580Y-128238094D02*
X185557200Y-128190475D01*
X185557200Y-128190475D02*
X185604819Y-128095237D01*
X185604819Y-128095237D02*
X185604819Y-127904761D01*
X185604819Y-127904761D02*
X185557200Y-127809523D01*
X185557200Y-127809523D02*
X185509580Y-127761904D01*
X185509580Y-127761904D02*
X185414342Y-127714285D01*
X185414342Y-127714285D02*
X185223866Y-127714285D01*
X185223866Y-127714285D02*
X185128628Y-127761904D01*
X185128628Y-127761904D02*
X185081009Y-127809523D01*
X185081009Y-127809523D02*
X185033390Y-127904761D01*
X185604819Y-126761904D02*
X185604819Y-127333332D01*
X185604819Y-127047618D02*
X184604819Y-127047618D01*
X184604819Y-127047618D02*
X184747676Y-127142856D01*
X184747676Y-127142856D02*
X184842914Y-127238094D01*
X184842914Y-127238094D02*
X184890533Y-127333332D01*
X184700057Y-126380951D02*
X184652438Y-126333332D01*
X184652438Y-126333332D02*
X184604819Y-126238094D01*
X184604819Y-126238094D02*
X184604819Y-125999999D01*
X184604819Y-125999999D02*
X184652438Y-125904761D01*
X184652438Y-125904761D02*
X184700057Y-125857142D01*
X184700057Y-125857142D02*
X184795295Y-125809523D01*
X184795295Y-125809523D02*
X184890533Y-125809523D01*
X184890533Y-125809523D02*
X185033390Y-125857142D01*
X185033390Y-125857142D02*
X185604819Y-126428570D01*
X185604819Y-126428570D02*
X185604819Y-125809523D01*
X181454819Y-129261904D02*
X182264342Y-129261904D01*
X182264342Y-129261904D02*
X182359580Y-129214285D01*
X182359580Y-129214285D02*
X182407200Y-129166666D01*
X182407200Y-129166666D02*
X182454819Y-129071428D01*
X182454819Y-129071428D02*
X182454819Y-128880952D01*
X182454819Y-128880952D02*
X182407200Y-128785714D01*
X182407200Y-128785714D02*
X182359580Y-128738095D01*
X182359580Y-128738095D02*
X182264342Y-128690476D01*
X182264342Y-128690476D02*
X181454819Y-128690476D01*
X181550057Y-128261904D02*
X181502438Y-128214285D01*
X181502438Y-128214285D02*
X181454819Y-128119047D01*
X181454819Y-128119047D02*
X181454819Y-127880952D01*
X181454819Y-127880952D02*
X181502438Y-127785714D01*
X181502438Y-127785714D02*
X181550057Y-127738095D01*
X181550057Y-127738095D02*
X181645295Y-127690476D01*
X181645295Y-127690476D02*
X181740533Y-127690476D01*
X181740533Y-127690476D02*
X181883390Y-127738095D01*
X181883390Y-127738095D02*
X182454819Y-128309523D01*
X182454819Y-128309523D02*
X182454819Y-127690476D01*
X177704819Y-114320081D02*
X177704819Y-114891509D01*
X177704819Y-114605795D02*
X176704819Y-114605795D01*
X176704819Y-114605795D02*
X176847676Y-114701033D01*
X176847676Y-114701033D02*
X176942914Y-114796271D01*
X176942914Y-114796271D02*
X176990533Y-114891509D01*
X176704819Y-113701033D02*
X176704819Y-113605795D01*
X176704819Y-113605795D02*
X176752438Y-113510557D01*
X176752438Y-113510557D02*
X176800057Y-113462938D01*
X176800057Y-113462938D02*
X176895295Y-113415319D01*
X176895295Y-113415319D02*
X177085771Y-113367700D01*
X177085771Y-113367700D02*
X177323866Y-113367700D01*
X177323866Y-113367700D02*
X177514342Y-113415319D01*
X177514342Y-113415319D02*
X177609580Y-113462938D01*
X177609580Y-113462938D02*
X177657200Y-113510557D01*
X177657200Y-113510557D02*
X177704819Y-113605795D01*
X177704819Y-113605795D02*
X177704819Y-113701033D01*
X177704819Y-113701033D02*
X177657200Y-113796271D01*
X177657200Y-113796271D02*
X177609580Y-113843890D01*
X177609580Y-113843890D02*
X177514342Y-113891509D01*
X177514342Y-113891509D02*
X177323866Y-113939128D01*
X177323866Y-113939128D02*
X177085771Y-113939128D01*
X177085771Y-113939128D02*
X176895295Y-113891509D01*
X176895295Y-113891509D02*
X176800057Y-113843890D01*
X176800057Y-113843890D02*
X176752438Y-113796271D01*
X176752438Y-113796271D02*
X176704819Y-113701033D01*
X176704819Y-112748652D02*
X176704819Y-112653414D01*
X176704819Y-112653414D02*
X176752438Y-112558176D01*
X176752438Y-112558176D02*
X176800057Y-112510557D01*
X176800057Y-112510557D02*
X176895295Y-112462938D01*
X176895295Y-112462938D02*
X177085771Y-112415319D01*
X177085771Y-112415319D02*
X177323866Y-112415319D01*
X177323866Y-112415319D02*
X177514342Y-112462938D01*
X177514342Y-112462938D02*
X177609580Y-112510557D01*
X177609580Y-112510557D02*
X177657200Y-112558176D01*
X177657200Y-112558176D02*
X177704819Y-112653414D01*
X177704819Y-112653414D02*
X177704819Y-112748652D01*
X177704819Y-112748652D02*
X177657200Y-112843890D01*
X177657200Y-112843890D02*
X177609580Y-112891509D01*
X177609580Y-112891509D02*
X177514342Y-112939128D01*
X177514342Y-112939128D02*
X177323866Y-112986747D01*
X177323866Y-112986747D02*
X177085771Y-112986747D01*
X177085771Y-112986747D02*
X176895295Y-112939128D01*
X176895295Y-112939128D02*
X176800057Y-112891509D01*
X176800057Y-112891509D02*
X176752438Y-112843890D01*
X176752438Y-112843890D02*
X176704819Y-112748652D01*
X177038152Y-111558176D02*
X177704819Y-111558176D01*
X177038152Y-111986747D02*
X177561961Y-111986747D01*
X177561961Y-111986747D02*
X177657200Y-111939128D01*
X177657200Y-111939128D02*
X177704819Y-111843890D01*
X177704819Y-111843890D02*
X177704819Y-111701033D01*
X177704819Y-111701033D02*
X177657200Y-111605795D01*
X177657200Y-111605795D02*
X177609580Y-111558176D01*
X177181009Y-110748652D02*
X177181009Y-111081985D01*
X177704819Y-111081985D02*
X176704819Y-111081985D01*
X176704819Y-111081985D02*
X176704819Y-110605795D01*
X176657200Y-109510557D02*
X177942914Y-110367699D01*
X176704819Y-108701033D02*
X176704819Y-109177223D01*
X176704819Y-109177223D02*
X177181009Y-109224842D01*
X177181009Y-109224842D02*
X177133390Y-109177223D01*
X177133390Y-109177223D02*
X177085771Y-109081985D01*
X177085771Y-109081985D02*
X177085771Y-108843890D01*
X177085771Y-108843890D02*
X177133390Y-108748652D01*
X177133390Y-108748652D02*
X177181009Y-108701033D01*
X177181009Y-108701033D02*
X177276247Y-108653414D01*
X177276247Y-108653414D02*
X177514342Y-108653414D01*
X177514342Y-108653414D02*
X177609580Y-108701033D01*
X177609580Y-108701033D02*
X177657200Y-108748652D01*
X177657200Y-108748652D02*
X177704819Y-108843890D01*
X177704819Y-108843890D02*
X177704819Y-109081985D01*
X177704819Y-109081985D02*
X177657200Y-109177223D01*
X177657200Y-109177223D02*
X177609580Y-109224842D01*
X176704819Y-108034366D02*
X176704819Y-107939128D01*
X176704819Y-107939128D02*
X176752438Y-107843890D01*
X176752438Y-107843890D02*
X176800057Y-107796271D01*
X176800057Y-107796271D02*
X176895295Y-107748652D01*
X176895295Y-107748652D02*
X177085771Y-107701033D01*
X177085771Y-107701033D02*
X177323866Y-107701033D01*
X177323866Y-107701033D02*
X177514342Y-107748652D01*
X177514342Y-107748652D02*
X177609580Y-107796271D01*
X177609580Y-107796271D02*
X177657200Y-107843890D01*
X177657200Y-107843890D02*
X177704819Y-107939128D01*
X177704819Y-107939128D02*
X177704819Y-108034366D01*
X177704819Y-108034366D02*
X177657200Y-108129604D01*
X177657200Y-108129604D02*
X177609580Y-108177223D01*
X177609580Y-108177223D02*
X177514342Y-108224842D01*
X177514342Y-108224842D02*
X177323866Y-108272461D01*
X177323866Y-108272461D02*
X177085771Y-108272461D01*
X177085771Y-108272461D02*
X176895295Y-108224842D01*
X176895295Y-108224842D02*
X176800057Y-108177223D01*
X176800057Y-108177223D02*
X176752438Y-108129604D01*
X176752438Y-108129604D02*
X176704819Y-108034366D01*
X176704819Y-107415318D02*
X177704819Y-107081985D01*
X177704819Y-107081985D02*
X176704819Y-106748652D01*
X171359580Y-111510557D02*
X171407200Y-111558176D01*
X171407200Y-111558176D02*
X171454819Y-111701033D01*
X171454819Y-111701033D02*
X171454819Y-111796271D01*
X171454819Y-111796271D02*
X171407200Y-111939128D01*
X171407200Y-111939128D02*
X171311961Y-112034366D01*
X171311961Y-112034366D02*
X171216723Y-112081985D01*
X171216723Y-112081985D02*
X171026247Y-112129604D01*
X171026247Y-112129604D02*
X170883390Y-112129604D01*
X170883390Y-112129604D02*
X170692914Y-112081985D01*
X170692914Y-112081985D02*
X170597676Y-112034366D01*
X170597676Y-112034366D02*
X170502438Y-111939128D01*
X170502438Y-111939128D02*
X170454819Y-111796271D01*
X170454819Y-111796271D02*
X170454819Y-111701033D01*
X170454819Y-111701033D02*
X170502438Y-111558176D01*
X170502438Y-111558176D02*
X170550057Y-111510557D01*
X171454819Y-110558176D02*
X171454819Y-111129604D01*
X171454819Y-110843890D02*
X170454819Y-110843890D01*
X170454819Y-110843890D02*
X170597676Y-110939128D01*
X170597676Y-110939128D02*
X170692914Y-111034366D01*
X170692914Y-111034366D02*
X170740533Y-111129604D01*
X171454819Y-109605795D02*
X171454819Y-110177223D01*
X171454819Y-109891509D02*
X170454819Y-109891509D01*
X170454819Y-109891509D02*
X170597676Y-109986747D01*
X170597676Y-109986747D02*
X170692914Y-110081985D01*
X170692914Y-110081985D02*
X170740533Y-110177223D01*
X165426509Y-123204819D02*
X164855081Y-123204819D01*
X165140795Y-123204819D02*
X165140795Y-122204819D01*
X165140795Y-122204819D02*
X165045557Y-122347676D01*
X165045557Y-122347676D02*
X164950319Y-122442914D01*
X164950319Y-122442914D02*
X164855081Y-122490533D01*
X166045557Y-122204819D02*
X166140795Y-122204819D01*
X166140795Y-122204819D02*
X166236033Y-122252438D01*
X166236033Y-122252438D02*
X166283652Y-122300057D01*
X166283652Y-122300057D02*
X166331271Y-122395295D01*
X166331271Y-122395295D02*
X166378890Y-122585771D01*
X166378890Y-122585771D02*
X166378890Y-122823866D01*
X166378890Y-122823866D02*
X166331271Y-123014342D01*
X166331271Y-123014342D02*
X166283652Y-123109580D01*
X166283652Y-123109580D02*
X166236033Y-123157200D01*
X166236033Y-123157200D02*
X166140795Y-123204819D01*
X166140795Y-123204819D02*
X166045557Y-123204819D01*
X166045557Y-123204819D02*
X165950319Y-123157200D01*
X165950319Y-123157200D02*
X165902700Y-123109580D01*
X165902700Y-123109580D02*
X165855081Y-123014342D01*
X165855081Y-123014342D02*
X165807462Y-122823866D01*
X165807462Y-122823866D02*
X165807462Y-122585771D01*
X165807462Y-122585771D02*
X165855081Y-122395295D01*
X165855081Y-122395295D02*
X165902700Y-122300057D01*
X165902700Y-122300057D02*
X165950319Y-122252438D01*
X165950319Y-122252438D02*
X166045557Y-122204819D01*
X167236033Y-122538152D02*
X167236033Y-123204819D01*
X166807462Y-122538152D02*
X166807462Y-123061961D01*
X166807462Y-123061961D02*
X166855081Y-123157200D01*
X166855081Y-123157200D02*
X166950319Y-123204819D01*
X166950319Y-123204819D02*
X167093176Y-123204819D01*
X167093176Y-123204819D02*
X167188414Y-123157200D01*
X167188414Y-123157200D02*
X167236033Y-123109580D01*
X168045557Y-122681009D02*
X167712224Y-122681009D01*
X167712224Y-123204819D02*
X167712224Y-122204819D01*
X167712224Y-122204819D02*
X168188414Y-122204819D01*
X169283652Y-122157200D02*
X168426510Y-123442914D01*
X170093176Y-122204819D02*
X169616986Y-122204819D01*
X169616986Y-122204819D02*
X169569367Y-122681009D01*
X169569367Y-122681009D02*
X169616986Y-122633390D01*
X169616986Y-122633390D02*
X169712224Y-122585771D01*
X169712224Y-122585771D02*
X169950319Y-122585771D01*
X169950319Y-122585771D02*
X170045557Y-122633390D01*
X170045557Y-122633390D02*
X170093176Y-122681009D01*
X170093176Y-122681009D02*
X170140795Y-122776247D01*
X170140795Y-122776247D02*
X170140795Y-123014342D01*
X170140795Y-123014342D02*
X170093176Y-123109580D01*
X170093176Y-123109580D02*
X170045557Y-123157200D01*
X170045557Y-123157200D02*
X169950319Y-123204819D01*
X169950319Y-123204819D02*
X169712224Y-123204819D01*
X169712224Y-123204819D02*
X169616986Y-123157200D01*
X169616986Y-123157200D02*
X169569367Y-123109580D01*
X170759843Y-122204819D02*
X170855081Y-122204819D01*
X170855081Y-122204819D02*
X170950319Y-122252438D01*
X170950319Y-122252438D02*
X170997938Y-122300057D01*
X170997938Y-122300057D02*
X171045557Y-122395295D01*
X171045557Y-122395295D02*
X171093176Y-122585771D01*
X171093176Y-122585771D02*
X171093176Y-122823866D01*
X171093176Y-122823866D02*
X171045557Y-123014342D01*
X171045557Y-123014342D02*
X170997938Y-123109580D01*
X170997938Y-123109580D02*
X170950319Y-123157200D01*
X170950319Y-123157200D02*
X170855081Y-123204819D01*
X170855081Y-123204819D02*
X170759843Y-123204819D01*
X170759843Y-123204819D02*
X170664605Y-123157200D01*
X170664605Y-123157200D02*
X170616986Y-123109580D01*
X170616986Y-123109580D02*
X170569367Y-123014342D01*
X170569367Y-123014342D02*
X170521748Y-122823866D01*
X170521748Y-122823866D02*
X170521748Y-122585771D01*
X170521748Y-122585771D02*
X170569367Y-122395295D01*
X170569367Y-122395295D02*
X170616986Y-122300057D01*
X170616986Y-122300057D02*
X170664605Y-122252438D01*
X170664605Y-122252438D02*
X170759843Y-122204819D01*
X171378891Y-122204819D02*
X171712224Y-123204819D01*
X171712224Y-123204819D02*
X172045557Y-122204819D01*
X166664604Y-128359580D02*
X166616985Y-128407200D01*
X166616985Y-128407200D02*
X166474128Y-128454819D01*
X166474128Y-128454819D02*
X166378890Y-128454819D01*
X166378890Y-128454819D02*
X166236033Y-128407200D01*
X166236033Y-128407200D02*
X166140795Y-128311961D01*
X166140795Y-128311961D02*
X166093176Y-128216723D01*
X166093176Y-128216723D02*
X166045557Y-128026247D01*
X166045557Y-128026247D02*
X166045557Y-127883390D01*
X166045557Y-127883390D02*
X166093176Y-127692914D01*
X166093176Y-127692914D02*
X166140795Y-127597676D01*
X166140795Y-127597676D02*
X166236033Y-127502438D01*
X166236033Y-127502438D02*
X166378890Y-127454819D01*
X166378890Y-127454819D02*
X166474128Y-127454819D01*
X166474128Y-127454819D02*
X166616985Y-127502438D01*
X166616985Y-127502438D02*
X166664604Y-127550057D01*
X166855081Y-128550057D02*
X167616985Y-128550057D01*
X167997938Y-128454819D02*
X167902700Y-128407200D01*
X167902700Y-128407200D02*
X167855081Y-128359580D01*
X167855081Y-128359580D02*
X167807462Y-128264342D01*
X167807462Y-128264342D02*
X167807462Y-127978628D01*
X167807462Y-127978628D02*
X167855081Y-127883390D01*
X167855081Y-127883390D02*
X167902700Y-127835771D01*
X167902700Y-127835771D02*
X167997938Y-127788152D01*
X167997938Y-127788152D02*
X168140795Y-127788152D01*
X168140795Y-127788152D02*
X168236033Y-127835771D01*
X168236033Y-127835771D02*
X168283652Y-127883390D01*
X168283652Y-127883390D02*
X168331271Y-127978628D01*
X168331271Y-127978628D02*
X168331271Y-128264342D01*
X168331271Y-128264342D02*
X168283652Y-128359580D01*
X168283652Y-128359580D02*
X168236033Y-128407200D01*
X168236033Y-128407200D02*
X168140795Y-128454819D01*
X168140795Y-128454819D02*
X167997938Y-128454819D01*
X169188414Y-127788152D02*
X169188414Y-128454819D01*
X168759843Y-127788152D02*
X168759843Y-128311961D01*
X168759843Y-128311961D02*
X168807462Y-128407200D01*
X168807462Y-128407200D02*
X168902700Y-128454819D01*
X168902700Y-128454819D02*
X169045557Y-128454819D01*
X169045557Y-128454819D02*
X169140795Y-128407200D01*
X169140795Y-128407200D02*
X169188414Y-128359580D01*
X169521748Y-127788152D02*
X169902700Y-127788152D01*
X169664605Y-127454819D02*
X169664605Y-128311961D01*
X169664605Y-128311961D02*
X169712224Y-128407200D01*
X169712224Y-128407200D02*
X169807462Y-128454819D01*
X169807462Y-128454819D02*
X169902700Y-128454819D01*
X170759843Y-128454819D02*
X170188415Y-128454819D01*
X170474129Y-128454819D02*
X170474129Y-127454819D01*
X170474129Y-127454819D02*
X170378891Y-127597676D01*
X170378891Y-127597676D02*
X170283653Y-127692914D01*
X170283653Y-127692914D02*
X170188415Y-127740533D01*
X149824819Y-93095238D02*
X149824819Y-93666666D01*
X149824819Y-93380952D02*
X148824819Y-93380952D01*
X148824819Y-93380952D02*
X148967676Y-93476190D01*
X148967676Y-93476190D02*
X149062914Y-93571428D01*
X149062914Y-93571428D02*
X149110533Y-93666666D01*
X148824819Y-92476190D02*
X148824819Y-92380952D01*
X148824819Y-92380952D02*
X148872438Y-92285714D01*
X148872438Y-92285714D02*
X148920057Y-92238095D01*
X148920057Y-92238095D02*
X149015295Y-92190476D01*
X149015295Y-92190476D02*
X149205771Y-92142857D01*
X149205771Y-92142857D02*
X149443866Y-92142857D01*
X149443866Y-92142857D02*
X149634342Y-92190476D01*
X149634342Y-92190476D02*
X149729580Y-92238095D01*
X149729580Y-92238095D02*
X149777200Y-92285714D01*
X149777200Y-92285714D02*
X149824819Y-92380952D01*
X149824819Y-92380952D02*
X149824819Y-92476190D01*
X149824819Y-92476190D02*
X149777200Y-92571428D01*
X149777200Y-92571428D02*
X149729580Y-92619047D01*
X149729580Y-92619047D02*
X149634342Y-92666666D01*
X149634342Y-92666666D02*
X149443866Y-92714285D01*
X149443866Y-92714285D02*
X149205771Y-92714285D01*
X149205771Y-92714285D02*
X149015295Y-92666666D01*
X149015295Y-92666666D02*
X148920057Y-92619047D01*
X148920057Y-92619047D02*
X148872438Y-92571428D01*
X148872438Y-92571428D02*
X148824819Y-92476190D01*
X149824819Y-91714285D02*
X148824819Y-91714285D01*
X149443866Y-91619047D02*
X149824819Y-91333333D01*
X149158152Y-91333333D02*
X149539104Y-91714285D01*
X147454819Y-92666666D02*
X146978628Y-92999999D01*
X147454819Y-93238094D02*
X146454819Y-93238094D01*
X146454819Y-93238094D02*
X146454819Y-92857142D01*
X146454819Y-92857142D02*
X146502438Y-92761904D01*
X146502438Y-92761904D02*
X146550057Y-92714285D01*
X146550057Y-92714285D02*
X146645295Y-92666666D01*
X146645295Y-92666666D02*
X146788152Y-92666666D01*
X146788152Y-92666666D02*
X146883390Y-92714285D01*
X146883390Y-92714285D02*
X146931009Y-92761904D01*
X146931009Y-92761904D02*
X146978628Y-92857142D01*
X146978628Y-92857142D02*
X146978628Y-93238094D01*
X146454819Y-92333332D02*
X146454819Y-91714285D01*
X146454819Y-91714285D02*
X146835771Y-92047618D01*
X146835771Y-92047618D02*
X146835771Y-91904761D01*
X146835771Y-91904761D02*
X146883390Y-91809523D01*
X146883390Y-91809523D02*
X146931009Y-91761904D01*
X146931009Y-91761904D02*
X147026247Y-91714285D01*
X147026247Y-91714285D02*
X147264342Y-91714285D01*
X147264342Y-91714285D02*
X147359580Y-91761904D01*
X147359580Y-91761904D02*
X147407200Y-91809523D01*
X147407200Y-91809523D02*
X147454819Y-91904761D01*
X147454819Y-91904761D02*
X147454819Y-92190475D01*
X147454819Y-92190475D02*
X147407200Y-92285713D01*
X147407200Y-92285713D02*
X147359580Y-92333332D01*
X196454819Y-104952404D02*
X196454819Y-105523832D01*
X196454819Y-105238118D02*
X195454819Y-105238118D01*
X195454819Y-105238118D02*
X195597676Y-105333356D01*
X195597676Y-105333356D02*
X195692914Y-105428594D01*
X195692914Y-105428594D02*
X195740533Y-105523832D01*
X195454819Y-104333356D02*
X195454819Y-104238118D01*
X195454819Y-104238118D02*
X195502438Y-104142880D01*
X195502438Y-104142880D02*
X195550057Y-104095261D01*
X195550057Y-104095261D02*
X195645295Y-104047642D01*
X195645295Y-104047642D02*
X195835771Y-104000023D01*
X195835771Y-104000023D02*
X196073866Y-104000023D01*
X196073866Y-104000023D02*
X196264342Y-104047642D01*
X196264342Y-104047642D02*
X196359580Y-104095261D01*
X196359580Y-104095261D02*
X196407200Y-104142880D01*
X196407200Y-104142880D02*
X196454819Y-104238118D01*
X196454819Y-104238118D02*
X196454819Y-104333356D01*
X196454819Y-104333356D02*
X196407200Y-104428594D01*
X196407200Y-104428594D02*
X196359580Y-104476213D01*
X196359580Y-104476213D02*
X196264342Y-104523832D01*
X196264342Y-104523832D02*
X196073866Y-104571451D01*
X196073866Y-104571451D02*
X195835771Y-104571451D01*
X195835771Y-104571451D02*
X195645295Y-104523832D01*
X195645295Y-104523832D02*
X195550057Y-104476213D01*
X195550057Y-104476213D02*
X195502438Y-104428594D01*
X195502438Y-104428594D02*
X195454819Y-104333356D01*
X195454819Y-103380975D02*
X195454819Y-103285737D01*
X195454819Y-103285737D02*
X195502438Y-103190499D01*
X195502438Y-103190499D02*
X195550057Y-103142880D01*
X195550057Y-103142880D02*
X195645295Y-103095261D01*
X195645295Y-103095261D02*
X195835771Y-103047642D01*
X195835771Y-103047642D02*
X196073866Y-103047642D01*
X196073866Y-103047642D02*
X196264342Y-103095261D01*
X196264342Y-103095261D02*
X196359580Y-103142880D01*
X196359580Y-103142880D02*
X196407200Y-103190499D01*
X196407200Y-103190499D02*
X196454819Y-103285737D01*
X196454819Y-103285737D02*
X196454819Y-103380975D01*
X196454819Y-103380975D02*
X196407200Y-103476213D01*
X196407200Y-103476213D02*
X196359580Y-103523832D01*
X196359580Y-103523832D02*
X196264342Y-103571451D01*
X196264342Y-103571451D02*
X196073866Y-103619070D01*
X196073866Y-103619070D02*
X195835771Y-103619070D01*
X195835771Y-103619070D02*
X195645295Y-103571451D01*
X195645295Y-103571451D02*
X195550057Y-103523832D01*
X195550057Y-103523832D02*
X195502438Y-103476213D01*
X195502438Y-103476213D02*
X195454819Y-103380975D01*
X195788152Y-102190499D02*
X196454819Y-102190499D01*
X195788152Y-102619070D02*
X196311961Y-102619070D01*
X196311961Y-102619070D02*
X196407200Y-102571451D01*
X196407200Y-102571451D02*
X196454819Y-102476213D01*
X196454819Y-102476213D02*
X196454819Y-102333356D01*
X196454819Y-102333356D02*
X196407200Y-102238118D01*
X196407200Y-102238118D02*
X196359580Y-102190499D01*
X195931009Y-101380975D02*
X195931009Y-101714308D01*
X196454819Y-101714308D02*
X195454819Y-101714308D01*
X195454819Y-101714308D02*
X195454819Y-101238118D01*
X195407200Y-100142880D02*
X196692914Y-101000022D01*
X195454819Y-99333356D02*
X195454819Y-99809546D01*
X195454819Y-99809546D02*
X195931009Y-99857165D01*
X195931009Y-99857165D02*
X195883390Y-99809546D01*
X195883390Y-99809546D02*
X195835771Y-99714308D01*
X195835771Y-99714308D02*
X195835771Y-99476213D01*
X195835771Y-99476213D02*
X195883390Y-99380975D01*
X195883390Y-99380975D02*
X195931009Y-99333356D01*
X195931009Y-99333356D02*
X196026247Y-99285737D01*
X196026247Y-99285737D02*
X196264342Y-99285737D01*
X196264342Y-99285737D02*
X196359580Y-99333356D01*
X196359580Y-99333356D02*
X196407200Y-99380975D01*
X196407200Y-99380975D02*
X196454819Y-99476213D01*
X196454819Y-99476213D02*
X196454819Y-99714308D01*
X196454819Y-99714308D02*
X196407200Y-99809546D01*
X196407200Y-99809546D02*
X196359580Y-99857165D01*
X195454819Y-98666689D02*
X195454819Y-98571451D01*
X195454819Y-98571451D02*
X195502438Y-98476213D01*
X195502438Y-98476213D02*
X195550057Y-98428594D01*
X195550057Y-98428594D02*
X195645295Y-98380975D01*
X195645295Y-98380975D02*
X195835771Y-98333356D01*
X195835771Y-98333356D02*
X196073866Y-98333356D01*
X196073866Y-98333356D02*
X196264342Y-98380975D01*
X196264342Y-98380975D02*
X196359580Y-98428594D01*
X196359580Y-98428594D02*
X196407200Y-98476213D01*
X196407200Y-98476213D02*
X196454819Y-98571451D01*
X196454819Y-98571451D02*
X196454819Y-98666689D01*
X196454819Y-98666689D02*
X196407200Y-98761927D01*
X196407200Y-98761927D02*
X196359580Y-98809546D01*
X196359580Y-98809546D02*
X196264342Y-98857165D01*
X196264342Y-98857165D02*
X196073866Y-98904784D01*
X196073866Y-98904784D02*
X195835771Y-98904784D01*
X195835771Y-98904784D02*
X195645295Y-98857165D01*
X195645295Y-98857165D02*
X195550057Y-98809546D01*
X195550057Y-98809546D02*
X195502438Y-98761927D01*
X195502438Y-98761927D02*
X195454819Y-98666689D01*
X195454819Y-98047641D02*
X196454819Y-97714308D01*
X196454819Y-97714308D02*
X195454819Y-97380975D01*
X189359580Y-103142880D02*
X189407200Y-103190499D01*
X189407200Y-103190499D02*
X189454819Y-103333356D01*
X189454819Y-103333356D02*
X189454819Y-103428594D01*
X189454819Y-103428594D02*
X189407200Y-103571451D01*
X189407200Y-103571451D02*
X189311961Y-103666689D01*
X189311961Y-103666689D02*
X189216723Y-103714308D01*
X189216723Y-103714308D02*
X189026247Y-103761927D01*
X189026247Y-103761927D02*
X188883390Y-103761927D01*
X188883390Y-103761927D02*
X188692914Y-103714308D01*
X188692914Y-103714308D02*
X188597676Y-103666689D01*
X188597676Y-103666689D02*
X188502438Y-103571451D01*
X188502438Y-103571451D02*
X188454819Y-103428594D01*
X188454819Y-103428594D02*
X188454819Y-103333356D01*
X188454819Y-103333356D02*
X188502438Y-103190499D01*
X188502438Y-103190499D02*
X188550057Y-103142880D01*
X189454819Y-102190499D02*
X189454819Y-102761927D01*
X189454819Y-102476213D02*
X188454819Y-102476213D01*
X188454819Y-102476213D02*
X188597676Y-102571451D01*
X188597676Y-102571451D02*
X188692914Y-102666689D01*
X188692914Y-102666689D02*
X188740533Y-102761927D01*
X188454819Y-101571451D02*
X188454819Y-101476213D01*
X188454819Y-101476213D02*
X188502438Y-101380975D01*
X188502438Y-101380975D02*
X188550057Y-101333356D01*
X188550057Y-101333356D02*
X188645295Y-101285737D01*
X188645295Y-101285737D02*
X188835771Y-101238118D01*
X188835771Y-101238118D02*
X189073866Y-101238118D01*
X189073866Y-101238118D02*
X189264342Y-101285737D01*
X189264342Y-101285737D02*
X189359580Y-101333356D01*
X189359580Y-101333356D02*
X189407200Y-101380975D01*
X189407200Y-101380975D02*
X189454819Y-101476213D01*
X189454819Y-101476213D02*
X189454819Y-101571451D01*
X189454819Y-101571451D02*
X189407200Y-101666689D01*
X189407200Y-101666689D02*
X189359580Y-101714308D01*
X189359580Y-101714308D02*
X189264342Y-101761927D01*
X189264342Y-101761927D02*
X189073866Y-101809546D01*
X189073866Y-101809546D02*
X188835771Y-101809546D01*
X188835771Y-101809546D02*
X188645295Y-101761927D01*
X188645295Y-101761927D02*
X188550057Y-101714308D01*
X188550057Y-101714308D02*
X188502438Y-101666689D01*
X188502438Y-101666689D02*
X188454819Y-101571451D01*
X179452380Y-117454819D02*
X178880952Y-117454819D01*
X179166666Y-117454819D02*
X179166666Y-116454819D01*
X179166666Y-116454819D02*
X179071428Y-116597676D01*
X179071428Y-116597676D02*
X178976190Y-116692914D01*
X178976190Y-116692914D02*
X178880952Y-116740533D01*
X180071428Y-116454819D02*
X180166666Y-116454819D01*
X180166666Y-116454819D02*
X180261904Y-116502438D01*
X180261904Y-116502438D02*
X180309523Y-116550057D01*
X180309523Y-116550057D02*
X180357142Y-116645295D01*
X180357142Y-116645295D02*
X180404761Y-116835771D01*
X180404761Y-116835771D02*
X180404761Y-117073866D01*
X180404761Y-117073866D02*
X180357142Y-117264342D01*
X180357142Y-117264342D02*
X180309523Y-117359580D01*
X180309523Y-117359580D02*
X180261904Y-117407200D01*
X180261904Y-117407200D02*
X180166666Y-117454819D01*
X180166666Y-117454819D02*
X180071428Y-117454819D01*
X180071428Y-117454819D02*
X179976190Y-117407200D01*
X179976190Y-117407200D02*
X179928571Y-117359580D01*
X179928571Y-117359580D02*
X179880952Y-117264342D01*
X179880952Y-117264342D02*
X179833333Y-117073866D01*
X179833333Y-117073866D02*
X179833333Y-116835771D01*
X179833333Y-116835771D02*
X179880952Y-116645295D01*
X179880952Y-116645295D02*
X179928571Y-116550057D01*
X179928571Y-116550057D02*
X179976190Y-116502438D01*
X179976190Y-116502438D02*
X180071428Y-116454819D01*
X181023809Y-116454819D02*
X181119047Y-116454819D01*
X181119047Y-116454819D02*
X181214285Y-116502438D01*
X181214285Y-116502438D02*
X181261904Y-116550057D01*
X181261904Y-116550057D02*
X181309523Y-116645295D01*
X181309523Y-116645295D02*
X181357142Y-116835771D01*
X181357142Y-116835771D02*
X181357142Y-117073866D01*
X181357142Y-117073866D02*
X181309523Y-117264342D01*
X181309523Y-117264342D02*
X181261904Y-117359580D01*
X181261904Y-117359580D02*
X181214285Y-117407200D01*
X181214285Y-117407200D02*
X181119047Y-117454819D01*
X181119047Y-117454819D02*
X181023809Y-117454819D01*
X181023809Y-117454819D02*
X180928571Y-117407200D01*
X180928571Y-117407200D02*
X180880952Y-117359580D01*
X180880952Y-117359580D02*
X180833333Y-117264342D01*
X180833333Y-117264342D02*
X180785714Y-117073866D01*
X180785714Y-117073866D02*
X180785714Y-116835771D01*
X180785714Y-116835771D02*
X180833333Y-116645295D01*
X180833333Y-116645295D02*
X180880952Y-116550057D01*
X180880952Y-116550057D02*
X180928571Y-116502438D01*
X180928571Y-116502438D02*
X181023809Y-116454819D01*
X181785714Y-116788152D02*
X181785714Y-117454819D01*
X181785714Y-116883390D02*
X181833333Y-116835771D01*
X181833333Y-116835771D02*
X181928571Y-116788152D01*
X181928571Y-116788152D02*
X182071428Y-116788152D01*
X182071428Y-116788152D02*
X182166666Y-116835771D01*
X182166666Y-116835771D02*
X182214285Y-116931009D01*
X182214285Y-116931009D02*
X182214285Y-117454819D01*
X183023809Y-116931009D02*
X182690476Y-116931009D01*
X182690476Y-117454819D02*
X182690476Y-116454819D01*
X182690476Y-116454819D02*
X183166666Y-116454819D01*
X180357142Y-119859580D02*
X180309523Y-119907200D01*
X180309523Y-119907200D02*
X180166666Y-119954819D01*
X180166666Y-119954819D02*
X180071428Y-119954819D01*
X180071428Y-119954819D02*
X179928571Y-119907200D01*
X179928571Y-119907200D02*
X179833333Y-119811961D01*
X179833333Y-119811961D02*
X179785714Y-119716723D01*
X179785714Y-119716723D02*
X179738095Y-119526247D01*
X179738095Y-119526247D02*
X179738095Y-119383390D01*
X179738095Y-119383390D02*
X179785714Y-119192914D01*
X179785714Y-119192914D02*
X179833333Y-119097676D01*
X179833333Y-119097676D02*
X179928571Y-119002438D01*
X179928571Y-119002438D02*
X180071428Y-118954819D01*
X180071428Y-118954819D02*
X180166666Y-118954819D01*
X180166666Y-118954819D02*
X180309523Y-119002438D01*
X180309523Y-119002438D02*
X180357142Y-119050057D01*
X181309523Y-119954819D02*
X180738095Y-119954819D01*
X181023809Y-119954819D02*
X181023809Y-118954819D01*
X181023809Y-118954819D02*
X180928571Y-119097676D01*
X180928571Y-119097676D02*
X180833333Y-119192914D01*
X180833333Y-119192914D02*
X180738095Y-119240533D01*
X182166666Y-119288152D02*
X182166666Y-119954819D01*
X181928571Y-118907200D02*
X181690476Y-119621485D01*
X181690476Y-119621485D02*
X182309523Y-119621485D01*
X192084819Y-128690476D02*
X192084819Y-129261904D01*
X192084819Y-128976190D02*
X191084819Y-128976190D01*
X191084819Y-128976190D02*
X191227676Y-129071428D01*
X191227676Y-129071428D02*
X191322914Y-129166666D01*
X191322914Y-129166666D02*
X191370533Y-129261904D01*
X191084819Y-128071428D02*
X191084819Y-127976190D01*
X191084819Y-127976190D02*
X191132438Y-127880952D01*
X191132438Y-127880952D02*
X191180057Y-127833333D01*
X191180057Y-127833333D02*
X191275295Y-127785714D01*
X191275295Y-127785714D02*
X191465771Y-127738095D01*
X191465771Y-127738095D02*
X191703866Y-127738095D01*
X191703866Y-127738095D02*
X191894342Y-127785714D01*
X191894342Y-127785714D02*
X191989580Y-127833333D01*
X191989580Y-127833333D02*
X192037200Y-127880952D01*
X192037200Y-127880952D02*
X192084819Y-127976190D01*
X192084819Y-127976190D02*
X192084819Y-128071428D01*
X192084819Y-128071428D02*
X192037200Y-128166666D01*
X192037200Y-128166666D02*
X191989580Y-128214285D01*
X191989580Y-128214285D02*
X191894342Y-128261904D01*
X191894342Y-128261904D02*
X191703866Y-128309523D01*
X191703866Y-128309523D02*
X191465771Y-128309523D01*
X191465771Y-128309523D02*
X191275295Y-128261904D01*
X191275295Y-128261904D02*
X191180057Y-128214285D01*
X191180057Y-128214285D02*
X191132438Y-128166666D01*
X191132438Y-128166666D02*
X191084819Y-128071428D01*
X192084819Y-126738095D02*
X191608628Y-127071428D01*
X192084819Y-127309523D02*
X191084819Y-127309523D01*
X191084819Y-127309523D02*
X191084819Y-126928571D01*
X191084819Y-126928571D02*
X191132438Y-126833333D01*
X191132438Y-126833333D02*
X191180057Y-126785714D01*
X191180057Y-126785714D02*
X191275295Y-126738095D01*
X191275295Y-126738095D02*
X191418152Y-126738095D01*
X191418152Y-126738095D02*
X191513390Y-126785714D01*
X191513390Y-126785714D02*
X191561009Y-126833333D01*
X191561009Y-126833333D02*
X191608628Y-126928571D01*
X191608628Y-126928571D02*
X191608628Y-127309523D01*
X194454819Y-128166666D02*
X193978628Y-128499999D01*
X194454819Y-128738094D02*
X193454819Y-128738094D01*
X193454819Y-128738094D02*
X193454819Y-128357142D01*
X193454819Y-128357142D02*
X193502438Y-128261904D01*
X193502438Y-128261904D02*
X193550057Y-128214285D01*
X193550057Y-128214285D02*
X193645295Y-128166666D01*
X193645295Y-128166666D02*
X193788152Y-128166666D01*
X193788152Y-128166666D02*
X193883390Y-128214285D01*
X193883390Y-128214285D02*
X193931009Y-128261904D01*
X193931009Y-128261904D02*
X193978628Y-128357142D01*
X193978628Y-128357142D02*
X193978628Y-128738094D01*
X193454819Y-127833332D02*
X193454819Y-127166666D01*
X193454819Y-127166666D02*
X194454819Y-127595237D01*
X188785713Y-65647438D02*
X188690475Y-65599819D01*
X188690475Y-65599819D02*
X188547618Y-65599819D01*
X188547618Y-65599819D02*
X188404761Y-65647438D01*
X188404761Y-65647438D02*
X188309523Y-65742676D01*
X188309523Y-65742676D02*
X188261904Y-65837914D01*
X188261904Y-65837914D02*
X188214285Y-66028390D01*
X188214285Y-66028390D02*
X188214285Y-66171247D01*
X188214285Y-66171247D02*
X188261904Y-66361723D01*
X188261904Y-66361723D02*
X188309523Y-66456961D01*
X188309523Y-66456961D02*
X188404761Y-66552200D01*
X188404761Y-66552200D02*
X188547618Y-66599819D01*
X188547618Y-66599819D02*
X188642856Y-66599819D01*
X188642856Y-66599819D02*
X188785713Y-66552200D01*
X188785713Y-66552200D02*
X188833332Y-66504580D01*
X188833332Y-66504580D02*
X188833332Y-66171247D01*
X188833332Y-66171247D02*
X188642856Y-66171247D01*
X189261904Y-66599819D02*
X189261904Y-65599819D01*
X189261904Y-65599819D02*
X189833332Y-66599819D01*
X189833332Y-66599819D02*
X189833332Y-65599819D01*
X190309523Y-66599819D02*
X190309523Y-65599819D01*
X190309523Y-65599819D02*
X190547618Y-65599819D01*
X190547618Y-65599819D02*
X190690475Y-65647438D01*
X190690475Y-65647438D02*
X190785713Y-65742676D01*
X190785713Y-65742676D02*
X190833332Y-65837914D01*
X190833332Y-65837914D02*
X190880951Y-66028390D01*
X190880951Y-66028390D02*
X190880951Y-66171247D01*
X190880951Y-66171247D02*
X190833332Y-66361723D01*
X190833332Y-66361723D02*
X190785713Y-66456961D01*
X190785713Y-66456961D02*
X190690475Y-66552200D01*
X190690475Y-66552200D02*
X190547618Y-66599819D01*
X190547618Y-66599819D02*
X190309523Y-66599819D01*
X192214285Y-66599819D02*
X192119047Y-66552200D01*
X192119047Y-66552200D02*
X192071428Y-66456961D01*
X192071428Y-66456961D02*
X192071428Y-65599819D01*
X192595238Y-66599819D02*
X192595238Y-65933152D01*
X192595238Y-65599819D02*
X192547619Y-65647438D01*
X192547619Y-65647438D02*
X192595238Y-65695057D01*
X192595238Y-65695057D02*
X192642857Y-65647438D01*
X192642857Y-65647438D02*
X192595238Y-65599819D01*
X192595238Y-65599819D02*
X192595238Y-65695057D01*
X192928571Y-65933152D02*
X193309523Y-65933152D01*
X193071428Y-66599819D02*
X193071428Y-65742676D01*
X193071428Y-65742676D02*
X193119047Y-65647438D01*
X193119047Y-65647438D02*
X193214285Y-65599819D01*
X193214285Y-65599819D02*
X193309523Y-65599819D01*
X193500000Y-65933152D02*
X193880952Y-65933152D01*
X193642857Y-65599819D02*
X193642857Y-66456961D01*
X193642857Y-66456961D02*
X193690476Y-66552200D01*
X193690476Y-66552200D02*
X193785714Y-66599819D01*
X193785714Y-66599819D02*
X193880952Y-66599819D01*
X190454819Y-63328333D02*
X191169104Y-63328333D01*
X191169104Y-63328333D02*
X191311961Y-63375952D01*
X191311961Y-63375952D02*
X191407200Y-63471190D01*
X191407200Y-63471190D02*
X191454819Y-63614047D01*
X191454819Y-63614047D02*
X191454819Y-63709285D01*
X191454819Y-62852142D02*
X190454819Y-62852142D01*
X190454819Y-62852142D02*
X190454819Y-62471190D01*
X190454819Y-62471190D02*
X190502438Y-62375952D01*
X190502438Y-62375952D02*
X190550057Y-62328333D01*
X190550057Y-62328333D02*
X190645295Y-62280714D01*
X190645295Y-62280714D02*
X190788152Y-62280714D01*
X190788152Y-62280714D02*
X190883390Y-62328333D01*
X190883390Y-62328333D02*
X190931009Y-62375952D01*
X190931009Y-62375952D02*
X190978628Y-62471190D01*
X190978628Y-62471190D02*
X190978628Y-62852142D01*
X190454819Y-61947380D02*
X190454819Y-61328333D01*
X190454819Y-61328333D02*
X190835771Y-61661666D01*
X190835771Y-61661666D02*
X190835771Y-61518809D01*
X190835771Y-61518809D02*
X190883390Y-61423571D01*
X190883390Y-61423571D02*
X190931009Y-61375952D01*
X190931009Y-61375952D02*
X191026247Y-61328333D01*
X191026247Y-61328333D02*
X191264342Y-61328333D01*
X191264342Y-61328333D02*
X191359580Y-61375952D01*
X191359580Y-61375952D02*
X191407200Y-61423571D01*
X191407200Y-61423571D02*
X191454819Y-61518809D01*
X191454819Y-61518809D02*
X191454819Y-61804523D01*
X191454819Y-61804523D02*
X191407200Y-61899761D01*
X191407200Y-61899761D02*
X191359580Y-61947380D01*
X105610476Y-42294819D02*
X105610476Y-41294819D01*
X106086666Y-42294819D02*
X106086666Y-41294819D01*
X106086666Y-41294819D02*
X106658094Y-42294819D01*
X106658094Y-42294819D02*
X106658094Y-41294819D01*
X108372380Y-42294819D02*
X107896190Y-42294819D01*
X107896190Y-42294819D02*
X107896190Y-41294819D01*
X106586666Y-46374819D02*
X106586666Y-47089104D01*
X106586666Y-47089104D02*
X106539047Y-47231961D01*
X106539047Y-47231961D02*
X106443809Y-47327200D01*
X106443809Y-47327200D02*
X106300952Y-47374819D01*
X106300952Y-47374819D02*
X106205714Y-47374819D01*
X107586666Y-47374819D02*
X107015238Y-47374819D01*
X107300952Y-47374819D02*
X107300952Y-46374819D01*
X107300952Y-46374819D02*
X107205714Y-46517676D01*
X107205714Y-46517676D02*
X107110476Y-46612914D01*
X107110476Y-46612914D02*
X107015238Y-46660533D01*
X142475238Y-51454819D02*
X142665714Y-51454819D01*
X142665714Y-51454819D02*
X142760952Y-51502438D01*
X142760952Y-51502438D02*
X142856190Y-51597676D01*
X142856190Y-51597676D02*
X142903809Y-51788152D01*
X142903809Y-51788152D02*
X142903809Y-52121485D01*
X142903809Y-52121485D02*
X142856190Y-52311961D01*
X142856190Y-52311961D02*
X142760952Y-52407200D01*
X142760952Y-52407200D02*
X142665714Y-52454819D01*
X142665714Y-52454819D02*
X142475238Y-52454819D01*
X142475238Y-52454819D02*
X142380000Y-52407200D01*
X142380000Y-52407200D02*
X142284762Y-52311961D01*
X142284762Y-52311961D02*
X142237143Y-52121485D01*
X142237143Y-52121485D02*
X142237143Y-51788152D01*
X142237143Y-51788152D02*
X142284762Y-51597676D01*
X142284762Y-51597676D02*
X142380000Y-51502438D01*
X142380000Y-51502438D02*
X142475238Y-51454819D01*
X143332381Y-51454819D02*
X143332381Y-52264342D01*
X143332381Y-52264342D02*
X143380000Y-52359580D01*
X143380000Y-52359580D02*
X143427619Y-52407200D01*
X143427619Y-52407200D02*
X143522857Y-52454819D01*
X143522857Y-52454819D02*
X143713333Y-52454819D01*
X143713333Y-52454819D02*
X143808571Y-52407200D01*
X143808571Y-52407200D02*
X143856190Y-52359580D01*
X143856190Y-52359580D02*
X143903809Y-52264342D01*
X143903809Y-52264342D02*
X143903809Y-51454819D01*
X144237143Y-51454819D02*
X144808571Y-51454819D01*
X144522857Y-52454819D02*
X144522857Y-51454819D01*
X145808572Y-51454819D02*
X146427619Y-51454819D01*
X146427619Y-51454819D02*
X146094286Y-51835771D01*
X146094286Y-51835771D02*
X146237143Y-51835771D01*
X146237143Y-51835771D02*
X146332381Y-51883390D01*
X146332381Y-51883390D02*
X146380000Y-51931009D01*
X146380000Y-51931009D02*
X146427619Y-52026247D01*
X146427619Y-52026247D02*
X146427619Y-52264342D01*
X146427619Y-52264342D02*
X146380000Y-52359580D01*
X146380000Y-52359580D02*
X146332381Y-52407200D01*
X146332381Y-52407200D02*
X146237143Y-52454819D01*
X146237143Y-52454819D02*
X145951429Y-52454819D01*
X145951429Y-52454819D02*
X145856191Y-52407200D01*
X145856191Y-52407200D02*
X145808572Y-52359580D01*
X146856191Y-52359580D02*
X146903810Y-52407200D01*
X146903810Y-52407200D02*
X146856191Y-52454819D01*
X146856191Y-52454819D02*
X146808572Y-52407200D01*
X146808572Y-52407200D02*
X146856191Y-52359580D01*
X146856191Y-52359580D02*
X146856191Y-52454819D01*
X147808571Y-51454819D02*
X147332381Y-51454819D01*
X147332381Y-51454819D02*
X147284762Y-51931009D01*
X147284762Y-51931009D02*
X147332381Y-51883390D01*
X147332381Y-51883390D02*
X147427619Y-51835771D01*
X147427619Y-51835771D02*
X147665714Y-51835771D01*
X147665714Y-51835771D02*
X147760952Y-51883390D01*
X147760952Y-51883390D02*
X147808571Y-51931009D01*
X147808571Y-51931009D02*
X147856190Y-52026247D01*
X147856190Y-52026247D02*
X147856190Y-52264342D01*
X147856190Y-52264342D02*
X147808571Y-52359580D01*
X147808571Y-52359580D02*
X147760952Y-52407200D01*
X147760952Y-52407200D02*
X147665714Y-52454819D01*
X147665714Y-52454819D02*
X147427619Y-52454819D01*
X147427619Y-52454819D02*
X147332381Y-52407200D01*
X147332381Y-52407200D02*
X147284762Y-52359580D01*
X148284762Y-52454819D02*
X148284762Y-51788152D01*
X148284762Y-51883390D02*
X148332381Y-51835771D01*
X148332381Y-51835771D02*
X148427619Y-51788152D01*
X148427619Y-51788152D02*
X148570476Y-51788152D01*
X148570476Y-51788152D02*
X148665714Y-51835771D01*
X148665714Y-51835771D02*
X148713333Y-51931009D01*
X148713333Y-51931009D02*
X148713333Y-52454819D01*
X148713333Y-51931009D02*
X148760952Y-51835771D01*
X148760952Y-51835771D02*
X148856190Y-51788152D01*
X148856190Y-51788152D02*
X148999047Y-51788152D01*
X148999047Y-51788152D02*
X149094286Y-51835771D01*
X149094286Y-51835771D02*
X149141905Y-51931009D01*
X149141905Y-51931009D02*
X149141905Y-52454819D01*
X149618095Y-52454819D02*
X149618095Y-51788152D01*
X149618095Y-51883390D02*
X149665714Y-51835771D01*
X149665714Y-51835771D02*
X149760952Y-51788152D01*
X149760952Y-51788152D02*
X149903809Y-51788152D01*
X149903809Y-51788152D02*
X149999047Y-51835771D01*
X149999047Y-51835771D02*
X150046666Y-51931009D01*
X150046666Y-51931009D02*
X150046666Y-52454819D01*
X150046666Y-51931009D02*
X150094285Y-51835771D01*
X150094285Y-51835771D02*
X150189523Y-51788152D01*
X150189523Y-51788152D02*
X150332380Y-51788152D01*
X150332380Y-51788152D02*
X150427619Y-51835771D01*
X150427619Y-51835771D02*
X150475238Y-51931009D01*
X150475238Y-51931009D02*
X150475238Y-52454819D01*
X146046666Y-46374819D02*
X146046666Y-47089104D01*
X146046666Y-47089104D02*
X145999047Y-47231961D01*
X145999047Y-47231961D02*
X145903809Y-47327200D01*
X145903809Y-47327200D02*
X145760952Y-47374819D01*
X145760952Y-47374819D02*
X145665714Y-47374819D01*
X146427619Y-46374819D02*
X147046666Y-46374819D01*
X147046666Y-46374819D02*
X146713333Y-46755771D01*
X146713333Y-46755771D02*
X146856190Y-46755771D01*
X146856190Y-46755771D02*
X146951428Y-46803390D01*
X146951428Y-46803390D02*
X146999047Y-46851009D01*
X146999047Y-46851009D02*
X147046666Y-46946247D01*
X147046666Y-46946247D02*
X147046666Y-47184342D01*
X147046666Y-47184342D02*
X146999047Y-47279580D01*
X146999047Y-47279580D02*
X146951428Y-47327200D01*
X146951428Y-47327200D02*
X146856190Y-47374819D01*
X146856190Y-47374819D02*
X146570476Y-47374819D01*
X146570476Y-47374819D02*
X146475238Y-47327200D01*
X146475238Y-47327200D02*
X146427619Y-47279580D01*
X161824819Y-66095238D02*
X161824819Y-66666666D01*
X161824819Y-66380952D02*
X160824819Y-66380952D01*
X160824819Y-66380952D02*
X160967676Y-66476190D01*
X160967676Y-66476190D02*
X161062914Y-66571428D01*
X161062914Y-66571428D02*
X161110533Y-66666666D01*
X160824819Y-65476190D02*
X160824819Y-65380952D01*
X160824819Y-65380952D02*
X160872438Y-65285714D01*
X160872438Y-65285714D02*
X160920057Y-65238095D01*
X160920057Y-65238095D02*
X161015295Y-65190476D01*
X161015295Y-65190476D02*
X161205771Y-65142857D01*
X161205771Y-65142857D02*
X161443866Y-65142857D01*
X161443866Y-65142857D02*
X161634342Y-65190476D01*
X161634342Y-65190476D02*
X161729580Y-65238095D01*
X161729580Y-65238095D02*
X161777200Y-65285714D01*
X161777200Y-65285714D02*
X161824819Y-65380952D01*
X161824819Y-65380952D02*
X161824819Y-65476190D01*
X161824819Y-65476190D02*
X161777200Y-65571428D01*
X161777200Y-65571428D02*
X161729580Y-65619047D01*
X161729580Y-65619047D02*
X161634342Y-65666666D01*
X161634342Y-65666666D02*
X161443866Y-65714285D01*
X161443866Y-65714285D02*
X161205771Y-65714285D01*
X161205771Y-65714285D02*
X161015295Y-65666666D01*
X161015295Y-65666666D02*
X160920057Y-65619047D01*
X160920057Y-65619047D02*
X160872438Y-65571428D01*
X160872438Y-65571428D02*
X160824819Y-65476190D01*
X161824819Y-64714285D02*
X160824819Y-64714285D01*
X161443866Y-64619047D02*
X161824819Y-64333333D01*
X161158152Y-64333333D02*
X161539104Y-64714285D01*
X159454819Y-65666666D02*
X158978628Y-65999999D01*
X159454819Y-66238094D02*
X158454819Y-66238094D01*
X158454819Y-66238094D02*
X158454819Y-65857142D01*
X158454819Y-65857142D02*
X158502438Y-65761904D01*
X158502438Y-65761904D02*
X158550057Y-65714285D01*
X158550057Y-65714285D02*
X158645295Y-65666666D01*
X158645295Y-65666666D02*
X158788152Y-65666666D01*
X158788152Y-65666666D02*
X158883390Y-65714285D01*
X158883390Y-65714285D02*
X158931009Y-65761904D01*
X158931009Y-65761904D02*
X158978628Y-65857142D01*
X158978628Y-65857142D02*
X158978628Y-66238094D01*
X159454819Y-65190475D02*
X159454819Y-64999999D01*
X159454819Y-64999999D02*
X159407200Y-64904761D01*
X159407200Y-64904761D02*
X159359580Y-64857142D01*
X159359580Y-64857142D02*
X159216723Y-64761904D01*
X159216723Y-64761904D02*
X159026247Y-64714285D01*
X159026247Y-64714285D02*
X158645295Y-64714285D01*
X158645295Y-64714285D02*
X158550057Y-64761904D01*
X158550057Y-64761904D02*
X158502438Y-64809523D01*
X158502438Y-64809523D02*
X158454819Y-64904761D01*
X158454819Y-64904761D02*
X158454819Y-65095237D01*
X158454819Y-65095237D02*
X158502438Y-65190475D01*
X158502438Y-65190475D02*
X158550057Y-65238094D01*
X158550057Y-65238094D02*
X158645295Y-65285713D01*
X158645295Y-65285713D02*
X158883390Y-65285713D01*
X158883390Y-65285713D02*
X158978628Y-65238094D01*
X158978628Y-65238094D02*
X159026247Y-65190475D01*
X159026247Y-65190475D02*
X159073866Y-65095237D01*
X159073866Y-65095237D02*
X159073866Y-64904761D01*
X159073866Y-64904761D02*
X159026247Y-64809523D01*
X159026247Y-64809523D02*
X158978628Y-64761904D01*
X158978628Y-64761904D02*
X158883390Y-64714285D01*
X181954819Y-102547619D02*
X181954819Y-103119047D01*
X181954819Y-102833333D02*
X180954819Y-102833333D01*
X180954819Y-102833333D02*
X181097676Y-102928571D01*
X181097676Y-102928571D02*
X181192914Y-103023809D01*
X181192914Y-103023809D02*
X181240533Y-103119047D01*
X180954819Y-101928571D02*
X180954819Y-101833333D01*
X180954819Y-101833333D02*
X181002438Y-101738095D01*
X181002438Y-101738095D02*
X181050057Y-101690476D01*
X181050057Y-101690476D02*
X181145295Y-101642857D01*
X181145295Y-101642857D02*
X181335771Y-101595238D01*
X181335771Y-101595238D02*
X181573866Y-101595238D01*
X181573866Y-101595238D02*
X181764342Y-101642857D01*
X181764342Y-101642857D02*
X181859580Y-101690476D01*
X181859580Y-101690476D02*
X181907200Y-101738095D01*
X181907200Y-101738095D02*
X181954819Y-101833333D01*
X181954819Y-101833333D02*
X181954819Y-101928571D01*
X181954819Y-101928571D02*
X181907200Y-102023809D01*
X181907200Y-102023809D02*
X181859580Y-102071428D01*
X181859580Y-102071428D02*
X181764342Y-102119047D01*
X181764342Y-102119047D02*
X181573866Y-102166666D01*
X181573866Y-102166666D02*
X181335771Y-102166666D01*
X181335771Y-102166666D02*
X181145295Y-102119047D01*
X181145295Y-102119047D02*
X181050057Y-102071428D01*
X181050057Y-102071428D02*
X181002438Y-102023809D01*
X181002438Y-102023809D02*
X180954819Y-101928571D01*
X180954819Y-100976190D02*
X180954819Y-100880952D01*
X180954819Y-100880952D02*
X181002438Y-100785714D01*
X181002438Y-100785714D02*
X181050057Y-100738095D01*
X181050057Y-100738095D02*
X181145295Y-100690476D01*
X181145295Y-100690476D02*
X181335771Y-100642857D01*
X181335771Y-100642857D02*
X181573866Y-100642857D01*
X181573866Y-100642857D02*
X181764342Y-100690476D01*
X181764342Y-100690476D02*
X181859580Y-100738095D01*
X181859580Y-100738095D02*
X181907200Y-100785714D01*
X181907200Y-100785714D02*
X181954819Y-100880952D01*
X181954819Y-100880952D02*
X181954819Y-100976190D01*
X181954819Y-100976190D02*
X181907200Y-101071428D01*
X181907200Y-101071428D02*
X181859580Y-101119047D01*
X181859580Y-101119047D02*
X181764342Y-101166666D01*
X181764342Y-101166666D02*
X181573866Y-101214285D01*
X181573866Y-101214285D02*
X181335771Y-101214285D01*
X181335771Y-101214285D02*
X181145295Y-101166666D01*
X181145295Y-101166666D02*
X181050057Y-101119047D01*
X181050057Y-101119047D02*
X181002438Y-101071428D01*
X181002438Y-101071428D02*
X180954819Y-100976190D01*
X181288152Y-100214285D02*
X181954819Y-100214285D01*
X181383390Y-100214285D02*
X181335771Y-100166666D01*
X181335771Y-100166666D02*
X181288152Y-100071428D01*
X181288152Y-100071428D02*
X181288152Y-99928571D01*
X181288152Y-99928571D02*
X181335771Y-99833333D01*
X181335771Y-99833333D02*
X181431009Y-99785714D01*
X181431009Y-99785714D02*
X181954819Y-99785714D01*
X181431009Y-98976190D02*
X181431009Y-99309523D01*
X181954819Y-99309523D02*
X180954819Y-99309523D01*
X180954819Y-99309523D02*
X180954819Y-98833333D01*
X179359580Y-101642857D02*
X179407200Y-101690476D01*
X179407200Y-101690476D02*
X179454819Y-101833333D01*
X179454819Y-101833333D02*
X179454819Y-101928571D01*
X179454819Y-101928571D02*
X179407200Y-102071428D01*
X179407200Y-102071428D02*
X179311961Y-102166666D01*
X179311961Y-102166666D02*
X179216723Y-102214285D01*
X179216723Y-102214285D02*
X179026247Y-102261904D01*
X179026247Y-102261904D02*
X178883390Y-102261904D01*
X178883390Y-102261904D02*
X178692914Y-102214285D01*
X178692914Y-102214285D02*
X178597676Y-102166666D01*
X178597676Y-102166666D02*
X178502438Y-102071428D01*
X178502438Y-102071428D02*
X178454819Y-101928571D01*
X178454819Y-101928571D02*
X178454819Y-101833333D01*
X178454819Y-101833333D02*
X178502438Y-101690476D01*
X178502438Y-101690476D02*
X178550057Y-101642857D01*
X179454819Y-100690476D02*
X179454819Y-101261904D01*
X179454819Y-100976190D02*
X178454819Y-100976190D01*
X178454819Y-100976190D02*
X178597676Y-101071428D01*
X178597676Y-101071428D02*
X178692914Y-101166666D01*
X178692914Y-101166666D02*
X178740533Y-101261904D01*
X178550057Y-100309523D02*
X178502438Y-100261904D01*
X178502438Y-100261904D02*
X178454819Y-100166666D01*
X178454819Y-100166666D02*
X178454819Y-99928571D01*
X178454819Y-99928571D02*
X178502438Y-99833333D01*
X178502438Y-99833333D02*
X178550057Y-99785714D01*
X178550057Y-99785714D02*
X178645295Y-99738095D01*
X178645295Y-99738095D02*
X178740533Y-99738095D01*
X178740533Y-99738095D02*
X178883390Y-99785714D01*
X178883390Y-99785714D02*
X179454819Y-100357142D01*
X179454819Y-100357142D02*
X179454819Y-99738095D01*
X104619047Y-83454819D02*
X104047619Y-83454819D01*
X104333333Y-83454819D02*
X104333333Y-82454819D01*
X104333333Y-82454819D02*
X104238095Y-82597676D01*
X104238095Y-82597676D02*
X104142857Y-82692914D01*
X104142857Y-82692914D02*
X104047619Y-82740533D01*
X105523809Y-82454819D02*
X105047619Y-82454819D01*
X105047619Y-82454819D02*
X105000000Y-82931009D01*
X105000000Y-82931009D02*
X105047619Y-82883390D01*
X105047619Y-82883390D02*
X105142857Y-82835771D01*
X105142857Y-82835771D02*
X105380952Y-82835771D01*
X105380952Y-82835771D02*
X105476190Y-82883390D01*
X105476190Y-82883390D02*
X105523809Y-82931009D01*
X105523809Y-82931009D02*
X105571428Y-83026247D01*
X105571428Y-83026247D02*
X105571428Y-83264342D01*
X105571428Y-83264342D02*
X105523809Y-83359580D01*
X105523809Y-83359580D02*
X105476190Y-83407200D01*
X105476190Y-83407200D02*
X105380952Y-83454819D01*
X105380952Y-83454819D02*
X105142857Y-83454819D01*
X105142857Y-83454819D02*
X105047619Y-83407200D01*
X105047619Y-83407200D02*
X105000000Y-83359580D01*
X106190476Y-82454819D02*
X106285714Y-82454819D01*
X106285714Y-82454819D02*
X106380952Y-82502438D01*
X106380952Y-82502438D02*
X106428571Y-82550057D01*
X106428571Y-82550057D02*
X106476190Y-82645295D01*
X106476190Y-82645295D02*
X106523809Y-82835771D01*
X106523809Y-82835771D02*
X106523809Y-83073866D01*
X106523809Y-83073866D02*
X106476190Y-83264342D01*
X106476190Y-83264342D02*
X106428571Y-83359580D01*
X106428571Y-83359580D02*
X106380952Y-83407200D01*
X106380952Y-83407200D02*
X106285714Y-83454819D01*
X106285714Y-83454819D02*
X106190476Y-83454819D01*
X106190476Y-83454819D02*
X106095238Y-83407200D01*
X106095238Y-83407200D02*
X106047619Y-83359580D01*
X106047619Y-83359580D02*
X106000000Y-83264342D01*
X106000000Y-83264342D02*
X105952381Y-83073866D01*
X105952381Y-83073866D02*
X105952381Y-82835771D01*
X105952381Y-82835771D02*
X106000000Y-82645295D01*
X106000000Y-82645295D02*
X106047619Y-82550057D01*
X106047619Y-82550057D02*
X106095238Y-82502438D01*
X106095238Y-82502438D02*
X106190476Y-82454819D01*
X106952381Y-82788152D02*
X106952381Y-83454819D01*
X106952381Y-82883390D02*
X107000000Y-82835771D01*
X107000000Y-82835771D02*
X107095238Y-82788152D01*
X107095238Y-82788152D02*
X107238095Y-82788152D01*
X107238095Y-82788152D02*
X107333333Y-82835771D01*
X107333333Y-82835771D02*
X107380952Y-82931009D01*
X107380952Y-82931009D02*
X107380952Y-83454819D01*
X108190476Y-82931009D02*
X107857143Y-82931009D01*
X107857143Y-83454819D02*
X107857143Y-82454819D01*
X107857143Y-82454819D02*
X108333333Y-82454819D01*
X109333334Y-82788152D02*
X109714286Y-82788152D01*
X109476191Y-83454819D02*
X109476191Y-82597676D01*
X109476191Y-82597676D02*
X109523810Y-82502438D01*
X109523810Y-82502438D02*
X109619048Y-82454819D01*
X109619048Y-82454819D02*
X109714286Y-82454819D01*
X110047620Y-83454819D02*
X110047620Y-82788152D01*
X110047620Y-82454819D02*
X110000001Y-82502438D01*
X110000001Y-82502438D02*
X110047620Y-82550057D01*
X110047620Y-82550057D02*
X110095239Y-82502438D01*
X110095239Y-82502438D02*
X110047620Y-82454819D01*
X110047620Y-82454819D02*
X110047620Y-82550057D01*
X110666667Y-83454819D02*
X110571429Y-83407200D01*
X110571429Y-83407200D02*
X110523810Y-83311961D01*
X110523810Y-83311961D02*
X110523810Y-82454819D01*
X111047620Y-83454819D02*
X111047620Y-82788152D01*
X111047620Y-82883390D02*
X111095239Y-82835771D01*
X111095239Y-82835771D02*
X111190477Y-82788152D01*
X111190477Y-82788152D02*
X111333334Y-82788152D01*
X111333334Y-82788152D02*
X111428572Y-82835771D01*
X111428572Y-82835771D02*
X111476191Y-82931009D01*
X111476191Y-82931009D02*
X111476191Y-83454819D01*
X111476191Y-82931009D02*
X111523810Y-82835771D01*
X111523810Y-82835771D02*
X111619048Y-82788152D01*
X111619048Y-82788152D02*
X111761905Y-82788152D01*
X111761905Y-82788152D02*
X111857144Y-82835771D01*
X111857144Y-82835771D02*
X111904763Y-82931009D01*
X111904763Y-82931009D02*
X111904763Y-83454819D01*
X106976190Y-88109580D02*
X106928571Y-88157200D01*
X106928571Y-88157200D02*
X106785714Y-88204819D01*
X106785714Y-88204819D02*
X106690476Y-88204819D01*
X106690476Y-88204819D02*
X106547619Y-88157200D01*
X106547619Y-88157200D02*
X106452381Y-88061961D01*
X106452381Y-88061961D02*
X106404762Y-87966723D01*
X106404762Y-87966723D02*
X106357143Y-87776247D01*
X106357143Y-87776247D02*
X106357143Y-87633390D01*
X106357143Y-87633390D02*
X106404762Y-87442914D01*
X106404762Y-87442914D02*
X106452381Y-87347676D01*
X106452381Y-87347676D02*
X106547619Y-87252438D01*
X106547619Y-87252438D02*
X106690476Y-87204819D01*
X106690476Y-87204819D02*
X106785714Y-87204819D01*
X106785714Y-87204819D02*
X106928571Y-87252438D01*
X106928571Y-87252438D02*
X106976190Y-87300057D01*
X107357143Y-87300057D02*
X107404762Y-87252438D01*
X107404762Y-87252438D02*
X107500000Y-87204819D01*
X107500000Y-87204819D02*
X107738095Y-87204819D01*
X107738095Y-87204819D02*
X107833333Y-87252438D01*
X107833333Y-87252438D02*
X107880952Y-87300057D01*
X107880952Y-87300057D02*
X107928571Y-87395295D01*
X107928571Y-87395295D02*
X107928571Y-87490533D01*
X107928571Y-87490533D02*
X107880952Y-87633390D01*
X107880952Y-87633390D02*
X107309524Y-88204819D01*
X107309524Y-88204819D02*
X107928571Y-88204819D01*
X108119048Y-88300057D02*
X108880952Y-88300057D01*
X109642857Y-88204819D02*
X109071429Y-88204819D01*
X109357143Y-88204819D02*
X109357143Y-87204819D01*
X109357143Y-87204819D02*
X109261905Y-87347676D01*
X109261905Y-87347676D02*
X109166667Y-87442914D01*
X109166667Y-87442914D02*
X109071429Y-87490533D01*
X148967618Y-133534819D02*
X148491428Y-133534819D01*
X148491428Y-133534819D02*
X148491428Y-132534819D01*
X149300952Y-133011009D02*
X149634285Y-133011009D01*
X149777142Y-133534819D02*
X149300952Y-133534819D01*
X149300952Y-133534819D02*
X149300952Y-132534819D01*
X149300952Y-132534819D02*
X149777142Y-132534819D01*
X150062857Y-132534819D02*
X150396190Y-133534819D01*
X150396190Y-133534819D02*
X150729523Y-132534819D01*
X151062857Y-133011009D02*
X151396190Y-133011009D01*
X151539047Y-133534819D02*
X151062857Y-133534819D01*
X151062857Y-133534819D02*
X151062857Y-132534819D01*
X151062857Y-132534819D02*
X151539047Y-132534819D01*
X152443809Y-133534819D02*
X151967619Y-133534819D01*
X151967619Y-133534819D02*
X151967619Y-132534819D01*
X153539048Y-133534819D02*
X153539048Y-132534819D01*
X153539048Y-132534819D02*
X153920000Y-132534819D01*
X153920000Y-132534819D02*
X154015238Y-132582438D01*
X154015238Y-132582438D02*
X154062857Y-132630057D01*
X154062857Y-132630057D02*
X154110476Y-132725295D01*
X154110476Y-132725295D02*
X154110476Y-132868152D01*
X154110476Y-132868152D02*
X154062857Y-132963390D01*
X154062857Y-132963390D02*
X154015238Y-133011009D01*
X154015238Y-133011009D02*
X153920000Y-133058628D01*
X153920000Y-133058628D02*
X153539048Y-133058628D01*
X154729524Y-132534819D02*
X154920000Y-132534819D01*
X154920000Y-132534819D02*
X155015238Y-132582438D01*
X155015238Y-132582438D02*
X155110476Y-132677676D01*
X155110476Y-132677676D02*
X155158095Y-132868152D01*
X155158095Y-132868152D02*
X155158095Y-133201485D01*
X155158095Y-133201485D02*
X155110476Y-133391961D01*
X155110476Y-133391961D02*
X155015238Y-133487200D01*
X155015238Y-133487200D02*
X154920000Y-133534819D01*
X154920000Y-133534819D02*
X154729524Y-133534819D01*
X154729524Y-133534819D02*
X154634286Y-133487200D01*
X154634286Y-133487200D02*
X154539048Y-133391961D01*
X154539048Y-133391961D02*
X154491429Y-133201485D01*
X154491429Y-133201485D02*
X154491429Y-132868152D01*
X154491429Y-132868152D02*
X154539048Y-132677676D01*
X154539048Y-132677676D02*
X154634286Y-132582438D01*
X154634286Y-132582438D02*
X154729524Y-132534819D01*
X155443810Y-132534819D02*
X156015238Y-132534819D01*
X155729524Y-133534819D02*
X155729524Y-132534819D01*
X157634286Y-133534819D02*
X157062858Y-133534819D01*
X157348572Y-133534819D02*
X157348572Y-132534819D01*
X157348572Y-132534819D02*
X157253334Y-132677676D01*
X157253334Y-132677676D02*
X157158096Y-132772914D01*
X157158096Y-132772914D02*
X157062858Y-132820533D01*
X158253334Y-132534819D02*
X158348572Y-132534819D01*
X158348572Y-132534819D02*
X158443810Y-132582438D01*
X158443810Y-132582438D02*
X158491429Y-132630057D01*
X158491429Y-132630057D02*
X158539048Y-132725295D01*
X158539048Y-132725295D02*
X158586667Y-132915771D01*
X158586667Y-132915771D02*
X158586667Y-133153866D01*
X158586667Y-133153866D02*
X158539048Y-133344342D01*
X158539048Y-133344342D02*
X158491429Y-133439580D01*
X158491429Y-133439580D02*
X158443810Y-133487200D01*
X158443810Y-133487200D02*
X158348572Y-133534819D01*
X158348572Y-133534819D02*
X158253334Y-133534819D01*
X158253334Y-133534819D02*
X158158096Y-133487200D01*
X158158096Y-133487200D02*
X158110477Y-133439580D01*
X158110477Y-133439580D02*
X158062858Y-133344342D01*
X158062858Y-133344342D02*
X158015239Y-133153866D01*
X158015239Y-133153866D02*
X158015239Y-132915771D01*
X158015239Y-132915771D02*
X158062858Y-132725295D01*
X158062858Y-132725295D02*
X158110477Y-132630057D01*
X158110477Y-132630057D02*
X158158096Y-132582438D01*
X158158096Y-132582438D02*
X158253334Y-132534819D01*
X159015239Y-133534819D02*
X159015239Y-132534819D01*
X159110477Y-133153866D02*
X159396191Y-133534819D01*
X159396191Y-132868152D02*
X159015239Y-133249104D01*
X153586666Y-127454819D02*
X153586666Y-128169104D01*
X153586666Y-128169104D02*
X153539047Y-128311961D01*
X153539047Y-128311961D02*
X153443809Y-128407200D01*
X153443809Y-128407200D02*
X153300952Y-128454819D01*
X153300952Y-128454819D02*
X153205714Y-128454819D01*
X154491428Y-127454819D02*
X154300952Y-127454819D01*
X154300952Y-127454819D02*
X154205714Y-127502438D01*
X154205714Y-127502438D02*
X154158095Y-127550057D01*
X154158095Y-127550057D02*
X154062857Y-127692914D01*
X154062857Y-127692914D02*
X154015238Y-127883390D01*
X154015238Y-127883390D02*
X154015238Y-128264342D01*
X154015238Y-128264342D02*
X154062857Y-128359580D01*
X154062857Y-128359580D02*
X154110476Y-128407200D01*
X154110476Y-128407200D02*
X154205714Y-128454819D01*
X154205714Y-128454819D02*
X154396190Y-128454819D01*
X154396190Y-128454819D02*
X154491428Y-128407200D01*
X154491428Y-128407200D02*
X154539047Y-128359580D01*
X154539047Y-128359580D02*
X154586666Y-128264342D01*
X154586666Y-128264342D02*
X154586666Y-128026247D01*
X154586666Y-128026247D02*
X154539047Y-127931009D01*
X154539047Y-127931009D02*
X154491428Y-127883390D01*
X154491428Y-127883390D02*
X154396190Y-127835771D01*
X154396190Y-127835771D02*
X154205714Y-127835771D01*
X154205714Y-127835771D02*
X154110476Y-127883390D01*
X154110476Y-127883390D02*
X154062857Y-127931009D01*
X154062857Y-127931009D02*
X154015238Y-128026247D01*
X128244762Y-133534819D02*
X128244762Y-132534819D01*
X128244762Y-132534819D02*
X128625714Y-132534819D01*
X128625714Y-132534819D02*
X128720952Y-132582438D01*
X128720952Y-132582438D02*
X128768571Y-132630057D01*
X128768571Y-132630057D02*
X128816190Y-132725295D01*
X128816190Y-132725295D02*
X128816190Y-132868152D01*
X128816190Y-132868152D02*
X128768571Y-132963390D01*
X128768571Y-132963390D02*
X128720952Y-133011009D01*
X128720952Y-133011009D02*
X128625714Y-133058628D01*
X128625714Y-133058628D02*
X128244762Y-133058628D01*
X129435238Y-132534819D02*
X129625714Y-132534819D01*
X129625714Y-132534819D02*
X129720952Y-132582438D01*
X129720952Y-132582438D02*
X129816190Y-132677676D01*
X129816190Y-132677676D02*
X129863809Y-132868152D01*
X129863809Y-132868152D02*
X129863809Y-133201485D01*
X129863809Y-133201485D02*
X129816190Y-133391961D01*
X129816190Y-133391961D02*
X129720952Y-133487200D01*
X129720952Y-133487200D02*
X129625714Y-133534819D01*
X129625714Y-133534819D02*
X129435238Y-133534819D01*
X129435238Y-133534819D02*
X129340000Y-133487200D01*
X129340000Y-133487200D02*
X129244762Y-133391961D01*
X129244762Y-133391961D02*
X129197143Y-133201485D01*
X129197143Y-133201485D02*
X129197143Y-132868152D01*
X129197143Y-132868152D02*
X129244762Y-132677676D01*
X129244762Y-132677676D02*
X129340000Y-132582438D01*
X129340000Y-132582438D02*
X129435238Y-132534819D01*
X130768571Y-133534819D02*
X130292381Y-133534819D01*
X130292381Y-133534819D02*
X130292381Y-132534819D01*
X131054286Y-133249104D02*
X131530476Y-133249104D01*
X130959048Y-133534819D02*
X131292381Y-132534819D01*
X131292381Y-132534819D02*
X131625714Y-133534819D01*
X132530476Y-133534819D02*
X132197143Y-133058628D01*
X131959048Y-133534819D02*
X131959048Y-132534819D01*
X131959048Y-132534819D02*
X132340000Y-132534819D01*
X132340000Y-132534819D02*
X132435238Y-132582438D01*
X132435238Y-132582438D02*
X132482857Y-132630057D01*
X132482857Y-132630057D02*
X132530476Y-132725295D01*
X132530476Y-132725295D02*
X132530476Y-132868152D01*
X132530476Y-132868152D02*
X132482857Y-132963390D01*
X132482857Y-132963390D02*
X132435238Y-133011009D01*
X132435238Y-133011009D02*
X132340000Y-133058628D01*
X132340000Y-133058628D02*
X131959048Y-133058628D01*
X132959048Y-133534819D02*
X132959048Y-132534819D01*
X133292381Y-132534819D02*
X133863809Y-132534819D01*
X133578095Y-133534819D02*
X133578095Y-132534819D01*
X134387619Y-133058628D02*
X134387619Y-133534819D01*
X134054286Y-132534819D02*
X134387619Y-133058628D01*
X134387619Y-133058628D02*
X134720952Y-132534819D01*
X135768572Y-133487200D02*
X135911429Y-133534819D01*
X135911429Y-133534819D02*
X136149524Y-133534819D01*
X136149524Y-133534819D02*
X136244762Y-133487200D01*
X136244762Y-133487200D02*
X136292381Y-133439580D01*
X136292381Y-133439580D02*
X136340000Y-133344342D01*
X136340000Y-133344342D02*
X136340000Y-133249104D01*
X136340000Y-133249104D02*
X136292381Y-133153866D01*
X136292381Y-133153866D02*
X136244762Y-133106247D01*
X136244762Y-133106247D02*
X136149524Y-133058628D01*
X136149524Y-133058628D02*
X135959048Y-133011009D01*
X135959048Y-133011009D02*
X135863810Y-132963390D01*
X135863810Y-132963390D02*
X135816191Y-132915771D01*
X135816191Y-132915771D02*
X135768572Y-132820533D01*
X135768572Y-132820533D02*
X135768572Y-132725295D01*
X135768572Y-132725295D02*
X135816191Y-132630057D01*
X135816191Y-132630057D02*
X135863810Y-132582438D01*
X135863810Y-132582438D02*
X135959048Y-132534819D01*
X135959048Y-132534819D02*
X136197143Y-132534819D01*
X136197143Y-132534819D02*
X136340000Y-132582438D01*
X136673334Y-132534819D02*
X136911429Y-133534819D01*
X136911429Y-133534819D02*
X137101905Y-132820533D01*
X137101905Y-132820533D02*
X137292381Y-133534819D01*
X137292381Y-133534819D02*
X137530477Y-132534819D01*
X132506666Y-127454819D02*
X132506666Y-128169104D01*
X132506666Y-128169104D02*
X132459047Y-128311961D01*
X132459047Y-128311961D02*
X132363809Y-128407200D01*
X132363809Y-128407200D02*
X132220952Y-128454819D01*
X132220952Y-128454819D02*
X132125714Y-128454819D01*
X133459047Y-127454819D02*
X132982857Y-127454819D01*
X132982857Y-127454819D02*
X132935238Y-127931009D01*
X132935238Y-127931009D02*
X132982857Y-127883390D01*
X132982857Y-127883390D02*
X133078095Y-127835771D01*
X133078095Y-127835771D02*
X133316190Y-127835771D01*
X133316190Y-127835771D02*
X133411428Y-127883390D01*
X133411428Y-127883390D02*
X133459047Y-127931009D01*
X133459047Y-127931009D02*
X133506666Y-128026247D01*
X133506666Y-128026247D02*
X133506666Y-128264342D01*
X133506666Y-128264342D02*
X133459047Y-128359580D01*
X133459047Y-128359580D02*
X133411428Y-128407200D01*
X133411428Y-128407200D02*
X133316190Y-128454819D01*
X133316190Y-128454819D02*
X133078095Y-128454819D01*
X133078095Y-128454819D02*
X132982857Y-128407200D01*
X132982857Y-128407200D02*
X132935238Y-128359580D01*
X161324819Y-92595238D02*
X161324819Y-93166666D01*
X161324819Y-92880952D02*
X160324819Y-92880952D01*
X160324819Y-92880952D02*
X160467676Y-92976190D01*
X160467676Y-92976190D02*
X160562914Y-93071428D01*
X160562914Y-93071428D02*
X160610533Y-93166666D01*
X160324819Y-91976190D02*
X160324819Y-91880952D01*
X160324819Y-91880952D02*
X160372438Y-91785714D01*
X160372438Y-91785714D02*
X160420057Y-91738095D01*
X160420057Y-91738095D02*
X160515295Y-91690476D01*
X160515295Y-91690476D02*
X160705771Y-91642857D01*
X160705771Y-91642857D02*
X160943866Y-91642857D01*
X160943866Y-91642857D02*
X161134342Y-91690476D01*
X161134342Y-91690476D02*
X161229580Y-91738095D01*
X161229580Y-91738095D02*
X161277200Y-91785714D01*
X161277200Y-91785714D02*
X161324819Y-91880952D01*
X161324819Y-91880952D02*
X161324819Y-91976190D01*
X161324819Y-91976190D02*
X161277200Y-92071428D01*
X161277200Y-92071428D02*
X161229580Y-92119047D01*
X161229580Y-92119047D02*
X161134342Y-92166666D01*
X161134342Y-92166666D02*
X160943866Y-92214285D01*
X160943866Y-92214285D02*
X160705771Y-92214285D01*
X160705771Y-92214285D02*
X160515295Y-92166666D01*
X160515295Y-92166666D02*
X160420057Y-92119047D01*
X160420057Y-92119047D02*
X160372438Y-92071428D01*
X160372438Y-92071428D02*
X160324819Y-91976190D01*
X161324819Y-91214285D02*
X160324819Y-91214285D01*
X160943866Y-91119047D02*
X161324819Y-90833333D01*
X160658152Y-90833333D02*
X161039104Y-91214285D01*
X158954819Y-92166666D02*
X158478628Y-92499999D01*
X158954819Y-92738094D02*
X157954819Y-92738094D01*
X157954819Y-92738094D02*
X157954819Y-92357142D01*
X157954819Y-92357142D02*
X158002438Y-92261904D01*
X158002438Y-92261904D02*
X158050057Y-92214285D01*
X158050057Y-92214285D02*
X158145295Y-92166666D01*
X158145295Y-92166666D02*
X158288152Y-92166666D01*
X158288152Y-92166666D02*
X158383390Y-92214285D01*
X158383390Y-92214285D02*
X158431009Y-92261904D01*
X158431009Y-92261904D02*
X158478628Y-92357142D01*
X158478628Y-92357142D02*
X158478628Y-92738094D01*
X158383390Y-91595237D02*
X158335771Y-91690475D01*
X158335771Y-91690475D02*
X158288152Y-91738094D01*
X158288152Y-91738094D02*
X158192914Y-91785713D01*
X158192914Y-91785713D02*
X158145295Y-91785713D01*
X158145295Y-91785713D02*
X158050057Y-91738094D01*
X158050057Y-91738094D02*
X158002438Y-91690475D01*
X158002438Y-91690475D02*
X157954819Y-91595237D01*
X157954819Y-91595237D02*
X157954819Y-91404761D01*
X157954819Y-91404761D02*
X158002438Y-91309523D01*
X158002438Y-91309523D02*
X158050057Y-91261904D01*
X158050057Y-91261904D02*
X158145295Y-91214285D01*
X158145295Y-91214285D02*
X158192914Y-91214285D01*
X158192914Y-91214285D02*
X158288152Y-91261904D01*
X158288152Y-91261904D02*
X158335771Y-91309523D01*
X158335771Y-91309523D02*
X158383390Y-91404761D01*
X158383390Y-91404761D02*
X158383390Y-91595237D01*
X158383390Y-91595237D02*
X158431009Y-91690475D01*
X158431009Y-91690475D02*
X158478628Y-91738094D01*
X158478628Y-91738094D02*
X158573866Y-91785713D01*
X158573866Y-91785713D02*
X158764342Y-91785713D01*
X158764342Y-91785713D02*
X158859580Y-91738094D01*
X158859580Y-91738094D02*
X158907200Y-91690475D01*
X158907200Y-91690475D02*
X158954819Y-91595237D01*
X158954819Y-91595237D02*
X158954819Y-91404761D01*
X158954819Y-91404761D02*
X158907200Y-91309523D01*
X158907200Y-91309523D02*
X158859580Y-91261904D01*
X158859580Y-91261904D02*
X158764342Y-91214285D01*
X158764342Y-91214285D02*
X158573866Y-91214285D01*
X158573866Y-91214285D02*
X158478628Y-91261904D01*
X158478628Y-91261904D02*
X158431009Y-91309523D01*
X158431009Y-91309523D02*
X158383390Y-91404761D01*
X118515238Y-42294819D02*
X118515238Y-41294819D01*
X118991428Y-42294819D02*
X118991428Y-41294819D01*
X118991428Y-41294819D02*
X119562856Y-42294819D01*
X119562856Y-42294819D02*
X119562856Y-41294819D01*
X121372380Y-42294819D02*
X121039047Y-41818628D01*
X120800952Y-42294819D02*
X120800952Y-41294819D01*
X120800952Y-41294819D02*
X121181904Y-41294819D01*
X121181904Y-41294819D02*
X121277142Y-41342438D01*
X121277142Y-41342438D02*
X121324761Y-41390057D01*
X121324761Y-41390057D02*
X121372380Y-41485295D01*
X121372380Y-41485295D02*
X121372380Y-41628152D01*
X121372380Y-41628152D02*
X121324761Y-41723390D01*
X121324761Y-41723390D02*
X121277142Y-41771009D01*
X121277142Y-41771009D02*
X121181904Y-41818628D01*
X121181904Y-41818628D02*
X120800952Y-41818628D01*
X119586666Y-46374819D02*
X119586666Y-47089104D01*
X119586666Y-47089104D02*
X119539047Y-47231961D01*
X119539047Y-47231961D02*
X119443809Y-47327200D01*
X119443809Y-47327200D02*
X119300952Y-47374819D01*
X119300952Y-47374819D02*
X119205714Y-47374819D01*
X120015238Y-46470057D02*
X120062857Y-46422438D01*
X120062857Y-46422438D02*
X120158095Y-46374819D01*
X120158095Y-46374819D02*
X120396190Y-46374819D01*
X120396190Y-46374819D02*
X120491428Y-46422438D01*
X120491428Y-46422438D02*
X120539047Y-46470057D01*
X120539047Y-46470057D02*
X120586666Y-46565295D01*
X120586666Y-46565295D02*
X120586666Y-46660533D01*
X120586666Y-46660533D02*
X120539047Y-46803390D01*
X120539047Y-46803390D02*
X119967619Y-47374819D01*
X119967619Y-47374819D02*
X120586666Y-47374819D01*
X158179918Y-86704819D02*
X157608490Y-86704819D01*
X157894204Y-86704819D02*
X157894204Y-85704819D01*
X157894204Y-85704819D02*
X157798966Y-85847676D01*
X157798966Y-85847676D02*
X157703728Y-85942914D01*
X157703728Y-85942914D02*
X157608490Y-85990533D01*
X158798966Y-85704819D02*
X158894204Y-85704819D01*
X158894204Y-85704819D02*
X158989442Y-85752438D01*
X158989442Y-85752438D02*
X159037061Y-85800057D01*
X159037061Y-85800057D02*
X159084680Y-85895295D01*
X159084680Y-85895295D02*
X159132299Y-86085771D01*
X159132299Y-86085771D02*
X159132299Y-86323866D01*
X159132299Y-86323866D02*
X159084680Y-86514342D01*
X159084680Y-86514342D02*
X159037061Y-86609580D01*
X159037061Y-86609580D02*
X158989442Y-86657200D01*
X158989442Y-86657200D02*
X158894204Y-86704819D01*
X158894204Y-86704819D02*
X158798966Y-86704819D01*
X158798966Y-86704819D02*
X158703728Y-86657200D01*
X158703728Y-86657200D02*
X158656109Y-86609580D01*
X158656109Y-86609580D02*
X158608490Y-86514342D01*
X158608490Y-86514342D02*
X158560871Y-86323866D01*
X158560871Y-86323866D02*
X158560871Y-86085771D01*
X158560871Y-86085771D02*
X158608490Y-85895295D01*
X158608490Y-85895295D02*
X158656109Y-85800057D01*
X158656109Y-85800057D02*
X158703728Y-85752438D01*
X158703728Y-85752438D02*
X158798966Y-85704819D01*
X159751347Y-85704819D02*
X159846585Y-85704819D01*
X159846585Y-85704819D02*
X159941823Y-85752438D01*
X159941823Y-85752438D02*
X159989442Y-85800057D01*
X159989442Y-85800057D02*
X160037061Y-85895295D01*
X160037061Y-85895295D02*
X160084680Y-86085771D01*
X160084680Y-86085771D02*
X160084680Y-86323866D01*
X160084680Y-86323866D02*
X160037061Y-86514342D01*
X160037061Y-86514342D02*
X159989442Y-86609580D01*
X159989442Y-86609580D02*
X159941823Y-86657200D01*
X159941823Y-86657200D02*
X159846585Y-86704819D01*
X159846585Y-86704819D02*
X159751347Y-86704819D01*
X159751347Y-86704819D02*
X159656109Y-86657200D01*
X159656109Y-86657200D02*
X159608490Y-86609580D01*
X159608490Y-86609580D02*
X159560871Y-86514342D01*
X159560871Y-86514342D02*
X159513252Y-86323866D01*
X159513252Y-86323866D02*
X159513252Y-86085771D01*
X159513252Y-86085771D02*
X159560871Y-85895295D01*
X159560871Y-85895295D02*
X159608490Y-85800057D01*
X159608490Y-85800057D02*
X159656109Y-85752438D01*
X159656109Y-85752438D02*
X159751347Y-85704819D01*
X160941823Y-86038152D02*
X160941823Y-86704819D01*
X160513252Y-86038152D02*
X160513252Y-86561961D01*
X160513252Y-86561961D02*
X160560871Y-86657200D01*
X160560871Y-86657200D02*
X160656109Y-86704819D01*
X160656109Y-86704819D02*
X160798966Y-86704819D01*
X160798966Y-86704819D02*
X160894204Y-86657200D01*
X160894204Y-86657200D02*
X160941823Y-86609580D01*
X161751347Y-86181009D02*
X161418014Y-86181009D01*
X161418014Y-86704819D02*
X161418014Y-85704819D01*
X161418014Y-85704819D02*
X161894204Y-85704819D01*
X162989442Y-85657200D02*
X162132300Y-86942914D01*
X163798966Y-85704819D02*
X163322776Y-85704819D01*
X163322776Y-85704819D02*
X163275157Y-86181009D01*
X163275157Y-86181009D02*
X163322776Y-86133390D01*
X163322776Y-86133390D02*
X163418014Y-86085771D01*
X163418014Y-86085771D02*
X163656109Y-86085771D01*
X163656109Y-86085771D02*
X163751347Y-86133390D01*
X163751347Y-86133390D02*
X163798966Y-86181009D01*
X163798966Y-86181009D02*
X163846585Y-86276247D01*
X163846585Y-86276247D02*
X163846585Y-86514342D01*
X163846585Y-86514342D02*
X163798966Y-86609580D01*
X163798966Y-86609580D02*
X163751347Y-86657200D01*
X163751347Y-86657200D02*
X163656109Y-86704819D01*
X163656109Y-86704819D02*
X163418014Y-86704819D01*
X163418014Y-86704819D02*
X163322776Y-86657200D01*
X163322776Y-86657200D02*
X163275157Y-86609580D01*
X164465633Y-85704819D02*
X164560871Y-85704819D01*
X164560871Y-85704819D02*
X164656109Y-85752438D01*
X164656109Y-85752438D02*
X164703728Y-85800057D01*
X164703728Y-85800057D02*
X164751347Y-85895295D01*
X164751347Y-85895295D02*
X164798966Y-86085771D01*
X164798966Y-86085771D02*
X164798966Y-86323866D01*
X164798966Y-86323866D02*
X164751347Y-86514342D01*
X164751347Y-86514342D02*
X164703728Y-86609580D01*
X164703728Y-86609580D02*
X164656109Y-86657200D01*
X164656109Y-86657200D02*
X164560871Y-86704819D01*
X164560871Y-86704819D02*
X164465633Y-86704819D01*
X164465633Y-86704819D02*
X164370395Y-86657200D01*
X164370395Y-86657200D02*
X164322776Y-86609580D01*
X164322776Y-86609580D02*
X164275157Y-86514342D01*
X164275157Y-86514342D02*
X164227538Y-86323866D01*
X164227538Y-86323866D02*
X164227538Y-86085771D01*
X164227538Y-86085771D02*
X164275157Y-85895295D01*
X164275157Y-85895295D02*
X164322776Y-85800057D01*
X164322776Y-85800057D02*
X164370395Y-85752438D01*
X164370395Y-85752438D02*
X164465633Y-85704819D01*
X165084681Y-85704819D02*
X165418014Y-86704819D01*
X165418014Y-86704819D02*
X165751347Y-85704819D01*
X160989442Y-80359580D02*
X160941823Y-80407200D01*
X160941823Y-80407200D02*
X160798966Y-80454819D01*
X160798966Y-80454819D02*
X160703728Y-80454819D01*
X160703728Y-80454819D02*
X160560871Y-80407200D01*
X160560871Y-80407200D02*
X160465633Y-80311961D01*
X160465633Y-80311961D02*
X160418014Y-80216723D01*
X160418014Y-80216723D02*
X160370395Y-80026247D01*
X160370395Y-80026247D02*
X160370395Y-79883390D01*
X160370395Y-79883390D02*
X160418014Y-79692914D01*
X160418014Y-79692914D02*
X160465633Y-79597676D01*
X160465633Y-79597676D02*
X160560871Y-79502438D01*
X160560871Y-79502438D02*
X160703728Y-79454819D01*
X160703728Y-79454819D02*
X160798966Y-79454819D01*
X160798966Y-79454819D02*
X160941823Y-79502438D01*
X160941823Y-79502438D02*
X160989442Y-79550057D01*
X161941823Y-80454819D02*
X161370395Y-80454819D01*
X161656109Y-80454819D02*
X161656109Y-79454819D01*
X161656109Y-79454819D02*
X161560871Y-79597676D01*
X161560871Y-79597676D02*
X161465633Y-79692914D01*
X161465633Y-79692914D02*
X161370395Y-79740533D01*
X162846585Y-79454819D02*
X162370395Y-79454819D01*
X162370395Y-79454819D02*
X162322776Y-79931009D01*
X162322776Y-79931009D02*
X162370395Y-79883390D01*
X162370395Y-79883390D02*
X162465633Y-79835771D01*
X162465633Y-79835771D02*
X162703728Y-79835771D01*
X162703728Y-79835771D02*
X162798966Y-79883390D01*
X162798966Y-79883390D02*
X162846585Y-79931009D01*
X162846585Y-79931009D02*
X162894204Y-80026247D01*
X162894204Y-80026247D02*
X162894204Y-80264342D01*
X162894204Y-80264342D02*
X162846585Y-80359580D01*
X162846585Y-80359580D02*
X162798966Y-80407200D01*
X162798966Y-80407200D02*
X162703728Y-80454819D01*
X162703728Y-80454819D02*
X162465633Y-80454819D01*
X162465633Y-80454819D02*
X162370395Y-80407200D01*
X162370395Y-80407200D02*
X162322776Y-80359580D01*
X150324819Y-65166666D02*
X150324819Y-65738094D01*
X150324819Y-65452380D02*
X149324819Y-65452380D01*
X149324819Y-65452380D02*
X149467676Y-65547618D01*
X149467676Y-65547618D02*
X149562914Y-65642856D01*
X149562914Y-65642856D02*
X149610533Y-65738094D01*
X149324819Y-64547618D02*
X149324819Y-64452380D01*
X149324819Y-64452380D02*
X149372438Y-64357142D01*
X149372438Y-64357142D02*
X149420057Y-64309523D01*
X149420057Y-64309523D02*
X149515295Y-64261904D01*
X149515295Y-64261904D02*
X149705771Y-64214285D01*
X149705771Y-64214285D02*
X149943866Y-64214285D01*
X149943866Y-64214285D02*
X150134342Y-64261904D01*
X150134342Y-64261904D02*
X150229580Y-64309523D01*
X150229580Y-64309523D02*
X150277200Y-64357142D01*
X150277200Y-64357142D02*
X150324819Y-64452380D01*
X150324819Y-64452380D02*
X150324819Y-64547618D01*
X150324819Y-64547618D02*
X150277200Y-64642856D01*
X150277200Y-64642856D02*
X150229580Y-64690475D01*
X150229580Y-64690475D02*
X150134342Y-64738094D01*
X150134342Y-64738094D02*
X149943866Y-64785713D01*
X149943866Y-64785713D02*
X149705771Y-64785713D01*
X149705771Y-64785713D02*
X149515295Y-64738094D01*
X149515295Y-64738094D02*
X149420057Y-64690475D01*
X149420057Y-64690475D02*
X149372438Y-64642856D01*
X149372438Y-64642856D02*
X149324819Y-64547618D01*
X149324819Y-63595237D02*
X149324819Y-63499999D01*
X149324819Y-63499999D02*
X149372438Y-63404761D01*
X149372438Y-63404761D02*
X149420057Y-63357142D01*
X149420057Y-63357142D02*
X149515295Y-63309523D01*
X149515295Y-63309523D02*
X149705771Y-63261904D01*
X149705771Y-63261904D02*
X149943866Y-63261904D01*
X149943866Y-63261904D02*
X150134342Y-63309523D01*
X150134342Y-63309523D02*
X150229580Y-63357142D01*
X150229580Y-63357142D02*
X150277200Y-63404761D01*
X150277200Y-63404761D02*
X150324819Y-63499999D01*
X150324819Y-63499999D02*
X150324819Y-63595237D01*
X150324819Y-63595237D02*
X150277200Y-63690475D01*
X150277200Y-63690475D02*
X150229580Y-63738094D01*
X150229580Y-63738094D02*
X150134342Y-63785713D01*
X150134342Y-63785713D02*
X149943866Y-63833332D01*
X149943866Y-63833332D02*
X149705771Y-63833332D01*
X149705771Y-63833332D02*
X149515295Y-63785713D01*
X149515295Y-63785713D02*
X149420057Y-63738094D01*
X149420057Y-63738094D02*
X149372438Y-63690475D01*
X149372438Y-63690475D02*
X149324819Y-63595237D01*
X150324819Y-62261904D02*
X149848628Y-62595237D01*
X150324819Y-62833332D02*
X149324819Y-62833332D01*
X149324819Y-62833332D02*
X149324819Y-62452380D01*
X149324819Y-62452380D02*
X149372438Y-62357142D01*
X149372438Y-62357142D02*
X149420057Y-62309523D01*
X149420057Y-62309523D02*
X149515295Y-62261904D01*
X149515295Y-62261904D02*
X149658152Y-62261904D01*
X149658152Y-62261904D02*
X149753390Y-62309523D01*
X149753390Y-62309523D02*
X149801009Y-62357142D01*
X149801009Y-62357142D02*
X149848628Y-62452380D01*
X149848628Y-62452380D02*
X149848628Y-62833332D01*
X147954819Y-64166666D02*
X147478628Y-64499999D01*
X147954819Y-64738094D02*
X146954819Y-64738094D01*
X146954819Y-64738094D02*
X146954819Y-64357142D01*
X146954819Y-64357142D02*
X147002438Y-64261904D01*
X147002438Y-64261904D02*
X147050057Y-64214285D01*
X147050057Y-64214285D02*
X147145295Y-64166666D01*
X147145295Y-64166666D02*
X147288152Y-64166666D01*
X147288152Y-64166666D02*
X147383390Y-64214285D01*
X147383390Y-64214285D02*
X147431009Y-64261904D01*
X147431009Y-64261904D02*
X147478628Y-64357142D01*
X147478628Y-64357142D02*
X147478628Y-64738094D01*
X146954819Y-63309523D02*
X146954819Y-63499999D01*
X146954819Y-63499999D02*
X147002438Y-63595237D01*
X147002438Y-63595237D02*
X147050057Y-63642856D01*
X147050057Y-63642856D02*
X147192914Y-63738094D01*
X147192914Y-63738094D02*
X147383390Y-63785713D01*
X147383390Y-63785713D02*
X147764342Y-63785713D01*
X147764342Y-63785713D02*
X147859580Y-63738094D01*
X147859580Y-63738094D02*
X147907200Y-63690475D01*
X147907200Y-63690475D02*
X147954819Y-63595237D01*
X147954819Y-63595237D02*
X147954819Y-63404761D01*
X147954819Y-63404761D02*
X147907200Y-63309523D01*
X147907200Y-63309523D02*
X147859580Y-63261904D01*
X147859580Y-63261904D02*
X147764342Y-63214285D01*
X147764342Y-63214285D02*
X147526247Y-63214285D01*
X147526247Y-63214285D02*
X147431009Y-63261904D01*
X147431009Y-63261904D02*
X147383390Y-63309523D01*
X147383390Y-63309523D02*
X147335771Y-63404761D01*
X147335771Y-63404761D02*
X147335771Y-63595237D01*
X147335771Y-63595237D02*
X147383390Y-63690475D01*
X147383390Y-63690475D02*
X147431009Y-63738094D01*
X147431009Y-63738094D02*
X147526247Y-63785713D01*
X119054819Y-129999999D02*
X119054819Y-129380952D01*
X119054819Y-129380952D02*
X119435771Y-129714285D01*
X119435771Y-129714285D02*
X119435771Y-129571428D01*
X119435771Y-129571428D02*
X119483390Y-129476190D01*
X119483390Y-129476190D02*
X119531009Y-129428571D01*
X119531009Y-129428571D02*
X119626247Y-129380952D01*
X119626247Y-129380952D02*
X119864342Y-129380952D01*
X119864342Y-129380952D02*
X119959580Y-129428571D01*
X119959580Y-129428571D02*
X120007200Y-129476190D01*
X120007200Y-129476190D02*
X120054819Y-129571428D01*
X120054819Y-129571428D02*
X120054819Y-129857142D01*
X120054819Y-129857142D02*
X120007200Y-129952380D01*
X120007200Y-129952380D02*
X119959580Y-129999999D01*
X119054819Y-129047618D02*
X119054819Y-128428571D01*
X119054819Y-128428571D02*
X119435771Y-128761904D01*
X119435771Y-128761904D02*
X119435771Y-128619047D01*
X119435771Y-128619047D02*
X119483390Y-128523809D01*
X119483390Y-128523809D02*
X119531009Y-128476190D01*
X119531009Y-128476190D02*
X119626247Y-128428571D01*
X119626247Y-128428571D02*
X119864342Y-128428571D01*
X119864342Y-128428571D02*
X119959580Y-128476190D01*
X119959580Y-128476190D02*
X120007200Y-128523809D01*
X120007200Y-128523809D02*
X120054819Y-128619047D01*
X120054819Y-128619047D02*
X120054819Y-128904761D01*
X120054819Y-128904761D02*
X120007200Y-128999999D01*
X120007200Y-128999999D02*
X119959580Y-129047618D01*
X119054819Y-127809523D02*
X119054819Y-127714285D01*
X119054819Y-127714285D02*
X119102438Y-127619047D01*
X119102438Y-127619047D02*
X119150057Y-127571428D01*
X119150057Y-127571428D02*
X119245295Y-127523809D01*
X119245295Y-127523809D02*
X119435771Y-127476190D01*
X119435771Y-127476190D02*
X119673866Y-127476190D01*
X119673866Y-127476190D02*
X119864342Y-127523809D01*
X119864342Y-127523809D02*
X119959580Y-127571428D01*
X119959580Y-127571428D02*
X120007200Y-127619047D01*
X120007200Y-127619047D02*
X120054819Y-127714285D01*
X120054819Y-127714285D02*
X120054819Y-127809523D01*
X120054819Y-127809523D02*
X120007200Y-127904761D01*
X120007200Y-127904761D02*
X119959580Y-127952380D01*
X119959580Y-127952380D02*
X119864342Y-127999999D01*
X119864342Y-127999999D02*
X119673866Y-128047618D01*
X119673866Y-128047618D02*
X119435771Y-128047618D01*
X119435771Y-128047618D02*
X119245295Y-127999999D01*
X119245295Y-127999999D02*
X119150057Y-127952380D01*
X119150057Y-127952380D02*
X119102438Y-127904761D01*
X119102438Y-127904761D02*
X119054819Y-127809523D01*
X119388152Y-127047618D02*
X120054819Y-127047618D01*
X119483390Y-127047618D02*
X119435771Y-126999999D01*
X119435771Y-126999999D02*
X119388152Y-126904761D01*
X119388152Y-126904761D02*
X119388152Y-126761904D01*
X119388152Y-126761904D02*
X119435771Y-126666666D01*
X119435771Y-126666666D02*
X119531009Y-126619047D01*
X119531009Y-126619047D02*
X120054819Y-126619047D01*
X119531009Y-125809523D02*
X119531009Y-126142856D01*
X120054819Y-126142856D02*
X119054819Y-126142856D01*
X119054819Y-126142856D02*
X119054819Y-125666666D01*
X119388152Y-124666665D02*
X119388152Y-124285713D01*
X120054819Y-124523808D02*
X119197676Y-124523808D01*
X119197676Y-124523808D02*
X119102438Y-124476189D01*
X119102438Y-124476189D02*
X119054819Y-124380951D01*
X119054819Y-124380951D02*
X119054819Y-124285713D01*
X120054819Y-123952379D02*
X119388152Y-123952379D01*
X119054819Y-123952379D02*
X119102438Y-123999998D01*
X119102438Y-123999998D02*
X119150057Y-123952379D01*
X119150057Y-123952379D02*
X119102438Y-123904760D01*
X119102438Y-123904760D02*
X119054819Y-123952379D01*
X119054819Y-123952379D02*
X119150057Y-123952379D01*
X120054819Y-123333332D02*
X120007200Y-123428570D01*
X120007200Y-123428570D02*
X119911961Y-123476189D01*
X119911961Y-123476189D02*
X119054819Y-123476189D01*
X120054819Y-122952379D02*
X119388152Y-122952379D01*
X119483390Y-122952379D02*
X119435771Y-122904760D01*
X119435771Y-122904760D02*
X119388152Y-122809522D01*
X119388152Y-122809522D02*
X119388152Y-122666665D01*
X119388152Y-122666665D02*
X119435771Y-122571427D01*
X119435771Y-122571427D02*
X119531009Y-122523808D01*
X119531009Y-122523808D02*
X120054819Y-122523808D01*
X119531009Y-122523808D02*
X119435771Y-122476189D01*
X119435771Y-122476189D02*
X119388152Y-122380951D01*
X119388152Y-122380951D02*
X119388152Y-122238094D01*
X119388152Y-122238094D02*
X119435771Y-122142855D01*
X119435771Y-122142855D02*
X119531009Y-122095236D01*
X119531009Y-122095236D02*
X120054819Y-122095236D01*
X115859580Y-127023809D02*
X115907200Y-127071428D01*
X115907200Y-127071428D02*
X115954819Y-127214285D01*
X115954819Y-127214285D02*
X115954819Y-127309523D01*
X115954819Y-127309523D02*
X115907200Y-127452380D01*
X115907200Y-127452380D02*
X115811961Y-127547618D01*
X115811961Y-127547618D02*
X115716723Y-127595237D01*
X115716723Y-127595237D02*
X115526247Y-127642856D01*
X115526247Y-127642856D02*
X115383390Y-127642856D01*
X115383390Y-127642856D02*
X115192914Y-127595237D01*
X115192914Y-127595237D02*
X115097676Y-127547618D01*
X115097676Y-127547618D02*
X115002438Y-127452380D01*
X115002438Y-127452380D02*
X114954819Y-127309523D01*
X114954819Y-127309523D02*
X114954819Y-127214285D01*
X114954819Y-127214285D02*
X115002438Y-127071428D01*
X115002438Y-127071428D02*
X115050057Y-127023809D01*
X115954819Y-126071428D02*
X115954819Y-126642856D01*
X115954819Y-126357142D02*
X114954819Y-126357142D01*
X114954819Y-126357142D02*
X115097676Y-126452380D01*
X115097676Y-126452380D02*
X115192914Y-126547618D01*
X115192914Y-126547618D02*
X115240533Y-126642856D01*
X116050057Y-125880952D02*
X116050057Y-125119047D01*
X115954819Y-124357142D02*
X115954819Y-124928570D01*
X115954819Y-124642856D02*
X114954819Y-124642856D01*
X114954819Y-124642856D02*
X115097676Y-124738094D01*
X115097676Y-124738094D02*
X115192914Y-124833332D01*
X115192914Y-124833332D02*
X115240533Y-124928570D01*
X125824819Y-68071428D02*
X125824819Y-68642856D01*
X125824819Y-68357142D02*
X124824819Y-68357142D01*
X124824819Y-68357142D02*
X124967676Y-68452380D01*
X124967676Y-68452380D02*
X125062914Y-68547618D01*
X125062914Y-68547618D02*
X125110533Y-68642856D01*
X124824819Y-67214285D02*
X124824819Y-67404761D01*
X124824819Y-67404761D02*
X124872438Y-67499999D01*
X124872438Y-67499999D02*
X124920057Y-67547618D01*
X124920057Y-67547618D02*
X125062914Y-67642856D01*
X125062914Y-67642856D02*
X125253390Y-67690475D01*
X125253390Y-67690475D02*
X125634342Y-67690475D01*
X125634342Y-67690475D02*
X125729580Y-67642856D01*
X125729580Y-67642856D02*
X125777200Y-67595237D01*
X125777200Y-67595237D02*
X125824819Y-67499999D01*
X125824819Y-67499999D02*
X125824819Y-67309523D01*
X125824819Y-67309523D02*
X125777200Y-67214285D01*
X125777200Y-67214285D02*
X125729580Y-67166666D01*
X125729580Y-67166666D02*
X125634342Y-67119047D01*
X125634342Y-67119047D02*
X125396247Y-67119047D01*
X125396247Y-67119047D02*
X125301009Y-67166666D01*
X125301009Y-67166666D02*
X125253390Y-67214285D01*
X125253390Y-67214285D02*
X125205771Y-67309523D01*
X125205771Y-67309523D02*
X125205771Y-67499999D01*
X125205771Y-67499999D02*
X125253390Y-67595237D01*
X125253390Y-67595237D02*
X125301009Y-67642856D01*
X125301009Y-67642856D02*
X125396247Y-67690475D01*
X125824819Y-66690475D02*
X124824819Y-66690475D01*
X125443866Y-66595237D02*
X125824819Y-66309523D01*
X125158152Y-66309523D02*
X125539104Y-66690475D01*
X124824819Y-65404761D02*
X124824819Y-65880951D01*
X124824819Y-65880951D02*
X125301009Y-65928570D01*
X125301009Y-65928570D02*
X125253390Y-65880951D01*
X125253390Y-65880951D02*
X125205771Y-65785713D01*
X125205771Y-65785713D02*
X125205771Y-65547618D01*
X125205771Y-65547618D02*
X125253390Y-65452380D01*
X125253390Y-65452380D02*
X125301009Y-65404761D01*
X125301009Y-65404761D02*
X125396247Y-65357142D01*
X125396247Y-65357142D02*
X125634342Y-65357142D01*
X125634342Y-65357142D02*
X125729580Y-65404761D01*
X125729580Y-65404761D02*
X125777200Y-65452380D01*
X125777200Y-65452380D02*
X125824819Y-65547618D01*
X125824819Y-65547618D02*
X125824819Y-65785713D01*
X125824819Y-65785713D02*
X125777200Y-65880951D01*
X125777200Y-65880951D02*
X125729580Y-65928570D01*
X123454819Y-68023809D02*
X122978628Y-68357142D01*
X123454819Y-68595237D02*
X122454819Y-68595237D01*
X122454819Y-68595237D02*
X122454819Y-68214285D01*
X122454819Y-68214285D02*
X122502438Y-68119047D01*
X122502438Y-68119047D02*
X122550057Y-68071428D01*
X122550057Y-68071428D02*
X122645295Y-68023809D01*
X122645295Y-68023809D02*
X122788152Y-68023809D01*
X122788152Y-68023809D02*
X122883390Y-68071428D01*
X122883390Y-68071428D02*
X122931009Y-68119047D01*
X122931009Y-68119047D02*
X122978628Y-68214285D01*
X122978628Y-68214285D02*
X122978628Y-68595237D01*
X123454819Y-67071428D02*
X123454819Y-67642856D01*
X123454819Y-67357142D02*
X122454819Y-67357142D01*
X122454819Y-67357142D02*
X122597676Y-67452380D01*
X122597676Y-67452380D02*
X122692914Y-67547618D01*
X122692914Y-67547618D02*
X122740533Y-67642856D01*
X123550057Y-66880952D02*
X123550057Y-66119047D01*
X122550057Y-65928570D02*
X122502438Y-65880951D01*
X122502438Y-65880951D02*
X122454819Y-65785713D01*
X122454819Y-65785713D02*
X122454819Y-65547618D01*
X122454819Y-65547618D02*
X122502438Y-65452380D01*
X122502438Y-65452380D02*
X122550057Y-65404761D01*
X122550057Y-65404761D02*
X122645295Y-65357142D01*
X122645295Y-65357142D02*
X122740533Y-65357142D01*
X122740533Y-65357142D02*
X122883390Y-65404761D01*
X122883390Y-65404761D02*
X123454819Y-65976189D01*
X123454819Y-65976189D02*
X123454819Y-65357142D01*
X109454819Y-102500000D02*
X109454819Y-102690476D01*
X109454819Y-102690476D02*
X109502438Y-102785714D01*
X109502438Y-102785714D02*
X109550057Y-102833333D01*
X109550057Y-102833333D02*
X109692914Y-102928571D01*
X109692914Y-102928571D02*
X109883390Y-102976190D01*
X109883390Y-102976190D02*
X110264342Y-102976190D01*
X110264342Y-102976190D02*
X110359580Y-102928571D01*
X110359580Y-102928571D02*
X110407200Y-102880952D01*
X110407200Y-102880952D02*
X110454819Y-102785714D01*
X110454819Y-102785714D02*
X110454819Y-102595238D01*
X110454819Y-102595238D02*
X110407200Y-102500000D01*
X110407200Y-102500000D02*
X110359580Y-102452381D01*
X110359580Y-102452381D02*
X110264342Y-102404762D01*
X110264342Y-102404762D02*
X110026247Y-102404762D01*
X110026247Y-102404762D02*
X109931009Y-102452381D01*
X109931009Y-102452381D02*
X109883390Y-102500000D01*
X109883390Y-102500000D02*
X109835771Y-102595238D01*
X109835771Y-102595238D02*
X109835771Y-102785714D01*
X109835771Y-102785714D02*
X109883390Y-102880952D01*
X109883390Y-102880952D02*
X109931009Y-102928571D01*
X109931009Y-102928571D02*
X110026247Y-102976190D01*
X109883390Y-101833333D02*
X109835771Y-101928571D01*
X109835771Y-101928571D02*
X109788152Y-101976190D01*
X109788152Y-101976190D02*
X109692914Y-102023809D01*
X109692914Y-102023809D02*
X109645295Y-102023809D01*
X109645295Y-102023809D02*
X109550057Y-101976190D01*
X109550057Y-101976190D02*
X109502438Y-101928571D01*
X109502438Y-101928571D02*
X109454819Y-101833333D01*
X109454819Y-101833333D02*
X109454819Y-101642857D01*
X109454819Y-101642857D02*
X109502438Y-101547619D01*
X109502438Y-101547619D02*
X109550057Y-101500000D01*
X109550057Y-101500000D02*
X109645295Y-101452381D01*
X109645295Y-101452381D02*
X109692914Y-101452381D01*
X109692914Y-101452381D02*
X109788152Y-101500000D01*
X109788152Y-101500000D02*
X109835771Y-101547619D01*
X109835771Y-101547619D02*
X109883390Y-101642857D01*
X109883390Y-101642857D02*
X109883390Y-101833333D01*
X109883390Y-101833333D02*
X109931009Y-101928571D01*
X109931009Y-101928571D02*
X109978628Y-101976190D01*
X109978628Y-101976190D02*
X110073866Y-102023809D01*
X110073866Y-102023809D02*
X110264342Y-102023809D01*
X110264342Y-102023809D02*
X110359580Y-101976190D01*
X110359580Y-101976190D02*
X110407200Y-101928571D01*
X110407200Y-101928571D02*
X110454819Y-101833333D01*
X110454819Y-101833333D02*
X110454819Y-101642857D01*
X110454819Y-101642857D02*
X110407200Y-101547619D01*
X110407200Y-101547619D02*
X110359580Y-101500000D01*
X110359580Y-101500000D02*
X110264342Y-101452381D01*
X110264342Y-101452381D02*
X110073866Y-101452381D01*
X110073866Y-101452381D02*
X109978628Y-101500000D01*
X109978628Y-101500000D02*
X109931009Y-101547619D01*
X109931009Y-101547619D02*
X109883390Y-101642857D01*
X109788152Y-101023809D02*
X110454819Y-101023809D01*
X109883390Y-101023809D02*
X109835771Y-100976190D01*
X109835771Y-100976190D02*
X109788152Y-100880952D01*
X109788152Y-100880952D02*
X109788152Y-100738095D01*
X109788152Y-100738095D02*
X109835771Y-100642857D01*
X109835771Y-100642857D02*
X109931009Y-100595238D01*
X109931009Y-100595238D02*
X110454819Y-100595238D01*
X109931009Y-99785714D02*
X109931009Y-100119047D01*
X110454819Y-100119047D02*
X109454819Y-100119047D01*
X109454819Y-100119047D02*
X109454819Y-99642857D01*
X109788152Y-98642856D02*
X109788152Y-98261904D01*
X110454819Y-98499999D02*
X109597676Y-98499999D01*
X109597676Y-98499999D02*
X109502438Y-98452380D01*
X109502438Y-98452380D02*
X109454819Y-98357142D01*
X109454819Y-98357142D02*
X109454819Y-98261904D01*
X110454819Y-97928570D02*
X109788152Y-97928570D01*
X109454819Y-97928570D02*
X109502438Y-97976189D01*
X109502438Y-97976189D02*
X109550057Y-97928570D01*
X109550057Y-97928570D02*
X109502438Y-97880951D01*
X109502438Y-97880951D02*
X109454819Y-97928570D01*
X109454819Y-97928570D02*
X109550057Y-97928570D01*
X110454819Y-97309523D02*
X110407200Y-97404761D01*
X110407200Y-97404761D02*
X110311961Y-97452380D01*
X110311961Y-97452380D02*
X109454819Y-97452380D01*
X110454819Y-96928570D02*
X109788152Y-96928570D01*
X109883390Y-96928570D02*
X109835771Y-96880951D01*
X109835771Y-96880951D02*
X109788152Y-96785713D01*
X109788152Y-96785713D02*
X109788152Y-96642856D01*
X109788152Y-96642856D02*
X109835771Y-96547618D01*
X109835771Y-96547618D02*
X109931009Y-96499999D01*
X109931009Y-96499999D02*
X110454819Y-96499999D01*
X109931009Y-96499999D02*
X109835771Y-96452380D01*
X109835771Y-96452380D02*
X109788152Y-96357142D01*
X109788152Y-96357142D02*
X109788152Y-96214285D01*
X109788152Y-96214285D02*
X109835771Y-96119046D01*
X109835771Y-96119046D02*
X109931009Y-96071427D01*
X109931009Y-96071427D02*
X110454819Y-96071427D01*
X115109580Y-100523809D02*
X115157200Y-100571428D01*
X115157200Y-100571428D02*
X115204819Y-100714285D01*
X115204819Y-100714285D02*
X115204819Y-100809523D01*
X115204819Y-100809523D02*
X115157200Y-100952380D01*
X115157200Y-100952380D02*
X115061961Y-101047618D01*
X115061961Y-101047618D02*
X114966723Y-101095237D01*
X114966723Y-101095237D02*
X114776247Y-101142856D01*
X114776247Y-101142856D02*
X114633390Y-101142856D01*
X114633390Y-101142856D02*
X114442914Y-101095237D01*
X114442914Y-101095237D02*
X114347676Y-101047618D01*
X114347676Y-101047618D02*
X114252438Y-100952380D01*
X114252438Y-100952380D02*
X114204819Y-100809523D01*
X114204819Y-100809523D02*
X114204819Y-100714285D01*
X114204819Y-100714285D02*
X114252438Y-100571428D01*
X114252438Y-100571428D02*
X114300057Y-100523809D01*
X114300057Y-100142856D02*
X114252438Y-100095237D01*
X114252438Y-100095237D02*
X114204819Y-99999999D01*
X114204819Y-99999999D02*
X114204819Y-99761904D01*
X114204819Y-99761904D02*
X114252438Y-99666666D01*
X114252438Y-99666666D02*
X114300057Y-99619047D01*
X114300057Y-99619047D02*
X114395295Y-99571428D01*
X114395295Y-99571428D02*
X114490533Y-99571428D01*
X114490533Y-99571428D02*
X114633390Y-99619047D01*
X114633390Y-99619047D02*
X115204819Y-100190475D01*
X115204819Y-100190475D02*
X115204819Y-99571428D01*
X115300057Y-99380952D02*
X115300057Y-98619047D01*
X114204819Y-98476189D02*
X114204819Y-97857142D01*
X114204819Y-97857142D02*
X114585771Y-98190475D01*
X114585771Y-98190475D02*
X114585771Y-98047618D01*
X114585771Y-98047618D02*
X114633390Y-97952380D01*
X114633390Y-97952380D02*
X114681009Y-97904761D01*
X114681009Y-97904761D02*
X114776247Y-97857142D01*
X114776247Y-97857142D02*
X115014342Y-97857142D01*
X115014342Y-97857142D02*
X115109580Y-97904761D01*
X115109580Y-97904761D02*
X115157200Y-97952380D01*
X115157200Y-97952380D02*
X115204819Y-98047618D01*
X115204819Y-98047618D02*
X115204819Y-98333332D01*
X115204819Y-98333332D02*
X115157200Y-98428570D01*
X115157200Y-98428570D02*
X115109580Y-98476189D01*
X194954819Y-118047619D02*
X194954819Y-118619047D01*
X194954819Y-118333333D02*
X193954819Y-118333333D01*
X193954819Y-118333333D02*
X194097676Y-118428571D01*
X194097676Y-118428571D02*
X194192914Y-118523809D01*
X194192914Y-118523809D02*
X194240533Y-118619047D01*
X193954819Y-117428571D02*
X193954819Y-117333333D01*
X193954819Y-117333333D02*
X194002438Y-117238095D01*
X194002438Y-117238095D02*
X194050057Y-117190476D01*
X194050057Y-117190476D02*
X194145295Y-117142857D01*
X194145295Y-117142857D02*
X194335771Y-117095238D01*
X194335771Y-117095238D02*
X194573866Y-117095238D01*
X194573866Y-117095238D02*
X194764342Y-117142857D01*
X194764342Y-117142857D02*
X194859580Y-117190476D01*
X194859580Y-117190476D02*
X194907200Y-117238095D01*
X194907200Y-117238095D02*
X194954819Y-117333333D01*
X194954819Y-117333333D02*
X194954819Y-117428571D01*
X194954819Y-117428571D02*
X194907200Y-117523809D01*
X194907200Y-117523809D02*
X194859580Y-117571428D01*
X194859580Y-117571428D02*
X194764342Y-117619047D01*
X194764342Y-117619047D02*
X194573866Y-117666666D01*
X194573866Y-117666666D02*
X194335771Y-117666666D01*
X194335771Y-117666666D02*
X194145295Y-117619047D01*
X194145295Y-117619047D02*
X194050057Y-117571428D01*
X194050057Y-117571428D02*
X194002438Y-117523809D01*
X194002438Y-117523809D02*
X193954819Y-117428571D01*
X193954819Y-116476190D02*
X193954819Y-116380952D01*
X193954819Y-116380952D02*
X194002438Y-116285714D01*
X194002438Y-116285714D02*
X194050057Y-116238095D01*
X194050057Y-116238095D02*
X194145295Y-116190476D01*
X194145295Y-116190476D02*
X194335771Y-116142857D01*
X194335771Y-116142857D02*
X194573866Y-116142857D01*
X194573866Y-116142857D02*
X194764342Y-116190476D01*
X194764342Y-116190476D02*
X194859580Y-116238095D01*
X194859580Y-116238095D02*
X194907200Y-116285714D01*
X194907200Y-116285714D02*
X194954819Y-116380952D01*
X194954819Y-116380952D02*
X194954819Y-116476190D01*
X194954819Y-116476190D02*
X194907200Y-116571428D01*
X194907200Y-116571428D02*
X194859580Y-116619047D01*
X194859580Y-116619047D02*
X194764342Y-116666666D01*
X194764342Y-116666666D02*
X194573866Y-116714285D01*
X194573866Y-116714285D02*
X194335771Y-116714285D01*
X194335771Y-116714285D02*
X194145295Y-116666666D01*
X194145295Y-116666666D02*
X194050057Y-116619047D01*
X194050057Y-116619047D02*
X194002438Y-116571428D01*
X194002438Y-116571428D02*
X193954819Y-116476190D01*
X194288152Y-115714285D02*
X194954819Y-115714285D01*
X194383390Y-115714285D02*
X194335771Y-115666666D01*
X194335771Y-115666666D02*
X194288152Y-115571428D01*
X194288152Y-115571428D02*
X194288152Y-115428571D01*
X194288152Y-115428571D02*
X194335771Y-115333333D01*
X194335771Y-115333333D02*
X194431009Y-115285714D01*
X194431009Y-115285714D02*
X194954819Y-115285714D01*
X194431009Y-114476190D02*
X194431009Y-114809523D01*
X194954819Y-114809523D02*
X193954819Y-114809523D01*
X193954819Y-114809523D02*
X193954819Y-114333333D01*
X192359580Y-117142857D02*
X192407200Y-117190476D01*
X192407200Y-117190476D02*
X192454819Y-117333333D01*
X192454819Y-117333333D02*
X192454819Y-117428571D01*
X192454819Y-117428571D02*
X192407200Y-117571428D01*
X192407200Y-117571428D02*
X192311961Y-117666666D01*
X192311961Y-117666666D02*
X192216723Y-117714285D01*
X192216723Y-117714285D02*
X192026247Y-117761904D01*
X192026247Y-117761904D02*
X191883390Y-117761904D01*
X191883390Y-117761904D02*
X191692914Y-117714285D01*
X191692914Y-117714285D02*
X191597676Y-117666666D01*
X191597676Y-117666666D02*
X191502438Y-117571428D01*
X191502438Y-117571428D02*
X191454819Y-117428571D01*
X191454819Y-117428571D02*
X191454819Y-117333333D01*
X191454819Y-117333333D02*
X191502438Y-117190476D01*
X191502438Y-117190476D02*
X191550057Y-117142857D01*
X192454819Y-116190476D02*
X192454819Y-116761904D01*
X192454819Y-116476190D02*
X191454819Y-116476190D01*
X191454819Y-116476190D02*
X191597676Y-116571428D01*
X191597676Y-116571428D02*
X191692914Y-116666666D01*
X191692914Y-116666666D02*
X191740533Y-116761904D01*
X191454819Y-115857142D02*
X191454819Y-115238095D01*
X191454819Y-115238095D02*
X191835771Y-115571428D01*
X191835771Y-115571428D02*
X191835771Y-115428571D01*
X191835771Y-115428571D02*
X191883390Y-115333333D01*
X191883390Y-115333333D02*
X191931009Y-115285714D01*
X191931009Y-115285714D02*
X192026247Y-115238095D01*
X192026247Y-115238095D02*
X192264342Y-115238095D01*
X192264342Y-115238095D02*
X192359580Y-115285714D01*
X192359580Y-115285714D02*
X192407200Y-115333333D01*
X192407200Y-115333333D02*
X192454819Y-115428571D01*
X192454819Y-115428571D02*
X192454819Y-115714285D01*
X192454819Y-115714285D02*
X192407200Y-115809523D01*
X192407200Y-115809523D02*
X192359580Y-115857142D01*
X117253390Y-88952380D02*
X117205771Y-89047618D01*
X117205771Y-89047618D02*
X117158152Y-89095237D01*
X117158152Y-89095237D02*
X117062914Y-89142856D01*
X117062914Y-89142856D02*
X117015295Y-89142856D01*
X117015295Y-89142856D02*
X116920057Y-89095237D01*
X116920057Y-89095237D02*
X116872438Y-89047618D01*
X116872438Y-89047618D02*
X116824819Y-88952380D01*
X116824819Y-88952380D02*
X116824819Y-88761904D01*
X116824819Y-88761904D02*
X116872438Y-88666666D01*
X116872438Y-88666666D02*
X116920057Y-88619047D01*
X116920057Y-88619047D02*
X117015295Y-88571428D01*
X117015295Y-88571428D02*
X117062914Y-88571428D01*
X117062914Y-88571428D02*
X117158152Y-88619047D01*
X117158152Y-88619047D02*
X117205771Y-88666666D01*
X117205771Y-88666666D02*
X117253390Y-88761904D01*
X117253390Y-88761904D02*
X117253390Y-88952380D01*
X117253390Y-88952380D02*
X117301009Y-89047618D01*
X117301009Y-89047618D02*
X117348628Y-89095237D01*
X117348628Y-89095237D02*
X117443866Y-89142856D01*
X117443866Y-89142856D02*
X117634342Y-89142856D01*
X117634342Y-89142856D02*
X117729580Y-89095237D01*
X117729580Y-89095237D02*
X117777200Y-89047618D01*
X117777200Y-89047618D02*
X117824819Y-88952380D01*
X117824819Y-88952380D02*
X117824819Y-88761904D01*
X117824819Y-88761904D02*
X117777200Y-88666666D01*
X117777200Y-88666666D02*
X117729580Y-88619047D01*
X117729580Y-88619047D02*
X117634342Y-88571428D01*
X117634342Y-88571428D02*
X117443866Y-88571428D01*
X117443866Y-88571428D02*
X117348628Y-88619047D01*
X117348628Y-88619047D02*
X117301009Y-88666666D01*
X117301009Y-88666666D02*
X117253390Y-88761904D01*
X117824819Y-88142856D02*
X116824819Y-88142856D01*
X117443866Y-88047618D02*
X117824819Y-87761904D01*
X117158152Y-87761904D02*
X117539104Y-88142856D01*
X116920057Y-87380951D02*
X116872438Y-87333332D01*
X116872438Y-87333332D02*
X116824819Y-87238094D01*
X116824819Y-87238094D02*
X116824819Y-86999999D01*
X116824819Y-86999999D02*
X116872438Y-86904761D01*
X116872438Y-86904761D02*
X116920057Y-86857142D01*
X116920057Y-86857142D02*
X117015295Y-86809523D01*
X117015295Y-86809523D02*
X117110533Y-86809523D01*
X117110533Y-86809523D02*
X117253390Y-86857142D01*
X117253390Y-86857142D02*
X117824819Y-87428570D01*
X117824819Y-87428570D02*
X117824819Y-86809523D01*
X116824819Y-85904761D02*
X116824819Y-86380951D01*
X116824819Y-86380951D02*
X117301009Y-86428570D01*
X117301009Y-86428570D02*
X117253390Y-86380951D01*
X117253390Y-86380951D02*
X117205771Y-86285713D01*
X117205771Y-86285713D02*
X117205771Y-86047618D01*
X117205771Y-86047618D02*
X117253390Y-85952380D01*
X117253390Y-85952380D02*
X117301009Y-85904761D01*
X117301009Y-85904761D02*
X117396247Y-85857142D01*
X117396247Y-85857142D02*
X117634342Y-85857142D01*
X117634342Y-85857142D02*
X117729580Y-85904761D01*
X117729580Y-85904761D02*
X117777200Y-85952380D01*
X117777200Y-85952380D02*
X117824819Y-86047618D01*
X117824819Y-86047618D02*
X117824819Y-86285713D01*
X117824819Y-86285713D02*
X117777200Y-86380951D01*
X117777200Y-86380951D02*
X117729580Y-86428570D01*
X115454819Y-87666666D02*
X114978628Y-87999999D01*
X115454819Y-88238094D02*
X114454819Y-88238094D01*
X114454819Y-88238094D02*
X114454819Y-87857142D01*
X114454819Y-87857142D02*
X114502438Y-87761904D01*
X114502438Y-87761904D02*
X114550057Y-87714285D01*
X114550057Y-87714285D02*
X114645295Y-87666666D01*
X114645295Y-87666666D02*
X114788152Y-87666666D01*
X114788152Y-87666666D02*
X114883390Y-87714285D01*
X114883390Y-87714285D02*
X114931009Y-87761904D01*
X114931009Y-87761904D02*
X114978628Y-87857142D01*
X114978628Y-87857142D02*
X114978628Y-88238094D01*
X114550057Y-87285713D02*
X114502438Y-87238094D01*
X114502438Y-87238094D02*
X114454819Y-87142856D01*
X114454819Y-87142856D02*
X114454819Y-86904761D01*
X114454819Y-86904761D02*
X114502438Y-86809523D01*
X114502438Y-86809523D02*
X114550057Y-86761904D01*
X114550057Y-86761904D02*
X114645295Y-86714285D01*
X114645295Y-86714285D02*
X114740533Y-86714285D01*
X114740533Y-86714285D02*
X114883390Y-86761904D01*
X114883390Y-86761904D02*
X115454819Y-87333332D01*
X115454819Y-87333332D02*
X115454819Y-86714285D01*
X91954819Y-98380952D02*
X91954819Y-98952380D01*
X91954819Y-98666666D02*
X90954819Y-98666666D01*
X90954819Y-98666666D02*
X91097676Y-98761904D01*
X91097676Y-98761904D02*
X91192914Y-98857142D01*
X91192914Y-98857142D02*
X91240533Y-98952380D01*
X90954819Y-97761904D02*
X90954819Y-97666666D01*
X90954819Y-97666666D02*
X91002438Y-97571428D01*
X91002438Y-97571428D02*
X91050057Y-97523809D01*
X91050057Y-97523809D02*
X91145295Y-97476190D01*
X91145295Y-97476190D02*
X91335771Y-97428571D01*
X91335771Y-97428571D02*
X91573866Y-97428571D01*
X91573866Y-97428571D02*
X91764342Y-97476190D01*
X91764342Y-97476190D02*
X91859580Y-97523809D01*
X91859580Y-97523809D02*
X91907200Y-97571428D01*
X91907200Y-97571428D02*
X91954819Y-97666666D01*
X91954819Y-97666666D02*
X91954819Y-97761904D01*
X91954819Y-97761904D02*
X91907200Y-97857142D01*
X91907200Y-97857142D02*
X91859580Y-97904761D01*
X91859580Y-97904761D02*
X91764342Y-97952380D01*
X91764342Y-97952380D02*
X91573866Y-97999999D01*
X91573866Y-97999999D02*
X91335771Y-97999999D01*
X91335771Y-97999999D02*
X91145295Y-97952380D01*
X91145295Y-97952380D02*
X91050057Y-97904761D01*
X91050057Y-97904761D02*
X91002438Y-97857142D01*
X91002438Y-97857142D02*
X90954819Y-97761904D01*
X90954819Y-96809523D02*
X90954819Y-96714285D01*
X90954819Y-96714285D02*
X91002438Y-96619047D01*
X91002438Y-96619047D02*
X91050057Y-96571428D01*
X91050057Y-96571428D02*
X91145295Y-96523809D01*
X91145295Y-96523809D02*
X91335771Y-96476190D01*
X91335771Y-96476190D02*
X91573866Y-96476190D01*
X91573866Y-96476190D02*
X91764342Y-96523809D01*
X91764342Y-96523809D02*
X91859580Y-96571428D01*
X91859580Y-96571428D02*
X91907200Y-96619047D01*
X91907200Y-96619047D02*
X91954819Y-96714285D01*
X91954819Y-96714285D02*
X91954819Y-96809523D01*
X91954819Y-96809523D02*
X91907200Y-96904761D01*
X91907200Y-96904761D02*
X91859580Y-96952380D01*
X91859580Y-96952380D02*
X91764342Y-96999999D01*
X91764342Y-96999999D02*
X91573866Y-97047618D01*
X91573866Y-97047618D02*
X91335771Y-97047618D01*
X91335771Y-97047618D02*
X91145295Y-96999999D01*
X91145295Y-96999999D02*
X91050057Y-96952380D01*
X91050057Y-96952380D02*
X91002438Y-96904761D01*
X91002438Y-96904761D02*
X90954819Y-96809523D01*
X91288152Y-96047618D02*
X91954819Y-96047618D01*
X91383390Y-96047618D02*
X91335771Y-95999999D01*
X91335771Y-95999999D02*
X91288152Y-95904761D01*
X91288152Y-95904761D02*
X91288152Y-95761904D01*
X91288152Y-95761904D02*
X91335771Y-95666666D01*
X91335771Y-95666666D02*
X91431009Y-95619047D01*
X91431009Y-95619047D02*
X91954819Y-95619047D01*
X91431009Y-94809523D02*
X91431009Y-95142856D01*
X91954819Y-95142856D02*
X90954819Y-95142856D01*
X90954819Y-95142856D02*
X90954819Y-94666666D01*
X91288152Y-93666665D02*
X91288152Y-93285713D01*
X91954819Y-93523808D02*
X91097676Y-93523808D01*
X91097676Y-93523808D02*
X91002438Y-93476189D01*
X91002438Y-93476189D02*
X90954819Y-93380951D01*
X90954819Y-93380951D02*
X90954819Y-93285713D01*
X91954819Y-92952379D02*
X91288152Y-92952379D01*
X90954819Y-92952379D02*
X91002438Y-92999998D01*
X91002438Y-92999998D02*
X91050057Y-92952379D01*
X91050057Y-92952379D02*
X91002438Y-92904760D01*
X91002438Y-92904760D02*
X90954819Y-92952379D01*
X90954819Y-92952379D02*
X91050057Y-92952379D01*
X91954819Y-92333332D02*
X91907200Y-92428570D01*
X91907200Y-92428570D02*
X91811961Y-92476189D01*
X91811961Y-92476189D02*
X90954819Y-92476189D01*
X91954819Y-91952379D02*
X91288152Y-91952379D01*
X91383390Y-91952379D02*
X91335771Y-91904760D01*
X91335771Y-91904760D02*
X91288152Y-91809522D01*
X91288152Y-91809522D02*
X91288152Y-91666665D01*
X91288152Y-91666665D02*
X91335771Y-91571427D01*
X91335771Y-91571427D02*
X91431009Y-91523808D01*
X91431009Y-91523808D02*
X91954819Y-91523808D01*
X91431009Y-91523808D02*
X91335771Y-91476189D01*
X91335771Y-91476189D02*
X91288152Y-91380951D01*
X91288152Y-91380951D02*
X91288152Y-91238094D01*
X91288152Y-91238094D02*
X91335771Y-91142855D01*
X91335771Y-91142855D02*
X91431009Y-91095236D01*
X91431009Y-91095236D02*
X91954819Y-91095236D01*
X96609580Y-96023809D02*
X96657200Y-96071428D01*
X96657200Y-96071428D02*
X96704819Y-96214285D01*
X96704819Y-96214285D02*
X96704819Y-96309523D01*
X96704819Y-96309523D02*
X96657200Y-96452380D01*
X96657200Y-96452380D02*
X96561961Y-96547618D01*
X96561961Y-96547618D02*
X96466723Y-96595237D01*
X96466723Y-96595237D02*
X96276247Y-96642856D01*
X96276247Y-96642856D02*
X96133390Y-96642856D01*
X96133390Y-96642856D02*
X95942914Y-96595237D01*
X95942914Y-96595237D02*
X95847676Y-96547618D01*
X95847676Y-96547618D02*
X95752438Y-96452380D01*
X95752438Y-96452380D02*
X95704819Y-96309523D01*
X95704819Y-96309523D02*
X95704819Y-96214285D01*
X95704819Y-96214285D02*
X95752438Y-96071428D01*
X95752438Y-96071428D02*
X95800057Y-96023809D01*
X95800057Y-95642856D02*
X95752438Y-95595237D01*
X95752438Y-95595237D02*
X95704819Y-95499999D01*
X95704819Y-95499999D02*
X95704819Y-95261904D01*
X95704819Y-95261904D02*
X95752438Y-95166666D01*
X95752438Y-95166666D02*
X95800057Y-95119047D01*
X95800057Y-95119047D02*
X95895295Y-95071428D01*
X95895295Y-95071428D02*
X95990533Y-95071428D01*
X95990533Y-95071428D02*
X96133390Y-95119047D01*
X96133390Y-95119047D02*
X96704819Y-95690475D01*
X96704819Y-95690475D02*
X96704819Y-95071428D01*
X96800057Y-94880952D02*
X96800057Y-94119047D01*
X95800057Y-93928570D02*
X95752438Y-93880951D01*
X95752438Y-93880951D02*
X95704819Y-93785713D01*
X95704819Y-93785713D02*
X95704819Y-93547618D01*
X95704819Y-93547618D02*
X95752438Y-93452380D01*
X95752438Y-93452380D02*
X95800057Y-93404761D01*
X95800057Y-93404761D02*
X95895295Y-93357142D01*
X95895295Y-93357142D02*
X95990533Y-93357142D01*
X95990533Y-93357142D02*
X96133390Y-93404761D01*
X96133390Y-93404761D02*
X96704819Y-93976189D01*
X96704819Y-93976189D02*
X96704819Y-93357142D01*
X115324819Y-68071428D02*
X115324819Y-68642856D01*
X115324819Y-68357142D02*
X114324819Y-68357142D01*
X114324819Y-68357142D02*
X114467676Y-68452380D01*
X114467676Y-68452380D02*
X114562914Y-68547618D01*
X114562914Y-68547618D02*
X114610533Y-68642856D01*
X114324819Y-67452380D02*
X114324819Y-67357142D01*
X114324819Y-67357142D02*
X114372438Y-67261904D01*
X114372438Y-67261904D02*
X114420057Y-67214285D01*
X114420057Y-67214285D02*
X114515295Y-67166666D01*
X114515295Y-67166666D02*
X114705771Y-67119047D01*
X114705771Y-67119047D02*
X114943866Y-67119047D01*
X114943866Y-67119047D02*
X115134342Y-67166666D01*
X115134342Y-67166666D02*
X115229580Y-67214285D01*
X115229580Y-67214285D02*
X115277200Y-67261904D01*
X115277200Y-67261904D02*
X115324819Y-67357142D01*
X115324819Y-67357142D02*
X115324819Y-67452380D01*
X115324819Y-67452380D02*
X115277200Y-67547618D01*
X115277200Y-67547618D02*
X115229580Y-67595237D01*
X115229580Y-67595237D02*
X115134342Y-67642856D01*
X115134342Y-67642856D02*
X114943866Y-67690475D01*
X114943866Y-67690475D02*
X114705771Y-67690475D01*
X114705771Y-67690475D02*
X114515295Y-67642856D01*
X114515295Y-67642856D02*
X114420057Y-67595237D01*
X114420057Y-67595237D02*
X114372438Y-67547618D01*
X114372438Y-67547618D02*
X114324819Y-67452380D01*
X114324819Y-66499999D02*
X114324819Y-66404761D01*
X114324819Y-66404761D02*
X114372438Y-66309523D01*
X114372438Y-66309523D02*
X114420057Y-66261904D01*
X114420057Y-66261904D02*
X114515295Y-66214285D01*
X114515295Y-66214285D02*
X114705771Y-66166666D01*
X114705771Y-66166666D02*
X114943866Y-66166666D01*
X114943866Y-66166666D02*
X115134342Y-66214285D01*
X115134342Y-66214285D02*
X115229580Y-66261904D01*
X115229580Y-66261904D02*
X115277200Y-66309523D01*
X115277200Y-66309523D02*
X115324819Y-66404761D01*
X115324819Y-66404761D02*
X115324819Y-66499999D01*
X115324819Y-66499999D02*
X115277200Y-66595237D01*
X115277200Y-66595237D02*
X115229580Y-66642856D01*
X115229580Y-66642856D02*
X115134342Y-66690475D01*
X115134342Y-66690475D02*
X114943866Y-66738094D01*
X114943866Y-66738094D02*
X114705771Y-66738094D01*
X114705771Y-66738094D02*
X114515295Y-66690475D01*
X114515295Y-66690475D02*
X114420057Y-66642856D01*
X114420057Y-66642856D02*
X114372438Y-66595237D01*
X114372438Y-66595237D02*
X114324819Y-66499999D01*
X115324819Y-65738094D02*
X114324819Y-65738094D01*
X114943866Y-65642856D02*
X115324819Y-65357142D01*
X114658152Y-65357142D02*
X115039104Y-65738094D01*
X112954819Y-68000000D02*
X112478628Y-68333333D01*
X112954819Y-68571428D02*
X111954819Y-68571428D01*
X111954819Y-68571428D02*
X111954819Y-68190476D01*
X111954819Y-68190476D02*
X112002438Y-68095238D01*
X112002438Y-68095238D02*
X112050057Y-68047619D01*
X112050057Y-68047619D02*
X112145295Y-68000000D01*
X112145295Y-68000000D02*
X112288152Y-68000000D01*
X112288152Y-68000000D02*
X112383390Y-68047619D01*
X112383390Y-68047619D02*
X112431009Y-68095238D01*
X112431009Y-68095238D02*
X112478628Y-68190476D01*
X112478628Y-68190476D02*
X112478628Y-68571428D01*
X113050057Y-67809524D02*
X113050057Y-67047619D01*
X112954819Y-66809523D02*
X111954819Y-66809523D01*
X112335771Y-66809523D02*
X112288152Y-66714285D01*
X112288152Y-66714285D02*
X112288152Y-66523809D01*
X112288152Y-66523809D02*
X112335771Y-66428571D01*
X112335771Y-66428571D02*
X112383390Y-66380952D01*
X112383390Y-66380952D02*
X112478628Y-66333333D01*
X112478628Y-66333333D02*
X112764342Y-66333333D01*
X112764342Y-66333333D02*
X112859580Y-66380952D01*
X112859580Y-66380952D02*
X112907200Y-66428571D01*
X112907200Y-66428571D02*
X112954819Y-66523809D01*
X112954819Y-66523809D02*
X112954819Y-66714285D01*
X112954819Y-66714285D02*
X112907200Y-66809523D01*
X112954819Y-65380952D02*
X112954819Y-65952380D01*
X112954819Y-65666666D02*
X111954819Y-65666666D01*
X111954819Y-65666666D02*
X112097676Y-65761904D01*
X112097676Y-65761904D02*
X112192914Y-65857142D01*
X112192914Y-65857142D02*
X112240533Y-65952380D01*
X119824819Y-68071428D02*
X119824819Y-68642856D01*
X119824819Y-68357142D02*
X118824819Y-68357142D01*
X118824819Y-68357142D02*
X118967676Y-68452380D01*
X118967676Y-68452380D02*
X119062914Y-68547618D01*
X119062914Y-68547618D02*
X119110533Y-68642856D01*
X118824819Y-67214285D02*
X118824819Y-67404761D01*
X118824819Y-67404761D02*
X118872438Y-67499999D01*
X118872438Y-67499999D02*
X118920057Y-67547618D01*
X118920057Y-67547618D02*
X119062914Y-67642856D01*
X119062914Y-67642856D02*
X119253390Y-67690475D01*
X119253390Y-67690475D02*
X119634342Y-67690475D01*
X119634342Y-67690475D02*
X119729580Y-67642856D01*
X119729580Y-67642856D02*
X119777200Y-67595237D01*
X119777200Y-67595237D02*
X119824819Y-67499999D01*
X119824819Y-67499999D02*
X119824819Y-67309523D01*
X119824819Y-67309523D02*
X119777200Y-67214285D01*
X119777200Y-67214285D02*
X119729580Y-67166666D01*
X119729580Y-67166666D02*
X119634342Y-67119047D01*
X119634342Y-67119047D02*
X119396247Y-67119047D01*
X119396247Y-67119047D02*
X119301009Y-67166666D01*
X119301009Y-67166666D02*
X119253390Y-67214285D01*
X119253390Y-67214285D02*
X119205771Y-67309523D01*
X119205771Y-67309523D02*
X119205771Y-67499999D01*
X119205771Y-67499999D02*
X119253390Y-67595237D01*
X119253390Y-67595237D02*
X119301009Y-67642856D01*
X119301009Y-67642856D02*
X119396247Y-67690475D01*
X119824819Y-66690475D02*
X118824819Y-66690475D01*
X119443866Y-66595237D02*
X119824819Y-66309523D01*
X119158152Y-66309523D02*
X119539104Y-66690475D01*
X118824819Y-65404761D02*
X118824819Y-65880951D01*
X118824819Y-65880951D02*
X119301009Y-65928570D01*
X119301009Y-65928570D02*
X119253390Y-65880951D01*
X119253390Y-65880951D02*
X119205771Y-65785713D01*
X119205771Y-65785713D02*
X119205771Y-65547618D01*
X119205771Y-65547618D02*
X119253390Y-65452380D01*
X119253390Y-65452380D02*
X119301009Y-65404761D01*
X119301009Y-65404761D02*
X119396247Y-65357142D01*
X119396247Y-65357142D02*
X119634342Y-65357142D01*
X119634342Y-65357142D02*
X119729580Y-65404761D01*
X119729580Y-65404761D02*
X119777200Y-65452380D01*
X119777200Y-65452380D02*
X119824819Y-65547618D01*
X119824819Y-65547618D02*
X119824819Y-65785713D01*
X119824819Y-65785713D02*
X119777200Y-65880951D01*
X119777200Y-65880951D02*
X119729580Y-65928570D01*
X117454819Y-68023809D02*
X116978628Y-68357142D01*
X117454819Y-68595237D02*
X116454819Y-68595237D01*
X116454819Y-68595237D02*
X116454819Y-68214285D01*
X116454819Y-68214285D02*
X116502438Y-68119047D01*
X116502438Y-68119047D02*
X116550057Y-68071428D01*
X116550057Y-68071428D02*
X116645295Y-68023809D01*
X116645295Y-68023809D02*
X116788152Y-68023809D01*
X116788152Y-68023809D02*
X116883390Y-68071428D01*
X116883390Y-68071428D02*
X116931009Y-68119047D01*
X116931009Y-68119047D02*
X116978628Y-68214285D01*
X116978628Y-68214285D02*
X116978628Y-68595237D01*
X117454819Y-67071428D02*
X117454819Y-67642856D01*
X117454819Y-67357142D02*
X116454819Y-67357142D01*
X116454819Y-67357142D02*
X116597676Y-67452380D01*
X116597676Y-67452380D02*
X116692914Y-67547618D01*
X116692914Y-67547618D02*
X116740533Y-67642856D01*
X117550057Y-66880952D02*
X117550057Y-66119047D01*
X117454819Y-65357142D02*
X117454819Y-65928570D01*
X117454819Y-65642856D02*
X116454819Y-65642856D01*
X116454819Y-65642856D02*
X116597676Y-65738094D01*
X116597676Y-65738094D02*
X116692914Y-65833332D01*
X116692914Y-65833332D02*
X116740533Y-65928570D01*
X97300057Y-68214285D02*
X97252438Y-68166666D01*
X97252438Y-68166666D02*
X97204819Y-68071428D01*
X97204819Y-68071428D02*
X97204819Y-67833333D01*
X97204819Y-67833333D02*
X97252438Y-67738095D01*
X97252438Y-67738095D02*
X97300057Y-67690476D01*
X97300057Y-67690476D02*
X97395295Y-67642857D01*
X97395295Y-67642857D02*
X97490533Y-67642857D01*
X97490533Y-67642857D02*
X97633390Y-67690476D01*
X97633390Y-67690476D02*
X98204819Y-68261904D01*
X98204819Y-68261904D02*
X98204819Y-67642857D01*
X98109580Y-67214285D02*
X98157200Y-67166666D01*
X98157200Y-67166666D02*
X98204819Y-67214285D01*
X98204819Y-67214285D02*
X98157200Y-67261904D01*
X98157200Y-67261904D02*
X98109580Y-67214285D01*
X98109580Y-67214285D02*
X98204819Y-67214285D01*
X97300057Y-66785714D02*
X97252438Y-66738095D01*
X97252438Y-66738095D02*
X97204819Y-66642857D01*
X97204819Y-66642857D02*
X97204819Y-66404762D01*
X97204819Y-66404762D02*
X97252438Y-66309524D01*
X97252438Y-66309524D02*
X97300057Y-66261905D01*
X97300057Y-66261905D02*
X97395295Y-66214286D01*
X97395295Y-66214286D02*
X97490533Y-66214286D01*
X97490533Y-66214286D02*
X97633390Y-66261905D01*
X97633390Y-66261905D02*
X98204819Y-66833333D01*
X98204819Y-66833333D02*
X98204819Y-66214286D01*
X97538152Y-65357143D02*
X98204819Y-65357143D01*
X97538152Y-65785714D02*
X98061961Y-65785714D01*
X98061961Y-65785714D02*
X98157200Y-65738095D01*
X98157200Y-65738095D02*
X98204819Y-65642857D01*
X98204819Y-65642857D02*
X98204819Y-65500000D01*
X98204819Y-65500000D02*
X98157200Y-65404762D01*
X98157200Y-65404762D02*
X98109580Y-65357143D01*
X97681009Y-64547619D02*
X97681009Y-64880952D01*
X98204819Y-64880952D02*
X97204819Y-64880952D01*
X97204819Y-64880952D02*
X97204819Y-64404762D01*
X97538152Y-63404761D02*
X97538152Y-63023809D01*
X98204819Y-63261904D02*
X97347676Y-63261904D01*
X97347676Y-63261904D02*
X97252438Y-63214285D01*
X97252438Y-63214285D02*
X97204819Y-63119047D01*
X97204819Y-63119047D02*
X97204819Y-63023809D01*
X98204819Y-62690475D02*
X97538152Y-62690475D01*
X97204819Y-62690475D02*
X97252438Y-62738094D01*
X97252438Y-62738094D02*
X97300057Y-62690475D01*
X97300057Y-62690475D02*
X97252438Y-62642856D01*
X97252438Y-62642856D02*
X97204819Y-62690475D01*
X97204819Y-62690475D02*
X97300057Y-62690475D01*
X98204819Y-62071428D02*
X98157200Y-62166666D01*
X98157200Y-62166666D02*
X98061961Y-62214285D01*
X98061961Y-62214285D02*
X97204819Y-62214285D01*
X98204819Y-61690475D02*
X97538152Y-61690475D01*
X97633390Y-61690475D02*
X97585771Y-61642856D01*
X97585771Y-61642856D02*
X97538152Y-61547618D01*
X97538152Y-61547618D02*
X97538152Y-61404761D01*
X97538152Y-61404761D02*
X97585771Y-61309523D01*
X97585771Y-61309523D02*
X97681009Y-61261904D01*
X97681009Y-61261904D02*
X98204819Y-61261904D01*
X97681009Y-61261904D02*
X97585771Y-61214285D01*
X97585771Y-61214285D02*
X97538152Y-61119047D01*
X97538152Y-61119047D02*
X97538152Y-60976190D01*
X97538152Y-60976190D02*
X97585771Y-60880951D01*
X97585771Y-60880951D02*
X97681009Y-60833332D01*
X97681009Y-60833332D02*
X98204819Y-60833332D01*
X103859580Y-65738095D02*
X103907200Y-65785714D01*
X103907200Y-65785714D02*
X103954819Y-65928571D01*
X103954819Y-65928571D02*
X103954819Y-66023809D01*
X103954819Y-66023809D02*
X103907200Y-66166666D01*
X103907200Y-66166666D02*
X103811961Y-66261904D01*
X103811961Y-66261904D02*
X103716723Y-66309523D01*
X103716723Y-66309523D02*
X103526247Y-66357142D01*
X103526247Y-66357142D02*
X103383390Y-66357142D01*
X103383390Y-66357142D02*
X103192914Y-66309523D01*
X103192914Y-66309523D02*
X103097676Y-66261904D01*
X103097676Y-66261904D02*
X103002438Y-66166666D01*
X103002438Y-66166666D02*
X102954819Y-66023809D01*
X102954819Y-66023809D02*
X102954819Y-65928571D01*
X102954819Y-65928571D02*
X103002438Y-65785714D01*
X103002438Y-65785714D02*
X103050057Y-65738095D01*
X104050057Y-65547619D02*
X104050057Y-64785714D01*
X103954819Y-64547618D02*
X103288152Y-64547618D01*
X102954819Y-64547618D02*
X103002438Y-64595237D01*
X103002438Y-64595237D02*
X103050057Y-64547618D01*
X103050057Y-64547618D02*
X103002438Y-64499999D01*
X103002438Y-64499999D02*
X102954819Y-64547618D01*
X102954819Y-64547618D02*
X103050057Y-64547618D01*
X103288152Y-64071428D02*
X103954819Y-64071428D01*
X103383390Y-64071428D02*
X103335771Y-64023809D01*
X103335771Y-64023809D02*
X103288152Y-63928571D01*
X103288152Y-63928571D02*
X103288152Y-63785714D01*
X103288152Y-63785714D02*
X103335771Y-63690476D01*
X103335771Y-63690476D02*
X103431009Y-63642857D01*
X103431009Y-63642857D02*
X103954819Y-63642857D01*
X103954819Y-62642857D02*
X103954819Y-63214285D01*
X103954819Y-62928571D02*
X102954819Y-62928571D01*
X102954819Y-62928571D02*
X103097676Y-63023809D01*
X103097676Y-63023809D02*
X103192914Y-63119047D01*
X103192914Y-63119047D02*
X103240533Y-63214285D01*
X123542619Y-100450057D02*
X123590238Y-100402438D01*
X123590238Y-100402438D02*
X123685476Y-100354819D01*
X123685476Y-100354819D02*
X123923571Y-100354819D01*
X123923571Y-100354819D02*
X124018809Y-100402438D01*
X124018809Y-100402438D02*
X124066428Y-100450057D01*
X124066428Y-100450057D02*
X124114047Y-100545295D01*
X124114047Y-100545295D02*
X124114047Y-100640533D01*
X124114047Y-100640533D02*
X124066428Y-100783390D01*
X124066428Y-100783390D02*
X123495000Y-101354819D01*
X123495000Y-101354819D02*
X124114047Y-101354819D01*
X124495000Y-100450057D02*
X124542619Y-100402438D01*
X124542619Y-100402438D02*
X124637857Y-100354819D01*
X124637857Y-100354819D02*
X124875952Y-100354819D01*
X124875952Y-100354819D02*
X124971190Y-100402438D01*
X124971190Y-100402438D02*
X125018809Y-100450057D01*
X125018809Y-100450057D02*
X125066428Y-100545295D01*
X125066428Y-100545295D02*
X125066428Y-100640533D01*
X125066428Y-100640533D02*
X125018809Y-100783390D01*
X125018809Y-100783390D02*
X124447381Y-101354819D01*
X124447381Y-101354819D02*
X125066428Y-101354819D01*
X125685476Y-100354819D02*
X125780714Y-100354819D01*
X125780714Y-100354819D02*
X125875952Y-100402438D01*
X125875952Y-100402438D02*
X125923571Y-100450057D01*
X125923571Y-100450057D02*
X125971190Y-100545295D01*
X125971190Y-100545295D02*
X126018809Y-100735771D01*
X126018809Y-100735771D02*
X126018809Y-100973866D01*
X126018809Y-100973866D02*
X125971190Y-101164342D01*
X125971190Y-101164342D02*
X125923571Y-101259580D01*
X125923571Y-101259580D02*
X125875952Y-101307200D01*
X125875952Y-101307200D02*
X125780714Y-101354819D01*
X125780714Y-101354819D02*
X125685476Y-101354819D01*
X125685476Y-101354819D02*
X125590238Y-101307200D01*
X125590238Y-101307200D02*
X125542619Y-101259580D01*
X125542619Y-101259580D02*
X125495000Y-101164342D01*
X125495000Y-101164342D02*
X125447381Y-100973866D01*
X125447381Y-100973866D02*
X125447381Y-100735771D01*
X125447381Y-100735771D02*
X125495000Y-100545295D01*
X125495000Y-100545295D02*
X125542619Y-100450057D01*
X125542619Y-100450057D02*
X125590238Y-100402438D01*
X125590238Y-100402438D02*
X125685476Y-100354819D01*
X126447381Y-100688152D02*
X126447381Y-101354819D01*
X126447381Y-100783390D02*
X126495000Y-100735771D01*
X126495000Y-100735771D02*
X126590238Y-100688152D01*
X126590238Y-100688152D02*
X126733095Y-100688152D01*
X126733095Y-100688152D02*
X126828333Y-100735771D01*
X126828333Y-100735771D02*
X126875952Y-100831009D01*
X126875952Y-100831009D02*
X126875952Y-101354819D01*
X127685476Y-100831009D02*
X127352143Y-100831009D01*
X127352143Y-101354819D02*
X127352143Y-100354819D01*
X127352143Y-100354819D02*
X127828333Y-100354819D01*
X128828334Y-100688152D02*
X129209286Y-100688152D01*
X128971191Y-101354819D02*
X128971191Y-100497676D01*
X128971191Y-100497676D02*
X129018810Y-100402438D01*
X129018810Y-100402438D02*
X129114048Y-100354819D01*
X129114048Y-100354819D02*
X129209286Y-100354819D01*
X129542620Y-101354819D02*
X129542620Y-100688152D01*
X129542620Y-100354819D02*
X129495001Y-100402438D01*
X129495001Y-100402438D02*
X129542620Y-100450057D01*
X129542620Y-100450057D02*
X129590239Y-100402438D01*
X129590239Y-100402438D02*
X129542620Y-100354819D01*
X129542620Y-100354819D02*
X129542620Y-100450057D01*
X130161667Y-101354819D02*
X130066429Y-101307200D01*
X130066429Y-101307200D02*
X130018810Y-101211961D01*
X130018810Y-101211961D02*
X130018810Y-100354819D01*
X130542620Y-101354819D02*
X130542620Y-100688152D01*
X130542620Y-100783390D02*
X130590239Y-100735771D01*
X130590239Y-100735771D02*
X130685477Y-100688152D01*
X130685477Y-100688152D02*
X130828334Y-100688152D01*
X130828334Y-100688152D02*
X130923572Y-100735771D01*
X130923572Y-100735771D02*
X130971191Y-100831009D01*
X130971191Y-100831009D02*
X130971191Y-101354819D01*
X130971191Y-100831009D02*
X131018810Y-100735771D01*
X131018810Y-100735771D02*
X131114048Y-100688152D01*
X131114048Y-100688152D02*
X131256905Y-100688152D01*
X131256905Y-100688152D02*
X131352144Y-100735771D01*
X131352144Y-100735771D02*
X131399763Y-100831009D01*
X131399763Y-100831009D02*
X131399763Y-101354819D01*
X126471190Y-105359580D02*
X126423571Y-105407200D01*
X126423571Y-105407200D02*
X126280714Y-105454819D01*
X126280714Y-105454819D02*
X126185476Y-105454819D01*
X126185476Y-105454819D02*
X126042619Y-105407200D01*
X126042619Y-105407200D02*
X125947381Y-105311961D01*
X125947381Y-105311961D02*
X125899762Y-105216723D01*
X125899762Y-105216723D02*
X125852143Y-105026247D01*
X125852143Y-105026247D02*
X125852143Y-104883390D01*
X125852143Y-104883390D02*
X125899762Y-104692914D01*
X125899762Y-104692914D02*
X125947381Y-104597676D01*
X125947381Y-104597676D02*
X126042619Y-104502438D01*
X126042619Y-104502438D02*
X126185476Y-104454819D01*
X126185476Y-104454819D02*
X126280714Y-104454819D01*
X126280714Y-104454819D02*
X126423571Y-104502438D01*
X126423571Y-104502438D02*
X126471190Y-104550057D01*
X127423571Y-105454819D02*
X126852143Y-105454819D01*
X127137857Y-105454819D02*
X127137857Y-104454819D01*
X127137857Y-104454819D02*
X127042619Y-104597676D01*
X127042619Y-104597676D02*
X126947381Y-104692914D01*
X126947381Y-104692914D02*
X126852143Y-104740533D01*
X127614048Y-105550057D02*
X128375952Y-105550057D01*
X128566429Y-104550057D02*
X128614048Y-104502438D01*
X128614048Y-104502438D02*
X128709286Y-104454819D01*
X128709286Y-104454819D02*
X128947381Y-104454819D01*
X128947381Y-104454819D02*
X129042619Y-104502438D01*
X129042619Y-104502438D02*
X129090238Y-104550057D01*
X129090238Y-104550057D02*
X129137857Y-104645295D01*
X129137857Y-104645295D02*
X129137857Y-104740533D01*
X129137857Y-104740533D02*
X129090238Y-104883390D01*
X129090238Y-104883390D02*
X128518810Y-105454819D01*
X128518810Y-105454819D02*
X129137857Y-105454819D01*
X130589580Y-117285715D02*
X130637200Y-117333334D01*
X130637200Y-117333334D02*
X130684819Y-117476191D01*
X130684819Y-117476191D02*
X130684819Y-117571429D01*
X130684819Y-117571429D02*
X130637200Y-117714286D01*
X130637200Y-117714286D02*
X130541961Y-117809524D01*
X130541961Y-117809524D02*
X130446723Y-117857143D01*
X130446723Y-117857143D02*
X130256247Y-117904762D01*
X130256247Y-117904762D02*
X130113390Y-117904762D01*
X130113390Y-117904762D02*
X129922914Y-117857143D01*
X129922914Y-117857143D02*
X129827676Y-117809524D01*
X129827676Y-117809524D02*
X129732438Y-117714286D01*
X129732438Y-117714286D02*
X129684819Y-117571429D01*
X129684819Y-117571429D02*
X129684819Y-117476191D01*
X129684819Y-117476191D02*
X129732438Y-117333334D01*
X129732438Y-117333334D02*
X129780057Y-117285715D01*
X130684819Y-116333334D02*
X130684819Y-116904762D01*
X130684819Y-116619048D02*
X129684819Y-116619048D01*
X129684819Y-116619048D02*
X129827676Y-116714286D01*
X129827676Y-116714286D02*
X129922914Y-116809524D01*
X129922914Y-116809524D02*
X129970533Y-116904762D01*
X130637200Y-115190476D02*
X130684819Y-115095238D01*
X130684819Y-115095238D02*
X130684819Y-114904762D01*
X130684819Y-114904762D02*
X130637200Y-114809524D01*
X130637200Y-114809524D02*
X130541961Y-114761905D01*
X130541961Y-114761905D02*
X130494342Y-114761905D01*
X130494342Y-114761905D02*
X130399104Y-114809524D01*
X130399104Y-114809524D02*
X130351485Y-114904762D01*
X130351485Y-114904762D02*
X130351485Y-115047619D01*
X130351485Y-115047619D02*
X130303866Y-115142857D01*
X130303866Y-115142857D02*
X130208628Y-115190476D01*
X130208628Y-115190476D02*
X130161009Y-115190476D01*
X130161009Y-115190476D02*
X130065771Y-115142857D01*
X130065771Y-115142857D02*
X130018152Y-115047619D01*
X130018152Y-115047619D02*
X130018152Y-114904762D01*
X130018152Y-114904762D02*
X130065771Y-114809524D01*
X130637200Y-113952381D02*
X130684819Y-114047619D01*
X130684819Y-114047619D02*
X130684819Y-114238095D01*
X130684819Y-114238095D02*
X130637200Y-114333333D01*
X130637200Y-114333333D02*
X130541961Y-114380952D01*
X130541961Y-114380952D02*
X130161009Y-114380952D01*
X130161009Y-114380952D02*
X130065771Y-114333333D01*
X130065771Y-114333333D02*
X130018152Y-114238095D01*
X130018152Y-114238095D02*
X130018152Y-114047619D01*
X130018152Y-114047619D02*
X130065771Y-113952381D01*
X130065771Y-113952381D02*
X130161009Y-113904762D01*
X130161009Y-113904762D02*
X130256247Y-113904762D01*
X130256247Y-113904762D02*
X130351485Y-114380952D01*
X130684819Y-113333333D02*
X130637200Y-113428571D01*
X130637200Y-113428571D02*
X130541961Y-113476190D01*
X130541961Y-113476190D02*
X129684819Y-113476190D01*
X130637200Y-112571428D02*
X130684819Y-112666666D01*
X130684819Y-112666666D02*
X130684819Y-112857142D01*
X130684819Y-112857142D02*
X130637200Y-112952380D01*
X130637200Y-112952380D02*
X130541961Y-112999999D01*
X130541961Y-112999999D02*
X130161009Y-112999999D01*
X130161009Y-112999999D02*
X130065771Y-112952380D01*
X130065771Y-112952380D02*
X130018152Y-112857142D01*
X130018152Y-112857142D02*
X130018152Y-112666666D01*
X130018152Y-112666666D02*
X130065771Y-112571428D01*
X130065771Y-112571428D02*
X130161009Y-112523809D01*
X130161009Y-112523809D02*
X130256247Y-112523809D01*
X130256247Y-112523809D02*
X130351485Y-112999999D01*
X130637200Y-111666666D02*
X130684819Y-111761904D01*
X130684819Y-111761904D02*
X130684819Y-111952380D01*
X130684819Y-111952380D02*
X130637200Y-112047618D01*
X130637200Y-112047618D02*
X130589580Y-112095237D01*
X130589580Y-112095237D02*
X130494342Y-112142856D01*
X130494342Y-112142856D02*
X130208628Y-112142856D01*
X130208628Y-112142856D02*
X130113390Y-112095237D01*
X130113390Y-112095237D02*
X130065771Y-112047618D01*
X130065771Y-112047618D02*
X130018152Y-111952380D01*
X130018152Y-111952380D02*
X130018152Y-111761904D01*
X130018152Y-111761904D02*
X130065771Y-111666666D01*
X130018152Y-111380951D02*
X130018152Y-110999999D01*
X129684819Y-111238094D02*
X130541961Y-111238094D01*
X130541961Y-111238094D02*
X130637200Y-111190475D01*
X130637200Y-111190475D02*
X130684819Y-111095237D01*
X130684819Y-111095237D02*
X130684819Y-110999999D01*
X120666666Y-113954819D02*
X120666666Y-114669104D01*
X120666666Y-114669104D02*
X120619047Y-114811961D01*
X120619047Y-114811961D02*
X120523809Y-114907200D01*
X120523809Y-114907200D02*
X120380952Y-114954819D01*
X120380952Y-114954819D02*
X120285714Y-114954819D01*
X121142857Y-114954819D02*
X121142857Y-113954819D01*
X121142857Y-113954819D02*
X121523809Y-113954819D01*
X121523809Y-113954819D02*
X121619047Y-114002438D01*
X121619047Y-114002438D02*
X121666666Y-114050057D01*
X121666666Y-114050057D02*
X121714285Y-114145295D01*
X121714285Y-114145295D02*
X121714285Y-114288152D01*
X121714285Y-114288152D02*
X121666666Y-114383390D01*
X121666666Y-114383390D02*
X121619047Y-114431009D01*
X121619047Y-114431009D02*
X121523809Y-114478628D01*
X121523809Y-114478628D02*
X121142857Y-114478628D01*
X122666666Y-114954819D02*
X122095238Y-114954819D01*
X122380952Y-114954819D02*
X122380952Y-113954819D01*
X122380952Y-113954819D02*
X122285714Y-114097676D01*
X122285714Y-114097676D02*
X122190476Y-114192914D01*
X122190476Y-114192914D02*
X122095238Y-114240533D01*
X154333333Y-97854819D02*
X154428571Y-97854819D01*
X154428571Y-97854819D02*
X154523809Y-97902438D01*
X154523809Y-97902438D02*
X154571428Y-97950057D01*
X154571428Y-97950057D02*
X154619047Y-98045295D01*
X154619047Y-98045295D02*
X154666666Y-98235771D01*
X154666666Y-98235771D02*
X154666666Y-98473866D01*
X154666666Y-98473866D02*
X154619047Y-98664342D01*
X154619047Y-98664342D02*
X154571428Y-98759580D01*
X154571428Y-98759580D02*
X154523809Y-98807200D01*
X154523809Y-98807200D02*
X154428571Y-98854819D01*
X154428571Y-98854819D02*
X154333333Y-98854819D01*
X154333333Y-98854819D02*
X154238095Y-98807200D01*
X154238095Y-98807200D02*
X154190476Y-98759580D01*
X154190476Y-98759580D02*
X154142857Y-98664342D01*
X154142857Y-98664342D02*
X154095238Y-98473866D01*
X154095238Y-98473866D02*
X154095238Y-98235771D01*
X154095238Y-98235771D02*
X154142857Y-98045295D01*
X154142857Y-98045295D02*
X154190476Y-97950057D01*
X154190476Y-97950057D02*
X154238095Y-97902438D01*
X154238095Y-97902438D02*
X154333333Y-97854819D01*
X155666666Y-98854819D02*
X155333333Y-98378628D01*
X155095238Y-98854819D02*
X155095238Y-97854819D01*
X155095238Y-97854819D02*
X155476190Y-97854819D01*
X155476190Y-97854819D02*
X155571428Y-97902438D01*
X155571428Y-97902438D02*
X155619047Y-97950057D01*
X155619047Y-97950057D02*
X155666666Y-98045295D01*
X155666666Y-98045295D02*
X155666666Y-98188152D01*
X155666666Y-98188152D02*
X155619047Y-98283390D01*
X155619047Y-98283390D02*
X155571428Y-98331009D01*
X155571428Y-98331009D02*
X155476190Y-98378628D01*
X155476190Y-98378628D02*
X155095238Y-98378628D01*
X156761905Y-98188152D02*
X156952381Y-98854819D01*
X156952381Y-98854819D02*
X157142857Y-98378628D01*
X157142857Y-98378628D02*
X157333333Y-98854819D01*
X157333333Y-98854819D02*
X157523809Y-98188152D01*
X157904762Y-98854819D02*
X157904762Y-98188152D01*
X157904762Y-97854819D02*
X157857143Y-97902438D01*
X157857143Y-97902438D02*
X157904762Y-97950057D01*
X157904762Y-97950057D02*
X157952381Y-97902438D01*
X157952381Y-97902438D02*
X157904762Y-97854819D01*
X157904762Y-97854819D02*
X157904762Y-97950057D01*
X158380952Y-98854819D02*
X158380952Y-98188152D01*
X158380952Y-98378628D02*
X158428571Y-98283390D01*
X158428571Y-98283390D02*
X158476190Y-98235771D01*
X158476190Y-98235771D02*
X158571428Y-98188152D01*
X158571428Y-98188152D02*
X158666666Y-98188152D01*
X159380952Y-98807200D02*
X159285714Y-98854819D01*
X159285714Y-98854819D02*
X159095238Y-98854819D01*
X159095238Y-98854819D02*
X159000000Y-98807200D01*
X159000000Y-98807200D02*
X158952381Y-98711961D01*
X158952381Y-98711961D02*
X158952381Y-98331009D01*
X158952381Y-98331009D02*
X159000000Y-98235771D01*
X159000000Y-98235771D02*
X159095238Y-98188152D01*
X159095238Y-98188152D02*
X159285714Y-98188152D01*
X159285714Y-98188152D02*
X159380952Y-98235771D01*
X159380952Y-98235771D02*
X159428571Y-98331009D01*
X159428571Y-98331009D02*
X159428571Y-98426247D01*
X159428571Y-98426247D02*
X158952381Y-98521485D01*
X160761905Y-98854819D02*
X160666667Y-98807200D01*
X160666667Y-98807200D02*
X160619048Y-98711961D01*
X160619048Y-98711961D02*
X160619048Y-97854819D01*
X161142858Y-98854819D02*
X161142858Y-98188152D01*
X161142858Y-97854819D02*
X161095239Y-97902438D01*
X161095239Y-97902438D02*
X161142858Y-97950057D01*
X161142858Y-97950057D02*
X161190477Y-97902438D01*
X161190477Y-97902438D02*
X161142858Y-97854819D01*
X161142858Y-97854819D02*
X161142858Y-97950057D01*
X161619048Y-98188152D02*
X161619048Y-98854819D01*
X161619048Y-98283390D02*
X161666667Y-98235771D01*
X161666667Y-98235771D02*
X161761905Y-98188152D01*
X161761905Y-98188152D02*
X161904762Y-98188152D01*
X161904762Y-98188152D02*
X162000000Y-98235771D01*
X162000000Y-98235771D02*
X162047619Y-98331009D01*
X162047619Y-98331009D02*
X162047619Y-98854819D01*
X162523810Y-98854819D02*
X162523810Y-97854819D01*
X162619048Y-98473866D02*
X162904762Y-98854819D01*
X162904762Y-98188152D02*
X162523810Y-98569104D01*
X140084819Y-93095238D02*
X140084819Y-93666666D01*
X140084819Y-93380952D02*
X139084819Y-93380952D01*
X139084819Y-93380952D02*
X139227676Y-93476190D01*
X139227676Y-93476190D02*
X139322914Y-93571428D01*
X139322914Y-93571428D02*
X139370533Y-93666666D01*
X139084819Y-92476190D02*
X139084819Y-92380952D01*
X139084819Y-92380952D02*
X139132438Y-92285714D01*
X139132438Y-92285714D02*
X139180057Y-92238095D01*
X139180057Y-92238095D02*
X139275295Y-92190476D01*
X139275295Y-92190476D02*
X139465771Y-92142857D01*
X139465771Y-92142857D02*
X139703866Y-92142857D01*
X139703866Y-92142857D02*
X139894342Y-92190476D01*
X139894342Y-92190476D02*
X139989580Y-92238095D01*
X139989580Y-92238095D02*
X140037200Y-92285714D01*
X140037200Y-92285714D02*
X140084819Y-92380952D01*
X140084819Y-92380952D02*
X140084819Y-92476190D01*
X140084819Y-92476190D02*
X140037200Y-92571428D01*
X140037200Y-92571428D02*
X139989580Y-92619047D01*
X139989580Y-92619047D02*
X139894342Y-92666666D01*
X139894342Y-92666666D02*
X139703866Y-92714285D01*
X139703866Y-92714285D02*
X139465771Y-92714285D01*
X139465771Y-92714285D02*
X139275295Y-92666666D01*
X139275295Y-92666666D02*
X139180057Y-92619047D01*
X139180057Y-92619047D02*
X139132438Y-92571428D01*
X139132438Y-92571428D02*
X139084819Y-92476190D01*
X140084819Y-91714285D02*
X139084819Y-91714285D01*
X139703866Y-91619047D02*
X140084819Y-91333333D01*
X139418152Y-91333333D02*
X139799104Y-91714285D01*
X142454819Y-92666666D02*
X141978628Y-92999999D01*
X142454819Y-93238094D02*
X141454819Y-93238094D01*
X141454819Y-93238094D02*
X141454819Y-92857142D01*
X141454819Y-92857142D02*
X141502438Y-92761904D01*
X141502438Y-92761904D02*
X141550057Y-92714285D01*
X141550057Y-92714285D02*
X141645295Y-92666666D01*
X141645295Y-92666666D02*
X141788152Y-92666666D01*
X141788152Y-92666666D02*
X141883390Y-92714285D01*
X141883390Y-92714285D02*
X141931009Y-92761904D01*
X141931009Y-92761904D02*
X141978628Y-92857142D01*
X141978628Y-92857142D02*
X141978628Y-93238094D01*
X141788152Y-91809523D02*
X142454819Y-91809523D01*
X141407200Y-92047618D02*
X142121485Y-92285713D01*
X142121485Y-92285713D02*
X142121485Y-91666666D01*
X138404819Y-94119047D02*
X138404819Y-93547619D01*
X139404819Y-93833333D02*
X138404819Y-93833333D01*
X139404819Y-92738095D02*
X139404819Y-93214285D01*
X139404819Y-93214285D02*
X138404819Y-93214285D01*
X138404819Y-92214285D02*
X138404819Y-92119047D01*
X138404819Y-92119047D02*
X138452438Y-92023809D01*
X138452438Y-92023809D02*
X138500057Y-91976190D01*
X138500057Y-91976190D02*
X138595295Y-91928571D01*
X138595295Y-91928571D02*
X138785771Y-91880952D01*
X138785771Y-91880952D02*
X139023866Y-91880952D01*
X139023866Y-91880952D02*
X139214342Y-91928571D01*
X139214342Y-91928571D02*
X139309580Y-91976190D01*
X139309580Y-91976190D02*
X139357200Y-92023809D01*
X139357200Y-92023809D02*
X139404819Y-92119047D01*
X139404819Y-92119047D02*
X139404819Y-92214285D01*
X139404819Y-92214285D02*
X139357200Y-92309523D01*
X139357200Y-92309523D02*
X139309580Y-92357142D01*
X139309580Y-92357142D02*
X139214342Y-92404761D01*
X139214342Y-92404761D02*
X139023866Y-92452380D01*
X139023866Y-92452380D02*
X138785771Y-92452380D01*
X138785771Y-92452380D02*
X138595295Y-92404761D01*
X138595295Y-92404761D02*
X138500057Y-92357142D01*
X138500057Y-92357142D02*
X138452438Y-92309523D01*
X138452438Y-92309523D02*
X138404819Y-92214285D01*
X138404819Y-91547618D02*
X138404819Y-90880952D01*
X138404819Y-90880952D02*
X139404819Y-91309523D01*
X138738152Y-90071428D02*
X139404819Y-90071428D01*
X138357200Y-90309523D02*
X139071485Y-90547618D01*
X139071485Y-90547618D02*
X139071485Y-89928571D01*
X128238095Y-91454819D02*
X128238095Y-92264342D01*
X128238095Y-92264342D02*
X128285714Y-92359580D01*
X128285714Y-92359580D02*
X128333333Y-92407200D01*
X128333333Y-92407200D02*
X128428571Y-92454819D01*
X128428571Y-92454819D02*
X128619047Y-92454819D01*
X128619047Y-92454819D02*
X128714285Y-92407200D01*
X128714285Y-92407200D02*
X128761904Y-92359580D01*
X128761904Y-92359580D02*
X128809523Y-92264342D01*
X128809523Y-92264342D02*
X128809523Y-91454819D01*
X129809523Y-92454819D02*
X129238095Y-92454819D01*
X129523809Y-92454819D02*
X129523809Y-91454819D01*
X129523809Y-91454819D02*
X129428571Y-91597676D01*
X129428571Y-91597676D02*
X129333333Y-91692914D01*
X129333333Y-91692914D02*
X129238095Y-91740533D01*
X125428571Y-73584819D02*
X124857143Y-73584819D01*
X125142857Y-73584819D02*
X125142857Y-72584819D01*
X125142857Y-72584819D02*
X125047619Y-72727676D01*
X125047619Y-72727676D02*
X124952381Y-72822914D01*
X124952381Y-72822914D02*
X124857143Y-72870533D01*
X126047619Y-72584819D02*
X126142857Y-72584819D01*
X126142857Y-72584819D02*
X126238095Y-72632438D01*
X126238095Y-72632438D02*
X126285714Y-72680057D01*
X126285714Y-72680057D02*
X126333333Y-72775295D01*
X126333333Y-72775295D02*
X126380952Y-72965771D01*
X126380952Y-72965771D02*
X126380952Y-73203866D01*
X126380952Y-73203866D02*
X126333333Y-73394342D01*
X126333333Y-73394342D02*
X126285714Y-73489580D01*
X126285714Y-73489580D02*
X126238095Y-73537200D01*
X126238095Y-73537200D02*
X126142857Y-73584819D01*
X126142857Y-73584819D02*
X126047619Y-73584819D01*
X126047619Y-73584819D02*
X125952381Y-73537200D01*
X125952381Y-73537200D02*
X125904762Y-73489580D01*
X125904762Y-73489580D02*
X125857143Y-73394342D01*
X125857143Y-73394342D02*
X125809524Y-73203866D01*
X125809524Y-73203866D02*
X125809524Y-72965771D01*
X125809524Y-72965771D02*
X125857143Y-72775295D01*
X125857143Y-72775295D02*
X125904762Y-72680057D01*
X125904762Y-72680057D02*
X125952381Y-72632438D01*
X125952381Y-72632438D02*
X126047619Y-72584819D01*
X127000000Y-72584819D02*
X127095238Y-72584819D01*
X127095238Y-72584819D02*
X127190476Y-72632438D01*
X127190476Y-72632438D02*
X127238095Y-72680057D01*
X127238095Y-72680057D02*
X127285714Y-72775295D01*
X127285714Y-72775295D02*
X127333333Y-72965771D01*
X127333333Y-72965771D02*
X127333333Y-73203866D01*
X127333333Y-73203866D02*
X127285714Y-73394342D01*
X127285714Y-73394342D02*
X127238095Y-73489580D01*
X127238095Y-73489580D02*
X127190476Y-73537200D01*
X127190476Y-73537200D02*
X127095238Y-73584819D01*
X127095238Y-73584819D02*
X127000000Y-73584819D01*
X127000000Y-73584819D02*
X126904762Y-73537200D01*
X126904762Y-73537200D02*
X126857143Y-73489580D01*
X126857143Y-73489580D02*
X126809524Y-73394342D01*
X126809524Y-73394342D02*
X126761905Y-73203866D01*
X126761905Y-73203866D02*
X126761905Y-72965771D01*
X126761905Y-72965771D02*
X126809524Y-72775295D01*
X126809524Y-72775295D02*
X126857143Y-72680057D01*
X126857143Y-72680057D02*
X126904762Y-72632438D01*
X126904762Y-72632438D02*
X127000000Y-72584819D01*
X127761905Y-73584819D02*
X127761905Y-72584819D01*
X127857143Y-73203866D02*
X128142857Y-73584819D01*
X128142857Y-72918152D02*
X127761905Y-73299104D01*
X125499999Y-75954819D02*
X125166666Y-75478628D01*
X124928571Y-75954819D02*
X124928571Y-74954819D01*
X124928571Y-74954819D02*
X125309523Y-74954819D01*
X125309523Y-74954819D02*
X125404761Y-75002438D01*
X125404761Y-75002438D02*
X125452380Y-75050057D01*
X125452380Y-75050057D02*
X125499999Y-75145295D01*
X125499999Y-75145295D02*
X125499999Y-75288152D01*
X125499999Y-75288152D02*
X125452380Y-75383390D01*
X125452380Y-75383390D02*
X125404761Y-75431009D01*
X125404761Y-75431009D02*
X125309523Y-75478628D01*
X125309523Y-75478628D02*
X124928571Y-75478628D01*
X125690476Y-76050057D02*
X126452380Y-76050057D01*
X126690476Y-75954819D02*
X126690476Y-74954819D01*
X126690476Y-75335771D02*
X126785714Y-75288152D01*
X126785714Y-75288152D02*
X126976190Y-75288152D01*
X126976190Y-75288152D02*
X127071428Y-75335771D01*
X127071428Y-75335771D02*
X127119047Y-75383390D01*
X127119047Y-75383390D02*
X127166666Y-75478628D01*
X127166666Y-75478628D02*
X127166666Y-75764342D01*
X127166666Y-75764342D02*
X127119047Y-75859580D01*
X127119047Y-75859580D02*
X127071428Y-75907200D01*
X127071428Y-75907200D02*
X126976190Y-75954819D01*
X126976190Y-75954819D02*
X126785714Y-75954819D01*
X126785714Y-75954819D02*
X126690476Y-75907200D01*
X127547619Y-75050057D02*
X127595238Y-75002438D01*
X127595238Y-75002438D02*
X127690476Y-74954819D01*
X127690476Y-74954819D02*
X127928571Y-74954819D01*
X127928571Y-74954819D02*
X128023809Y-75002438D01*
X128023809Y-75002438D02*
X128071428Y-75050057D01*
X128071428Y-75050057D02*
X128119047Y-75145295D01*
X128119047Y-75145295D02*
X128119047Y-75240533D01*
X128119047Y-75240533D02*
X128071428Y-75383390D01*
X128071428Y-75383390D02*
X127500000Y-75954819D01*
X127500000Y-75954819D02*
X128119047Y-75954819D01*
X174221905Y-42294819D02*
X174221905Y-41294819D01*
X174221905Y-41294819D02*
X174602857Y-41294819D01*
X174602857Y-41294819D02*
X174698095Y-41342438D01*
X174698095Y-41342438D02*
X174745714Y-41390057D01*
X174745714Y-41390057D02*
X174793333Y-41485295D01*
X174793333Y-41485295D02*
X174793333Y-41628152D01*
X174793333Y-41628152D02*
X174745714Y-41723390D01*
X174745714Y-41723390D02*
X174698095Y-41771009D01*
X174698095Y-41771009D02*
X174602857Y-41818628D01*
X174602857Y-41818628D02*
X174221905Y-41818628D01*
X175126667Y-41294819D02*
X175364762Y-42294819D01*
X175364762Y-42294819D02*
X175555238Y-41580533D01*
X175555238Y-41580533D02*
X175745714Y-42294819D01*
X175745714Y-42294819D02*
X175983810Y-41294819D01*
X176936190Y-42294819D02*
X176602857Y-41818628D01*
X176364762Y-42294819D02*
X176364762Y-41294819D01*
X176364762Y-41294819D02*
X176745714Y-41294819D01*
X176745714Y-41294819D02*
X176840952Y-41342438D01*
X176840952Y-41342438D02*
X176888571Y-41390057D01*
X176888571Y-41390057D02*
X176936190Y-41485295D01*
X176936190Y-41485295D02*
X176936190Y-41628152D01*
X176936190Y-41628152D02*
X176888571Y-41723390D01*
X176888571Y-41723390D02*
X176840952Y-41771009D01*
X176840952Y-41771009D02*
X176745714Y-41818628D01*
X176745714Y-41818628D02*
X176364762Y-41818628D01*
X178126667Y-42294819D02*
X178126667Y-41294819D01*
X178602857Y-42294819D02*
X178602857Y-41294819D01*
X178602857Y-41294819D02*
X179174285Y-42294819D01*
X179174285Y-42294819D02*
X179174285Y-41294819D01*
X180936190Y-42294819D02*
X180364762Y-42294819D01*
X180650476Y-42294819D02*
X180650476Y-41294819D01*
X180650476Y-41294819D02*
X180555238Y-41437676D01*
X180555238Y-41437676D02*
X180460000Y-41532914D01*
X180460000Y-41532914D02*
X180364762Y-41580533D01*
X181840952Y-41294819D02*
X181364762Y-41294819D01*
X181364762Y-41294819D02*
X181317143Y-41771009D01*
X181317143Y-41771009D02*
X181364762Y-41723390D01*
X181364762Y-41723390D02*
X181460000Y-41675771D01*
X181460000Y-41675771D02*
X181698095Y-41675771D01*
X181698095Y-41675771D02*
X181793333Y-41723390D01*
X181793333Y-41723390D02*
X181840952Y-41771009D01*
X181840952Y-41771009D02*
X181888571Y-41866247D01*
X181888571Y-41866247D02*
X181888571Y-42104342D01*
X181888571Y-42104342D02*
X181840952Y-42199580D01*
X181840952Y-42199580D02*
X181793333Y-42247200D01*
X181793333Y-42247200D02*
X181698095Y-42294819D01*
X181698095Y-42294819D02*
X181460000Y-42294819D01*
X181460000Y-42294819D02*
X181364762Y-42247200D01*
X181364762Y-42247200D02*
X181317143Y-42199580D01*
X182174286Y-41294819D02*
X182507619Y-42294819D01*
X182507619Y-42294819D02*
X182840952Y-41294819D01*
X178126666Y-46374819D02*
X178126666Y-47089104D01*
X178126666Y-47089104D02*
X178079047Y-47231961D01*
X178079047Y-47231961D02*
X177983809Y-47327200D01*
X177983809Y-47327200D02*
X177840952Y-47374819D01*
X177840952Y-47374819D02*
X177745714Y-47374819D01*
X179031428Y-46708152D02*
X179031428Y-47374819D01*
X178793333Y-46327200D02*
X178555238Y-47041485D01*
X178555238Y-47041485D02*
X179174285Y-47041485D01*
X143833333Y-71084819D02*
X143261905Y-71084819D01*
X143547619Y-71084819D02*
X143547619Y-70084819D01*
X143547619Y-70084819D02*
X143452381Y-70227676D01*
X143452381Y-70227676D02*
X143357143Y-70322914D01*
X143357143Y-70322914D02*
X143261905Y-70370533D01*
X144452381Y-70084819D02*
X144547619Y-70084819D01*
X144547619Y-70084819D02*
X144642857Y-70132438D01*
X144642857Y-70132438D02*
X144690476Y-70180057D01*
X144690476Y-70180057D02*
X144738095Y-70275295D01*
X144738095Y-70275295D02*
X144785714Y-70465771D01*
X144785714Y-70465771D02*
X144785714Y-70703866D01*
X144785714Y-70703866D02*
X144738095Y-70894342D01*
X144738095Y-70894342D02*
X144690476Y-70989580D01*
X144690476Y-70989580D02*
X144642857Y-71037200D01*
X144642857Y-71037200D02*
X144547619Y-71084819D01*
X144547619Y-71084819D02*
X144452381Y-71084819D01*
X144452381Y-71084819D02*
X144357143Y-71037200D01*
X144357143Y-71037200D02*
X144309524Y-70989580D01*
X144309524Y-70989580D02*
X144261905Y-70894342D01*
X144261905Y-70894342D02*
X144214286Y-70703866D01*
X144214286Y-70703866D02*
X144214286Y-70465771D01*
X144214286Y-70465771D02*
X144261905Y-70275295D01*
X144261905Y-70275295D02*
X144309524Y-70180057D01*
X144309524Y-70180057D02*
X144357143Y-70132438D01*
X144357143Y-70132438D02*
X144452381Y-70084819D01*
X145404762Y-70084819D02*
X145500000Y-70084819D01*
X145500000Y-70084819D02*
X145595238Y-70132438D01*
X145595238Y-70132438D02*
X145642857Y-70180057D01*
X145642857Y-70180057D02*
X145690476Y-70275295D01*
X145690476Y-70275295D02*
X145738095Y-70465771D01*
X145738095Y-70465771D02*
X145738095Y-70703866D01*
X145738095Y-70703866D02*
X145690476Y-70894342D01*
X145690476Y-70894342D02*
X145642857Y-70989580D01*
X145642857Y-70989580D02*
X145595238Y-71037200D01*
X145595238Y-71037200D02*
X145500000Y-71084819D01*
X145500000Y-71084819D02*
X145404762Y-71084819D01*
X145404762Y-71084819D02*
X145309524Y-71037200D01*
X145309524Y-71037200D02*
X145261905Y-70989580D01*
X145261905Y-70989580D02*
X145214286Y-70894342D01*
X145214286Y-70894342D02*
X145166667Y-70703866D01*
X145166667Y-70703866D02*
X145166667Y-70465771D01*
X145166667Y-70465771D02*
X145214286Y-70275295D01*
X145214286Y-70275295D02*
X145261905Y-70180057D01*
X145261905Y-70180057D02*
X145309524Y-70132438D01*
X145309524Y-70132438D02*
X145404762Y-70084819D01*
X146738095Y-71084819D02*
X146404762Y-70608628D01*
X146166667Y-71084819D02*
X146166667Y-70084819D01*
X146166667Y-70084819D02*
X146547619Y-70084819D01*
X146547619Y-70084819D02*
X146642857Y-70132438D01*
X146642857Y-70132438D02*
X146690476Y-70180057D01*
X146690476Y-70180057D02*
X146738095Y-70275295D01*
X146738095Y-70275295D02*
X146738095Y-70418152D01*
X146738095Y-70418152D02*
X146690476Y-70513390D01*
X146690476Y-70513390D02*
X146642857Y-70561009D01*
X146642857Y-70561009D02*
X146547619Y-70608628D01*
X146547619Y-70608628D02*
X146166667Y-70608628D01*
X144833333Y-73454819D02*
X144500000Y-72978628D01*
X144261905Y-73454819D02*
X144261905Y-72454819D01*
X144261905Y-72454819D02*
X144642857Y-72454819D01*
X144642857Y-72454819D02*
X144738095Y-72502438D01*
X144738095Y-72502438D02*
X144785714Y-72550057D01*
X144785714Y-72550057D02*
X144833333Y-72645295D01*
X144833333Y-72645295D02*
X144833333Y-72788152D01*
X144833333Y-72788152D02*
X144785714Y-72883390D01*
X144785714Y-72883390D02*
X144738095Y-72931009D01*
X144738095Y-72931009D02*
X144642857Y-72978628D01*
X144642857Y-72978628D02*
X144261905Y-72978628D01*
X145738095Y-72454819D02*
X145261905Y-72454819D01*
X145261905Y-72454819D02*
X145214286Y-72931009D01*
X145214286Y-72931009D02*
X145261905Y-72883390D01*
X145261905Y-72883390D02*
X145357143Y-72835771D01*
X145357143Y-72835771D02*
X145595238Y-72835771D01*
X145595238Y-72835771D02*
X145690476Y-72883390D01*
X145690476Y-72883390D02*
X145738095Y-72931009D01*
X145738095Y-72931009D02*
X145785714Y-73026247D01*
X145785714Y-73026247D02*
X145785714Y-73264342D01*
X145785714Y-73264342D02*
X145738095Y-73359580D01*
X145738095Y-73359580D02*
X145690476Y-73407200D01*
X145690476Y-73407200D02*
X145595238Y-73454819D01*
X145595238Y-73454819D02*
X145357143Y-73454819D01*
X145357143Y-73454819D02*
X145261905Y-73407200D01*
X145261905Y-73407200D02*
X145214286Y-73359580D01*
X102214284Y-108589580D02*
X102166665Y-108637200D01*
X102166665Y-108637200D02*
X102023808Y-108684819D01*
X102023808Y-108684819D02*
X101928570Y-108684819D01*
X101928570Y-108684819D02*
X101785713Y-108637200D01*
X101785713Y-108637200D02*
X101690475Y-108541961D01*
X101690475Y-108541961D02*
X101642856Y-108446723D01*
X101642856Y-108446723D02*
X101595237Y-108256247D01*
X101595237Y-108256247D02*
X101595237Y-108113390D01*
X101595237Y-108113390D02*
X101642856Y-107922914D01*
X101642856Y-107922914D02*
X101690475Y-107827676D01*
X101690475Y-107827676D02*
X101785713Y-107732438D01*
X101785713Y-107732438D02*
X101928570Y-107684819D01*
X101928570Y-107684819D02*
X102023808Y-107684819D01*
X102023808Y-107684819D02*
X102166665Y-107732438D01*
X102166665Y-107732438D02*
X102214284Y-107780057D01*
X102595237Y-107780057D02*
X102642856Y-107732438D01*
X102642856Y-107732438D02*
X102738094Y-107684819D01*
X102738094Y-107684819D02*
X102976189Y-107684819D01*
X102976189Y-107684819D02*
X103071427Y-107732438D01*
X103071427Y-107732438D02*
X103119046Y-107780057D01*
X103119046Y-107780057D02*
X103166665Y-107875295D01*
X103166665Y-107875295D02*
X103166665Y-107970533D01*
X103166665Y-107970533D02*
X103119046Y-108113390D01*
X103119046Y-108113390D02*
X102547618Y-108684819D01*
X102547618Y-108684819D02*
X103166665Y-108684819D01*
X104309523Y-108637200D02*
X104404761Y-108684819D01*
X104404761Y-108684819D02*
X104595237Y-108684819D01*
X104595237Y-108684819D02*
X104690475Y-108637200D01*
X104690475Y-108637200D02*
X104738094Y-108541961D01*
X104738094Y-108541961D02*
X104738094Y-108494342D01*
X104738094Y-108494342D02*
X104690475Y-108399104D01*
X104690475Y-108399104D02*
X104595237Y-108351485D01*
X104595237Y-108351485D02*
X104452380Y-108351485D01*
X104452380Y-108351485D02*
X104357142Y-108303866D01*
X104357142Y-108303866D02*
X104309523Y-108208628D01*
X104309523Y-108208628D02*
X104309523Y-108161009D01*
X104309523Y-108161009D02*
X104357142Y-108065771D01*
X104357142Y-108065771D02*
X104452380Y-108018152D01*
X104452380Y-108018152D02*
X104595237Y-108018152D01*
X104595237Y-108018152D02*
X104690475Y-108065771D01*
X105547618Y-108637200D02*
X105452380Y-108684819D01*
X105452380Y-108684819D02*
X105261904Y-108684819D01*
X105261904Y-108684819D02*
X105166666Y-108637200D01*
X105166666Y-108637200D02*
X105119047Y-108541961D01*
X105119047Y-108541961D02*
X105119047Y-108161009D01*
X105119047Y-108161009D02*
X105166666Y-108065771D01*
X105166666Y-108065771D02*
X105261904Y-108018152D01*
X105261904Y-108018152D02*
X105452380Y-108018152D01*
X105452380Y-108018152D02*
X105547618Y-108065771D01*
X105547618Y-108065771D02*
X105595237Y-108161009D01*
X105595237Y-108161009D02*
X105595237Y-108256247D01*
X105595237Y-108256247D02*
X105119047Y-108351485D01*
X106166666Y-108684819D02*
X106071428Y-108637200D01*
X106071428Y-108637200D02*
X106023809Y-108541961D01*
X106023809Y-108541961D02*
X106023809Y-107684819D01*
X106928571Y-108637200D02*
X106833333Y-108684819D01*
X106833333Y-108684819D02*
X106642857Y-108684819D01*
X106642857Y-108684819D02*
X106547619Y-108637200D01*
X106547619Y-108637200D02*
X106500000Y-108541961D01*
X106500000Y-108541961D02*
X106500000Y-108161009D01*
X106500000Y-108161009D02*
X106547619Y-108065771D01*
X106547619Y-108065771D02*
X106642857Y-108018152D01*
X106642857Y-108018152D02*
X106833333Y-108018152D01*
X106833333Y-108018152D02*
X106928571Y-108065771D01*
X106928571Y-108065771D02*
X106976190Y-108161009D01*
X106976190Y-108161009D02*
X106976190Y-108256247D01*
X106976190Y-108256247D02*
X106500000Y-108351485D01*
X107833333Y-108637200D02*
X107738095Y-108684819D01*
X107738095Y-108684819D02*
X107547619Y-108684819D01*
X107547619Y-108684819D02*
X107452381Y-108637200D01*
X107452381Y-108637200D02*
X107404762Y-108589580D01*
X107404762Y-108589580D02*
X107357143Y-108494342D01*
X107357143Y-108494342D02*
X107357143Y-108208628D01*
X107357143Y-108208628D02*
X107404762Y-108113390D01*
X107404762Y-108113390D02*
X107452381Y-108065771D01*
X107452381Y-108065771D02*
X107547619Y-108018152D01*
X107547619Y-108018152D02*
X107738095Y-108018152D01*
X107738095Y-108018152D02*
X107833333Y-108065771D01*
X108119048Y-108018152D02*
X108500000Y-108018152D01*
X108261905Y-107684819D02*
X108261905Y-108541961D01*
X108261905Y-108541961D02*
X108309524Y-108637200D01*
X108309524Y-108637200D02*
X108404762Y-108684819D01*
X108404762Y-108684819D02*
X108500000Y-108684819D01*
X104454819Y-100333333D02*
X105169104Y-100333333D01*
X105169104Y-100333333D02*
X105311961Y-100380952D01*
X105311961Y-100380952D02*
X105407200Y-100476190D01*
X105407200Y-100476190D02*
X105454819Y-100619047D01*
X105454819Y-100619047D02*
X105454819Y-100714285D01*
X105454819Y-99857142D02*
X104454819Y-99857142D01*
X104454819Y-99857142D02*
X104454819Y-99476190D01*
X104454819Y-99476190D02*
X104502438Y-99380952D01*
X104502438Y-99380952D02*
X104550057Y-99333333D01*
X104550057Y-99333333D02*
X104645295Y-99285714D01*
X104645295Y-99285714D02*
X104788152Y-99285714D01*
X104788152Y-99285714D02*
X104883390Y-99333333D01*
X104883390Y-99333333D02*
X104931009Y-99380952D01*
X104931009Y-99380952D02*
X104978628Y-99476190D01*
X104978628Y-99476190D02*
X104978628Y-99857142D01*
X104550057Y-98904761D02*
X104502438Y-98857142D01*
X104502438Y-98857142D02*
X104454819Y-98761904D01*
X104454819Y-98761904D02*
X104454819Y-98523809D01*
X104454819Y-98523809D02*
X104502438Y-98428571D01*
X104502438Y-98428571D02*
X104550057Y-98380952D01*
X104550057Y-98380952D02*
X104645295Y-98333333D01*
X104645295Y-98333333D02*
X104740533Y-98333333D01*
X104740533Y-98333333D02*
X104883390Y-98380952D01*
X104883390Y-98380952D02*
X105454819Y-98952380D01*
X105454819Y-98952380D02*
X105454819Y-98333333D01*
X126300057Y-65214285D02*
X126252438Y-65166666D01*
X126252438Y-65166666D02*
X126204819Y-65071428D01*
X126204819Y-65071428D02*
X126204819Y-64833333D01*
X126204819Y-64833333D02*
X126252438Y-64738095D01*
X126252438Y-64738095D02*
X126300057Y-64690476D01*
X126300057Y-64690476D02*
X126395295Y-64642857D01*
X126395295Y-64642857D02*
X126490533Y-64642857D01*
X126490533Y-64642857D02*
X126633390Y-64690476D01*
X126633390Y-64690476D02*
X127204819Y-65261904D01*
X127204819Y-65261904D02*
X127204819Y-64642857D01*
X127109580Y-64214285D02*
X127157200Y-64166666D01*
X127157200Y-64166666D02*
X127204819Y-64214285D01*
X127204819Y-64214285D02*
X127157200Y-64261904D01*
X127157200Y-64261904D02*
X127109580Y-64214285D01*
X127109580Y-64214285D02*
X127204819Y-64214285D01*
X126300057Y-63785714D02*
X126252438Y-63738095D01*
X126252438Y-63738095D02*
X126204819Y-63642857D01*
X126204819Y-63642857D02*
X126204819Y-63404762D01*
X126204819Y-63404762D02*
X126252438Y-63309524D01*
X126252438Y-63309524D02*
X126300057Y-63261905D01*
X126300057Y-63261905D02*
X126395295Y-63214286D01*
X126395295Y-63214286D02*
X126490533Y-63214286D01*
X126490533Y-63214286D02*
X126633390Y-63261905D01*
X126633390Y-63261905D02*
X127204819Y-63833333D01*
X127204819Y-63833333D02*
X127204819Y-63214286D01*
X126538152Y-62357143D02*
X127204819Y-62357143D01*
X126538152Y-62785714D02*
X127061961Y-62785714D01*
X127061961Y-62785714D02*
X127157200Y-62738095D01*
X127157200Y-62738095D02*
X127204819Y-62642857D01*
X127204819Y-62642857D02*
X127204819Y-62500000D01*
X127204819Y-62500000D02*
X127157200Y-62404762D01*
X127157200Y-62404762D02*
X127109580Y-62357143D01*
X126681009Y-61547619D02*
X126681009Y-61880952D01*
X127204819Y-61880952D02*
X126204819Y-61880952D01*
X126204819Y-61880952D02*
X126204819Y-61404762D01*
X126538152Y-60404761D02*
X126538152Y-60023809D01*
X127204819Y-60261904D02*
X126347676Y-60261904D01*
X126347676Y-60261904D02*
X126252438Y-60214285D01*
X126252438Y-60214285D02*
X126204819Y-60119047D01*
X126204819Y-60119047D02*
X126204819Y-60023809D01*
X127204819Y-59690475D02*
X126538152Y-59690475D01*
X126204819Y-59690475D02*
X126252438Y-59738094D01*
X126252438Y-59738094D02*
X126300057Y-59690475D01*
X126300057Y-59690475D02*
X126252438Y-59642856D01*
X126252438Y-59642856D02*
X126204819Y-59690475D01*
X126204819Y-59690475D02*
X126300057Y-59690475D01*
X127204819Y-59071428D02*
X127157200Y-59166666D01*
X127157200Y-59166666D02*
X127061961Y-59214285D01*
X127061961Y-59214285D02*
X126204819Y-59214285D01*
X127204819Y-58690475D02*
X126538152Y-58690475D01*
X126633390Y-58690475D02*
X126585771Y-58642856D01*
X126585771Y-58642856D02*
X126538152Y-58547618D01*
X126538152Y-58547618D02*
X126538152Y-58404761D01*
X126538152Y-58404761D02*
X126585771Y-58309523D01*
X126585771Y-58309523D02*
X126681009Y-58261904D01*
X126681009Y-58261904D02*
X127204819Y-58261904D01*
X126681009Y-58261904D02*
X126585771Y-58214285D01*
X126585771Y-58214285D02*
X126538152Y-58119047D01*
X126538152Y-58119047D02*
X126538152Y-57976190D01*
X126538152Y-57976190D02*
X126585771Y-57880951D01*
X126585771Y-57880951D02*
X126681009Y-57833332D01*
X126681009Y-57833332D02*
X127204819Y-57833332D01*
X132859580Y-62738095D02*
X132907200Y-62785714D01*
X132907200Y-62785714D02*
X132954819Y-62928571D01*
X132954819Y-62928571D02*
X132954819Y-63023809D01*
X132954819Y-63023809D02*
X132907200Y-63166666D01*
X132907200Y-63166666D02*
X132811961Y-63261904D01*
X132811961Y-63261904D02*
X132716723Y-63309523D01*
X132716723Y-63309523D02*
X132526247Y-63357142D01*
X132526247Y-63357142D02*
X132383390Y-63357142D01*
X132383390Y-63357142D02*
X132192914Y-63309523D01*
X132192914Y-63309523D02*
X132097676Y-63261904D01*
X132097676Y-63261904D02*
X132002438Y-63166666D01*
X132002438Y-63166666D02*
X131954819Y-63023809D01*
X131954819Y-63023809D02*
X131954819Y-62928571D01*
X131954819Y-62928571D02*
X132002438Y-62785714D01*
X132002438Y-62785714D02*
X132050057Y-62738095D01*
X133050057Y-62547619D02*
X133050057Y-61785714D01*
X132954819Y-61547618D02*
X132288152Y-61547618D01*
X131954819Y-61547618D02*
X132002438Y-61595237D01*
X132002438Y-61595237D02*
X132050057Y-61547618D01*
X132050057Y-61547618D02*
X132002438Y-61499999D01*
X132002438Y-61499999D02*
X131954819Y-61547618D01*
X131954819Y-61547618D02*
X132050057Y-61547618D01*
X132288152Y-61071428D02*
X132954819Y-61071428D01*
X132383390Y-61071428D02*
X132335771Y-61023809D01*
X132335771Y-61023809D02*
X132288152Y-60928571D01*
X132288152Y-60928571D02*
X132288152Y-60785714D01*
X132288152Y-60785714D02*
X132335771Y-60690476D01*
X132335771Y-60690476D02*
X132431009Y-60642857D01*
X132431009Y-60642857D02*
X132954819Y-60642857D01*
X132050057Y-60214285D02*
X132002438Y-60166666D01*
X132002438Y-60166666D02*
X131954819Y-60071428D01*
X131954819Y-60071428D02*
X131954819Y-59833333D01*
X131954819Y-59833333D02*
X132002438Y-59738095D01*
X132002438Y-59738095D02*
X132050057Y-59690476D01*
X132050057Y-59690476D02*
X132145295Y-59642857D01*
X132145295Y-59642857D02*
X132240533Y-59642857D01*
X132240533Y-59642857D02*
X132383390Y-59690476D01*
X132383390Y-59690476D02*
X132954819Y-60261904D01*
X132954819Y-60261904D02*
X132954819Y-59642857D01*
%TO.C,U2*%
D11*
X179800000Y-126650000D02*
X181070000Y-126650000D01*
X179800000Y-130350000D02*
X181070000Y-130350000D01*
X181070000Y-133500000D02*
X181070000Y-123500000D01*
X179800000Y-123500000D02*
X184200000Y-123500000D01*
X184200000Y-133500000D01*
X179800000Y-133500000D01*
X179800000Y-123500000D01*
%TO.C,C11*%
X168312500Y-114656561D02*
X169312500Y-114656561D01*
X168812500Y-115156561D02*
X168812500Y-114156561D01*
X176000000Y-110867700D02*
G75*
G02*
X166000000Y-110867700I-5000000J0D01*
G01*
X166000000Y-110867700D02*
G75*
G02*
X176000000Y-110867700I5000000J0D01*
G01*
%TO.C,C_out1*%
X171429459Y-130147500D02*
X171429459Y-129347500D01*
X171829459Y-129747500D02*
X171029459Y-129747500D01*
X172402700Y-128000000D02*
G75*
G02*
X164402700Y-128000000I-4000000J0D01*
G01*
X164402700Y-128000000D02*
G75*
G02*
X172402700Y-128000000I4000000J0D01*
G01*
%TO.C,R3*%
X147000000Y-88690000D02*
X147000000Y-89350000D01*
X147000000Y-96310000D02*
X147000000Y-95650000D01*
X145750000Y-89350000D02*
X148250000Y-89350000D01*
X148250000Y-95650000D01*
X145750000Y-95650000D01*
X145750000Y-89350000D01*
%TO.C,C10*%
X190312500Y-107156561D02*
X191312500Y-107156561D01*
X190812500Y-107656561D02*
X190812500Y-106656561D01*
X198000000Y-103367700D02*
G75*
G02*
X188000000Y-103367700I-5000000J0D01*
G01*
X188000000Y-103367700D02*
G75*
G02*
X198000000Y-103367700I5000000J0D01*
G01*
%TO.C,C14*%
X178500000Y-118250000D02*
X183500000Y-118250000D01*
X183500000Y-120750000D01*
X178500000Y-120750000D01*
X178500000Y-118250000D01*
%TO.C,R7*%
X194000000Y-124190000D02*
X194000000Y-124850000D01*
X194000000Y-131810000D02*
X194000000Y-131150000D01*
X192750000Y-124850000D02*
X195250000Y-124850000D01*
X195250000Y-131150000D01*
X192750000Y-131150000D01*
X192750000Y-124850000D01*
%TO.C,JP3*%
X189730000Y-60590000D02*
X190365000Y-59955000D01*
X189730000Y-65035000D02*
X189730000Y-60590000D01*
X190365000Y-59955000D02*
X192270000Y-59955000D01*
X192270000Y-59955000D02*
X192270000Y-65035000D01*
X192270000Y-65035000D02*
X189730000Y-65035000D01*
%TO.C,J1*%
X101920000Y-43170000D02*
X101920000Y-50670000D01*
X101920000Y-50670000D02*
X111920000Y-50670000D01*
X111870000Y-44370000D02*
X101970000Y-44370000D01*
X111920000Y-43170000D02*
X101920000Y-43170000D01*
X111920000Y-50670000D02*
X111920000Y-43170000D01*
%TO.C,J3*%
X138830000Y-43170000D02*
X153930000Y-43170000D01*
X138830000Y-49470000D02*
X153930000Y-49470000D01*
X138830000Y-50670000D02*
X138830000Y-43170000D01*
X153930000Y-43170000D02*
X153930000Y-50670000D01*
X153930000Y-50670000D02*
X138830000Y-50670000D01*
%TO.C,R9*%
X159000000Y-61690000D02*
X159000000Y-62350000D01*
X159000000Y-69310000D02*
X159000000Y-68650000D01*
X157750000Y-62350000D02*
X160250000Y-62350000D01*
X160250000Y-68650000D01*
X157750000Y-68650000D01*
X157750000Y-62350000D01*
%TO.C,C12*%
X177750000Y-98500000D02*
X180250000Y-98500000D01*
X180250000Y-103500000D01*
X177750000Y-103500000D01*
X177750000Y-98500000D01*
%TO.C,C2_1*%
X104400000Y-80250000D02*
X111600000Y-80250000D01*
X111600000Y-85750000D01*
X104400000Y-85750000D01*
X104400000Y-80250000D01*
%TO.C,J6*%
X146370000Y-124250000D02*
X161470000Y-124250000D01*
X146370000Y-130550000D02*
X161470000Y-130550000D01*
X146370000Y-131750000D02*
X146370000Y-124250000D01*
X161470000Y-124250000D02*
X161470000Y-131750000D01*
X161470000Y-131750000D02*
X146370000Y-131750000D01*
%TO.C,J5*%
X125290000Y-124250000D02*
X140390000Y-124250000D01*
X125290000Y-130550000D02*
X140390000Y-130550000D01*
X125290000Y-131750000D02*
X125290000Y-124250000D01*
X140390000Y-124250000D02*
X140390000Y-131750000D01*
X140390000Y-131750000D02*
X125290000Y-131750000D01*
%TO.C,R8*%
X158500000Y-88190000D02*
X158500000Y-88850000D01*
X158500000Y-95810000D02*
X158500000Y-95150000D01*
X157250000Y-88850000D02*
X159750000Y-88850000D01*
X159750000Y-95150000D01*
X157250000Y-95150000D01*
X157250000Y-88850000D01*
%TO.C,J2*%
X114920000Y-43170000D02*
X114920000Y-50670000D01*
X114920000Y-50670000D02*
X124920000Y-50670000D01*
X124870000Y-44370000D02*
X114970000Y-44370000D01*
X124920000Y-43170000D02*
X114920000Y-43170000D01*
X124920000Y-50670000D02*
X124920000Y-43170000D01*
%TO.C,C15*%
X157343439Y-77812500D02*
X158343439Y-77812500D01*
X157843439Y-77312500D02*
X157843439Y-78312500D01*
X166632300Y-80000000D02*
G75*
G02*
X156632300Y-80000000I-5000000J0D01*
G01*
X156632300Y-80000000D02*
G75*
G02*
X166632300Y-80000000I5000000J0D01*
G01*
%TO.C,R6*%
X147500000Y-60190000D02*
X147500000Y-60850000D01*
X147500000Y-67810000D02*
X147500000Y-67150000D01*
X146250000Y-60850000D02*
X148750000Y-60850000D01*
X148750000Y-67150000D01*
X146250000Y-67150000D01*
X146250000Y-60850000D01*
%TO.C,C1_1*%
X112650000Y-120845000D02*
X118350000Y-120845000D01*
X118350000Y-131145000D01*
X112650000Y-131145000D01*
X112650000Y-120845000D01*
%TO.C,R1_2*%
X123000000Y-63190000D02*
X123000000Y-63850000D01*
X123000000Y-70810000D02*
X123000000Y-70150000D01*
X121750000Y-63850000D02*
X124250000Y-63850000D01*
X124250000Y-70150000D01*
X121750000Y-70150000D01*
X121750000Y-63850000D01*
%TO.C,C2_3*%
X111250000Y-95900000D02*
X116750000Y-95900000D01*
X116750000Y-103100000D01*
X111250000Y-103100000D01*
X111250000Y-95900000D01*
%TO.C,C13*%
X190750000Y-114000000D02*
X193250000Y-114000000D01*
X193250000Y-119000000D01*
X190750000Y-119000000D01*
X190750000Y-114000000D01*
%TO.C,R2*%
X115000000Y-83690000D02*
X115000000Y-84350000D01*
X115000000Y-91310000D02*
X115000000Y-90650000D01*
X113750000Y-84350000D02*
X116250000Y-84350000D01*
X116250000Y-90650000D01*
X113750000Y-90650000D01*
X113750000Y-84350000D01*
%TO.C,C2_2*%
X92750000Y-91400000D02*
X98250000Y-91400000D01*
X98250000Y-98600000D01*
X92750000Y-98600000D01*
X92750000Y-91400000D01*
%TO.C,R_b1*%
X112500000Y-63190000D02*
X112500000Y-63850000D01*
X112500000Y-70810000D02*
X112500000Y-70150000D01*
X111250000Y-63850000D02*
X113750000Y-63850000D01*
X113750000Y-70150000D01*
X111250000Y-70150000D01*
X111250000Y-63850000D01*
%TO.C,R1_1*%
X117000000Y-63190000D02*
X117000000Y-63850000D01*
X117000000Y-70810000D02*
X117000000Y-70150000D01*
X115750000Y-63850000D02*
X118250000Y-63850000D01*
X118250000Y-70150000D01*
X115750000Y-70150000D01*
X115750000Y-63850000D01*
%TO.C,C_in1*%
X99000000Y-55500000D02*
X108000000Y-55500000D01*
X108000000Y-73500000D01*
X99000000Y-73500000D01*
X99000000Y-55500000D01*
%TO.C,C1_2*%
X122345000Y-102150000D02*
X132645000Y-102150000D01*
X132645000Y-107850000D01*
X122345000Y-107850000D01*
X122345000Y-102150000D01*
%TO.C,JP1*%
X113880000Y-113230000D02*
X129120000Y-113230000D01*
X113880000Y-115135000D02*
X113880000Y-113230000D01*
X114515000Y-115770000D02*
X113880000Y-115135000D01*
X129120000Y-113230000D02*
X129120000Y-115770000D01*
X129120000Y-115770000D02*
X114515000Y-115770000D01*
%TO.C,R10*%
D12*
X158500000Y-101000000D02*
X144000000Y-101000000D01*
%TO.C,R4*%
D11*
X142000000Y-88690000D02*
X142000000Y-89350000D01*
X142000000Y-96310000D02*
X142000000Y-95650000D01*
X140750000Y-89350000D02*
X143250000Y-89350000D01*
X143250000Y-95650000D01*
X140750000Y-95650000D01*
X140750000Y-89350000D01*
%TO.C,U1*%
X120110000Y-88825000D02*
X137890000Y-88825000D01*
X120110000Y-94175000D02*
X120110000Y-88825000D01*
X121110000Y-95175000D02*
X120110000Y-94175000D01*
X137890000Y-88825000D02*
X137890000Y-95175000D01*
X137890000Y-95175000D02*
X121110000Y-95175000D01*
%TO.C,R_b2*%
X122690000Y-75500000D02*
X123350000Y-75500000D01*
X130310000Y-75500000D02*
X129650000Y-75500000D01*
X123350000Y-74250000D02*
X129650000Y-74250000D01*
X129650000Y-76750000D01*
X123350000Y-76750000D01*
X123350000Y-74250000D01*
%TO.C,J4*%
X173460000Y-43170000D02*
X173460000Y-50670000D01*
X173460000Y-50670000D02*
X183460000Y-50670000D01*
X183410000Y-44370000D02*
X173510000Y-44370000D01*
X183460000Y-43170000D02*
X173460000Y-43170000D01*
X183460000Y-50670000D02*
X183460000Y-43170000D01*
%TO.C,R5*%
X141190000Y-73000000D02*
X141850000Y-73000000D01*
X148810000Y-73000000D02*
X148150000Y-73000000D01*
X141850000Y-71750000D02*
X148150000Y-71750000D01*
X148150000Y-74250000D01*
X141850000Y-74250000D01*
X141850000Y-71750000D01*
%TO.C,JP2*%
X103730000Y-92515000D02*
X104365000Y-91880000D01*
X103730000Y-107120000D02*
X103730000Y-92515000D01*
X104365000Y-91880000D02*
X106270000Y-91880000D01*
X106270000Y-91880000D02*
X106270000Y-107120000D01*
X106270000Y-107120000D02*
X103730000Y-107120000D01*
%TO.C,C_in2*%
X128000000Y-52500000D02*
X137000000Y-52500000D01*
X137000000Y-70500000D01*
X128000000Y-70500000D01*
X128000000Y-52500000D01*
%TD*%
M02*
