M48
; DRILL file KiCad 10.0.4 date 2026-08-16T14:56:17
; FORMAT={-:-/ absolute / metric / decimal}
; #@! TF.CreationDate,2026-08-16T14:56:17+02:00
; #@! TF.GenerationSoftware,Kicad,Pcbnew,10.0.4
; #@! TF.FileFunction,Plated,1,2,PTH
FMAT,2
METRIC
; #@! TA.AperFunction,Plated,PTH,ComponentDrill
T1C0.800
; #@! TA.AperFunction,Plated,PTH,ComponentDrill
T2C1.000
; #@! TA.AperFunction,Plated,PTH,ComponentDrill
T3C1.100
; #@! TA.AperFunction,Plated,PTH,ComponentDrill
T4C1.200
; #@! TA.AperFunction,Plated,PTH,ComponentDrill
T5C1.520
%
G90
G05
T1
X89.46Y-117.5
X94.54Y-117.5
X95.6Y-78.6
X95.6Y-83.6
X95.6Y-102.2
X95.6Y-107.2
X99.06Y-117.5
X104.14Y-117.5
X112.5Y-63.19
X112.5Y-70.81
X113.4Y-125.545
X113.4Y-130.545
X114.8Y-88.19
X114.8Y-95.81
X117.0Y-63.19
X117.0Y-70.81
X119.8Y-120.545
X119.8Y-130.545
X121.2Y-63.2
X121.2Y-70.82
X121.38Y-88.19
X121.38Y-95.81
X123.92Y-88.19
X123.92Y-95.81
X125.1Y-63.19
X125.1Y-70.81
X126.46Y-88.19
X126.46Y-95.81
X126.49Y-99.7
X129.0Y-88.19
X129.0Y-95.81
X131.54Y-88.19
X131.54Y-95.81
X134.08Y-88.19
X134.08Y-95.81
X134.11Y-99.7
X136.62Y-88.19
X136.62Y-95.81
X141.18Y-64.8
X141.18Y-68.9
X141.18Y-73.0
X141.8Y-88.09
X141.8Y-95.71
X143.2Y-123.08
X143.2Y-130.7
X147.0Y-123.08
X147.0Y-130.7
X147.6Y-109.8
X148.8Y-64.8
X148.8Y-68.9
X148.8Y-73.0
X149.6Y-94.09
X149.6Y-99.09
X151.5Y-81.0
X152.6Y-109.8
X153.2Y-94.09
X153.2Y-99.09
X154.147Y-127.8
X157.647Y-127.8
X158.2Y-92.58
X158.2Y-100.2
X161.8Y-92.5
X161.8Y-100.12
X166.0Y-81.0
T2
X95.6Y-87.8
X95.6Y-97.8
X105.0Y-93.15
X105.0Y-95.69
X105.0Y-98.23
X105.0Y-100.77
X105.0Y-103.31
X105.0Y-105.85
X115.15Y-114.5
X117.69Y-114.5
X120.23Y-114.5
X122.77Y-114.5
X125.31Y-114.5
X127.85Y-114.5
X134.8Y-80.0
X139.8Y-80.0
X140.0Y-106.632
X140.0Y-111.632
X143.635Y-59.8
X146.175Y-59.8
X151.4Y-115.0
X151.4Y-120.0
T3
X137.16Y-117.95
X139.7Y-117.95
X142.24Y-117.95
T4
X103.5Y-54.3
X103.5Y-69.3
X116.245Y-105.0
X131.245Y-105.0
X132.5Y-54.0
X132.5Y-69.0
T5
X94.66Y-128.0
X99.74Y-128.0
X104.38Y-46.92
X109.46Y-46.92
X117.38Y-46.92
X122.46Y-46.92
X127.76Y-128.0
X132.84Y-128.0
X137.92Y-128.0
X141.3Y-46.92
X146.38Y-46.92
X151.46Y-46.92
X165.32Y-46.9
X165.876Y-128.0
X170.4Y-46.9
X170.956Y-128.0
X176.036Y-128.0
M30
