%TF.GenerationSoftware,KiCad,Pcbnew,10.0.4*%
%TF.CreationDate,2026-08-14T12:06:55+02:00*%
%TF.ProjectId,subxo,73756278-6f2e-46b6-9963-61645f706362,rev?*%
%TF.SameCoordinates,Original*%
%TF.FileFunction,Copper,L2,Bot*%
%TF.FilePolarity,Positive*%
%FSLAX46Y46*%
G04 Gerber Fmt 4.6, Leading zero omitted, Abs format (unit mm)*
G04 Created by KiCad (PCBNEW 10.0.4) date 2026-08-14 12:06:55*
%MOMM*%
%LPD*%
G01*
G04 APERTURE LIST*
G04 Aperture macros list*
%AMRoundRect*
0 Rectangle with rounded corners*
0 $1 Rounding radius*
0 $2 $3 $4 $5 $6 $7 $8 $9 X,Y pos of 4 corners*
0 Add a 4 corners polygon primitive as box body*
4,1,4,$2,$3,$4,$5,$6,$7,$8,$9,$2,$3,0*
0 Add four circle primitives for the rounded corners*
1,1,$1+$1,$2,$3*
1,1,$1+$1,$4,$5*
1,1,$1+$1,$6,$7*
1,1,$1+$1,$8,$9*
0 Add four rect primitives between the rounded corners*
20,1,$1+$1,$2,$3,$4,$5,0*
20,1,$1+$1,$4,$5,$6,$7,0*
20,1,$1+$1,$6,$7,$8,$9,0*
20,1,$1+$1,$8,$9,$2,$3,0*%
G04 Aperture macros list end*
%TA.AperFunction,ComponentPad*%
%ADD10R,2.000000X1.700000*%
%TD*%
%TA.AperFunction,ComponentPad*%
%ADD11O,2.000000X1.700000*%
%TD*%
%TA.AperFunction,ComponentPad*%
%ADD12RoundRect,0.250000X0.750000X-0.750000X0.750000X0.750000X-0.750000X0.750000X-0.750000X-0.750000X0*%
%TD*%
%TA.AperFunction,ComponentPad*%
%ADD13C,2.000000*%
%TD*%
%TA.AperFunction,ComponentPad*%
%ADD14RoundRect,0.250000X0.550000X0.550000X-0.550000X0.550000X-0.550000X-0.550000X0.550000X-0.550000X0*%
%TD*%
%TA.AperFunction,ComponentPad*%
%ADD15C,1.600000*%
%TD*%
%TA.AperFunction,ComponentPad*%
%ADD16R,1.700000X1.700000*%
%TD*%
%TA.AperFunction,ComponentPad*%
%ADD17C,1.700000*%
%TD*%
%TA.AperFunction,ComponentPad*%
%ADD18R,3.000000X3.000000*%
%TD*%
%TA.AperFunction,ComponentPad*%
%ADD19C,3.000000*%
%TD*%
%TA.AperFunction,ComponentPad*%
%ADD20RoundRect,0.250000X-0.750000X-0.750000X0.750000X-0.750000X0.750000X0.750000X-0.750000X0.750000X0*%
%TD*%
%TA.AperFunction,ComponentPad*%
%ADD21C,2.400000*%
%TD*%
%TA.AperFunction,ComponentPad*%
%ADD22RoundRect,0.250000X0.550000X-0.950000X0.550000X0.950000X-0.550000X0.950000X-0.550000X-0.950000X0*%
%TD*%
%TA.AperFunction,ComponentPad*%
%ADD23O,1.600000X2.400000*%
%TD*%
%TA.AperFunction,Conductor*%
%ADD24C,1.000000*%
%TD*%
G04 APERTURE END LIST*
D10*
%TO.P,U2,1,VI_1*%
%TO.N,/VIN*%
X182950000Y-131040000D03*
D11*
%TO.P,U2,2,GND_2*%
%TO.N,/GND*%
X182950000Y-128500000D03*
%TO.P,U2,3,VO_3*%
%TO.N,/V12*%
X182950000Y-125960000D03*
%TD*%
D12*
%TO.P,C11,1*%
%TO.N,/V12*%
X171000000Y-113367700D03*
D13*
%TO.P,C11,2*%
%TO.N,/GND*%
X171000000Y-108367700D03*
%TD*%
D14*
%TO.P,C_out1,1*%
%TO.N,/SW_COM*%
X170152700Y-128000000D03*
D15*
%TO.P,C_out1,2*%
%TO.N,/POT_TOP*%
X166652700Y-128000000D03*
%TD*%
%TO.P,R3,1*%
%TO.N,/OUT1*%
X147000000Y-96310000D03*
%TO.P,R3,2*%
%TO.N,/INV_IN*%
X147000000Y-88690000D03*
%TD*%
D12*
%TO.P,C10,1*%
%TO.N,/VIN*%
X193000000Y-105867700D03*
D13*
%TO.P,C10,2*%
%TO.N,/GND*%
X193000000Y-100867700D03*
%TD*%
D15*
%TO.P,C14,1*%
%TO.N,/V12*%
X183500000Y-119500000D03*
%TO.P,C14,2*%
%TO.N,/GND*%
X178500000Y-119500000D03*
%TD*%
%TO.P,R7,1*%
%TO.N,/GND*%
X194000000Y-124190000D03*
%TO.P,R7,2*%
%TO.N,/OUT_GND*%
X194000000Y-131810000D03*
%TD*%
D16*
%TO.P,JP3,1,Pin_1_1*%
%TO.N,/GND*%
X191000000Y-61225000D03*
D17*
%TO.P,JP3,2,Pin_2_2*%
%TO.N,/OUT_GND*%
X191000000Y-63765000D03*
%TD*%
D18*
%TO.P,J1,1,Pin_1_1*%
%TO.N,/IN_L*%
X109460000Y-46920000D03*
D19*
%TO.P,J1,2,Pin_2_2*%
%TO.N,/GND*%
X104380000Y-46920000D03*
%TD*%
D18*
%TO.P,J3,1,Pin_1_1*%
%TO.N,/OUT_TIP*%
X141300000Y-46920000D03*
D19*
%TO.P,J3,2,Pin_2_2*%
%TO.N,/OUT_RING*%
X146380000Y-46920000D03*
%TO.P,J3,3,Pin_3_3*%
%TO.N,/OUT_GND*%
X151460000Y-46920000D03*
%TD*%
D15*
%TO.P,R9,1*%
%TO.N,/VG_DIV*%
X159000000Y-69310000D03*
%TO.P,R9,2*%
%TO.N,/GND*%
X159000000Y-61690000D03*
%TD*%
%TO.P,C12,1*%
%TO.N,/V12*%
X179000000Y-103500000D03*
%TO.P,C12,2*%
%TO.N,/GND*%
X179000000Y-98500000D03*
%TD*%
%TO.P,C2_1,1*%
%TO.N,/N2*%
X110500000Y-83000000D03*
%TO.P,C2_1,2*%
%TO.N,/C2A_SEL*%
X105500000Y-83000000D03*
%TD*%
D18*
%TO.P,J6,1,Pin_1_1*%
%TO.N,/POT_TOP*%
X148840000Y-128000000D03*
D19*
%TO.P,J6,2,Pin_2_2*%
%TO.N,/POT_W*%
X153920000Y-128000000D03*
%TO.P,J6,3,Pin_3_3*%
%TO.N,/GND*%
X159000000Y-128000000D03*
%TD*%
D18*
%TO.P,J5,1,Pin_1_1*%
%TO.N,/OUT1*%
X127760000Y-128000000D03*
D19*
%TO.P,J5,2,Pin_2_2*%
%TO.N,/OUT2*%
X132840000Y-128000000D03*
%TO.P,J5,3,Pin_3_3*%
%TO.N,/SW_COM*%
X137920000Y-128000000D03*
%TD*%
D15*
%TO.P,R8,1*%
%TO.N,/V12*%
X158500000Y-95810000D03*
%TO.P,R8,2*%
%TO.N,/VG_DIV*%
X158500000Y-88190000D03*
%TD*%
D18*
%TO.P,J2,1,Pin_1_1*%
%TO.N,/IN_R*%
X122460000Y-46920000D03*
D19*
%TO.P,J2,2,Pin_2_2*%
%TO.N,/GND*%
X117380000Y-46920000D03*
%TD*%
D20*
%TO.P,C15,1*%
%TO.N,/VG_DIV*%
X159132300Y-80000000D03*
D13*
%TO.P,C15,2*%
%TO.N,/GND*%
X164132300Y-80000000D03*
%TD*%
D15*
%TO.P,R6,1*%
%TO.N,/POT_W*%
X147500000Y-67810000D03*
%TO.P,R6,2*%
%TO.N,/OUT_RING*%
X147500000Y-60190000D03*
%TD*%
D13*
%TO.P,C1_1,1*%
%TO.N,/OUT1*%
X115500000Y-129745000D03*
%TO.P,C1_1,2*%
%TO.N,/C1A_SEL*%
X115500000Y-122245000D03*
%TD*%
D15*
%TO.P,R1_2,1*%
%TO.N,/A_R*%
X123000000Y-70810000D03*
%TO.P,R1_2,2*%
%TO.N,/N1*%
X123000000Y-63190000D03*
%TD*%
%TO.P,C2_3,1*%
%TO.N,/N2*%
X114000000Y-97000000D03*
%TO.P,C2_3,2*%
%TO.N,/C2C_SEL*%
X114000000Y-102000000D03*
%TD*%
%TO.P,C13,1*%
%TO.N,/V12*%
X192000000Y-119000000D03*
%TO.P,C13,2*%
%TO.N,/GND*%
X192000000Y-114000000D03*
%TD*%
%TO.P,R2,1*%
%TO.N,/N1*%
X115000000Y-91310000D03*
%TO.P,R2,2*%
%TO.N,/N2*%
X115000000Y-83690000D03*
%TD*%
%TO.P,C2_2,1*%
%TO.N,/N2*%
X95500000Y-92500000D03*
%TO.P,C2_2,2*%
%TO.N,/C2B_SEL*%
X95500000Y-97500000D03*
%TD*%
%TO.P,R_b1,1*%
%TO.N,/A_L*%
X112500000Y-70810000D03*
%TO.P,R_b1,2*%
%TO.N,/VGND*%
X112500000Y-63190000D03*
%TD*%
%TO.P,R1_1,1*%
%TO.N,/A_L*%
X117000000Y-70810000D03*
%TO.P,R1_1,2*%
%TO.N,/N1*%
X117000000Y-63190000D03*
%TD*%
D21*
%TO.P,C_in1,1*%
%TO.N,/IN_L*%
X103500000Y-57000000D03*
%TO.P,C_in1,2*%
%TO.N,/A_L*%
X103500000Y-72000000D03*
%TD*%
D13*
%TO.P,C1_2,1*%
%TO.N,/OUT1*%
X131245000Y-105000000D03*
%TO.P,C1_2,2*%
%TO.N,/C1B_SEL*%
X123745000Y-105000000D03*
%TD*%
D16*
%TO.P,JP1,1,Pin_1_1*%
%TO.N,/C1A_SEL*%
X115150000Y-114500000D03*
D17*
%TO.P,JP1,2,Pin_2_2*%
%TO.N,/N1*%
X117690000Y-114500000D03*
%TO.P,JP1,3,Pin_3_3*%
%TO.N,/C1B_SEL*%
X120230000Y-114500000D03*
%TO.P,JP1,4,Pin_4_4*%
%TO.N,/N1*%
X122770000Y-114500000D03*
%TO.P,JP1,5,Pin_5_5*%
%TO.N,/C1C_SEL*%
X125310000Y-114500000D03*
%TO.P,JP1,6,Pin_6_6*%
%TO.N,/N1*%
X127850000Y-114500000D03*
%TD*%
D13*
%TO.P,R10,1*%
%TO.N,/V12*%
X158500000Y-101000000D03*
%TO.P,R10,2*%
%TO.N,/V12_LNK*%
X144000000Y-101000000D03*
%TD*%
D15*
%TO.P,R4,1*%
%TO.N,/INV_IN*%
X142000000Y-88690000D03*
%TO.P,R4,2*%
%TO.N,/OUT2*%
X142000000Y-96310000D03*
%TD*%
D22*
%TO.P,U1,1*%
%TO.N,/OUT1*%
X121380000Y-95810000D03*
D23*
%TO.P,U1,2,-_2*%
X123920000Y-95810000D03*
%TO.P,U1,3,+_3*%
%TO.N,/N2*%
X126460000Y-95810000D03*
%TO.P,U1,4,V+_4*%
%TO.N,/V12_LNK*%
X129000000Y-95810000D03*
%TO.P,U1,5,+_5*%
%TO.N,/VGND*%
X131540000Y-95810000D03*
%TO.P,U1,6,-_6*%
%TO.N,/INV_IN*%
X134080000Y-95810000D03*
%TO.P,U1,7*%
%TO.N,/OUT2*%
X136620000Y-95810000D03*
%TO.P,U1,8*%
%TO.N,/VGND*%
X136620000Y-88190000D03*
%TO.P,U1,9,-_9*%
X134080000Y-88190000D03*
%TO.P,U1,10,+_10*%
%TO.N,/VG_DIV*%
X131540000Y-88190000D03*
%TO.P,U1,11,V-_11*%
%TO.N,/GND*%
X129000000Y-88190000D03*
%TO.P,U1,12,+_12*%
%TO.N,/VGND*%
X126460000Y-88190000D03*
%TO.P,U1,13,-_13*%
%TO.N,/SPARE_OUT*%
X123920000Y-88190000D03*
%TO.P,U1,14*%
X121380000Y-88190000D03*
%TD*%
D15*
%TO.P,R_b2,1*%
%TO.N,/A_R*%
X130310000Y-75500000D03*
%TO.P,R_b2,2*%
%TO.N,/VGND*%
X122690000Y-75500000D03*
%TD*%
D18*
%TO.P,J4,1,Pin_1_1*%
%TO.N,/VIN*%
X181000000Y-46920000D03*
D19*
%TO.P,J4,2,Pin_2_2*%
%TO.N,/GND*%
X175920000Y-46920000D03*
%TD*%
D15*
%TO.P,R5,1*%
%TO.N,/POT_W*%
X148810000Y-73000000D03*
%TO.P,R5,2*%
%TO.N,/OUT_TIP*%
X141190000Y-73000000D03*
%TD*%
D16*
%TO.P,JP2,1,Pin_1_1*%
%TO.N,/C2A_SEL*%
X105000000Y-93150000D03*
D17*
%TO.P,JP2,2,Pin_2_2*%
%TO.N,/VGND*%
X105000000Y-95690000D03*
%TO.P,JP2,3,Pin_3_3*%
%TO.N,/C2B_SEL*%
X105000000Y-98230000D03*
%TO.P,JP2,4,Pin_4_4*%
%TO.N,/VGND*%
X105000000Y-100770000D03*
%TO.P,JP2,5,Pin_5_5*%
%TO.N,/C2C_SEL*%
X105000000Y-103310000D03*
%TO.P,JP2,6,Pin_6_6*%
%TO.N,/VGND*%
X105000000Y-105850000D03*
%TD*%
D21*
%TO.P,C_in2,1*%
%TO.N,/IN_R*%
X132500000Y-54000000D03*
%TO.P,C_in2,2*%
%TO.N,/A_R*%
X132500000Y-69000000D03*
%TD*%
%TO.N,/VIN*%
D24*
X186517700Y-105867700D02*
X185650000Y-105000000D01*
X193000000Y-105867700D02*
X186517700Y-105867700D01*
X185650000Y-130340000D02*
X185650000Y-105000000D01*
X185650000Y-105000000D02*
X185650000Y-51570000D01*
X184950000Y-131040000D02*
X185650000Y-130340000D01*
X185650000Y-51570000D02*
X181000000Y-46920000D01*
X182950000Y-131040000D02*
X184950000Y-131040000D01*
%TO.N,/V12*%
X183500000Y-125410000D02*
X182950000Y-125960000D01*
X179000000Y-128000000D02*
X181040000Y-125960000D01*
X158500000Y-101500000D02*
X170367700Y-113367700D01*
X183500000Y-119500000D02*
X177367700Y-113367700D01*
X179000000Y-103500000D02*
X177367700Y-105132300D01*
X177367700Y-105132300D02*
X177367700Y-113367700D01*
X181040000Y-125960000D02*
X182950000Y-125960000D01*
X186000000Y-135000000D02*
X179000000Y-135000000D01*
X191000000Y-130000000D02*
X186000000Y-135000000D01*
X177367700Y-113367700D02*
X171000000Y-113367700D01*
X191000000Y-120000000D02*
X191000000Y-130000000D01*
X192000000Y-119000000D02*
X191000000Y-120000000D01*
X158500000Y-95810000D02*
X158500000Y-101500000D01*
X183500000Y-119500000D02*
X183500000Y-125410000D01*
X179000000Y-135000000D02*
X179000000Y-128000000D01*
X170367700Y-113367700D02*
X171000000Y-113367700D01*
X171000000Y-113310000D02*
X171000000Y-113367700D01*
%TO.N,/SW_COM*%
X137920000Y-128000000D02*
X143920000Y-134000000D01*
X164152700Y-134000000D02*
X170152700Y-128000000D01*
X143920000Y-134000000D02*
X164152700Y-134000000D01*
%TO.N,/POT_TOP*%
X163802700Y-130850000D02*
X151690000Y-130850000D01*
X166652700Y-128000000D02*
X163802700Y-130850000D01*
X151690000Y-130850000D02*
X148840000Y-128000000D01*
%TO.N,/OUT1*%
X146275000Y-106605000D02*
X132850000Y-106605000D01*
X123920000Y-95810000D02*
X123920000Y-97675000D01*
X127760000Y-128000000D02*
X127760000Y-125203227D01*
X132850000Y-120113227D02*
X132850000Y-106605000D01*
X117245000Y-128000000D02*
X127760000Y-128000000D01*
X123920000Y-97675000D02*
X131245000Y-105000000D01*
X115500000Y-129745000D02*
X117245000Y-128000000D01*
X127760000Y-125203227D02*
X132850000Y-120113227D01*
X147000000Y-96310000D02*
X147000000Y-105880000D01*
X121380000Y-95810000D02*
X123920000Y-95810000D01*
X132850000Y-106605000D02*
X131245000Y-105000000D01*
X147000000Y-105880000D02*
X146275000Y-106605000D01*
%TO.N,/INV_IN*%
X139800000Y-88690000D02*
X134080000Y-94410000D01*
X134080000Y-94410000D02*
X134080000Y-95810000D01*
X142000000Y-88690000D02*
X139800000Y-88690000D01*
X147000000Y-88690000D02*
X142000000Y-88690000D01*
%TO.N,/OUT_GND*%
X154310000Y-44070000D02*
X183850000Y-44070000D01*
X198000000Y-70765000D02*
X198000000Y-127810000D01*
X198000000Y-127810000D02*
X194000000Y-131810000D01*
X151460000Y-46920000D02*
X154310000Y-44070000D01*
X189140000Y-63765000D02*
X191000000Y-63765000D01*
X188800000Y-63425000D02*
X189140000Y-63765000D01*
X183850000Y-44070000D02*
X188800000Y-49020000D01*
X188800000Y-49020000D02*
X188800000Y-63425000D01*
X191000000Y-63765000D02*
X198000000Y-70765000D01*
%TO.N,/IN_L*%
X103500000Y-57000000D02*
X109460000Y-51040000D01*
X109460000Y-51040000D02*
X109460000Y-46920000D01*
%TO.N,/OUT_TIP*%
X141190000Y-73000000D02*
X141300000Y-72890000D01*
X141300000Y-72890000D02*
X141300000Y-46920000D01*
%TO.N,/OUT_RING*%
X146380000Y-59070000D02*
X147500000Y-60190000D01*
X146380000Y-46920000D02*
X146380000Y-59070000D01*
%TO.N,/VG_DIV*%
X159132300Y-69442300D02*
X159000000Y-69310000D01*
X144000000Y-76000000D02*
X144000000Y-64000000D01*
X145000000Y-63000000D02*
X149269440Y-63000000D01*
X149269440Y-63000000D02*
X155579440Y-69310000D01*
X141000000Y-76000000D02*
X144000000Y-76000000D01*
X159132300Y-80000000D02*
X159132300Y-87557700D01*
X144000000Y-64000000D02*
X145000000Y-63000000D01*
X131540000Y-85460000D02*
X141000000Y-76000000D01*
X155579440Y-69310000D02*
X159000000Y-69310000D01*
X131540000Y-88190000D02*
X131540000Y-85460000D01*
X159132300Y-80000000D02*
X159132300Y-69442300D01*
X159132300Y-87557700D02*
X158500000Y-88190000D01*
%TO.N,/N2*%
X126460000Y-94410000D02*
X125310000Y-93260000D01*
X125310000Y-93260000D02*
X118871370Y-93260000D01*
X115131370Y-97000000D02*
X114000000Y-97000000D01*
X118871370Y-93260000D02*
X115131370Y-97000000D01*
X101000000Y-80000000D02*
X95500000Y-85500000D01*
X110500000Y-81500000D02*
X109000000Y-80000000D01*
X112820300Y-83690000D02*
X115000000Y-83690000D01*
X126460000Y-95810000D02*
X126460000Y-94410000D01*
X113000000Y-97000000D02*
X110500000Y-94500000D01*
X110500000Y-83000000D02*
X111190000Y-83690000D01*
X110500000Y-94500000D02*
X110500000Y-83000000D01*
X114000000Y-97000000D02*
X113000000Y-97000000D01*
X109000000Y-80000000D02*
X101000000Y-80000000D01*
X110500000Y-83000000D02*
X110500000Y-81500000D01*
X95500000Y-85500000D02*
X95500000Y-92500000D01*
X111190000Y-83690000D02*
X112820300Y-83690000D01*
%TO.N,/C2A_SEL*%
X105000000Y-93150000D02*
X105000000Y-83500000D01*
X105000000Y-83500000D02*
X105500000Y-83000000D01*
%TO.N,/POT_W*%
X147500000Y-67810000D02*
X147500000Y-68500000D01*
X154000000Y-127920000D02*
X153920000Y-128000000D01*
X147500000Y-68500000D02*
X149000000Y-70000000D01*
X149000000Y-70000000D02*
X149000000Y-72810000D01*
X154000000Y-78190000D02*
X154000000Y-127920000D01*
X149000000Y-72810000D02*
X148810000Y-73000000D01*
X148810000Y-73000000D02*
X154000000Y-78190000D01*
%TO.N,/OUT2*%
X147890560Y-94160000D02*
X144150000Y-94160000D01*
X151000000Y-97269440D02*
X147890560Y-94160000D01*
X132840000Y-128000000D02*
X132840000Y-125160000D01*
X151000000Y-107000000D02*
X151000000Y-97269440D01*
X141500000Y-95810000D02*
X142000000Y-96310000D01*
X144150000Y-94160000D02*
X142000000Y-96310000D01*
X136620000Y-95810000D02*
X141500000Y-95810000D01*
X132840000Y-125160000D02*
X151000000Y-107000000D01*
%TO.N,/IN_R*%
X132500000Y-47500000D02*
X132500000Y-54000000D01*
X132500000Y-47500000D02*
X131920000Y-46920000D01*
X131920000Y-46920000D02*
X122460000Y-46920000D01*
%TO.N,/C1A_SEL*%
X115150000Y-114500000D02*
X115150000Y-121895000D01*
X115150000Y-121895000D02*
X115500000Y-122245000D01*
%TO.N,/A_R*%
X123000000Y-70810000D02*
X130690000Y-70810000D01*
X130310000Y-75500000D02*
X130310000Y-71190000D01*
X130310000Y-71190000D02*
X132500000Y-69000000D01*
X130690000Y-70810000D02*
X132500000Y-69000000D01*
%TO.N,/N1*%
X99000000Y-111000000D02*
X89000000Y-101000000D01*
X122770000Y-114500000D02*
X122770000Y-111230000D01*
X107000000Y-62000000D02*
X110000000Y-59000000D01*
X117690000Y-111310000D02*
X118000000Y-111000000D01*
X110000000Y-59000000D02*
X112810000Y-59000000D01*
X125552081Y-111000000D02*
X123000000Y-111000000D01*
X89000000Y-82000000D02*
X95000000Y-76000000D01*
X123000000Y-111000000D02*
X118000000Y-111000000D01*
X112810000Y-59000000D02*
X117000000Y-63190000D01*
X123000000Y-63190000D02*
X117000000Y-63190000D01*
X117690000Y-114500000D02*
X117690000Y-111310000D01*
X89000000Y-101000000D02*
X89000000Y-82000000D01*
X127850000Y-114500000D02*
X127850000Y-113297919D01*
X119150000Y-87160000D02*
X115000000Y-91310000D01*
X119000000Y-68000000D02*
X119150000Y-68150000D01*
X107000000Y-65000000D02*
X107000000Y-62000000D01*
X110000000Y-68000000D02*
X107000000Y-65000000D01*
X119000000Y-68000000D02*
X110000000Y-68000000D01*
X119150000Y-80000000D02*
X119150000Y-87160000D01*
X122770000Y-111230000D02*
X123000000Y-111000000D01*
X95000000Y-76000000D02*
X115150000Y-76000000D01*
X118000000Y-111000000D02*
X99000000Y-111000000D01*
X119150000Y-68150000D02*
X119150000Y-80000000D01*
X127850000Y-113297919D02*
X125552081Y-111000000D01*
X115150000Y-76000000D02*
X119150000Y-80000000D01*
%TO.N,/C2C_SEL*%
X114000000Y-102000000D02*
X112690000Y-103310000D01*
X112690000Y-103310000D02*
X105000000Y-103310000D01*
%TO.N,/C2B_SEL*%
X105000000Y-98230000D02*
X96230000Y-98230000D01*
X96230000Y-98230000D02*
X95500000Y-97500000D01*
%TO.N,/A_L*%
X103500000Y-72000000D02*
X111310000Y-72000000D01*
X117000000Y-70810000D02*
X112500000Y-70810000D01*
X111310000Y-72000000D02*
X112500000Y-70810000D01*
%TO.N,/VGND*%
X131000000Y-79000000D02*
X126190000Y-79000000D01*
X136000000Y-66000000D02*
X136000000Y-74000000D01*
X126460000Y-90741700D02*
X118608860Y-90741700D01*
X105000000Y-100770000D02*
X106202081Y-100770000D01*
X115310000Y-66000000D02*
X136000000Y-66000000D01*
X93000000Y-99000000D02*
X99850000Y-105850000D01*
X99850000Y-105850000D02*
X102000000Y-105850000D01*
X131540000Y-95810000D02*
X131540000Y-93258300D01*
X126460000Y-79270000D02*
X126190000Y-79000000D01*
X113000000Y-94000000D02*
X112350000Y-93350000D01*
X112350000Y-93350000D02*
X112350000Y-89650000D01*
X106202081Y-100770000D02*
X108000000Y-98972081D01*
X112500000Y-63190000D02*
X115310000Y-66000000D01*
X126460000Y-88190000D02*
X126460000Y-79270000D01*
X97850000Y-78150000D02*
X93000000Y-83000000D01*
X108000000Y-98972081D02*
X108000000Y-97000000D01*
X102000000Y-101000000D02*
X102230000Y-100770000D01*
X105000000Y-105850000D02*
X102000000Y-105850000D01*
X93000000Y-83000000D02*
X93000000Y-99000000D01*
X136000000Y-74000000D02*
X131000000Y-79000000D01*
X112350000Y-89650000D02*
X117150000Y-84850000D01*
X134080000Y-88190000D02*
X134080000Y-90741700D01*
X102230000Y-100770000D02*
X105000000Y-100770000D01*
X126190000Y-79000000D02*
X122690000Y-75500000D01*
X113650000Y-78150000D02*
X97850000Y-78150000D01*
X117150000Y-81650000D02*
X113650000Y-78150000D01*
X102000000Y-101000000D02*
X102000000Y-105850000D01*
X118608860Y-90741700D02*
X115350560Y-94000000D01*
X117150000Y-84850000D02*
X117150000Y-81650000D01*
X126460000Y-88190000D02*
X126460000Y-90741700D01*
X126460000Y-90741700D02*
X129023400Y-90741700D01*
X131563400Y-93258300D02*
X131540000Y-93258300D01*
X129023400Y-90741700D02*
X131540000Y-93258300D01*
X134080000Y-88190000D02*
X136620000Y-88190000D01*
X106690000Y-95690000D02*
X105000000Y-95690000D01*
X134080000Y-90741700D02*
X131563400Y-93258300D01*
X108000000Y-97000000D02*
X106690000Y-95690000D01*
X115350560Y-94000000D02*
X113000000Y-94000000D01*
%TO.N,/C1B_SEL*%
X129730635Y-118000000D02*
X121000000Y-118000000D01*
X123745000Y-105745000D02*
X131000000Y-113000000D01*
X131000000Y-116730635D02*
X129730635Y-118000000D01*
X121000000Y-118000000D02*
X120230000Y-117230000D01*
X131000000Y-113000000D02*
X131000000Y-116730635D01*
X123745000Y-105000000D02*
X123745000Y-105745000D01*
X120230000Y-117230000D02*
X120230000Y-114500000D01*
%TO.N,/V12_LNK*%
X129000000Y-97210000D02*
X132790000Y-101000000D01*
X132790000Y-101000000D02*
X144000000Y-101000000D01*
X129000000Y-95810000D02*
X129000000Y-97210000D01*
%TO.N,/SPARE_OUT*%
X121380000Y-88190000D02*
X123920000Y-88190000D01*
%TD*%
%TA.AperFunction,Conductor*%
%TO.N,/GND*%
G36*
X201003032Y-37500648D02*
G01*
X201336929Y-37517052D01*
X201349037Y-37518245D01*
X201452146Y-37533539D01*
X201676699Y-37566849D01*
X201688617Y-37569219D01*
X202009951Y-37649709D01*
X202021588Y-37653240D01*
X202092806Y-37678722D01*
X202333467Y-37764832D01*
X202344688Y-37769479D01*
X202644163Y-37911120D01*
X202654871Y-37916844D01*
X202938988Y-38087137D01*
X202949106Y-38093897D01*
X203215170Y-38291224D01*
X203224576Y-38298944D01*
X203470013Y-38521395D01*
X203478604Y-38529986D01*
X203665755Y-38736475D01*
X203701055Y-38775423D01*
X203708775Y-38784829D01*
X203906102Y-39050893D01*
X203912862Y-39061011D01*
X204041776Y-39276092D01*
X204083148Y-39345116D01*
X204088885Y-39355848D01*
X204230514Y-39655297D01*
X204235170Y-39666540D01*
X204346759Y-39978411D01*
X204350292Y-39990055D01*
X204430777Y-40311369D01*
X204433151Y-40323305D01*
X204481754Y-40650962D01*
X204482947Y-40663071D01*
X204499351Y-40996966D01*
X204499500Y-41003051D01*
X204499500Y-132996948D01*
X204499351Y-133003033D01*
X204482947Y-133336928D01*
X204481754Y-133349037D01*
X204433151Y-133676694D01*
X204430777Y-133688630D01*
X204350292Y-134009944D01*
X204346759Y-134021588D01*
X204235170Y-134333459D01*
X204230514Y-134344702D01*
X204088885Y-134644151D01*
X204083148Y-134654883D01*
X203912862Y-134938988D01*
X203906102Y-134949106D01*
X203708775Y-135215170D01*
X203701055Y-135224576D01*
X203478611Y-135470006D01*
X203470006Y-135478611D01*
X203224576Y-135701055D01*
X203215170Y-135708775D01*
X202949106Y-135906102D01*
X202938988Y-135912862D01*
X202654883Y-136083148D01*
X202644151Y-136088885D01*
X202344702Y-136230514D01*
X202333459Y-136235170D01*
X202021588Y-136346759D01*
X202009944Y-136350292D01*
X201688630Y-136430777D01*
X201676694Y-136433151D01*
X201349037Y-136481754D01*
X201336928Y-136482947D01*
X201021989Y-136498419D01*
X201003031Y-136499351D01*
X200996949Y-136499500D01*
X186538226Y-136499500D01*
X186471187Y-136479815D01*
X186425432Y-136427011D01*
X186415488Y-136357853D01*
X186444513Y-136294297D01*
X186499906Y-136257569D01*
X186518412Y-136251557D01*
X186707816Y-136155051D01*
X186729789Y-136139086D01*
X186879786Y-136030109D01*
X186879788Y-136030106D01*
X186879792Y-136030104D01*
X187030104Y-135879792D01*
X187030105Y-135879790D01*
X187037165Y-135872730D01*
X187037171Y-135872723D01*
X191872723Y-131037171D01*
X191872730Y-131037165D01*
X191879790Y-131030105D01*
X191879792Y-131030104D01*
X192030104Y-130879792D01*
X192030106Y-130879788D01*
X192030109Y-130879786D01*
X192155048Y-130707820D01*
X192155047Y-130707820D01*
X192155051Y-130707816D01*
X192251557Y-130518412D01*
X192317246Y-130316243D01*
X192325614Y-130263412D01*
X192332357Y-130220843D01*
X192349497Y-130112623D01*
X192350501Y-130106287D01*
X192350501Y-129893713D01*
X192350501Y-129889312D01*
X192350500Y-129889297D01*
X192350500Y-120711646D01*
X192370185Y-120644607D01*
X192422989Y-120598852D01*
X192436182Y-120593715D01*
X192633572Y-120529579D01*
X192865051Y-120411634D01*
X193075229Y-120258931D01*
X193258931Y-120075229D01*
X193411634Y-119865051D01*
X193529579Y-119633572D01*
X193609860Y-119386493D01*
X193632539Y-119243298D01*
X193650500Y-119129902D01*
X193650500Y-118870097D01*
X193626130Y-118716235D01*
X193609860Y-118613507D01*
X193529579Y-118366428D01*
X193529577Y-118366425D01*
X193529577Y-118366423D01*
X193414732Y-118141030D01*
X193411634Y-118134949D01*
X193258931Y-117924771D01*
X193075229Y-117741069D01*
X192865051Y-117588366D01*
X192782380Y-117546243D01*
X192633576Y-117470422D01*
X192386493Y-117390140D01*
X192129902Y-117349500D01*
X192129897Y-117349500D01*
X191870103Y-117349500D01*
X191870098Y-117349500D01*
X191613506Y-117390140D01*
X191366423Y-117470422D01*
X191134945Y-117588368D01*
X190924774Y-117741066D01*
X190924768Y-117741071D01*
X190741071Y-117924768D01*
X190741066Y-117924774D01*
X190588368Y-118134945D01*
X190470422Y-118366425D01*
X190390139Y-118613508D01*
X190380171Y-118676443D01*
X190350241Y-118739577D01*
X190345379Y-118744724D01*
X190120211Y-118969893D01*
X189969896Y-119120208D01*
X189969890Y-119120213D01*
X189844951Y-119292179D01*
X189748444Y-119481585D01*
X189682753Y-119683760D01*
X189649500Y-119893713D01*
X189649500Y-129389243D01*
X189629815Y-129456282D01*
X189613181Y-129476924D01*
X185476924Y-133613181D01*
X185415601Y-133646666D01*
X185389243Y-133649500D01*
X180474500Y-133649500D01*
X180407461Y-133629815D01*
X180361706Y-133577011D01*
X180350500Y-133525500D01*
X180350500Y-128610757D01*
X180370185Y-128543718D01*
X180386819Y-128523076D01*
X181563076Y-127346819D01*
X181590003Y-127332115D01*
X181615822Y-127315523D01*
X181622022Y-127314631D01*
X181624399Y-127313334D01*
X181650757Y-127310500D01*
X181724537Y-127310500D01*
X181791576Y-127330185D01*
X181800011Y-127336115D01*
X181853226Y-127376948D01*
X182046274Y-127488405D01*
X182252219Y-127573710D01*
X182467537Y-127631404D01*
X182688543Y-127660500D01*
X182688550Y-127660500D01*
X183211450Y-127660500D01*
X183211457Y-127660500D01*
X183432463Y-127631404D01*
X183647781Y-127573710D01*
X183853726Y-127488405D01*
X184046774Y-127376948D01*
X184087867Y-127345416D01*
X184100014Y-127336096D01*
X184165183Y-127310902D01*
X184233628Y-127324941D01*
X184283618Y-127373755D01*
X184299500Y-127434472D01*
X184299500Y-129241896D01*
X184279815Y-129308935D01*
X184227011Y-129354690D01*
X184157853Y-129364634D01*
X184145575Y-129362231D01*
X184065500Y-129342317D01*
X184065501Y-129342317D01*
X184034339Y-129340204D01*
X184023954Y-129339500D01*
X181876046Y-129339500D01*
X181864177Y-129340304D01*
X181834500Y-129342317D01*
X181654978Y-129386963D01*
X181654976Y-129386964D01*
X181489249Y-129469156D01*
X181345059Y-129585059D01*
X181229156Y-129729249D01*
X181146964Y-129894976D01*
X181146963Y-129894978D01*
X181102317Y-130074500D01*
X181102317Y-130074505D01*
X181099733Y-130112618D01*
X181099500Y-130116048D01*
X181099500Y-131963951D01*
X181102317Y-132005499D01*
X181146963Y-132185022D01*
X181229156Y-132350750D01*
X181229157Y-132350751D01*
X181229158Y-132350753D01*
X181261108Y-132390500D01*
X181345059Y-132494940D01*
X181427173Y-132560945D01*
X181489247Y-132610842D01*
X181654979Y-132693037D01*
X181834501Y-132737682D01*
X181834502Y-132737682D01*
X181834505Y-132737683D01*
X181876046Y-132740500D01*
X181876048Y-132740500D01*
X184023952Y-132740500D01*
X184023954Y-132740500D01*
X184065495Y-132737683D01*
X184245021Y-132693037D01*
X184410753Y-132610842D01*
X184554940Y-132494940D01*
X184578849Y-132465195D01*
X184601666Y-132436812D01*
X184659009Y-132396893D01*
X184698312Y-132390500D01*
X185056286Y-132390500D01*
X185056287Y-132390500D01*
X185266243Y-132357246D01*
X185468412Y-132291557D01*
X185657816Y-132195051D01*
X185671621Y-132185021D01*
X185829792Y-132070104D01*
X185980104Y-131919792D01*
X185980105Y-131919790D01*
X185987165Y-131912730D01*
X185987170Y-131912723D01*
X186680104Y-131219792D01*
X186680106Y-131219788D01*
X186680109Y-131219786D01*
X186805048Y-131047820D01*
X186805047Y-131047820D01*
X186805051Y-131047816D01*
X186901557Y-130858412D01*
X186967246Y-130656243D01*
X187000500Y-130446287D01*
X187000500Y-130233714D01*
X187000500Y-107342200D01*
X187020185Y-107275161D01*
X187072989Y-107229406D01*
X187124500Y-107218200D01*
X191261758Y-107218200D01*
X191328797Y-107237885D01*
X191364447Y-107272696D01*
X191397523Y-107321565D01*
X191546135Y-107470177D01*
X191720187Y-107587979D01*
X191720189Y-107587980D01*
X191720191Y-107587981D01*
X191830234Y-107635104D01*
X191913388Y-107670713D01*
X191913396Y-107670714D01*
X191913397Y-107670715D01*
X192118749Y-107715387D01*
X192118750Y-107715387D01*
X192118755Y-107715388D01*
X192165962Y-107718200D01*
X192165973Y-107718200D01*
X193834027Y-107718200D01*
X193834038Y-107718200D01*
X193881245Y-107715388D01*
X193916035Y-107707820D01*
X193949700Y-107700496D01*
X194086612Y-107670713D01*
X194279813Y-107587979D01*
X194453865Y-107470177D01*
X194602477Y-107321565D01*
X194720279Y-107147513D01*
X194803013Y-106954312D01*
X194847688Y-106748945D01*
X194850500Y-106701738D01*
X194850500Y-105033662D01*
X194847688Y-104986455D01*
X194803013Y-104781088D01*
X194775435Y-104716687D01*
X194720281Y-104587891D01*
X194720280Y-104587889D01*
X194720279Y-104587887D01*
X194602477Y-104413835D01*
X194453865Y-104265223D01*
X194279813Y-104147421D01*
X194279811Y-104147420D01*
X194279808Y-104147418D01*
X194086613Y-104064687D01*
X194086602Y-104064684D01*
X193881250Y-104020012D01*
X193866492Y-104019133D01*
X193834038Y-104017200D01*
X192165962Y-104017200D01*
X192135416Y-104019019D01*
X192118749Y-104020012D01*
X191913397Y-104064684D01*
X191913386Y-104064687D01*
X191720191Y-104147418D01*
X191546137Y-104265221D01*
X191546135Y-104265223D01*
X191397523Y-104413835D01*
X191374084Y-104448466D01*
X191364448Y-104462703D01*
X191310570Y-104507188D01*
X191261758Y-104517200D01*
X187128458Y-104517200D01*
X187099017Y-104508555D01*
X187069031Y-104502032D01*
X187064015Y-104498277D01*
X187061419Y-104497515D01*
X187040777Y-104480881D01*
X187036819Y-104476923D01*
X187003334Y-104415600D01*
X187000500Y-104389242D01*
X187000500Y-51463713D01*
X186983478Y-51356243D01*
X186967246Y-51253757D01*
X186901557Y-51051588D01*
X186805051Y-50862184D01*
X186805049Y-50862181D01*
X186805048Y-50862179D01*
X186680110Y-50690215D01*
X186680106Y-50690211D01*
X186680104Y-50690208D01*
X186529792Y-50539896D01*
X186529791Y-50539895D01*
X186526680Y-50536784D01*
X186526665Y-50536770D01*
X183386819Y-47396924D01*
X183353334Y-47335601D01*
X183350500Y-47309243D01*
X183350500Y-45779757D01*
X183370185Y-45712718D01*
X183422989Y-45666963D01*
X183492147Y-45657019D01*
X183555703Y-45686044D01*
X183562181Y-45692076D01*
X187413181Y-49543076D01*
X187446666Y-49604399D01*
X187449500Y-49630757D01*
X187449500Y-63531287D01*
X187482754Y-63741243D01*
X187530243Y-63887399D01*
X187548444Y-63943414D01*
X187644951Y-64132820D01*
X187769889Y-64304784D01*
X187769893Y-64304788D01*
X187769896Y-64304792D01*
X187851923Y-64386819D01*
X187924538Y-64459434D01*
X187924549Y-64459444D01*
X188106770Y-64641665D01*
X188106784Y-64641680D01*
X188109895Y-64644791D01*
X188109896Y-64644792D01*
X188260208Y-64795104D01*
X188388928Y-64888624D01*
X188432184Y-64920051D01*
X188621588Y-65016557D01*
X188823757Y-65082246D01*
X189033714Y-65115501D01*
X189033715Y-65115501D01*
X189251398Y-65115501D01*
X189251422Y-65115500D01*
X189924537Y-65115500D01*
X189991576Y-65135185D01*
X190000011Y-65141115D01*
X190053226Y-65181948D01*
X190246274Y-65293405D01*
X190452219Y-65378710D01*
X190667537Y-65436404D01*
X190734024Y-65445157D01*
X190797919Y-65473421D01*
X190805519Y-65480414D01*
X196613181Y-71288076D01*
X196646666Y-71349399D01*
X196649500Y-71375757D01*
X196649500Y-127199242D01*
X196629815Y-127266281D01*
X196613181Y-127286923D01*
X193744724Y-130155379D01*
X193683401Y-130188864D01*
X193676443Y-130190171D01*
X193613508Y-130200139D01*
X193366425Y-130280422D01*
X193134945Y-130398368D01*
X192924774Y-130551066D01*
X192924768Y-130551071D01*
X192741071Y-130734768D01*
X192741066Y-130734774D01*
X192588368Y-130944945D01*
X192470422Y-131176423D01*
X192390140Y-131423506D01*
X192349500Y-131680097D01*
X192349500Y-131939902D01*
X192390140Y-132196493D01*
X192470422Y-132443576D01*
X192588368Y-132675054D01*
X192633870Y-132737682D01*
X192741069Y-132885229D01*
X192924771Y-133068931D01*
X193134949Y-133221634D01*
X193282445Y-133296787D01*
X193366423Y-133339577D01*
X193366425Y-133339577D01*
X193366428Y-133339579D01*
X193613507Y-133419860D01*
X193745706Y-133440797D01*
X193870098Y-133460500D01*
X193870103Y-133460500D01*
X194129902Y-133460500D01*
X194243298Y-133442539D01*
X194386493Y-133419860D01*
X194633572Y-133339579D01*
X194865051Y-133221634D01*
X195075229Y-133068931D01*
X195258931Y-132885229D01*
X195411634Y-132675051D01*
X195529579Y-132443572D01*
X195609860Y-132196493D01*
X195619828Y-132133554D01*
X195649755Y-132070424D01*
X195654601Y-132065292D01*
X199030104Y-128689792D01*
X199030106Y-128689788D01*
X199030109Y-128689786D01*
X199155048Y-128517820D01*
X199155047Y-128517820D01*
X199155051Y-128517816D01*
X199251557Y-128328412D01*
X199317246Y-128126243D01*
X199350500Y-127916287D01*
X199350500Y-127703714D01*
X199350500Y-70658713D01*
X199317246Y-70448757D01*
X199251557Y-70246588D01*
X199155051Y-70057184D01*
X199155049Y-70057181D01*
X199155048Y-70057179D01*
X199030110Y-69885215D01*
X199030106Y-69885211D01*
X199030104Y-69885208D01*
X198879792Y-69734896D01*
X198879791Y-69734895D01*
X198876680Y-69731784D01*
X198876665Y-69731770D01*
X192715414Y-63570519D01*
X192681929Y-63509196D01*
X192680158Y-63499039D01*
X192671404Y-63432537D01*
X192613710Y-63217219D01*
X192528405Y-63011274D01*
X192416948Y-62818226D01*
X192281247Y-62641376D01*
X192281242Y-62641370D01*
X192123629Y-62483757D01*
X192123622Y-62483751D01*
X191946782Y-62348058D01*
X191946780Y-62348057D01*
X191946774Y-62348052D01*
X191753726Y-62236595D01*
X191753722Y-62236593D01*
X191547790Y-62151293D01*
X191547783Y-62151291D01*
X191547781Y-62151290D01*
X191332463Y-62093596D01*
X191332457Y-62093595D01*
X191332452Y-62093594D01*
X191111466Y-62064501D01*
X191111463Y-62064500D01*
X191111457Y-62064500D01*
X190888543Y-62064500D01*
X190888537Y-62064500D01*
X190888533Y-62064501D01*
X190667547Y-62093594D01*
X190667540Y-62093595D01*
X190667537Y-62093596D01*
X190452219Y-62151290D01*
X190452203Y-62151295D01*
X190321952Y-62205247D01*
X190252483Y-62212716D01*
X190190004Y-62181441D01*
X190154352Y-62121352D01*
X190150500Y-62090686D01*
X190150500Y-48913713D01*
X190138916Y-48840575D01*
X190117246Y-48703757D01*
X190051557Y-48501588D01*
X189955051Y-48312184D01*
X189955049Y-48312181D01*
X189955048Y-48312179D01*
X189830109Y-48140213D01*
X189679791Y-47989895D01*
X184884444Y-43194549D01*
X184884435Y-43194539D01*
X184880104Y-43190208D01*
X184729792Y-43039896D01*
X184729788Y-43039893D01*
X184729784Y-43039889D01*
X184557820Y-42914951D01*
X184368414Y-42818444D01*
X184368413Y-42818443D01*
X184368412Y-42818443D01*
X184166243Y-42752754D01*
X184166241Y-42752753D01*
X184166240Y-42752753D01*
X184004957Y-42727208D01*
X183956287Y-42719500D01*
X183956286Y-42719500D01*
X154421422Y-42719500D01*
X154421398Y-42719499D01*
X154416287Y-42719499D01*
X154203714Y-42719499D01*
X154155041Y-42727208D01*
X153993760Y-42752753D01*
X153791585Y-42818444D01*
X153602179Y-42914951D01*
X153430213Y-43039890D01*
X153430209Y-43039894D01*
X153279893Y-43190211D01*
X151910508Y-44559595D01*
X151849185Y-44593080D01*
X151806642Y-44594853D01*
X151614061Y-44569500D01*
X151614060Y-44569500D01*
X151305940Y-44569500D01*
X151305934Y-44569500D01*
X151305930Y-44569501D01*
X151000457Y-44609717D01*
X150702837Y-44689464D01*
X150418173Y-44807376D01*
X150418162Y-44807381D01*
X150168772Y-44951367D01*
X150155122Y-44959249D01*
X150151325Y-44961441D01*
X149906884Y-45149007D01*
X149906877Y-45149013D01*
X149689013Y-45366877D01*
X149689007Y-45366884D01*
X149501441Y-45611325D01*
X149347381Y-45878162D01*
X149347376Y-45878173D01*
X149229464Y-46162837D01*
X149149717Y-46460457D01*
X149109501Y-46765930D01*
X149109500Y-46765940D01*
X149109500Y-47074053D01*
X149109501Y-47074069D01*
X149149717Y-47379542D01*
X149229464Y-47677162D01*
X149347376Y-47961826D01*
X149347381Y-47961837D01*
X149440014Y-48122280D01*
X149501438Y-48228670D01*
X149501440Y-48228673D01*
X149501441Y-48228674D01*
X149689007Y-48473115D01*
X149689013Y-48473122D01*
X149906877Y-48690986D01*
X149906883Y-48690991D01*
X150151330Y-48878562D01*
X150322830Y-48977578D01*
X150418162Y-49032618D01*
X150418167Y-49032620D01*
X150418170Y-49032622D01*
X150702836Y-49150535D01*
X151000456Y-49230282D01*
X151305940Y-49270500D01*
X151305947Y-49270500D01*
X151614053Y-49270500D01*
X151614060Y-49270500D01*
X151919544Y-49230282D01*
X152217164Y-49150535D01*
X152501830Y-49032622D01*
X152768670Y-48878562D01*
X153013117Y-48690991D01*
X153230991Y-48473117D01*
X153418562Y-48228670D01*
X153572622Y-47961830D01*
X153690535Y-47677164D01*
X153770282Y-47379544D01*
X153810500Y-47074060D01*
X153810500Y-46765940D01*
X153785145Y-46573354D01*
X153795910Y-46504322D01*
X153820400Y-46469493D01*
X154833076Y-45456819D01*
X154894399Y-45423334D01*
X154920757Y-45420500D01*
X178525500Y-45420500D01*
X178592539Y-45440185D01*
X178638294Y-45492989D01*
X178649500Y-45544500D01*
X178649500Y-48493954D01*
X178650018Y-48501588D01*
X178652317Y-48535499D01*
X178696963Y-48715021D01*
X178696964Y-48715023D01*
X178779156Y-48880750D01*
X178895059Y-49024940D01*
X178977173Y-49090945D01*
X179039247Y-49140842D01*
X179204979Y-49223037D01*
X179384501Y-49267682D01*
X179384502Y-49267682D01*
X179384505Y-49267683D01*
X179426046Y-49270500D01*
X181389243Y-49270500D01*
X181456282Y-49290185D01*
X181476924Y-49306819D01*
X184263181Y-52093076D01*
X184296666Y-52154399D01*
X184299500Y-52180757D01*
X184299500Y-117853663D01*
X184279815Y-117920702D01*
X184227011Y-117966457D01*
X184157853Y-117976401D01*
X184137182Y-117971594D01*
X183886490Y-117890139D01*
X183886491Y-117890139D01*
X183823556Y-117880171D01*
X183760421Y-117850241D01*
X183755274Y-117845379D01*
X178754519Y-112844624D01*
X178721034Y-112783301D01*
X178718200Y-112756943D01*
X178718200Y-105743056D01*
X178737885Y-105676017D01*
X178754515Y-105655379D01*
X179255276Y-105154617D01*
X179316597Y-105121134D01*
X179323513Y-105119834D01*
X179386493Y-105109860D01*
X179633572Y-105029579D01*
X179865051Y-104911634D01*
X180075229Y-104758931D01*
X180258931Y-104575229D01*
X180411634Y-104365051D01*
X180529579Y-104133572D01*
X180609860Y-103886493D01*
X180635563Y-103724210D01*
X180650500Y-103629902D01*
X180650500Y-103370097D01*
X180620575Y-103181161D01*
X180609860Y-103113507D01*
X180529579Y-102866428D01*
X180529577Y-102866425D01*
X180529577Y-102866423D01*
X180486787Y-102782445D01*
X180411634Y-102634949D01*
X180258931Y-102424771D01*
X180075229Y-102241069D01*
X180060661Y-102230485D01*
X179865054Y-102088368D01*
X179865053Y-102088367D01*
X179865051Y-102088366D01*
X179751077Y-102030293D01*
X179633576Y-101970422D01*
X179386493Y-101890140D01*
X179129902Y-101849500D01*
X179129897Y-101849500D01*
X178870103Y-101849500D01*
X178870098Y-101849500D01*
X178613506Y-101890140D01*
X178366423Y-101970422D01*
X178134945Y-102088368D01*
X177924774Y-102241066D01*
X177924768Y-102241071D01*
X177741071Y-102424768D01*
X177741066Y-102424774D01*
X177588368Y-102634945D01*
X177470422Y-102866425D01*
X177390139Y-103113508D01*
X177380171Y-103176443D01*
X177350241Y-103239577D01*
X177345379Y-103244724D01*
X176487911Y-104102193D01*
X176337594Y-104252509D01*
X176337590Y-104252513D01*
X176212651Y-104424479D01*
X176116144Y-104613885D01*
X176050453Y-104816060D01*
X176017200Y-105026013D01*
X176017200Y-111893200D01*
X175997515Y-111960239D01*
X175944711Y-112005994D01*
X175893200Y-112017200D01*
X172738242Y-112017200D01*
X172671203Y-111997515D01*
X172635552Y-111962703D01*
X172602477Y-111913835D01*
X172565307Y-111876665D01*
X172453865Y-111765223D01*
X172279813Y-111647421D01*
X172279811Y-111647420D01*
X172279808Y-111647418D01*
X172086613Y-111564687D01*
X172086602Y-111564684D01*
X171881250Y-111520012D01*
X171866492Y-111519133D01*
X171834038Y-111517200D01*
X171834027Y-111517200D01*
X170478458Y-111517200D01*
X170411419Y-111497515D01*
X170390777Y-111480881D01*
X160356591Y-101446696D01*
X160323106Y-101385373D01*
X160321333Y-101342835D01*
X160350500Y-101121288D01*
X160350500Y-100878712D01*
X160318838Y-100638211D01*
X160256054Y-100403900D01*
X160163224Y-100179788D01*
X160041936Y-99969711D01*
X159951511Y-99851867D01*
X159894266Y-99777263D01*
X159894260Y-99777256D01*
X159886819Y-99769815D01*
X159853334Y-99708492D01*
X159850500Y-99682134D01*
X159850500Y-96799484D01*
X159870185Y-96732445D01*
X159874183Y-96726598D01*
X159911631Y-96675055D01*
X159911630Y-96675055D01*
X159911634Y-96675051D01*
X160029579Y-96443572D01*
X160109860Y-96196493D01*
X160137425Y-96022452D01*
X160150500Y-95939902D01*
X160150500Y-95680097D01*
X160117290Y-95470421D01*
X160109860Y-95423507D01*
X160029579Y-95176428D01*
X160029577Y-95176425D01*
X160029577Y-95176423D01*
X159949065Y-95018412D01*
X159911634Y-94944949D01*
X159758931Y-94734771D01*
X159575229Y-94551069D01*
X159575225Y-94551066D01*
X159365054Y-94398368D01*
X159365053Y-94398367D01*
X159365051Y-94398366D01*
X159248769Y-94339117D01*
X159133576Y-94280422D01*
X158886493Y-94200140D01*
X158629902Y-94159500D01*
X158629897Y-94159500D01*
X158370103Y-94159500D01*
X158370098Y-94159500D01*
X158113506Y-94200140D01*
X157866423Y-94280422D01*
X157634945Y-94398368D01*
X157424774Y-94551066D01*
X157424768Y-94551071D01*
X157241071Y-94734768D01*
X157241066Y-94734774D01*
X157088368Y-94944945D01*
X156970422Y-95176423D01*
X156890140Y-95423506D01*
X156849500Y-95680097D01*
X156849500Y-95939902D01*
X156890140Y-96196493D01*
X156970422Y-96443576D01*
X157088368Y-96675055D01*
X157125817Y-96726598D01*
X157149298Y-96792404D01*
X157149500Y-96799484D01*
X157149500Y-99682134D01*
X157129815Y-99749173D01*
X157113181Y-99769815D01*
X157105739Y-99777256D01*
X157105733Y-99777263D01*
X156958067Y-99969706D01*
X156836777Y-100179785D01*
X156836773Y-100179794D01*
X156743947Y-100403895D01*
X156681161Y-100638214D01*
X156649500Y-100878711D01*
X156649500Y-101121288D01*
X156681161Y-101361785D01*
X156743947Y-101596104D01*
X156793707Y-101716235D01*
X156836776Y-101820212D01*
X156958064Y-102030289D01*
X156958066Y-102030292D01*
X156958067Y-102030293D01*
X157105733Y-102222736D01*
X157105739Y-102222743D01*
X157277256Y-102394260D01*
X157277262Y-102394265D01*
X157469711Y-102541936D01*
X157679788Y-102663224D01*
X157679793Y-102663226D01*
X157679799Y-102663229D01*
X157782542Y-102705786D01*
X157822771Y-102732666D01*
X169113181Y-114023076D01*
X169146666Y-114084399D01*
X169149500Y-114110757D01*
X169149500Y-114201738D01*
X169151484Y-114235060D01*
X169152312Y-114248950D01*
X169196984Y-114454302D01*
X169196987Y-114454313D01*
X169279718Y-114647508D01*
X169279720Y-114647511D01*
X169279721Y-114647513D01*
X169397523Y-114821565D01*
X169546135Y-114970177D01*
X169720187Y-115087979D01*
X169720189Y-115087980D01*
X169720191Y-115087981D01*
X169745255Y-115098714D01*
X169913388Y-115170713D01*
X169913396Y-115170714D01*
X169913397Y-115170715D01*
X170118749Y-115215387D01*
X170118750Y-115215387D01*
X170118755Y-115215388D01*
X170165962Y-115218200D01*
X170165973Y-115218200D01*
X171834027Y-115218200D01*
X171834038Y-115218200D01*
X171881245Y-115215388D01*
X172086612Y-115170713D01*
X172279813Y-115087979D01*
X172453865Y-114970177D01*
X172602477Y-114821565D01*
X172635552Y-114772696D01*
X172689430Y-114728212D01*
X172738242Y-114718200D01*
X176756943Y-114718200D01*
X176823982Y-114737885D01*
X176844624Y-114754519D01*
X181845379Y-119755274D01*
X181878864Y-119816597D01*
X181880171Y-119823556D01*
X181890139Y-119886490D01*
X181970422Y-120133574D01*
X182088368Y-120365055D01*
X182125817Y-120416598D01*
X182149298Y-120482404D01*
X182149500Y-120489484D01*
X182149500Y-124305983D01*
X182129815Y-124373022D01*
X182077011Y-124418777D01*
X182072956Y-124420543D01*
X182046268Y-124431597D01*
X181853226Y-124543052D01*
X181800021Y-124583876D01*
X181734854Y-124609070D01*
X181724537Y-124609500D01*
X181151422Y-124609500D01*
X181151398Y-124609499D01*
X181146287Y-124609499D01*
X180933714Y-124609499D01*
X180832416Y-124625543D01*
X180731118Y-124641588D01*
X180723756Y-124642754D01*
X180521583Y-124708444D01*
X180332179Y-124804951D01*
X180160213Y-124929890D01*
X177969894Y-127120209D01*
X177969893Y-127120211D01*
X177844951Y-127292179D01*
X177748444Y-127481585D01*
X177682753Y-127683760D01*
X177649500Y-127893713D01*
X177649500Y-135106286D01*
X177682753Y-135316239D01*
X177748444Y-135518414D01*
X177844951Y-135707820D01*
X177969890Y-135879786D01*
X178120213Y-136030109D01*
X178292179Y-136155048D01*
X178292181Y-136155049D01*
X178292184Y-136155051D01*
X178481588Y-136251557D01*
X178500092Y-136257569D01*
X178557768Y-136297006D01*
X178584966Y-136361365D01*
X178573051Y-136430211D01*
X178525807Y-136481687D01*
X178461774Y-136499500D01*
X89003051Y-136499500D01*
X88996968Y-136499351D01*
X88976900Y-136498365D01*
X88663071Y-136482947D01*
X88650962Y-136481754D01*
X88323305Y-136433151D01*
X88311369Y-136430777D01*
X87990055Y-136350292D01*
X87978411Y-136346759D01*
X87666540Y-136235170D01*
X87655301Y-136230515D01*
X87355844Y-136088883D01*
X87345121Y-136083150D01*
X87061011Y-135912862D01*
X87050893Y-135906102D01*
X86784829Y-135708775D01*
X86775423Y-135701055D01*
X86736475Y-135665755D01*
X86529986Y-135478604D01*
X86521395Y-135470013D01*
X86298944Y-135224576D01*
X86291224Y-135215170D01*
X86153972Y-135030107D01*
X86093895Y-134949103D01*
X86087137Y-134938988D01*
X85916844Y-134654871D01*
X85911120Y-134644163D01*
X85769479Y-134344688D01*
X85764829Y-134333459D01*
X85653240Y-134021588D01*
X85649707Y-134009944D01*
X85640958Y-133975015D01*
X85569219Y-133688617D01*
X85566848Y-133676694D01*
X85518245Y-133349037D01*
X85517052Y-133336927D01*
X85500649Y-133003032D01*
X85500500Y-132996948D01*
X85500500Y-81893713D01*
X87649500Y-81893713D01*
X87649500Y-101106287D01*
X87682754Y-101316243D01*
X87709636Y-101398978D01*
X87748444Y-101518414D01*
X87844951Y-101707820D01*
X87969889Y-101879784D01*
X87969893Y-101879788D01*
X87969896Y-101879792D01*
X88049604Y-101959500D01*
X88124538Y-102034434D01*
X88124549Y-102034444D01*
X97966770Y-111876665D01*
X97966784Y-111876680D01*
X97969895Y-111879791D01*
X97969896Y-111879792D01*
X98120208Y-112030104D01*
X98292044Y-112154949D01*
X98292171Y-112155041D01*
X98292173Y-112155043D01*
X98292175Y-112155045D01*
X98292177Y-112155046D01*
X98292184Y-112155051D01*
X98481588Y-112251557D01*
X98683757Y-112317246D01*
X98893714Y-112350501D01*
X98893715Y-112350501D01*
X99111398Y-112350501D01*
X99111422Y-112350500D01*
X116215500Y-112350500D01*
X116282539Y-112370185D01*
X116328294Y-112422989D01*
X116339500Y-112474500D01*
X116339500Y-112699409D01*
X116319815Y-112766448D01*
X116267011Y-112812203D01*
X116197853Y-112822147D01*
X116185575Y-112819744D01*
X116115500Y-112802317D01*
X116115501Y-112802317D01*
X116084339Y-112800204D01*
X116073954Y-112799500D01*
X114226046Y-112799500D01*
X114214177Y-112800304D01*
X114184500Y-112802317D01*
X114004978Y-112846963D01*
X114004976Y-112846964D01*
X113839249Y-112929156D01*
X113695059Y-113045059D01*
X113579156Y-113189249D01*
X113496964Y-113354976D01*
X113496963Y-113354978D01*
X113452317Y-113534500D01*
X113449500Y-113576048D01*
X113449500Y-115423951D01*
X113452317Y-115465499D01*
X113496963Y-115645021D01*
X113496964Y-115645023D01*
X113579156Y-115810750D01*
X113695057Y-115954937D01*
X113695062Y-115954942D01*
X113753187Y-116001664D01*
X113793106Y-116059007D01*
X113799500Y-116098311D01*
X113799500Y-121490114D01*
X113790061Y-121537566D01*
X113743948Y-121648892D01*
X113681161Y-121883214D01*
X113649500Y-122123711D01*
X113649500Y-122366288D01*
X113681161Y-122606785D01*
X113743947Y-122841104D01*
X113836773Y-123065205D01*
X113836776Y-123065212D01*
X113958064Y-123275289D01*
X113958066Y-123275292D01*
X113958067Y-123275293D01*
X114105733Y-123467736D01*
X114105739Y-123467743D01*
X114277256Y-123639260D01*
X114277262Y-123639265D01*
X114469711Y-123786936D01*
X114679788Y-123908224D01*
X114903900Y-124001054D01*
X115138211Y-124063838D01*
X115318586Y-124087584D01*
X115378711Y-124095500D01*
X115378712Y-124095500D01*
X115621289Y-124095500D01*
X115669388Y-124089167D01*
X115861789Y-124063838D01*
X116096100Y-124001054D01*
X116320212Y-123908224D01*
X116530289Y-123786936D01*
X116722738Y-123639265D01*
X116894265Y-123467738D01*
X117041936Y-123275289D01*
X117163224Y-123065212D01*
X117256054Y-122841100D01*
X117318838Y-122606789D01*
X117350500Y-122366288D01*
X117350500Y-122123712D01*
X117318838Y-121883211D01*
X117256054Y-121648900D01*
X117163224Y-121424788D01*
X117041936Y-121214711D01*
X116894265Y-121022262D01*
X116894260Y-121022256D01*
X116722743Y-120850739D01*
X116549013Y-120717431D01*
X116507811Y-120661003D01*
X116500500Y-120619055D01*
X116500500Y-116098312D01*
X116500755Y-116097441D01*
X116500512Y-116096567D01*
X116510590Y-116063948D01*
X116520185Y-116031273D01*
X116520958Y-116030393D01*
X116521138Y-116029811D01*
X116530232Y-116019841D01*
X116544624Y-116003466D01*
X116545724Y-116002539D01*
X116604940Y-115954940D01*
X116610588Y-115947913D01*
X116619810Y-115940147D01*
X116641198Y-115930740D01*
X116660377Y-115917388D01*
X116672586Y-115916936D01*
X116683768Y-115912019D01*
X116706846Y-115915669D01*
X116730199Y-115914806D01*
X116748551Y-115922266D01*
X116752779Y-115922935D01*
X116754943Y-115924864D01*
X116761683Y-115927604D01*
X116936274Y-116028405D01*
X117142219Y-116113710D01*
X117357537Y-116171404D01*
X117578543Y-116200500D01*
X117578550Y-116200500D01*
X117801450Y-116200500D01*
X117801457Y-116200500D01*
X118022463Y-116171404D01*
X118237781Y-116113710D01*
X118443726Y-116028405D01*
X118636774Y-115916948D01*
X118680014Y-115883769D01*
X118745183Y-115858575D01*
X118813628Y-115872613D01*
X118863617Y-115921427D01*
X118879500Y-115982145D01*
X118879500Y-117336287D01*
X118912754Y-117546243D01*
X118926441Y-117588368D01*
X118978444Y-117748414D01*
X119074951Y-117937820D01*
X119199889Y-118109784D01*
X119199893Y-118109788D01*
X119199896Y-118109792D01*
X119350208Y-118260104D01*
X119354538Y-118264434D01*
X119354549Y-118264444D01*
X120120209Y-119030105D01*
X120120213Y-119030109D01*
X120292179Y-119155048D01*
X120292181Y-119155049D01*
X120292184Y-119155051D01*
X120481588Y-119251557D01*
X120683757Y-119317246D01*
X120893713Y-119350500D01*
X120893714Y-119350500D01*
X129836921Y-119350500D01*
X129836922Y-119350500D01*
X130046878Y-119317246D01*
X130249047Y-119251557D01*
X130438451Y-119155051D01*
X130486407Y-119120209D01*
X130610427Y-119030104D01*
X130760739Y-118879792D01*
X130760740Y-118879790D01*
X130767800Y-118872730D01*
X130767805Y-118872723D01*
X131287820Y-118352709D01*
X131349142Y-118319225D01*
X131418834Y-118324209D01*
X131474767Y-118366081D01*
X131499184Y-118431545D01*
X131499500Y-118440391D01*
X131499500Y-119502469D01*
X131479815Y-119569508D01*
X131463181Y-119590150D01*
X126729894Y-124323436D01*
X126729890Y-124323440D01*
X126604951Y-124495406D01*
X126508444Y-124684812D01*
X126442753Y-124886987D01*
X126409500Y-125096940D01*
X126409500Y-125525500D01*
X126389815Y-125592539D01*
X126337011Y-125638294D01*
X126285500Y-125649500D01*
X126186046Y-125649500D01*
X126174177Y-125650304D01*
X126144500Y-125652317D01*
X125964978Y-125696963D01*
X125964976Y-125696964D01*
X125799249Y-125779156D01*
X125655059Y-125895059D01*
X125539156Y-126039249D01*
X125456964Y-126204976D01*
X125456963Y-126204978D01*
X125412317Y-126384500D01*
X125409500Y-126426048D01*
X125409500Y-126525500D01*
X125389815Y-126592539D01*
X125337011Y-126638294D01*
X125285500Y-126649500D01*
X117356422Y-126649500D01*
X117356398Y-126649499D01*
X117351287Y-126649499D01*
X117138714Y-126649499D01*
X117090041Y-126657208D01*
X116928760Y-126682753D01*
X116928757Y-126682754D01*
X116733701Y-126746132D01*
X116726585Y-126748444D01*
X116537179Y-126844951D01*
X116365213Y-126969890D01*
X116365209Y-126969894D01*
X116214893Y-127120211D01*
X115476924Y-127858181D01*
X115415601Y-127891666D01*
X115389243Y-127894500D01*
X115378711Y-127894500D01*
X115138214Y-127926161D01*
X114903895Y-127988947D01*
X114679794Y-128081773D01*
X114679785Y-128081777D01*
X114469706Y-128203067D01*
X114277263Y-128350733D01*
X114277256Y-128350739D01*
X114105739Y-128522256D01*
X114105733Y-128522263D01*
X113958067Y-128714706D01*
X113836777Y-128924785D01*
X113836773Y-128924794D01*
X113743947Y-129148895D01*
X113681161Y-129383214D01*
X113649500Y-129623711D01*
X113649500Y-129866288D01*
X113681161Y-130106785D01*
X113743947Y-130341104D01*
X113836773Y-130565205D01*
X113836776Y-130565212D01*
X113958064Y-130775289D01*
X113958066Y-130775292D01*
X113958067Y-130775293D01*
X114105733Y-130967736D01*
X114105739Y-130967743D01*
X114277256Y-131139260D01*
X114277262Y-131139265D01*
X114469711Y-131286936D01*
X114679788Y-131408224D01*
X114903900Y-131501054D01*
X115138211Y-131563838D01*
X115318586Y-131587584D01*
X115378711Y-131595500D01*
X115378712Y-131595500D01*
X115621289Y-131595500D01*
X115669388Y-131589167D01*
X115861789Y-131563838D01*
X116096100Y-131501054D01*
X116320212Y-131408224D01*
X116530289Y-131286936D01*
X116722738Y-131139265D01*
X116894265Y-130967738D01*
X117041936Y-130775289D01*
X117163224Y-130565212D01*
X117256054Y-130341100D01*
X117318838Y-130106789D01*
X117350500Y-129866288D01*
X117350500Y-129855757D01*
X117370185Y-129788718D01*
X117386819Y-129768076D01*
X117768076Y-129386819D01*
X117829399Y-129353334D01*
X117855757Y-129350500D01*
X125285500Y-129350500D01*
X125352539Y-129370185D01*
X125398294Y-129422989D01*
X125409500Y-129474500D01*
X125409500Y-129573951D01*
X125412317Y-129615499D01*
X125456963Y-129795021D01*
X125456964Y-129795023D01*
X125539156Y-129960750D01*
X125655059Y-130104940D01*
X125717808Y-130155379D01*
X125799247Y-130220842D01*
X125964979Y-130303037D01*
X126144501Y-130347682D01*
X126144502Y-130347682D01*
X126144505Y-130347683D01*
X126186046Y-130350500D01*
X126186048Y-130350500D01*
X129333952Y-130350500D01*
X129333954Y-130350500D01*
X129375495Y-130347683D01*
X129555021Y-130303037D01*
X129720753Y-130220842D01*
X129864940Y-130104940D01*
X129980842Y-129960753D01*
X130063037Y-129795021D01*
X130107683Y-129615495D01*
X130110500Y-129573954D01*
X130110500Y-126426046D01*
X130107683Y-126384505D01*
X130063037Y-126204979D01*
X129980842Y-126039247D01*
X129909906Y-125950999D01*
X129864940Y-125895059D01*
X129762785Y-125812945D01*
X129720753Y-125779158D01*
X129720751Y-125779157D01*
X129720750Y-125779156D01*
X129555023Y-125696964D01*
X129555021Y-125696963D01*
X129555019Y-125696962D01*
X129555015Y-125696961D01*
X129464451Y-125674438D01*
X129404144Y-125639156D01*
X129372486Y-125576870D01*
X129379528Y-125507356D01*
X129406693Y-125466428D01*
X133722723Y-121150397D01*
X133722730Y-121150392D01*
X133729790Y-121143332D01*
X133729792Y-121143331D01*
X133880104Y-120993019D01*
X133880106Y-120993015D01*
X133880109Y-120993013D01*
X134005048Y-120821047D01*
X134005047Y-120821047D01*
X134005051Y-120821043D01*
X134101557Y-120631639D01*
X134167246Y-120429470D01*
X134200500Y-120219514D01*
X134200500Y-108079500D01*
X134220185Y-108012461D01*
X134272989Y-107966706D01*
X134324500Y-107955500D01*
X146381286Y-107955500D01*
X146381287Y-107955500D01*
X146591243Y-107922246D01*
X146793412Y-107856557D01*
X146982816Y-107760051D01*
X147040419Y-107718200D01*
X147154792Y-107635104D01*
X147305104Y-107484792D01*
X147305105Y-107484790D01*
X147312165Y-107477730D01*
X147312171Y-107477723D01*
X147872723Y-106917171D01*
X147872730Y-106917165D01*
X147879790Y-106910105D01*
X147879792Y-106910104D01*
X148030104Y-106759792D01*
X148030106Y-106759788D01*
X148030109Y-106759786D01*
X148155048Y-106587820D01*
X148155047Y-106587820D01*
X148155051Y-106587816D01*
X148251557Y-106398412D01*
X148317246Y-106196243D01*
X148334614Y-106086588D01*
X148350501Y-105986287D01*
X148350501Y-105773713D01*
X148350501Y-105769312D01*
X148350500Y-105769297D01*
X148350500Y-97299484D01*
X148370185Y-97232445D01*
X148374183Y-97226598D01*
X148411631Y-97175055D01*
X148411632Y-97175054D01*
X148411634Y-97175051D01*
X148529579Y-96943572D01*
X148529579Y-96943570D01*
X148531302Y-96940190D01*
X148579277Y-96889394D01*
X148647098Y-96872599D01*
X148713233Y-96895136D01*
X148729468Y-96908804D01*
X149613181Y-97792516D01*
X149646666Y-97853839D01*
X149649500Y-97880197D01*
X149649500Y-106389242D01*
X149629815Y-106456281D01*
X149613181Y-106476923D01*
X131809894Y-124280209D01*
X131809890Y-124280213D01*
X131684951Y-124452179D01*
X131588444Y-124641585D01*
X131522753Y-124843760D01*
X131489500Y-125053713D01*
X131489500Y-126012384D01*
X131469815Y-126079423D01*
X131440987Y-126110759D01*
X131286886Y-126229005D01*
X131286877Y-126229013D01*
X131069013Y-126446877D01*
X131069007Y-126446884D01*
X130881441Y-126691325D01*
X130727381Y-126958162D01*
X130727376Y-126958173D01*
X130609464Y-127242837D01*
X130529717Y-127540457D01*
X130489501Y-127845930D01*
X130489500Y-127845946D01*
X130489500Y-128154053D01*
X130489501Y-128154069D01*
X130529717Y-128459542D01*
X130609464Y-128757162D01*
X130727376Y-129041826D01*
X130727381Y-129041837D01*
X130820014Y-129202280D01*
X130881438Y-129308670D01*
X130881440Y-129308673D01*
X130881441Y-129308674D01*
X131069007Y-129553115D01*
X131069013Y-129553122D01*
X131286877Y-129770986D01*
X131286883Y-129770991D01*
X131531330Y-129958562D01*
X131702830Y-130057578D01*
X131798162Y-130112618D01*
X131798167Y-130112620D01*
X131798170Y-130112622D01*
X132082836Y-130230535D01*
X132380456Y-130310282D01*
X132685940Y-130350500D01*
X132685947Y-130350500D01*
X132994053Y-130350500D01*
X132994060Y-130350500D01*
X133299544Y-130310282D01*
X133597164Y-130230535D01*
X133881830Y-130112622D01*
X134148670Y-129958562D01*
X134393117Y-129770991D01*
X134610991Y-129553117D01*
X134798562Y-129308670D01*
X134952622Y-129041830D01*
X135070535Y-128757164D01*
X135150282Y-128459544D01*
X135190500Y-128154060D01*
X135190500Y-127845946D01*
X135569500Y-127845946D01*
X135569500Y-128154053D01*
X135569501Y-128154069D01*
X135609717Y-128459542D01*
X135689464Y-128757162D01*
X135807376Y-129041826D01*
X135807381Y-129041837D01*
X135900014Y-129202280D01*
X135961438Y-129308670D01*
X135961440Y-129308673D01*
X135961441Y-129308674D01*
X136149007Y-129553115D01*
X136149013Y-129553122D01*
X136366877Y-129770986D01*
X136366883Y-129770991D01*
X136611330Y-129958562D01*
X136782830Y-130057578D01*
X136878162Y-130112618D01*
X136878167Y-130112620D01*
X136878170Y-130112622D01*
X137162836Y-130230535D01*
X137460456Y-130310282D01*
X137765940Y-130350500D01*
X137765947Y-130350500D01*
X138074053Y-130350500D01*
X138074060Y-130350500D01*
X138266643Y-130325145D01*
X138335675Y-130335910D01*
X138370507Y-130360403D01*
X143040213Y-135030109D01*
X143212179Y-135155048D01*
X143212181Y-135155049D01*
X143212184Y-135155051D01*
X143401588Y-135251557D01*
X143603757Y-135317246D01*
X143813713Y-135350500D01*
X143813714Y-135350500D01*
X164258986Y-135350500D01*
X164258987Y-135350500D01*
X164468943Y-135317246D01*
X164671112Y-135251557D01*
X164860516Y-135155051D01*
X164963705Y-135080080D01*
X165032492Y-135030104D01*
X165182804Y-134879792D01*
X165182805Y-134879790D01*
X165189865Y-134872730D01*
X165189870Y-134872723D01*
X170375777Y-129686819D01*
X170437100Y-129653334D01*
X170463458Y-129650500D01*
X170786727Y-129650500D01*
X170786738Y-129650500D01*
X170833945Y-129647688D01*
X171039312Y-129603013D01*
X171232513Y-129520279D01*
X171406565Y-129402477D01*
X171555177Y-129253865D01*
X171672979Y-129079813D01*
X171755713Y-128886612D01*
X171800388Y-128681245D01*
X171803200Y-128634038D01*
X171803200Y-127365962D01*
X171800388Y-127318755D01*
X171798592Y-127310500D01*
X171755715Y-127113397D01*
X171755712Y-127113386D01*
X171672981Y-126920191D01*
X171672980Y-126920189D01*
X171672979Y-126920187D01*
X171555177Y-126746135D01*
X171406565Y-126597523D01*
X171232513Y-126479721D01*
X171232511Y-126479720D01*
X171232508Y-126479718D01*
X171039313Y-126396987D01*
X171039302Y-126396984D01*
X170833950Y-126352312D01*
X170819192Y-126351433D01*
X170786738Y-126349500D01*
X169518662Y-126349500D01*
X169488116Y-126351319D01*
X169471449Y-126352312D01*
X169266097Y-126396984D01*
X169266086Y-126396987D01*
X169072891Y-126479718D01*
X168898837Y-126597521D01*
X168898832Y-126597525D01*
X168750225Y-126746132D01*
X168750221Y-126746137D01*
X168632418Y-126920191D01*
X168549687Y-127113386D01*
X168549684Y-127113397D01*
X168505012Y-127318749D01*
X168504331Y-127330185D01*
X168502200Y-127365962D01*
X168502200Y-127365973D01*
X168502200Y-127568136D01*
X168482515Y-127635175D01*
X168429711Y-127680930D01*
X168360553Y-127690874D01*
X168296997Y-127661849D01*
X168260269Y-127606455D01*
X168185697Y-127376948D01*
X168182279Y-127366428D01*
X168182277Y-127366425D01*
X168182277Y-127366423D01*
X168097093Y-127199242D01*
X168064334Y-127134949D01*
X167911631Y-126924771D01*
X167727929Y-126741069D01*
X167601895Y-126649500D01*
X167517754Y-126588368D01*
X167517753Y-126588367D01*
X167517751Y-126588366D01*
X167445464Y-126551534D01*
X167286276Y-126470422D01*
X167039193Y-126390140D01*
X166782602Y-126349500D01*
X166782597Y-126349500D01*
X166522803Y-126349500D01*
X166522798Y-126349500D01*
X166266206Y-126390140D01*
X166019123Y-126470422D01*
X165787645Y-126588368D01*
X165577474Y-126741066D01*
X165577468Y-126741071D01*
X165393771Y-126924768D01*
X165393766Y-126924774D01*
X165241068Y-127134945D01*
X165123122Y-127366425D01*
X165042839Y-127613508D01*
X165032871Y-127676443D01*
X165002941Y-127739577D01*
X164998079Y-127744724D01*
X163279624Y-129463181D01*
X163218301Y-129496666D01*
X163191943Y-129499500D01*
X155983041Y-129499500D01*
X155916002Y-129479815D01*
X155870247Y-129427011D01*
X155860303Y-129357853D01*
X155877576Y-129312787D01*
X155876533Y-129312185D01*
X156032618Y-129041837D01*
X156032618Y-129041836D01*
X156032622Y-129041830D01*
X156150535Y-128757164D01*
X156230282Y-128459544D01*
X156270500Y-128154060D01*
X156270500Y-127845940D01*
X156230282Y-127540456D01*
X156150535Y-127242836D01*
X156032622Y-126958170D01*
X156032620Y-126958167D01*
X156032618Y-126958162D01*
X155967254Y-126844949D01*
X155878562Y-126691330D01*
X155709053Y-126470422D01*
X155690992Y-126446884D01*
X155690986Y-126446877D01*
X155473126Y-126229017D01*
X155473117Y-126229009D01*
X155399013Y-126172146D01*
X155357810Y-126115718D01*
X155350500Y-126073771D01*
X155350500Y-78083713D01*
X155317246Y-77873760D01*
X155317246Y-77873757D01*
X155251557Y-77671588D01*
X155155051Y-77482184D01*
X155155049Y-77482181D01*
X155155048Y-77482179D01*
X155030109Y-77310213D01*
X154879791Y-77159895D01*
X150464619Y-72744724D01*
X150431134Y-72683401D01*
X150429834Y-72676483D01*
X150419860Y-72613507D01*
X150360603Y-72431134D01*
X150356569Y-72418717D01*
X150350500Y-72380399D01*
X150350500Y-69893713D01*
X150325639Y-69736748D01*
X150317246Y-69683757D01*
X150251557Y-69481588D01*
X150155051Y-69292184D01*
X150155049Y-69292181D01*
X150155048Y-69292179D01*
X150030109Y-69120213D01*
X149879791Y-68969895D01*
X149584947Y-68675051D01*
X149154060Y-68244165D01*
X149120576Y-68182843D01*
X149119269Y-68137087D01*
X149150500Y-67939902D01*
X149150500Y-67680097D01*
X149117936Y-67474500D01*
X149109860Y-67423507D01*
X149029579Y-67176428D01*
X149029577Y-67176425D01*
X149029577Y-67176423D01*
X148986787Y-67092445D01*
X148911634Y-66944949D01*
X148758931Y-66734771D01*
X148575229Y-66551069D01*
X148575225Y-66551066D01*
X148365054Y-66398368D01*
X148365053Y-66398367D01*
X148365051Y-66398366D01*
X148292764Y-66361534D01*
X148133576Y-66280422D01*
X147886493Y-66200140D01*
X147629902Y-66159500D01*
X147629897Y-66159500D01*
X147370103Y-66159500D01*
X147370098Y-66159500D01*
X147113506Y-66200140D01*
X146866423Y-66280422D01*
X146634945Y-66398368D01*
X146424774Y-66551066D01*
X146424768Y-66551071D01*
X146241071Y-66734768D01*
X146241066Y-66734774D01*
X146088368Y-66944945D01*
X145970422Y-67176423D01*
X145890140Y-67423506D01*
X145849500Y-67680097D01*
X145849500Y-67939902D01*
X145890140Y-68196493D01*
X145970422Y-68443576D01*
X146088368Y-68675054D01*
X146164581Y-68779953D01*
X146182194Y-68814519D01*
X146248444Y-69018416D01*
X146344951Y-69207820D01*
X146469889Y-69379784D01*
X146469893Y-69379788D01*
X146469896Y-69379792D01*
X146549604Y-69459500D01*
X146624538Y-69534434D01*
X146624549Y-69534444D01*
X147613181Y-70523076D01*
X147646666Y-70584399D01*
X147649500Y-70610757D01*
X147649500Y-71774978D01*
X147629815Y-71842017D01*
X147613181Y-71862659D01*
X147551071Y-71924768D01*
X147551066Y-71924774D01*
X147398368Y-72134945D01*
X147280422Y-72366423D01*
X147200140Y-72613506D01*
X147159500Y-72870097D01*
X147159500Y-73129902D01*
X147200140Y-73386493D01*
X147280422Y-73633576D01*
X147318641Y-73708583D01*
X147390442Y-73849500D01*
X147398368Y-73865054D01*
X147474922Y-73970421D01*
X147551069Y-74075229D01*
X147734771Y-74258931D01*
X147944949Y-74411634D01*
X148176428Y-74529579D01*
X148423507Y-74609860D01*
X148486444Y-74619827D01*
X148549575Y-74649755D01*
X148554724Y-74654619D01*
X152613181Y-78713076D01*
X152646666Y-78774399D01*
X152649500Y-78800757D01*
X152649500Y-125950999D01*
X152629815Y-126018038D01*
X152600986Y-126049375D01*
X152366884Y-126229007D01*
X152366877Y-126229013D01*
X152149013Y-126446877D01*
X152149007Y-126446884D01*
X151961441Y-126691325D01*
X151807381Y-126958162D01*
X151807376Y-126958173D01*
X151689464Y-127242837D01*
X151609717Y-127540457D01*
X151569501Y-127845930D01*
X151569500Y-127845946D01*
X151569500Y-128154053D01*
X151569501Y-128154069D01*
X151609717Y-128459542D01*
X151636456Y-128559331D01*
X151634793Y-128629181D01*
X151595630Y-128687043D01*
X151531402Y-128714547D01*
X151462500Y-128702960D01*
X151429000Y-128679105D01*
X151226819Y-128476924D01*
X151193334Y-128415601D01*
X151190500Y-128389243D01*
X151190500Y-126426048D01*
X151188065Y-126390140D01*
X151187683Y-126384505D01*
X151143037Y-126204979D01*
X151060842Y-126039247D01*
X150989906Y-125950999D01*
X150944940Y-125895059D01*
X150842785Y-125812945D01*
X150800753Y-125779158D01*
X150800751Y-125779157D01*
X150800750Y-125779156D01*
X150635023Y-125696964D01*
X150635021Y-125696963D01*
X150455497Y-125652317D01*
X150455501Y-125652317D01*
X150424339Y-125650204D01*
X150413954Y-125649500D01*
X147266046Y-125649500D01*
X147254177Y-125650304D01*
X147224500Y-125652317D01*
X147044978Y-125696963D01*
X147044976Y-125696964D01*
X146879249Y-125779156D01*
X146735059Y-125895059D01*
X146619156Y-126039249D01*
X146536964Y-126204976D01*
X146536963Y-126204978D01*
X146492317Y-126384500D01*
X146489500Y-126426048D01*
X146489500Y-129573951D01*
X146492317Y-129615499D01*
X146536963Y-129795021D01*
X146536964Y-129795023D01*
X146619156Y-129960750D01*
X146735059Y-130104940D01*
X146797808Y-130155379D01*
X146879247Y-130220842D01*
X147044979Y-130303037D01*
X147224501Y-130347682D01*
X147224502Y-130347682D01*
X147224505Y-130347683D01*
X147266046Y-130350500D01*
X149229243Y-130350500D01*
X149296282Y-130370185D01*
X149316924Y-130386819D01*
X150656770Y-131726665D01*
X150656784Y-131726680D01*
X150659895Y-131729791D01*
X150659896Y-131729792D01*
X150810208Y-131880104D01*
X150810211Y-131880106D01*
X150810215Y-131880110D01*
X150982179Y-132005048D01*
X150982181Y-132005049D01*
X150982184Y-132005051D01*
X151171588Y-132101557D01*
X151373757Y-132167246D01*
X151583714Y-132200501D01*
X151583715Y-132200501D01*
X151801398Y-132200501D01*
X151801422Y-132200500D01*
X163742942Y-132200500D01*
X163809981Y-132220185D01*
X163855736Y-132272989D01*
X163865680Y-132342147D01*
X163836655Y-132405703D01*
X163830623Y-132412181D01*
X163629624Y-132613181D01*
X163568301Y-132646666D01*
X163541943Y-132649500D01*
X144530758Y-132649500D01*
X144463719Y-132629815D01*
X144443077Y-132613181D01*
X140280403Y-128450507D01*
X140246918Y-128389184D01*
X140245145Y-128346645D01*
X140270500Y-128154060D01*
X140270500Y-127845940D01*
X140230282Y-127540456D01*
X140150535Y-127242836D01*
X140032622Y-126958170D01*
X140032620Y-126958167D01*
X140032618Y-126958162D01*
X139967254Y-126844949D01*
X139878562Y-126691330D01*
X139709053Y-126470422D01*
X139690992Y-126446884D01*
X139690986Y-126446877D01*
X139473122Y-126229013D01*
X139473115Y-126229007D01*
X139228674Y-126041441D01*
X139228673Y-126041440D01*
X139228670Y-126041438D01*
X139072025Y-125950999D01*
X138961837Y-125887381D01*
X138961826Y-125887376D01*
X138677162Y-125769464D01*
X138379542Y-125689717D01*
X138074069Y-125649501D01*
X138074066Y-125649500D01*
X138074060Y-125649500D01*
X137765940Y-125649500D01*
X137765934Y-125649500D01*
X137765930Y-125649501D01*
X137460457Y-125689717D01*
X137162837Y-125769464D01*
X136878173Y-125887376D01*
X136878162Y-125887381D01*
X136661653Y-126012384D01*
X136615122Y-126039249D01*
X136611325Y-126041441D01*
X136366884Y-126229007D01*
X136366877Y-126229013D01*
X136149013Y-126446877D01*
X136149007Y-126446884D01*
X135961441Y-126691325D01*
X135807381Y-126958162D01*
X135807376Y-126958173D01*
X135689464Y-127242837D01*
X135609717Y-127540457D01*
X135569501Y-127845930D01*
X135569500Y-127845946D01*
X135190500Y-127845946D01*
X135190500Y-127845940D01*
X135150282Y-127540456D01*
X135070535Y-127242836D01*
X134952622Y-126958170D01*
X134952620Y-126958167D01*
X134952618Y-126958162D01*
X134887254Y-126844949D01*
X134798562Y-126691330D01*
X134629053Y-126470422D01*
X134610992Y-126446884D01*
X134610986Y-126446877D01*
X134393122Y-126229013D01*
X134393113Y-126229005D01*
X134239013Y-126110759D01*
X134236765Y-126107681D01*
X134233297Y-126106097D01*
X134216319Y-126079678D01*
X134197811Y-126054331D01*
X134196985Y-126049594D01*
X134195523Y-126047319D01*
X134190500Y-126012384D01*
X134190500Y-125770757D01*
X134210185Y-125703718D01*
X134226819Y-125683076D01*
X142573609Y-117336286D01*
X152030104Y-107879792D01*
X152030106Y-107879788D01*
X152030109Y-107879786D01*
X152155048Y-107707820D01*
X152155047Y-107707820D01*
X152155051Y-107707816D01*
X152251557Y-107518412D01*
X152317246Y-107316243D01*
X152350500Y-107106287D01*
X152350500Y-106893714D01*
X152350500Y-97163153D01*
X152317246Y-96953197D01*
X152251557Y-96751028D01*
X152155051Y-96561624D01*
X152155049Y-96561621D01*
X152155048Y-96561619D01*
X152030109Y-96389653D01*
X151879791Y-96239335D01*
X150416418Y-94775962D01*
X148925003Y-93284548D01*
X148924995Y-93284539D01*
X148920664Y-93280208D01*
X148770352Y-93129896D01*
X148770348Y-93129893D01*
X148770344Y-93129889D01*
X148598380Y-93004951D01*
X148408974Y-92908444D01*
X148408973Y-92908443D01*
X148408972Y-92908443D01*
X148206803Y-92842754D01*
X148206801Y-92842753D01*
X148206800Y-92842753D01*
X148045517Y-92817208D01*
X147996847Y-92809500D01*
X144256287Y-92809500D01*
X144043713Y-92809500D01*
X143995042Y-92817208D01*
X143833760Y-92842753D01*
X143631585Y-92908444D01*
X143442179Y-93004951D01*
X143270213Y-93129890D01*
X141938738Y-94461365D01*
X141877415Y-94494850D01*
X141821415Y-94492068D01*
X141820978Y-94493891D01*
X141816240Y-94492753D01*
X141654957Y-94467208D01*
X141606287Y-94459500D01*
X141606286Y-94459500D01*
X138032733Y-94459500D01*
X137965694Y-94439815D01*
X137932415Y-94408386D01*
X137878931Y-94334771D01*
X137695229Y-94151069D01*
X137671971Y-94134171D01*
X137485054Y-93998368D01*
X137485053Y-93998367D01*
X137485051Y-93998366D01*
X137412764Y-93961534D01*
X137253576Y-93880422D01*
X137006493Y-93800139D01*
X136895734Y-93782597D01*
X136832599Y-93752668D01*
X136795668Y-93693356D01*
X136796666Y-93623493D01*
X136827449Y-93572445D01*
X140323076Y-90076819D01*
X140384399Y-90043334D01*
X140410757Y-90040500D01*
X141010515Y-90040500D01*
X141077554Y-90060185D01*
X141083393Y-90064177D01*
X141134949Y-90101634D01*
X141192471Y-90130943D01*
X141366423Y-90219577D01*
X141366425Y-90219577D01*
X141366428Y-90219579D01*
X141613507Y-90299860D01*
X141745706Y-90320797D01*
X141870098Y-90340500D01*
X141870103Y-90340500D01*
X142129902Y-90340500D01*
X142243298Y-90322539D01*
X142386493Y-90299860D01*
X142633572Y-90219579D01*
X142865051Y-90101634D01*
X142916599Y-90064181D01*
X142982406Y-90040702D01*
X142989485Y-90040500D01*
X146010515Y-90040500D01*
X146077554Y-90060185D01*
X146083393Y-90064177D01*
X146134949Y-90101634D01*
X146192471Y-90130943D01*
X146366423Y-90219577D01*
X146366425Y-90219577D01*
X146366428Y-90219579D01*
X146613507Y-90299860D01*
X146745706Y-90320797D01*
X146870098Y-90340500D01*
X146870103Y-90340500D01*
X147129902Y-90340500D01*
X147243298Y-90322539D01*
X147386493Y-90299860D01*
X147633572Y-90219579D01*
X147865051Y-90101634D01*
X148075229Y-89948931D01*
X148258931Y-89765229D01*
X148411634Y-89555051D01*
X148529579Y-89323572D01*
X148609860Y-89076493D01*
X148632539Y-88933298D01*
X148650500Y-88819902D01*
X148650500Y-88560097D01*
X148628947Y-88424021D01*
X148609860Y-88303507D01*
X148529579Y-88056428D01*
X148529577Y-88056425D01*
X148529577Y-88056423D01*
X148470378Y-87940241D01*
X148411634Y-87824949D01*
X148258931Y-87614771D01*
X148075229Y-87431069D01*
X147949195Y-87339500D01*
X147865054Y-87278368D01*
X147865053Y-87278367D01*
X147865051Y-87278366D01*
X147792764Y-87241534D01*
X147633576Y-87160422D01*
X147386493Y-87080140D01*
X147129902Y-87039500D01*
X147129897Y-87039500D01*
X146870103Y-87039500D01*
X146870098Y-87039500D01*
X146613506Y-87080140D01*
X146366423Y-87160422D01*
X146134948Y-87278366D01*
X146083401Y-87315818D01*
X146017594Y-87339298D01*
X146010515Y-87339500D01*
X142989485Y-87339500D01*
X142922446Y-87319815D01*
X142916599Y-87315818D01*
X142865051Y-87278366D01*
X142633576Y-87160422D01*
X142386493Y-87080140D01*
X142129902Y-87039500D01*
X142129897Y-87039500D01*
X141870103Y-87039500D01*
X141870098Y-87039500D01*
X141613506Y-87080140D01*
X141366423Y-87160422D01*
X141134948Y-87278366D01*
X141083401Y-87315818D01*
X141017594Y-87339298D01*
X141010515Y-87339500D01*
X139911422Y-87339500D01*
X139911398Y-87339499D01*
X139906287Y-87339499D01*
X139693714Y-87339499D01*
X139645041Y-87347208D01*
X139483760Y-87372753D01*
X139281585Y-87438444D01*
X139092179Y-87534951D01*
X138920213Y-87659890D01*
X138920209Y-87659894D01*
X138482181Y-88097923D01*
X138420858Y-88131408D01*
X138351166Y-88126424D01*
X138295233Y-88084552D01*
X138270816Y-88019088D01*
X138270500Y-88010242D01*
X138270500Y-87660097D01*
X138248947Y-87524021D01*
X138229860Y-87403507D01*
X138149579Y-87156428D01*
X138149577Y-87156425D01*
X138149577Y-87156423D01*
X138090001Y-87039500D01*
X138031634Y-86924949D01*
X137878931Y-86714771D01*
X137695229Y-86531069D01*
X137566810Y-86437767D01*
X137485054Y-86378368D01*
X137485053Y-86378367D01*
X137485051Y-86378366D01*
X137400818Y-86335447D01*
X137253576Y-86260422D01*
X137006493Y-86180140D01*
X136749902Y-86139500D01*
X136749897Y-86139500D01*
X136490103Y-86139500D01*
X136490098Y-86139500D01*
X136233506Y-86180140D01*
X135986423Y-86260422D01*
X135754945Y-86378368D01*
X135544774Y-86531066D01*
X135544768Y-86531071D01*
X135437681Y-86638159D01*
X135376358Y-86671644D01*
X135306666Y-86666660D01*
X135262319Y-86638159D01*
X135155231Y-86531071D01*
X135155225Y-86531066D01*
X134945054Y-86378368D01*
X134945053Y-86378367D01*
X134945051Y-86378366D01*
X134860818Y-86335447D01*
X134713576Y-86260422D01*
X134466493Y-86180140D01*
X134209902Y-86139500D01*
X134209897Y-86139500D01*
X133950103Y-86139500D01*
X133950098Y-86139500D01*
X133693506Y-86180140D01*
X133446423Y-86260422D01*
X133214945Y-86378368D01*
X133087385Y-86471046D01*
X133021579Y-86494526D01*
X132953525Y-86478701D01*
X132904830Y-86428595D01*
X132890500Y-86370728D01*
X132890500Y-86070757D01*
X132910185Y-86003718D01*
X132926819Y-85983076D01*
X141523077Y-77386819D01*
X141584400Y-77353334D01*
X141610758Y-77350500D01*
X144106286Y-77350500D01*
X144106287Y-77350500D01*
X144316243Y-77317246D01*
X144518412Y-77251557D01*
X144707816Y-77155051D01*
X144749018Y-77125116D01*
X144879786Y-77030109D01*
X144879788Y-77030106D01*
X144879792Y-77030104D01*
X145030104Y-76879792D01*
X145030106Y-76879788D01*
X145030109Y-76879786D01*
X145155048Y-76707820D01*
X145155047Y-76707820D01*
X145155051Y-76707816D01*
X145251557Y-76518412D01*
X145317246Y-76316243D01*
X145350500Y-76106287D01*
X145350500Y-64610757D01*
X145359144Y-64581316D01*
X145365668Y-64551330D01*
X145369422Y-64546314D01*
X145370185Y-64543718D01*
X145386819Y-64523076D01*
X145523076Y-64386819D01*
X145584399Y-64353334D01*
X145610757Y-64350500D01*
X148658683Y-64350500D01*
X148725722Y-64370185D01*
X148746364Y-64386819D01*
X154546210Y-70186665D01*
X154546224Y-70186680D01*
X154549335Y-70189791D01*
X154549336Y-70189792D01*
X154699648Y-70340104D01*
X154699651Y-70340106D01*
X154699655Y-70340110D01*
X154871619Y-70465048D01*
X154871621Y-70465049D01*
X154871624Y-70465051D01*
X155061028Y-70561557D01*
X155263197Y-70627246D01*
X155473154Y-70660501D01*
X155473155Y-70660501D01*
X155690838Y-70660501D01*
X155690862Y-70660500D01*
X157657800Y-70660500D01*
X157724839Y-70680185D01*
X157770594Y-70732989D01*
X157781800Y-70784500D01*
X157781800Y-78261757D01*
X157762115Y-78328796D01*
X157727304Y-78364446D01*
X157678436Y-78397521D01*
X157529821Y-78546137D01*
X157412018Y-78720191D01*
X157329287Y-78913386D01*
X157329284Y-78913397D01*
X157284612Y-79118749D01*
X157284612Y-79118755D01*
X157281800Y-79165962D01*
X157281800Y-80834038D01*
X157283784Y-80867360D01*
X157284612Y-80881250D01*
X157329284Y-81086602D01*
X157329287Y-81086613D01*
X157412018Y-81279808D01*
X157412020Y-81279811D01*
X157412021Y-81279813D01*
X157529823Y-81453865D01*
X157678435Y-81602477D01*
X157727304Y-81635552D01*
X157771788Y-81689429D01*
X157781800Y-81738242D01*
X157781800Y-86627553D01*
X157762115Y-86694592D01*
X157714096Y-86738037D01*
X157634947Y-86778366D01*
X157424774Y-86931066D01*
X157424768Y-86931071D01*
X157241071Y-87114768D01*
X157241066Y-87114774D01*
X157088368Y-87324945D01*
X156970422Y-87556423D01*
X156890140Y-87803506D01*
X156849500Y-88060097D01*
X156849500Y-88319902D01*
X156890140Y-88576493D01*
X156970422Y-88823576D01*
X157088368Y-89055054D01*
X157214336Y-89228434D01*
X157241069Y-89265229D01*
X157424771Y-89448931D01*
X157634949Y-89601634D01*
X157782445Y-89676787D01*
X157866423Y-89719577D01*
X157866425Y-89719577D01*
X157866428Y-89719579D01*
X158113507Y-89799860D01*
X158245706Y-89820797D01*
X158370098Y-89840500D01*
X158370103Y-89840500D01*
X158629902Y-89840500D01*
X158743298Y-89822539D01*
X158886493Y-89799860D01*
X159133572Y-89719579D01*
X159365051Y-89601634D01*
X159575229Y-89448931D01*
X159758931Y-89265229D01*
X159911634Y-89055051D01*
X160029579Y-88823572D01*
X160109860Y-88576493D01*
X160119827Y-88513555D01*
X160149755Y-88450425D01*
X160154609Y-88445286D01*
X160162404Y-88437492D01*
X160287351Y-88265516D01*
X160383857Y-88076112D01*
X160449546Y-87873943D01*
X160482800Y-87663987D01*
X160482800Y-87451414D01*
X160482800Y-81738242D01*
X160502485Y-81671203D01*
X160537295Y-81635552D01*
X160586165Y-81602477D01*
X160734777Y-81453865D01*
X160852579Y-81279813D01*
X160935313Y-81086612D01*
X160979988Y-80881245D01*
X160982800Y-80834038D01*
X160982800Y-79165962D01*
X160979988Y-79118755D01*
X160935313Y-78913388D01*
X160852579Y-78720187D01*
X160734777Y-78546135D01*
X160586165Y-78397523D01*
X160586164Y-78397522D01*
X160586163Y-78397521D01*
X160537296Y-78364446D01*
X160492811Y-78310568D01*
X160482800Y-78261757D01*
X160482800Y-70065150D01*
X160496315Y-70008855D01*
X160529579Y-69943572D01*
X160609860Y-69696493D01*
X160643897Y-69481588D01*
X160650500Y-69439902D01*
X160650500Y-69180097D01*
X160617207Y-68969896D01*
X160609860Y-68923507D01*
X160529579Y-68676428D01*
X160529577Y-68676425D01*
X160529577Y-68676423D01*
X160486787Y-68592445D01*
X160411634Y-68444949D01*
X160258931Y-68234771D01*
X160075229Y-68051069D01*
X159948917Y-67959298D01*
X159865054Y-67898368D01*
X159865053Y-67898367D01*
X159865051Y-67898366D01*
X159786523Y-67858354D01*
X159633576Y-67780422D01*
X159386493Y-67700140D01*
X159129902Y-67659500D01*
X159129897Y-67659500D01*
X158870103Y-67659500D01*
X158870098Y-67659500D01*
X158613506Y-67700140D01*
X158366423Y-67780422D01*
X158134948Y-67898366D01*
X158083401Y-67935818D01*
X158017594Y-67959298D01*
X158010515Y-67959500D01*
X156190197Y-67959500D01*
X156123158Y-67939815D01*
X156102516Y-67923181D01*
X150303884Y-62124549D01*
X150303875Y-62124539D01*
X150243836Y-62064500D01*
X150149232Y-61969896D01*
X150149228Y-61969893D01*
X150149224Y-61969889D01*
X149977260Y-61844951D01*
X149787854Y-61748444D01*
X149787853Y-61748443D01*
X149787852Y-61748443D01*
X149585683Y-61682754D01*
X149585681Y-61682753D01*
X149585680Y-61682753D01*
X149424397Y-61657208D01*
X149375727Y-61649500D01*
X149375726Y-61649500D01*
X148674022Y-61649500D01*
X148606983Y-61629815D01*
X148561228Y-61577011D01*
X148551284Y-61507853D01*
X148580309Y-61444297D01*
X148586341Y-61437819D01*
X148758931Y-61265229D01*
X148911634Y-61055051D01*
X149029579Y-60823572D01*
X149109860Y-60576493D01*
X149139901Y-60386819D01*
X149150500Y-60319902D01*
X149150500Y-60060097D01*
X149128947Y-59924021D01*
X149109860Y-59803507D01*
X149029579Y-59556428D01*
X149029577Y-59556425D01*
X149029577Y-59556423D01*
X148986787Y-59472445D01*
X148911634Y-59324949D01*
X148758931Y-59114771D01*
X148575229Y-58931069D01*
X148365051Y-58778366D01*
X148133572Y-58660421D01*
X147886493Y-58580140D01*
X147886491Y-58580139D01*
X147835101Y-58572000D01*
X147771967Y-58542070D01*
X147735036Y-58482759D01*
X147730500Y-58449527D01*
X147730500Y-48907614D01*
X147750185Y-48840575D01*
X147779014Y-48809238D01*
X147933117Y-48690991D01*
X148150991Y-48473117D01*
X148338562Y-48228670D01*
X148492622Y-47961830D01*
X148610535Y-47677164D01*
X148690282Y-47379544D01*
X148730500Y-47074060D01*
X148730500Y-46765940D01*
X148690282Y-46460456D01*
X148610535Y-46162836D01*
X148492622Y-45878170D01*
X148492620Y-45878167D01*
X148492618Y-45878162D01*
X148397098Y-45712718D01*
X148338562Y-45611330D01*
X148207238Y-45440185D01*
X148150992Y-45366884D01*
X148150986Y-45366877D01*
X147933122Y-45149013D01*
X147933115Y-45149007D01*
X147688674Y-44961441D01*
X147688673Y-44961440D01*
X147688670Y-44961438D01*
X147582280Y-44900014D01*
X147421837Y-44807381D01*
X147421826Y-44807376D01*
X147137162Y-44689464D01*
X146839542Y-44609717D01*
X146534069Y-44569501D01*
X146534066Y-44569500D01*
X146534060Y-44569500D01*
X146225940Y-44569500D01*
X146225934Y-44569500D01*
X146225930Y-44569501D01*
X145920457Y-44609717D01*
X145622837Y-44689464D01*
X145338173Y-44807376D01*
X145338162Y-44807381D01*
X145088772Y-44951367D01*
X145075122Y-44959249D01*
X145071325Y-44961441D01*
X144826884Y-45149007D01*
X144826877Y-45149013D01*
X144609013Y-45366877D01*
X144609007Y-45366884D01*
X144421441Y-45611325D01*
X144267381Y-45878162D01*
X144267376Y-45878173D01*
X144149464Y-46162837D01*
X144069717Y-46460457D01*
X144029501Y-46765930D01*
X144029500Y-46765940D01*
X144029500Y-47074053D01*
X144029501Y-47074069D01*
X144069717Y-47379542D01*
X144149464Y-47677162D01*
X144267376Y-47961826D01*
X144267381Y-47961837D01*
X144360014Y-48122280D01*
X144421438Y-48228670D01*
X144421440Y-48228673D01*
X144421441Y-48228674D01*
X144609007Y-48473115D01*
X144609013Y-48473122D01*
X144826877Y-48690986D01*
X144826884Y-48690992D01*
X144980986Y-48809238D01*
X145022189Y-48865666D01*
X145029500Y-48907614D01*
X145029500Y-59176286D01*
X145062753Y-59386239D01*
X145128444Y-59588414D01*
X145224951Y-59777820D01*
X145349889Y-59949784D01*
X145349893Y-59949788D01*
X145349896Y-59949792D01*
X145460201Y-60060097D01*
X145504538Y-60104434D01*
X145504549Y-60104444D01*
X145845379Y-60445275D01*
X145878864Y-60506598D01*
X145880171Y-60513556D01*
X145890139Y-60576491D01*
X145970422Y-60823574D01*
X146088368Y-61055054D01*
X146241066Y-61265225D01*
X146241071Y-61265231D01*
X146413659Y-61437819D01*
X146447144Y-61499142D01*
X146442160Y-61568834D01*
X146400288Y-61624767D01*
X146334824Y-61649184D01*
X146325978Y-61649500D01*
X145111422Y-61649500D01*
X145111398Y-61649499D01*
X145106287Y-61649499D01*
X144893714Y-61649499D01*
X144845041Y-61657208D01*
X144683760Y-61682753D01*
X144481585Y-61748444D01*
X144292179Y-61844951D01*
X144120213Y-61969890D01*
X142969894Y-63120209D01*
X142969890Y-63120214D01*
X142874818Y-63251071D01*
X142819488Y-63293737D01*
X142749875Y-63299716D01*
X142688080Y-63267111D01*
X142653723Y-63206272D01*
X142650500Y-63178186D01*
X142650500Y-49394500D01*
X142670185Y-49327461D01*
X142722989Y-49281706D01*
X142774500Y-49270500D01*
X142873952Y-49270500D01*
X142873954Y-49270500D01*
X142915495Y-49267683D01*
X143095021Y-49223037D01*
X143260753Y-49140842D01*
X143404940Y-49024940D01*
X143520842Y-48880753D01*
X143603037Y-48715021D01*
X143647683Y-48535495D01*
X143650500Y-48493954D01*
X143650500Y-45346046D01*
X143647683Y-45304505D01*
X143603037Y-45124979D01*
X143520842Y-44959247D01*
X143470945Y-44897173D01*
X143404940Y-44815059D01*
X143302785Y-44732945D01*
X143260753Y-44699158D01*
X143260751Y-44699157D01*
X143260750Y-44699156D01*
X143095023Y-44616964D01*
X143095021Y-44616963D01*
X142915497Y-44572317D01*
X142915501Y-44572317D01*
X142884339Y-44570204D01*
X142873954Y-44569500D01*
X139726046Y-44569500D01*
X139714177Y-44570304D01*
X139684500Y-44572317D01*
X139504978Y-44616963D01*
X139504976Y-44616964D01*
X139339249Y-44699156D01*
X139195059Y-44815059D01*
X139079156Y-44959249D01*
X138996964Y-45124976D01*
X138996963Y-45124978D01*
X138952317Y-45304500D01*
X138952317Y-45304505D01*
X138949500Y-45346046D01*
X138949500Y-48493954D01*
X138950018Y-48501588D01*
X138952317Y-48535499D01*
X138996963Y-48715021D01*
X138996964Y-48715023D01*
X139079156Y-48880750D01*
X139195059Y-49024940D01*
X139277173Y-49090945D01*
X139339247Y-49140842D01*
X139504979Y-49223037D01*
X139684501Y-49267682D01*
X139684502Y-49267682D01*
X139684505Y-49267683D01*
X139726046Y-49270500D01*
X139825500Y-49270500D01*
X139892539Y-49290185D01*
X139938294Y-49342989D01*
X139949500Y-49394500D01*
X139949500Y-71859113D01*
X139929815Y-71926152D01*
X139925818Y-71931998D01*
X139778368Y-72134945D01*
X139660422Y-72366423D01*
X139580140Y-72613506D01*
X139539500Y-72870097D01*
X139539500Y-73129902D01*
X139580140Y-73386493D01*
X139660422Y-73633576D01*
X139698641Y-73708583D01*
X139770442Y-73849500D01*
X139778368Y-73865054D01*
X139854922Y-73970421D01*
X139931069Y-74075229D01*
X140114771Y-74258931D01*
X140324949Y-74411634D01*
X140522840Y-74512465D01*
X140573635Y-74560439D01*
X140590430Y-74628260D01*
X140567893Y-74694395D01*
X140513178Y-74737846D01*
X140504866Y-74740879D01*
X140481584Y-74748444D01*
X140292179Y-74844951D01*
X140120213Y-74969890D01*
X130509890Y-84580213D01*
X130384951Y-84752179D01*
X130288444Y-84941585D01*
X130222753Y-85143760D01*
X130189500Y-85353713D01*
X130189500Y-86800515D01*
X130169815Y-86867554D01*
X130165818Y-86873401D01*
X130128366Y-86924948D01*
X130010422Y-87156423D01*
X129930140Y-87403506D01*
X129889500Y-87660097D01*
X129889500Y-88719902D01*
X129930140Y-88976493D01*
X130010422Y-89223576D01*
X130075704Y-89351697D01*
X130125246Y-89448928D01*
X130128368Y-89455054D01*
X130279808Y-89663493D01*
X130281069Y-89665229D01*
X130464771Y-89848931D01*
X130674949Y-90001634D01*
X130797706Y-90064182D01*
X130906423Y-90119577D01*
X130906425Y-90119577D01*
X130906428Y-90119579D01*
X131153507Y-90199860D01*
X131280176Y-90219922D01*
X131410098Y-90240500D01*
X131410103Y-90240500D01*
X131669902Y-90240500D01*
X131783298Y-90222539D01*
X131926493Y-90199860D01*
X132173572Y-90119579D01*
X132405051Y-90001634D01*
X132532617Y-89908951D01*
X132544475Y-89904720D01*
X132553989Y-89896477D01*
X132576753Y-89893203D01*
X132598420Y-89885473D01*
X132610684Y-89888324D01*
X132623147Y-89886533D01*
X132644070Y-89896088D01*
X132666474Y-89901298D01*
X132675248Y-89910327D01*
X132686703Y-89915558D01*
X132699140Y-89934910D01*
X132715169Y-89951404D01*
X132718573Y-89965149D01*
X132724477Y-89974336D01*
X132729500Y-90009271D01*
X132729500Y-90130943D01*
X132709815Y-90197982D01*
X132693181Y-90218624D01*
X131639381Y-91272424D01*
X131578058Y-91305909D01*
X131508366Y-91300925D01*
X131464019Y-91272424D01*
X130057844Y-89866249D01*
X130057835Y-89866239D01*
X129991455Y-89799859D01*
X129903192Y-89711596D01*
X129903188Y-89711593D01*
X129903184Y-89711589D01*
X129731220Y-89586651D01*
X129541814Y-89490144D01*
X129541813Y-89490143D01*
X129541812Y-89490143D01*
X129339643Y-89424454D01*
X129339641Y-89424453D01*
X129339640Y-89424453D01*
X129178357Y-89398908D01*
X129129687Y-89391200D01*
X129129686Y-89391200D01*
X128105724Y-89391200D01*
X128038685Y-89371515D01*
X127992930Y-89318711D01*
X127982986Y-89249553D01*
X127988779Y-89228434D01*
X127988073Y-89228205D01*
X127989577Y-89223575D01*
X127989579Y-89223572D01*
X128069860Y-88976493D01*
X128094662Y-88819897D01*
X128110500Y-88719902D01*
X128110500Y-87660097D01*
X128088947Y-87524021D01*
X128069860Y-87403507D01*
X127989579Y-87156428D01*
X127989577Y-87156425D01*
X127989577Y-87156423D01*
X127874752Y-86931069D01*
X127871634Y-86924949D01*
X127834181Y-86873400D01*
X127810702Y-86807594D01*
X127810500Y-86800515D01*
X127810500Y-80474500D01*
X127830185Y-80407461D01*
X127882989Y-80361706D01*
X127934500Y-80350500D01*
X131106286Y-80350500D01*
X131106287Y-80350500D01*
X131316243Y-80317246D01*
X131518412Y-80251557D01*
X131707816Y-80155051D01*
X131774934Y-80106287D01*
X131879792Y-80030104D01*
X132030104Y-79879792D01*
X132030105Y-79879790D01*
X132037165Y-79872730D01*
X132037171Y-79872723D01*
X136872723Y-75037171D01*
X136872730Y-75037165D01*
X136879790Y-75030105D01*
X136879792Y-75030104D01*
X137030104Y-74879792D01*
X137030106Y-74879788D01*
X137030109Y-74879786D01*
X137155048Y-74707820D01*
X137155047Y-74707820D01*
X137155051Y-74707816D01*
X137251557Y-74518412D01*
X137317246Y-74316243D01*
X137322940Y-74280291D01*
X137350501Y-74106287D01*
X137350501Y-73893713D01*
X137350501Y-73889312D01*
X137350500Y-73889297D01*
X137350500Y-65893713D01*
X137321057Y-65707820D01*
X137317246Y-65683757D01*
X137251557Y-65481588D01*
X137155051Y-65292184D01*
X137155049Y-65292181D01*
X137155048Y-65292179D01*
X137030109Y-65120213D01*
X136879786Y-64969890D01*
X136707820Y-64844951D01*
X136518414Y-64748444D01*
X136518413Y-64748443D01*
X136518412Y-64748443D01*
X136316243Y-64682754D01*
X136316241Y-64682753D01*
X136316240Y-64682753D01*
X136154957Y-64657208D01*
X136106287Y-64649500D01*
X136106286Y-64649500D01*
X124174022Y-64649500D01*
X124106983Y-64629815D01*
X124061228Y-64577011D01*
X124051284Y-64507853D01*
X124080309Y-64444297D01*
X124086341Y-64437819D01*
X124170826Y-64353334D01*
X124258931Y-64265229D01*
X124411634Y-64055051D01*
X124529579Y-63823572D01*
X124609860Y-63576493D01*
X124632660Y-63432534D01*
X124650500Y-63319902D01*
X124650500Y-63060097D01*
X124626130Y-62906234D01*
X124609860Y-62803507D01*
X124529579Y-62556428D01*
X124529577Y-62556425D01*
X124529577Y-62556423D01*
X124441471Y-62383508D01*
X124411634Y-62324949D01*
X124258931Y-62114771D01*
X124075229Y-61931069D01*
X123922101Y-61819815D01*
X123865054Y-61778368D01*
X123865053Y-61778367D01*
X123865051Y-61778366D01*
X123792764Y-61741534D01*
X123633576Y-61660422D01*
X123386493Y-61580140D01*
X123129902Y-61539500D01*
X123129897Y-61539500D01*
X122870103Y-61539500D01*
X122870098Y-61539500D01*
X122613506Y-61580140D01*
X122366423Y-61660422D01*
X122134948Y-61778366D01*
X122083401Y-61815818D01*
X122017594Y-61839298D01*
X122010515Y-61839500D01*
X117989485Y-61839500D01*
X117922446Y-61819815D01*
X117916599Y-61815818D01*
X117865051Y-61778366D01*
X117633574Y-61660422D01*
X117633573Y-61660421D01*
X117633572Y-61660421D01*
X117386493Y-61580140D01*
X117386491Y-61580139D01*
X117323556Y-61570171D01*
X117260421Y-61540241D01*
X117255274Y-61535379D01*
X113844444Y-58124549D01*
X113844435Y-58124539D01*
X113840104Y-58120208D01*
X113689792Y-57969896D01*
X113689788Y-57969893D01*
X113689784Y-57969889D01*
X113517820Y-57844951D01*
X113328414Y-57748444D01*
X113328413Y-57748443D01*
X113328412Y-57748443D01*
X113126243Y-57682754D01*
X113126241Y-57682753D01*
X113126240Y-57682753D01*
X112964957Y-57657208D01*
X112916287Y-57649500D01*
X112916286Y-57649500D01*
X110111422Y-57649500D01*
X110111398Y-57649499D01*
X110106287Y-57649499D01*
X109893714Y-57649499D01*
X109845041Y-57657208D01*
X109683760Y-57682753D01*
X109481585Y-57748444D01*
X109292179Y-57844951D01*
X109120213Y-57969890D01*
X105969890Y-61120213D01*
X105844951Y-61292179D01*
X105748444Y-61481585D01*
X105682753Y-61683760D01*
X105649500Y-61893713D01*
X105649500Y-65106286D01*
X105679136Y-65293405D01*
X105682754Y-65316243D01*
X105733824Y-65473421D01*
X105748444Y-65518414D01*
X105844951Y-65707820D01*
X105969889Y-65879784D01*
X105969893Y-65879788D01*
X105969896Y-65879792D01*
X106120208Y-66030104D01*
X106124538Y-66034434D01*
X106124549Y-66034444D01*
X108966770Y-68876665D01*
X108966784Y-68876680D01*
X108969895Y-68879791D01*
X108969896Y-68879792D01*
X109120208Y-69030104D01*
X109252277Y-69126057D01*
X109252278Y-69126058D01*
X109292179Y-69155048D01*
X109292181Y-69155049D01*
X109292184Y-69155051D01*
X109481588Y-69251557D01*
X109683757Y-69317246D01*
X109893714Y-69350501D01*
X109893715Y-69350501D01*
X110111398Y-69350501D01*
X110111422Y-69350500D01*
X111325978Y-69350500D01*
X111393017Y-69370185D01*
X111438772Y-69422989D01*
X111448716Y-69492147D01*
X111419691Y-69555703D01*
X111413659Y-69562181D01*
X111241071Y-69734768D01*
X111241066Y-69734774D01*
X111088368Y-69944945D01*
X110970422Y-70176425D01*
X110890139Y-70423508D01*
X110880171Y-70486441D01*
X110871054Y-70505670D01*
X110866531Y-70526466D01*
X110851979Y-70545905D01*
X110850240Y-70549575D01*
X110845381Y-70554721D01*
X110786924Y-70613180D01*
X110725601Y-70646666D01*
X110699241Y-70649500D01*
X105100708Y-70649500D01*
X105033669Y-70629815D01*
X105013031Y-70613185D01*
X104854890Y-70455044D01*
X104854889Y-70455043D01*
X104854887Y-70455041D01*
X104641645Y-70291416D01*
X104641644Y-70291415D01*
X104641641Y-70291413D01*
X104548832Y-70237830D01*
X104408866Y-70157019D01*
X104408850Y-70157011D01*
X104160524Y-70054152D01*
X104030708Y-70019368D01*
X103900891Y-69984584D01*
X103900885Y-69984583D01*
X103900880Y-69984582D01*
X103634398Y-69949500D01*
X103634397Y-69949500D01*
X103365603Y-69949500D01*
X103365602Y-69949500D01*
X103099119Y-69984582D01*
X103099112Y-69984583D01*
X103099109Y-69984584D01*
X103044239Y-69999286D01*
X102839475Y-70054152D01*
X102591149Y-70157011D01*
X102591133Y-70157019D01*
X102358354Y-70291416D01*
X102145111Y-70455042D01*
X102145104Y-70455048D01*
X101955048Y-70645104D01*
X101955042Y-70645111D01*
X101791416Y-70858354D01*
X101657019Y-71091133D01*
X101657011Y-71091149D01*
X101554152Y-71339475D01*
X101484585Y-71599106D01*
X101484582Y-71599119D01*
X101449500Y-71865602D01*
X101449500Y-72134397D01*
X101484582Y-72400880D01*
X101484583Y-72400885D01*
X101484584Y-72400891D01*
X101500556Y-72460500D01*
X101554152Y-72660524D01*
X101657011Y-72908850D01*
X101657019Y-72908866D01*
X101727016Y-73030103D01*
X101791413Y-73141641D01*
X101791415Y-73141644D01*
X101791416Y-73141645D01*
X101955042Y-73354888D01*
X101955048Y-73354895D01*
X102145104Y-73544951D01*
X102145111Y-73544957D01*
X102260597Y-73633572D01*
X102358359Y-73708587D01*
X102507968Y-73794964D01*
X102591133Y-73842980D01*
X102591149Y-73842988D01*
X102746008Y-73907132D01*
X102839474Y-73945847D01*
X103099109Y-74015416D01*
X103287319Y-74040193D01*
X103365602Y-74050500D01*
X103365603Y-74050500D01*
X103634398Y-74050500D01*
X103694905Y-74042534D01*
X103900891Y-74015416D01*
X104160526Y-73945847D01*
X104393128Y-73849500D01*
X104408850Y-73842988D01*
X104408853Y-73842986D01*
X104408859Y-73842984D01*
X104641641Y-73708587D01*
X104854890Y-73544956D01*
X105013028Y-73386817D01*
X105074350Y-73353334D01*
X105100708Y-73350500D01*
X111416286Y-73350500D01*
X111416287Y-73350500D01*
X111626243Y-73317246D01*
X111828412Y-73251557D01*
X112017816Y-73155051D01*
X112057467Y-73126243D01*
X112189792Y-73030104D01*
X112340104Y-72879792D01*
X112340105Y-72879790D01*
X112347165Y-72872730D01*
X112347170Y-72872723D01*
X112755277Y-72464617D01*
X112816598Y-72431134D01*
X112823516Y-72429834D01*
X112886493Y-72419860D01*
X113133572Y-72339579D01*
X113365051Y-72221634D01*
X113416599Y-72184181D01*
X113482406Y-72160702D01*
X113489485Y-72160500D01*
X116010515Y-72160500D01*
X116077554Y-72180185D01*
X116083393Y-72184177D01*
X116134949Y-72221634D01*
X116200500Y-72255034D01*
X116366423Y-72339577D01*
X116366425Y-72339577D01*
X116366428Y-72339579D01*
X116613507Y-72419860D01*
X116745706Y-72440797D01*
X116870098Y-72460500D01*
X116870103Y-72460500D01*
X117129902Y-72460500D01*
X117386493Y-72419860D01*
X117390011Y-72418717D01*
X117633572Y-72339579D01*
X117633579Y-72339575D01*
X117637181Y-72338405D01*
X117707022Y-72336410D01*
X117766855Y-72372490D01*
X117797684Y-72435190D01*
X117799500Y-72456336D01*
X117799500Y-76440242D01*
X117779815Y-76507281D01*
X117727011Y-76553036D01*
X117657853Y-76562980D01*
X117594297Y-76533955D01*
X117587819Y-76527923D01*
X116184444Y-75124549D01*
X116184435Y-75124539D01*
X116173396Y-75113500D01*
X116029792Y-74969896D01*
X116029788Y-74969893D01*
X116029784Y-74969889D01*
X115857820Y-74844951D01*
X115668414Y-74748444D01*
X115668413Y-74748443D01*
X115668412Y-74748443D01*
X115466243Y-74682754D01*
X115466241Y-74682753D01*
X115466240Y-74682753D01*
X115288607Y-74654619D01*
X115256287Y-74649500D01*
X95106286Y-74649500D01*
X94893713Y-74649500D01*
X94861393Y-74654619D01*
X94683760Y-74682753D01*
X94683757Y-74682754D01*
X94504868Y-74740879D01*
X94481585Y-74748444D01*
X94292179Y-74844951D01*
X94120213Y-74969890D01*
X87969890Y-81120213D01*
X87844951Y-81292179D01*
X87748444Y-81481585D01*
X87682753Y-81683760D01*
X87673676Y-81741071D01*
X87649500Y-81893713D01*
X85500500Y-81893713D01*
X85500500Y-56865602D01*
X101449500Y-56865602D01*
X101449500Y-57134397D01*
X101484582Y-57400880D01*
X101484583Y-57400885D01*
X101484584Y-57400891D01*
X101484585Y-57400893D01*
X101554152Y-57660524D01*
X101657011Y-57908850D01*
X101657019Y-57908866D01*
X101737830Y-58048832D01*
X101791413Y-58141641D01*
X101791415Y-58141644D01*
X101791416Y-58141645D01*
X101955042Y-58354888D01*
X101955048Y-58354895D01*
X102145104Y-58544951D01*
X102145111Y-58544957D01*
X102190963Y-58580140D01*
X102358359Y-58708587D01*
X102479220Y-58778366D01*
X102591133Y-58842980D01*
X102591149Y-58842988D01*
X102746008Y-58907132D01*
X102839474Y-58945847D01*
X103099109Y-59015416D01*
X103287319Y-59040193D01*
X103365602Y-59050500D01*
X103365603Y-59050500D01*
X103634398Y-59050500D01*
X103694905Y-59042534D01*
X103900891Y-59015416D01*
X104160526Y-58945847D01*
X104347457Y-58868417D01*
X104408850Y-58842988D01*
X104408853Y-58842986D01*
X104408859Y-58842984D01*
X104641641Y-58708587D01*
X104854890Y-58544956D01*
X105044956Y-58354890D01*
X105208587Y-58141641D01*
X105342984Y-57908859D01*
X105445847Y-57660526D01*
X105515416Y-57400891D01*
X105550500Y-57134397D01*
X105550500Y-56910756D01*
X105570185Y-56843717D01*
X105586819Y-56823075D01*
X107749370Y-54660524D01*
X110332723Y-52077171D01*
X110332730Y-52077165D01*
X110339790Y-52070105D01*
X110339792Y-52070104D01*
X110490104Y-51919792D01*
X110490106Y-51919788D01*
X110490109Y-51919786D01*
X110615048Y-51747820D01*
X110615047Y-51747820D01*
X110615051Y-51747816D01*
X110711557Y-51558412D01*
X110777246Y-51356243D01*
X110810501Y-51146287D01*
X110810501Y-50933713D01*
X110810501Y-50929312D01*
X110810500Y-50929297D01*
X110810500Y-49394500D01*
X110830185Y-49327461D01*
X110882989Y-49281706D01*
X110934500Y-49270500D01*
X111033952Y-49270500D01*
X111033954Y-49270500D01*
X111075495Y-49267683D01*
X111255021Y-49223037D01*
X111420753Y-49140842D01*
X111564940Y-49024940D01*
X111680842Y-48880753D01*
X111763037Y-48715021D01*
X111807683Y-48535495D01*
X111810500Y-48493954D01*
X111810500Y-45346046D01*
X120109500Y-45346046D01*
X120109500Y-48493954D01*
X120110018Y-48501588D01*
X120112317Y-48535499D01*
X120156963Y-48715021D01*
X120156964Y-48715023D01*
X120239156Y-48880750D01*
X120355059Y-49024940D01*
X120437173Y-49090945D01*
X120499247Y-49140842D01*
X120664979Y-49223037D01*
X120844501Y-49267682D01*
X120844502Y-49267682D01*
X120844505Y-49267683D01*
X120886046Y-49270500D01*
X120886048Y-49270500D01*
X124033952Y-49270500D01*
X124033954Y-49270500D01*
X124075495Y-49267683D01*
X124255021Y-49223037D01*
X124420753Y-49140842D01*
X124564940Y-49024940D01*
X124680842Y-48880753D01*
X124763037Y-48715021D01*
X124807683Y-48535495D01*
X124810500Y-48493954D01*
X124810500Y-48394500D01*
X124830185Y-48327461D01*
X124882989Y-48281706D01*
X124934500Y-48270500D01*
X131025500Y-48270500D01*
X131092539Y-48290185D01*
X131138294Y-48342989D01*
X131149500Y-48394500D01*
X131149500Y-52399291D01*
X131129815Y-52466330D01*
X131113181Y-52486972D01*
X130955048Y-52645104D01*
X130955042Y-52645111D01*
X130791416Y-52858354D01*
X130657019Y-53091133D01*
X130657011Y-53091149D01*
X130554152Y-53339475D01*
X130484585Y-53599106D01*
X130484582Y-53599119D01*
X130449500Y-53865602D01*
X130449500Y-54134397D01*
X130484582Y-54400880D01*
X130484583Y-54400885D01*
X130484584Y-54400891D01*
X130484585Y-54400893D01*
X130554152Y-54660524D01*
X130657011Y-54908850D01*
X130657019Y-54908866D01*
X130737830Y-55048832D01*
X130791413Y-55141641D01*
X130791415Y-55141644D01*
X130791416Y-55141645D01*
X130955042Y-55354888D01*
X130955048Y-55354895D01*
X131145104Y-55544951D01*
X131145110Y-55544956D01*
X131358359Y-55708587D01*
X131507968Y-55794964D01*
X131591133Y-55842980D01*
X131591149Y-55842988D01*
X131746008Y-55907132D01*
X131839474Y-55945847D01*
X132099109Y-56015416D01*
X132287319Y-56040193D01*
X132365602Y-56050500D01*
X132365603Y-56050500D01*
X132634398Y-56050500D01*
X132694905Y-56042534D01*
X132900891Y-56015416D01*
X133160526Y-55945847D01*
X133371753Y-55858354D01*
X133408850Y-55842988D01*
X133408853Y-55842986D01*
X133408859Y-55842984D01*
X133641641Y-55708587D01*
X133854890Y-55544956D01*
X134044956Y-55354890D01*
X134208587Y-55141641D01*
X134342984Y-54908859D01*
X134445847Y-54660526D01*
X134515416Y-54400891D01*
X134550500Y-54134397D01*
X134550500Y-53865603D01*
X134515416Y-53599109D01*
X134445847Y-53339474D01*
X134407132Y-53246008D01*
X134342988Y-53091149D01*
X134342980Y-53091133D01*
X134294964Y-53007968D01*
X134208587Y-52858359D01*
X134044956Y-52645110D01*
X134044951Y-52645104D01*
X133886819Y-52486972D01*
X133853334Y-52425649D01*
X133850500Y-52399291D01*
X133850500Y-47611422D01*
X133850501Y-47611397D01*
X133850501Y-47393714D01*
X133845257Y-47360605D01*
X133817246Y-47183757D01*
X133751557Y-46981588D01*
X133655051Y-46792184D01*
X133655049Y-46792181D01*
X133655048Y-46792179D01*
X133635985Y-46765940D01*
X133530110Y-46620215D01*
X133530106Y-46620211D01*
X133530104Y-46620208D01*
X133379792Y-46469896D01*
X133379791Y-46469895D01*
X133376680Y-46466784D01*
X133376665Y-46466770D01*
X132954444Y-46044549D01*
X132954435Y-46044539D01*
X132950104Y-46040208D01*
X132799792Y-45889896D01*
X132799788Y-45889893D01*
X132799784Y-45889889D01*
X132627820Y-45764951D01*
X132438414Y-45668444D01*
X132438413Y-45668443D01*
X132438412Y-45668443D01*
X132236243Y-45602754D01*
X132236241Y-45602753D01*
X132236240Y-45602753D01*
X132074957Y-45577208D01*
X132026287Y-45569500D01*
X132026286Y-45569500D01*
X124934500Y-45569500D01*
X124867461Y-45549815D01*
X124821706Y-45497011D01*
X124810500Y-45445500D01*
X124810500Y-45346048D01*
X124810500Y-45346046D01*
X124807683Y-45304505D01*
X124763037Y-45124979D01*
X124680842Y-44959247D01*
X124630945Y-44897173D01*
X124564940Y-44815059D01*
X124462785Y-44732945D01*
X124420753Y-44699158D01*
X124420751Y-44699157D01*
X124420750Y-44699156D01*
X124255023Y-44616964D01*
X124255021Y-44616963D01*
X124075497Y-44572317D01*
X124075501Y-44572317D01*
X124044339Y-44570204D01*
X124033954Y-44569500D01*
X120886046Y-44569500D01*
X120874177Y-44570304D01*
X120844500Y-44572317D01*
X120664978Y-44616963D01*
X120664976Y-44616964D01*
X120499249Y-44699156D01*
X120355059Y-44815059D01*
X120239156Y-44959249D01*
X120156964Y-45124976D01*
X120156963Y-45124978D01*
X120112317Y-45304500D01*
X120112317Y-45304505D01*
X120109500Y-45346046D01*
X111810500Y-45346046D01*
X111807683Y-45304505D01*
X111763037Y-45124979D01*
X111680842Y-44959247D01*
X111630945Y-44897173D01*
X111564940Y-44815059D01*
X111462785Y-44732945D01*
X111420753Y-44699158D01*
X111420751Y-44699157D01*
X111420750Y-44699156D01*
X111255023Y-44616964D01*
X111255021Y-44616963D01*
X111075497Y-44572317D01*
X111075501Y-44572317D01*
X111044339Y-44570204D01*
X111033954Y-44569500D01*
X107886046Y-44569500D01*
X107874177Y-44570304D01*
X107844500Y-44572317D01*
X107664978Y-44616963D01*
X107664976Y-44616964D01*
X107499249Y-44699156D01*
X107355059Y-44815059D01*
X107239156Y-44959249D01*
X107156964Y-45124976D01*
X107156963Y-45124978D01*
X107112317Y-45304500D01*
X107112317Y-45304505D01*
X107109500Y-45346046D01*
X107109500Y-48493954D01*
X107110018Y-48501588D01*
X107112317Y-48535499D01*
X107156963Y-48715021D01*
X107156964Y-48715023D01*
X107239156Y-48880750D01*
X107355059Y-49024940D01*
X107437173Y-49090945D01*
X107499247Y-49140842D01*
X107664979Y-49223037D01*
X107844501Y-49267682D01*
X107844502Y-49267682D01*
X107844505Y-49267683D01*
X107886046Y-49270500D01*
X107985500Y-49270500D01*
X108052539Y-49290185D01*
X108098294Y-49342989D01*
X108109500Y-49394500D01*
X108109500Y-50429242D01*
X108089815Y-50496281D01*
X108073181Y-50516923D01*
X103676923Y-54913181D01*
X103615600Y-54946666D01*
X103589242Y-54949500D01*
X103365602Y-54949500D01*
X103099119Y-54984582D01*
X103099112Y-54984583D01*
X103099109Y-54984584D01*
X103044239Y-54999286D01*
X102839475Y-55054152D01*
X102591149Y-55157011D01*
X102591133Y-55157019D01*
X102358354Y-55291416D01*
X102145111Y-55455042D01*
X102145104Y-55455048D01*
X101955048Y-55645104D01*
X101955042Y-55645111D01*
X101791416Y-55858354D01*
X101657019Y-56091133D01*
X101657011Y-56091149D01*
X101554152Y-56339475D01*
X101484585Y-56599106D01*
X101484582Y-56599119D01*
X101449500Y-56865602D01*
X85500500Y-56865602D01*
X85500500Y-41003051D01*
X85500649Y-40996967D01*
X85517052Y-40663072D01*
X85518245Y-40650962D01*
X85566849Y-40323296D01*
X85569218Y-40311385D01*
X85649710Y-39990043D01*
X85653240Y-39978411D01*
X85764835Y-39666525D01*
X85769476Y-39655318D01*
X85911124Y-39355828D01*
X85916840Y-39345136D01*
X86087145Y-39060998D01*
X86093888Y-39050905D01*
X86291232Y-38784818D01*
X86298935Y-38775433D01*
X86521405Y-38529975D01*
X86529975Y-38521405D01*
X86775433Y-38298935D01*
X86784818Y-38291232D01*
X87050905Y-38093888D01*
X87060998Y-38087145D01*
X87345136Y-37916840D01*
X87355828Y-37911124D01*
X87655318Y-37769476D01*
X87666525Y-37764835D01*
X87978412Y-37653239D01*
X87990043Y-37649710D01*
X88311385Y-37569218D01*
X88323296Y-37566849D01*
X88650962Y-37518244D01*
X88663068Y-37517052D01*
X88996967Y-37500648D01*
X89003051Y-37500500D01*
X89065892Y-37500500D01*
X200934108Y-37500500D01*
X200996949Y-37500500D01*
X201003032Y-37500648D01*
G37*
%TD.AperFunction*%
%TD*%
M02*
