%TF.GenerationSoftware,KiCad,Pcbnew,10.0.4*%
%TF.CreationDate,2026-08-14T12:06:55+02:00*%
%TF.ProjectId,subxo,73756278-6f2e-46b6-9963-61645f706362,rev?*%
%TF.SameCoordinates,Original*%
%TF.FileFunction,Legend,Top*%
%TF.FilePolarity,Positive*%
%FSLAX46Y46*%
G04 Gerber Fmt 4.6, Leading zero omitted, Abs format (unit mm)*
G04 Created by KiCad (PCBNEW 10.0.4) date 2026-08-14 12:06:55*
%MOMM*%
%LPD*%
G01*
G04 APERTURE LIST*
%ADD10C,0.150000*%
%ADD11C,0.120000*%
G04 APERTURE END LIST*
D10*
X177554819Y-129261904D02*
X178364342Y-129261904D01*
X178364342Y-129261904D02*
X178459580Y-129214285D01*
X178459580Y-129214285D02*
X178507200Y-129166666D01*
X178507200Y-129166666D02*
X178554819Y-129071428D01*
X178554819Y-129071428D02*
X178554819Y-128880952D01*
X178554819Y-128880952D02*
X178507200Y-128785714D01*
X178507200Y-128785714D02*
X178459580Y-128738095D01*
X178459580Y-128738095D02*
X178364342Y-128690476D01*
X178364342Y-128690476D02*
X177554819Y-128690476D01*
X177650057Y-128261904D02*
X177602438Y-128214285D01*
X177602438Y-128214285D02*
X177554819Y-128119047D01*
X177554819Y-128119047D02*
X177554819Y-127880952D01*
X177554819Y-127880952D02*
X177602438Y-127785714D01*
X177602438Y-127785714D02*
X177650057Y-127738095D01*
X177650057Y-127738095D02*
X177745295Y-127690476D01*
X177745295Y-127690476D02*
X177840533Y-127690476D01*
X177840533Y-127690476D02*
X177983390Y-127738095D01*
X177983390Y-127738095D02*
X178554819Y-128309523D01*
X178554819Y-128309523D02*
X178554819Y-127690476D01*
X166029580Y-104050557D02*
X166077200Y-104098176D01*
X166077200Y-104098176D02*
X166124819Y-104241033D01*
X166124819Y-104241033D02*
X166124819Y-104336271D01*
X166124819Y-104336271D02*
X166077200Y-104479128D01*
X166077200Y-104479128D02*
X165981961Y-104574366D01*
X165981961Y-104574366D02*
X165886723Y-104621985D01*
X165886723Y-104621985D02*
X165696247Y-104669604D01*
X165696247Y-104669604D02*
X165553390Y-104669604D01*
X165553390Y-104669604D02*
X165362914Y-104621985D01*
X165362914Y-104621985D02*
X165267676Y-104574366D01*
X165267676Y-104574366D02*
X165172438Y-104479128D01*
X165172438Y-104479128D02*
X165124819Y-104336271D01*
X165124819Y-104336271D02*
X165124819Y-104241033D01*
X165124819Y-104241033D02*
X165172438Y-104098176D01*
X165172438Y-104098176D02*
X165220057Y-104050557D01*
X166124819Y-103098176D02*
X166124819Y-103669604D01*
X166124819Y-103383890D02*
X165124819Y-103383890D01*
X165124819Y-103383890D02*
X165267676Y-103479128D01*
X165267676Y-103479128D02*
X165362914Y-103574366D01*
X165362914Y-103574366D02*
X165410533Y-103669604D01*
X166124819Y-102145795D02*
X166124819Y-102717223D01*
X166124819Y-102431509D02*
X165124819Y-102431509D01*
X165124819Y-102431509D02*
X165267676Y-102526747D01*
X165267676Y-102526747D02*
X165362914Y-102621985D01*
X165362914Y-102621985D02*
X165410533Y-102717223D01*
X166664604Y-133609580D02*
X166616985Y-133657200D01*
X166616985Y-133657200D02*
X166474128Y-133704819D01*
X166474128Y-133704819D02*
X166378890Y-133704819D01*
X166378890Y-133704819D02*
X166236033Y-133657200D01*
X166236033Y-133657200D02*
X166140795Y-133561961D01*
X166140795Y-133561961D02*
X166093176Y-133466723D01*
X166093176Y-133466723D02*
X166045557Y-133276247D01*
X166045557Y-133276247D02*
X166045557Y-133133390D01*
X166045557Y-133133390D02*
X166093176Y-132942914D01*
X166093176Y-132942914D02*
X166140795Y-132847676D01*
X166140795Y-132847676D02*
X166236033Y-132752438D01*
X166236033Y-132752438D02*
X166378890Y-132704819D01*
X166378890Y-132704819D02*
X166474128Y-132704819D01*
X166474128Y-132704819D02*
X166616985Y-132752438D01*
X166616985Y-132752438D02*
X166664604Y-132800057D01*
X166855081Y-133800057D02*
X167616985Y-133800057D01*
X167997938Y-133704819D02*
X167902700Y-133657200D01*
X167902700Y-133657200D02*
X167855081Y-133609580D01*
X167855081Y-133609580D02*
X167807462Y-133514342D01*
X167807462Y-133514342D02*
X167807462Y-133228628D01*
X167807462Y-133228628D02*
X167855081Y-133133390D01*
X167855081Y-133133390D02*
X167902700Y-133085771D01*
X167902700Y-133085771D02*
X167997938Y-133038152D01*
X167997938Y-133038152D02*
X168140795Y-133038152D01*
X168140795Y-133038152D02*
X168236033Y-133085771D01*
X168236033Y-133085771D02*
X168283652Y-133133390D01*
X168283652Y-133133390D02*
X168331271Y-133228628D01*
X168331271Y-133228628D02*
X168331271Y-133514342D01*
X168331271Y-133514342D02*
X168283652Y-133609580D01*
X168283652Y-133609580D02*
X168236033Y-133657200D01*
X168236033Y-133657200D02*
X168140795Y-133704819D01*
X168140795Y-133704819D02*
X167997938Y-133704819D01*
X169188414Y-133038152D02*
X169188414Y-133704819D01*
X168759843Y-133038152D02*
X168759843Y-133561961D01*
X168759843Y-133561961D02*
X168807462Y-133657200D01*
X168807462Y-133657200D02*
X168902700Y-133704819D01*
X168902700Y-133704819D02*
X169045557Y-133704819D01*
X169045557Y-133704819D02*
X169140795Y-133657200D01*
X169140795Y-133657200D02*
X169188414Y-133609580D01*
X169521748Y-133038152D02*
X169902700Y-133038152D01*
X169664605Y-132704819D02*
X169664605Y-133561961D01*
X169664605Y-133561961D02*
X169712224Y-133657200D01*
X169712224Y-133657200D02*
X169807462Y-133704819D01*
X169807462Y-133704819D02*
X169902700Y-133704819D01*
X170759843Y-133704819D02*
X170188415Y-133704819D01*
X170474129Y-133704819D02*
X170474129Y-132704819D01*
X170474129Y-132704819D02*
X170378891Y-132847676D01*
X170378891Y-132847676D02*
X170283653Y-132942914D01*
X170283653Y-132942914D02*
X170188415Y-132990533D01*
X145084819Y-92666666D02*
X144608628Y-92999999D01*
X145084819Y-93238094D02*
X144084819Y-93238094D01*
X144084819Y-93238094D02*
X144084819Y-92857142D01*
X144084819Y-92857142D02*
X144132438Y-92761904D01*
X144132438Y-92761904D02*
X144180057Y-92714285D01*
X144180057Y-92714285D02*
X144275295Y-92666666D01*
X144275295Y-92666666D02*
X144418152Y-92666666D01*
X144418152Y-92666666D02*
X144513390Y-92714285D01*
X144513390Y-92714285D02*
X144561009Y-92761904D01*
X144561009Y-92761904D02*
X144608628Y-92857142D01*
X144608628Y-92857142D02*
X144608628Y-93238094D01*
X144084819Y-92333332D02*
X144084819Y-91714285D01*
X144084819Y-91714285D02*
X144465771Y-92047618D01*
X144465771Y-92047618D02*
X144465771Y-91904761D01*
X144465771Y-91904761D02*
X144513390Y-91809523D01*
X144513390Y-91809523D02*
X144561009Y-91761904D01*
X144561009Y-91761904D02*
X144656247Y-91714285D01*
X144656247Y-91714285D02*
X144894342Y-91714285D01*
X144894342Y-91714285D02*
X144989580Y-91761904D01*
X144989580Y-91761904D02*
X145037200Y-91809523D01*
X145037200Y-91809523D02*
X145084819Y-91904761D01*
X145084819Y-91904761D02*
X145084819Y-92190475D01*
X145084819Y-92190475D02*
X145037200Y-92285713D01*
X145037200Y-92285713D02*
X144989580Y-92333332D01*
X187109580Y-104010557D02*
X187157200Y-104058176D01*
X187157200Y-104058176D02*
X187204819Y-104201033D01*
X187204819Y-104201033D02*
X187204819Y-104296271D01*
X187204819Y-104296271D02*
X187157200Y-104439128D01*
X187157200Y-104439128D02*
X187061961Y-104534366D01*
X187061961Y-104534366D02*
X186966723Y-104581985D01*
X186966723Y-104581985D02*
X186776247Y-104629604D01*
X186776247Y-104629604D02*
X186633390Y-104629604D01*
X186633390Y-104629604D02*
X186442914Y-104581985D01*
X186442914Y-104581985D02*
X186347676Y-104534366D01*
X186347676Y-104534366D02*
X186252438Y-104439128D01*
X186252438Y-104439128D02*
X186204819Y-104296271D01*
X186204819Y-104296271D02*
X186204819Y-104201033D01*
X186204819Y-104201033D02*
X186252438Y-104058176D01*
X186252438Y-104058176D02*
X186300057Y-104010557D01*
X187204819Y-103058176D02*
X187204819Y-103629604D01*
X187204819Y-103343890D02*
X186204819Y-103343890D01*
X186204819Y-103343890D02*
X186347676Y-103439128D01*
X186347676Y-103439128D02*
X186442914Y-103534366D01*
X186442914Y-103534366D02*
X186490533Y-103629604D01*
X186204819Y-102439128D02*
X186204819Y-102343890D01*
X186204819Y-102343890D02*
X186252438Y-102248652D01*
X186252438Y-102248652D02*
X186300057Y-102201033D01*
X186300057Y-102201033D02*
X186395295Y-102153414D01*
X186395295Y-102153414D02*
X186585771Y-102105795D01*
X186585771Y-102105795D02*
X186823866Y-102105795D01*
X186823866Y-102105795D02*
X187014342Y-102153414D01*
X187014342Y-102153414D02*
X187109580Y-102201033D01*
X187109580Y-102201033D02*
X187157200Y-102248652D01*
X187157200Y-102248652D02*
X187204819Y-102343890D01*
X187204819Y-102343890D02*
X187204819Y-102439128D01*
X187204819Y-102439128D02*
X187157200Y-102534366D01*
X187157200Y-102534366D02*
X187109580Y-102581985D01*
X187109580Y-102581985D02*
X187014342Y-102629604D01*
X187014342Y-102629604D02*
X186823866Y-102677223D01*
X186823866Y-102677223D02*
X186585771Y-102677223D01*
X186585771Y-102677223D02*
X186395295Y-102629604D01*
X186395295Y-102629604D02*
X186300057Y-102581985D01*
X186300057Y-102581985D02*
X186252438Y-102534366D01*
X186252438Y-102534366D02*
X186204819Y-102439128D01*
X180357142Y-122359580D02*
X180309523Y-122407200D01*
X180309523Y-122407200D02*
X180166666Y-122454819D01*
X180166666Y-122454819D02*
X180071428Y-122454819D01*
X180071428Y-122454819D02*
X179928571Y-122407200D01*
X179928571Y-122407200D02*
X179833333Y-122311961D01*
X179833333Y-122311961D02*
X179785714Y-122216723D01*
X179785714Y-122216723D02*
X179738095Y-122026247D01*
X179738095Y-122026247D02*
X179738095Y-121883390D01*
X179738095Y-121883390D02*
X179785714Y-121692914D01*
X179785714Y-121692914D02*
X179833333Y-121597676D01*
X179833333Y-121597676D02*
X179928571Y-121502438D01*
X179928571Y-121502438D02*
X180071428Y-121454819D01*
X180071428Y-121454819D02*
X180166666Y-121454819D01*
X180166666Y-121454819D02*
X180309523Y-121502438D01*
X180309523Y-121502438D02*
X180357142Y-121550057D01*
X181309523Y-122454819D02*
X180738095Y-122454819D01*
X181023809Y-122454819D02*
X181023809Y-121454819D01*
X181023809Y-121454819D02*
X180928571Y-121597676D01*
X180928571Y-121597676D02*
X180833333Y-121692914D01*
X180833333Y-121692914D02*
X180738095Y-121740533D01*
X182166666Y-121788152D02*
X182166666Y-122454819D01*
X181928571Y-121407200D02*
X181690476Y-122121485D01*
X181690476Y-122121485D02*
X182309523Y-122121485D01*
X196824819Y-128166666D02*
X196348628Y-128499999D01*
X196824819Y-128738094D02*
X195824819Y-128738094D01*
X195824819Y-128738094D02*
X195824819Y-128357142D01*
X195824819Y-128357142D02*
X195872438Y-128261904D01*
X195872438Y-128261904D02*
X195920057Y-128214285D01*
X195920057Y-128214285D02*
X196015295Y-128166666D01*
X196015295Y-128166666D02*
X196158152Y-128166666D01*
X196158152Y-128166666D02*
X196253390Y-128214285D01*
X196253390Y-128214285D02*
X196301009Y-128261904D01*
X196301009Y-128261904D02*
X196348628Y-128357142D01*
X196348628Y-128357142D02*
X196348628Y-128738094D01*
X195824819Y-127833332D02*
X195824819Y-127166666D01*
X195824819Y-127166666D02*
X196824819Y-127595237D01*
X190166666Y-58299819D02*
X190166666Y-59014104D01*
X190166666Y-59014104D02*
X190119047Y-59156961D01*
X190119047Y-59156961D02*
X190023809Y-59252200D01*
X190023809Y-59252200D02*
X189880952Y-59299819D01*
X189880952Y-59299819D02*
X189785714Y-59299819D01*
X190642857Y-59299819D02*
X190642857Y-58299819D01*
X190642857Y-58299819D02*
X191023809Y-58299819D01*
X191023809Y-58299819D02*
X191119047Y-58347438D01*
X191119047Y-58347438D02*
X191166666Y-58395057D01*
X191166666Y-58395057D02*
X191214285Y-58490295D01*
X191214285Y-58490295D02*
X191214285Y-58633152D01*
X191214285Y-58633152D02*
X191166666Y-58728390D01*
X191166666Y-58728390D02*
X191119047Y-58776009D01*
X191119047Y-58776009D02*
X191023809Y-58823628D01*
X191023809Y-58823628D02*
X190642857Y-58823628D01*
X191547619Y-58299819D02*
X192166666Y-58299819D01*
X192166666Y-58299819D02*
X191833333Y-58680771D01*
X191833333Y-58680771D02*
X191976190Y-58680771D01*
X191976190Y-58680771D02*
X192071428Y-58728390D01*
X192071428Y-58728390D02*
X192119047Y-58776009D01*
X192119047Y-58776009D02*
X192166666Y-58871247D01*
X192166666Y-58871247D02*
X192166666Y-59109342D01*
X192166666Y-59109342D02*
X192119047Y-59204580D01*
X192119047Y-59204580D02*
X192071428Y-59252200D01*
X192071428Y-59252200D02*
X191976190Y-59299819D01*
X191976190Y-59299819D02*
X191690476Y-59299819D01*
X191690476Y-59299819D02*
X191595238Y-59252200D01*
X191595238Y-59252200D02*
X191547619Y-59204580D01*
X106586666Y-51454819D02*
X106586666Y-52169104D01*
X106586666Y-52169104D02*
X106539047Y-52311961D01*
X106539047Y-52311961D02*
X106443809Y-52407200D01*
X106443809Y-52407200D02*
X106300952Y-52454819D01*
X106300952Y-52454819D02*
X106205714Y-52454819D01*
X107586666Y-52454819D02*
X107015238Y-52454819D01*
X107300952Y-52454819D02*
X107300952Y-51454819D01*
X107300952Y-51454819D02*
X107205714Y-51597676D01*
X107205714Y-51597676D02*
X107110476Y-51692914D01*
X107110476Y-51692914D02*
X107015238Y-51740533D01*
X146016666Y-41724819D02*
X146016666Y-42439104D01*
X146016666Y-42439104D02*
X145969047Y-42581961D01*
X145969047Y-42581961D02*
X145873809Y-42677200D01*
X145873809Y-42677200D02*
X145730952Y-42724819D01*
X145730952Y-42724819D02*
X145635714Y-42724819D01*
X146397619Y-41724819D02*
X147016666Y-41724819D01*
X147016666Y-41724819D02*
X146683333Y-42105771D01*
X146683333Y-42105771D02*
X146826190Y-42105771D01*
X146826190Y-42105771D02*
X146921428Y-42153390D01*
X146921428Y-42153390D02*
X146969047Y-42201009D01*
X146969047Y-42201009D02*
X147016666Y-42296247D01*
X147016666Y-42296247D02*
X147016666Y-42534342D01*
X147016666Y-42534342D02*
X146969047Y-42629580D01*
X146969047Y-42629580D02*
X146921428Y-42677200D01*
X146921428Y-42677200D02*
X146826190Y-42724819D01*
X146826190Y-42724819D02*
X146540476Y-42724819D01*
X146540476Y-42724819D02*
X146445238Y-42677200D01*
X146445238Y-42677200D02*
X146397619Y-42629580D01*
X157084819Y-65666666D02*
X156608628Y-65999999D01*
X157084819Y-66238094D02*
X156084819Y-66238094D01*
X156084819Y-66238094D02*
X156084819Y-65857142D01*
X156084819Y-65857142D02*
X156132438Y-65761904D01*
X156132438Y-65761904D02*
X156180057Y-65714285D01*
X156180057Y-65714285D02*
X156275295Y-65666666D01*
X156275295Y-65666666D02*
X156418152Y-65666666D01*
X156418152Y-65666666D02*
X156513390Y-65714285D01*
X156513390Y-65714285D02*
X156561009Y-65761904D01*
X156561009Y-65761904D02*
X156608628Y-65857142D01*
X156608628Y-65857142D02*
X156608628Y-66238094D01*
X157084819Y-65190475D02*
X157084819Y-64999999D01*
X157084819Y-64999999D02*
X157037200Y-64904761D01*
X157037200Y-64904761D02*
X156989580Y-64857142D01*
X156989580Y-64857142D02*
X156846723Y-64761904D01*
X156846723Y-64761904D02*
X156656247Y-64714285D01*
X156656247Y-64714285D02*
X156275295Y-64714285D01*
X156275295Y-64714285D02*
X156180057Y-64761904D01*
X156180057Y-64761904D02*
X156132438Y-64809523D01*
X156132438Y-64809523D02*
X156084819Y-64904761D01*
X156084819Y-64904761D02*
X156084819Y-65095237D01*
X156084819Y-65095237D02*
X156132438Y-65190475D01*
X156132438Y-65190475D02*
X156180057Y-65238094D01*
X156180057Y-65238094D02*
X156275295Y-65285713D01*
X156275295Y-65285713D02*
X156513390Y-65285713D01*
X156513390Y-65285713D02*
X156608628Y-65238094D01*
X156608628Y-65238094D02*
X156656247Y-65190475D01*
X156656247Y-65190475D02*
X156703866Y-65095237D01*
X156703866Y-65095237D02*
X156703866Y-64904761D01*
X156703866Y-64904761D02*
X156656247Y-64809523D01*
X156656247Y-64809523D02*
X156608628Y-64761904D01*
X156608628Y-64761904D02*
X156513390Y-64714285D01*
X176859580Y-101642857D02*
X176907200Y-101690476D01*
X176907200Y-101690476D02*
X176954819Y-101833333D01*
X176954819Y-101833333D02*
X176954819Y-101928571D01*
X176954819Y-101928571D02*
X176907200Y-102071428D01*
X176907200Y-102071428D02*
X176811961Y-102166666D01*
X176811961Y-102166666D02*
X176716723Y-102214285D01*
X176716723Y-102214285D02*
X176526247Y-102261904D01*
X176526247Y-102261904D02*
X176383390Y-102261904D01*
X176383390Y-102261904D02*
X176192914Y-102214285D01*
X176192914Y-102214285D02*
X176097676Y-102166666D01*
X176097676Y-102166666D02*
X176002438Y-102071428D01*
X176002438Y-102071428D02*
X175954819Y-101928571D01*
X175954819Y-101928571D02*
X175954819Y-101833333D01*
X175954819Y-101833333D02*
X176002438Y-101690476D01*
X176002438Y-101690476D02*
X176050057Y-101642857D01*
X176954819Y-100690476D02*
X176954819Y-101261904D01*
X176954819Y-100976190D02*
X175954819Y-100976190D01*
X175954819Y-100976190D02*
X176097676Y-101071428D01*
X176097676Y-101071428D02*
X176192914Y-101166666D01*
X176192914Y-101166666D02*
X176240533Y-101261904D01*
X176050057Y-100309523D02*
X176002438Y-100261904D01*
X176002438Y-100261904D02*
X175954819Y-100166666D01*
X175954819Y-100166666D02*
X175954819Y-99928571D01*
X175954819Y-99928571D02*
X176002438Y-99833333D01*
X176002438Y-99833333D02*
X176050057Y-99785714D01*
X176050057Y-99785714D02*
X176145295Y-99738095D01*
X176145295Y-99738095D02*
X176240533Y-99738095D01*
X176240533Y-99738095D02*
X176383390Y-99785714D01*
X176383390Y-99785714D02*
X176954819Y-100357142D01*
X176954819Y-100357142D02*
X176954819Y-99738095D01*
X106976190Y-88109580D02*
X106928571Y-88157200D01*
X106928571Y-88157200D02*
X106785714Y-88204819D01*
X106785714Y-88204819D02*
X106690476Y-88204819D01*
X106690476Y-88204819D02*
X106547619Y-88157200D01*
X106547619Y-88157200D02*
X106452381Y-88061961D01*
X106452381Y-88061961D02*
X106404762Y-87966723D01*
X106404762Y-87966723D02*
X106357143Y-87776247D01*
X106357143Y-87776247D02*
X106357143Y-87633390D01*
X106357143Y-87633390D02*
X106404762Y-87442914D01*
X106404762Y-87442914D02*
X106452381Y-87347676D01*
X106452381Y-87347676D02*
X106547619Y-87252438D01*
X106547619Y-87252438D02*
X106690476Y-87204819D01*
X106690476Y-87204819D02*
X106785714Y-87204819D01*
X106785714Y-87204819D02*
X106928571Y-87252438D01*
X106928571Y-87252438D02*
X106976190Y-87300057D01*
X107357143Y-87300057D02*
X107404762Y-87252438D01*
X107404762Y-87252438D02*
X107500000Y-87204819D01*
X107500000Y-87204819D02*
X107738095Y-87204819D01*
X107738095Y-87204819D02*
X107833333Y-87252438D01*
X107833333Y-87252438D02*
X107880952Y-87300057D01*
X107880952Y-87300057D02*
X107928571Y-87395295D01*
X107928571Y-87395295D02*
X107928571Y-87490533D01*
X107928571Y-87490533D02*
X107880952Y-87633390D01*
X107880952Y-87633390D02*
X107309524Y-88204819D01*
X107309524Y-88204819D02*
X107928571Y-88204819D01*
X108119048Y-88300057D02*
X108880952Y-88300057D01*
X109642857Y-88204819D02*
X109071429Y-88204819D01*
X109357143Y-88204819D02*
X109357143Y-87204819D01*
X109357143Y-87204819D02*
X109261905Y-87347676D01*
X109261905Y-87347676D02*
X109166667Y-87442914D01*
X109166667Y-87442914D02*
X109071429Y-87490533D01*
X153556666Y-122804819D02*
X153556666Y-123519104D01*
X153556666Y-123519104D02*
X153509047Y-123661961D01*
X153509047Y-123661961D02*
X153413809Y-123757200D01*
X153413809Y-123757200D02*
X153270952Y-123804819D01*
X153270952Y-123804819D02*
X153175714Y-123804819D01*
X154461428Y-122804819D02*
X154270952Y-122804819D01*
X154270952Y-122804819D02*
X154175714Y-122852438D01*
X154175714Y-122852438D02*
X154128095Y-122900057D01*
X154128095Y-122900057D02*
X154032857Y-123042914D01*
X154032857Y-123042914D02*
X153985238Y-123233390D01*
X153985238Y-123233390D02*
X153985238Y-123614342D01*
X153985238Y-123614342D02*
X154032857Y-123709580D01*
X154032857Y-123709580D02*
X154080476Y-123757200D01*
X154080476Y-123757200D02*
X154175714Y-123804819D01*
X154175714Y-123804819D02*
X154366190Y-123804819D01*
X154366190Y-123804819D02*
X154461428Y-123757200D01*
X154461428Y-123757200D02*
X154509047Y-123709580D01*
X154509047Y-123709580D02*
X154556666Y-123614342D01*
X154556666Y-123614342D02*
X154556666Y-123376247D01*
X154556666Y-123376247D02*
X154509047Y-123281009D01*
X154509047Y-123281009D02*
X154461428Y-123233390D01*
X154461428Y-123233390D02*
X154366190Y-123185771D01*
X154366190Y-123185771D02*
X154175714Y-123185771D01*
X154175714Y-123185771D02*
X154080476Y-123233390D01*
X154080476Y-123233390D02*
X154032857Y-123281009D01*
X154032857Y-123281009D02*
X153985238Y-123376247D01*
X132476666Y-122804819D02*
X132476666Y-123519104D01*
X132476666Y-123519104D02*
X132429047Y-123661961D01*
X132429047Y-123661961D02*
X132333809Y-123757200D01*
X132333809Y-123757200D02*
X132190952Y-123804819D01*
X132190952Y-123804819D02*
X132095714Y-123804819D01*
X133429047Y-122804819D02*
X132952857Y-122804819D01*
X132952857Y-122804819D02*
X132905238Y-123281009D01*
X132905238Y-123281009D02*
X132952857Y-123233390D01*
X132952857Y-123233390D02*
X133048095Y-123185771D01*
X133048095Y-123185771D02*
X133286190Y-123185771D01*
X133286190Y-123185771D02*
X133381428Y-123233390D01*
X133381428Y-123233390D02*
X133429047Y-123281009D01*
X133429047Y-123281009D02*
X133476666Y-123376247D01*
X133476666Y-123376247D02*
X133476666Y-123614342D01*
X133476666Y-123614342D02*
X133429047Y-123709580D01*
X133429047Y-123709580D02*
X133381428Y-123757200D01*
X133381428Y-123757200D02*
X133286190Y-123804819D01*
X133286190Y-123804819D02*
X133048095Y-123804819D01*
X133048095Y-123804819D02*
X132952857Y-123757200D01*
X132952857Y-123757200D02*
X132905238Y-123709580D01*
X156584819Y-92166666D02*
X156108628Y-92499999D01*
X156584819Y-92738094D02*
X155584819Y-92738094D01*
X155584819Y-92738094D02*
X155584819Y-92357142D01*
X155584819Y-92357142D02*
X155632438Y-92261904D01*
X155632438Y-92261904D02*
X155680057Y-92214285D01*
X155680057Y-92214285D02*
X155775295Y-92166666D01*
X155775295Y-92166666D02*
X155918152Y-92166666D01*
X155918152Y-92166666D02*
X156013390Y-92214285D01*
X156013390Y-92214285D02*
X156061009Y-92261904D01*
X156061009Y-92261904D02*
X156108628Y-92357142D01*
X156108628Y-92357142D02*
X156108628Y-92738094D01*
X156013390Y-91595237D02*
X155965771Y-91690475D01*
X155965771Y-91690475D02*
X155918152Y-91738094D01*
X155918152Y-91738094D02*
X155822914Y-91785713D01*
X155822914Y-91785713D02*
X155775295Y-91785713D01*
X155775295Y-91785713D02*
X155680057Y-91738094D01*
X155680057Y-91738094D02*
X155632438Y-91690475D01*
X155632438Y-91690475D02*
X155584819Y-91595237D01*
X155584819Y-91595237D02*
X155584819Y-91404761D01*
X155584819Y-91404761D02*
X155632438Y-91309523D01*
X155632438Y-91309523D02*
X155680057Y-91261904D01*
X155680057Y-91261904D02*
X155775295Y-91214285D01*
X155775295Y-91214285D02*
X155822914Y-91214285D01*
X155822914Y-91214285D02*
X155918152Y-91261904D01*
X155918152Y-91261904D02*
X155965771Y-91309523D01*
X155965771Y-91309523D02*
X156013390Y-91404761D01*
X156013390Y-91404761D02*
X156013390Y-91595237D01*
X156013390Y-91595237D02*
X156061009Y-91690475D01*
X156061009Y-91690475D02*
X156108628Y-91738094D01*
X156108628Y-91738094D02*
X156203866Y-91785713D01*
X156203866Y-91785713D02*
X156394342Y-91785713D01*
X156394342Y-91785713D02*
X156489580Y-91738094D01*
X156489580Y-91738094D02*
X156537200Y-91690475D01*
X156537200Y-91690475D02*
X156584819Y-91595237D01*
X156584819Y-91595237D02*
X156584819Y-91404761D01*
X156584819Y-91404761D02*
X156537200Y-91309523D01*
X156537200Y-91309523D02*
X156489580Y-91261904D01*
X156489580Y-91261904D02*
X156394342Y-91214285D01*
X156394342Y-91214285D02*
X156203866Y-91214285D01*
X156203866Y-91214285D02*
X156108628Y-91261904D01*
X156108628Y-91261904D02*
X156061009Y-91309523D01*
X156061009Y-91309523D02*
X156013390Y-91404761D01*
X119586666Y-51454819D02*
X119586666Y-52169104D01*
X119586666Y-52169104D02*
X119539047Y-52311961D01*
X119539047Y-52311961D02*
X119443809Y-52407200D01*
X119443809Y-52407200D02*
X119300952Y-52454819D01*
X119300952Y-52454819D02*
X119205714Y-52454819D01*
X120015238Y-51550057D02*
X120062857Y-51502438D01*
X120062857Y-51502438D02*
X120158095Y-51454819D01*
X120158095Y-51454819D02*
X120396190Y-51454819D01*
X120396190Y-51454819D02*
X120491428Y-51502438D01*
X120491428Y-51502438D02*
X120539047Y-51550057D01*
X120539047Y-51550057D02*
X120586666Y-51645295D01*
X120586666Y-51645295D02*
X120586666Y-51740533D01*
X120586666Y-51740533D02*
X120539047Y-51883390D01*
X120539047Y-51883390D02*
X119967619Y-52454819D01*
X119967619Y-52454819D02*
X120586666Y-52454819D01*
X160989442Y-74109580D02*
X160941823Y-74157200D01*
X160941823Y-74157200D02*
X160798966Y-74204819D01*
X160798966Y-74204819D02*
X160703728Y-74204819D01*
X160703728Y-74204819D02*
X160560871Y-74157200D01*
X160560871Y-74157200D02*
X160465633Y-74061961D01*
X160465633Y-74061961D02*
X160418014Y-73966723D01*
X160418014Y-73966723D02*
X160370395Y-73776247D01*
X160370395Y-73776247D02*
X160370395Y-73633390D01*
X160370395Y-73633390D02*
X160418014Y-73442914D01*
X160418014Y-73442914D02*
X160465633Y-73347676D01*
X160465633Y-73347676D02*
X160560871Y-73252438D01*
X160560871Y-73252438D02*
X160703728Y-73204819D01*
X160703728Y-73204819D02*
X160798966Y-73204819D01*
X160798966Y-73204819D02*
X160941823Y-73252438D01*
X160941823Y-73252438D02*
X160989442Y-73300057D01*
X161941823Y-74204819D02*
X161370395Y-74204819D01*
X161656109Y-74204819D02*
X161656109Y-73204819D01*
X161656109Y-73204819D02*
X161560871Y-73347676D01*
X161560871Y-73347676D02*
X161465633Y-73442914D01*
X161465633Y-73442914D02*
X161370395Y-73490533D01*
X162846585Y-73204819D02*
X162370395Y-73204819D01*
X162370395Y-73204819D02*
X162322776Y-73681009D01*
X162322776Y-73681009D02*
X162370395Y-73633390D01*
X162370395Y-73633390D02*
X162465633Y-73585771D01*
X162465633Y-73585771D02*
X162703728Y-73585771D01*
X162703728Y-73585771D02*
X162798966Y-73633390D01*
X162798966Y-73633390D02*
X162846585Y-73681009D01*
X162846585Y-73681009D02*
X162894204Y-73776247D01*
X162894204Y-73776247D02*
X162894204Y-74014342D01*
X162894204Y-74014342D02*
X162846585Y-74109580D01*
X162846585Y-74109580D02*
X162798966Y-74157200D01*
X162798966Y-74157200D02*
X162703728Y-74204819D01*
X162703728Y-74204819D02*
X162465633Y-74204819D01*
X162465633Y-74204819D02*
X162370395Y-74157200D01*
X162370395Y-74157200D02*
X162322776Y-74109580D01*
X145584819Y-64166666D02*
X145108628Y-64499999D01*
X145584819Y-64738094D02*
X144584819Y-64738094D01*
X144584819Y-64738094D02*
X144584819Y-64357142D01*
X144584819Y-64357142D02*
X144632438Y-64261904D01*
X144632438Y-64261904D02*
X144680057Y-64214285D01*
X144680057Y-64214285D02*
X144775295Y-64166666D01*
X144775295Y-64166666D02*
X144918152Y-64166666D01*
X144918152Y-64166666D02*
X145013390Y-64214285D01*
X145013390Y-64214285D02*
X145061009Y-64261904D01*
X145061009Y-64261904D02*
X145108628Y-64357142D01*
X145108628Y-64357142D02*
X145108628Y-64738094D01*
X144584819Y-63309523D02*
X144584819Y-63499999D01*
X144584819Y-63499999D02*
X144632438Y-63595237D01*
X144632438Y-63595237D02*
X144680057Y-63642856D01*
X144680057Y-63642856D02*
X144822914Y-63738094D01*
X144822914Y-63738094D02*
X145013390Y-63785713D01*
X145013390Y-63785713D02*
X145394342Y-63785713D01*
X145394342Y-63785713D02*
X145489580Y-63738094D01*
X145489580Y-63738094D02*
X145537200Y-63690475D01*
X145537200Y-63690475D02*
X145584819Y-63595237D01*
X145584819Y-63595237D02*
X145584819Y-63404761D01*
X145584819Y-63404761D02*
X145537200Y-63309523D01*
X145537200Y-63309523D02*
X145489580Y-63261904D01*
X145489580Y-63261904D02*
X145394342Y-63214285D01*
X145394342Y-63214285D02*
X145156247Y-63214285D01*
X145156247Y-63214285D02*
X145061009Y-63261904D01*
X145061009Y-63261904D02*
X145013390Y-63309523D01*
X145013390Y-63309523D02*
X144965771Y-63404761D01*
X144965771Y-63404761D02*
X144965771Y-63595237D01*
X144965771Y-63595237D02*
X145013390Y-63690475D01*
X145013390Y-63690475D02*
X145061009Y-63738094D01*
X145061009Y-63738094D02*
X145156247Y-63785713D01*
X111759580Y-127018809D02*
X111807200Y-127066428D01*
X111807200Y-127066428D02*
X111854819Y-127209285D01*
X111854819Y-127209285D02*
X111854819Y-127304523D01*
X111854819Y-127304523D02*
X111807200Y-127447380D01*
X111807200Y-127447380D02*
X111711961Y-127542618D01*
X111711961Y-127542618D02*
X111616723Y-127590237D01*
X111616723Y-127590237D02*
X111426247Y-127637856D01*
X111426247Y-127637856D02*
X111283390Y-127637856D01*
X111283390Y-127637856D02*
X111092914Y-127590237D01*
X111092914Y-127590237D02*
X110997676Y-127542618D01*
X110997676Y-127542618D02*
X110902438Y-127447380D01*
X110902438Y-127447380D02*
X110854819Y-127304523D01*
X110854819Y-127304523D02*
X110854819Y-127209285D01*
X110854819Y-127209285D02*
X110902438Y-127066428D01*
X110902438Y-127066428D02*
X110950057Y-127018809D01*
X111854819Y-126066428D02*
X111854819Y-126637856D01*
X111854819Y-126352142D02*
X110854819Y-126352142D01*
X110854819Y-126352142D02*
X110997676Y-126447380D01*
X110997676Y-126447380D02*
X111092914Y-126542618D01*
X111092914Y-126542618D02*
X111140533Y-126637856D01*
X111950057Y-125875952D02*
X111950057Y-125114047D01*
X111854819Y-124352142D02*
X111854819Y-124923570D01*
X111854819Y-124637856D02*
X110854819Y-124637856D01*
X110854819Y-124637856D02*
X110997676Y-124733094D01*
X110997676Y-124733094D02*
X111092914Y-124828332D01*
X111092914Y-124828332D02*
X111140533Y-124923570D01*
X121084819Y-68023809D02*
X120608628Y-68357142D01*
X121084819Y-68595237D02*
X120084819Y-68595237D01*
X120084819Y-68595237D02*
X120084819Y-68214285D01*
X120084819Y-68214285D02*
X120132438Y-68119047D01*
X120132438Y-68119047D02*
X120180057Y-68071428D01*
X120180057Y-68071428D02*
X120275295Y-68023809D01*
X120275295Y-68023809D02*
X120418152Y-68023809D01*
X120418152Y-68023809D02*
X120513390Y-68071428D01*
X120513390Y-68071428D02*
X120561009Y-68119047D01*
X120561009Y-68119047D02*
X120608628Y-68214285D01*
X120608628Y-68214285D02*
X120608628Y-68595237D01*
X121084819Y-67071428D02*
X121084819Y-67642856D01*
X121084819Y-67357142D02*
X120084819Y-67357142D01*
X120084819Y-67357142D02*
X120227676Y-67452380D01*
X120227676Y-67452380D02*
X120322914Y-67547618D01*
X120322914Y-67547618D02*
X120370533Y-67642856D01*
X121180057Y-66880952D02*
X121180057Y-66119047D01*
X120180057Y-65928570D02*
X120132438Y-65880951D01*
X120132438Y-65880951D02*
X120084819Y-65785713D01*
X120084819Y-65785713D02*
X120084819Y-65547618D01*
X120084819Y-65547618D02*
X120132438Y-65452380D01*
X120132438Y-65452380D02*
X120180057Y-65404761D01*
X120180057Y-65404761D02*
X120275295Y-65357142D01*
X120275295Y-65357142D02*
X120370533Y-65357142D01*
X120370533Y-65357142D02*
X120513390Y-65404761D01*
X120513390Y-65404761D02*
X121084819Y-65976189D01*
X121084819Y-65976189D02*
X121084819Y-65357142D01*
X119109580Y-100523809D02*
X119157200Y-100571428D01*
X119157200Y-100571428D02*
X119204819Y-100714285D01*
X119204819Y-100714285D02*
X119204819Y-100809523D01*
X119204819Y-100809523D02*
X119157200Y-100952380D01*
X119157200Y-100952380D02*
X119061961Y-101047618D01*
X119061961Y-101047618D02*
X118966723Y-101095237D01*
X118966723Y-101095237D02*
X118776247Y-101142856D01*
X118776247Y-101142856D02*
X118633390Y-101142856D01*
X118633390Y-101142856D02*
X118442914Y-101095237D01*
X118442914Y-101095237D02*
X118347676Y-101047618D01*
X118347676Y-101047618D02*
X118252438Y-100952380D01*
X118252438Y-100952380D02*
X118204819Y-100809523D01*
X118204819Y-100809523D02*
X118204819Y-100714285D01*
X118204819Y-100714285D02*
X118252438Y-100571428D01*
X118252438Y-100571428D02*
X118300057Y-100523809D01*
X118300057Y-100142856D02*
X118252438Y-100095237D01*
X118252438Y-100095237D02*
X118204819Y-99999999D01*
X118204819Y-99999999D02*
X118204819Y-99761904D01*
X118204819Y-99761904D02*
X118252438Y-99666666D01*
X118252438Y-99666666D02*
X118300057Y-99619047D01*
X118300057Y-99619047D02*
X118395295Y-99571428D01*
X118395295Y-99571428D02*
X118490533Y-99571428D01*
X118490533Y-99571428D02*
X118633390Y-99619047D01*
X118633390Y-99619047D02*
X119204819Y-100190475D01*
X119204819Y-100190475D02*
X119204819Y-99571428D01*
X119300057Y-99380952D02*
X119300057Y-98619047D01*
X118204819Y-98476189D02*
X118204819Y-97857142D01*
X118204819Y-97857142D02*
X118585771Y-98190475D01*
X118585771Y-98190475D02*
X118585771Y-98047618D01*
X118585771Y-98047618D02*
X118633390Y-97952380D01*
X118633390Y-97952380D02*
X118681009Y-97904761D01*
X118681009Y-97904761D02*
X118776247Y-97857142D01*
X118776247Y-97857142D02*
X119014342Y-97857142D01*
X119014342Y-97857142D02*
X119109580Y-97904761D01*
X119109580Y-97904761D02*
X119157200Y-97952380D01*
X119157200Y-97952380D02*
X119204819Y-98047618D01*
X119204819Y-98047618D02*
X119204819Y-98333332D01*
X119204819Y-98333332D02*
X119157200Y-98428570D01*
X119157200Y-98428570D02*
X119109580Y-98476189D01*
X189859580Y-117142857D02*
X189907200Y-117190476D01*
X189907200Y-117190476D02*
X189954819Y-117333333D01*
X189954819Y-117333333D02*
X189954819Y-117428571D01*
X189954819Y-117428571D02*
X189907200Y-117571428D01*
X189907200Y-117571428D02*
X189811961Y-117666666D01*
X189811961Y-117666666D02*
X189716723Y-117714285D01*
X189716723Y-117714285D02*
X189526247Y-117761904D01*
X189526247Y-117761904D02*
X189383390Y-117761904D01*
X189383390Y-117761904D02*
X189192914Y-117714285D01*
X189192914Y-117714285D02*
X189097676Y-117666666D01*
X189097676Y-117666666D02*
X189002438Y-117571428D01*
X189002438Y-117571428D02*
X188954819Y-117428571D01*
X188954819Y-117428571D02*
X188954819Y-117333333D01*
X188954819Y-117333333D02*
X189002438Y-117190476D01*
X189002438Y-117190476D02*
X189050057Y-117142857D01*
X189954819Y-116190476D02*
X189954819Y-116761904D01*
X189954819Y-116476190D02*
X188954819Y-116476190D01*
X188954819Y-116476190D02*
X189097676Y-116571428D01*
X189097676Y-116571428D02*
X189192914Y-116666666D01*
X189192914Y-116666666D02*
X189240533Y-116761904D01*
X188954819Y-115857142D02*
X188954819Y-115238095D01*
X188954819Y-115238095D02*
X189335771Y-115571428D01*
X189335771Y-115571428D02*
X189335771Y-115428571D01*
X189335771Y-115428571D02*
X189383390Y-115333333D01*
X189383390Y-115333333D02*
X189431009Y-115285714D01*
X189431009Y-115285714D02*
X189526247Y-115238095D01*
X189526247Y-115238095D02*
X189764342Y-115238095D01*
X189764342Y-115238095D02*
X189859580Y-115285714D01*
X189859580Y-115285714D02*
X189907200Y-115333333D01*
X189907200Y-115333333D02*
X189954819Y-115428571D01*
X189954819Y-115428571D02*
X189954819Y-115714285D01*
X189954819Y-115714285D02*
X189907200Y-115809523D01*
X189907200Y-115809523D02*
X189859580Y-115857142D01*
X113084819Y-87666666D02*
X112608628Y-87999999D01*
X113084819Y-88238094D02*
X112084819Y-88238094D01*
X112084819Y-88238094D02*
X112084819Y-87857142D01*
X112084819Y-87857142D02*
X112132438Y-87761904D01*
X112132438Y-87761904D02*
X112180057Y-87714285D01*
X112180057Y-87714285D02*
X112275295Y-87666666D01*
X112275295Y-87666666D02*
X112418152Y-87666666D01*
X112418152Y-87666666D02*
X112513390Y-87714285D01*
X112513390Y-87714285D02*
X112561009Y-87761904D01*
X112561009Y-87761904D02*
X112608628Y-87857142D01*
X112608628Y-87857142D02*
X112608628Y-88238094D01*
X112180057Y-87285713D02*
X112132438Y-87238094D01*
X112132438Y-87238094D02*
X112084819Y-87142856D01*
X112084819Y-87142856D02*
X112084819Y-86904761D01*
X112084819Y-86904761D02*
X112132438Y-86809523D01*
X112132438Y-86809523D02*
X112180057Y-86761904D01*
X112180057Y-86761904D02*
X112275295Y-86714285D01*
X112275295Y-86714285D02*
X112370533Y-86714285D01*
X112370533Y-86714285D02*
X112513390Y-86761904D01*
X112513390Y-86761904D02*
X113084819Y-87333332D01*
X113084819Y-87333332D02*
X113084819Y-86714285D01*
X100609580Y-96023809D02*
X100657200Y-96071428D01*
X100657200Y-96071428D02*
X100704819Y-96214285D01*
X100704819Y-96214285D02*
X100704819Y-96309523D01*
X100704819Y-96309523D02*
X100657200Y-96452380D01*
X100657200Y-96452380D02*
X100561961Y-96547618D01*
X100561961Y-96547618D02*
X100466723Y-96595237D01*
X100466723Y-96595237D02*
X100276247Y-96642856D01*
X100276247Y-96642856D02*
X100133390Y-96642856D01*
X100133390Y-96642856D02*
X99942914Y-96595237D01*
X99942914Y-96595237D02*
X99847676Y-96547618D01*
X99847676Y-96547618D02*
X99752438Y-96452380D01*
X99752438Y-96452380D02*
X99704819Y-96309523D01*
X99704819Y-96309523D02*
X99704819Y-96214285D01*
X99704819Y-96214285D02*
X99752438Y-96071428D01*
X99752438Y-96071428D02*
X99800057Y-96023809D01*
X99800057Y-95642856D02*
X99752438Y-95595237D01*
X99752438Y-95595237D02*
X99704819Y-95499999D01*
X99704819Y-95499999D02*
X99704819Y-95261904D01*
X99704819Y-95261904D02*
X99752438Y-95166666D01*
X99752438Y-95166666D02*
X99800057Y-95119047D01*
X99800057Y-95119047D02*
X99895295Y-95071428D01*
X99895295Y-95071428D02*
X99990533Y-95071428D01*
X99990533Y-95071428D02*
X100133390Y-95119047D01*
X100133390Y-95119047D02*
X100704819Y-95690475D01*
X100704819Y-95690475D02*
X100704819Y-95071428D01*
X100800057Y-94880952D02*
X100800057Y-94119047D01*
X99800057Y-93928570D02*
X99752438Y-93880951D01*
X99752438Y-93880951D02*
X99704819Y-93785713D01*
X99704819Y-93785713D02*
X99704819Y-93547618D01*
X99704819Y-93547618D02*
X99752438Y-93452380D01*
X99752438Y-93452380D02*
X99800057Y-93404761D01*
X99800057Y-93404761D02*
X99895295Y-93357142D01*
X99895295Y-93357142D02*
X99990533Y-93357142D01*
X99990533Y-93357142D02*
X100133390Y-93404761D01*
X100133390Y-93404761D02*
X100704819Y-93976189D01*
X100704819Y-93976189D02*
X100704819Y-93357142D01*
X110584819Y-68000000D02*
X110108628Y-68333333D01*
X110584819Y-68571428D02*
X109584819Y-68571428D01*
X109584819Y-68571428D02*
X109584819Y-68190476D01*
X109584819Y-68190476D02*
X109632438Y-68095238D01*
X109632438Y-68095238D02*
X109680057Y-68047619D01*
X109680057Y-68047619D02*
X109775295Y-68000000D01*
X109775295Y-68000000D02*
X109918152Y-68000000D01*
X109918152Y-68000000D02*
X110013390Y-68047619D01*
X110013390Y-68047619D02*
X110061009Y-68095238D01*
X110061009Y-68095238D02*
X110108628Y-68190476D01*
X110108628Y-68190476D02*
X110108628Y-68571428D01*
X110680057Y-67809524D02*
X110680057Y-67047619D01*
X110584819Y-66809523D02*
X109584819Y-66809523D01*
X109965771Y-66809523D02*
X109918152Y-66714285D01*
X109918152Y-66714285D02*
X109918152Y-66523809D01*
X109918152Y-66523809D02*
X109965771Y-66428571D01*
X109965771Y-66428571D02*
X110013390Y-66380952D01*
X110013390Y-66380952D02*
X110108628Y-66333333D01*
X110108628Y-66333333D02*
X110394342Y-66333333D01*
X110394342Y-66333333D02*
X110489580Y-66380952D01*
X110489580Y-66380952D02*
X110537200Y-66428571D01*
X110537200Y-66428571D02*
X110584819Y-66523809D01*
X110584819Y-66523809D02*
X110584819Y-66714285D01*
X110584819Y-66714285D02*
X110537200Y-66809523D01*
X110584819Y-65380952D02*
X110584819Y-65952380D01*
X110584819Y-65666666D02*
X109584819Y-65666666D01*
X109584819Y-65666666D02*
X109727676Y-65761904D01*
X109727676Y-65761904D02*
X109822914Y-65857142D01*
X109822914Y-65857142D02*
X109870533Y-65952380D01*
X115084819Y-68023809D02*
X114608628Y-68357142D01*
X115084819Y-68595237D02*
X114084819Y-68595237D01*
X114084819Y-68595237D02*
X114084819Y-68214285D01*
X114084819Y-68214285D02*
X114132438Y-68119047D01*
X114132438Y-68119047D02*
X114180057Y-68071428D01*
X114180057Y-68071428D02*
X114275295Y-68023809D01*
X114275295Y-68023809D02*
X114418152Y-68023809D01*
X114418152Y-68023809D02*
X114513390Y-68071428D01*
X114513390Y-68071428D02*
X114561009Y-68119047D01*
X114561009Y-68119047D02*
X114608628Y-68214285D01*
X114608628Y-68214285D02*
X114608628Y-68595237D01*
X115084819Y-67071428D02*
X115084819Y-67642856D01*
X115084819Y-67357142D02*
X114084819Y-67357142D01*
X114084819Y-67357142D02*
X114227676Y-67452380D01*
X114227676Y-67452380D02*
X114322914Y-67547618D01*
X114322914Y-67547618D02*
X114370533Y-67642856D01*
X115180057Y-66880952D02*
X115180057Y-66119047D01*
X115084819Y-65357142D02*
X115084819Y-65928570D01*
X115084819Y-65642856D02*
X114084819Y-65642856D01*
X114084819Y-65642856D02*
X114227676Y-65738094D01*
X114227676Y-65738094D02*
X114322914Y-65833332D01*
X114322914Y-65833332D02*
X114370533Y-65928570D01*
X109609580Y-65738095D02*
X109657200Y-65785714D01*
X109657200Y-65785714D02*
X109704819Y-65928571D01*
X109704819Y-65928571D02*
X109704819Y-66023809D01*
X109704819Y-66023809D02*
X109657200Y-66166666D01*
X109657200Y-66166666D02*
X109561961Y-66261904D01*
X109561961Y-66261904D02*
X109466723Y-66309523D01*
X109466723Y-66309523D02*
X109276247Y-66357142D01*
X109276247Y-66357142D02*
X109133390Y-66357142D01*
X109133390Y-66357142D02*
X108942914Y-66309523D01*
X108942914Y-66309523D02*
X108847676Y-66261904D01*
X108847676Y-66261904D02*
X108752438Y-66166666D01*
X108752438Y-66166666D02*
X108704819Y-66023809D01*
X108704819Y-66023809D02*
X108704819Y-65928571D01*
X108704819Y-65928571D02*
X108752438Y-65785714D01*
X108752438Y-65785714D02*
X108800057Y-65738095D01*
X109800057Y-65547619D02*
X109800057Y-64785714D01*
X109704819Y-64547618D02*
X109038152Y-64547618D01*
X108704819Y-64547618D02*
X108752438Y-64595237D01*
X108752438Y-64595237D02*
X108800057Y-64547618D01*
X108800057Y-64547618D02*
X108752438Y-64499999D01*
X108752438Y-64499999D02*
X108704819Y-64547618D01*
X108704819Y-64547618D02*
X108800057Y-64547618D01*
X109038152Y-64071428D02*
X109704819Y-64071428D01*
X109133390Y-64071428D02*
X109085771Y-64023809D01*
X109085771Y-64023809D02*
X109038152Y-63928571D01*
X109038152Y-63928571D02*
X109038152Y-63785714D01*
X109038152Y-63785714D02*
X109085771Y-63690476D01*
X109085771Y-63690476D02*
X109181009Y-63642857D01*
X109181009Y-63642857D02*
X109704819Y-63642857D01*
X109704819Y-62642857D02*
X109704819Y-63214285D01*
X109704819Y-62928571D02*
X108704819Y-62928571D01*
X108704819Y-62928571D02*
X108847676Y-63023809D01*
X108847676Y-63023809D02*
X108942914Y-63119047D01*
X108942914Y-63119047D02*
X108990533Y-63214285D01*
X126471190Y-109459580D02*
X126423571Y-109507200D01*
X126423571Y-109507200D02*
X126280714Y-109554819D01*
X126280714Y-109554819D02*
X126185476Y-109554819D01*
X126185476Y-109554819D02*
X126042619Y-109507200D01*
X126042619Y-109507200D02*
X125947381Y-109411961D01*
X125947381Y-109411961D02*
X125899762Y-109316723D01*
X125899762Y-109316723D02*
X125852143Y-109126247D01*
X125852143Y-109126247D02*
X125852143Y-108983390D01*
X125852143Y-108983390D02*
X125899762Y-108792914D01*
X125899762Y-108792914D02*
X125947381Y-108697676D01*
X125947381Y-108697676D02*
X126042619Y-108602438D01*
X126042619Y-108602438D02*
X126185476Y-108554819D01*
X126185476Y-108554819D02*
X126280714Y-108554819D01*
X126280714Y-108554819D02*
X126423571Y-108602438D01*
X126423571Y-108602438D02*
X126471190Y-108650057D01*
X127423571Y-109554819D02*
X126852143Y-109554819D01*
X127137857Y-109554819D02*
X127137857Y-108554819D01*
X127137857Y-108554819D02*
X127042619Y-108697676D01*
X127042619Y-108697676D02*
X126947381Y-108792914D01*
X126947381Y-108792914D02*
X126852143Y-108840533D01*
X127614048Y-109650057D02*
X128375952Y-109650057D01*
X128566429Y-108650057D02*
X128614048Y-108602438D01*
X128614048Y-108602438D02*
X128709286Y-108554819D01*
X128709286Y-108554819D02*
X128947381Y-108554819D01*
X128947381Y-108554819D02*
X129042619Y-108602438D01*
X129042619Y-108602438D02*
X129090238Y-108650057D01*
X129090238Y-108650057D02*
X129137857Y-108745295D01*
X129137857Y-108745295D02*
X129137857Y-108840533D01*
X129137857Y-108840533D02*
X129090238Y-108983390D01*
X129090238Y-108983390D02*
X128518810Y-109554819D01*
X128518810Y-109554819D02*
X129137857Y-109554819D01*
X112224819Y-115333333D02*
X112939104Y-115333333D01*
X112939104Y-115333333D02*
X113081961Y-115380952D01*
X113081961Y-115380952D02*
X113177200Y-115476190D01*
X113177200Y-115476190D02*
X113224819Y-115619047D01*
X113224819Y-115619047D02*
X113224819Y-115714285D01*
X113224819Y-114857142D02*
X112224819Y-114857142D01*
X112224819Y-114857142D02*
X112224819Y-114476190D01*
X112224819Y-114476190D02*
X112272438Y-114380952D01*
X112272438Y-114380952D02*
X112320057Y-114333333D01*
X112320057Y-114333333D02*
X112415295Y-114285714D01*
X112415295Y-114285714D02*
X112558152Y-114285714D01*
X112558152Y-114285714D02*
X112653390Y-114333333D01*
X112653390Y-114333333D02*
X112701009Y-114380952D01*
X112701009Y-114380952D02*
X112748628Y-114476190D01*
X112748628Y-114476190D02*
X112748628Y-114857142D01*
X113224819Y-113333333D02*
X113224819Y-113904761D01*
X113224819Y-113619047D02*
X112224819Y-113619047D01*
X112224819Y-113619047D02*
X112367676Y-113714285D01*
X112367676Y-113714285D02*
X112462914Y-113809523D01*
X112462914Y-113809523D02*
X112510533Y-113904761D01*
X157857142Y-104054819D02*
X157523809Y-103578628D01*
X157285714Y-104054819D02*
X157285714Y-103054819D01*
X157285714Y-103054819D02*
X157666666Y-103054819D01*
X157666666Y-103054819D02*
X157761904Y-103102438D01*
X157761904Y-103102438D02*
X157809523Y-103150057D01*
X157809523Y-103150057D02*
X157857142Y-103245295D01*
X157857142Y-103245295D02*
X157857142Y-103388152D01*
X157857142Y-103388152D02*
X157809523Y-103483390D01*
X157809523Y-103483390D02*
X157761904Y-103531009D01*
X157761904Y-103531009D02*
X157666666Y-103578628D01*
X157666666Y-103578628D02*
X157285714Y-103578628D01*
X158809523Y-104054819D02*
X158238095Y-104054819D01*
X158523809Y-104054819D02*
X158523809Y-103054819D01*
X158523809Y-103054819D02*
X158428571Y-103197676D01*
X158428571Y-103197676D02*
X158333333Y-103292914D01*
X158333333Y-103292914D02*
X158238095Y-103340533D01*
X159428571Y-103054819D02*
X159523809Y-103054819D01*
X159523809Y-103054819D02*
X159619047Y-103102438D01*
X159619047Y-103102438D02*
X159666666Y-103150057D01*
X159666666Y-103150057D02*
X159714285Y-103245295D01*
X159714285Y-103245295D02*
X159761904Y-103435771D01*
X159761904Y-103435771D02*
X159761904Y-103673866D01*
X159761904Y-103673866D02*
X159714285Y-103864342D01*
X159714285Y-103864342D02*
X159666666Y-103959580D01*
X159666666Y-103959580D02*
X159619047Y-104007200D01*
X159619047Y-104007200D02*
X159523809Y-104054819D01*
X159523809Y-104054819D02*
X159428571Y-104054819D01*
X159428571Y-104054819D02*
X159333333Y-104007200D01*
X159333333Y-104007200D02*
X159285714Y-103959580D01*
X159285714Y-103959580D02*
X159238095Y-103864342D01*
X159238095Y-103864342D02*
X159190476Y-103673866D01*
X159190476Y-103673866D02*
X159190476Y-103435771D01*
X159190476Y-103435771D02*
X159238095Y-103245295D01*
X159238095Y-103245295D02*
X159285714Y-103150057D01*
X159285714Y-103150057D02*
X159333333Y-103102438D01*
X159333333Y-103102438D02*
X159428571Y-103054819D01*
X144824819Y-92666666D02*
X144348628Y-92999999D01*
X144824819Y-93238094D02*
X143824819Y-93238094D01*
X143824819Y-93238094D02*
X143824819Y-92857142D01*
X143824819Y-92857142D02*
X143872438Y-92761904D01*
X143872438Y-92761904D02*
X143920057Y-92714285D01*
X143920057Y-92714285D02*
X144015295Y-92666666D01*
X144015295Y-92666666D02*
X144158152Y-92666666D01*
X144158152Y-92666666D02*
X144253390Y-92714285D01*
X144253390Y-92714285D02*
X144301009Y-92761904D01*
X144301009Y-92761904D02*
X144348628Y-92857142D01*
X144348628Y-92857142D02*
X144348628Y-93238094D01*
X144158152Y-91809523D02*
X144824819Y-91809523D01*
X143777200Y-92047618D02*
X144491485Y-92285713D01*
X144491485Y-92285713D02*
X144491485Y-91666666D01*
X118504819Y-92761904D02*
X119314342Y-92761904D01*
X119314342Y-92761904D02*
X119409580Y-92714285D01*
X119409580Y-92714285D02*
X119457200Y-92666666D01*
X119457200Y-92666666D02*
X119504819Y-92571428D01*
X119504819Y-92571428D02*
X119504819Y-92380952D01*
X119504819Y-92380952D02*
X119457200Y-92285714D01*
X119457200Y-92285714D02*
X119409580Y-92238095D01*
X119409580Y-92238095D02*
X119314342Y-92190476D01*
X119314342Y-92190476D02*
X118504819Y-92190476D01*
X119504819Y-91190476D02*
X119504819Y-91761904D01*
X119504819Y-91476190D02*
X118504819Y-91476190D01*
X118504819Y-91476190D02*
X118647676Y-91571428D01*
X118647676Y-91571428D02*
X118742914Y-91666666D01*
X118742914Y-91666666D02*
X118790533Y-91761904D01*
X125499999Y-78324819D02*
X125166666Y-77848628D01*
X124928571Y-78324819D02*
X124928571Y-77324819D01*
X124928571Y-77324819D02*
X125309523Y-77324819D01*
X125309523Y-77324819D02*
X125404761Y-77372438D01*
X125404761Y-77372438D02*
X125452380Y-77420057D01*
X125452380Y-77420057D02*
X125499999Y-77515295D01*
X125499999Y-77515295D02*
X125499999Y-77658152D01*
X125499999Y-77658152D02*
X125452380Y-77753390D01*
X125452380Y-77753390D02*
X125404761Y-77801009D01*
X125404761Y-77801009D02*
X125309523Y-77848628D01*
X125309523Y-77848628D02*
X124928571Y-77848628D01*
X125690476Y-78420057D02*
X126452380Y-78420057D01*
X126690476Y-78324819D02*
X126690476Y-77324819D01*
X126690476Y-77705771D02*
X126785714Y-77658152D01*
X126785714Y-77658152D02*
X126976190Y-77658152D01*
X126976190Y-77658152D02*
X127071428Y-77705771D01*
X127071428Y-77705771D02*
X127119047Y-77753390D01*
X127119047Y-77753390D02*
X127166666Y-77848628D01*
X127166666Y-77848628D02*
X127166666Y-78134342D01*
X127166666Y-78134342D02*
X127119047Y-78229580D01*
X127119047Y-78229580D02*
X127071428Y-78277200D01*
X127071428Y-78277200D02*
X126976190Y-78324819D01*
X126976190Y-78324819D02*
X126785714Y-78324819D01*
X126785714Y-78324819D02*
X126690476Y-78277200D01*
X127547619Y-77420057D02*
X127595238Y-77372438D01*
X127595238Y-77372438D02*
X127690476Y-77324819D01*
X127690476Y-77324819D02*
X127928571Y-77324819D01*
X127928571Y-77324819D02*
X128023809Y-77372438D01*
X128023809Y-77372438D02*
X128071428Y-77420057D01*
X128071428Y-77420057D02*
X128119047Y-77515295D01*
X128119047Y-77515295D02*
X128119047Y-77610533D01*
X128119047Y-77610533D02*
X128071428Y-77753390D01*
X128071428Y-77753390D02*
X127500000Y-78324819D01*
X127500000Y-78324819D02*
X128119047Y-78324819D01*
X178126666Y-51454819D02*
X178126666Y-52169104D01*
X178126666Y-52169104D02*
X178079047Y-52311961D01*
X178079047Y-52311961D02*
X177983809Y-52407200D01*
X177983809Y-52407200D02*
X177840952Y-52454819D01*
X177840952Y-52454819D02*
X177745714Y-52454819D01*
X179031428Y-51788152D02*
X179031428Y-52454819D01*
X178793333Y-51407200D02*
X178555238Y-52121485D01*
X178555238Y-52121485D02*
X179174285Y-52121485D01*
X144833333Y-75824819D02*
X144500000Y-75348628D01*
X144261905Y-75824819D02*
X144261905Y-74824819D01*
X144261905Y-74824819D02*
X144642857Y-74824819D01*
X144642857Y-74824819D02*
X144738095Y-74872438D01*
X144738095Y-74872438D02*
X144785714Y-74920057D01*
X144785714Y-74920057D02*
X144833333Y-75015295D01*
X144833333Y-75015295D02*
X144833333Y-75158152D01*
X144833333Y-75158152D02*
X144785714Y-75253390D01*
X144785714Y-75253390D02*
X144738095Y-75301009D01*
X144738095Y-75301009D02*
X144642857Y-75348628D01*
X144642857Y-75348628D02*
X144261905Y-75348628D01*
X145738095Y-74824819D02*
X145261905Y-74824819D01*
X145261905Y-74824819D02*
X145214286Y-75301009D01*
X145214286Y-75301009D02*
X145261905Y-75253390D01*
X145261905Y-75253390D02*
X145357143Y-75205771D01*
X145357143Y-75205771D02*
X145595238Y-75205771D01*
X145595238Y-75205771D02*
X145690476Y-75253390D01*
X145690476Y-75253390D02*
X145738095Y-75301009D01*
X145738095Y-75301009D02*
X145785714Y-75396247D01*
X145785714Y-75396247D02*
X145785714Y-75634342D01*
X145785714Y-75634342D02*
X145738095Y-75729580D01*
X145738095Y-75729580D02*
X145690476Y-75777200D01*
X145690476Y-75777200D02*
X145595238Y-75824819D01*
X145595238Y-75824819D02*
X145357143Y-75824819D01*
X145357143Y-75824819D02*
X145261905Y-75777200D01*
X145261905Y-75777200D02*
X145214286Y-75729580D01*
X104166666Y-90224819D02*
X104166666Y-90939104D01*
X104166666Y-90939104D02*
X104119047Y-91081961D01*
X104119047Y-91081961D02*
X104023809Y-91177200D01*
X104023809Y-91177200D02*
X103880952Y-91224819D01*
X103880952Y-91224819D02*
X103785714Y-91224819D01*
X104642857Y-91224819D02*
X104642857Y-90224819D01*
X104642857Y-90224819D02*
X105023809Y-90224819D01*
X105023809Y-90224819D02*
X105119047Y-90272438D01*
X105119047Y-90272438D02*
X105166666Y-90320057D01*
X105166666Y-90320057D02*
X105214285Y-90415295D01*
X105214285Y-90415295D02*
X105214285Y-90558152D01*
X105214285Y-90558152D02*
X105166666Y-90653390D01*
X105166666Y-90653390D02*
X105119047Y-90701009D01*
X105119047Y-90701009D02*
X105023809Y-90748628D01*
X105023809Y-90748628D02*
X104642857Y-90748628D01*
X105595238Y-90320057D02*
X105642857Y-90272438D01*
X105642857Y-90272438D02*
X105738095Y-90224819D01*
X105738095Y-90224819D02*
X105976190Y-90224819D01*
X105976190Y-90224819D02*
X106071428Y-90272438D01*
X106071428Y-90272438D02*
X106119047Y-90320057D01*
X106119047Y-90320057D02*
X106166666Y-90415295D01*
X106166666Y-90415295D02*
X106166666Y-90510533D01*
X106166666Y-90510533D02*
X106119047Y-90653390D01*
X106119047Y-90653390D02*
X105547619Y-91224819D01*
X105547619Y-91224819D02*
X106166666Y-91224819D01*
X138609580Y-62738095D02*
X138657200Y-62785714D01*
X138657200Y-62785714D02*
X138704819Y-62928571D01*
X138704819Y-62928571D02*
X138704819Y-63023809D01*
X138704819Y-63023809D02*
X138657200Y-63166666D01*
X138657200Y-63166666D02*
X138561961Y-63261904D01*
X138561961Y-63261904D02*
X138466723Y-63309523D01*
X138466723Y-63309523D02*
X138276247Y-63357142D01*
X138276247Y-63357142D02*
X138133390Y-63357142D01*
X138133390Y-63357142D02*
X137942914Y-63309523D01*
X137942914Y-63309523D02*
X137847676Y-63261904D01*
X137847676Y-63261904D02*
X137752438Y-63166666D01*
X137752438Y-63166666D02*
X137704819Y-63023809D01*
X137704819Y-63023809D02*
X137704819Y-62928571D01*
X137704819Y-62928571D02*
X137752438Y-62785714D01*
X137752438Y-62785714D02*
X137800057Y-62738095D01*
X138800057Y-62547619D02*
X138800057Y-61785714D01*
X138704819Y-61547618D02*
X138038152Y-61547618D01*
X137704819Y-61547618D02*
X137752438Y-61595237D01*
X137752438Y-61595237D02*
X137800057Y-61547618D01*
X137800057Y-61547618D02*
X137752438Y-61499999D01*
X137752438Y-61499999D02*
X137704819Y-61547618D01*
X137704819Y-61547618D02*
X137800057Y-61547618D01*
X138038152Y-61071428D02*
X138704819Y-61071428D01*
X138133390Y-61071428D02*
X138085771Y-61023809D01*
X138085771Y-61023809D02*
X138038152Y-60928571D01*
X138038152Y-60928571D02*
X138038152Y-60785714D01*
X138038152Y-60785714D02*
X138085771Y-60690476D01*
X138085771Y-60690476D02*
X138181009Y-60642857D01*
X138181009Y-60642857D02*
X138704819Y-60642857D01*
X137800057Y-60214285D02*
X137752438Y-60166666D01*
X137752438Y-60166666D02*
X137704819Y-60071428D01*
X137704819Y-60071428D02*
X137704819Y-59833333D01*
X137704819Y-59833333D02*
X137752438Y-59738095D01*
X137752438Y-59738095D02*
X137800057Y-59690476D01*
X137800057Y-59690476D02*
X137895295Y-59642857D01*
X137895295Y-59642857D02*
X137990533Y-59642857D01*
X137990533Y-59642857D02*
X138133390Y-59690476D01*
X138133390Y-59690476D02*
X138704819Y-60261904D01*
X138704819Y-60261904D02*
X138704819Y-59642857D01*
%TO.C,U2*%
D11*
X179690000Y-123390000D02*
X184310000Y-123390000D01*
X179690000Y-126650000D02*
X181070000Y-126650000D01*
X179690000Y-130350000D02*
X181070000Y-130350000D01*
X179690000Y-133610000D02*
X179690000Y-123390000D01*
X181070000Y-133610000D02*
X181070000Y-123390000D01*
X184310000Y-123390000D02*
X184310000Y-133610000D01*
X184310000Y-133610000D02*
X179690000Y-133610000D01*
%TO.C,C11*%
X165920000Y-110827700D02*
X176080000Y-110827700D01*
X165920000Y-110867700D02*
X176080000Y-110867700D01*
X165921000Y-110747700D02*
X176079000Y-110747700D01*
X165921000Y-110787700D02*
X176079000Y-110787700D01*
X165923000Y-110707700D02*
X176077000Y-110707700D01*
X165924000Y-110667700D02*
X176076000Y-110667700D01*
X165926000Y-110627700D02*
X176074000Y-110627700D01*
X165928000Y-110587700D02*
X176072000Y-110587700D01*
X165930000Y-110547700D02*
X176070000Y-110547700D01*
X165933000Y-110507700D02*
X176067000Y-110507700D01*
X165936000Y-110467700D02*
X176064000Y-110467700D01*
X165939000Y-110427700D02*
X176061000Y-110427700D01*
X165943000Y-110387700D02*
X176057000Y-110387700D01*
X165946000Y-110347700D02*
X176054000Y-110347700D01*
X165951000Y-110307700D02*
X176049000Y-110307700D01*
X165955000Y-110267700D02*
X176045000Y-110267700D01*
X165960000Y-110227700D02*
X176040000Y-110227700D01*
X165965000Y-110187700D02*
X176035000Y-110187700D01*
X165971000Y-110147700D02*
X176029000Y-110147700D01*
X165977000Y-110107700D02*
X176023000Y-110107700D01*
X165983000Y-110067700D02*
X176017000Y-110067700D01*
X165989000Y-110027700D02*
X176011000Y-110027700D01*
X165996000Y-109987700D02*
X176004000Y-109987700D01*
X166003000Y-109947700D02*
X175997000Y-109947700D01*
X166011000Y-109907700D02*
X175989000Y-109907700D01*
X166019000Y-109867700D02*
X175981000Y-109867700D01*
X166027000Y-109827700D02*
X175973000Y-109827700D01*
X166035000Y-109787700D02*
X175965000Y-109787700D01*
X166044000Y-109747700D02*
X175956000Y-109747700D01*
X166053000Y-109707700D02*
X175947000Y-109707700D01*
X166063000Y-109667700D02*
X175937000Y-109667700D01*
X166072000Y-109627700D02*
X175928000Y-109627700D01*
X166083000Y-109587700D02*
X169760000Y-109587700D01*
X166093000Y-109547700D02*
X169760000Y-109547700D01*
X166104000Y-109507700D02*
X169760000Y-109507700D01*
X166115000Y-109467700D02*
X169760000Y-109467700D01*
X166127000Y-109427700D02*
X169760000Y-109427700D01*
X166139000Y-109387700D02*
X169760000Y-109387700D01*
X166151000Y-109347700D02*
X169760000Y-109347700D01*
X166163000Y-109307700D02*
X169760000Y-109307700D01*
X166176000Y-109267700D02*
X169760000Y-109267700D01*
X166190000Y-109227700D02*
X169760000Y-109227700D01*
X166203000Y-109187700D02*
X169760000Y-109187700D01*
X166218000Y-109147700D02*
X169760000Y-109147700D01*
X166232000Y-109107700D02*
X169760000Y-109107700D01*
X166247000Y-109067700D02*
X169760000Y-109067700D01*
X166262000Y-109027700D02*
X169760000Y-109027700D01*
X166278000Y-108987700D02*
X169760000Y-108987700D01*
X166294000Y-108947700D02*
X169760000Y-108947700D01*
X166310000Y-108907700D02*
X169760000Y-108907700D01*
X166327000Y-108867700D02*
X169760000Y-108867700D01*
X166344000Y-108827700D02*
X169760000Y-108827700D01*
X166362000Y-108787700D02*
X169760000Y-108787700D01*
X166380000Y-108747700D02*
X169760000Y-108747700D01*
X166398000Y-108707700D02*
X169760000Y-108707700D01*
X166417000Y-108667700D02*
X169760000Y-108667700D01*
X166436000Y-108627700D02*
X169760000Y-108627700D01*
X166456000Y-108587700D02*
X169760000Y-108587700D01*
X166476000Y-108547700D02*
X169760000Y-108547700D01*
X166496000Y-108507700D02*
X169760000Y-108507700D01*
X166517000Y-108467700D02*
X169760000Y-108467700D01*
X166539000Y-108427700D02*
X169760000Y-108427700D01*
X166561000Y-108387700D02*
X169760000Y-108387700D01*
X166583000Y-108347700D02*
X169760000Y-108347700D01*
X166606000Y-108307700D02*
X169760000Y-108307700D01*
X166629000Y-108267700D02*
X169760000Y-108267700D01*
X166653000Y-108227700D02*
X169760000Y-108227700D01*
X166677000Y-108187700D02*
X169760000Y-108187700D01*
X166702000Y-108147700D02*
X169760000Y-108147700D01*
X166728000Y-108107700D02*
X169760000Y-108107700D01*
X166753000Y-108067700D02*
X169760000Y-108067700D01*
X166780000Y-108027700D02*
X169760000Y-108027700D01*
X166807000Y-107987700D02*
X169760000Y-107987700D01*
X166834000Y-107947700D02*
X169760000Y-107947700D01*
X166862000Y-107907700D02*
X169760000Y-107907700D01*
X166891000Y-107867700D02*
X169760000Y-107867700D01*
X166920000Y-107827700D02*
X169760000Y-107827700D01*
X166950000Y-107787700D02*
X169760000Y-107787700D01*
X166980000Y-107747700D02*
X169760000Y-107747700D01*
X167012000Y-107707700D02*
X169760000Y-107707700D01*
X167043000Y-107667700D02*
X169760000Y-107667700D01*
X167076000Y-107627700D02*
X169760000Y-107627700D01*
X167109000Y-107587700D02*
X169760000Y-107587700D01*
X167142000Y-107547700D02*
X169760000Y-107547700D01*
X167177000Y-107507700D02*
X169760000Y-107507700D01*
X167212000Y-107467700D02*
X169760000Y-107467700D01*
X167248000Y-107427700D02*
X169760000Y-107427700D01*
X167284000Y-107387700D02*
X169760000Y-107387700D01*
X167322000Y-107347700D02*
X169760000Y-107347700D01*
X167360000Y-107307700D02*
X169760000Y-107307700D01*
X167399000Y-107267700D02*
X169760000Y-107267700D01*
X167439000Y-107227700D02*
X169760000Y-107227700D01*
X167480000Y-107187700D02*
X169760000Y-107187700D01*
X167522000Y-107147700D02*
X169760000Y-107147700D01*
X167565000Y-107107700D02*
X174435000Y-107107700D01*
X167609000Y-107067700D02*
X174391000Y-107067700D01*
X167625000Y-115847346D02*
X168625000Y-115847346D01*
X167653000Y-107027700D02*
X174347000Y-107027700D01*
X167699000Y-106987700D02*
X174301000Y-106987700D01*
X167746000Y-106947700D02*
X174254000Y-106947700D01*
X167795000Y-106907700D02*
X174205000Y-106907700D01*
X167844000Y-106867700D02*
X174156000Y-106867700D01*
X167895000Y-106827700D02*
X174105000Y-106827700D01*
X167947000Y-106787700D02*
X174053000Y-106787700D01*
X168000000Y-106747700D02*
X174000000Y-106747700D01*
X168055000Y-106707700D02*
X173945000Y-106707700D01*
X168112000Y-106667700D02*
X173888000Y-106667700D01*
X168125000Y-116347346D02*
X168125000Y-115347346D01*
X168170000Y-106627700D02*
X173830000Y-106627700D01*
X168230000Y-106587700D02*
X173770000Y-106587700D01*
X168292000Y-106547700D02*
X173708000Y-106547700D01*
X168356000Y-106507700D02*
X173644000Y-106507700D01*
X168422000Y-106467700D02*
X173578000Y-106467700D01*
X168490000Y-106427700D02*
X173510000Y-106427700D01*
X168561000Y-106387700D02*
X173439000Y-106387700D01*
X168635000Y-106347700D02*
X173365000Y-106347700D01*
X168712000Y-106307700D02*
X173288000Y-106307700D01*
X168792000Y-106267700D02*
X173208000Y-106267700D01*
X168876000Y-106227700D02*
X173124000Y-106227700D01*
X168963000Y-106187700D02*
X173037000Y-106187700D01*
X169056000Y-106147700D02*
X172944000Y-106147700D01*
X169154000Y-106107700D02*
X172846000Y-106107700D01*
X169258000Y-106067700D02*
X172742000Y-106067700D01*
X169370000Y-106027700D02*
X172630000Y-106027700D01*
X169491000Y-105987700D02*
X172509000Y-105987700D01*
X169623000Y-105947700D02*
X172377000Y-105947700D01*
X169770000Y-105907700D02*
X172230000Y-105907700D01*
X169938000Y-105867700D02*
X172062000Y-105867700D01*
X170138000Y-105827700D02*
X171862000Y-105827700D01*
X170401000Y-105787700D02*
X171599000Y-105787700D01*
X172240000Y-107147700D02*
X174478000Y-107147700D01*
X172240000Y-107187700D02*
X174520000Y-107187700D01*
X172240000Y-107227700D02*
X174561000Y-107227700D01*
X172240000Y-107267700D02*
X174601000Y-107267700D01*
X172240000Y-107307700D02*
X174640000Y-107307700D01*
X172240000Y-107347700D02*
X174678000Y-107347700D01*
X172240000Y-107387700D02*
X174716000Y-107387700D01*
X172240000Y-107427700D02*
X174752000Y-107427700D01*
X172240000Y-107467700D02*
X174788000Y-107467700D01*
X172240000Y-107507700D02*
X174823000Y-107507700D01*
X172240000Y-107547700D02*
X174858000Y-107547700D01*
X172240000Y-107587700D02*
X174891000Y-107587700D01*
X172240000Y-107627700D02*
X174924000Y-107627700D01*
X172240000Y-107667700D02*
X174957000Y-107667700D01*
X172240000Y-107707700D02*
X174988000Y-107707700D01*
X172240000Y-107747700D02*
X175020000Y-107747700D01*
X172240000Y-107787700D02*
X175050000Y-107787700D01*
X172240000Y-107827700D02*
X175080000Y-107827700D01*
X172240000Y-107867700D02*
X175109000Y-107867700D01*
X172240000Y-107907700D02*
X175138000Y-107907700D01*
X172240000Y-107947700D02*
X175166000Y-107947700D01*
X172240000Y-107987700D02*
X175193000Y-107987700D01*
X172240000Y-108027700D02*
X175220000Y-108027700D01*
X172240000Y-108067700D02*
X175247000Y-108067700D01*
X172240000Y-108107700D02*
X175272000Y-108107700D01*
X172240000Y-108147700D02*
X175298000Y-108147700D01*
X172240000Y-108187700D02*
X175323000Y-108187700D01*
X172240000Y-108227700D02*
X175347000Y-108227700D01*
X172240000Y-108267700D02*
X175371000Y-108267700D01*
X172240000Y-108307700D02*
X175394000Y-108307700D01*
X172240000Y-108347700D02*
X175417000Y-108347700D01*
X172240000Y-108387700D02*
X175439000Y-108387700D01*
X172240000Y-108427700D02*
X175461000Y-108427700D01*
X172240000Y-108467700D02*
X175483000Y-108467700D01*
X172240000Y-108507700D02*
X175504000Y-108507700D01*
X172240000Y-108547700D02*
X175524000Y-108547700D01*
X172240000Y-108587700D02*
X175544000Y-108587700D01*
X172240000Y-108627700D02*
X175564000Y-108627700D01*
X172240000Y-108667700D02*
X175583000Y-108667700D01*
X172240000Y-108707700D02*
X175602000Y-108707700D01*
X172240000Y-108747700D02*
X175620000Y-108747700D01*
X172240000Y-108787700D02*
X175638000Y-108787700D01*
X172240000Y-108827700D02*
X175656000Y-108827700D01*
X172240000Y-108867700D02*
X175673000Y-108867700D01*
X172240000Y-108907700D02*
X175690000Y-108907700D01*
X172240000Y-108947700D02*
X175706000Y-108947700D01*
X172240000Y-108987700D02*
X175722000Y-108987700D01*
X172240000Y-109027700D02*
X175738000Y-109027700D01*
X172240000Y-109067700D02*
X175753000Y-109067700D01*
X172240000Y-109107700D02*
X175768000Y-109107700D01*
X172240000Y-109147700D02*
X175782000Y-109147700D01*
X172240000Y-109187700D02*
X175797000Y-109187700D01*
X172240000Y-109227700D02*
X175810000Y-109227700D01*
X172240000Y-109267700D02*
X175824000Y-109267700D01*
X172240000Y-109307700D02*
X175837000Y-109307700D01*
X172240000Y-109347700D02*
X175849000Y-109347700D01*
X172240000Y-109387700D02*
X175861000Y-109387700D01*
X172240000Y-109427700D02*
X175873000Y-109427700D01*
X172240000Y-109467700D02*
X175885000Y-109467700D01*
X172240000Y-109507700D02*
X175896000Y-109507700D01*
X172240000Y-109547700D02*
X175907000Y-109547700D01*
X172240000Y-109587700D02*
X175917000Y-109587700D01*
X176120000Y-110867700D02*
G75*
G02*
X165880000Y-110867700I-5120000J0D01*
G01*
X165880000Y-110867700D02*
G75*
G02*
X176120000Y-110867700I5120000J0D01*
G01*
%TO.C,C_out1*%
X164322700Y-128533000D02*
X164322700Y-127467000D01*
X164362700Y-128768000D02*
X164362700Y-127232000D01*
X164402700Y-128947000D02*
X164402700Y-127053000D01*
X164442700Y-129097000D02*
X164442700Y-126903000D01*
X164482700Y-129228000D02*
X164482700Y-126772000D01*
X164522700Y-129346000D02*
X164522700Y-126654000D01*
X164562700Y-129453000D02*
X164562700Y-126547000D01*
X164602700Y-129552000D02*
X164602700Y-126448000D01*
X164642700Y-129644000D02*
X164642700Y-126356000D01*
X164682700Y-129731000D02*
X164682700Y-126269000D01*
X164722700Y-129813000D02*
X164722700Y-126187000D01*
X164762700Y-129890000D02*
X164762700Y-126110000D01*
X164802700Y-129964000D02*
X164802700Y-126036000D01*
X164842700Y-130034000D02*
X164842700Y-125966000D01*
X164882700Y-130101000D02*
X164882700Y-125899000D01*
X164922700Y-130165000D02*
X164922700Y-125835000D01*
X164962700Y-130227000D02*
X164962700Y-125773000D01*
X165002700Y-130287000D02*
X165002700Y-125713000D01*
X165042700Y-130344000D02*
X165042700Y-125656000D01*
X165082700Y-130400000D02*
X165082700Y-125600000D01*
X165122700Y-130453000D02*
X165122700Y-125547000D01*
X165162700Y-130505000D02*
X165162700Y-125495000D01*
X165202700Y-130555000D02*
X165202700Y-125445000D01*
X165242700Y-130604000D02*
X165242700Y-125396000D01*
X165282700Y-130651000D02*
X165282700Y-125349000D01*
X165322700Y-130696000D02*
X165322700Y-125304000D01*
X165362700Y-130741000D02*
X165362700Y-125259000D01*
X165402700Y-130784000D02*
X165402700Y-125216000D01*
X165442700Y-130826000D02*
X165442700Y-125174000D01*
X165482700Y-130867000D02*
X165482700Y-125133000D01*
X165522700Y-130906000D02*
X165522700Y-125094000D01*
X165562700Y-130945000D02*
X165562700Y-125055000D01*
X165602700Y-130982000D02*
X165602700Y-125018000D01*
X165642700Y-126960000D02*
X165642700Y-124981000D01*
X165642700Y-131019000D02*
X165642700Y-129040000D01*
X165682700Y-126960000D02*
X165682700Y-124945000D01*
X165682700Y-131055000D02*
X165682700Y-129040000D01*
X165722700Y-126960000D02*
X165722700Y-124911000D01*
X165722700Y-131089000D02*
X165722700Y-129040000D01*
X165762700Y-126960000D02*
X165762700Y-124877000D01*
X165762700Y-131123000D02*
X165762700Y-129040000D01*
X165802700Y-126960000D02*
X165802700Y-124844000D01*
X165802700Y-131156000D02*
X165802700Y-129040000D01*
X165842700Y-126960000D02*
X165842700Y-124812000D01*
X165842700Y-131188000D02*
X165842700Y-129040000D01*
X165882700Y-126960000D02*
X165882700Y-124781000D01*
X165882700Y-131219000D02*
X165882700Y-129040000D01*
X165922700Y-126960000D02*
X165922700Y-124750000D01*
X165922700Y-131250000D02*
X165922700Y-129040000D01*
X165962700Y-126960000D02*
X165962700Y-124720000D01*
X165962700Y-131280000D02*
X165962700Y-129040000D01*
X166002700Y-126960000D02*
X166002700Y-124691000D01*
X166002700Y-131309000D02*
X166002700Y-129040000D01*
X166042700Y-126960000D02*
X166042700Y-124663000D01*
X166042700Y-131337000D02*
X166042700Y-129040000D01*
X166082700Y-126960000D02*
X166082700Y-124635000D01*
X166082700Y-131365000D02*
X166082700Y-129040000D01*
X166122700Y-126960000D02*
X166122700Y-124608000D01*
X166122700Y-131392000D02*
X166122700Y-129040000D01*
X166162700Y-126960000D02*
X166162700Y-124582000D01*
X166162700Y-131418000D02*
X166162700Y-129040000D01*
X166202700Y-126960000D02*
X166202700Y-124557000D01*
X166202700Y-131443000D02*
X166202700Y-129040000D01*
X166242700Y-126960000D02*
X166242700Y-124532000D01*
X166242700Y-131468000D02*
X166242700Y-129040000D01*
X166282700Y-126960000D02*
X166282700Y-124507000D01*
X166282700Y-131493000D02*
X166282700Y-129040000D01*
X166322700Y-126960000D02*
X166322700Y-124484000D01*
X166322700Y-131516000D02*
X166322700Y-129040000D01*
X166362700Y-126960000D02*
X166362700Y-124461000D01*
X166362700Y-131539000D02*
X166362700Y-129040000D01*
X166402700Y-126960000D02*
X166402700Y-124438000D01*
X166402700Y-131562000D02*
X166402700Y-129040000D01*
X166442700Y-126960000D02*
X166442700Y-124416000D01*
X166442700Y-131584000D02*
X166442700Y-129040000D01*
X166482700Y-126960000D02*
X166482700Y-124395000D01*
X166482700Y-131605000D02*
X166482700Y-129040000D01*
X166522700Y-126960000D02*
X166522700Y-124374000D01*
X166522700Y-131626000D02*
X166522700Y-129040000D01*
X166562700Y-126960000D02*
X166562700Y-124354000D01*
X166562700Y-131646000D02*
X166562700Y-129040000D01*
X166602700Y-126960000D02*
X166602700Y-124334000D01*
X166602700Y-131666000D02*
X166602700Y-129040000D01*
X166642700Y-126960000D02*
X166642700Y-124315000D01*
X166642700Y-131685000D02*
X166642700Y-129040000D01*
X166682700Y-126960000D02*
X166682700Y-124296000D01*
X166682700Y-131704000D02*
X166682700Y-129040000D01*
X166722700Y-126960000D02*
X166722700Y-124278000D01*
X166722700Y-131722000D02*
X166722700Y-129040000D01*
X166762700Y-126960000D02*
X166762700Y-124260000D01*
X166762700Y-131740000D02*
X166762700Y-129040000D01*
X166802700Y-126960000D02*
X166802700Y-124243000D01*
X166802700Y-131757000D02*
X166802700Y-129040000D01*
X166842700Y-126960000D02*
X166842700Y-124227000D01*
X166842700Y-131773000D02*
X166842700Y-129040000D01*
X166882700Y-126960000D02*
X166882700Y-124211000D01*
X166882700Y-131789000D02*
X166882700Y-129040000D01*
X166922700Y-126960000D02*
X166922700Y-124195000D01*
X166922700Y-131805000D02*
X166922700Y-129040000D01*
X166962700Y-126960000D02*
X166962700Y-124180000D01*
X166962700Y-131820000D02*
X166962700Y-129040000D01*
X167002700Y-126960000D02*
X167002700Y-124165000D01*
X167002700Y-131835000D02*
X167002700Y-129040000D01*
X167042700Y-126960000D02*
X167042700Y-124151000D01*
X167042700Y-131849000D02*
X167042700Y-129040000D01*
X167082700Y-126960000D02*
X167082700Y-124137000D01*
X167082700Y-131863000D02*
X167082700Y-129040000D01*
X167122700Y-126960000D02*
X167122700Y-124124000D01*
X167122700Y-131876000D02*
X167122700Y-129040000D01*
X167162700Y-126960000D02*
X167162700Y-124111000D01*
X167162700Y-131889000D02*
X167162700Y-129040000D01*
X167202700Y-126960000D02*
X167202700Y-124099000D01*
X167202700Y-131901000D02*
X167202700Y-129040000D01*
X167242700Y-126960000D02*
X167242700Y-124087000D01*
X167242700Y-131913000D02*
X167242700Y-129040000D01*
X167282700Y-126960000D02*
X167282700Y-124075000D01*
X167282700Y-131925000D02*
X167282700Y-129040000D01*
X167322700Y-126960000D02*
X167322700Y-124064000D01*
X167322700Y-131936000D02*
X167322700Y-129040000D01*
X167362700Y-126960000D02*
X167362700Y-124053000D01*
X167362700Y-131947000D02*
X167362700Y-129040000D01*
X167402700Y-126960000D02*
X167402700Y-124043000D01*
X167402700Y-131957000D02*
X167402700Y-129040000D01*
X167442700Y-126960000D02*
X167442700Y-124033000D01*
X167442700Y-131967000D02*
X167442700Y-129040000D01*
X167482700Y-126960000D02*
X167482700Y-124024000D01*
X167482700Y-131976000D02*
X167482700Y-129040000D01*
X167522700Y-126960000D02*
X167522700Y-124015000D01*
X167522700Y-131985000D02*
X167522700Y-129040000D01*
X167562700Y-126960000D02*
X167562700Y-124007000D01*
X167562700Y-131993000D02*
X167562700Y-129040000D01*
X167602700Y-126960000D02*
X167602700Y-123998000D01*
X167602700Y-132002000D02*
X167602700Y-129040000D01*
X167642700Y-126960000D02*
X167642700Y-123991000D01*
X167642700Y-132009000D02*
X167642700Y-129040000D01*
X167682700Y-126960000D02*
X167682700Y-123983000D01*
X167682700Y-132017000D02*
X167682700Y-129040000D01*
X167722700Y-132023000D02*
X167722700Y-123977000D01*
X167762700Y-132030000D02*
X167762700Y-123970000D01*
X167802700Y-132036000D02*
X167802700Y-123964000D01*
X167842700Y-132042000D02*
X167842700Y-123958000D01*
X167882700Y-132047000D02*
X167882700Y-123953000D01*
X167922700Y-132052000D02*
X167922700Y-123948000D01*
X167962700Y-132056000D02*
X167962700Y-123944000D01*
X168002700Y-132061000D02*
X168002700Y-123939000D01*
X168042700Y-132064000D02*
X168042700Y-123936000D01*
X168082700Y-132068000D02*
X168082700Y-123932000D01*
X168122700Y-132070000D02*
X168122700Y-123930000D01*
X168162700Y-132073000D02*
X168162700Y-123927000D01*
X168202700Y-132075000D02*
X168202700Y-123925000D01*
X168242700Y-132077000D02*
X168242700Y-123923000D01*
X168282700Y-132078000D02*
X168282700Y-123922000D01*
X168322700Y-132079000D02*
X168322700Y-123921000D01*
X168362700Y-132080000D02*
X168362700Y-123920000D01*
X168402700Y-132080000D02*
X168402700Y-123920000D01*
X172412398Y-130715000D02*
X172412398Y-129915000D01*
X172812398Y-130315000D02*
X172012398Y-130315000D01*
X172522700Y-128000000D02*
G75*
G02*
X164282700Y-128000000I-4120000J0D01*
G01*
X164282700Y-128000000D02*
G75*
G02*
X172522700Y-128000000I4120000J0D01*
G01*
%TO.C,R3*%
X145630000Y-89230000D02*
X145960000Y-89230000D01*
X145630000Y-95770000D02*
X145630000Y-89230000D01*
X145960000Y-95770000D02*
X145630000Y-95770000D01*
X148040000Y-95770000D02*
X148370000Y-95770000D01*
X148370000Y-89230000D02*
X148040000Y-89230000D01*
X148370000Y-95770000D02*
X148370000Y-89230000D01*
%TO.C,C10*%
X187920000Y-103327700D02*
X198080000Y-103327700D01*
X187920000Y-103367700D02*
X198080000Y-103367700D01*
X187921000Y-103247700D02*
X198079000Y-103247700D01*
X187921000Y-103287700D02*
X198079000Y-103287700D01*
X187923000Y-103207700D02*
X198077000Y-103207700D01*
X187924000Y-103167700D02*
X198076000Y-103167700D01*
X187926000Y-103127700D02*
X198074000Y-103127700D01*
X187928000Y-103087700D02*
X198072000Y-103087700D01*
X187930000Y-103047700D02*
X198070000Y-103047700D01*
X187933000Y-103007700D02*
X198067000Y-103007700D01*
X187936000Y-102967700D02*
X198064000Y-102967700D01*
X187939000Y-102927700D02*
X198061000Y-102927700D01*
X187943000Y-102887700D02*
X198057000Y-102887700D01*
X187946000Y-102847700D02*
X198054000Y-102847700D01*
X187951000Y-102807700D02*
X198049000Y-102807700D01*
X187955000Y-102767700D02*
X198045000Y-102767700D01*
X187960000Y-102727700D02*
X198040000Y-102727700D01*
X187965000Y-102687700D02*
X198035000Y-102687700D01*
X187971000Y-102647700D02*
X198029000Y-102647700D01*
X187977000Y-102607700D02*
X198023000Y-102607700D01*
X187983000Y-102567700D02*
X198017000Y-102567700D01*
X187989000Y-102527700D02*
X198011000Y-102527700D01*
X187996000Y-102487700D02*
X198004000Y-102487700D01*
X188003000Y-102447700D02*
X197997000Y-102447700D01*
X188011000Y-102407700D02*
X197989000Y-102407700D01*
X188019000Y-102367700D02*
X197981000Y-102367700D01*
X188027000Y-102327700D02*
X197973000Y-102327700D01*
X188035000Y-102287700D02*
X197965000Y-102287700D01*
X188044000Y-102247700D02*
X197956000Y-102247700D01*
X188053000Y-102207700D02*
X197947000Y-102207700D01*
X188063000Y-102167700D02*
X197937000Y-102167700D01*
X188072000Y-102127700D02*
X197928000Y-102127700D01*
X188083000Y-102087700D02*
X191760000Y-102087700D01*
X188093000Y-102047700D02*
X191760000Y-102047700D01*
X188104000Y-102007700D02*
X191760000Y-102007700D01*
X188115000Y-101967700D02*
X191760000Y-101967700D01*
X188127000Y-101927700D02*
X191760000Y-101927700D01*
X188139000Y-101887700D02*
X191760000Y-101887700D01*
X188151000Y-101847700D02*
X191760000Y-101847700D01*
X188163000Y-101807700D02*
X191760000Y-101807700D01*
X188176000Y-101767700D02*
X191760000Y-101767700D01*
X188190000Y-101727700D02*
X191760000Y-101727700D01*
X188203000Y-101687700D02*
X191760000Y-101687700D01*
X188218000Y-101647700D02*
X191760000Y-101647700D01*
X188232000Y-101607700D02*
X191760000Y-101607700D01*
X188247000Y-101567700D02*
X191760000Y-101567700D01*
X188262000Y-101527700D02*
X191760000Y-101527700D01*
X188278000Y-101487700D02*
X191760000Y-101487700D01*
X188294000Y-101447700D02*
X191760000Y-101447700D01*
X188310000Y-101407700D02*
X191760000Y-101407700D01*
X188327000Y-101367700D02*
X191760000Y-101367700D01*
X188344000Y-101327700D02*
X191760000Y-101327700D01*
X188362000Y-101287700D02*
X191760000Y-101287700D01*
X188380000Y-101247700D02*
X191760000Y-101247700D01*
X188398000Y-101207700D02*
X191760000Y-101207700D01*
X188417000Y-101167700D02*
X191760000Y-101167700D01*
X188436000Y-101127700D02*
X191760000Y-101127700D01*
X188456000Y-101087700D02*
X191760000Y-101087700D01*
X188476000Y-101047700D02*
X191760000Y-101047700D01*
X188496000Y-101007700D02*
X191760000Y-101007700D01*
X188517000Y-100967700D02*
X191760000Y-100967700D01*
X188539000Y-100927700D02*
X191760000Y-100927700D01*
X188561000Y-100887700D02*
X191760000Y-100887700D01*
X188583000Y-100847700D02*
X191760000Y-100847700D01*
X188606000Y-100807700D02*
X191760000Y-100807700D01*
X188629000Y-100767700D02*
X191760000Y-100767700D01*
X188653000Y-100727700D02*
X191760000Y-100727700D01*
X188677000Y-100687700D02*
X191760000Y-100687700D01*
X188702000Y-100647700D02*
X191760000Y-100647700D01*
X188728000Y-100607700D02*
X191760000Y-100607700D01*
X188753000Y-100567700D02*
X191760000Y-100567700D01*
X188780000Y-100527700D02*
X191760000Y-100527700D01*
X188807000Y-100487700D02*
X191760000Y-100487700D01*
X188834000Y-100447700D02*
X191760000Y-100447700D01*
X188862000Y-100407700D02*
X191760000Y-100407700D01*
X188891000Y-100367700D02*
X191760000Y-100367700D01*
X188920000Y-100327700D02*
X191760000Y-100327700D01*
X188950000Y-100287700D02*
X191760000Y-100287700D01*
X188980000Y-100247700D02*
X191760000Y-100247700D01*
X189012000Y-100207700D02*
X191760000Y-100207700D01*
X189043000Y-100167700D02*
X191760000Y-100167700D01*
X189076000Y-100127700D02*
X191760000Y-100127700D01*
X189109000Y-100087700D02*
X191760000Y-100087700D01*
X189142000Y-100047700D02*
X191760000Y-100047700D01*
X189177000Y-100007700D02*
X191760000Y-100007700D01*
X189212000Y-99967700D02*
X191760000Y-99967700D01*
X189248000Y-99927700D02*
X191760000Y-99927700D01*
X189284000Y-99887700D02*
X191760000Y-99887700D01*
X189322000Y-99847700D02*
X191760000Y-99847700D01*
X189360000Y-99807700D02*
X191760000Y-99807700D01*
X189399000Y-99767700D02*
X191760000Y-99767700D01*
X189439000Y-99727700D02*
X191760000Y-99727700D01*
X189480000Y-99687700D02*
X191760000Y-99687700D01*
X189522000Y-99647700D02*
X191760000Y-99647700D01*
X189565000Y-99607700D02*
X196435000Y-99607700D01*
X189609000Y-99567700D02*
X196391000Y-99567700D01*
X189625000Y-108347346D02*
X190625000Y-108347346D01*
X189653000Y-99527700D02*
X196347000Y-99527700D01*
X189699000Y-99487700D02*
X196301000Y-99487700D01*
X189746000Y-99447700D02*
X196254000Y-99447700D01*
X189795000Y-99407700D02*
X196205000Y-99407700D01*
X189844000Y-99367700D02*
X196156000Y-99367700D01*
X189895000Y-99327700D02*
X196105000Y-99327700D01*
X189947000Y-99287700D02*
X196053000Y-99287700D01*
X190000000Y-99247700D02*
X196000000Y-99247700D01*
X190055000Y-99207700D02*
X195945000Y-99207700D01*
X190112000Y-99167700D02*
X195888000Y-99167700D01*
X190125000Y-108847346D02*
X190125000Y-107847346D01*
X190170000Y-99127700D02*
X195830000Y-99127700D01*
X190230000Y-99087700D02*
X195770000Y-99087700D01*
X190292000Y-99047700D02*
X195708000Y-99047700D01*
X190356000Y-99007700D02*
X195644000Y-99007700D01*
X190422000Y-98967700D02*
X195578000Y-98967700D01*
X190490000Y-98927700D02*
X195510000Y-98927700D01*
X190561000Y-98887700D02*
X195439000Y-98887700D01*
X190635000Y-98847700D02*
X195365000Y-98847700D01*
X190712000Y-98807700D02*
X195288000Y-98807700D01*
X190792000Y-98767700D02*
X195208000Y-98767700D01*
X190876000Y-98727700D02*
X195124000Y-98727700D01*
X190963000Y-98687700D02*
X195037000Y-98687700D01*
X191056000Y-98647700D02*
X194944000Y-98647700D01*
X191154000Y-98607700D02*
X194846000Y-98607700D01*
X191258000Y-98567700D02*
X194742000Y-98567700D01*
X191370000Y-98527700D02*
X194630000Y-98527700D01*
X191491000Y-98487700D02*
X194509000Y-98487700D01*
X191623000Y-98447700D02*
X194377000Y-98447700D01*
X191770000Y-98407700D02*
X194230000Y-98407700D01*
X191938000Y-98367700D02*
X194062000Y-98367700D01*
X192138000Y-98327700D02*
X193862000Y-98327700D01*
X192401000Y-98287700D02*
X193599000Y-98287700D01*
X194240000Y-99647700D02*
X196478000Y-99647700D01*
X194240000Y-99687700D02*
X196520000Y-99687700D01*
X194240000Y-99727700D02*
X196561000Y-99727700D01*
X194240000Y-99767700D02*
X196601000Y-99767700D01*
X194240000Y-99807700D02*
X196640000Y-99807700D01*
X194240000Y-99847700D02*
X196678000Y-99847700D01*
X194240000Y-99887700D02*
X196716000Y-99887700D01*
X194240000Y-99927700D02*
X196752000Y-99927700D01*
X194240000Y-99967700D02*
X196788000Y-99967700D01*
X194240000Y-100007700D02*
X196823000Y-100007700D01*
X194240000Y-100047700D02*
X196858000Y-100047700D01*
X194240000Y-100087700D02*
X196891000Y-100087700D01*
X194240000Y-100127700D02*
X196924000Y-100127700D01*
X194240000Y-100167700D02*
X196957000Y-100167700D01*
X194240000Y-100207700D02*
X196988000Y-100207700D01*
X194240000Y-100247700D02*
X197020000Y-100247700D01*
X194240000Y-100287700D02*
X197050000Y-100287700D01*
X194240000Y-100327700D02*
X197080000Y-100327700D01*
X194240000Y-100367700D02*
X197109000Y-100367700D01*
X194240000Y-100407700D02*
X197138000Y-100407700D01*
X194240000Y-100447700D02*
X197166000Y-100447700D01*
X194240000Y-100487700D02*
X197193000Y-100487700D01*
X194240000Y-100527700D02*
X197220000Y-100527700D01*
X194240000Y-100567700D02*
X197247000Y-100567700D01*
X194240000Y-100607700D02*
X197272000Y-100607700D01*
X194240000Y-100647700D02*
X197298000Y-100647700D01*
X194240000Y-100687700D02*
X197323000Y-100687700D01*
X194240000Y-100727700D02*
X197347000Y-100727700D01*
X194240000Y-100767700D02*
X197371000Y-100767700D01*
X194240000Y-100807700D02*
X197394000Y-100807700D01*
X194240000Y-100847700D02*
X197417000Y-100847700D01*
X194240000Y-100887700D02*
X197439000Y-100887700D01*
X194240000Y-100927700D02*
X197461000Y-100927700D01*
X194240000Y-100967700D02*
X197483000Y-100967700D01*
X194240000Y-101007700D02*
X197504000Y-101007700D01*
X194240000Y-101047700D02*
X197524000Y-101047700D01*
X194240000Y-101087700D02*
X197544000Y-101087700D01*
X194240000Y-101127700D02*
X197564000Y-101127700D01*
X194240000Y-101167700D02*
X197583000Y-101167700D01*
X194240000Y-101207700D02*
X197602000Y-101207700D01*
X194240000Y-101247700D02*
X197620000Y-101247700D01*
X194240000Y-101287700D02*
X197638000Y-101287700D01*
X194240000Y-101327700D02*
X197656000Y-101327700D01*
X194240000Y-101367700D02*
X197673000Y-101367700D01*
X194240000Y-101407700D02*
X197690000Y-101407700D01*
X194240000Y-101447700D02*
X197706000Y-101447700D01*
X194240000Y-101487700D02*
X197722000Y-101487700D01*
X194240000Y-101527700D02*
X197738000Y-101527700D01*
X194240000Y-101567700D02*
X197753000Y-101567700D01*
X194240000Y-101607700D02*
X197768000Y-101607700D01*
X194240000Y-101647700D02*
X197782000Y-101647700D01*
X194240000Y-101687700D02*
X197797000Y-101687700D01*
X194240000Y-101727700D02*
X197810000Y-101727700D01*
X194240000Y-101767700D02*
X197824000Y-101767700D01*
X194240000Y-101807700D02*
X197837000Y-101807700D01*
X194240000Y-101847700D02*
X197849000Y-101847700D01*
X194240000Y-101887700D02*
X197861000Y-101887700D01*
X194240000Y-101927700D02*
X197873000Y-101927700D01*
X194240000Y-101967700D02*
X197885000Y-101967700D01*
X194240000Y-102007700D02*
X197896000Y-102007700D01*
X194240000Y-102047700D02*
X197907000Y-102047700D01*
X194240000Y-102087700D02*
X197917000Y-102087700D01*
X198120000Y-103367700D02*
G75*
G02*
X187880000Y-103367700I-5120000J0D01*
G01*
X187880000Y-103367700D02*
G75*
G02*
X198120000Y-103367700I5120000J0D01*
G01*
%TO.C,C14*%
X178380000Y-118130000D02*
X183620000Y-118130000D01*
X178380000Y-118467000D02*
X178380000Y-118130000D01*
X178380000Y-120870000D02*
X178380000Y-120533000D01*
X183620000Y-118130000D02*
X183620000Y-118467000D01*
X183620000Y-120533000D02*
X183620000Y-120870000D01*
X183620000Y-120870000D02*
X178380000Y-120870000D01*
%TO.C,R7*%
X192630000Y-124730000D02*
X192630000Y-131270000D01*
X192630000Y-131270000D02*
X192960000Y-131270000D01*
X192960000Y-124730000D02*
X192630000Y-124730000D01*
X195040000Y-124730000D02*
X195370000Y-124730000D01*
X195370000Y-124730000D02*
X195370000Y-131270000D01*
X195370000Y-131270000D02*
X195040000Y-131270000D01*
%TO.C,JP3*%
X189620000Y-59845000D02*
X191000000Y-59845000D01*
X189620000Y-61225000D02*
X189620000Y-59845000D01*
X189620000Y-62495000D02*
X189620000Y-65145000D01*
X189620000Y-62495000D02*
X192380000Y-62495000D01*
X189620000Y-65145000D02*
X192380000Y-65145000D01*
X192380000Y-62495000D02*
X192380000Y-65145000D01*
%TO.C,J1*%
X101840000Y-43110000D02*
X101840000Y-50730000D01*
X101840000Y-44380000D02*
X112000000Y-44380000D01*
X101840000Y-50730000D02*
X112000000Y-50730000D01*
X112000000Y-43110000D02*
X101840000Y-43110000D01*
X112000000Y-50730000D02*
X112000000Y-43110000D01*
%TO.C,J3*%
X138760000Y-43110000D02*
X154000000Y-43110000D01*
X138760000Y-49460000D02*
X154000000Y-49460000D01*
X138760000Y-50730000D02*
X138760000Y-43110000D01*
X138760000Y-50730000D02*
X154000000Y-50730000D01*
X154000000Y-50730000D02*
X154000000Y-43110000D01*
%TO.C,R9*%
X157630000Y-62230000D02*
X157960000Y-62230000D01*
X157630000Y-68770000D02*
X157630000Y-62230000D01*
X157960000Y-68770000D02*
X157630000Y-68770000D01*
X160040000Y-68770000D02*
X160370000Y-68770000D01*
X160370000Y-62230000D02*
X160040000Y-62230000D01*
X160370000Y-68770000D02*
X160370000Y-62230000D01*
%TO.C,C12*%
X177630000Y-98380000D02*
X177967000Y-98380000D01*
X177630000Y-103620000D02*
X177630000Y-98380000D01*
X177967000Y-103620000D02*
X177630000Y-103620000D01*
X180033000Y-98380000D02*
X180370000Y-98380000D01*
X180370000Y-98380000D02*
X180370000Y-103620000D01*
X180370000Y-103620000D02*
X180033000Y-103620000D01*
%TO.C,C2_1*%
X104280000Y-80130000D02*
X111720000Y-80130000D01*
X104280000Y-85870000D02*
X104280000Y-80130000D01*
X111720000Y-80130000D02*
X111720000Y-85870000D01*
X111720000Y-85870000D02*
X104280000Y-85870000D01*
%TO.C,J6*%
X146300000Y-124190000D02*
X161540000Y-124190000D01*
X146300000Y-130540000D02*
X161540000Y-130540000D01*
X146300000Y-131810000D02*
X146300000Y-124190000D01*
X146300000Y-131810000D02*
X161540000Y-131810000D01*
X161540000Y-131810000D02*
X161540000Y-124190000D01*
%TO.C,J5*%
X125220000Y-124190000D02*
X140460000Y-124190000D01*
X125220000Y-130540000D02*
X140460000Y-130540000D01*
X125220000Y-131810000D02*
X125220000Y-124190000D01*
X125220000Y-131810000D02*
X140460000Y-131810000D01*
X140460000Y-131810000D02*
X140460000Y-124190000D01*
%TO.C,R8*%
X157130000Y-88730000D02*
X157460000Y-88730000D01*
X157130000Y-95270000D02*
X157130000Y-88730000D01*
X157460000Y-95270000D02*
X157130000Y-95270000D01*
X159540000Y-95270000D02*
X159870000Y-95270000D01*
X159870000Y-88730000D02*
X159540000Y-88730000D01*
X159870000Y-95270000D02*
X159870000Y-88730000D01*
%TO.C,J2*%
X114840000Y-43110000D02*
X114840000Y-50730000D01*
X114840000Y-44380000D02*
X125000000Y-44380000D01*
X114840000Y-50730000D02*
X125000000Y-50730000D01*
X125000000Y-43110000D02*
X114840000Y-43110000D01*
X125000000Y-50730000D02*
X125000000Y-43110000D01*
%TO.C,C15*%
X156152654Y-77125000D02*
X157152654Y-77125000D01*
X156652654Y-76625000D02*
X156652654Y-77625000D01*
X161632300Y-74920000D02*
X161632300Y-85080000D01*
X161672300Y-74920000D02*
X161672300Y-85080000D01*
X161712300Y-74921000D02*
X161712300Y-85079000D01*
X161752300Y-74921000D02*
X161752300Y-85079000D01*
X161792300Y-74923000D02*
X161792300Y-85077000D01*
X161832300Y-74924000D02*
X161832300Y-85076000D01*
X161872300Y-74926000D02*
X161872300Y-85074000D01*
X161912300Y-74928000D02*
X161912300Y-85072000D01*
X161952300Y-74930000D02*
X161952300Y-85070000D01*
X161992300Y-74933000D02*
X161992300Y-85067000D01*
X162032300Y-74936000D02*
X162032300Y-85064000D01*
X162072300Y-74939000D02*
X162072300Y-85061000D01*
X162112300Y-74943000D02*
X162112300Y-85057000D01*
X162152300Y-74946000D02*
X162152300Y-85054000D01*
X162192300Y-74951000D02*
X162192300Y-85049000D01*
X162232300Y-74955000D02*
X162232300Y-85045000D01*
X162272300Y-74960000D02*
X162272300Y-85040000D01*
X162312300Y-74965000D02*
X162312300Y-85035000D01*
X162352300Y-74971000D02*
X162352300Y-85029000D01*
X162392300Y-74977000D02*
X162392300Y-85023000D01*
X162432300Y-74983000D02*
X162432300Y-85017000D01*
X162472300Y-74989000D02*
X162472300Y-85011000D01*
X162512300Y-74996000D02*
X162512300Y-85004000D01*
X162552300Y-75003000D02*
X162552300Y-84997000D01*
X162592300Y-75011000D02*
X162592300Y-84989000D01*
X162632300Y-75019000D02*
X162632300Y-84981000D01*
X162672300Y-75027000D02*
X162672300Y-84973000D01*
X162712300Y-75035000D02*
X162712300Y-84965000D01*
X162752300Y-75044000D02*
X162752300Y-84956000D01*
X162792300Y-75053000D02*
X162792300Y-84947000D01*
X162832300Y-75063000D02*
X162832300Y-84937000D01*
X162872300Y-75072000D02*
X162872300Y-84928000D01*
X162912300Y-75083000D02*
X162912300Y-78760000D01*
X162912300Y-81240000D02*
X162912300Y-84917000D01*
X162952300Y-75093000D02*
X162952300Y-78760000D01*
X162952300Y-81240000D02*
X162952300Y-84907000D01*
X162992300Y-75104000D02*
X162992300Y-78760000D01*
X162992300Y-81240000D02*
X162992300Y-84896000D01*
X163032300Y-75115000D02*
X163032300Y-78760000D01*
X163032300Y-81240000D02*
X163032300Y-84885000D01*
X163072300Y-75127000D02*
X163072300Y-78760000D01*
X163072300Y-81240000D02*
X163072300Y-84873000D01*
X163112300Y-75139000D02*
X163112300Y-78760000D01*
X163112300Y-81240000D02*
X163112300Y-84861000D01*
X163152300Y-75151000D02*
X163152300Y-78760000D01*
X163152300Y-81240000D02*
X163152300Y-84849000D01*
X163192300Y-75163000D02*
X163192300Y-78760000D01*
X163192300Y-81240000D02*
X163192300Y-84837000D01*
X163232300Y-75176000D02*
X163232300Y-78760000D01*
X163232300Y-81240000D02*
X163232300Y-84824000D01*
X163272300Y-75190000D02*
X163272300Y-78760000D01*
X163272300Y-81240000D02*
X163272300Y-84810000D01*
X163312300Y-75203000D02*
X163312300Y-78760000D01*
X163312300Y-81240000D02*
X163312300Y-84797000D01*
X163352300Y-75218000D02*
X163352300Y-78760000D01*
X163352300Y-81240000D02*
X163352300Y-84782000D01*
X163392300Y-75232000D02*
X163392300Y-78760000D01*
X163392300Y-81240000D02*
X163392300Y-84768000D01*
X163432300Y-75247000D02*
X163432300Y-78760000D01*
X163432300Y-81240000D02*
X163432300Y-84753000D01*
X163472300Y-75262000D02*
X163472300Y-78760000D01*
X163472300Y-81240000D02*
X163472300Y-84738000D01*
X163512300Y-75278000D02*
X163512300Y-78760000D01*
X163512300Y-81240000D02*
X163512300Y-84722000D01*
X163552300Y-75294000D02*
X163552300Y-78760000D01*
X163552300Y-81240000D02*
X163552300Y-84706000D01*
X163592300Y-75310000D02*
X163592300Y-78760000D01*
X163592300Y-81240000D02*
X163592300Y-84690000D01*
X163632300Y-75327000D02*
X163632300Y-78760000D01*
X163632300Y-81240000D02*
X163632300Y-84673000D01*
X163672300Y-75344000D02*
X163672300Y-78760000D01*
X163672300Y-81240000D02*
X163672300Y-84656000D01*
X163712300Y-75362000D02*
X163712300Y-78760000D01*
X163712300Y-81240000D02*
X163712300Y-84638000D01*
X163752300Y-75380000D02*
X163752300Y-78760000D01*
X163752300Y-81240000D02*
X163752300Y-84620000D01*
X163792300Y-75398000D02*
X163792300Y-78760000D01*
X163792300Y-81240000D02*
X163792300Y-84602000D01*
X163832300Y-75417000D02*
X163832300Y-78760000D01*
X163832300Y-81240000D02*
X163832300Y-84583000D01*
X163872300Y-75436000D02*
X163872300Y-78760000D01*
X163872300Y-81240000D02*
X163872300Y-84564000D01*
X163912300Y-75456000D02*
X163912300Y-78760000D01*
X163912300Y-81240000D02*
X163912300Y-84544000D01*
X163952300Y-75476000D02*
X163952300Y-78760000D01*
X163952300Y-81240000D02*
X163952300Y-84524000D01*
X163992300Y-75496000D02*
X163992300Y-78760000D01*
X163992300Y-81240000D02*
X163992300Y-84504000D01*
X164032300Y-75517000D02*
X164032300Y-78760000D01*
X164032300Y-81240000D02*
X164032300Y-84483000D01*
X164072300Y-75539000D02*
X164072300Y-78760000D01*
X164072300Y-81240000D02*
X164072300Y-84461000D01*
X164112300Y-75561000D02*
X164112300Y-78760000D01*
X164112300Y-81240000D02*
X164112300Y-84439000D01*
X164152300Y-75583000D02*
X164152300Y-78760000D01*
X164152300Y-81240000D02*
X164152300Y-84417000D01*
X164192300Y-75606000D02*
X164192300Y-78760000D01*
X164192300Y-81240000D02*
X164192300Y-84394000D01*
X164232300Y-75629000D02*
X164232300Y-78760000D01*
X164232300Y-81240000D02*
X164232300Y-84371000D01*
X164272300Y-75653000D02*
X164272300Y-78760000D01*
X164272300Y-81240000D02*
X164272300Y-84347000D01*
X164312300Y-75677000D02*
X164312300Y-78760000D01*
X164312300Y-81240000D02*
X164312300Y-84323000D01*
X164352300Y-75702000D02*
X164352300Y-78760000D01*
X164352300Y-81240000D02*
X164352300Y-84298000D01*
X164392300Y-75728000D02*
X164392300Y-78760000D01*
X164392300Y-81240000D02*
X164392300Y-84272000D01*
X164432300Y-75753000D02*
X164432300Y-78760000D01*
X164432300Y-81240000D02*
X164432300Y-84247000D01*
X164472300Y-75780000D02*
X164472300Y-78760000D01*
X164472300Y-81240000D02*
X164472300Y-84220000D01*
X164512300Y-75807000D02*
X164512300Y-78760000D01*
X164512300Y-81240000D02*
X164512300Y-84193000D01*
X164552300Y-75834000D02*
X164552300Y-78760000D01*
X164552300Y-81240000D02*
X164552300Y-84166000D01*
X164592300Y-75862000D02*
X164592300Y-78760000D01*
X164592300Y-81240000D02*
X164592300Y-84138000D01*
X164632300Y-75891000D02*
X164632300Y-78760000D01*
X164632300Y-81240000D02*
X164632300Y-84109000D01*
X164672300Y-75920000D02*
X164672300Y-78760000D01*
X164672300Y-81240000D02*
X164672300Y-84080000D01*
X164712300Y-75950000D02*
X164712300Y-78760000D01*
X164712300Y-81240000D02*
X164712300Y-84050000D01*
X164752300Y-75980000D02*
X164752300Y-78760000D01*
X164752300Y-81240000D02*
X164752300Y-84020000D01*
X164792300Y-76012000D02*
X164792300Y-78760000D01*
X164792300Y-81240000D02*
X164792300Y-83988000D01*
X164832300Y-76043000D02*
X164832300Y-78760000D01*
X164832300Y-81240000D02*
X164832300Y-83957000D01*
X164872300Y-76076000D02*
X164872300Y-78760000D01*
X164872300Y-81240000D02*
X164872300Y-83924000D01*
X164912300Y-76109000D02*
X164912300Y-78760000D01*
X164912300Y-81240000D02*
X164912300Y-83891000D01*
X164952300Y-76142000D02*
X164952300Y-78760000D01*
X164952300Y-81240000D02*
X164952300Y-83858000D01*
X164992300Y-76177000D02*
X164992300Y-78760000D01*
X164992300Y-81240000D02*
X164992300Y-83823000D01*
X165032300Y-76212000D02*
X165032300Y-78760000D01*
X165032300Y-81240000D02*
X165032300Y-83788000D01*
X165072300Y-76248000D02*
X165072300Y-78760000D01*
X165072300Y-81240000D02*
X165072300Y-83752000D01*
X165112300Y-76284000D02*
X165112300Y-78760000D01*
X165112300Y-81240000D02*
X165112300Y-83716000D01*
X165152300Y-76322000D02*
X165152300Y-78760000D01*
X165152300Y-81240000D02*
X165152300Y-83678000D01*
X165192300Y-76360000D02*
X165192300Y-78760000D01*
X165192300Y-81240000D02*
X165192300Y-83640000D01*
X165232300Y-76399000D02*
X165232300Y-78760000D01*
X165232300Y-81240000D02*
X165232300Y-83601000D01*
X165272300Y-76439000D02*
X165272300Y-78760000D01*
X165272300Y-81240000D02*
X165272300Y-83561000D01*
X165312300Y-76480000D02*
X165312300Y-78760000D01*
X165312300Y-81240000D02*
X165312300Y-83520000D01*
X165352300Y-76522000D02*
X165352300Y-78760000D01*
X165352300Y-81240000D02*
X165352300Y-83478000D01*
X165392300Y-76565000D02*
X165392300Y-83435000D01*
X165432300Y-76609000D02*
X165432300Y-83391000D01*
X165472300Y-76653000D02*
X165472300Y-83347000D01*
X165512300Y-76699000D02*
X165512300Y-83301000D01*
X165552300Y-76746000D02*
X165552300Y-83254000D01*
X165592300Y-76795000D02*
X165592300Y-83205000D01*
X165632300Y-76844000D02*
X165632300Y-83156000D01*
X165672300Y-76895000D02*
X165672300Y-83105000D01*
X165712300Y-76947000D02*
X165712300Y-83053000D01*
X165752300Y-77000000D02*
X165752300Y-83000000D01*
X165792300Y-77055000D02*
X165792300Y-82945000D01*
X165832300Y-77112000D02*
X165832300Y-82888000D01*
X165872300Y-77170000D02*
X165872300Y-82830000D01*
X165912300Y-77230000D02*
X165912300Y-82770000D01*
X165952300Y-77292000D02*
X165952300Y-82708000D01*
X165992300Y-77356000D02*
X165992300Y-82644000D01*
X166032300Y-77422000D02*
X166032300Y-82578000D01*
X166072300Y-77490000D02*
X166072300Y-82510000D01*
X166112300Y-77561000D02*
X166112300Y-82439000D01*
X166152300Y-77635000D02*
X166152300Y-82365000D01*
X166192300Y-77712000D02*
X166192300Y-82288000D01*
X166232300Y-77792000D02*
X166232300Y-82208000D01*
X166272300Y-77876000D02*
X166272300Y-82124000D01*
X166312300Y-77963000D02*
X166312300Y-82037000D01*
X166352300Y-78056000D02*
X166352300Y-81944000D01*
X166392300Y-78154000D02*
X166392300Y-81846000D01*
X166432300Y-78258000D02*
X166432300Y-81742000D01*
X166472300Y-78370000D02*
X166472300Y-81630000D01*
X166512300Y-78491000D02*
X166512300Y-81509000D01*
X166552300Y-78623000D02*
X166552300Y-81377000D01*
X166592300Y-78770000D02*
X166592300Y-81230000D01*
X166632300Y-78938000D02*
X166632300Y-81062000D01*
X166672300Y-79138000D02*
X166672300Y-80862000D01*
X166712300Y-79401000D02*
X166712300Y-80599000D01*
X166752300Y-80000000D02*
G75*
G02*
X156512300Y-80000000I-5120000J0D01*
G01*
X156512300Y-80000000D02*
G75*
G02*
X166752300Y-80000000I5120000J0D01*
G01*
%TO.C,R6*%
X146130000Y-60730000D02*
X146460000Y-60730000D01*
X146130000Y-67270000D02*
X146130000Y-60730000D01*
X146460000Y-67270000D02*
X146130000Y-67270000D01*
X148540000Y-67270000D02*
X148870000Y-67270000D01*
X148870000Y-60730000D02*
X148540000Y-60730000D01*
X148870000Y-67270000D02*
X148870000Y-60730000D01*
%TO.C,C1_1*%
X112530000Y-120725000D02*
X118470000Y-120725000D01*
X112530000Y-131265000D02*
X112530000Y-120725000D01*
X118470000Y-120725000D02*
X118470000Y-131265000D01*
X118470000Y-131265000D02*
X112530000Y-131265000D01*
%TO.C,R1_2*%
X121630000Y-63730000D02*
X121960000Y-63730000D01*
X121630000Y-70270000D02*
X121630000Y-63730000D01*
X121960000Y-70270000D02*
X121630000Y-70270000D01*
X124040000Y-70270000D02*
X124370000Y-70270000D01*
X124370000Y-63730000D02*
X124040000Y-63730000D01*
X124370000Y-70270000D02*
X124370000Y-63730000D01*
%TO.C,C2_3*%
X111130000Y-95780000D02*
X116870000Y-95780000D01*
X111130000Y-103220000D02*
X111130000Y-95780000D01*
X116870000Y-95780000D02*
X116870000Y-103220000D01*
X116870000Y-103220000D02*
X111130000Y-103220000D01*
%TO.C,C13*%
X190630000Y-113880000D02*
X190967000Y-113880000D01*
X190630000Y-119120000D02*
X190630000Y-113880000D01*
X190967000Y-119120000D02*
X190630000Y-119120000D01*
X193033000Y-113880000D02*
X193370000Y-113880000D01*
X193370000Y-113880000D02*
X193370000Y-119120000D01*
X193370000Y-119120000D02*
X193033000Y-119120000D01*
%TO.C,R2*%
X113630000Y-84230000D02*
X113960000Y-84230000D01*
X113630000Y-90770000D02*
X113630000Y-84230000D01*
X113960000Y-90770000D02*
X113630000Y-90770000D01*
X116040000Y-90770000D02*
X116370000Y-90770000D01*
X116370000Y-84230000D02*
X116040000Y-84230000D01*
X116370000Y-90770000D02*
X116370000Y-84230000D01*
%TO.C,C2_2*%
X92630000Y-91280000D02*
X98370000Y-91280000D01*
X92630000Y-98720000D02*
X92630000Y-91280000D01*
X98370000Y-91280000D02*
X98370000Y-98720000D01*
X98370000Y-98720000D02*
X92630000Y-98720000D01*
%TO.C,R_b1*%
X111130000Y-63730000D02*
X111460000Y-63730000D01*
X111130000Y-70270000D02*
X111130000Y-63730000D01*
X111460000Y-70270000D02*
X111130000Y-70270000D01*
X113540000Y-70270000D02*
X113870000Y-70270000D01*
X113870000Y-63730000D02*
X113540000Y-63730000D01*
X113870000Y-70270000D02*
X113870000Y-63730000D01*
%TO.C,R1_1*%
X115630000Y-63730000D02*
X115960000Y-63730000D01*
X115630000Y-70270000D02*
X115630000Y-63730000D01*
X115960000Y-70270000D02*
X115630000Y-70270000D01*
X118040000Y-70270000D02*
X118370000Y-70270000D01*
X118370000Y-63730000D02*
X118040000Y-63730000D01*
X118370000Y-70270000D02*
X118370000Y-63730000D01*
%TO.C,C_in1*%
X98880000Y-55380000D02*
X108120000Y-55380000D01*
X98880000Y-73620000D02*
X98880000Y-55380000D01*
X108120000Y-55380000D02*
X108120000Y-73620000D01*
X108120000Y-73620000D02*
X98880000Y-73620000D01*
%TO.C,C1_2*%
X122225000Y-102030000D02*
X132765000Y-102030000D01*
X122225000Y-107970000D02*
X122225000Y-102030000D01*
X132765000Y-102030000D02*
X132765000Y-107970000D01*
X132765000Y-107970000D02*
X122225000Y-107970000D01*
%TO.C,JP1*%
X113770000Y-115880000D02*
X113770000Y-114500000D01*
X115150000Y-115880000D02*
X113770000Y-115880000D01*
X116420000Y-113120000D02*
X129230000Y-113120000D01*
X116420000Y-115880000D02*
X116420000Y-113120000D01*
X116420000Y-115880000D02*
X129230000Y-115880000D01*
X129230000Y-115880000D02*
X129230000Y-113120000D01*
%TO.C,R4*%
X140630000Y-89230000D02*
X140630000Y-95770000D01*
X140630000Y-95770000D02*
X140960000Y-95770000D01*
X140960000Y-89230000D02*
X140630000Y-89230000D01*
X143040000Y-89230000D02*
X143370000Y-89230000D01*
X143370000Y-89230000D02*
X143370000Y-95770000D01*
X143370000Y-95770000D02*
X143040000Y-95770000D01*
%TO.C,U1*%
X120050000Y-89750000D02*
X120050000Y-91000000D01*
X120050000Y-93000000D02*
X120050000Y-94250000D01*
X120050000Y-94250000D02*
X137950000Y-94250000D01*
X137950000Y-89750000D02*
X120050000Y-89750000D01*
X137950000Y-94250000D02*
X137950000Y-89750000D01*
X120050000Y-91000000D02*
G75*
G02*
X120050000Y-93000000I0J-1000000D01*
G01*
%TO.C,R_b2*%
X123230000Y-74130000D02*
X123230000Y-74460000D01*
X123230000Y-76870000D02*
X123230000Y-76540000D01*
X129770000Y-74130000D02*
X123230000Y-74130000D01*
X129770000Y-74460000D02*
X129770000Y-74130000D01*
X129770000Y-76540000D02*
X129770000Y-76870000D01*
X129770000Y-76870000D02*
X123230000Y-76870000D01*
%TO.C,J4*%
X173380000Y-43110000D02*
X173380000Y-50730000D01*
X173380000Y-44380000D02*
X183540000Y-44380000D01*
X173380000Y-50730000D02*
X183540000Y-50730000D01*
X183540000Y-43110000D02*
X173380000Y-43110000D01*
X183540000Y-50730000D02*
X183540000Y-43110000D01*
%TO.C,R5*%
X141730000Y-71630000D02*
X141730000Y-71960000D01*
X141730000Y-74370000D02*
X141730000Y-74040000D01*
X148270000Y-71630000D02*
X141730000Y-71630000D01*
X148270000Y-71960000D02*
X148270000Y-71630000D01*
X148270000Y-74040000D02*
X148270000Y-74370000D01*
X148270000Y-74370000D02*
X141730000Y-74370000D01*
%TO.C,JP2*%
X103620000Y-91770000D02*
X105000000Y-91770000D01*
X103620000Y-93150000D02*
X103620000Y-91770000D01*
X103620000Y-94420000D02*
X103620000Y-107230000D01*
X103620000Y-94420000D02*
X106380000Y-94420000D01*
X103620000Y-107230000D02*
X106380000Y-107230000D01*
X106380000Y-94420000D02*
X106380000Y-107230000D01*
%TO.C,C_in2*%
X127880000Y-52380000D02*
X137120000Y-52380000D01*
X127880000Y-70620000D02*
X127880000Y-52380000D01*
X137120000Y-52380000D02*
X137120000Y-70620000D01*
X137120000Y-70620000D02*
X127880000Y-70620000D01*
%TD*%
M02*
