M48
; DRILL file KiCad 10.0.4 date 2026-08-14T12:06:55
; FORMAT={-:-/ absolute / metric / decimal}
; #@! TF.CreationDate,2026-08-14T12:06:55+02:00
; #@! TF.GenerationSoftware,Kicad,Pcbnew,10.0.4
; #@! TF.FileFunction,MixedPlating,1,2
FMAT,2
METRIC
; #@! TA.AperFunction,Plated,PTH,ComponentDrill
T1C0.800
; #@! TA.AperFunction,Plated,PTH,ComponentDrill
T2C1.000
; #@! TA.AperFunction,Plated,PTH,ComponentDrill
T3C1.100
; #@! TA.AperFunction,Plated,PTH,ComponentDrill
T4C1.200
; #@! TA.AperFunction,Plated,PTH,ComponentDrill
T5C1.520
%
G90
G05
T1
X95.5Y-92.5
X95.5Y-97.5
X105.5Y-83.0
X110.5Y-83.0
X112.5Y-63.19
X112.5Y-70.81
X114.0Y-97.0
X114.0Y-102.0
X115.0Y-83.69
X115.0Y-91.31
X117.0Y-63.19
X117.0Y-70.81
X121.38Y-88.19
X121.38Y-95.81
X122.69Y-75.5
X123.0Y-63.19
X123.0Y-70.81
X123.92Y-88.19
X123.92Y-95.81
X126.46Y-88.19
X126.46Y-95.81
X129.0Y-88.19
X129.0Y-95.81
X130.31Y-75.5
X131.54Y-88.19
X131.54Y-95.81
X134.08Y-88.19
X134.08Y-95.81
X136.62Y-88.19
X136.62Y-95.81
X141.19Y-73.0
X142.0Y-88.69
X142.0Y-96.31
X144.0Y-101.0
X147.0Y-88.69
X147.0Y-96.31
X147.5Y-60.19
X147.5Y-67.81
X148.81Y-73.0
X158.5Y-88.19
X158.5Y-95.81
X158.5Y-101.0
X159.0Y-61.69
X159.0Y-69.31
X166.653Y-128.0
X170.153Y-128.0
X178.5Y-119.5
X179.0Y-98.5
X179.0Y-103.5
X183.5Y-119.5
X192.0Y-114.0
X192.0Y-119.0
X194.0Y-124.19
X194.0Y-131.81
T2
X105.0Y-93.15
X105.0Y-95.69
X105.0Y-98.23
X105.0Y-100.77
X105.0Y-103.31
X105.0Y-105.85
X115.15Y-114.5
X115.5Y-122.245
X115.5Y-129.745
X117.69Y-114.5
X120.23Y-114.5
X122.77Y-114.5
X123.745Y-105.0
X125.31Y-114.5
X127.85Y-114.5
X131.245Y-105.0
X159.132Y-80.0
X164.132Y-80.0
X171.0Y-108.368
X171.0Y-113.368
X191.0Y-61.225
X191.0Y-63.765
X193.0Y-100.868
X193.0Y-105.868
T3
X182.95Y-125.96
X182.95Y-128.5
X182.95Y-131.04
T4
X103.5Y-57.0
X103.5Y-72.0
X132.5Y-54.0
X132.5Y-69.0
T5
X104.38Y-46.92
X109.46Y-46.92
X117.38Y-46.92
X122.46Y-46.92
X127.76Y-128.0
X132.84Y-128.0
X137.92Y-128.0
X141.3Y-46.92
X146.38Y-46.92
X148.84Y-128.0
X151.46Y-46.92
X153.92Y-128.0
X159.0Y-128.0
X175.92Y-46.92
X181.0Y-46.92
M30
