  0
SECTION
  2
HEADER
  9
$ANGBASE
  50
0.0
  9
$ANGDIR
  70
1
  9
$MEASUREMENT
  70
1
  0
ENDSEC
  0
SECTION
  2
TABLES
  0
TABLE
  2
LTYPE
  70
4
  0
LTYPE
  5
40F
  2
CONTINUOUS
  70
0
  3
Solid line
  72
65
  73
0
  40
0.0
  0
LTYPE
  5
410
  2
DASHDOT
 70
0
  3
Dash Dot ____ _ ____ _
 72
65
 73
4
 40
2.0
 49
1.25
 49
-0.25
 49
0.25
 49
-0.25
  0
LTYPE
  5
411
  2
DASHED
 70
0
  3
Dashed __ __ __ __ __
 72
65
 73
2
 40
0.75
 49
0.5
 49
-0.25
  0
LTYPE
  5
43B
  2
DOTTED
 70
0
  3
Dotted .  .  .  .
 72
65
 73
2
 40
0.2
 49
0.0
 49
-0.2
  0
ENDTAB
  0
TABLE
  2
STYLE
  70
4
  0
STYLE
  2
KICAD
  70
0
  40
0
  41
1
  42
1
  50
0
  71
0
  3
isocp.shx
  0
STYLE
  2
KICADB
  70
0
  40
0
  41
1
  42
1
  50
0
  71
0
  3
isocp.shx
  0
STYLE
  2
KICADI
  70
0
  40
0
  41
1
  42
1
  50
15
  71
0
  3
isocp.shx
  0
STYLE
  2
KICADBI
  70
0
  40
0
  41
1
  42
1
  50
15
  71
0
  3
isocp.shx
  0
ENDTAB
  0
TABLE
  2
LAYER
  70
35
  0
LAYER
  2
BLACK
  70
0
  62
7
  6
CONTINUOUS
  0
LAYER
  2
GRAY1
  70
0
  62
251
  6
CONTINUOUS
  0
LAYER
  2
GRAY2
  70
0
  62
8
  6
CONTINUOUS
  0
LAYER
  2
GRAY3
  70
0
  62
9
  6
CONTINUOUS
  0
LAYER
  2
WHITE
  70
0
  62
7
  6
CONTINUOUS
  0
LAYER
  2
LYELLOW
  70
0
  62
51
  6
CONTINUOUS
  0
LAYER
  2
LORANGE
  70
0
  62
41
  6
CONTINUOUS
  0
LAYER
  2
BLUE1
  70
0
  62
178
  6
CONTINUOUS
  0
LAYER
  2
GREEN1
  70
0
  62
98
  6
CONTINUOUS
  0
LAYER
  2
CYAN1
  70
0
  62
138
  6
CONTINUOUS
  0
LAYER
  2
RED1
  70
0
  62
18
  6
CONTINUOUS
  0
LAYER
  2
MAGENTA1
  70
0
  62
228
  6
CONTINUOUS
  0
LAYER
  2
BROWN1
  70
0
  62
58
  6
CONTINUOUS
  0
LAYER
  2
ORANGE1
  70
0
  62
34
  6
CONTINUOUS
  0
LAYER
  2
BLUE2
  70
0
  62
5
  6
CONTINUOUS
  0
LAYER
  2
GREEN2
  70
0
  62
3
  6
CONTINUOUS
  0
LAYER
  2
CYAN2
  70
0
  62
4
  6
CONTINUOUS
  0
LAYER
  2
RED2
  70
0
  62
1
  6
CONTINUOUS
  0
LAYER
  2
MAGENTA2
  70
0
  62
6
  6
CONTINUOUS
  0
LAYER
  2
BROWN2
  70
0
  62
54
  6
CONTINUOUS
  0
LAYER
  2
ORANGE2
  70
0
  62
42
  6
CONTINUOUS
  0
LAYER
  2
BLUE3
  70
0
  62
171
  6
CONTINUOUS
  0
LAYER
  2
GREEN3
  70
0
  62
91
  6
CONTINUOUS
  0
LAYER
  2
CYAN3
  70
0
  62
131
  6
CONTINUOUS
  0
LAYER
  2
RED3
  70
0
  62
11
  6
CONTINUOUS
  0
LAYER
  2
MAGENTA3
  70
0
  62
221
  6
CONTINUOUS
  0
LAYER
  2
YELLOW3
  70
0
  62
2
  6
CONTINUOUS
  0
LAYER
  2
ORANGE3
  70
0
  62
32
  6
CONTINUOUS
  0
LAYER
  2
BLUE4
  70
0
  62
5
  6
CONTINUOUS
  0
LAYER
  2
GREEN4
  70
0
  62
3
  6
CONTINUOUS
  0
LAYER
  2
CYAN4
  70
0
  62
4
  6
CONTINUOUS
  0
LAYER
  2
RED4
  70
0
  62
1
  6
CONTINUOUS
  0
LAYER
  2
MAGENTA4
  70
0
  62
6
  6
CONTINUOUS
  0
LAYER
  2
YELLOW4
  70
0
  62
2
  6
CONTINUOUS
  0
LAYER
  2
ORANGE4
  70
0
  62
40
  6
CONTINUOUS
  0
ENDTAB
  0
ENDSEC
  0
SECTION
  2
ENTITIES
0
LINE
8
LYELLOW
6
CONTINUOUS
10
113.0945329999999984
20
-75.4898189999999971
11
112.7611999999999881
21
-75.0136279999999971
0
LINE
8
LYELLOW
6
CONTINUOUS
10
112.523105000000001
20
-75.4898189999999971
11
112.523105000000001
21
-74.4898189999999971
0
LINE
8
LYELLOW
6
CONTINUOUS
10
112.523105000000001
20
-74.4898189999999971
11
112.9040569999999946
21
-74.4898189999999971
0
LINE
8
LYELLOW
6
CONTINUOUS
10
112.9040569999999946
20
-74.4898189999999971
11
112.9992949999999894
21
-74.5374379999999945
0
LINE
8
LYELLOW
6
CONTINUOUS
10
112.9992949999999894
20
-74.5374379999999945
11
113.046914000000001
21
-74.5850569999999919
0
LINE
8
LYELLOW
6
CONTINUOUS
10
113.046914000000001
20
-74.5850569999999919
11
113.0945329999999984
21
-74.680295000000001
0
LINE
8
LYELLOW
6
CONTINUOUS
10
113.0945329999999984
20
-74.680295000000001
11
113.0945329999999984
21
-74.8231519999999932
0
LINE
8
LYELLOW
6
CONTINUOUS
10
113.0945329999999984
20
-74.8231519999999932
11
113.046914000000001
21
-74.9183900000000023
0
LINE
8
LYELLOW
6
CONTINUOUS
10
113.046914000000001
20
-74.9183900000000023
11
112.9992949999999894
21
-74.9660089999999997
0
LINE
8
LYELLOW
6
CONTINUOUS
10
112.9992949999999894
20
-74.9660089999999997
11
112.9040569999999946
21
-75.0136279999999971
0
LINE
8
LYELLOW
6
CONTINUOUS
10
112.9040569999999946
20
-75.0136279999999971
11
112.523105000000001
21
-75.0136279999999971
0
LINE
8
LYELLOW
6
CONTINUOUS
10
113.951675999999992
20
-74.4898189999999971
11
113.7611999999999881
21
-74.4898189999999971
0
LINE
8
LYELLOW
6
CONTINUOUS
10
113.7611999999999881
20
-74.4898189999999971
11
113.6659619999999933
21
-74.5374379999999945
0
LINE
8
LYELLOW
6
CONTINUOUS
10
113.6659619999999933
20
-74.5374379999999945
11
113.6183429999999959
21
-74.5850569999999919
0
LINE
8
LYELLOW
6
CONTINUOUS
10
113.6183429999999959
20
-74.5850569999999919
11
113.523105000000001
21
-74.7279139999999984
0
LINE
8
LYELLOW
6
CONTINUOUS
10
113.523105000000001
20
-74.7279139999999984
11
113.4754859999999894
21
-74.9183900000000023
0
LINE
8
LYELLOW
6
CONTINUOUS
10
113.4754859999999894
20
-74.9183900000000023
11
113.4754859999999894
21
-75.2993419999999958
0
LINE
8
LYELLOW
6
CONTINUOUS
10
113.4754859999999894
20
-75.2993419999999958
11
113.523105000000001
21
-75.3945799999999906
0
LINE
8
LYELLOW
6
CONTINUOUS
10
113.523105000000001
20
-75.3945799999999906
11
113.5707239999999985
21
-75.4421999999999997
0
LINE
8
LYELLOW
6
CONTINUOUS
10
113.5707239999999985
20
-75.4421999999999997
11
113.6659619999999933
21
-75.4898189999999971
0
LINE
8
LYELLOW
6
CONTINUOUS
10
113.6659619999999933
20
-75.4898189999999971
11
113.8564379999999971
21
-75.4898189999999971
0
LINE
8
LYELLOW
6
CONTINUOUS
10
113.8564379999999971
20
-75.4898189999999971
11
113.951675999999992
21
-75.4421999999999997
0
LINE
8
LYELLOW
6
CONTINUOUS
10
113.951675999999992
20
-75.4421999999999997
11
113.9992949999999894
21
-75.3945799999999906
0
LINE
8
LYELLOW
6
CONTINUOUS
10
113.9992949999999894
20
-75.3945799999999906
11
114.046914000000001
21
-75.2993419999999958
0
LINE
8
LYELLOW
6
CONTINUOUS
10
114.046914000000001
20
-75.2993419999999958
11
114.046914000000001
21
-75.0612469999999945
0
LINE
8
LYELLOW
6
CONTINUOUS
10
114.046914000000001
20
-75.0612469999999945
11
113.9992949999999894
21
-74.9660089999999997
0
LINE
8
LYELLOW
6
CONTINUOUS
10
113.9992949999999894
20
-74.9660089999999997
11
113.951675999999992
21
-74.9183900000000023
0
LINE
8
LYELLOW
6
CONTINUOUS
10
113.951675999999992
20
-74.9183900000000023
11
113.8564379999999971
21
-74.8707709999999906
0
LINE
8
LYELLOW
6
CONTINUOUS
10
113.8564379999999971
20
-74.8707709999999906
11
113.6659619999999933
21
-74.8707709999999906
0
LINE
8
LYELLOW
6
CONTINUOUS
10
113.6659619999999933
20
-74.8707709999999906
11
113.5707239999999985
21
-74.9183900000000023
0
LINE
8
LYELLOW
6
CONTINUOUS
10
113.5707239999999985
20
-74.9183900000000023
11
113.523105000000001
21
-74.9660089999999997
0
LINE
8
LYELLOW
6
CONTINUOUS
10
113.523105000000001
20
-74.9660089999999997
11
113.4754859999999894
21
-75.0612469999999945
0
LINE
8
LYELLOW
6
CONTINUOUS
10
101.0945329999999984
20
-97.2645799999999952
11
101.046914000000001
21
-97.31219999999999
0
LINE
8
LYELLOW
6
CONTINUOUS
10
101.046914000000001
20
-97.31219999999999
11
100.9040569999999946
21
-97.3598190000000017
0
LINE
8
LYELLOW
6
CONTINUOUS
10
100.9040569999999946
20
-97.3598190000000017
11
100.8088189999999997
21
-97.3598190000000017
0
LINE
8
LYELLOW
6
CONTINUOUS
10
100.8088189999999997
20
-97.3598190000000017
11
100.6659619999999933
21
-97.31219999999999
0
LINE
8
LYELLOW
6
CONTINUOUS
10
100.6659619999999933
20
-97.31219999999999
11
100.5707239999999985
21
-97.2169609999999977
0
LINE
8
LYELLOW
6
CONTINUOUS
10
100.5707239999999985
20
-97.2169609999999977
11
100.523105000000001
21
-97.1217229999999887
0
LINE
8
LYELLOW
6
CONTINUOUS
10
100.523105000000001
20
-97.1217229999999887
11
100.4754859999999894
21
-96.931246999999999
0
LINE
8
LYELLOW
6
CONTINUOUS
10
100.4754859999999894
20
-96.931246999999999
11
100.4754859999999894
21
-96.7883899999999926
0
LINE
8
LYELLOW
6
CONTINUOUS
10
100.4754859999999894
20
-96.7883899999999926
11
100.523105000000001
21
-96.5979139999999887
0
LINE
8
LYELLOW
6
CONTINUOUS
10
100.523105000000001
20
-96.5979139999999887
11
100.5707239999999985
21
-96.5026759999999939
0
LINE
8
LYELLOW
6
CONTINUOUS
10
100.5707239999999985
20
-96.5026759999999939
11
100.6659619999999933
21
-96.4074379999999991
0
LINE
8
LYELLOW
6
CONTINUOUS
10
100.6659619999999933
20
-96.4074379999999991
11
100.8088189999999997
21
-96.3598190000000017
0
LINE
8
LYELLOW
6
CONTINUOUS
10
100.8088189999999997
20
-96.3598190000000017
11
100.9040569999999946
21
-96.3598190000000017
0
LINE
8
LYELLOW
6
CONTINUOUS
10
100.9040569999999946
20
-96.3598190000000017
11
101.046914000000001
21
-96.4074379999999991
0
LINE
8
LYELLOW
6
CONTINUOUS
10
101.046914000000001
20
-96.4074379999999991
11
101.0945329999999984
21
-96.4550569999999965
0
LINE
8
LYELLOW
6
CONTINUOUS
10
101.4754859999999894
20
-96.4550569999999965
11
101.523105000000001
21
-96.4074379999999991
0
LINE
8
LYELLOW
6
CONTINUOUS
10
101.523105000000001
20
-96.4074379999999991
11
101.6183429999999959
21
-96.3598190000000017
0
LINE
8
LYELLOW
6
CONTINUOUS
10
101.6183429999999959
20
-96.3598190000000017
11
101.8564379999999971
21
-96.3598190000000017
0
LINE
8
LYELLOW
6
CONTINUOUS
10
101.8564379999999971
20
-96.3598190000000017
11
101.951675999999992
21
-96.4074379999999991
0
LINE
8
LYELLOW
6
CONTINUOUS
10
101.951675999999992
20
-96.4074379999999991
11
101.9992949999999894
21
-96.4550569999999965
0
LINE
8
LYELLOW
6
CONTINUOUS
10
101.9992949999999894
20
-96.4550569999999965
11
102.046914000000001
21
-96.5502949999999913
0
LINE
8
LYELLOW
6
CONTINUOUS
10
102.046914000000001
20
-96.5502949999999913
11
102.046914000000001
21
-96.6455330000000004
0
LINE
8
LYELLOW
6
CONTINUOUS
10
102.046914000000001
20
-96.6455330000000004
11
101.9992949999999894
21
-96.7883899999999926
0
LINE
8
LYELLOW
6
CONTINUOUS
10
101.9992949999999894
20
-96.7883899999999926
11
101.427866999999992
21
-97.3598190000000017
0
LINE
8
LYELLOW
6
CONTINUOUS
10
101.427866999999992
20
-97.3598190000000017
11
102.046914000000001
21
-97.3598190000000017
0
LINE
8
LYELLOW
6
CONTINUOUS
10
113.0945329999999984
20
-83.4898189999999971
11
112.7611999999999881
21
-83.0136279999999971
0
LINE
8
LYELLOW
6
CONTINUOUS
10
112.523105000000001
20
-83.4898189999999971
11
112.523105000000001
21
-82.4898189999999971
0
LINE
8
LYELLOW
6
CONTINUOUS
10
112.523105000000001
20
-82.4898189999999971
11
112.9040569999999946
21
-82.4898189999999971
0
LINE
8
LYELLOW
6
CONTINUOUS
10
112.9040569999999946
20
-82.4898189999999971
11
112.9992949999999894
21
-82.5374379999999945
0
LINE
8
LYELLOW
6
CONTINUOUS
10
112.9992949999999894
20
-82.5374379999999945
11
113.046914000000001
21
-82.5850569999999919
0
LINE
8
LYELLOW
6
CONTINUOUS
10
113.046914000000001
20
-82.5850569999999919
11
113.0945329999999984
21
-82.680295000000001
0
LINE
8
LYELLOW
6
CONTINUOUS
10
113.0945329999999984
20
-82.680295000000001
11
113.0945329999999984
21
-82.8231519999999932
0
LINE
8
LYELLOW
6
CONTINUOUS
10
113.0945329999999984
20
-82.8231519999999932
11
113.046914000000001
21
-82.9183900000000023
0
LINE
8
LYELLOW
6
CONTINUOUS
10
113.046914000000001
20
-82.9183900000000023
11
112.9992949999999894
21
-82.9660089999999997
0
LINE
8
LYELLOW
6
CONTINUOUS
10
112.9992949999999894
20
-82.9660089999999997
11
112.9040569999999946
21
-83.0136279999999971
0
LINE
8
LYELLOW
6
CONTINUOUS
10
112.9040569999999946
20
-83.0136279999999971
11
112.523105000000001
21
-83.0136279999999971
0
LINE
8
LYELLOW
6
CONTINUOUS
10
113.427866999999992
20
-82.4898189999999971
11
114.0945329999999984
21
-82.4898189999999971
0
LINE
8
LYELLOW
6
CONTINUOUS
10
114.0945329999999984
20
-82.4898189999999971
11
113.6659619999999933
21
-83.4898189999999971
0
LINE
8
LYELLOW
6
CONTINUOUS
10
30.9278659999999981
20
-62.6698189999999968
11
30.9278659999999981
21
-63.3841040000000007
0
LINE
8
LYELLOW
6
CONTINUOUS
10
30.9278659999999981
20
-63.3841040000000007
11
30.8802469999999971
21
-63.526961
0
LINE
8
LYELLOW
6
CONTINUOUS
10
30.8802469999999971
20
-63.526961
11
30.7850089999999987
21
-63.6221999999999994
0
LINE
8
LYELLOW
6
CONTINUOUS
10
30.7850089999999987
20
-63.6221999999999994
11
30.6421519999999994
21
-63.6698189999999968
0
LINE
8
LYELLOW
6
CONTINUOUS
10
30.6421519999999994
20
-63.6698189999999968
11
30.5469139999999975
21
-63.6698189999999968
0
LINE
8
LYELLOW
6
CONTINUOUS
10
31.9278659999999981
20
-63.6698189999999968
11
31.3564379999999971
21
-63.6698189999999968
0
LINE
8
LYELLOW
6
CONTINUOUS
10
31.6421519999999994
20
-63.6698189999999968
11
31.6421519999999994
21
-62.6698189999999968
0
LINE
8
LYELLOW
6
CONTINUOUS
10
31.6421519999999994
20
-62.6698189999999968
11
31.5469139999999975
21
-62.8126759999999962
0
LINE
8
LYELLOW
6
CONTINUOUS
10
31.5469139999999975
20
-62.8126759999999962
11
31.4516759999999991
21
-62.9079139999999981
0
LINE
8
LYELLOW
6
CONTINUOUS
10
31.4516759999999991
20
-62.9079139999999981
11
31.3564379999999971
21
-62.9555329999999955
0
LINE
8
LYELLOW
6
CONTINUOUS
10
113.0945329999999984
20
-59.4898189999999971
11
112.7611999999999881
21
-59.0136279999999971
0
LINE
8
LYELLOW
6
CONTINUOUS
10
112.523105000000001
20
-59.4898189999999971
11
112.523105000000001
21
-58.4898189999999971
0
LINE
8
LYELLOW
6
CONTINUOUS
10
112.523105000000001
20
-58.4898189999999971
11
112.9040569999999946
21
-58.4898189999999971
0
LINE
8
LYELLOW
6
CONTINUOUS
10
112.9040569999999946
20
-58.4898189999999971
11
112.9992949999999894
21
-58.5374379999999945
0
LINE
8
LYELLOW
6
CONTINUOUS
10
112.9992949999999894
20
-58.5374379999999945
11
113.046914000000001
21
-58.5850569999999991
0
LINE
8
LYELLOW
6
CONTINUOUS
10
113.046914000000001
20
-58.5850569999999991
11
113.0945329999999984
21
-58.6802949999999939
0
LINE
8
LYELLOW
6
CONTINUOUS
10
113.0945329999999984
20
-58.6802949999999939
11
113.0945329999999984
21
-58.8231520000000003
0
LINE
8
LYELLOW
6
CONTINUOUS
10
113.0945329999999984
20
-58.8231520000000003
11
113.046914000000001
21
-58.9183899999999952
0
LINE
8
LYELLOW
6
CONTINUOUS
10
113.046914000000001
20
-58.9183899999999952
11
112.9992949999999894
21
-58.9660089999999997
0
LINE
8
LYELLOW
6
CONTINUOUS
10
112.9992949999999894
20
-58.9660089999999997
11
112.9040569999999946
21
-59.0136279999999971
0
LINE
8
LYELLOW
6
CONTINUOUS
10
112.9040569999999946
20
-59.0136279999999971
11
112.523105000000001
21
-59.0136279999999971
0
LINE
8
LYELLOW
6
CONTINUOUS
10
113.951675999999992
20
-58.8231520000000003
11
113.951675999999992
21
-59.4898189999999971
0
LINE
8
LYELLOW
6
CONTINUOUS
10
113.7135809999999907
20
-58.4421999999999997
11
113.4754859999999894
21
-59.1564849999999964
0
LINE
8
LYELLOW
6
CONTINUOUS
10
113.4754859999999894
20
-59.1564849999999964
11
114.0945329999999984
21
-59.1564849999999964
0
LINE
8
LYELLOW
6
CONTINUOUS
10
54.9528660000000002
20
-50.3398189999999985
11
54.9528660000000002
21
-51.0541039999999953
0
LINE
8
LYELLOW
6
CONTINUOUS
10
54.9528660000000002
20
-51.0541039999999953
11
54.9052469999999957
21
-51.1969609999999946
0
LINE
8
LYELLOW
6
CONTINUOUS
10
54.9052469999999957
20
-51.1969609999999946
11
54.8100090000000009
21
-51.2922000000000011
0
LINE
8
LYELLOW
6
CONTINUOUS
10
54.8100090000000009
20
-51.2922000000000011
11
54.6671519999999944
21
-51.3398189999999985
0
LINE
8
LYELLOW
6
CONTINUOUS
10
54.6671519999999944
20
-51.3398189999999985
11
54.5719139999999996
21
-51.3398189999999985
0
LINE
8
LYELLOW
6
CONTINUOUS
10
55.3338189999999983
20
-50.3398189999999985
11
55.9528660000000002
21
-50.3398189999999985
0
LINE
8
LYELLOW
6
CONTINUOUS
10
55.9528660000000002
20
-50.3398189999999985
11
55.619532999999997
21
-50.7207709999999992
0
LINE
8
LYELLOW
6
CONTINUOUS
10
55.619532999999997
20
-50.7207709999999992
11
55.7623899999999963
21
-50.7207709999999992
0
LINE
8
LYELLOW
6
CONTINUOUS
10
55.7623899999999963
20
-50.7207709999999992
11
55.8576279999999983
21
-50.7683899999999966
0
LINE
8
LYELLOW
6
CONTINUOUS
10
55.8576279999999983
20
-50.7683899999999966
11
55.9052469999999957
21
-50.8160090000000011
0
LINE
8
LYELLOW
6
CONTINUOUS
10
55.9052469999999957
20
-50.8160090000000011
11
55.9528660000000002
21
-50.9112469999999959
0
LINE
8
LYELLOW
6
CONTINUOUS
10
55.9528660000000002
20
-50.9112469999999959
11
55.9528660000000002
21
-51.1493419999999972
0
LINE
8
LYELLOW
6
CONTINUOUS
10
55.9528660000000002
20
-51.1493419999999972
11
55.9052469999999957
21
-51.2445799999999991
0
LINE
8
LYELLOW
6
CONTINUOUS
10
55.9052469999999957
20
-51.2445799999999991
11
55.8576279999999983
21
-51.2922000000000011
0
LINE
8
LYELLOW
6
CONTINUOUS
10
55.8576279999999983
20
-51.2922000000000011
11
55.7623899999999963
21
-51.3398189999999985
0
LINE
8
LYELLOW
6
CONTINUOUS
10
55.7623899999999963
20
-51.3398189999999985
11
55.4766759999999977
21
-51.3398189999999985
0
LINE
8
LYELLOW
6
CONTINUOUS
10
55.4766759999999977
20
-51.3398189999999985
11
55.3814379999999957
21
-51.2922000000000011
0
LINE
8
LYELLOW
6
CONTINUOUS
10
55.3814379999999957
20
-51.2922000000000011
11
55.3338189999999983
21
-51.2445799999999991
0
LINE
8
LYELLOW
6
CONTINUOUS
10
83.3528659999999917
20
-50.3398189999999985
11
83.3528659999999917
21
-51.0541039999999953
0
LINE
8
LYELLOW
6
CONTINUOUS
10
83.3528659999999917
20
-51.0541039999999953
11
83.3052469999999943
21
-51.1969609999999946
0
LINE
8
LYELLOW
6
CONTINUOUS
10
83.3052469999999943
20
-51.1969609999999946
11
83.2100089999999994
21
-51.2922000000000011
0
LINE
8
LYELLOW
6
CONTINUOUS
10
83.2100089999999994
20
-51.2922000000000011
11
83.067151999999993
21
-51.3398189999999985
0
LINE
8
LYELLOW
6
CONTINUOUS
10
83.067151999999993
20
-51.3398189999999985
11
82.9719139999999982
21
-51.3398189999999985
0
LINE
8
LYELLOW
6
CONTINUOUS
10
84.2576279999999969
20
-50.6731519999999946
11
84.2576279999999969
21
-51.3398189999999985
0
LINE
8
LYELLOW
6
CONTINUOUS
10
84.0195329999999956
20
-50.2922000000000011
11
83.7814379999999943
21
-51.0064849999999979
0
LINE
8
LYELLOW
6
CONTINUOUS
10
83.7814379999999943
20
-51.0064849999999979
11
84.4004849999999891
21
-51.0064849999999979
0
LINE
8
LYELLOW
6
CONTINUOUS
10
100.523105000000001
20
-42.939819
11
100.523105000000001
21
-41.939819
0
LINE
8
LYELLOW
6
CONTINUOUS
10
100.523105000000001
20
-41.939819
11
100.9040569999999946
21
-41.939819
0
LINE
8
LYELLOW
6
CONTINUOUS
10
100.9040569999999946
20
-41.939819
11
100.9992949999999894
21
-41.9874379999999974
0
LINE
8
LYELLOW
6
CONTINUOUS
10
100.9992949999999894
20
-41.9874379999999974
11
101.046914000000001
21
-42.0350569999999948
0
LINE
8
LYELLOW
6
CONTINUOUS
10
101.046914000000001
20
-42.0350569999999948
11
101.0945329999999984
21
-42.1302949999999967
0
LINE
8
LYELLOW
6
CONTINUOUS
10
101.0945329999999984
20
-42.1302949999999967
11
101.0945329999999984
21
-42.2731519999999961
0
LINE
8
LYELLOW
6
CONTINUOUS
10
101.0945329999999984
20
-42.2731519999999961
11
101.046914000000001
21
-42.368389999999998
0
LINE
8
LYELLOW
6
CONTINUOUS
10
101.046914000000001
20
-42.368389999999998
11
100.9992949999999894
21
-42.4160089999999954
0
LINE
8
LYELLOW
6
CONTINUOUS
10
100.9992949999999894
20
-42.4160089999999954
11
100.9040569999999946
21
-42.4636279999999999
0
LINE
8
LYELLOW
6
CONTINUOUS
10
100.9040569999999946
20
-42.4636279999999999
11
100.523105000000001
21
-42.4636279999999999
0
LINE
8
LYELLOW
6
CONTINUOUS
10
102.046914000000001
20
-42.939819
11
101.4754859999999894
21
-42.939819
0
LINE
8
LYELLOW
6
CONTINUOUS
10
101.7612000000000023
20
-42.939819
11
101.7612000000000023
21
-41.939819
0
LINE
8
LYELLOW
6
CONTINUOUS
10
101.7612000000000023
20
-41.939819
11
101.6659619999999933
21
-42.0826759999999993
0
LINE
8
LYELLOW
6
CONTINUOUS
10
101.6659619999999933
20
-42.0826759999999993
11
101.5707239999999985
21
-42.1779140000000012
0
LINE
8
LYELLOW
6
CONTINUOUS
10
101.5707239999999985
20
-42.1779140000000012
11
101.4754859999999894
21
-42.2255329999999987
0
LINE
8
LYELLOW
6
CONTINUOUS
10
101.1659609999999958
20
-78.7550569999999936
11
101.070723000000001
21
-78.7074379999999962
0
LINE
8
LYELLOW
6
CONTINUOUS
10
101.070723000000001
20
-78.7074379999999962
11
100.9754849999999919
21
-78.6122000000000014
0
LINE
8
LYELLOW
6
CONTINUOUS
10
100.9754849999999919
20
-78.6122000000000014
11
100.8326279999999997
21
-78.4693419999999975
0
LINE
8
LYELLOW
6
CONTINUOUS
10
100.8326279999999997
20
-78.4693419999999975
11
100.7373899999999907
21
-78.4217230000000001
0
LINE
8
LYELLOW
6
CONTINUOUS
10
100.7373899999999907
20
-78.4217230000000001
11
100.6421519999999958
21
-78.4217230000000001
0
LINE
8
LYELLOW
6
CONTINUOUS
10
100.6897709999999933
20
-78.6598189999999988
11
100.5945329999999984
21
-78.6122000000000014
0
LINE
8
LYELLOW
6
CONTINUOUS
10
100.5945329999999984
20
-78.6122000000000014
11
100.4992949999999894
21
-78.5169609999999949
0
LINE
8
LYELLOW
6
CONTINUOUS
10
100.4992949999999894
20
-78.5169609999999949
11
100.451675999999992
21
-78.326484999999991
0
LINE
8
LYELLOW
6
CONTINUOUS
10
100.451675999999992
20
-78.326484999999991
11
100.451675999999992
21
-77.9931519999999949
0
LINE
8
LYELLOW
6
CONTINUOUS
10
100.451675999999992
20
-77.9931519999999949
11
100.4992949999999894
21
-77.8026759999999911
0
LINE
8
LYELLOW
6
CONTINUOUS
10
100.4992949999999894
20
-77.8026759999999911
11
100.5945329999999984
21
-77.7074379999999962
0
LINE
8
LYELLOW
6
CONTINUOUS
10
100.5945329999999984
20
-77.7074379999999962
11
100.6897709999999933
21
-77.6598189999999988
0
LINE
8
LYELLOW
6
CONTINUOUS
10
100.6897709999999933
20
-77.6598189999999988
11
100.8802469999999971
21
-77.6598189999999988
0
LINE
8
LYELLOW
6
CONTINUOUS
10
100.8802469999999971
20
-77.6598189999999988
11
100.9754849999999919
21
-77.7074379999999962
0
LINE
8
LYELLOW
6
CONTINUOUS
10
100.9754849999999919
20
-77.7074379999999962
11
101.070723000000001
21
-77.8026759999999911
0
LINE
8
LYELLOW
6
CONTINUOUS
10
101.070723000000001
20
-77.8026759999999911
11
101.1183419999999984
21
-77.9931519999999949
0
LINE
8
LYELLOW
6
CONTINUOUS
10
101.1183419999999984
20
-77.9931519999999949
11
101.1183419999999984
21
-78.326484999999991
0
LINE
8
LYELLOW
6
CONTINUOUS
10
101.1183419999999984
20
-78.326484999999991
11
101.070723000000001
21
-78.5169609999999949
0
LINE
8
LYELLOW
6
CONTINUOUS
10
101.070723000000001
20
-78.5169609999999949
11
100.9754849999999919
21
-78.6122000000000014
0
LINE
8
LYELLOW
6
CONTINUOUS
10
100.9754849999999919
20
-78.6122000000000014
11
100.8802469999999971
21
-78.6598189999999988
0
LINE
8
LYELLOW
6
CONTINUOUS
10
100.8802469999999971
20
-78.6598189999999988
11
100.6897709999999933
21
-78.6598189999999988
0
LINE
8
LYELLOW
6
CONTINUOUS
10
101.4992949999999894
20
-77.7550569999999936
11
101.546914000000001
21
-77.7074379999999962
0
LINE
8
LYELLOW
6
CONTINUOUS
10
101.546914000000001
20
-77.7074379999999962
11
101.6421519999999958
21
-77.6598189999999988
0
LINE
8
LYELLOW
6
CONTINUOUS
10
101.6421519999999958
20
-77.6598189999999988
11
101.8802469999999971
21
-77.6598189999999988
0
LINE
8
LYELLOW
6
CONTINUOUS
10
101.8802469999999971
20
-77.6598189999999988
11
101.9754849999999919
21
-77.7074379999999962
0
LINE
8
LYELLOW
6
CONTINUOUS
10
101.9754849999999919
20
-77.7074379999999962
11
102.0231039999999894
21
-77.7550569999999936
0
LINE
8
LYELLOW
6
CONTINUOUS
10
102.0231039999999894
20
-77.7550569999999936
11
102.070723000000001
21
-77.8502950000000027
0
LINE
8
LYELLOW
6
CONTINUOUS
10
102.070723000000001
20
-77.8502950000000027
11
102.070723000000001
21
-77.9455329999999975
0
LINE
8
LYELLOW
6
CONTINUOUS
10
102.070723000000001
20
-77.9455329999999975
11
102.0231039999999894
21
-78.0883899999999898
0
LINE
8
LYELLOW
6
CONTINUOUS
10
102.0231039999999894
20
-78.0883899999999898
11
101.451675999999992
21
-78.6598189999999988
0
LINE
8
LYELLOW
6
CONTINUOUS
10
101.451675999999992
20
-78.6598189999999988
11
102.070723000000001
21
-78.6598189999999988
0
LINE
8
LYELLOW
6
CONTINUOUS
10
31.2268329999999992
20
-89.5145799999999952
11
31.1792139999999982
21
-89.56219999999999
0
LINE
8
LYELLOW
6
CONTINUOUS
10
31.1792139999999982
20
-89.56219999999999
11
31.0363569999999989
21
-89.6098190000000017
0
LINE
8
LYELLOW
6
CONTINUOUS
10
31.0363569999999989
20
-89.6098190000000017
11
30.9411189999999969
21
-89.6098190000000017
0
LINE
8
LYELLOW
6
CONTINUOUS
10
30.9411189999999969
20
-89.6098190000000017
11
30.7982619999999976
21
-89.56219999999999
0
LINE
8
LYELLOW
6
CONTINUOUS
10
30.7982619999999976
20
-89.56219999999999
11
30.7030239999999992
21
-89.4669609999999977
0
LINE
8
LYELLOW
6
CONTINUOUS
10
30.7030239999999992
20
-89.4669609999999977
11
30.6554049999999982
21
-89.3717230000000029
0
LINE
8
LYELLOW
6
CONTINUOUS
10
30.6554049999999982
20
-89.3717230000000029
11
30.6077859999999973
21
-89.181246999999999
0
LINE
8
LYELLOW
6
CONTINUOUS
10
30.6077859999999973
20
-89.181246999999999
11
30.6077859999999973
21
-89.0383899999999926
0
LINE
8
LYELLOW
6
CONTINUOUS
10
30.6077859999999973
20
-89.0383899999999926
11
30.6554049999999982
21
-88.8479140000000029
0
LINE
8
LYELLOW
6
CONTINUOUS
10
30.6554049999999982
20
-88.8479140000000029
11
30.7030239999999992
21
-88.7526759999999939
0
LINE
8
LYELLOW
6
CONTINUOUS
10
30.7030239999999992
20
-88.7526759999999939
11
30.7982619999999976
21
-88.6574379999999991
0
LINE
8
LYELLOW
6
CONTINUOUS
10
30.7982619999999976
20
-88.6574379999999991
11
30.9411189999999969
21
-88.6098190000000017
0
LINE
8
LYELLOW
6
CONTINUOUS
10
30.9411189999999969
20
-88.6098190000000017
11
31.0363569999999989
21
-88.6098190000000017
0
LINE
8
LYELLOW
6
CONTINUOUS
10
31.0363569999999989
20
-88.6098190000000017
11
31.1792139999999982
21
-88.6574379999999991
0
LINE
8
LYELLOW
6
CONTINUOUS
10
31.1792139999999982
20
-88.6574379999999991
11
31.2268329999999992
21
-88.7050569999999965
0
LINE
8
LYELLOW
6
CONTINUOUS
10
32.0839759999999998
20
-88.9431519999999978
11
32.0839759999999998
21
-89.6098190000000017
0
LINE
8
LYELLOW
6
CONTINUOUS
10
31.8458809999999986
20
-88.56219999999999
11
31.6077859999999973
21
-89.2764849999999939
0
LINE
8
LYELLOW
6
CONTINUOUS
10
31.6077859999999973
20
-89.2764849999999939
11
32.2268329999999992
21
-89.2764849999999939
0
LINE
8
LYELLOW
6
CONTINUOUS
10
101.1659609999999958
20
-62.7550569999999936
11
101.070723000000001
21
-62.7074379999999962
0
LINE
8
LYELLOW
6
CONTINUOUS
10
101.070723000000001
20
-62.7074379999999962
11
100.9754849999999919
21
-62.6121999999999943
0
LINE
8
LYELLOW
6
CONTINUOUS
10
100.9754849999999919
20
-62.6121999999999943
11
100.8326279999999997
21
-62.4693419999999975
0
LINE
8
LYELLOW
6
CONTINUOUS
10
100.8326279999999997
20
-62.4693419999999975
11
100.7373899999999907
21
-62.4217230000000001
0
LINE
8
LYELLOW
6
CONTINUOUS
10
100.7373899999999907
20
-62.4217230000000001
11
100.6421519999999958
21
-62.4217230000000001
0
LINE
8
LYELLOW
6
CONTINUOUS
10
100.6897709999999933
20
-62.6598189999999988
11
100.5945329999999984
21
-62.6121999999999943
0
LINE
8
LYELLOW
6
CONTINUOUS
10
100.5945329999999984
20
-62.6121999999999943
11
100.4992949999999894
21
-62.5169609999999949
0
LINE
8
LYELLOW
6
CONTINUOUS
10
100.4992949999999894
20
-62.5169609999999949
11
100.451675999999992
21
-62.3264849999999981
0
LINE
8
LYELLOW
6
CONTINUOUS
10
100.451675999999992
20
-62.3264849999999981
11
100.451675999999992
21
-61.9931519999999949
0
LINE
8
LYELLOW
6
CONTINUOUS
10
100.451675999999992
20
-61.9931519999999949
11
100.4992949999999894
21
-61.8026759999999982
0
LINE
8
LYELLOW
6
CONTINUOUS
10
100.4992949999999894
20
-61.8026759999999982
11
100.5945329999999984
21
-61.7074379999999962
0
LINE
8
LYELLOW
6
CONTINUOUS
10
100.5945329999999984
20
-61.7074379999999962
11
100.6897709999999933
21
-61.6598189999999988
0
LINE
8
LYELLOW
6
CONTINUOUS
10
100.6897709999999933
20
-61.6598189999999988
11
100.8802469999999971
21
-61.6598189999999988
0
LINE
8
LYELLOW
6
CONTINUOUS
10
100.8802469999999971
20
-61.6598189999999988
11
100.9754849999999919
21
-61.7074379999999962
0
LINE
8
LYELLOW
6
CONTINUOUS
10
100.9754849999999919
20
-61.7074379999999962
11
101.070723000000001
21
-61.8026759999999982
0
LINE
8
LYELLOW
6
CONTINUOUS
10
101.070723000000001
20
-61.8026759999999982
11
101.1183419999999984
21
-61.9931519999999949
0
LINE
8
LYELLOW
6
CONTINUOUS
10
101.1183419999999984
20
-61.9931519999999949
11
101.1183419999999984
21
-62.3264849999999981
0
LINE
8
LYELLOW
6
CONTINUOUS
10
101.1183419999999984
20
-62.3264849999999981
11
101.070723000000001
21
-62.5169609999999949
0
LINE
8
LYELLOW
6
CONTINUOUS
10
101.070723000000001
20
-62.5169609999999949
11
100.9754849999999919
21
-62.6121999999999943
0
LINE
8
LYELLOW
6
CONTINUOUS
10
100.9754849999999919
20
-62.6121999999999943
11
100.8802469999999971
21
-62.6598189999999988
0
LINE
8
LYELLOW
6
CONTINUOUS
10
100.8802469999999971
20
-62.6598189999999988
11
100.6897709999999933
21
-62.6598189999999988
0
LINE
8
LYELLOW
6
CONTINUOUS
10
102.070723000000001
20
-62.6598189999999988
11
101.4992949999999894
21
-62.6598189999999988
0
LINE
8
LYELLOW
6
CONTINUOUS
10
101.7850090000000023
20
-62.6598189999999988
11
101.7850090000000023
21
-61.6598189999999988
0
LINE
8
LYELLOW
6
CONTINUOUS
10
101.7850090000000023
20
-61.6598189999999988
11
101.6897709999999933
21
-61.8026759999999982
0
LINE
8
LYELLOW
6
CONTINUOUS
10
101.6897709999999933
20
-61.8026759999999982
11
101.5945329999999984
21
-61.8979140000000001
0
LINE
8
LYELLOW
6
CONTINUOUS
10
101.5945329999999984
20
-61.8979140000000001
11
101.4992949999999894
21
-61.9455329999999975
0
LINE
8
LYELLOW
6
CONTINUOUS
10
113.0945329999999984
20
-67.4898189999999971
11
112.7611999999999881
21
-67.0136279999999971
0
LINE
8
LYELLOW
6
CONTINUOUS
10
112.523105000000001
20
-67.4898189999999971
11
112.523105000000001
21
-66.4898189999999971
0
LINE
8
LYELLOW
6
CONTINUOUS
10
112.523105000000001
20
-66.4898189999999971
11
112.9040569999999946
21
-66.4898189999999971
0
LINE
8
LYELLOW
6
CONTINUOUS
10
112.9040569999999946
20
-66.4898189999999971
11
112.9992949999999894
21
-66.5374379999999945
0
LINE
8
LYELLOW
6
CONTINUOUS
10
112.9992949999999894
20
-66.5374379999999945
11
113.046914000000001
21
-66.5850569999999919
0
LINE
8
LYELLOW
6
CONTINUOUS
10
113.046914000000001
20
-66.5850569999999919
11
113.0945329999999984
21
-66.680295000000001
0
LINE
8
LYELLOW
6
CONTINUOUS
10
113.0945329999999984
20
-66.680295000000001
11
113.0945329999999984
21
-66.8231519999999932
0
LINE
8
LYELLOW
6
CONTINUOUS
10
113.0945329999999984
20
-66.8231519999999932
11
113.046914000000001
21
-66.9183900000000023
0
LINE
8
LYELLOW
6
CONTINUOUS
10
113.046914000000001
20
-66.9183900000000023
11
112.9992949999999894
21
-66.9660089999999997
0
LINE
8
LYELLOW
6
CONTINUOUS
10
112.9992949999999894
20
-66.9660089999999997
11
112.9040569999999946
21
-67.0136279999999971
0
LINE
8
LYELLOW
6
CONTINUOUS
10
112.9040569999999946
20
-67.0136279999999971
11
112.523105000000001
21
-67.0136279999999971
0
LINE
8
LYELLOW
6
CONTINUOUS
10
113.9992949999999894
20
-66.4898189999999971
11
113.523105000000001
21
-66.4898189999999971
0
LINE
8
LYELLOW
6
CONTINUOUS
10
113.523105000000001
20
-66.4898189999999971
11
113.4754859999999894
21
-66.9660089999999997
0
LINE
8
LYELLOW
6
CONTINUOUS
10
113.4754859999999894
20
-66.9660089999999997
11
113.523105000000001
21
-66.9183900000000023
0
LINE
8
LYELLOW
6
CONTINUOUS
10
113.523105000000001
20
-66.9183900000000023
11
113.6183429999999959
21
-66.8707709999999906
0
LINE
8
LYELLOW
6
CONTINUOUS
10
113.6183429999999959
20
-66.8707709999999906
11
113.8564379999999971
21
-66.8707709999999906
0
LINE
8
LYELLOW
6
CONTINUOUS
10
113.8564379999999971
20
-66.8707709999999906
11
113.951675999999992
21
-66.9183900000000023
0
LINE
8
LYELLOW
6
CONTINUOUS
10
113.951675999999992
20
-66.9183900000000023
11
113.9992949999999894
21
-66.9660089999999997
0
LINE
8
LYELLOW
6
CONTINUOUS
10
113.9992949999999894
20
-66.9660089999999997
11
114.046914000000001
21
-67.0612469999999945
0
LINE
8
LYELLOW
6
CONTINUOUS
10
114.046914000000001
20
-67.0612469999999945
11
114.046914000000001
21
-67.2993419999999958
0
LINE
8
LYELLOW
6
CONTINUOUS
10
114.046914000000001
20
-67.2993419999999958
11
113.9992949999999894
21
-67.3945799999999906
0
LINE
8
LYELLOW
6
CONTINUOUS
10
113.9992949999999894
20
-67.3945799999999906
11
113.951675999999992
21
-67.4421999999999997
0
LINE
8
LYELLOW
6
CONTINUOUS
10
113.951675999999992
20
-67.4421999999999997
11
113.8564379999999971
21
-67.4898189999999971
0
LINE
8
LYELLOW
6
CONTINUOUS
10
113.8564379999999971
20
-67.4898189999999971
11
113.6183429999999959
21
-67.4898189999999971
0
LINE
8
LYELLOW
6
CONTINUOUS
10
113.6183429999999959
20
-67.4898189999999971
11
113.523105000000001
21
-67.4421999999999997
0
LINE
8
LYELLOW
6
CONTINUOUS
10
113.523105000000001
20
-67.4421999999999997
11
113.4754859999999894
21
-67.3945799999999906
0
LINE
8
LYELLOW
6
CONTINUOUS
10
109.9911999999999921
20
-76.0349999999999966
11
116.5311999999999983
21
-76.0349999999999966
0
LINE
8
LYELLOW
6
CONTINUOUS
10
109.9911999999999921
20
-76.3649999999999949
11
109.9911999999999921
21
-76.0349999999999966
0
LINE
8
LYELLOW
6
CONTINUOUS
10
109.9911999999999921
20
-78.4449999999999932
11
109.9911999999999921
21
-78.7749999999999915
0
LINE
8
LYELLOW
6
CONTINUOUS
10
109.9911999999999921
20
-78.7749999999999915
11
116.5311999999999983
21
-78.7749999999999915
0
LINE
8
LYELLOW
6
CONTINUOUS
10
116.5311999999999983
20
-76.0349999999999966
11
116.5311999999999983
21
-76.3649999999999949
0
LINE
8
LYELLOW
6
CONTINUOUS
10
116.5311999999999983
20
-78.7749999999999915
11
116.5311999999999983
21
-78.4449999999999932
0
LINE
8
LYELLOW
6
CONTINUOUS
10
98.6411999999999978
20
-98.0349999999999966
11
103.8811999999999927
21
-98.0349999999999966
0
LINE
8
LYELLOW
6
CONTINUOUS
10
98.6411999999999978
20
-98.3719999999999999
11
98.6411999999999978
21
-98.0349999999999966
0
LINE
8
LYELLOW
6
CONTINUOUS
10
98.6411999999999978
20
-100.7749999999999915
11
98.6411999999999978
21
-100.4380000000000024
0
LINE
8
LYELLOW
6
CONTINUOUS
10
103.8811999999999927
20
-98.0349999999999966
11
103.8811999999999927
21
-98.3719999999999999
0
LINE
8
LYELLOW
6
CONTINUOUS
10
103.8811999999999927
20
-100.4380000000000024
11
103.8811999999999927
21
-100.7749999999999915
0
LINE
8
LYELLOW
6
CONTINUOUS
10
103.8811999999999927
20
-100.7749999999999915
11
98.6411999999999978
21
-100.7749999999999915
0
LINE
8
LYELLOW
6
CONTINUOUS
10
109.9911999999999921
20
-84.0349999999999966
11
116.5311999999999983
21
-84.0349999999999966
0
LINE
8
LYELLOW
6
CONTINUOUS
10
109.9911999999999921
20
-84.3649999999999949
11
109.9911999999999921
21
-84.0349999999999966
0
LINE
8
LYELLOW
6
CONTINUOUS
10
109.9911999999999921
20
-86.4449999999999932
11
109.9911999999999921
21
-86.7749999999999915
0
LINE
8
LYELLOW
6
CONTINUOUS
10
109.9911999999999921
20
-86.7749999999999915
11
116.5311999999999983
21
-86.7749999999999915
0
LINE
8
LYELLOW
6
CONTINUOUS
10
116.5311999999999983
20
-84.0349999999999966
11
116.5311999999999983
21
-84.3649999999999949
0
LINE
8
LYELLOW
6
CONTINUOUS
10
116.5311999999999983
20
-86.7749999999999915
11
116.5311999999999983
21
-86.4449999999999932
0
LINE
8
LYELLOW
6
CONTINUOUS
10
29.8811999999999998
20
-64.2150000000000034
11
31.2611999999999988
21
-64.2150000000000034
0
LINE
8
LYELLOW
6
CONTINUOUS
10
29.8811999999999998
20
-65.5949999999999989
11
29.8811999999999998
21
-64.2150000000000034
0
LINE
8
LYELLOW
6
CONTINUOUS
10
29.8811999999999998
20
-66.8649999999999949
11
29.8811999999999998
21
-74.5949999999999989
0
LINE
8
LYELLOW
6
CONTINUOUS
10
29.8811999999999998
20
-66.8649999999999949
11
32.6411999999999978
21
-66.8649999999999949
0
LINE
8
LYELLOW
6
CONTINUOUS
10
29.8811999999999998
20
-74.5949999999999989
11
32.6411999999999978
21
-74.5949999999999989
0
LINE
8
LYELLOW
6
CONTINUOUS
10
32.6411999999999978
20
-66.8649999999999949
11
32.6411999999999978
21
-74.5949999999999989
0
LINE
8
LYELLOW
6
CONTINUOUS
10
109.9911999999999921
20
-60.0349999999999966
11
116.5311999999999983
21
-60.0349999999999966
0
LINE
8
LYELLOW
6
CONTINUOUS
10
109.9911999999999921
20
-60.3649999999999949
11
109.9911999999999921
21
-60.0349999999999966
0
LINE
8
LYELLOW
6
CONTINUOUS
10
109.9911999999999921
20
-62.4450000000000003
11
109.9911999999999921
21
-62.7749999999999986
0
LINE
8
LYELLOW
6
CONTINUOUS
10
109.9911999999999921
20
-62.7749999999999986
11
116.5311999999999983
21
-62.7749999999999986
0
LINE
8
LYELLOW
6
CONTINUOUS
10
116.5311999999999983
20
-60.0349999999999966
11
116.5311999999999983
21
-60.3649999999999949
0
LINE
8
LYELLOW
6
CONTINUOUS
10
116.5311999999999983
20
-62.7749999999999986
11
116.5311999999999983
21
-62.4450000000000003
0
LINE
8
LYELLOW
6
CONTINUOUS
10
53.9561999999999955
20
-54.9249999999999972
11
53.9561999999999955
21
-90.5450000000000017
0
LINE
8
LYELLOW
6
CONTINUOUS
10
53.9561999999999955
20
-54.9249999999999972
11
56.6161999999999992
21
-54.9249999999999972
0
LINE
8
LYELLOW
6
CONTINUOUS
10
53.9561999999999955
20
-90.5450000000000017
11
56.6161999999999992
21
-90.5450000000000017
0
LINE
8
LYELLOW
6
CONTINUOUS
10
55.2862000000000009
20
-52.3249999999999957
11
56.6161999999999992
21
-52.3249999999999957
0
LINE
8
LYELLOW
6
CONTINUOUS
10
56.6161999999999992
20
-52.3249999999999957
11
56.6161999999999992
21
-53.654999999999994
0
LINE
8
LYELLOW
6
CONTINUOUS
10
56.6161999999999992
20
-54.9249999999999972
11
56.6161999999999992
21
-90.5450000000000017
0
LINE
8
LYELLOW
6
CONTINUOUS
10
82.3562000000000012
20
-54.9249999999999972
11
82.3562000000000012
21
-90.5450000000000017
0
LINE
8
LYELLOW
6
CONTINUOUS
10
82.3562000000000012
20
-54.9249999999999972
11
85.0161999999999978
21
-54.9249999999999972
0
LINE
8
LYELLOW
6
CONTINUOUS
10
82.3562000000000012
20
-90.5450000000000017
11
85.0161999999999978
21
-90.5450000000000017
0
LINE
8
LYELLOW
6
CONTINUOUS
10
83.6861999999999995
20
-52.3249999999999957
11
85.0161999999999978
21
-52.3249999999999957
0
LINE
8
LYELLOW
6
CONTINUOUS
10
85.0161999999999978
20
-52.3249999999999957
11
85.0161999999999978
21
-53.654999999999994
0
LINE
8
LYELLOW
6
CONTINUOUS
10
85.0161999999999978
20
-54.9249999999999972
11
85.0161999999999978
21
-90.5450000000000017
0
LINE
8
LYELLOW
6
CONTINUOUS
10
99.8811999999999927
20
-43.4849999999999994
11
101.2612000000000023
21
-43.4849999999999994
0
LINE
8
LYELLOW
6
CONTINUOUS
10
99.8811999999999927
20
-44.8649999999999949
11
99.8811999999999927
21
-43.4849999999999994
0
LINE
8
LYELLOW
6
CONTINUOUS
10
99.8811999999999927
20
-46.134999999999998
11
99.8811999999999927
21
-51.3249999999999957
0
LINE
8
LYELLOW
6
CONTINUOUS
10
99.8811999999999927
20
-46.134999999999998
11
102.6411999999999978
21
-46.134999999999998
0
LINE
8
LYELLOW
6
CONTINUOUS
10
99.8811999999999927
20
-51.3249999999999957
11
102.6411999999999978
21
-51.3249999999999957
0
LINE
8
LYELLOW
6
CONTINUOUS
10
102.6411999999999978
20
-46.134999999999998
11
102.6411999999999978
21
-51.3249999999999957
0
LINE
8
LYELLOW
6
CONTINUOUS
10
99.461199999999991
20
-83.6149999999999949
11
103.0611999999999995
21
-83.6149999999999949
0
ARC
8
LYELLOW
10
101.2612000000000023
20
-81.7650000000000006
40
2.5999995737016959
50
90.00000000
51
155.00000730
0
ARC
8
LYELLOW
10
101.2612000000000023
20
-81.7650000000000006
40
2.5811818998280613
50
-154.21517737
51
-134.21517540
0
ARC
8
LYELLOW
10
101.2612000000000023
20
-81.7650000000000006
40
2.6000000000000001
50
24.99999270
51
90.00000000
0
ARC
8
LYELLOW
10
101.2612000000000023
20
-81.7650000000000006
40
2.5811818761724252
50
-45.78482460
51
-25.78482263
0
LINE
8
LYELLOW
6
CONTINUOUS
10
25.9138539999999971
20
-92.5300000000000011
11
26.9138539999999971
21
-92.5300000000000011
0
LINE
8
LYELLOW
6
CONTINUOUS
10
26.4138539999999971
20
-92.0300000000000011
11
26.4138539999999971
21
-93.0300000000000011
0
LINE
8
LYELLOW
6
CONTINUOUS
10
31.3934999999999995
20
-90.3250000000000028
11
31.3934999999999995
21
-100.4849999999999994
0
LINE
8
LYELLOW
6
CONTINUOUS
10
31.4334999999999987
20
-90.3250000000000028
11
31.4334999999999987
21
-100.4849999999999994
0
LINE
8
LYELLOW
6
CONTINUOUS
10
31.4734999999999978
20
-90.3259999999999934
11
31.4734999999999978
21
-100.4839999999999947
0
LINE
8
LYELLOW
6
CONTINUOUS
10
31.513499999999997
20
-90.3259999999999934
11
31.513499999999997
21
-100.4839999999999947
0
LINE
8
LYELLOW
6
CONTINUOUS
10
31.5534999999999997
20
-90.328000000000003
11
31.5534999999999997
21
-100.4819999999999993
0
LINE
8
LYELLOW
6
CONTINUOUS
10
31.5934999999999988
20
-90.3289999999999935
11
31.5934999999999988
21
-100.4809999999999945
0
LINE
8
LYELLOW
6
CONTINUOUS
10
31.633499999999998
20
-90.3309999999999889
11
31.633499999999998
21
-100.4789999999999992
0
LINE
8
LYELLOW
6
CONTINUOUS
10
31.6734999999999971
20
-90.3329999999999984
11
31.6734999999999971
21
-100.4769999999999897
0
LINE
8
LYELLOW
6
CONTINUOUS
10
31.7134999999999998
20
-90.3349999999999937
11
31.7134999999999998
21
-100.4749999999999943
0
LINE
8
LYELLOW
6
CONTINUOUS
10
31.7534999999999989
20
-90.3379999999999939
11
31.7534999999999989
21
-100.4719999999999942
0
LINE
8
LYELLOW
6
CONTINUOUS
10
31.7934999999999981
20
-90.340999999999994
11
31.7934999999999981
21
-100.4689999999999941
0
LINE
8
LYELLOW
6
CONTINUOUS
10
31.8334999999999972
20
-90.3439999999999941
11
31.8334999999999972
21
-100.465999999999994
0
LINE
8
LYELLOW
6
CONTINUOUS
10
31.8734999999999999
20
-90.347999999999999
11
31.8734999999999999
21
-100.4619999999999891
0
LINE
8
LYELLOW
6
CONTINUOUS
10
31.9134999999999991
20
-90.3509999999999991
11
31.9134999999999991
21
-100.458999999999989
0
LINE
8
LYELLOW
6
CONTINUOUS
10
31.9534999999999982
20
-90.3559999999999945
11
31.9534999999999982
21
-100.4539999999999935
0
LINE
8
LYELLOW
6
CONTINUOUS
10
31.9934999999999974
20
-90.3599999999999994
11
31.9934999999999974
21
-100.4499999999999886
0
LINE
8
LYELLOW
6
CONTINUOUS
10
32.0334999999999965
20
-90.3649999999999949
11
32.0334999999999965
21
-100.4449999999999932
0
LINE
8
LYELLOW
6
CONTINUOUS
10
32.0734999999999957
20
-90.3699999999999903
11
32.0734999999999957
21
-100.4399999999999977
0
LINE
8
LYELLOW
6
CONTINUOUS
10
32.1135000000000019
20
-90.3759999999999906
11
32.1135000000000019
21
-100.4339999999999975
0
LINE
8
LYELLOW
6
CONTINUOUS
10
32.1535000000000011
20
-90.3819999999999908
11
32.1535000000000011
21
-100.4279999999999973
0
LINE
8
LYELLOW
6
CONTINUOUS
10
32.1935000000000002
20
-90.387999999999991
11
32.1935000000000002
21
-100.421999999999997
0
LINE
8
LYELLOW
6
CONTINUOUS
10
32.2334999999999994
20
-90.3939999999999912
11
32.2334999999999994
21
-100.4159999999999968
0
LINE
8
LYELLOW
6
CONTINUOUS
10
32.2734999999999985
20
-90.4009999999999962
11
32.2734999999999985
21
-100.4089999999999918
0
LINE
8
LYELLOW
6
CONTINUOUS
10
32.3134999999999977
20
-90.4080000000000013
11
32.3134999999999977
21
-100.402000000000001
0
LINE
8
LYELLOW
6
CONTINUOUS
10
32.3534999999999968
20
-90.4159999999999968
11
32.3534999999999968
21
-100.3939999999999912
0
LINE
8
LYELLOW
6
CONTINUOUS
10
32.393499999999996
20
-90.4239999999999924
11
32.393499999999996
21
-100.3859999999999957
0
LINE
8
LYELLOW
6
CONTINUOUS
10
32.4334999999999951
20
-90.4320000000000022
11
32.4334999999999951
21
-100.3780000000000001
0
LINE
8
LYELLOW
6
CONTINUOUS
10
32.4735000000000014
20
-90.4399999999999977
11
32.4735000000000014
21
-100.3699999999999903
0
LINE
8
LYELLOW
6
CONTINUOUS
10
32.5135000000000005
20
-90.4489999999999981
11
32.5135000000000005
21
-100.36099999999999
0
LINE
8
LYELLOW
6
CONTINUOUS
10
32.5534999999999997
20
-90.4579999999999984
11
32.5534999999999997
21
-100.3519999999999897
0
LINE
8
LYELLOW
6
CONTINUOUS
10
32.5934999999999988
20
-90.4679999999999893
11
32.5934999999999988
21
-100.3419999999999987
0
LINE
8
LYELLOW
6
CONTINUOUS
10
32.633499999999998
20
-90.4769999999999897
11
32.633499999999998
21
-100.3329999999999984
0
LINE
8
LYELLOW
6
CONTINUOUS
10
32.6734999999999971
20
-90.4879999999999995
11
32.6734999999999971
21
-94.164999999999992
0
LINE
8
LYELLOW
6
CONTINUOUS
10
32.6734999999999971
20
-96.644999999999996
11
32.6734999999999971
21
-100.3219999999999885
0
LINE
8
LYELLOW
6
CONTINUOUS
10
32.7134999999999962
20
-90.4979999999999905
11
32.7134999999999962
21
-94.164999999999992
0
LINE
8
LYELLOW
6
CONTINUOUS
10
32.7134999999999962
20
-96.644999999999996
11
32.7134999999999962
21
-100.3119999999999976
0
LINE
8
LYELLOW
6
CONTINUOUS
10
32.7534999999999954
20
-90.5090000000000003
11
32.7534999999999954
21
-94.164999999999992
0
LINE
8
LYELLOW
6
CONTINUOUS
10
32.7534999999999954
20
-96.644999999999996
11
32.7534999999999954
21
-100.3010000000000019
0
LINE
8
LYELLOW
6
CONTINUOUS
10
32.7935000000000016
20
-90.519999999999996
11
32.7935000000000016
21
-94.164999999999992
0
LINE
8
LYELLOW
6
CONTINUOUS
10
32.7935000000000016
20
-96.644999999999996
11
32.7935000000000016
21
-100.289999999999992
0
LINE
8
LYELLOW
6
CONTINUOUS
10
32.8335000000000008
20
-90.5319999999999965
11
32.8335000000000008
21
-94.164999999999992
0
LINE
8
LYELLOW
6
CONTINUOUS
10
32.8335000000000008
20
-96.644999999999996
11
32.8335000000000008
21
-100.2779999999999916
0
LINE
8
LYELLOW
6
CONTINUOUS
10
32.8734999999999999
20
-90.5439999999999969
11
32.8734999999999999
21
-94.164999999999992
0
LINE
8
LYELLOW
6
CONTINUOUS
10
32.8734999999999999
20
-96.644999999999996
11
32.8734999999999999
21
-100.2659999999999911
0
LINE
8
LYELLOW
6
CONTINUOUS
10
32.9134999999999991
20
-90.5559999999999974
11
32.9134999999999991
21
-94.164999999999992
0
LINE
8
LYELLOW
6
CONTINUOUS
10
32.9134999999999991
20
-96.644999999999996
11
32.9134999999999991
21
-100.2539999999999907
0
LINE
8
LYELLOW
6
CONTINUOUS
10
32.9534999999999982
20
-90.5679999999999978
11
32.9534999999999982
21
-94.164999999999992
0
LINE
8
LYELLOW
6
CONTINUOUS
10
32.9534999999999982
20
-96.644999999999996
11
32.9534999999999982
21
-100.2419999999999902
0
LINE
8
LYELLOW
6
CONTINUOUS
10
32.9934999999999974
20
-90.5809999999999889
11
32.9934999999999974
21
-94.164999999999992
0
LINE
8
LYELLOW
6
CONTINUOUS
10
32.9934999999999974
20
-96.644999999999996
11
32.9934999999999974
21
-100.2289999999999992
0
LINE
8
LYELLOW
6
CONTINUOUS
10
33.0334999999999965
20
-90.5949999999999989
11
33.0334999999999965
21
-94.164999999999992
0
LINE
8
LYELLOW
6
CONTINUOUS
10
33.0334999999999965
20
-96.644999999999996
11
33.0334999999999965
21
-100.2149999999999892
0
LINE
8
LYELLOW
6
CONTINUOUS
10
33.0734999999999957
20
-90.6079999999999899
11
33.0734999999999957
21
-94.164999999999992
0
LINE
8
LYELLOW
6
CONTINUOUS
10
33.0734999999999957
20
-96.644999999999996
11
33.0734999999999957
21
-100.2019999999999982
0
LINE
8
LYELLOW
6
CONTINUOUS
10
33.1135000000000019
20
-90.6229999999999905
11
33.1135000000000019
21
-94.164999999999992
0
LINE
8
LYELLOW
6
CONTINUOUS
10
33.1135000000000019
20
-96.644999999999996
11
33.1135000000000019
21
-100.1869999999999976
0
LINE
8
LYELLOW
6
CONTINUOUS
10
33.1535000000000011
20
-90.6370000000000005
11
33.1535000000000011
21
-94.164999999999992
0
LINE
8
LYELLOW
6
CONTINUOUS
10
33.1535000000000011
20
-96.644999999999996
11
33.1535000000000011
21
-100.1730000000000018
0
LINE
8
LYELLOW
6
CONTINUOUS
10
33.1935000000000002
20
-90.652000000000001
11
33.1935000000000002
21
-94.164999999999992
0
LINE
8
LYELLOW
6
CONTINUOUS
10
33.1935000000000002
20
-96.644999999999996
11
33.1935000000000002
21
-100.1580000000000013
0
LINE
8
LYELLOW
6
CONTINUOUS
10
33.2334999999999994
20
-90.6670000000000016
11
33.2334999999999994
21
-94.164999999999992
0
LINE
8
LYELLOW
6
CONTINUOUS
10
33.2334999999999994
20
-96.644999999999996
11
33.2334999999999994
21
-100.1430000000000007
0
LINE
8
LYELLOW
6
CONTINUOUS
10
33.2734999999999985
20
-90.6829999999999927
11
33.2734999999999985
21
-94.164999999999992
0
LINE
8
LYELLOW
6
CONTINUOUS
10
33.2734999999999985
20
-96.644999999999996
11
33.2734999999999985
21
-100.1269999999999953
0
LINE
8
LYELLOW
6
CONTINUOUS
10
33.3134999999999977
20
-90.6989999999999981
11
33.3134999999999977
21
-94.164999999999992
0
LINE
8
LYELLOW
6
CONTINUOUS
10
33.3134999999999977
20
-96.644999999999996
11
33.3134999999999977
21
-100.11099999999999
0
LINE
8
LYELLOW
6
CONTINUOUS
10
33.3534999999999968
20
-90.7149999999999892
11
33.3534999999999968
21
-94.164999999999992
0
LINE
8
LYELLOW
6
CONTINUOUS
10
33.3534999999999968
20
-96.644999999999996
11
33.3534999999999968
21
-100.0949999999999989
0
LINE
8
LYELLOW
6
CONTINUOUS
10
33.393499999999996
20
-90.7319999999999993
11
33.393499999999996
21
-94.164999999999992
0
LINE
8
LYELLOW
6
CONTINUOUS
10
33.393499999999996
20
-96.644999999999996
11
33.393499999999996
21
-100.0779999999999887
0
LINE
8
LYELLOW
6
CONTINUOUS
10
33.4334999999999951
20
-90.7489999999999952
11
33.4334999999999951
21
-94.164999999999992
0
LINE
8
LYELLOW
6
CONTINUOUS
10
33.4334999999999951
20
-96.644999999999996
11
33.4334999999999951
21
-100.0609999999999928
0
LINE
8
LYELLOW
6
CONTINUOUS
10
33.4735000000000014
20
-90.7669999999999959
11
33.4735000000000014
21
-94.164999999999992
0
LINE
8
LYELLOW
6
CONTINUOUS
10
33.4735000000000014
20
-96.644999999999996
11
33.4735000000000014
21
-100.0429999999999922
0
LINE
8
LYELLOW
6
CONTINUOUS
10
33.5135000000000005
20
-90.7849999999999966
11
33.5135000000000005
21
-94.164999999999992
0
LINE
8
LYELLOW
6
CONTINUOUS
10
33.5135000000000005
20
-96.644999999999996
11
33.5135000000000005
21
-100.0249999999999915
0
LINE
8
LYELLOW
6
CONTINUOUS
10
33.5534999999999997
20
-90.8029999999999973
11
33.5534999999999997
21
-94.164999999999992
0
LINE
8
LYELLOW
6
CONTINUOUS
10
33.5534999999999997
20
-96.644999999999996
11
33.5534999999999997
21
-100.0069999999999908
0
LINE
8
LYELLOW
6
CONTINUOUS
10
33.5934999999999988
20
-90.8220000000000027
11
33.5934999999999988
21
-94.164999999999992
0
LINE
8
LYELLOW
6
CONTINUOUS
10
33.5934999999999988
20
-96.644999999999996
11
33.5934999999999988
21
-99.9879999999999995
0
LINE
8
LYELLOW
6
CONTINUOUS
10
33.633499999999998
20
-90.840999999999994
11
33.633499999999998
21
-94.164999999999992
0
LINE
8
LYELLOW
6
CONTINUOUS
10
33.633499999999998
20
-96.644999999999996
11
33.633499999999998
21
-99.9689999999999941
0
LINE
8
LYELLOW
6
CONTINUOUS
10
33.6734999999999971
20
-90.86099999999999
11
33.6734999999999971
21
-94.164999999999992
0
LINE
8
LYELLOW
6
CONTINUOUS
10
33.6734999999999971
20
-96.644999999999996
11
33.6734999999999971
21
-99.9489999999999981
0
LINE
8
LYELLOW
6
CONTINUOUS
10
33.7134999999999962
20
-90.8810000000000002
11
33.7134999999999962
21
-94.164999999999992
0
LINE
8
LYELLOW
6
CONTINUOUS
10
33.7134999999999962
20
-96.644999999999996
11
33.7134999999999962
21
-99.929000000000002
0
LINE
8
LYELLOW
6
CONTINUOUS
10
33.7534999999999954
20
-90.9009999999999962
11
33.7534999999999954
21
-94.164999999999992
0
LINE
8
LYELLOW
6
CONTINUOUS
10
33.7534999999999954
20
-96.644999999999996
11
33.7534999999999954
21
-99.9089999999999918
0
LINE
8
LYELLOW
6
CONTINUOUS
10
33.7935000000000016
20
-90.921999999999997
11
33.7935000000000016
21
-94.164999999999992
0
LINE
8
LYELLOW
6
CONTINUOUS
10
33.7935000000000016
20
-96.644999999999996
11
33.7935000000000016
21
-99.887999999999991
0
LINE
8
LYELLOW
6
CONTINUOUS
10
33.8335000000000008
20
-90.9440000000000026
11
33.8335000000000008
21
-94.164999999999992
0
LINE
8
LYELLOW
6
CONTINUOUS
10
33.8335000000000008
20
-96.644999999999996
11
33.8335000000000008
21
-99.8659999999999997
0
LINE
8
LYELLOW
6
CONTINUOUS
10
33.8734999999999999
20
-90.965999999999994
11
33.8734999999999999
21
-94.164999999999992
0
LINE
8
LYELLOW
6
CONTINUOUS
10
33.8734999999999999
20
-96.644999999999996
11
33.8734999999999999
21
-99.8439999999999941
0
LINE
8
LYELLOW
6
CONTINUOUS
10
33.9134999999999991
20
-90.9879999999999995
11
33.9134999999999991
21
-94.164999999999992
0
LINE
8
LYELLOW
6
CONTINUOUS
10
33.9134999999999991
20
-96.644999999999996
11
33.9134999999999991
21
-99.8219999999999885
0
LINE
8
LYELLOW
6
CONTINUOUS
10
33.9534999999999982
20
-91.0109999999999957
11
33.9534999999999982
21
-94.164999999999992
0
LINE
8
LYELLOW
6
CONTINUOUS
10
33.9534999999999982
20
-96.644999999999996
11
33.9534999999999982
21
-99.7989999999999924
0
LINE
8
LYELLOW
6
CONTINUOUS
10
33.9934999999999974
20
-91.0339999999999918
11
33.9934999999999974
21
-94.164999999999992
0
LINE
8
LYELLOW
6
CONTINUOUS
10
33.9934999999999974
20
-96.644999999999996
11
33.9934999999999974
21
-99.7759999999999962
0
LINE
8
LYELLOW
6
CONTINUOUS
10
34.0334999999999965
20
-91.0579999999999927
11
34.0334999999999965
21
-94.164999999999992
0
LINE
8
LYELLOW
6
CONTINUOUS
10
34.0334999999999965
20
-96.644999999999996
11
34.0334999999999965
21
-99.7519999999999953
0
LINE
8
LYELLOW
6
CONTINUOUS
10
34.0734999999999957
20
-91.0819999999999936
11
34.0734999999999957
21
-94.164999999999992
0
LINE
8
LYELLOW
6
CONTINUOUS
10
34.0734999999999957
20
-96.644999999999996
11
34.0734999999999957
21
-99.7279999999999944
0
LINE
8
LYELLOW
6
CONTINUOUS
10
34.1135000000000019
20
-91.1069999999999993
11
34.1135000000000019
21
-94.164999999999992
0
LINE
8
LYELLOW
6
CONTINUOUS
10
34.1135000000000019
20
-96.644999999999996
11
34.1135000000000019
21
-99.7029999999999887
0
LINE
8
LYELLOW
6
CONTINUOUS
10
34.1535000000000011
20
-91.1329999999999956
11
34.1535000000000011
21
-94.164999999999992
0
LINE
8
LYELLOW
6
CONTINUOUS
10
34.1535000000000011
20
-96.644999999999996
11
34.1535000000000011
21
-99.6769999999999925
0
LINE
8
LYELLOW
6
CONTINUOUS
10
34.1935000000000002
20
-91.1580000000000013
11
34.1935000000000002
21
-94.164999999999992
0
LINE
8
LYELLOW
6
CONTINUOUS
10
34.1935000000000002
20
-96.644999999999996
11
34.1935000000000002
21
-99.652000000000001
0
LINE
8
LYELLOW
6
CONTINUOUS
10
34.2334999999999994
20
-91.1850000000000023
11
34.2334999999999994
21
-94.164999999999992
0
LINE
8
LYELLOW
6
CONTINUOUS
10
34.2334999999999994
20
-96.644999999999996
11
34.2334999999999994
21
-99.625
0
LINE
8
LYELLOW
6
CONTINUOUS
10
34.2734999999999985
20
-91.2119999999999891
11
34.2734999999999985
21
-94.164999999999992
0
LINE
8
LYELLOW
6
CONTINUOUS
10
34.2734999999999985
20
-96.644999999999996
11
34.2734999999999985
21
-99.597999999999999
0
LINE
8
LYELLOW
6
CONTINUOUS
10
34.3134999999999977
20
-91.2389999999999901
11
34.3134999999999977
21
-94.164999999999992
0
LINE
8
LYELLOW
6
CONTINUOUS
10
34.3134999999999977
20
-96.644999999999996
11
34.3134999999999977
21
-99.570999999999998
0
LINE
8
LYELLOW
6
CONTINUOUS
10
34.3534999999999968
20
-91.2669999999999959
11
34.3534999999999968
21
-94.164999999999992
0
LINE
8
LYELLOW
6
CONTINUOUS
10
34.3534999999999968
20
-96.644999999999996
11
34.3534999999999968
21
-99.5429999999999922
0
LINE
8
LYELLOW
6
CONTINUOUS
10
34.393499999999996
20
-91.2959999999999923
11
34.393499999999996
21
-94.164999999999992
0
LINE
8
LYELLOW
6
CONTINUOUS
10
34.393499999999996
20
-96.644999999999996
11
34.393499999999996
21
-99.5139999999999958
0
LINE
8
LYELLOW
6
CONTINUOUS
10
34.4334999999999951
20
-91.3250000000000028
11
34.4334999999999951
21
-94.164999999999992
0
LINE
8
LYELLOW
6
CONTINUOUS
10
34.4334999999999951
20
-96.644999999999996
11
34.4334999999999951
21
-99.4849999999999994
0
LINE
8
LYELLOW
6
CONTINUOUS
10
34.4735000000000014
20
-91.3549999999999898
11
34.4735000000000014
21
-94.164999999999992
0
LINE
8
LYELLOW
6
CONTINUOUS
10
34.4735000000000014
20
-96.644999999999996
11
34.4735000000000014
21
-99.4549999999999983
0
LINE
8
LYELLOW
6
CONTINUOUS
10
34.5135000000000005
20
-91.3849999999999909
11
34.5135000000000005
21
-94.164999999999992
0
LINE
8
LYELLOW
6
CONTINUOUS
10
34.5135000000000005
20
-96.644999999999996
11
34.5135000000000005
21
-99.4249999999999972
0
LINE
8
LYELLOW
6
CONTINUOUS
10
34.5534999999999997
20
-91.4170000000000016
11
34.5534999999999997
21
-94.164999999999992
0
LINE
8
LYELLOW
6
CONTINUOUS
10
34.5534999999999997
20
-96.644999999999996
11
34.5534999999999997
21
-99.3930000000000007
0
LINE
8
LYELLOW
6
CONTINUOUS
10
34.5934999999999988
20
-91.4479999999999933
11
34.5934999999999988
21
-94.164999999999992
0
LINE
8
LYELLOW
6
CONTINUOUS
10
34.5934999999999988
20
-96.644999999999996
11
34.5934999999999988
21
-99.3619999999999948
0
LINE
8
LYELLOW
6
CONTINUOUS
10
34.633499999999998
20
-91.4809999999999945
11
34.633499999999998
21
-94.164999999999992
0
LINE
8
LYELLOW
6
CONTINUOUS
10
34.633499999999998
20
-96.644999999999996
11
34.633499999999998
21
-99.3289999999999935
0
LINE
8
LYELLOW
6
CONTINUOUS
10
34.6734999999999971
20
-91.5139999999999958
11
34.6734999999999971
21
-94.164999999999992
0
LINE
8
LYELLOW
6
CONTINUOUS
10
34.6734999999999971
20
-96.644999999999996
11
34.6734999999999971
21
-99.2959999999999923
0
LINE
8
LYELLOW
6
CONTINUOUS
10
34.7134999999999962
20
-91.546999999999997
11
34.7134999999999962
21
-94.164999999999992
0
LINE
8
LYELLOW
6
CONTINUOUS
10
34.7134999999999962
20
-96.644999999999996
11
34.7134999999999962
21
-99.262999999999991
0
LINE
8
LYELLOW
6
CONTINUOUS
10
34.7534999999999954
20
-91.5819999999999936
11
34.7534999999999954
21
-94.164999999999992
0
LINE
8
LYELLOW
6
CONTINUOUS
10
34.7534999999999954
20
-96.644999999999996
11
34.7534999999999954
21
-99.2279999999999944
0
LINE
8
LYELLOW
6
CONTINUOUS
10
34.7935000000000016
20
-91.6169999999999902
11
34.7935000000000016
21
-94.164999999999992
0
LINE
8
LYELLOW
6
CONTINUOUS
10
34.7935000000000016
20
-96.644999999999996
11
34.7935000000000016
21
-99.1929999999999978
0
LINE
8
LYELLOW
6
CONTINUOUS
10
34.8335000000000008
20
-91.6529999999999916
11
34.8335000000000008
21
-94.164999999999992
0
LINE
8
LYELLOW
6
CONTINUOUS
10
34.8335000000000008
20
-96.644999999999996
11
34.8335000000000008
21
-99.1569999999999965
0
LINE
8
LYELLOW
6
CONTINUOUS
10
34.8734999999999999
20
-91.688999999999993
11
34.8734999999999999
21
-94.164999999999992
0
LINE
8
LYELLOW
6
CONTINUOUS
10
34.8734999999999999
20
-96.644999999999996
11
34.8734999999999999
21
-99.1209999999999951
0
LINE
8
LYELLOW
6
CONTINUOUS
10
34.9134999999999991
20
-91.7269999999999897
11
34.9134999999999991
21
-94.164999999999992
0
LINE
8
LYELLOW
6
CONTINUOUS
10
34.9134999999999991
20
-96.644999999999996
11
34.9134999999999991
21
-99.0829999999999984
0
LINE
8
LYELLOW
6
CONTINUOUS
10
34.9534999999999982
20
-91.7650000000000006
11
34.9534999999999982
21
-94.164999999999992
0
LINE
8
LYELLOW
6
CONTINUOUS
10
34.9534999999999982
20
-96.644999999999996
11
34.9534999999999982
21
-99.0450000000000017
0
LINE
8
LYELLOW
6
CONTINUOUS
10
34.9934999999999974
20
-91.804000000000002
11
34.9934999999999974
21
-94.164999999999992
0
LINE
8
LYELLOW
6
CONTINUOUS
10
34.9934999999999974
20
-96.644999999999996
11
34.9934999999999974
21
-99.0060000000000002
0
LINE
8
LYELLOW
6
CONTINUOUS
10
35.0334999999999965
20
-91.8439999999999941
11
35.0334999999999965
21
-94.164999999999992
0
LINE
8
LYELLOW
6
CONTINUOUS
10
35.0334999999999965
20
-96.644999999999996
11
35.0334999999999965
21
-98.965999999999994
0
LINE
8
LYELLOW
6
CONTINUOUS
10
35.0734999999999957
20
-91.8849999999999909
11
35.0734999999999957
21
-94.164999999999992
0
LINE
8
LYELLOW
6
CONTINUOUS
10
35.0734999999999957
20
-96.644999999999996
11
35.0734999999999957
21
-98.9249999999999972
0
LINE
8
LYELLOW
6
CONTINUOUS
10
35.1135000000000019
20
-91.9269999999999925
11
35.1135000000000019
21
-94.164999999999992
0
LINE
8
LYELLOW
6
CONTINUOUS
10
35.1135000000000019
20
-96.644999999999996
11
35.1135000000000019
21
-98.8829999999999956
0
LINE
8
LYELLOW
6
CONTINUOUS
10
35.1535000000000011
20
-91.9699999999999989
11
35.1535000000000011
21
-98.8399999999999892
0
LINE
8
LYELLOW
6
CONTINUOUS
10
35.1935000000000002
20
-92.0139999999999958
11
35.1935000000000002
21
-98.7959999999999923
0
LINE
8
LYELLOW
6
CONTINUOUS
10
35.2334999999999994
20
-92.0579999999999927
11
35.2334999999999994
21
-98.7519999999999953
0
LINE
8
LYELLOW
6
CONTINUOUS
10
35.2734999999999985
20
-92.1039999999999992
11
35.2734999999999985
21
-98.7059999999999889
0
LINE
8
LYELLOW
6
CONTINUOUS
10
35.3134999999999977
20
-92.1509999999999962
11
35.3134999999999977
21
-98.6589999999999918
0
LINE
8
LYELLOW
6
CONTINUOUS
10
35.3534999999999968
20
-92.2000000000000028
11
35.3534999999999968
21
-98.6099999999999994
0
LINE
8
LYELLOW
6
CONTINUOUS
10
35.393499999999996
20
-92.2489999999999952
11
35.393499999999996
21
-98.5609999999999928
0
LINE
8
LYELLOW
6
CONTINUOUS
10
35.4334999999999951
20
-92.2999999999999972
11
35.4334999999999951
21
-98.5099999999999909
0
LINE
8
LYELLOW
6
CONTINUOUS
10
35.4735000000000014
20
-92.3519999999999897
11
35.4735000000000014
21
-98.4579999999999984
0
LINE
8
LYELLOW
6
CONTINUOUS
10
35.5135000000000005
20
-92.4050000000000011
11
35.5135000000000005
21
-98.4050000000000011
0
LINE
8
LYELLOW
6
CONTINUOUS
10
35.5534999999999997
20
-92.4599999999999937
11
35.5534999999999997
21
-98.3499999999999943
0
LINE
8
LYELLOW
6
CONTINUOUS
10
35.5934999999999988
20
-92.5169999999999959
11
35.5934999999999988
21
-98.2929999999999922
0
LINE
8
LYELLOW
6
CONTINUOUS
10
35.633499999999998
20
-92.5750000000000028
11
35.633499999999998
21
-98.2349999999999994
0
LINE
8
LYELLOW
6
CONTINUOUS
10
35.6734999999999971
20
-92.6349999999999909
11
35.6734999999999971
21
-98.1749999999999972
0
LINE
8
LYELLOW
6
CONTINUOUS
10
35.7134999999999962
20
-92.6970000000000027
11
35.7134999999999962
21
-98.1129999999999995
0
LINE
8
LYELLOW
6
CONTINUOUS
10
35.7534999999999954
20
-92.7609999999999957
11
35.7534999999999954
21
-98.0489999999999924
0
LINE
8
LYELLOW
6
CONTINUOUS
10
35.7935000000000016
20
-92.8269999999999982
11
35.7935000000000016
21
-97.9829999999999899
0
LINE
8
LYELLOW
6
CONTINUOUS
10
35.8335000000000008
20
-92.894999999999996
11
35.8335000000000008
21
-97.914999999999992
0
LINE
8
LYELLOW
6
CONTINUOUS
10
35.8734999999999999
20
-92.965999999999994
11
35.8734999999999999
21
-97.8439999999999941
0
LINE
8
LYELLOW
6
CONTINUOUS
10
35.9134999999999991
20
-93.039999999999992
11
35.9134999999999991
21
-97.769999999999996
0
LINE
8
LYELLOW
6
CONTINUOUS
10
35.9534999999999982
20
-93.1169999999999902
11
35.9534999999999982
21
-97.6929999999999978
0
LINE
8
LYELLOW
6
CONTINUOUS
10
35.9934999999999974
20
-93.1970000000000027
11
35.9934999999999974
21
-97.6129999999999995
0
LINE
8
LYELLOW
6
CONTINUOUS
10
36.0334999999999965
20
-93.2809999999999917
11
36.0334999999999965
21
-97.5289999999999964
0
LINE
8
LYELLOW
6
CONTINUOUS
10
36.0734999999999957
20
-93.367999999999995
11
36.0734999999999957
21
-97.4419999999999931
0
LINE
8
LYELLOW
6
CONTINUOUS
10
36.1134999999999948
20
-93.4609999999999985
11
36.1134999999999948
21
-97.3489999999999895
0
LINE
8
LYELLOW
6
CONTINUOUS
10
36.1535000000000011
20
-93.5589999999999975
11
36.1535000000000011
21
-97.2509999999999906
0
LINE
8
LYELLOW
6
CONTINUOUS
10
36.1935000000000002
20
-93.6629999999999967
11
36.1935000000000002
21
-97.1469999999999914
0
LINE
8
LYELLOW
6
CONTINUOUS
10
36.2334999999999994
20
-93.7749999999999915
11
36.2334999999999994
21
-97.0349999999999966
0
LINE
8
LYELLOW
6
CONTINUOUS
10
36.2734999999999985
20
-93.8960000000000008
11
36.2734999999999985
21
-96.9140000000000015
0
LINE
8
LYELLOW
6
CONTINUOUS
10
36.3134999999999977
20
-94.0279999999999916
11
36.3134999999999977
21
-96.7819999999999965
0
LINE
8
LYELLOW
6
CONTINUOUS
10
36.3534999999999968
20
-94.1749999999999972
11
36.3534999999999968
21
-96.6349999999999909
0
LINE
8
LYELLOW
6
CONTINUOUS
10
36.393499999999996
20
-94.3429999999999893
11
36.393499999999996
21
-96.4669999999999987
0
LINE
8
LYELLOW
6
CONTINUOUS
10
36.4334999999999951
20
-94.5429999999999922
11
36.4334999999999951
21
-96.2669999999999959
0
LINE
8
LYELLOW
6
CONTINUOUS
10
36.4735000000000014
20
-94.8059999999999974
11
36.4735000000000014
21
-96.0039999999999907
0
CIRCLE
8
LYELLOW
10
31.3934999999999995
20
-95.4050000000000011
40
5.1200000000000001
0
LINE
8
LYELLOW
6
CONTINUOUS
10
99.461199999999991
20
-67.6149999999999949
11
103.0611999999999995
21
-67.6149999999999949
0
ARC
8
LYELLOW
10
101.2612000000000023
20
-65.7650000000000006
40
2.5999995737016959
50
90.00000000
51
155.00000730
0
ARC
8
LYELLOW
10
101.2612000000000023
20
-65.7650000000000006
40
2.5811818998280613
50
-154.21517737
51
-134.21517540
0
ARC
8
LYELLOW
10
101.2612000000000023
20
-65.7650000000000006
40
2.6000000000000001
50
24.99999270
51
90.00000000
0
ARC
8
LYELLOW
10
101.2612000000000023
20
-65.7650000000000006
40
2.5811818761724252
50
-45.78482460
51
-25.78482263
0
LINE
8
LYELLOW
6
CONTINUOUS
10
109.9911999999999921
20
-68.0349999999999966
11
116.5311999999999983
21
-68.0349999999999966
0
LINE
8
LYELLOW
6
CONTINUOUS
10
109.9911999999999921
20
-68.3649999999999949
11
109.9911999999999921
21
-68.0349999999999966
0
LINE
8
LYELLOW
6
CONTINUOUS
10
109.9911999999999921
20
-70.4449999999999932
11
109.9911999999999921
21
-70.7749999999999915
0
LINE
8
LYELLOW
6
CONTINUOUS
10
109.9911999999999921
20
-70.7749999999999915
11
116.5311999999999983
21
-70.7749999999999915
0
LINE
8
LYELLOW
6
CONTINUOUS
10
116.5311999999999983
20
-68.0349999999999966
11
116.5311999999999983
21
-68.3649999999999949
0
LINE
8
LYELLOW
6
CONTINUOUS
10
116.5311999999999983
20
-70.7749999999999915
11
116.5311999999999983
21
-70.4449999999999932
0
LINE
8
WHITE
6
CONTINUOUS
10
20.
20
-20.
11
124.
21
-20.
0
LINE
8
WHITE
6
CONTINUOUS
10
124.
20
-20.
11
124.
21
-124.
0
LINE
8
WHITE
6
CONTINUOUS
10
124.
20
-124.
11
20.
21
-124.
0
LINE
8
WHITE
6
CONTINUOUS
10
20.
20
-124.
11
20.
21
-20.
  0
ENDSEC
  0
EOF
