%TF.GenerationSoftware,KiCad,Pcbnew,10.0.6*%
%TF.CreationDate,2026-10-03T13:43:59+02:00*%
%TF.ProjectId,rode-preamp,726f6465-2d70-4726-9561-6d702e6b6963,rev?*%
%TF.SameCoordinates,Original*%
%TF.FileFunction,Soldermask,Bot*%
%TF.FilePolarity,Negative*%
%FSLAX46Y46*%
G04 Gerber Fmt 4.6, Leading zero omitted, Abs format (unit mm)*
G04 Created by KiCad (PCBNEW 10.0.6) date 2026-10-03 13:43:59*
%MOMM*%
%LPD*%
G01*
G04 APERTURE LIST*
G04 Aperture macros list*
%AMRoundRect*
0 Rectangle with rounded corners*
0 $1 Rounding radius*
0 $2 $3 $4 $5 $6 $7 $8 $9 X,Y pos of 4 corners*
0 Add a 4 corners polygon primitive as box body*
4,1,4,$2,$3,$4,$5,$6,$7,$8,$9,$2,$3,0*
0 Add four circle primitives for the rounded corners*
1,1,$1+$1,$2,$3*
1,1,$1+$1,$4,$5*
1,1,$1+$1,$6,$7*
1,1,$1+$1,$8,$9*
0 Add four rect primitives between the rounded corners*
20,1,$1+$1,$2,$3,$4,$5,0*
20,1,$1+$1,$4,$5,$6,$7,0*
20,1,$1+$1,$6,$7,$8,$9,0*
20,1,$1+$1,$8,$9,$2,$3,0*%
G04 Aperture macros list end*
%ADD10C,1.600000*%
%ADD11RoundRect,0.250000X-0.550000X-0.550000X0.550000X-0.550000X0.550000X0.550000X-0.550000X0.550000X0*%
%ADD12R,1.700000X1.700000*%
%ADD13C,1.700000*%
%ADD14RoundRect,0.250000X0.550000X0.550000X-0.550000X0.550000X-0.550000X-0.550000X0.550000X-0.550000X0*%
%ADD15RoundRect,0.250000X-1.050000X1.050000X-1.050000X-1.050000X1.050000X-1.050000X1.050000X1.050000X0*%
%ADD16C,2.600000*%
%ADD17RoundRect,0.250000X-0.950000X-0.550000X0.950000X-0.550000X0.950000X0.550000X-0.950000X0.550000X0*%
%ADD18O,2.400000X1.600000*%
G04 APERTURE END LIST*
D10*
%TO.C,R6*%
X128140000Y-116520000D03*
X135760000Y-116520000D03*
%TD*%
D11*
%TO.C,C2*%
X110140000Y-120520000D03*
D10*
X112640000Y-120520000D03*
%TD*%
D12*
%TO.C,J2*%
X160140000Y-103020000D03*
D13*
X160140000Y-105560000D03*
X160140000Y-108100000D03*
X160140000Y-110640000D03*
%TD*%
D10*
%TO.C,C8*%
X140760000Y-118020000D03*
X145760000Y-118020000D03*
%TD*%
%TO.C,R3*%
X108640000Y-108020000D03*
X108640000Y-115640000D03*
%TD*%
D14*
%TO.C,C3*%
X121140000Y-112020000D03*
D10*
X118640000Y-112020000D03*
%TD*%
D15*
%TO.C,J1*%
X106140000Y-130010000D03*
D16*
X106140000Y-135010000D03*
%TD*%
D11*
%TO.C,C1*%
X115140000Y-131010000D03*
D10*
X117640000Y-131010000D03*
%TD*%
%TO.C,R5*%
X124640000Y-112020000D03*
X124640000Y-119640000D03*
%TD*%
%TO.C,C6*%
X148640000Y-130560000D03*
X148640000Y-125560000D03*
%TD*%
%TO.C,R4*%
X112640000Y-115640000D03*
X112640000Y-108020000D03*
%TD*%
D17*
%TO.C,U1*%
X133140000Y-123020000D03*
D18*
X133140000Y-125560000D03*
X133140000Y-128100000D03*
X133140000Y-130640000D03*
X140760000Y-130640000D03*
X140760000Y-128100000D03*
X140760000Y-125560000D03*
X140760000Y-123020000D03*
%TD*%
D10*
%TO.C,R7*%
X152760000Y-136510000D03*
X145140000Y-136510000D03*
%TD*%
%TO.C,R8*%
X145140000Y-133180000D03*
X145140000Y-125560000D03*
%TD*%
D11*
%TO.C,C5*%
X156140000Y-136510000D03*
D10*
X158640000Y-136510000D03*
%TD*%
%TO.C,R1*%
X104140000Y-108020000D03*
X104140000Y-115640000D03*
%TD*%
%TO.C,R9*%
X153140000Y-129010000D03*
X153140000Y-121390000D03*
%TD*%
%TO.C,C7*%
X157140000Y-117020000D03*
X157140000Y-122020000D03*
%TD*%
%TO.C,R2*%
X117140000Y-124810000D03*
X117140000Y-117190000D03*
%TD*%
%TO.C,C4*%
X129140000Y-112020000D03*
X134140000Y-112020000D03*
%TD*%
M02*
