M48
; DRILL file KiCad 10.0.6 date 2026-10-03T13:43:59
; FORMAT={-:-/ absolute / metric / decimal}
; #@! TF.CreationDate,2026-10-03T13:43:59+02:00
; #@! TF.GenerationSoftware,Kicad,Pcbnew,10.0.6
; #@! TF.FileFunction,MixedPlating,1,2
FMAT,2
METRIC
; #@! TA.AperFunction,Plated,PTH,ComponentDrill
T1C0.800
; #@! TA.AperFunction,Plated,PTH,ComponentDrill
T2C1.000
; #@! TA.AperFunction,Plated,PTH,ComponentDrill
T3C1.300
%
G90
G05
T1
X104.14Y-108.02
X104.14Y-115.64
X108.64Y-108.02
X108.64Y-115.64
X110.14Y-120.52
X112.64Y-108.02
X112.64Y-115.64
X112.64Y-120.52
X115.14Y-131.01
X117.14Y-117.19
X117.14Y-124.81
X117.64Y-131.01
X118.64Y-112.02
X121.14Y-112.02
X124.64Y-112.02
X124.64Y-119.64
X128.14Y-116.52
X129.14Y-112.02
X133.14Y-123.02
X133.14Y-125.56
X133.14Y-128.1
X133.14Y-130.64
X134.14Y-112.02
X135.76Y-116.52
X140.76Y-118.02
X140.76Y-123.02
X140.76Y-125.56
X140.76Y-128.1
X140.76Y-130.64
X145.14Y-125.56
X145.14Y-133.18
X145.14Y-136.51
X145.76Y-118.02
X148.64Y-125.56
X148.64Y-130.56
X152.76Y-136.51
X153.14Y-121.39
X153.14Y-129.01
X156.14Y-136.51
X157.14Y-117.02
X157.14Y-122.02
X158.64Y-136.51
T2
X160.14Y-103.02
X160.14Y-105.56
X160.14Y-108.1
X160.14Y-110.64
T3
X106.14Y-130.01
X106.14Y-135.01
M30
