%TF.GenerationSoftware,KiCad,Pcbnew,10.0.6*%
%TF.CreationDate,2026-10-03T13:16:30+02:00*%
%TF.ProjectId,rode-preamp,726f6465-2d70-4726-9561-6d702e6b6963,rev?*%
%TF.SameCoordinates,Original*%
%TF.FileFunction,Legend,Top*%
%TF.FilePolarity,Positive*%
%FSLAX46Y46*%
G04 Gerber Fmt 4.6, Leading zero omitted, Abs format (unit mm)*
G04 Created by KiCad (PCBNEW 10.0.6) date 2026-10-03 13:16:30*
%MOMM*%
%LPD*%
G01*
G04 APERTURE LIST*
%ADD10C,0.135000*%
%ADD11C,0.150000*%
%ADD12C,0.120000*%
G04 APERTURE END LIST*
D10*
X102978572Y-140009337D02*
X102978572Y-139109337D01*
X102978572Y-139109337D02*
X103278572Y-139752194D01*
X103278572Y-139752194D02*
X103578572Y-139109337D01*
X103578572Y-139109337D02*
X103578572Y-140009337D01*
X104007143Y-140009337D02*
X104007143Y-139109337D01*
X104950000Y-139923622D02*
X104907143Y-139966480D01*
X104907143Y-139966480D02*
X104778571Y-140009337D01*
X104778571Y-140009337D02*
X104692857Y-140009337D01*
X104692857Y-140009337D02*
X104564286Y-139966480D01*
X104564286Y-139966480D02*
X104478571Y-139880765D01*
X104478571Y-139880765D02*
X104435714Y-139795051D01*
X104435714Y-139795051D02*
X104392857Y-139623622D01*
X104392857Y-139623622D02*
X104392857Y-139495051D01*
X104392857Y-139495051D02*
X104435714Y-139323622D01*
X104435714Y-139323622D02*
X104478571Y-139237908D01*
X104478571Y-139237908D02*
X104564286Y-139152194D01*
X104564286Y-139152194D02*
X104692857Y-139109337D01*
X104692857Y-139109337D02*
X104778571Y-139109337D01*
X104778571Y-139109337D02*
X104907143Y-139152194D01*
X104907143Y-139152194D02*
X104950000Y-139195051D01*
X107178571Y-139152194D02*
X107092857Y-139109337D01*
X107092857Y-139109337D02*
X106964285Y-139109337D01*
X106964285Y-139109337D02*
X106835714Y-139152194D01*
X106835714Y-139152194D02*
X106749999Y-139237908D01*
X106749999Y-139237908D02*
X106707142Y-139323622D01*
X106707142Y-139323622D02*
X106664285Y-139495051D01*
X106664285Y-139495051D02*
X106664285Y-139623622D01*
X106664285Y-139623622D02*
X106707142Y-139795051D01*
X106707142Y-139795051D02*
X106749999Y-139880765D01*
X106749999Y-139880765D02*
X106835714Y-139966480D01*
X106835714Y-139966480D02*
X106964285Y-140009337D01*
X106964285Y-140009337D02*
X107049999Y-140009337D01*
X107049999Y-140009337D02*
X107178571Y-139966480D01*
X107178571Y-139966480D02*
X107221428Y-139923622D01*
X107221428Y-139923622D02*
X107221428Y-139623622D01*
X107221428Y-139623622D02*
X107049999Y-139623622D01*
X107607142Y-140009337D02*
X107607142Y-139109337D01*
X107607142Y-139109337D02*
X108121428Y-140009337D01*
X108121428Y-140009337D02*
X108121428Y-139109337D01*
X108549999Y-140009337D02*
X108549999Y-139109337D01*
X108549999Y-139109337D02*
X108764285Y-139109337D01*
X108764285Y-139109337D02*
X108892856Y-139152194D01*
X108892856Y-139152194D02*
X108978571Y-139237908D01*
X108978571Y-139237908D02*
X109021428Y-139323622D01*
X109021428Y-139323622D02*
X109064285Y-139495051D01*
X109064285Y-139495051D02*
X109064285Y-139623622D01*
X109064285Y-139623622D02*
X109021428Y-139795051D01*
X109021428Y-139795051D02*
X108978571Y-139880765D01*
X108978571Y-139880765D02*
X108892856Y-139966480D01*
X108892856Y-139966480D02*
X108764285Y-140009337D01*
X108764285Y-140009337D02*
X108549999Y-140009337D01*
X173554041Y-103509337D02*
X174111184Y-103509337D01*
X174111184Y-103509337D02*
X173811184Y-103852194D01*
X173811184Y-103852194D02*
X173939755Y-103852194D01*
X173939755Y-103852194D02*
X174025470Y-103895051D01*
X174025470Y-103895051D02*
X174068327Y-103937908D01*
X174068327Y-103937908D02*
X174111184Y-104023622D01*
X174111184Y-104023622D02*
X174111184Y-104237908D01*
X174111184Y-104237908D02*
X174068327Y-104323622D01*
X174068327Y-104323622D02*
X174025470Y-104366480D01*
X174025470Y-104366480D02*
X173939755Y-104409337D01*
X173939755Y-104409337D02*
X173682612Y-104409337D01*
X173682612Y-104409337D02*
X173596898Y-104366480D01*
X173596898Y-104366480D02*
X173554041Y-104323622D01*
X174368327Y-103509337D02*
X174668327Y-104409337D01*
X174668327Y-104409337D02*
X174968327Y-103509337D01*
X175182613Y-103509337D02*
X175739756Y-103509337D01*
X175739756Y-103509337D02*
X175439756Y-103852194D01*
X175439756Y-103852194D02*
X175568327Y-103852194D01*
X175568327Y-103852194D02*
X175654042Y-103895051D01*
X175654042Y-103895051D02*
X175696899Y-103937908D01*
X175696899Y-103937908D02*
X175739756Y-104023622D01*
X175739756Y-104023622D02*
X175739756Y-104237908D01*
X175739756Y-104237908D02*
X175696899Y-104323622D01*
X175696899Y-104323622D02*
X175654042Y-104366480D01*
X175654042Y-104366480D02*
X175568327Y-104409337D01*
X175568327Y-104409337D02*
X175311184Y-104409337D01*
X175311184Y-104409337D02*
X175225470Y-104366480D01*
X175225470Y-104366480D02*
X175182613Y-104323622D01*
X174925470Y-106049337D02*
X174496898Y-106049337D01*
X174496898Y-106049337D02*
X174454041Y-106477908D01*
X174454041Y-106477908D02*
X174496898Y-106435051D01*
X174496898Y-106435051D02*
X174582613Y-106392194D01*
X174582613Y-106392194D02*
X174796898Y-106392194D01*
X174796898Y-106392194D02*
X174882613Y-106435051D01*
X174882613Y-106435051D02*
X174925470Y-106477908D01*
X174925470Y-106477908D02*
X174968327Y-106563622D01*
X174968327Y-106563622D02*
X174968327Y-106777908D01*
X174968327Y-106777908D02*
X174925470Y-106863622D01*
X174925470Y-106863622D02*
X174882613Y-106906480D01*
X174882613Y-106906480D02*
X174796898Y-106949337D01*
X174796898Y-106949337D02*
X174582613Y-106949337D01*
X174582613Y-106949337D02*
X174496898Y-106906480D01*
X174496898Y-106906480D02*
X174454041Y-106863622D01*
X175225470Y-106049337D02*
X175525470Y-106949337D01*
X175525470Y-106949337D02*
X175825470Y-106049337D01*
X174454041Y-109232194D02*
X174882613Y-109232194D01*
X174368327Y-109489337D02*
X174668327Y-108589337D01*
X174668327Y-108589337D02*
X174968327Y-109489337D01*
X175439756Y-108589337D02*
X175525470Y-108589337D01*
X175525470Y-108589337D02*
X175611184Y-108632194D01*
X175611184Y-108632194D02*
X175654042Y-108675051D01*
X175654042Y-108675051D02*
X175696899Y-108760765D01*
X175696899Y-108760765D02*
X175739756Y-108932194D01*
X175739756Y-108932194D02*
X175739756Y-109146480D01*
X175739756Y-109146480D02*
X175696899Y-109317908D01*
X175696899Y-109317908D02*
X175654042Y-109403622D01*
X175654042Y-109403622D02*
X175611184Y-109446480D01*
X175611184Y-109446480D02*
X175525470Y-109489337D01*
X175525470Y-109489337D02*
X175439756Y-109489337D01*
X175439756Y-109489337D02*
X175354042Y-109446480D01*
X175354042Y-109446480D02*
X175311184Y-109403622D01*
X175311184Y-109403622D02*
X175268327Y-109317908D01*
X175268327Y-109317908D02*
X175225470Y-109146480D01*
X175225470Y-109146480D02*
X175225470Y-108932194D01*
X175225470Y-108932194D02*
X175268327Y-108760765D01*
X175268327Y-108760765D02*
X175311184Y-108675051D01*
X175311184Y-108675051D02*
X175354042Y-108632194D01*
X175354042Y-108632194D02*
X175439756Y-108589337D01*
X173854042Y-111172194D02*
X173768328Y-111129337D01*
X173768328Y-111129337D02*
X173639756Y-111129337D01*
X173639756Y-111129337D02*
X173511185Y-111172194D01*
X173511185Y-111172194D02*
X173425470Y-111257908D01*
X173425470Y-111257908D02*
X173382613Y-111343622D01*
X173382613Y-111343622D02*
X173339756Y-111515051D01*
X173339756Y-111515051D02*
X173339756Y-111643622D01*
X173339756Y-111643622D02*
X173382613Y-111815051D01*
X173382613Y-111815051D02*
X173425470Y-111900765D01*
X173425470Y-111900765D02*
X173511185Y-111986480D01*
X173511185Y-111986480D02*
X173639756Y-112029337D01*
X173639756Y-112029337D02*
X173725470Y-112029337D01*
X173725470Y-112029337D02*
X173854042Y-111986480D01*
X173854042Y-111986480D02*
X173896899Y-111943622D01*
X173896899Y-111943622D02*
X173896899Y-111643622D01*
X173896899Y-111643622D02*
X173725470Y-111643622D01*
X174282613Y-112029337D02*
X174282613Y-111129337D01*
X174282613Y-111129337D02*
X174796899Y-112029337D01*
X174796899Y-112029337D02*
X174796899Y-111129337D01*
X175225470Y-112029337D02*
X175225470Y-111129337D01*
X175225470Y-111129337D02*
X175439756Y-111129337D01*
X175439756Y-111129337D02*
X175568327Y-111172194D01*
X175568327Y-111172194D02*
X175654042Y-111257908D01*
X175654042Y-111257908D02*
X175696899Y-111343622D01*
X175696899Y-111343622D02*
X175739756Y-111515051D01*
X175739756Y-111515051D02*
X175739756Y-111643622D01*
X175739756Y-111643622D02*
X175696899Y-111815051D01*
X175696899Y-111815051D02*
X175654042Y-111900765D01*
X175654042Y-111900765D02*
X175568327Y-111986480D01*
X175568327Y-111986480D02*
X175439756Y-112029337D01*
X175439756Y-112029337D02*
X175225470Y-112029337D01*
D11*
X113571427Y-142254819D02*
X113238094Y-141778628D01*
X112999999Y-142254819D02*
X112999999Y-141254819D01*
X112999999Y-141254819D02*
X113380951Y-141254819D01*
X113380951Y-141254819D02*
X113476189Y-141302438D01*
X113476189Y-141302438D02*
X113523808Y-141350057D01*
X113523808Y-141350057D02*
X113571427Y-141445295D01*
X113571427Y-141445295D02*
X113571427Y-141588152D01*
X113571427Y-141588152D02*
X113523808Y-141683390D01*
X113523808Y-141683390D02*
X113476189Y-141731009D01*
X113476189Y-141731009D02*
X113380951Y-141778628D01*
X113380951Y-141778628D02*
X112999999Y-141778628D01*
X114190475Y-141254819D02*
X114380951Y-141254819D01*
X114380951Y-141254819D02*
X114476189Y-141302438D01*
X114476189Y-141302438D02*
X114571427Y-141397676D01*
X114571427Y-141397676D02*
X114619046Y-141588152D01*
X114619046Y-141588152D02*
X114619046Y-141921485D01*
X114619046Y-141921485D02*
X114571427Y-142111961D01*
X114571427Y-142111961D02*
X114476189Y-142207200D01*
X114476189Y-142207200D02*
X114380951Y-142254819D01*
X114380951Y-142254819D02*
X114190475Y-142254819D01*
X114190475Y-142254819D02*
X114095237Y-142207200D01*
X114095237Y-142207200D02*
X113999999Y-142111961D01*
X113999999Y-142111961D02*
X113952380Y-141921485D01*
X113952380Y-141921485D02*
X113952380Y-141588152D01*
X113952380Y-141588152D02*
X113999999Y-141397676D01*
X113999999Y-141397676D02*
X114095237Y-141302438D01*
X114095237Y-141302438D02*
X114190475Y-141254819D01*
X115047618Y-142254819D02*
X115047618Y-141254819D01*
X115047618Y-141254819D02*
X115285713Y-141254819D01*
X115285713Y-141254819D02*
X115428570Y-141302438D01*
X115428570Y-141302438D02*
X115523808Y-141397676D01*
X115523808Y-141397676D02*
X115571427Y-141492914D01*
X115571427Y-141492914D02*
X115619046Y-141683390D01*
X115619046Y-141683390D02*
X115619046Y-141826247D01*
X115619046Y-141826247D02*
X115571427Y-142016723D01*
X115571427Y-142016723D02*
X115523808Y-142111961D01*
X115523808Y-142111961D02*
X115428570Y-142207200D01*
X115428570Y-142207200D02*
X115285713Y-142254819D01*
X115285713Y-142254819D02*
X115047618Y-142254819D01*
X116047618Y-141731009D02*
X116380951Y-141731009D01*
X116523808Y-142254819D02*
X116047618Y-142254819D01*
X116047618Y-142254819D02*
X116047618Y-141254819D01*
X116047618Y-141254819D02*
X116523808Y-141254819D01*
X117571428Y-141254819D02*
X117904761Y-142254819D01*
X117904761Y-142254819D02*
X118238094Y-141254819D01*
X118571428Y-142254819D02*
X118571428Y-141588152D01*
X118571428Y-141254819D02*
X118523809Y-141302438D01*
X118523809Y-141302438D02*
X118571428Y-141350057D01*
X118571428Y-141350057D02*
X118619047Y-141302438D01*
X118619047Y-141302438D02*
X118571428Y-141254819D01*
X118571428Y-141254819D02*
X118571428Y-141350057D01*
X119476189Y-142254819D02*
X119476189Y-141254819D01*
X119476189Y-142207200D02*
X119380951Y-142254819D01*
X119380951Y-142254819D02*
X119190475Y-142254819D01*
X119190475Y-142254819D02*
X119095237Y-142207200D01*
X119095237Y-142207200D02*
X119047618Y-142159580D01*
X119047618Y-142159580D02*
X118999999Y-142064342D01*
X118999999Y-142064342D02*
X118999999Y-141778628D01*
X118999999Y-141778628D02*
X119047618Y-141683390D01*
X119047618Y-141683390D02*
X119095237Y-141635771D01*
X119095237Y-141635771D02*
X119190475Y-141588152D01*
X119190475Y-141588152D02*
X119380951Y-141588152D01*
X119380951Y-141588152D02*
X119476189Y-141635771D01*
X120333332Y-142207200D02*
X120238094Y-142254819D01*
X120238094Y-142254819D02*
X120047618Y-142254819D01*
X120047618Y-142254819D02*
X119952380Y-142207200D01*
X119952380Y-142207200D02*
X119904761Y-142111961D01*
X119904761Y-142111961D02*
X119904761Y-141731009D01*
X119904761Y-141731009D02*
X119952380Y-141635771D01*
X119952380Y-141635771D02*
X120047618Y-141588152D01*
X120047618Y-141588152D02*
X120238094Y-141588152D01*
X120238094Y-141588152D02*
X120333332Y-141635771D01*
X120333332Y-141635771D02*
X120380951Y-141731009D01*
X120380951Y-141731009D02*
X120380951Y-141826247D01*
X120380951Y-141826247D02*
X119904761Y-141921485D01*
X120952380Y-142254819D02*
X120857142Y-142207200D01*
X120857142Y-142207200D02*
X120809523Y-142159580D01*
X120809523Y-142159580D02*
X120761904Y-142064342D01*
X120761904Y-142064342D02*
X120761904Y-141778628D01*
X120761904Y-141778628D02*
X120809523Y-141683390D01*
X120809523Y-141683390D02*
X120857142Y-141635771D01*
X120857142Y-141635771D02*
X120952380Y-141588152D01*
X120952380Y-141588152D02*
X121095237Y-141588152D01*
X121095237Y-141588152D02*
X121190475Y-141635771D01*
X121190475Y-141635771D02*
X121238094Y-141683390D01*
X121238094Y-141683390D02*
X121285713Y-141778628D01*
X121285713Y-141778628D02*
X121285713Y-142064342D01*
X121285713Y-142064342D02*
X121238094Y-142159580D01*
X121238094Y-142159580D02*
X121190475Y-142207200D01*
X121190475Y-142207200D02*
X121095237Y-142254819D01*
X121095237Y-142254819D02*
X120952380Y-142254819D01*
X121714285Y-142254819D02*
X121714285Y-141254819D01*
X121714285Y-141254819D02*
X122047618Y-141969104D01*
X122047618Y-141969104D02*
X122380951Y-141254819D01*
X122380951Y-141254819D02*
X122380951Y-142254819D01*
X122857142Y-142254819D02*
X122857142Y-141588152D01*
X122857142Y-141254819D02*
X122809523Y-141302438D01*
X122809523Y-141302438D02*
X122857142Y-141350057D01*
X122857142Y-141350057D02*
X122904761Y-141302438D01*
X122904761Y-141302438D02*
X122857142Y-141254819D01*
X122857142Y-141254819D02*
X122857142Y-141350057D01*
X123761903Y-142207200D02*
X123666665Y-142254819D01*
X123666665Y-142254819D02*
X123476189Y-142254819D01*
X123476189Y-142254819D02*
X123380951Y-142207200D01*
X123380951Y-142207200D02*
X123333332Y-142159580D01*
X123333332Y-142159580D02*
X123285713Y-142064342D01*
X123285713Y-142064342D02*
X123285713Y-141778628D01*
X123285713Y-141778628D02*
X123333332Y-141683390D01*
X123333332Y-141683390D02*
X123380951Y-141635771D01*
X123380951Y-141635771D02*
X123476189Y-141588152D01*
X123476189Y-141588152D02*
X123666665Y-141588152D01*
X123666665Y-141588152D02*
X123761903Y-141635771D01*
X125476189Y-141302438D02*
X125380951Y-141254819D01*
X125380951Y-141254819D02*
X125238094Y-141254819D01*
X125238094Y-141254819D02*
X125095237Y-141302438D01*
X125095237Y-141302438D02*
X124999999Y-141397676D01*
X124999999Y-141397676D02*
X124952380Y-141492914D01*
X124952380Y-141492914D02*
X124904761Y-141683390D01*
X124904761Y-141683390D02*
X124904761Y-141826247D01*
X124904761Y-141826247D02*
X124952380Y-142016723D01*
X124952380Y-142016723D02*
X124999999Y-142111961D01*
X124999999Y-142111961D02*
X125095237Y-142207200D01*
X125095237Y-142207200D02*
X125238094Y-142254819D01*
X125238094Y-142254819D02*
X125333332Y-142254819D01*
X125333332Y-142254819D02*
X125476189Y-142207200D01*
X125476189Y-142207200D02*
X125523808Y-142159580D01*
X125523808Y-142159580D02*
X125523808Y-141826247D01*
X125523808Y-141826247D02*
X125333332Y-141826247D01*
X126142856Y-141254819D02*
X126333332Y-141254819D01*
X126333332Y-141254819D02*
X126428570Y-141302438D01*
X126428570Y-141302438D02*
X126523808Y-141397676D01*
X126523808Y-141397676D02*
X126571427Y-141588152D01*
X126571427Y-141588152D02*
X126571427Y-141921485D01*
X126571427Y-141921485D02*
X126523808Y-142111961D01*
X126523808Y-142111961D02*
X126428570Y-142207200D01*
X126428570Y-142207200D02*
X126333332Y-142254819D01*
X126333332Y-142254819D02*
X126142856Y-142254819D01*
X126142856Y-142254819D02*
X126047618Y-142207200D01*
X126047618Y-142207200D02*
X125952380Y-142111961D01*
X125952380Y-142111961D02*
X125904761Y-141921485D01*
X125904761Y-141921485D02*
X125904761Y-141588152D01*
X125904761Y-141588152D02*
X125952380Y-141397676D01*
X125952380Y-141397676D02*
X126047618Y-141302438D01*
X126047618Y-141302438D02*
X126142856Y-141254819D01*
X127761904Y-141588152D02*
X127761904Y-142588152D01*
X127761904Y-141635771D02*
X127857142Y-141588152D01*
X127857142Y-141588152D02*
X128047618Y-141588152D01*
X128047618Y-141588152D02*
X128142856Y-141635771D01*
X128142856Y-141635771D02*
X128190475Y-141683390D01*
X128190475Y-141683390D02*
X128238094Y-141778628D01*
X128238094Y-141778628D02*
X128238094Y-142064342D01*
X128238094Y-142064342D02*
X128190475Y-142159580D01*
X128190475Y-142159580D02*
X128142856Y-142207200D01*
X128142856Y-142207200D02*
X128047618Y-142254819D01*
X128047618Y-142254819D02*
X127857142Y-142254819D01*
X127857142Y-142254819D02*
X127761904Y-142207200D01*
X128666666Y-142254819D02*
X128666666Y-141588152D01*
X128666666Y-141778628D02*
X128714285Y-141683390D01*
X128714285Y-141683390D02*
X128761904Y-141635771D01*
X128761904Y-141635771D02*
X128857142Y-141588152D01*
X128857142Y-141588152D02*
X128952380Y-141588152D01*
X129666666Y-142207200D02*
X129571428Y-142254819D01*
X129571428Y-142254819D02*
X129380952Y-142254819D01*
X129380952Y-142254819D02*
X129285714Y-142207200D01*
X129285714Y-142207200D02*
X129238095Y-142111961D01*
X129238095Y-142111961D02*
X129238095Y-141731009D01*
X129238095Y-141731009D02*
X129285714Y-141635771D01*
X129285714Y-141635771D02*
X129380952Y-141588152D01*
X129380952Y-141588152D02*
X129571428Y-141588152D01*
X129571428Y-141588152D02*
X129666666Y-141635771D01*
X129666666Y-141635771D02*
X129714285Y-141731009D01*
X129714285Y-141731009D02*
X129714285Y-141826247D01*
X129714285Y-141826247D02*
X129238095Y-141921485D01*
X130571428Y-142254819D02*
X130571428Y-141731009D01*
X130571428Y-141731009D02*
X130523809Y-141635771D01*
X130523809Y-141635771D02*
X130428571Y-141588152D01*
X130428571Y-141588152D02*
X130238095Y-141588152D01*
X130238095Y-141588152D02*
X130142857Y-141635771D01*
X130571428Y-142207200D02*
X130476190Y-142254819D01*
X130476190Y-142254819D02*
X130238095Y-142254819D01*
X130238095Y-142254819D02*
X130142857Y-142207200D01*
X130142857Y-142207200D02*
X130095238Y-142111961D01*
X130095238Y-142111961D02*
X130095238Y-142016723D01*
X130095238Y-142016723D02*
X130142857Y-141921485D01*
X130142857Y-141921485D02*
X130238095Y-141873866D01*
X130238095Y-141873866D02*
X130476190Y-141873866D01*
X130476190Y-141873866D02*
X130571428Y-141826247D01*
X131047619Y-142254819D02*
X131047619Y-141588152D01*
X131047619Y-141683390D02*
X131095238Y-141635771D01*
X131095238Y-141635771D02*
X131190476Y-141588152D01*
X131190476Y-141588152D02*
X131333333Y-141588152D01*
X131333333Y-141588152D02*
X131428571Y-141635771D01*
X131428571Y-141635771D02*
X131476190Y-141731009D01*
X131476190Y-141731009D02*
X131476190Y-142254819D01*
X131476190Y-141731009D02*
X131523809Y-141635771D01*
X131523809Y-141635771D02*
X131619047Y-141588152D01*
X131619047Y-141588152D02*
X131761904Y-141588152D01*
X131761904Y-141588152D02*
X131857143Y-141635771D01*
X131857143Y-141635771D02*
X131904762Y-141731009D01*
X131904762Y-141731009D02*
X131904762Y-142254819D01*
X132380952Y-141588152D02*
X132380952Y-142588152D01*
X132380952Y-141635771D02*
X132476190Y-141588152D01*
X132476190Y-141588152D02*
X132666666Y-141588152D01*
X132666666Y-141588152D02*
X132761904Y-141635771D01*
X132761904Y-141635771D02*
X132809523Y-141683390D01*
X132809523Y-141683390D02*
X132857142Y-141778628D01*
X132857142Y-141778628D02*
X132857142Y-142064342D01*
X132857142Y-142064342D02*
X132809523Y-142159580D01*
X132809523Y-142159580D02*
X132761904Y-142207200D01*
X132761904Y-142207200D02*
X132666666Y-142254819D01*
X132666666Y-142254819D02*
X132476190Y-142254819D01*
X132476190Y-142254819D02*
X132380952Y-142207200D01*
X135285714Y-142254819D02*
X134809524Y-142254819D01*
X134809524Y-142254819D02*
X134809524Y-141254819D01*
X135619048Y-142254819D02*
X135619048Y-141254819D01*
X135619048Y-141254819D02*
X135952381Y-141969104D01*
X135952381Y-141969104D02*
X136285714Y-141254819D01*
X136285714Y-141254819D02*
X136285714Y-142254819D01*
X136666667Y-141254819D02*
X137285714Y-141254819D01*
X137285714Y-141254819D02*
X136952381Y-141635771D01*
X136952381Y-141635771D02*
X137095238Y-141635771D01*
X137095238Y-141635771D02*
X137190476Y-141683390D01*
X137190476Y-141683390D02*
X137238095Y-141731009D01*
X137238095Y-141731009D02*
X137285714Y-141826247D01*
X137285714Y-141826247D02*
X137285714Y-142064342D01*
X137285714Y-142064342D02*
X137238095Y-142159580D01*
X137238095Y-142159580D02*
X137190476Y-142207200D01*
X137190476Y-142207200D02*
X137095238Y-142254819D01*
X137095238Y-142254819D02*
X136809524Y-142254819D01*
X136809524Y-142254819D02*
X136714286Y-142207200D01*
X136714286Y-142207200D02*
X136666667Y-142159580D01*
X138190476Y-141254819D02*
X137714286Y-141254819D01*
X137714286Y-141254819D02*
X137666667Y-141731009D01*
X137666667Y-141731009D02*
X137714286Y-141683390D01*
X137714286Y-141683390D02*
X137809524Y-141635771D01*
X137809524Y-141635771D02*
X138047619Y-141635771D01*
X138047619Y-141635771D02*
X138142857Y-141683390D01*
X138142857Y-141683390D02*
X138190476Y-141731009D01*
X138190476Y-141731009D02*
X138238095Y-141826247D01*
X138238095Y-141826247D02*
X138238095Y-142064342D01*
X138238095Y-142064342D02*
X138190476Y-142159580D01*
X138190476Y-142159580D02*
X138142857Y-142207200D01*
X138142857Y-142207200D02*
X138047619Y-142254819D01*
X138047619Y-142254819D02*
X137809524Y-142254819D01*
X137809524Y-142254819D02*
X137714286Y-142207200D01*
X137714286Y-142207200D02*
X137666667Y-142159580D01*
X138809524Y-141683390D02*
X138714286Y-141635771D01*
X138714286Y-141635771D02*
X138666667Y-141588152D01*
X138666667Y-141588152D02*
X138619048Y-141492914D01*
X138619048Y-141492914D02*
X138619048Y-141445295D01*
X138619048Y-141445295D02*
X138666667Y-141350057D01*
X138666667Y-141350057D02*
X138714286Y-141302438D01*
X138714286Y-141302438D02*
X138809524Y-141254819D01*
X138809524Y-141254819D02*
X139000000Y-141254819D01*
X139000000Y-141254819D02*
X139095238Y-141302438D01*
X139095238Y-141302438D02*
X139142857Y-141350057D01*
X139142857Y-141350057D02*
X139190476Y-141445295D01*
X139190476Y-141445295D02*
X139190476Y-141492914D01*
X139190476Y-141492914D02*
X139142857Y-141588152D01*
X139142857Y-141588152D02*
X139095238Y-141635771D01*
X139095238Y-141635771D02*
X139000000Y-141683390D01*
X139000000Y-141683390D02*
X138809524Y-141683390D01*
X138809524Y-141683390D02*
X138714286Y-141731009D01*
X138714286Y-141731009D02*
X138666667Y-141778628D01*
X138666667Y-141778628D02*
X138619048Y-141873866D01*
X138619048Y-141873866D02*
X138619048Y-142064342D01*
X138619048Y-142064342D02*
X138666667Y-142159580D01*
X138666667Y-142159580D02*
X138714286Y-142207200D01*
X138714286Y-142207200D02*
X138809524Y-142254819D01*
X138809524Y-142254819D02*
X139000000Y-142254819D01*
X139000000Y-142254819D02*
X139095238Y-142207200D01*
X139095238Y-142207200D02*
X139142857Y-142159580D01*
X139142857Y-142159580D02*
X139190476Y-142064342D01*
X139190476Y-142064342D02*
X139190476Y-141873866D01*
X139190476Y-141873866D02*
X139142857Y-141778628D01*
X139142857Y-141778628D02*
X139095238Y-141731009D01*
X139095238Y-141731009D02*
X139000000Y-141683390D01*
X140285715Y-142254819D02*
X140809524Y-141588152D01*
X140285715Y-141588152D02*
X140809524Y-142254819D01*
X141666667Y-141254819D02*
X141190477Y-141254819D01*
X141190477Y-141254819D02*
X141142858Y-141731009D01*
X141142858Y-141731009D02*
X141190477Y-141683390D01*
X141190477Y-141683390D02*
X141285715Y-141635771D01*
X141285715Y-141635771D02*
X141523810Y-141635771D01*
X141523810Y-141635771D02*
X141619048Y-141683390D01*
X141619048Y-141683390D02*
X141666667Y-141731009D01*
X141666667Y-141731009D02*
X141714286Y-141826247D01*
X141714286Y-141826247D02*
X141714286Y-142064342D01*
X141714286Y-142064342D02*
X141666667Y-142159580D01*
X141666667Y-142159580D02*
X141619048Y-142207200D01*
X141619048Y-142207200D02*
X141523810Y-142254819D01*
X141523810Y-142254819D02*
X141285715Y-142254819D01*
X141285715Y-142254819D02*
X141190477Y-142207200D01*
X141190477Y-142207200D02*
X141142858Y-142159580D01*
X142571429Y-141254819D02*
X142380953Y-141254819D01*
X142380953Y-141254819D02*
X142285715Y-141302438D01*
X142285715Y-141302438D02*
X142238096Y-141350057D01*
X142238096Y-141350057D02*
X142142858Y-141492914D01*
X142142858Y-141492914D02*
X142095239Y-141683390D01*
X142095239Y-141683390D02*
X142095239Y-142064342D01*
X142095239Y-142064342D02*
X142142858Y-142159580D01*
X142142858Y-142159580D02*
X142190477Y-142207200D01*
X142190477Y-142207200D02*
X142285715Y-142254819D01*
X142285715Y-142254819D02*
X142476191Y-142254819D01*
X142476191Y-142254819D02*
X142571429Y-142207200D01*
X142571429Y-142207200D02*
X142619048Y-142159580D01*
X142619048Y-142159580D02*
X142666667Y-142064342D01*
X142666667Y-142064342D02*
X142666667Y-141826247D01*
X142666667Y-141826247D02*
X142619048Y-141731009D01*
X142619048Y-141731009D02*
X142571429Y-141683390D01*
X142571429Y-141683390D02*
X142476191Y-141635771D01*
X142476191Y-141635771D02*
X142285715Y-141635771D01*
X142285715Y-141635771D02*
X142190477Y-141683390D01*
X142190477Y-141683390D02*
X142142858Y-141731009D01*
X142142858Y-141731009D02*
X142095239Y-141826247D01*
X143523810Y-141588152D02*
X143523810Y-142254819D01*
X143285715Y-141207200D02*
X143047620Y-141921485D01*
X143047620Y-141921485D02*
X143666667Y-141921485D01*
X144809525Y-141873866D02*
X145571430Y-141873866D01*
X146047620Y-141588152D02*
X146809525Y-141873866D01*
X146809525Y-141873866D02*
X146047620Y-142159580D01*
X148047620Y-141254819D02*
X148047620Y-142064342D01*
X148047620Y-142064342D02*
X148095239Y-142159580D01*
X148095239Y-142159580D02*
X148142858Y-142207200D01*
X148142858Y-142207200D02*
X148238096Y-142254819D01*
X148238096Y-142254819D02*
X148428572Y-142254819D01*
X148428572Y-142254819D02*
X148523810Y-142207200D01*
X148523810Y-142207200D02*
X148571429Y-142159580D01*
X148571429Y-142159580D02*
X148619048Y-142064342D01*
X148619048Y-142064342D02*
X148619048Y-141254819D01*
X149095239Y-141588152D02*
X149095239Y-142254819D01*
X149095239Y-141683390D02*
X149142858Y-141635771D01*
X149142858Y-141635771D02*
X149238096Y-141588152D01*
X149238096Y-141588152D02*
X149380953Y-141588152D01*
X149380953Y-141588152D02*
X149476191Y-141635771D01*
X149476191Y-141635771D02*
X149523810Y-141731009D01*
X149523810Y-141731009D02*
X149523810Y-142254819D01*
X150142858Y-142254819D02*
X150047620Y-142207200D01*
X150047620Y-142207200D02*
X150000001Y-142159580D01*
X150000001Y-142159580D02*
X149952382Y-142064342D01*
X149952382Y-142064342D02*
X149952382Y-141778628D01*
X149952382Y-141778628D02*
X150000001Y-141683390D01*
X150000001Y-141683390D02*
X150047620Y-141635771D01*
X150047620Y-141635771D02*
X150142858Y-141588152D01*
X150142858Y-141588152D02*
X150285715Y-141588152D01*
X150285715Y-141588152D02*
X150380953Y-141635771D01*
X150380953Y-141635771D02*
X150428572Y-141683390D01*
X150428572Y-141683390D02*
X150476191Y-141778628D01*
X150476191Y-141778628D02*
X150476191Y-142064342D01*
X150476191Y-142064342D02*
X150428572Y-142159580D01*
X150428572Y-142159580D02*
X150380953Y-142207200D01*
X150380953Y-142207200D02*
X150285715Y-142254819D01*
X150285715Y-142254819D02*
X150142858Y-142254819D01*
X151619049Y-141969104D02*
X152095239Y-141969104D01*
X151523811Y-142254819D02*
X151857144Y-141254819D01*
X151857144Y-141254819D02*
X152190477Y-142254819D01*
X152714287Y-141254819D02*
X152809525Y-141254819D01*
X152809525Y-141254819D02*
X152904763Y-141302438D01*
X152904763Y-141302438D02*
X152952382Y-141350057D01*
X152952382Y-141350057D02*
X153000001Y-141445295D01*
X153000001Y-141445295D02*
X153047620Y-141635771D01*
X153047620Y-141635771D02*
X153047620Y-141873866D01*
X153047620Y-141873866D02*
X153000001Y-142064342D01*
X153000001Y-142064342D02*
X152952382Y-142159580D01*
X152952382Y-142159580D02*
X152904763Y-142207200D01*
X152904763Y-142207200D02*
X152809525Y-142254819D01*
X152809525Y-142254819D02*
X152714287Y-142254819D01*
X152714287Y-142254819D02*
X152619049Y-142207200D01*
X152619049Y-142207200D02*
X152571430Y-142159580D01*
X152571430Y-142159580D02*
X152523811Y-142064342D01*
X152523811Y-142064342D02*
X152476192Y-141873866D01*
X152476192Y-141873866D02*
X152476192Y-141635771D01*
X152476192Y-141635771D02*
X152523811Y-141445295D01*
X152523811Y-141445295D02*
X152571430Y-141350057D01*
X152571430Y-141350057D02*
X152619049Y-141302438D01*
X152619049Y-141302438D02*
X152714287Y-141254819D01*
X138643333Y-117099819D02*
X138310000Y-116623628D01*
X138071905Y-117099819D02*
X138071905Y-116099819D01*
X138071905Y-116099819D02*
X138452857Y-116099819D01*
X138452857Y-116099819D02*
X138548095Y-116147438D01*
X138548095Y-116147438D02*
X138595714Y-116195057D01*
X138595714Y-116195057D02*
X138643333Y-116290295D01*
X138643333Y-116290295D02*
X138643333Y-116433152D01*
X138643333Y-116433152D02*
X138595714Y-116528390D01*
X138595714Y-116528390D02*
X138548095Y-116576009D01*
X138548095Y-116576009D02*
X138452857Y-116623628D01*
X138452857Y-116623628D02*
X138071905Y-116623628D01*
X139500476Y-116099819D02*
X139310000Y-116099819D01*
X139310000Y-116099819D02*
X139214762Y-116147438D01*
X139214762Y-116147438D02*
X139167143Y-116195057D01*
X139167143Y-116195057D02*
X139071905Y-116337914D01*
X139071905Y-116337914D02*
X139024286Y-116528390D01*
X139024286Y-116528390D02*
X139024286Y-116909342D01*
X139024286Y-116909342D02*
X139071905Y-117004580D01*
X139071905Y-117004580D02*
X139119524Y-117052200D01*
X139119524Y-117052200D02*
X139214762Y-117099819D01*
X139214762Y-117099819D02*
X139405238Y-117099819D01*
X139405238Y-117099819D02*
X139500476Y-117052200D01*
X139500476Y-117052200D02*
X139548095Y-117004580D01*
X139548095Y-117004580D02*
X139595714Y-116909342D01*
X139595714Y-116909342D02*
X139595714Y-116671247D01*
X139595714Y-116671247D02*
X139548095Y-116576009D01*
X139548095Y-116576009D02*
X139500476Y-116528390D01*
X139500476Y-116528390D02*
X139405238Y-116480771D01*
X139405238Y-116480771D02*
X139214762Y-116480771D01*
X139214762Y-116480771D02*
X139119524Y-116528390D01*
X139119524Y-116528390D02*
X139071905Y-116576009D01*
X139071905Y-116576009D02*
X139024286Y-116671247D01*
X110217089Y-122666666D02*
X110264709Y-122714285D01*
X110264709Y-122714285D02*
X110312328Y-122857142D01*
X110312328Y-122857142D02*
X110312328Y-122952380D01*
X110312328Y-122952380D02*
X110264709Y-123095237D01*
X110264709Y-123095237D02*
X110169470Y-123190475D01*
X110169470Y-123190475D02*
X110074232Y-123238094D01*
X110074232Y-123238094D02*
X109883756Y-123285713D01*
X109883756Y-123285713D02*
X109740899Y-123285713D01*
X109740899Y-123285713D02*
X109550423Y-123238094D01*
X109550423Y-123238094D02*
X109455185Y-123190475D01*
X109455185Y-123190475D02*
X109359947Y-123095237D01*
X109359947Y-123095237D02*
X109312328Y-122952380D01*
X109312328Y-122952380D02*
X109312328Y-122857142D01*
X109312328Y-122857142D02*
X109359947Y-122714285D01*
X109359947Y-122714285D02*
X109407566Y-122666666D01*
X109407566Y-122285713D02*
X109359947Y-122238094D01*
X109359947Y-122238094D02*
X109312328Y-122142856D01*
X109312328Y-122142856D02*
X109312328Y-121904761D01*
X109312328Y-121904761D02*
X109359947Y-121809523D01*
X109359947Y-121809523D02*
X109407566Y-121761904D01*
X109407566Y-121761904D02*
X109502804Y-121714285D01*
X109502804Y-121714285D02*
X109598042Y-121714285D01*
X109598042Y-121714285D02*
X109740899Y-121761904D01*
X109740899Y-121761904D02*
X110312328Y-122333332D01*
X110312328Y-122333332D02*
X110312328Y-121714285D01*
X177666666Y-101074819D02*
X177666666Y-101789104D01*
X177666666Y-101789104D02*
X177619047Y-101931961D01*
X177619047Y-101931961D02*
X177523809Y-102027200D01*
X177523809Y-102027200D02*
X177380952Y-102074819D01*
X177380952Y-102074819D02*
X177285714Y-102074819D01*
X178095238Y-101170057D02*
X178142857Y-101122438D01*
X178142857Y-101122438D02*
X178238095Y-101074819D01*
X178238095Y-101074819D02*
X178476190Y-101074819D01*
X178476190Y-101074819D02*
X178571428Y-101122438D01*
X178571428Y-101122438D02*
X178619047Y-101170057D01*
X178619047Y-101170057D02*
X178666666Y-101265295D01*
X178666666Y-101265295D02*
X178666666Y-101360533D01*
X178666666Y-101360533D02*
X178619047Y-101503390D01*
X178619047Y-101503390D02*
X178047619Y-102074819D01*
X178047619Y-102074819D02*
X178666666Y-102074819D01*
X154953333Y-110859580D02*
X154905714Y-110907200D01*
X154905714Y-110907200D02*
X154762857Y-110954819D01*
X154762857Y-110954819D02*
X154667619Y-110954819D01*
X154667619Y-110954819D02*
X154524762Y-110907200D01*
X154524762Y-110907200D02*
X154429524Y-110811961D01*
X154429524Y-110811961D02*
X154381905Y-110716723D01*
X154381905Y-110716723D02*
X154334286Y-110526247D01*
X154334286Y-110526247D02*
X154334286Y-110383390D01*
X154334286Y-110383390D02*
X154381905Y-110192914D01*
X154381905Y-110192914D02*
X154429524Y-110097676D01*
X154429524Y-110097676D02*
X154524762Y-110002438D01*
X154524762Y-110002438D02*
X154667619Y-109954819D01*
X154667619Y-109954819D02*
X154762857Y-109954819D01*
X154762857Y-109954819D02*
X154905714Y-110002438D01*
X154905714Y-110002438D02*
X154953333Y-110050057D01*
X155524762Y-110383390D02*
X155429524Y-110335771D01*
X155429524Y-110335771D02*
X155381905Y-110288152D01*
X155381905Y-110288152D02*
X155334286Y-110192914D01*
X155334286Y-110192914D02*
X155334286Y-110145295D01*
X155334286Y-110145295D02*
X155381905Y-110050057D01*
X155381905Y-110050057D02*
X155429524Y-110002438D01*
X155429524Y-110002438D02*
X155524762Y-109954819D01*
X155524762Y-109954819D02*
X155715238Y-109954819D01*
X155715238Y-109954819D02*
X155810476Y-110002438D01*
X155810476Y-110002438D02*
X155858095Y-110050057D01*
X155858095Y-110050057D02*
X155905714Y-110145295D01*
X155905714Y-110145295D02*
X155905714Y-110192914D01*
X155905714Y-110192914D02*
X155858095Y-110288152D01*
X155858095Y-110288152D02*
X155810476Y-110335771D01*
X155810476Y-110335771D02*
X155715238Y-110383390D01*
X155715238Y-110383390D02*
X155524762Y-110383390D01*
X155524762Y-110383390D02*
X155429524Y-110431009D01*
X155429524Y-110431009D02*
X155381905Y-110478628D01*
X155381905Y-110478628D02*
X155334286Y-110573866D01*
X155334286Y-110573866D02*
X155334286Y-110764342D01*
X155334286Y-110764342D02*
X155381905Y-110859580D01*
X155381905Y-110859580D02*
X155429524Y-110907200D01*
X155429524Y-110907200D02*
X155524762Y-110954819D01*
X155524762Y-110954819D02*
X155715238Y-110954819D01*
X155715238Y-110954819D02*
X155810476Y-110907200D01*
X155810476Y-110907200D02*
X155858095Y-110859580D01*
X155858095Y-110859580D02*
X155905714Y-110764342D01*
X155905714Y-110764342D02*
X155905714Y-110573866D01*
X155905714Y-110573866D02*
X155858095Y-110478628D01*
X155858095Y-110478628D02*
X155810476Y-110431009D01*
X155810476Y-110431009D02*
X155715238Y-110383390D01*
X114833333Y-108259819D02*
X114500000Y-107783628D01*
X114261905Y-108259819D02*
X114261905Y-107259819D01*
X114261905Y-107259819D02*
X114642857Y-107259819D01*
X114642857Y-107259819D02*
X114738095Y-107307438D01*
X114738095Y-107307438D02*
X114785714Y-107355057D01*
X114785714Y-107355057D02*
X114833333Y-107450295D01*
X114833333Y-107450295D02*
X114833333Y-107593152D01*
X114833333Y-107593152D02*
X114785714Y-107688390D01*
X114785714Y-107688390D02*
X114738095Y-107736009D01*
X114738095Y-107736009D02*
X114642857Y-107783628D01*
X114642857Y-107783628D02*
X114261905Y-107783628D01*
X115166667Y-107259819D02*
X115785714Y-107259819D01*
X115785714Y-107259819D02*
X115452381Y-107640771D01*
X115452381Y-107640771D02*
X115595238Y-107640771D01*
X115595238Y-107640771D02*
X115690476Y-107688390D01*
X115690476Y-107688390D02*
X115738095Y-107736009D01*
X115738095Y-107736009D02*
X115785714Y-107831247D01*
X115785714Y-107831247D02*
X115785714Y-108069342D01*
X115785714Y-108069342D02*
X115738095Y-108164580D01*
X115738095Y-108164580D02*
X115690476Y-108212200D01*
X115690476Y-108212200D02*
X115595238Y-108259819D01*
X115595238Y-108259819D02*
X115309524Y-108259819D01*
X115309524Y-108259819D02*
X115214286Y-108212200D01*
X115214286Y-108212200D02*
X115166667Y-108164580D01*
X124583333Y-124649580D02*
X124535714Y-124697200D01*
X124535714Y-124697200D02*
X124392857Y-124744819D01*
X124392857Y-124744819D02*
X124297619Y-124744819D01*
X124297619Y-124744819D02*
X124154762Y-124697200D01*
X124154762Y-124697200D02*
X124059524Y-124601961D01*
X124059524Y-124601961D02*
X124011905Y-124506723D01*
X124011905Y-124506723D02*
X123964286Y-124316247D01*
X123964286Y-124316247D02*
X123964286Y-124173390D01*
X123964286Y-124173390D02*
X124011905Y-123982914D01*
X124011905Y-123982914D02*
X124059524Y-123887676D01*
X124059524Y-123887676D02*
X124154762Y-123792438D01*
X124154762Y-123792438D02*
X124297619Y-123744819D01*
X124297619Y-123744819D02*
X124392857Y-123744819D01*
X124392857Y-123744819D02*
X124535714Y-123792438D01*
X124535714Y-123792438D02*
X124583333Y-123840057D01*
X124916667Y-123744819D02*
X125535714Y-123744819D01*
X125535714Y-123744819D02*
X125202381Y-124125771D01*
X125202381Y-124125771D02*
X125345238Y-124125771D01*
X125345238Y-124125771D02*
X125440476Y-124173390D01*
X125440476Y-124173390D02*
X125488095Y-124221009D01*
X125488095Y-124221009D02*
X125535714Y-124316247D01*
X125535714Y-124316247D02*
X125535714Y-124554342D01*
X125535714Y-124554342D02*
X125488095Y-124649580D01*
X125488095Y-124649580D02*
X125440476Y-124697200D01*
X125440476Y-124697200D02*
X125345238Y-124744819D01*
X125345238Y-124744819D02*
X125059524Y-124744819D01*
X125059524Y-124744819D02*
X124964286Y-124697200D01*
X124964286Y-124697200D02*
X124916667Y-124649580D01*
X105971666Y-125309819D02*
X105971666Y-126024104D01*
X105971666Y-126024104D02*
X105924047Y-126166961D01*
X105924047Y-126166961D02*
X105828809Y-126262200D01*
X105828809Y-126262200D02*
X105685952Y-126309819D01*
X105685952Y-126309819D02*
X105590714Y-126309819D01*
X106971666Y-126309819D02*
X106400238Y-126309819D01*
X106685952Y-126309819D02*
X106685952Y-125309819D01*
X106685952Y-125309819D02*
X106590714Y-125452676D01*
X106590714Y-125452676D02*
X106495476Y-125547914D01*
X106495476Y-125547914D02*
X106400238Y-125595533D01*
X115583333Y-126609580D02*
X115535714Y-126657200D01*
X115535714Y-126657200D02*
X115392857Y-126704819D01*
X115392857Y-126704819D02*
X115297619Y-126704819D01*
X115297619Y-126704819D02*
X115154762Y-126657200D01*
X115154762Y-126657200D02*
X115059524Y-126561961D01*
X115059524Y-126561961D02*
X115011905Y-126466723D01*
X115011905Y-126466723D02*
X114964286Y-126276247D01*
X114964286Y-126276247D02*
X114964286Y-126133390D01*
X114964286Y-126133390D02*
X115011905Y-125942914D01*
X115011905Y-125942914D02*
X115059524Y-125847676D01*
X115059524Y-125847676D02*
X115154762Y-125752438D01*
X115154762Y-125752438D02*
X115297619Y-125704819D01*
X115297619Y-125704819D02*
X115392857Y-125704819D01*
X115392857Y-125704819D02*
X115535714Y-125752438D01*
X115535714Y-125752438D02*
X115583333Y-125800057D01*
X116535714Y-126704819D02*
X115964286Y-126704819D01*
X116250000Y-126704819D02*
X116250000Y-125704819D01*
X116250000Y-125704819D02*
X116154762Y-125847676D01*
X116154762Y-125847676D02*
X116059524Y-125942914D01*
X116059524Y-125942914D02*
X115964286Y-125990533D01*
X133023333Y-118624819D02*
X132690000Y-118148628D01*
X132451905Y-118624819D02*
X132451905Y-117624819D01*
X132451905Y-117624819D02*
X132832857Y-117624819D01*
X132832857Y-117624819D02*
X132928095Y-117672438D01*
X132928095Y-117672438D02*
X132975714Y-117720057D01*
X132975714Y-117720057D02*
X133023333Y-117815295D01*
X133023333Y-117815295D02*
X133023333Y-117958152D01*
X133023333Y-117958152D02*
X132975714Y-118053390D01*
X132975714Y-118053390D02*
X132928095Y-118101009D01*
X132928095Y-118101009D02*
X132832857Y-118148628D01*
X132832857Y-118148628D02*
X132451905Y-118148628D01*
X133928095Y-117624819D02*
X133451905Y-117624819D01*
X133451905Y-117624819D02*
X133404286Y-118101009D01*
X133404286Y-118101009D02*
X133451905Y-118053390D01*
X133451905Y-118053390D02*
X133547143Y-118005771D01*
X133547143Y-118005771D02*
X133785238Y-118005771D01*
X133785238Y-118005771D02*
X133880476Y-118053390D01*
X133880476Y-118053390D02*
X133928095Y-118101009D01*
X133928095Y-118101009D02*
X133975714Y-118196247D01*
X133975714Y-118196247D02*
X133975714Y-118434342D01*
X133975714Y-118434342D02*
X133928095Y-118529580D01*
X133928095Y-118529580D02*
X133880476Y-118577200D01*
X133880476Y-118577200D02*
X133785238Y-118624819D01*
X133785238Y-118624819D02*
X133547143Y-118624819D01*
X133547143Y-118624819D02*
X133451905Y-118577200D01*
X133451905Y-118577200D02*
X133404286Y-118529580D01*
X163833333Y-123704580D02*
X163785714Y-123752200D01*
X163785714Y-123752200D02*
X163642857Y-123799819D01*
X163642857Y-123799819D02*
X163547619Y-123799819D01*
X163547619Y-123799819D02*
X163404762Y-123752200D01*
X163404762Y-123752200D02*
X163309524Y-123656961D01*
X163309524Y-123656961D02*
X163261905Y-123561723D01*
X163261905Y-123561723D02*
X163214286Y-123371247D01*
X163214286Y-123371247D02*
X163214286Y-123228390D01*
X163214286Y-123228390D02*
X163261905Y-123037914D01*
X163261905Y-123037914D02*
X163309524Y-122942676D01*
X163309524Y-122942676D02*
X163404762Y-122847438D01*
X163404762Y-122847438D02*
X163547619Y-122799819D01*
X163547619Y-122799819D02*
X163642857Y-122799819D01*
X163642857Y-122799819D02*
X163785714Y-122847438D01*
X163785714Y-122847438D02*
X163833333Y-122895057D01*
X164690476Y-122799819D02*
X164500000Y-122799819D01*
X164500000Y-122799819D02*
X164404762Y-122847438D01*
X164404762Y-122847438D02*
X164357143Y-122895057D01*
X164357143Y-122895057D02*
X164261905Y-123037914D01*
X164261905Y-123037914D02*
X164214286Y-123228390D01*
X164214286Y-123228390D02*
X164214286Y-123609342D01*
X164214286Y-123609342D02*
X164261905Y-123704580D01*
X164261905Y-123704580D02*
X164309524Y-123752200D01*
X164309524Y-123752200D02*
X164404762Y-123799819D01*
X164404762Y-123799819D02*
X164595238Y-123799819D01*
X164595238Y-123799819D02*
X164690476Y-123752200D01*
X164690476Y-123752200D02*
X164738095Y-123704580D01*
X164738095Y-123704580D02*
X164785714Y-123609342D01*
X164785714Y-123609342D02*
X164785714Y-123371247D01*
X164785714Y-123371247D02*
X164738095Y-123276009D01*
X164738095Y-123276009D02*
X164690476Y-123228390D01*
X164690476Y-123228390D02*
X164595238Y-123180771D01*
X164595238Y-123180771D02*
X164404762Y-123180771D01*
X164404762Y-123180771D02*
X164309524Y-123228390D01*
X164309524Y-123228390D02*
X164261905Y-123276009D01*
X164261905Y-123276009D02*
X164214286Y-123371247D01*
X118833333Y-108259819D02*
X118500000Y-107783628D01*
X118261905Y-108259819D02*
X118261905Y-107259819D01*
X118261905Y-107259819D02*
X118642857Y-107259819D01*
X118642857Y-107259819D02*
X118738095Y-107307438D01*
X118738095Y-107307438D02*
X118785714Y-107355057D01*
X118785714Y-107355057D02*
X118833333Y-107450295D01*
X118833333Y-107450295D02*
X118833333Y-107593152D01*
X118833333Y-107593152D02*
X118785714Y-107688390D01*
X118785714Y-107688390D02*
X118738095Y-107736009D01*
X118738095Y-107736009D02*
X118642857Y-107783628D01*
X118642857Y-107783628D02*
X118261905Y-107783628D01*
X119690476Y-107593152D02*
X119690476Y-108259819D01*
X119452381Y-107212200D02*
X119214286Y-107926485D01*
X119214286Y-107926485D02*
X119833333Y-107926485D01*
X148048095Y-115124819D02*
X148048095Y-115934342D01*
X148048095Y-115934342D02*
X148095714Y-116029580D01*
X148095714Y-116029580D02*
X148143333Y-116077200D01*
X148143333Y-116077200D02*
X148238571Y-116124819D01*
X148238571Y-116124819D02*
X148429047Y-116124819D01*
X148429047Y-116124819D02*
X148524285Y-116077200D01*
X148524285Y-116077200D02*
X148571904Y-116029580D01*
X148571904Y-116029580D02*
X148619523Y-115934342D01*
X148619523Y-115934342D02*
X148619523Y-115124819D01*
X149619523Y-116124819D02*
X149048095Y-116124819D01*
X149333809Y-116124819D02*
X149333809Y-115124819D01*
X149333809Y-115124819D02*
X149238571Y-115267676D01*
X149238571Y-115267676D02*
X149143333Y-115362914D01*
X149143333Y-115362914D02*
X149048095Y-115410533D01*
X163643333Y-141824819D02*
X163310000Y-141348628D01*
X163071905Y-141824819D02*
X163071905Y-140824819D01*
X163071905Y-140824819D02*
X163452857Y-140824819D01*
X163452857Y-140824819D02*
X163548095Y-140872438D01*
X163548095Y-140872438D02*
X163595714Y-140920057D01*
X163595714Y-140920057D02*
X163643333Y-141015295D01*
X163643333Y-141015295D02*
X163643333Y-141158152D01*
X163643333Y-141158152D02*
X163595714Y-141253390D01*
X163595714Y-141253390D02*
X163548095Y-141301009D01*
X163548095Y-141301009D02*
X163452857Y-141348628D01*
X163452857Y-141348628D02*
X163071905Y-141348628D01*
X163976667Y-140824819D02*
X164643333Y-140824819D01*
X164643333Y-140824819D02*
X164214762Y-141824819D01*
X158084819Y-129516666D02*
X157608628Y-129849999D01*
X158084819Y-130088094D02*
X157084819Y-130088094D01*
X157084819Y-130088094D02*
X157084819Y-129707142D01*
X157084819Y-129707142D02*
X157132438Y-129611904D01*
X157132438Y-129611904D02*
X157180057Y-129564285D01*
X157180057Y-129564285D02*
X157275295Y-129516666D01*
X157275295Y-129516666D02*
X157418152Y-129516666D01*
X157418152Y-129516666D02*
X157513390Y-129564285D01*
X157513390Y-129564285D02*
X157561009Y-129611904D01*
X157561009Y-129611904D02*
X157608628Y-129707142D01*
X157608628Y-129707142D02*
X157608628Y-130088094D01*
X157513390Y-128945237D02*
X157465771Y-129040475D01*
X157465771Y-129040475D02*
X157418152Y-129088094D01*
X157418152Y-129088094D02*
X157322914Y-129135713D01*
X157322914Y-129135713D02*
X157275295Y-129135713D01*
X157275295Y-129135713D02*
X157180057Y-129088094D01*
X157180057Y-129088094D02*
X157132438Y-129040475D01*
X157132438Y-129040475D02*
X157084819Y-128945237D01*
X157084819Y-128945237D02*
X157084819Y-128754761D01*
X157084819Y-128754761D02*
X157132438Y-128659523D01*
X157132438Y-128659523D02*
X157180057Y-128611904D01*
X157180057Y-128611904D02*
X157275295Y-128564285D01*
X157275295Y-128564285D02*
X157322914Y-128564285D01*
X157322914Y-128564285D02*
X157418152Y-128611904D01*
X157418152Y-128611904D02*
X157465771Y-128659523D01*
X157465771Y-128659523D02*
X157513390Y-128754761D01*
X157513390Y-128754761D02*
X157513390Y-128945237D01*
X157513390Y-128945237D02*
X157561009Y-129040475D01*
X157561009Y-129040475D02*
X157608628Y-129088094D01*
X157608628Y-129088094D02*
X157703866Y-129135713D01*
X157703866Y-129135713D02*
X157894342Y-129135713D01*
X157894342Y-129135713D02*
X157989580Y-129088094D01*
X157989580Y-129088094D02*
X158037200Y-129040475D01*
X158037200Y-129040475D02*
X158084819Y-128945237D01*
X158084819Y-128945237D02*
X158084819Y-128754761D01*
X158084819Y-128754761D02*
X158037200Y-128659523D01*
X158037200Y-128659523D02*
X157989580Y-128611904D01*
X157989580Y-128611904D02*
X157894342Y-128564285D01*
X157894342Y-128564285D02*
X157703866Y-128564285D01*
X157703866Y-128564285D02*
X157608628Y-128611904D01*
X157608628Y-128611904D02*
X157561009Y-128659523D01*
X157561009Y-128659523D02*
X157513390Y-128754761D01*
X172084587Y-143252071D02*
X172036968Y-143299691D01*
X172036968Y-143299691D02*
X171894111Y-143347310D01*
X171894111Y-143347310D02*
X171798873Y-143347310D01*
X171798873Y-143347310D02*
X171656016Y-143299691D01*
X171656016Y-143299691D02*
X171560778Y-143204452D01*
X171560778Y-143204452D02*
X171513159Y-143109214D01*
X171513159Y-143109214D02*
X171465540Y-142918738D01*
X171465540Y-142918738D02*
X171465540Y-142775881D01*
X171465540Y-142775881D02*
X171513159Y-142585405D01*
X171513159Y-142585405D02*
X171560778Y-142490167D01*
X171560778Y-142490167D02*
X171656016Y-142394929D01*
X171656016Y-142394929D02*
X171798873Y-142347310D01*
X171798873Y-142347310D02*
X171894111Y-142347310D01*
X171894111Y-142347310D02*
X172036968Y-142394929D01*
X172036968Y-142394929D02*
X172084587Y-142442548D01*
X172989349Y-142347310D02*
X172513159Y-142347310D01*
X172513159Y-142347310D02*
X172465540Y-142823500D01*
X172465540Y-142823500D02*
X172513159Y-142775881D01*
X172513159Y-142775881D02*
X172608397Y-142728262D01*
X172608397Y-142728262D02*
X172846492Y-142728262D01*
X172846492Y-142728262D02*
X172941730Y-142775881D01*
X172941730Y-142775881D02*
X172989349Y-142823500D01*
X172989349Y-142823500D02*
X173036968Y-142918738D01*
X173036968Y-142918738D02*
X173036968Y-143156833D01*
X173036968Y-143156833D02*
X172989349Y-143252071D01*
X172989349Y-143252071D02*
X172941730Y-143299691D01*
X172941730Y-143299691D02*
X172846492Y-143347310D01*
X172846492Y-143347310D02*
X172608397Y-143347310D01*
X172608397Y-143347310D02*
X172513159Y-143299691D01*
X172513159Y-143299691D02*
X172465540Y-143252071D01*
X112324819Y-111976666D02*
X111848628Y-112309999D01*
X112324819Y-112548094D02*
X111324819Y-112548094D01*
X111324819Y-112548094D02*
X111324819Y-112167142D01*
X111324819Y-112167142D02*
X111372438Y-112071904D01*
X111372438Y-112071904D02*
X111420057Y-112024285D01*
X111420057Y-112024285D02*
X111515295Y-111976666D01*
X111515295Y-111976666D02*
X111658152Y-111976666D01*
X111658152Y-111976666D02*
X111753390Y-112024285D01*
X111753390Y-112024285D02*
X111801009Y-112071904D01*
X111801009Y-112071904D02*
X111848628Y-112167142D01*
X111848628Y-112167142D02*
X111848628Y-112548094D01*
X112324819Y-111024285D02*
X112324819Y-111595713D01*
X112324819Y-111309999D02*
X111324819Y-111309999D01*
X111324819Y-111309999D02*
X111467676Y-111405237D01*
X111467676Y-111405237D02*
X111562914Y-111500475D01*
X111562914Y-111500475D02*
X111610533Y-111595713D01*
X172084819Y-131356666D02*
X171608628Y-131689999D01*
X172084819Y-131928094D02*
X171084819Y-131928094D01*
X171084819Y-131928094D02*
X171084819Y-131547142D01*
X171084819Y-131547142D02*
X171132438Y-131451904D01*
X171132438Y-131451904D02*
X171180057Y-131404285D01*
X171180057Y-131404285D02*
X171275295Y-131356666D01*
X171275295Y-131356666D02*
X171418152Y-131356666D01*
X171418152Y-131356666D02*
X171513390Y-131404285D01*
X171513390Y-131404285D02*
X171561009Y-131451904D01*
X171561009Y-131451904D02*
X171608628Y-131547142D01*
X171608628Y-131547142D02*
X171608628Y-131928094D01*
X172084819Y-130880475D02*
X172084819Y-130689999D01*
X172084819Y-130689999D02*
X172037200Y-130594761D01*
X172037200Y-130594761D02*
X171989580Y-130547142D01*
X171989580Y-130547142D02*
X171846723Y-130451904D01*
X171846723Y-130451904D02*
X171656247Y-130404285D01*
X171656247Y-130404285D02*
X171275295Y-130404285D01*
X171275295Y-130404285D02*
X171180057Y-130451904D01*
X171180057Y-130451904D02*
X171132438Y-130499523D01*
X171132438Y-130499523D02*
X171084819Y-130594761D01*
X171084819Y-130594761D02*
X171084819Y-130785237D01*
X171084819Y-130785237D02*
X171132438Y-130880475D01*
X171132438Y-130880475D02*
X171180057Y-130928094D01*
X171180057Y-130928094D02*
X171275295Y-130975713D01*
X171275295Y-130975713D02*
X171513390Y-130975713D01*
X171513390Y-130975713D02*
X171608628Y-130928094D01*
X171608628Y-130928094D02*
X171656247Y-130880475D01*
X171656247Y-130880475D02*
X171703866Y-130785237D01*
X171703866Y-130785237D02*
X171703866Y-130594761D01*
X171703866Y-130594761D02*
X171656247Y-130499523D01*
X171656247Y-130499523D02*
X171608628Y-130451904D01*
X171608628Y-130451904D02*
X171513390Y-130404285D01*
X180859580Y-122666666D02*
X180907200Y-122714285D01*
X180907200Y-122714285D02*
X180954819Y-122857142D01*
X180954819Y-122857142D02*
X180954819Y-122952380D01*
X180954819Y-122952380D02*
X180907200Y-123095237D01*
X180907200Y-123095237D02*
X180811961Y-123190475D01*
X180811961Y-123190475D02*
X180716723Y-123238094D01*
X180716723Y-123238094D02*
X180526247Y-123285713D01*
X180526247Y-123285713D02*
X180383390Y-123285713D01*
X180383390Y-123285713D02*
X180192914Y-123238094D01*
X180192914Y-123238094D02*
X180097676Y-123190475D01*
X180097676Y-123190475D02*
X180002438Y-123095237D01*
X180002438Y-123095237D02*
X179954819Y-122952380D01*
X179954819Y-122952380D02*
X179954819Y-122857142D01*
X179954819Y-122857142D02*
X180002438Y-122714285D01*
X180002438Y-122714285D02*
X180050057Y-122666666D01*
X179954819Y-122333332D02*
X179954819Y-121666666D01*
X179954819Y-121666666D02*
X180954819Y-122095237D01*
X118584819Y-124356666D02*
X118108628Y-124689999D01*
X118584819Y-124928094D02*
X117584819Y-124928094D01*
X117584819Y-124928094D02*
X117584819Y-124547142D01*
X117584819Y-124547142D02*
X117632438Y-124451904D01*
X117632438Y-124451904D02*
X117680057Y-124404285D01*
X117680057Y-124404285D02*
X117775295Y-124356666D01*
X117775295Y-124356666D02*
X117918152Y-124356666D01*
X117918152Y-124356666D02*
X118013390Y-124404285D01*
X118013390Y-124404285D02*
X118061009Y-124451904D01*
X118061009Y-124451904D02*
X118108628Y-124547142D01*
X118108628Y-124547142D02*
X118108628Y-124928094D01*
X117680057Y-123975713D02*
X117632438Y-123928094D01*
X117632438Y-123928094D02*
X117584819Y-123832856D01*
X117584819Y-123832856D02*
X117584819Y-123594761D01*
X117584819Y-123594761D02*
X117632438Y-123499523D01*
X117632438Y-123499523D02*
X117680057Y-123451904D01*
X117680057Y-123451904D02*
X117775295Y-123404285D01*
X117775295Y-123404285D02*
X117870533Y-123404285D01*
X117870533Y-123404285D02*
X118013390Y-123451904D01*
X118013390Y-123451904D02*
X118584819Y-124023332D01*
X118584819Y-124023332D02*
X118584819Y-123404285D01*
X138333333Y-107859580D02*
X138285714Y-107907200D01*
X138285714Y-107907200D02*
X138142857Y-107954819D01*
X138142857Y-107954819D02*
X138047619Y-107954819D01*
X138047619Y-107954819D02*
X137904762Y-107907200D01*
X137904762Y-107907200D02*
X137809524Y-107811961D01*
X137809524Y-107811961D02*
X137761905Y-107716723D01*
X137761905Y-107716723D02*
X137714286Y-107526247D01*
X137714286Y-107526247D02*
X137714286Y-107383390D01*
X137714286Y-107383390D02*
X137761905Y-107192914D01*
X137761905Y-107192914D02*
X137809524Y-107097676D01*
X137809524Y-107097676D02*
X137904762Y-107002438D01*
X137904762Y-107002438D02*
X138047619Y-106954819D01*
X138047619Y-106954819D02*
X138142857Y-106954819D01*
X138142857Y-106954819D02*
X138285714Y-107002438D01*
X138285714Y-107002438D02*
X138333333Y-107050057D01*
X139190476Y-107288152D02*
X139190476Y-107954819D01*
X138952381Y-106907200D02*
X138714286Y-107621485D01*
X138714286Y-107621485D02*
X139333333Y-107621485D01*
%TO.C,R6*%
D12*
X135540000Y-112630000D02*
X142080000Y-112630000D01*
X135540000Y-112960000D02*
X135540000Y-112630000D01*
X135540000Y-115040000D02*
X135540000Y-115370000D01*
X135540000Y-115370000D02*
X142080000Y-115370000D01*
X142080000Y-112630000D02*
X142080000Y-112960000D01*
X142080000Y-115370000D02*
X142080000Y-115040000D01*
%TO.C,C2*%
X111150000Y-122783000D02*
X111150000Y-122217000D01*
X111190000Y-123017000D02*
X111190000Y-121983000D01*
X111230000Y-123177000D02*
X111230000Y-121823000D01*
X111270000Y-123305000D02*
X111270000Y-121695000D01*
X111310000Y-123414000D02*
X111310000Y-121586000D01*
X111350000Y-123511000D02*
X111350000Y-121489000D01*
X111390000Y-123598000D02*
X111390000Y-121402000D01*
X111430000Y-123677000D02*
X111430000Y-121323000D01*
X111470000Y-121460000D02*
X111470000Y-121249000D01*
X111470000Y-123751000D02*
X111470000Y-123540000D01*
X111510000Y-121460000D02*
X111510000Y-121181000D01*
X111510000Y-123819000D02*
X111510000Y-123540000D01*
X111550000Y-121460000D02*
X111550000Y-121117000D01*
X111550000Y-123883000D02*
X111550000Y-123540000D01*
X111590000Y-121460000D02*
X111590000Y-121057000D01*
X111590000Y-123943000D02*
X111590000Y-123540000D01*
X111630000Y-121460000D02*
X111630000Y-121001000D01*
X111630000Y-123999000D02*
X111630000Y-123540000D01*
X111670000Y-121460000D02*
X111670000Y-120947000D01*
X111670000Y-124053000D02*
X111670000Y-123540000D01*
X111710000Y-121460000D02*
X111710000Y-120896000D01*
X111710000Y-124104000D02*
X111710000Y-123540000D01*
X111750000Y-121460000D02*
X111750000Y-120848000D01*
X111750000Y-124152000D02*
X111750000Y-123540000D01*
X111790000Y-121460000D02*
X111790000Y-120801000D01*
X111790000Y-124199000D02*
X111790000Y-123540000D01*
X111830000Y-121460000D02*
X111830000Y-120757000D01*
X111830000Y-124243000D02*
X111830000Y-123540000D01*
X111870000Y-121460000D02*
X111870000Y-120715000D01*
X111870000Y-124285000D02*
X111870000Y-123540000D01*
X111910000Y-121460000D02*
X111910000Y-120675000D01*
X111910000Y-124325000D02*
X111910000Y-123540000D01*
X111950000Y-121460000D02*
X111950000Y-120636000D01*
X111950000Y-124364000D02*
X111950000Y-123540000D01*
X111990000Y-121460000D02*
X111990000Y-120599000D01*
X111990000Y-124401000D02*
X111990000Y-123540000D01*
X112030000Y-121460000D02*
X112030000Y-120564000D01*
X112030000Y-124436000D02*
X112030000Y-123540000D01*
X112070000Y-121460000D02*
X112070000Y-120530000D01*
X112070000Y-124470000D02*
X112070000Y-123540000D01*
X112110000Y-121460000D02*
X112110000Y-120497000D01*
X112110000Y-124503000D02*
X112110000Y-123540000D01*
X112150000Y-121460000D02*
X112150000Y-120465000D01*
X112150000Y-124535000D02*
X112150000Y-123540000D01*
X112190000Y-121460000D02*
X112190000Y-120435000D01*
X112190000Y-124565000D02*
X112190000Y-123540000D01*
X112230000Y-121460000D02*
X112230000Y-120406000D01*
X112230000Y-124594000D02*
X112230000Y-123540000D01*
X112270000Y-121460000D02*
X112270000Y-120378000D01*
X112270000Y-124622000D02*
X112270000Y-123540000D01*
X112310000Y-121460000D02*
X112310000Y-120351000D01*
X112310000Y-124649000D02*
X112310000Y-123540000D01*
X112350000Y-121460000D02*
X112350000Y-120325000D01*
X112350000Y-124675000D02*
X112350000Y-123540000D01*
X112390000Y-121460000D02*
X112390000Y-120301000D01*
X112390000Y-124699000D02*
X112390000Y-123540000D01*
X112430000Y-121460000D02*
X112430000Y-120277000D01*
X112430000Y-124723000D02*
X112430000Y-123540000D01*
X112470000Y-121460000D02*
X112470000Y-120254000D01*
X112470000Y-124746000D02*
X112470000Y-123540000D01*
X112510000Y-121460000D02*
X112510000Y-120232000D01*
X112510000Y-124768000D02*
X112510000Y-123540000D01*
X112550000Y-121460000D02*
X112550000Y-120211000D01*
X112550000Y-124789000D02*
X112550000Y-123540000D01*
X112590000Y-121460000D02*
X112590000Y-120191000D01*
X112590000Y-124809000D02*
X112590000Y-123540000D01*
X112630000Y-121460000D02*
X112630000Y-120171000D01*
X112630000Y-124829000D02*
X112630000Y-123540000D01*
X112670000Y-121460000D02*
X112670000Y-120153000D01*
X112670000Y-124847000D02*
X112670000Y-123540000D01*
X112710000Y-121460000D02*
X112710000Y-120135000D01*
X112710000Y-124865000D02*
X112710000Y-123540000D01*
X112750000Y-121460000D02*
X112750000Y-120118000D01*
X112750000Y-124882000D02*
X112750000Y-123540000D01*
X112790000Y-121460000D02*
X112790000Y-120102000D01*
X112790000Y-124898000D02*
X112790000Y-123540000D01*
X112830000Y-121460000D02*
X112830000Y-120087000D01*
X112830000Y-124913000D02*
X112830000Y-123540000D01*
X112870000Y-121460000D02*
X112870000Y-120072000D01*
X112870000Y-124928000D02*
X112870000Y-123540000D01*
X112910000Y-121460000D02*
X112910000Y-120058000D01*
X112910000Y-124942000D02*
X112910000Y-123540000D01*
X112950000Y-121460000D02*
X112950000Y-120045000D01*
X112950000Y-124955000D02*
X112950000Y-123540000D01*
X112990000Y-121460000D02*
X112990000Y-120033000D01*
X112990000Y-124967000D02*
X112990000Y-123540000D01*
X113030000Y-121460000D02*
X113030000Y-120021000D01*
X113030000Y-124979000D02*
X113030000Y-123540000D01*
X113070000Y-121460000D02*
X113070000Y-120010000D01*
X113070000Y-124990000D02*
X113070000Y-123540000D01*
X113110000Y-121460000D02*
X113110000Y-119999000D01*
X113110000Y-125001000D02*
X113110000Y-123540000D01*
X113150000Y-121460000D02*
X113150000Y-119990000D01*
X113150000Y-125010000D02*
X113150000Y-123540000D01*
X113190000Y-121460000D02*
X113190000Y-119981000D01*
X113190000Y-125019000D02*
X113190000Y-123540000D01*
X113230000Y-121460000D02*
X113230000Y-119972000D01*
X113230000Y-125028000D02*
X113230000Y-123540000D01*
X113270000Y-121460000D02*
X113270000Y-119964000D01*
X113270000Y-125036000D02*
X113270000Y-123540000D01*
X113310000Y-121460000D02*
X113310000Y-119957000D01*
X113310000Y-125043000D02*
X113310000Y-123540000D01*
X113350000Y-121460000D02*
X113350000Y-119951000D01*
X113350000Y-125049000D02*
X113350000Y-123540000D01*
X113390000Y-121460000D02*
X113390000Y-119945000D01*
X113390000Y-125055000D02*
X113390000Y-123540000D01*
X113430000Y-121460000D02*
X113430000Y-119940000D01*
X113430000Y-125060000D02*
X113430000Y-123540000D01*
X113470000Y-121460000D02*
X113470000Y-119935000D01*
X113470000Y-125065000D02*
X113470000Y-123540000D01*
X113510000Y-121460000D02*
X113510000Y-119931000D01*
X113510000Y-125069000D02*
X113510000Y-123540000D01*
X113550000Y-125072000D02*
X113550000Y-119928000D01*
X113590000Y-125075000D02*
X113590000Y-119925000D01*
X113630000Y-125077000D02*
X113630000Y-119923000D01*
X113670000Y-125079000D02*
X113670000Y-119921000D01*
X113710000Y-125080000D02*
X113710000Y-119920000D01*
X113750000Y-125080000D02*
X113750000Y-119920000D01*
X116304775Y-124225000D02*
X116304775Y-123725000D01*
X116554775Y-123975000D02*
X116054775Y-123975000D01*
X116370000Y-122500000D02*
G75*
G02*
X111130000Y-122500000I-2620000J0D01*
G01*
X111130000Y-122500000D02*
G75*
G02*
X116370000Y-122500000I2620000J0D01*
G01*
%TO.C,J2*%
X176620000Y-102620000D02*
X178000000Y-102620000D01*
X176620000Y-104000000D02*
X176620000Y-102620000D01*
X176620000Y-105270000D02*
X176620000Y-113000000D01*
X176620000Y-105270000D02*
X179380000Y-105270000D01*
X176620000Y-113000000D02*
X179380000Y-113000000D01*
X179380000Y-105270000D02*
X179380000Y-113000000D01*
%TO.C,C8*%
X152500000Y-111630000D02*
X157740000Y-111630000D01*
X152500000Y-111967000D02*
X152500000Y-111630000D01*
X152500000Y-114370000D02*
X152500000Y-114033000D01*
X157740000Y-111630000D02*
X157740000Y-111967000D01*
X157740000Y-114033000D02*
X157740000Y-114370000D01*
X157740000Y-114370000D02*
X152500000Y-114370000D01*
%TO.C,R3*%
X113630000Y-110540000D02*
X113630000Y-117080000D01*
X113630000Y-117080000D02*
X113960000Y-117080000D01*
X113960000Y-110540000D02*
X113630000Y-110540000D01*
X116040000Y-110540000D02*
X116370000Y-110540000D01*
X116370000Y-110540000D02*
X116370000Y-117080000D01*
X116370000Y-117080000D02*
X116040000Y-117080000D01*
%TO.C,C3*%
X122150000Y-120823000D02*
X122150000Y-120257000D01*
X122190000Y-121057000D02*
X122190000Y-120023000D01*
X122230000Y-121217000D02*
X122230000Y-119863000D01*
X122270000Y-121345000D02*
X122270000Y-119735000D01*
X122310000Y-121454000D02*
X122310000Y-119626000D01*
X122350000Y-121551000D02*
X122350000Y-119529000D01*
X122390000Y-121638000D02*
X122390000Y-119442000D01*
X122430000Y-121717000D02*
X122430000Y-119363000D01*
X122470000Y-119500000D02*
X122470000Y-119289000D01*
X122470000Y-121791000D02*
X122470000Y-121580000D01*
X122510000Y-119500000D02*
X122510000Y-119221000D01*
X122510000Y-121859000D02*
X122510000Y-121580000D01*
X122550000Y-119500000D02*
X122550000Y-119157000D01*
X122550000Y-121923000D02*
X122550000Y-121580000D01*
X122590000Y-119500000D02*
X122590000Y-119097000D01*
X122590000Y-121983000D02*
X122590000Y-121580000D01*
X122630000Y-119500000D02*
X122630000Y-119041000D01*
X122630000Y-122039000D02*
X122630000Y-121580000D01*
X122670000Y-119500000D02*
X122670000Y-118987000D01*
X122670000Y-122093000D02*
X122670000Y-121580000D01*
X122710000Y-119500000D02*
X122710000Y-118936000D01*
X122710000Y-122144000D02*
X122710000Y-121580000D01*
X122750000Y-119500000D02*
X122750000Y-118888000D01*
X122750000Y-122192000D02*
X122750000Y-121580000D01*
X122790000Y-119500000D02*
X122790000Y-118841000D01*
X122790000Y-122239000D02*
X122790000Y-121580000D01*
X122830000Y-119500000D02*
X122830000Y-118797000D01*
X122830000Y-122283000D02*
X122830000Y-121580000D01*
X122870000Y-119500000D02*
X122870000Y-118755000D01*
X122870000Y-122325000D02*
X122870000Y-121580000D01*
X122910000Y-119500000D02*
X122910000Y-118715000D01*
X122910000Y-122365000D02*
X122910000Y-121580000D01*
X122950000Y-119500000D02*
X122950000Y-118676000D01*
X122950000Y-122404000D02*
X122950000Y-121580000D01*
X122990000Y-119500000D02*
X122990000Y-118639000D01*
X122990000Y-122441000D02*
X122990000Y-121580000D01*
X123030000Y-119500000D02*
X123030000Y-118604000D01*
X123030000Y-122476000D02*
X123030000Y-121580000D01*
X123070000Y-119500000D02*
X123070000Y-118570000D01*
X123070000Y-122510000D02*
X123070000Y-121580000D01*
X123110000Y-119500000D02*
X123110000Y-118537000D01*
X123110000Y-122543000D02*
X123110000Y-121580000D01*
X123150000Y-119500000D02*
X123150000Y-118505000D01*
X123150000Y-122575000D02*
X123150000Y-121580000D01*
X123190000Y-119500000D02*
X123190000Y-118475000D01*
X123190000Y-122605000D02*
X123190000Y-121580000D01*
X123230000Y-119500000D02*
X123230000Y-118446000D01*
X123230000Y-122634000D02*
X123230000Y-121580000D01*
X123270000Y-119500000D02*
X123270000Y-118418000D01*
X123270000Y-122662000D02*
X123270000Y-121580000D01*
X123310000Y-119500000D02*
X123310000Y-118391000D01*
X123310000Y-122689000D02*
X123310000Y-121580000D01*
X123350000Y-119500000D02*
X123350000Y-118365000D01*
X123350000Y-122715000D02*
X123350000Y-121580000D01*
X123390000Y-119500000D02*
X123390000Y-118341000D01*
X123390000Y-122739000D02*
X123390000Y-121580000D01*
X123430000Y-119500000D02*
X123430000Y-118317000D01*
X123430000Y-122763000D02*
X123430000Y-121580000D01*
X123470000Y-119500000D02*
X123470000Y-118294000D01*
X123470000Y-122786000D02*
X123470000Y-121580000D01*
X123510000Y-119500000D02*
X123510000Y-118272000D01*
X123510000Y-122808000D02*
X123510000Y-121580000D01*
X123550000Y-119500000D02*
X123550000Y-118251000D01*
X123550000Y-122829000D02*
X123550000Y-121580000D01*
X123590000Y-119500000D02*
X123590000Y-118231000D01*
X123590000Y-122849000D02*
X123590000Y-121580000D01*
X123630000Y-119500000D02*
X123630000Y-118211000D01*
X123630000Y-122869000D02*
X123630000Y-121580000D01*
X123670000Y-119500000D02*
X123670000Y-118193000D01*
X123670000Y-122887000D02*
X123670000Y-121580000D01*
X123710000Y-119500000D02*
X123710000Y-118175000D01*
X123710000Y-122905000D02*
X123710000Y-121580000D01*
X123750000Y-119500000D02*
X123750000Y-118158000D01*
X123750000Y-122922000D02*
X123750000Y-121580000D01*
X123790000Y-119500000D02*
X123790000Y-118142000D01*
X123790000Y-122938000D02*
X123790000Y-121580000D01*
X123830000Y-119500000D02*
X123830000Y-118127000D01*
X123830000Y-122953000D02*
X123830000Y-121580000D01*
X123870000Y-119500000D02*
X123870000Y-118112000D01*
X123870000Y-122968000D02*
X123870000Y-121580000D01*
X123910000Y-119500000D02*
X123910000Y-118098000D01*
X123910000Y-122982000D02*
X123910000Y-121580000D01*
X123950000Y-119500000D02*
X123950000Y-118085000D01*
X123950000Y-122995000D02*
X123950000Y-121580000D01*
X123990000Y-119500000D02*
X123990000Y-118073000D01*
X123990000Y-123007000D02*
X123990000Y-121580000D01*
X124030000Y-119500000D02*
X124030000Y-118061000D01*
X124030000Y-123019000D02*
X124030000Y-121580000D01*
X124070000Y-119500000D02*
X124070000Y-118050000D01*
X124070000Y-123030000D02*
X124070000Y-121580000D01*
X124110000Y-119500000D02*
X124110000Y-118039000D01*
X124110000Y-123041000D02*
X124110000Y-121580000D01*
X124150000Y-119500000D02*
X124150000Y-118030000D01*
X124150000Y-123050000D02*
X124150000Y-121580000D01*
X124190000Y-119500000D02*
X124190000Y-118021000D01*
X124190000Y-123059000D02*
X124190000Y-121580000D01*
X124230000Y-119500000D02*
X124230000Y-118012000D01*
X124230000Y-123068000D02*
X124230000Y-121580000D01*
X124270000Y-119500000D02*
X124270000Y-118004000D01*
X124270000Y-123076000D02*
X124270000Y-121580000D01*
X124310000Y-119500000D02*
X124310000Y-117997000D01*
X124310000Y-123083000D02*
X124310000Y-121580000D01*
X124350000Y-119500000D02*
X124350000Y-117991000D01*
X124350000Y-123089000D02*
X124350000Y-121580000D01*
X124390000Y-119500000D02*
X124390000Y-117985000D01*
X124390000Y-123095000D02*
X124390000Y-121580000D01*
X124430000Y-119500000D02*
X124430000Y-117980000D01*
X124430000Y-123100000D02*
X124430000Y-121580000D01*
X124470000Y-119500000D02*
X124470000Y-117975000D01*
X124470000Y-123105000D02*
X124470000Y-121580000D01*
X124510000Y-119500000D02*
X124510000Y-117971000D01*
X124510000Y-123109000D02*
X124510000Y-121580000D01*
X124550000Y-123112000D02*
X124550000Y-117968000D01*
X124590000Y-123115000D02*
X124590000Y-117965000D01*
X124630000Y-123117000D02*
X124630000Y-117963000D01*
X124670000Y-123119000D02*
X124670000Y-117961000D01*
X124710000Y-123120000D02*
X124710000Y-117960000D01*
X124750000Y-123120000D02*
X124750000Y-117960000D01*
X127304775Y-122265000D02*
X127304775Y-121765000D01*
X127554775Y-122015000D02*
X127054775Y-122015000D01*
X127370000Y-120540000D02*
G75*
G02*
X122130000Y-120540000I-2620000J0D01*
G01*
X122130000Y-120540000D02*
G75*
G02*
X127370000Y-120540000I2620000J0D01*
G01*
%TO.C,J1*%
X101280000Y-127380000D02*
X111320000Y-127380000D01*
X101280000Y-129700000D02*
X101280000Y-127380000D01*
X101280000Y-137620000D02*
X101280000Y-130300000D01*
X101900000Y-127380000D02*
X101900000Y-137620000D01*
X103400000Y-127380000D02*
X103400000Y-137620000D01*
X108300000Y-127380000D02*
X108300000Y-137620000D01*
X111320000Y-127380000D02*
X111320000Y-137620000D01*
X111320000Y-137620000D02*
X101280000Y-137620000D01*
X101280000Y-130000000D02*
X100670000Y-130440000D01*
X100670000Y-129560000D01*
X101280000Y-130000000D01*
G36*
X101280000Y-130000000D02*
G01*
X100670000Y-130440000D01*
X100670000Y-129560000D01*
X101280000Y-130000000D01*
G37*
%TO.C,C1*%
X112945225Y-128525000D02*
X113445225Y-128525000D01*
X113195225Y-128275000D02*
X113195225Y-128775000D01*
X115750000Y-127420000D02*
X115750000Y-132580000D01*
X115790000Y-127420000D02*
X115790000Y-132580000D01*
X115830000Y-127421000D02*
X115830000Y-132579000D01*
X115870000Y-127423000D02*
X115870000Y-132577000D01*
X115910000Y-127425000D02*
X115910000Y-132575000D01*
X115950000Y-127428000D02*
X115950000Y-132572000D01*
X115990000Y-127431000D02*
X115990000Y-128960000D01*
X115990000Y-131040000D02*
X115990000Y-132569000D01*
X116030000Y-127435000D02*
X116030000Y-128960000D01*
X116030000Y-131040000D02*
X116030000Y-132565000D01*
X116070000Y-127440000D02*
X116070000Y-128960000D01*
X116070000Y-131040000D02*
X116070000Y-132560000D01*
X116110000Y-127445000D02*
X116110000Y-128960000D01*
X116110000Y-131040000D02*
X116110000Y-132555000D01*
X116150000Y-127451000D02*
X116150000Y-128960000D01*
X116150000Y-131040000D02*
X116150000Y-132549000D01*
X116190000Y-127457000D02*
X116190000Y-128960000D01*
X116190000Y-131040000D02*
X116190000Y-132543000D01*
X116230000Y-127464000D02*
X116230000Y-128960000D01*
X116230000Y-131040000D02*
X116230000Y-132536000D01*
X116270000Y-127472000D02*
X116270000Y-128960000D01*
X116270000Y-131040000D02*
X116270000Y-132528000D01*
X116310000Y-127481000D02*
X116310000Y-128960000D01*
X116310000Y-131040000D02*
X116310000Y-132519000D01*
X116350000Y-127490000D02*
X116350000Y-128960000D01*
X116350000Y-131040000D02*
X116350000Y-132510000D01*
X116390000Y-127499000D02*
X116390000Y-128960000D01*
X116390000Y-131040000D02*
X116390000Y-132501000D01*
X116430000Y-127510000D02*
X116430000Y-128960000D01*
X116430000Y-131040000D02*
X116430000Y-132490000D01*
X116470000Y-127521000D02*
X116470000Y-128960000D01*
X116470000Y-131040000D02*
X116470000Y-132479000D01*
X116510000Y-127533000D02*
X116510000Y-128960000D01*
X116510000Y-131040000D02*
X116510000Y-132467000D01*
X116550000Y-127545000D02*
X116550000Y-128960000D01*
X116550000Y-131040000D02*
X116550000Y-132455000D01*
X116590000Y-127558000D02*
X116590000Y-128960000D01*
X116590000Y-131040000D02*
X116590000Y-132442000D01*
X116630000Y-127572000D02*
X116630000Y-128960000D01*
X116630000Y-131040000D02*
X116630000Y-132428000D01*
X116670000Y-127587000D02*
X116670000Y-128960000D01*
X116670000Y-131040000D02*
X116670000Y-132413000D01*
X116710000Y-127602000D02*
X116710000Y-128960000D01*
X116710000Y-131040000D02*
X116710000Y-132398000D01*
X116750000Y-127618000D02*
X116750000Y-128960000D01*
X116750000Y-131040000D02*
X116750000Y-132382000D01*
X116790000Y-127635000D02*
X116790000Y-128960000D01*
X116790000Y-131040000D02*
X116790000Y-132365000D01*
X116830000Y-127653000D02*
X116830000Y-128960000D01*
X116830000Y-131040000D02*
X116830000Y-132347000D01*
X116870000Y-127671000D02*
X116870000Y-128960000D01*
X116870000Y-131040000D02*
X116870000Y-132329000D01*
X116910000Y-127691000D02*
X116910000Y-128960000D01*
X116910000Y-131040000D02*
X116910000Y-132309000D01*
X116950000Y-127711000D02*
X116950000Y-128960000D01*
X116950000Y-131040000D02*
X116950000Y-132289000D01*
X116990000Y-127732000D02*
X116990000Y-128960000D01*
X116990000Y-131040000D02*
X116990000Y-132268000D01*
X117030000Y-127754000D02*
X117030000Y-128960000D01*
X117030000Y-131040000D02*
X117030000Y-132246000D01*
X117070000Y-127777000D02*
X117070000Y-128960000D01*
X117070000Y-131040000D02*
X117070000Y-132223000D01*
X117110000Y-127801000D02*
X117110000Y-128960000D01*
X117110000Y-131040000D02*
X117110000Y-132199000D01*
X117150000Y-127825000D02*
X117150000Y-128960000D01*
X117150000Y-131040000D02*
X117150000Y-132175000D01*
X117190000Y-127851000D02*
X117190000Y-128960000D01*
X117190000Y-131040000D02*
X117190000Y-132149000D01*
X117230000Y-127878000D02*
X117230000Y-128960000D01*
X117230000Y-131040000D02*
X117230000Y-132122000D01*
X117270000Y-127906000D02*
X117270000Y-128960000D01*
X117270000Y-131040000D02*
X117270000Y-132094000D01*
X117310000Y-127935000D02*
X117310000Y-128960000D01*
X117310000Y-131040000D02*
X117310000Y-132065000D01*
X117350000Y-127965000D02*
X117350000Y-128960000D01*
X117350000Y-131040000D02*
X117350000Y-132035000D01*
X117390000Y-127997000D02*
X117390000Y-128960000D01*
X117390000Y-131040000D02*
X117390000Y-132003000D01*
X117430000Y-128030000D02*
X117430000Y-128960000D01*
X117430000Y-131040000D02*
X117430000Y-131970000D01*
X117470000Y-128064000D02*
X117470000Y-128960000D01*
X117470000Y-131040000D02*
X117470000Y-131936000D01*
X117510000Y-128099000D02*
X117510000Y-128960000D01*
X117510000Y-131040000D02*
X117510000Y-131901000D01*
X117550000Y-128136000D02*
X117550000Y-128960000D01*
X117550000Y-131040000D02*
X117550000Y-131864000D01*
X117590000Y-128175000D02*
X117590000Y-128960000D01*
X117590000Y-131040000D02*
X117590000Y-131825000D01*
X117630000Y-128215000D02*
X117630000Y-128960000D01*
X117630000Y-131040000D02*
X117630000Y-131785000D01*
X117670000Y-128257000D02*
X117670000Y-128960000D01*
X117670000Y-131040000D02*
X117670000Y-131743000D01*
X117710000Y-128301000D02*
X117710000Y-128960000D01*
X117710000Y-131040000D02*
X117710000Y-131699000D01*
X117750000Y-128348000D02*
X117750000Y-128960000D01*
X117750000Y-131040000D02*
X117750000Y-131652000D01*
X117790000Y-128396000D02*
X117790000Y-128960000D01*
X117790000Y-131040000D02*
X117790000Y-131604000D01*
X117830000Y-128447000D02*
X117830000Y-128960000D01*
X117830000Y-131040000D02*
X117830000Y-131553000D01*
X117870000Y-128501000D02*
X117870000Y-128960000D01*
X117870000Y-131040000D02*
X117870000Y-131499000D01*
X117910000Y-128557000D02*
X117910000Y-128960000D01*
X117910000Y-131040000D02*
X117910000Y-131443000D01*
X117950000Y-128617000D02*
X117950000Y-128960000D01*
X117950000Y-131040000D02*
X117950000Y-131383000D01*
X117990000Y-128681000D02*
X117990000Y-128960000D01*
X117990000Y-131040000D02*
X117990000Y-131319000D01*
X118030000Y-128749000D02*
X118030000Y-128960000D01*
X118030000Y-131040000D02*
X118030000Y-131251000D01*
X118070000Y-128823000D02*
X118070000Y-131177000D01*
X118110000Y-128902000D02*
X118110000Y-131098000D01*
X118150000Y-128989000D02*
X118150000Y-131011000D01*
X118190000Y-129086000D02*
X118190000Y-130914000D01*
X118230000Y-129195000D02*
X118230000Y-130805000D01*
X118270000Y-129323000D02*
X118270000Y-130677000D01*
X118310000Y-129483000D02*
X118310000Y-130517000D01*
X118350000Y-129717000D02*
X118350000Y-130283000D01*
X118370000Y-130000000D02*
G75*
G02*
X113130000Y-130000000I-2620000J0D01*
G01*
X113130000Y-130000000D02*
G75*
G02*
X118370000Y-130000000I2620000J0D01*
G01*
%TO.C,R5*%
X129920000Y-119170000D02*
X136460000Y-119170000D01*
X129920000Y-119500000D02*
X129920000Y-119170000D01*
X129920000Y-121580000D02*
X129920000Y-121910000D01*
X129920000Y-121910000D02*
X136460000Y-121910000D01*
X136460000Y-119170000D02*
X136460000Y-119500000D01*
X136460000Y-121910000D02*
X136460000Y-121580000D01*
%TO.C,C6*%
X162630000Y-125420000D02*
X162967000Y-125420000D01*
X162630000Y-130660000D02*
X162630000Y-125420000D01*
X162967000Y-130660000D02*
X162630000Y-130660000D01*
X165033000Y-125420000D02*
X165370000Y-125420000D01*
X165370000Y-125420000D02*
X165370000Y-130660000D01*
X165370000Y-130660000D02*
X165033000Y-130660000D01*
%TO.C,R4*%
X117630000Y-110540000D02*
X117960000Y-110540000D01*
X117630000Y-117080000D02*
X117630000Y-110540000D01*
X117960000Y-117080000D02*
X117630000Y-117080000D01*
X120040000Y-117080000D02*
X120370000Y-117080000D01*
X120370000Y-110540000D02*
X120040000Y-110540000D01*
X120370000Y-117080000D02*
X120370000Y-110540000D01*
%TO.C,U1*%
X146560000Y-116670000D02*
X146560000Y-126950000D01*
X146560000Y-126950000D02*
X151060000Y-126950000D01*
X147810000Y-116670000D02*
X146560000Y-116670000D01*
X151060000Y-116670000D02*
X149810000Y-116670000D01*
X151060000Y-126950000D02*
X151060000Y-116670000D01*
X149810000Y-116670000D02*
G75*
G02*
X147810000Y-116670000I-1000000J0D01*
G01*
%TO.C,R7*%
X160540000Y-137630000D02*
X160540000Y-137960000D01*
X160540000Y-140370000D02*
X160540000Y-140040000D01*
X167080000Y-137630000D02*
X160540000Y-137630000D01*
X167080000Y-137960000D02*
X167080000Y-137630000D01*
X167080000Y-140040000D02*
X167080000Y-140370000D01*
X167080000Y-140370000D02*
X160540000Y-140370000D01*
%TO.C,R8*%
X158630000Y-126080000D02*
X158960000Y-126080000D01*
X158630000Y-132620000D02*
X158630000Y-126080000D01*
X158960000Y-132620000D02*
X158630000Y-132620000D01*
X161040000Y-132620000D02*
X161370000Y-132620000D01*
X161370000Y-126080000D02*
X161040000Y-126080000D01*
X161370000Y-132620000D02*
X161370000Y-126080000D01*
%TO.C,C5*%
X169445225Y-137525000D02*
X169945225Y-137525000D01*
X169695225Y-137275000D02*
X169695225Y-137775000D01*
X172250000Y-136420000D02*
X172250000Y-141580000D01*
X172290000Y-136420000D02*
X172290000Y-141580000D01*
X172330000Y-136421000D02*
X172330000Y-141579000D01*
X172370000Y-136423000D02*
X172370000Y-141577000D01*
X172410000Y-136425000D02*
X172410000Y-141575000D01*
X172450000Y-136428000D02*
X172450000Y-141572000D01*
X172490000Y-136431000D02*
X172490000Y-137960000D01*
X172490000Y-140040000D02*
X172490000Y-141569000D01*
X172530000Y-136435000D02*
X172530000Y-137960000D01*
X172530000Y-140040000D02*
X172530000Y-141565000D01*
X172570000Y-136440000D02*
X172570000Y-137960000D01*
X172570000Y-140040000D02*
X172570000Y-141560000D01*
X172610000Y-136445000D02*
X172610000Y-137960000D01*
X172610000Y-140040000D02*
X172610000Y-141555000D01*
X172650000Y-136451000D02*
X172650000Y-137960000D01*
X172650000Y-140040000D02*
X172650000Y-141549000D01*
X172690000Y-136457000D02*
X172690000Y-137960000D01*
X172690000Y-140040000D02*
X172690000Y-141543000D01*
X172730000Y-136464000D02*
X172730000Y-137960000D01*
X172730000Y-140040000D02*
X172730000Y-141536000D01*
X172770000Y-136472000D02*
X172770000Y-137960000D01*
X172770000Y-140040000D02*
X172770000Y-141528000D01*
X172810000Y-136481000D02*
X172810000Y-137960000D01*
X172810000Y-140040000D02*
X172810000Y-141519000D01*
X172850000Y-136490000D02*
X172850000Y-137960000D01*
X172850000Y-140040000D02*
X172850000Y-141510000D01*
X172890000Y-136499000D02*
X172890000Y-137960000D01*
X172890000Y-140040000D02*
X172890000Y-141501000D01*
X172930000Y-136510000D02*
X172930000Y-137960000D01*
X172930000Y-140040000D02*
X172930000Y-141490000D01*
X172970000Y-136521000D02*
X172970000Y-137960000D01*
X172970000Y-140040000D02*
X172970000Y-141479000D01*
X173010000Y-136533000D02*
X173010000Y-137960000D01*
X173010000Y-140040000D02*
X173010000Y-141467000D01*
X173050000Y-136545000D02*
X173050000Y-137960000D01*
X173050000Y-140040000D02*
X173050000Y-141455000D01*
X173090000Y-136558000D02*
X173090000Y-137960000D01*
X173090000Y-140040000D02*
X173090000Y-141442000D01*
X173130000Y-136572000D02*
X173130000Y-137960000D01*
X173130000Y-140040000D02*
X173130000Y-141428000D01*
X173170000Y-136587000D02*
X173170000Y-137960000D01*
X173170000Y-140040000D02*
X173170000Y-141413000D01*
X173210000Y-136602000D02*
X173210000Y-137960000D01*
X173210000Y-140040000D02*
X173210000Y-141398000D01*
X173250000Y-136618000D02*
X173250000Y-137960000D01*
X173250000Y-140040000D02*
X173250000Y-141382000D01*
X173290000Y-136635000D02*
X173290000Y-137960000D01*
X173290000Y-140040000D02*
X173290000Y-141365000D01*
X173330000Y-136653000D02*
X173330000Y-137960000D01*
X173330000Y-140040000D02*
X173330000Y-141347000D01*
X173370000Y-136671000D02*
X173370000Y-137960000D01*
X173370000Y-140040000D02*
X173370000Y-141329000D01*
X173410000Y-136691000D02*
X173410000Y-137960000D01*
X173410000Y-140040000D02*
X173410000Y-141309000D01*
X173450000Y-136711000D02*
X173450000Y-137960000D01*
X173450000Y-140040000D02*
X173450000Y-141289000D01*
X173490000Y-136732000D02*
X173490000Y-137960000D01*
X173490000Y-140040000D02*
X173490000Y-141268000D01*
X173530000Y-136754000D02*
X173530000Y-137960000D01*
X173530000Y-140040000D02*
X173530000Y-141246000D01*
X173570000Y-136777000D02*
X173570000Y-137960000D01*
X173570000Y-140040000D02*
X173570000Y-141223000D01*
X173610000Y-136801000D02*
X173610000Y-137960000D01*
X173610000Y-140040000D02*
X173610000Y-141199000D01*
X173650000Y-136825000D02*
X173650000Y-137960000D01*
X173650000Y-140040000D02*
X173650000Y-141175000D01*
X173690000Y-136851000D02*
X173690000Y-137960000D01*
X173690000Y-140040000D02*
X173690000Y-141149000D01*
X173730000Y-136878000D02*
X173730000Y-137960000D01*
X173730000Y-140040000D02*
X173730000Y-141122000D01*
X173770000Y-136906000D02*
X173770000Y-137960000D01*
X173770000Y-140040000D02*
X173770000Y-141094000D01*
X173810000Y-136935000D02*
X173810000Y-137960000D01*
X173810000Y-140040000D02*
X173810000Y-141065000D01*
X173850000Y-136965000D02*
X173850000Y-137960000D01*
X173850000Y-140040000D02*
X173850000Y-141035000D01*
X173890000Y-136997000D02*
X173890000Y-137960000D01*
X173890000Y-140040000D02*
X173890000Y-141003000D01*
X173930000Y-137030000D02*
X173930000Y-137960000D01*
X173930000Y-140040000D02*
X173930000Y-140970000D01*
X173970000Y-137064000D02*
X173970000Y-137960000D01*
X173970000Y-140040000D02*
X173970000Y-140936000D01*
X174010000Y-137099000D02*
X174010000Y-137960000D01*
X174010000Y-140040000D02*
X174010000Y-140901000D01*
X174050000Y-137136000D02*
X174050000Y-137960000D01*
X174050000Y-140040000D02*
X174050000Y-140864000D01*
X174090000Y-137175000D02*
X174090000Y-137960000D01*
X174090000Y-140040000D02*
X174090000Y-140825000D01*
X174130000Y-137215000D02*
X174130000Y-137960000D01*
X174130000Y-140040000D02*
X174130000Y-140785000D01*
X174170000Y-137257000D02*
X174170000Y-137960000D01*
X174170000Y-140040000D02*
X174170000Y-140743000D01*
X174210000Y-137301000D02*
X174210000Y-137960000D01*
X174210000Y-140040000D02*
X174210000Y-140699000D01*
X174250000Y-137348000D02*
X174250000Y-137960000D01*
X174250000Y-140040000D02*
X174250000Y-140652000D01*
X174290000Y-137396000D02*
X174290000Y-137960000D01*
X174290000Y-140040000D02*
X174290000Y-140604000D01*
X174330000Y-137447000D02*
X174330000Y-137960000D01*
X174330000Y-140040000D02*
X174330000Y-140553000D01*
X174370000Y-137501000D02*
X174370000Y-137960000D01*
X174370000Y-140040000D02*
X174370000Y-140499000D01*
X174410000Y-137557000D02*
X174410000Y-137960000D01*
X174410000Y-140040000D02*
X174410000Y-140443000D01*
X174450000Y-137617000D02*
X174450000Y-137960000D01*
X174450000Y-140040000D02*
X174450000Y-140383000D01*
X174490000Y-137681000D02*
X174490000Y-137960000D01*
X174490000Y-140040000D02*
X174490000Y-140319000D01*
X174530000Y-137749000D02*
X174530000Y-137960000D01*
X174530000Y-140040000D02*
X174530000Y-140251000D01*
X174570000Y-137823000D02*
X174570000Y-140177000D01*
X174610000Y-137902000D02*
X174610000Y-140098000D01*
X174650000Y-137989000D02*
X174650000Y-140011000D01*
X174690000Y-138086000D02*
X174690000Y-139914000D01*
X174730000Y-138195000D02*
X174730000Y-139805000D01*
X174770000Y-138323000D02*
X174770000Y-139677000D01*
X174810000Y-138483000D02*
X174810000Y-139517000D01*
X174850000Y-138717000D02*
X174850000Y-139283000D01*
X174870000Y-139000000D02*
G75*
G02*
X169630000Y-139000000I-2620000J0D01*
G01*
X169630000Y-139000000D02*
G75*
G02*
X174870000Y-139000000I2620000J0D01*
G01*
%TO.C,R1*%
X108130000Y-108540000D02*
X108130000Y-115080000D01*
X108130000Y-115080000D02*
X108460000Y-115080000D01*
X108460000Y-108540000D02*
X108130000Y-108540000D01*
X110540000Y-108540000D02*
X110870000Y-108540000D01*
X110870000Y-108540000D02*
X110870000Y-115080000D01*
X110870000Y-115080000D02*
X110540000Y-115080000D01*
%TO.C,R9*%
X172630000Y-127920000D02*
X172960000Y-127920000D01*
X172630000Y-134460000D02*
X172630000Y-127920000D01*
X172960000Y-134460000D02*
X172630000Y-134460000D01*
X175040000Y-134460000D02*
X175370000Y-134460000D01*
X175370000Y-127920000D02*
X175040000Y-127920000D01*
X175370000Y-134460000D02*
X175370000Y-127920000D01*
%TO.C,C7*%
X176630000Y-119880000D02*
X176967000Y-119880000D01*
X176630000Y-125120000D02*
X176630000Y-119880000D01*
X176967000Y-125120000D02*
X176630000Y-125120000D01*
X179033000Y-119880000D02*
X179370000Y-119880000D01*
X179370000Y-119880000D02*
X179370000Y-125120000D01*
X179370000Y-125120000D02*
X179033000Y-125120000D01*
%TO.C,R2*%
X119130000Y-120920000D02*
X119460000Y-120920000D01*
X119130000Y-127460000D02*
X119130000Y-120920000D01*
X119460000Y-127460000D02*
X119130000Y-127460000D01*
X121540000Y-127460000D02*
X121870000Y-127460000D01*
X121870000Y-120920000D02*
X121540000Y-120920000D01*
X121870000Y-127460000D02*
X121870000Y-120920000D01*
%TO.C,C4*%
X135880000Y-108630000D02*
X141120000Y-108630000D01*
X135880000Y-108967000D02*
X135880000Y-108630000D01*
X135880000Y-111370000D02*
X135880000Y-111033000D01*
X141120000Y-108630000D02*
X141120000Y-108967000D01*
X141120000Y-111033000D02*
X141120000Y-111370000D01*
X141120000Y-111370000D02*
X135880000Y-111370000D01*
%TD*%
M02*
