M48
; DRILL file KiCad 10.0.6 date 2026-10-03T13:16:30
; FORMAT={-:-/ absolute / metric / decimal}
; #@! TF.CreationDate,2026-10-03T13:16:30+02:00
; #@! TF.GenerationSoftware,Kicad,Pcbnew,10.0.6
; #@! TF.FileFunction,MixedPlating,1,2
FMAT,2
METRIC
; #@! TA.AperFunction,Plated,PTH,ComponentDrill
T1C0.800
; #@! TA.AperFunction,Plated,PTH,ComponentDrill
T2C1.000
; #@! TA.AperFunction,Plated,PTH,ComponentDrill
T3C1.300
%
G90
G05
T1
X109.5Y-108.0
X109.5Y-115.62
X112.5Y-122.5
X114.5Y-130.0
X115.0Y-110.0
X115.0Y-117.62
X115.0Y-122.5
X117.0Y-130.0
X119.0Y-110.0
X119.0Y-117.62
X120.5Y-120.38
X120.5Y-128.0
X123.5Y-120.54
X126.0Y-120.54
X129.38Y-120.54
X135.0Y-114.0
X136.0Y-110.0
X137.0Y-120.54
X141.0Y-110.0
X142.62Y-114.0
X145.0Y-118.0
X145.0Y-120.54
X145.0Y-123.08
X145.0Y-125.62
X152.62Y-113.0
X152.62Y-118.0
X152.62Y-120.54
X152.62Y-123.08
X152.62Y-125.62
X157.62Y-113.0
X160.0Y-125.54
X160.0Y-133.16
X160.0Y-139.0
X164.0Y-125.54
X164.0Y-130.54
X167.62Y-139.0
X171.0Y-139.0
X173.5Y-139.0
X174.0Y-127.38
X174.0Y-135.0
X178.0Y-120.0
X178.0Y-125.0
T2
X178.0Y-104.0
X178.0Y-106.54
X178.0Y-109.08
X178.0Y-111.62
T3
X106.0Y-130.0
X106.0Y-135.0
M30
