%TF.GenerationSoftware,KiCad,Pcbnew,10.0.6*%
%TF.CreationDate,2026-10-03T13:16:30+02:00*%
%TF.ProjectId,rode-preamp,726f6465-2d70-4726-9561-6d702e6b6963,rev?*%
%TF.SameCoordinates,Original*%
%TF.FileFunction,Copper,L2,Bot*%
%TF.FilePolarity,Positive*%
%FSLAX46Y46*%
G04 Gerber Fmt 4.6, Leading zero omitted, Abs format (unit mm)*
G04 Created by KiCad (PCBNEW 10.0.6) date 2026-10-03 13:16:30*
%MOMM*%
%LPD*%
G01*
G04 APERTURE LIST*
G04 Aperture macros list*
%AMRoundRect*
0 Rectangle with rounded corners*
0 $1 Rounding radius*
0 $2 $3 $4 $5 $6 $7 $8 $9 X,Y pos of 4 corners*
0 Add a 4 corners polygon primitive as box body*
4,1,4,$2,$3,$4,$5,$6,$7,$8,$9,$2,$3,0*
0 Add four circle primitives for the rounded corners*
1,1,$1+$1,$2,$3*
1,1,$1+$1,$4,$5*
1,1,$1+$1,$6,$7*
1,1,$1+$1,$8,$9*
0 Add four rect primitives between the rounded corners*
20,1,$1+$1,$2,$3,$4,$5,0*
20,1,$1+$1,$4,$5,$6,$7,0*
20,1,$1+$1,$6,$7,$8,$9,0*
20,1,$1+$1,$8,$9,$2,$3,0*%
G04 Aperture macros list end*
%TA.AperFunction,ComponentPad*%
%ADD10C,1.600000*%
%TD*%
%TA.AperFunction,ComponentPad*%
%ADD11RoundRect,0.250000X0.550000X0.550000X-0.550000X0.550000X-0.550000X-0.550000X0.550000X-0.550000X0*%
%TD*%
%TA.AperFunction,ComponentPad*%
%ADD12R,1.700000X1.700000*%
%TD*%
%TA.AperFunction,ComponentPad*%
%ADD13C,1.700000*%
%TD*%
%TA.AperFunction,ComponentPad*%
%ADD14RoundRect,0.250000X-1.050000X1.050000X-1.050000X-1.050000X1.050000X-1.050000X1.050000X1.050000X0*%
%TD*%
%TA.AperFunction,ComponentPad*%
%ADD15C,2.600000*%
%TD*%
%TA.AperFunction,ComponentPad*%
%ADD16RoundRect,0.250000X-0.550000X-0.550000X0.550000X-0.550000X0.550000X0.550000X-0.550000X0.550000X0*%
%TD*%
%TA.AperFunction,ComponentPad*%
%ADD17RoundRect,0.250000X-0.950000X-0.550000X0.950000X-0.550000X0.950000X0.550000X-0.950000X0.550000X0*%
%TD*%
%TA.AperFunction,ComponentPad*%
%ADD18O,2.400000X1.600000*%
%TD*%
%TA.AperFunction,Conductor*%
%ADD19C,1.000000*%
%TD*%
G04 APERTURE END LIST*
D10*
%TO.P,R6,1*%
%TO.N,Net-(U1A--)*%
X135000000Y-114000000D03*
%TO.P,R6,2*%
%TO.N,/OUT_A*%
X142620000Y-114000000D03*
%TD*%
D11*
%TO.P,C2,1*%
%TO.N,/BIAS*%
X115000000Y-122500000D03*
D10*
%TO.P,C2,2*%
%TO.N,GND*%
X112500000Y-122500000D03*
%TD*%
D12*
%TO.P,J2,1*%
%TO.N,+3V3*%
X178000000Y-104000000D03*
D13*
%TO.P,J2,2*%
%TO.N,+5V*%
X178000000Y-106540000D03*
%TO.P,J2,3*%
%TO.N,/A0*%
X178000000Y-109080000D03*
%TO.P,J2,4*%
%TO.N,GND*%
X178000000Y-111620000D03*
%TD*%
D10*
%TO.P,C8,1*%
%TO.N,+5V*%
X152620000Y-113000000D03*
%TO.P,C8,2*%
%TO.N,GND*%
X157620000Y-113000000D03*
%TD*%
%TO.P,R3,1*%
%TO.N,+5V*%
X115000000Y-110000000D03*
%TO.P,R3,2*%
%TO.N,/BIAS*%
X115000000Y-117620000D03*
%TD*%
D11*
%TO.P,C3,1*%
%TO.N,Net-(C3-Pad1)*%
X126000000Y-120540000D03*
D10*
%TO.P,C3,2*%
%TO.N,GND*%
X123500000Y-120540000D03*
%TD*%
D14*
%TO.P,J1,1*%
%TO.N,/MIC*%
X106000000Y-130000000D03*
D15*
%TO.P,J1,2*%
%TO.N,GND*%
X106000000Y-135000000D03*
%TD*%
D16*
%TO.P,C1,1*%
%TO.N,/MIC*%
X114500000Y-130000000D03*
D10*
%TO.P,C1,2*%
%TO.N,Net-(U1A-+)*%
X117000000Y-130000000D03*
%TD*%
%TO.P,R5,1*%
%TO.N,Net-(C3-Pad1)*%
X129380000Y-120540000D03*
%TO.P,R5,2*%
%TO.N,Net-(U1A--)*%
X137000000Y-120540000D03*
%TD*%
%TO.P,C6,1*%
%TO.N,Net-(U1B--)*%
X164000000Y-130540000D03*
%TO.P,C6,2*%
%TO.N,/OUT_B*%
X164000000Y-125540000D03*
%TD*%
%TO.P,R4,1*%
%TO.N,/BIAS*%
X119000000Y-117620000D03*
%TO.P,R4,2*%
%TO.N,GND*%
X119000000Y-110000000D03*
%TD*%
D17*
%TO.P,U1,1*%
%TO.N,/OUT_A*%
X145000000Y-118000000D03*
D18*
%TO.P,U1,2*%
%TO.N,Net-(U1A--)*%
X145000000Y-120540000D03*
%TO.P,U1,3*%
%TO.N,Net-(U1A-+)*%
X145000000Y-123080000D03*
%TO.P,U1,4*%
%TO.N,GND*%
X145000000Y-125620000D03*
%TO.P,U1,5*%
%TO.N,/OUT_A*%
X152620000Y-125620000D03*
%TO.P,U1,6*%
%TO.N,Net-(U1B--)*%
X152620000Y-123080000D03*
%TO.P,U1,7*%
%TO.N,/OUT_B*%
X152620000Y-120540000D03*
%TO.P,U1,8*%
%TO.N,+5V*%
X152620000Y-118000000D03*
%TD*%
D10*
%TO.P,R7,1*%
%TO.N,Net-(C5-Pad1)*%
X167620000Y-139000000D03*
%TO.P,R7,2*%
%TO.N,Net-(U1B--)*%
X160000000Y-139000000D03*
%TD*%
%TO.P,R8,1*%
%TO.N,Net-(U1B--)*%
X160000000Y-133160000D03*
%TO.P,R8,2*%
%TO.N,/OUT_B*%
X160000000Y-125540000D03*
%TD*%
D16*
%TO.P,C5,1*%
%TO.N,Net-(C5-Pad1)*%
X171000000Y-139000000D03*
D10*
%TO.P,C5,2*%
%TO.N,GND*%
X173500000Y-139000000D03*
%TD*%
%TO.P,R1,1*%
%TO.N,+3V3*%
X109500000Y-108000000D03*
%TO.P,R1,2*%
%TO.N,/MIC*%
X109500000Y-115620000D03*
%TD*%
%TO.P,R9,1*%
%TO.N,/OUT_B*%
X174000000Y-135000000D03*
%TO.P,R9,2*%
%TO.N,/A0*%
X174000000Y-127380000D03*
%TD*%
%TO.P,C7,1*%
%TO.N,/A0*%
X178000000Y-120000000D03*
%TO.P,C7,2*%
%TO.N,GND*%
X178000000Y-125000000D03*
%TD*%
%TO.P,R2,1*%
%TO.N,Net-(U1A-+)*%
X120500000Y-128000000D03*
%TO.P,R2,2*%
%TO.N,/BIAS*%
X120500000Y-120380000D03*
%TD*%
%TO.P,C4,1*%
%TO.N,Net-(U1A--)*%
X136000000Y-110000000D03*
%TO.P,C4,2*%
%TO.N,/OUT_A*%
X141000000Y-110000000D03*
%TD*%
%TO.N,Net-(U1A--)*%
D19*
X135000000Y-111000000D02*
X135000000Y-114000000D01*
X137000000Y-116000000D02*
X135000000Y-114000000D01*
X137000000Y-120540000D02*
X137000000Y-116000000D01*
X136000000Y-110000000D02*
X135000000Y-111000000D01*
X145000000Y-120540000D02*
X137000000Y-120540000D01*
%TO.N,/OUT_A*%
X142620000Y-111620000D02*
X142620000Y-114000000D01*
X141000000Y-110000000D02*
X142620000Y-111620000D01*
X150068300Y-125620000D02*
X150068300Y-122080000D01*
X145988300Y-118000000D02*
X145000000Y-118000000D01*
X150068300Y-122080000D02*
X145988300Y-118000000D01*
X152620000Y-125620000D02*
X150068300Y-125620000D01*
X145000000Y-118000000D02*
X145000000Y-116380000D01*
X145000000Y-116380000D02*
X142620000Y-114000000D01*
%TO.N,/BIAS*%
X120500000Y-120380000D02*
X119000000Y-118880000D01*
X119000000Y-118880000D02*
X119000000Y-117620000D01*
X115000000Y-117620000D02*
X115000000Y-122500000D01*
X119000000Y-117620000D02*
X115000000Y-117620000D01*
%TO.N,GND*%
X178000000Y-127727000D02*
X176171900Y-129555100D01*
X145000000Y-125620000D02*
X147551700Y-125620000D01*
X176171900Y-129555100D02*
X173109500Y-129555100D01*
X178000000Y-125000000D02*
X178000000Y-127727000D01*
X145000000Y-125620000D02*
X142448300Y-125620000D01*
X147551700Y-129598200D02*
X159171400Y-141217900D01*
X157620000Y-113000000D02*
X162391700Y-117771700D01*
X108594300Y-113432900D02*
X110447100Y-113432900D01*
X119000000Y-110000000D02*
X116968300Y-112031700D01*
X113245700Y-116231500D02*
X112500000Y-116977200D01*
X172192100Y-141217900D02*
X173500000Y-139910000D01*
X173500000Y-139910000D02*
X173500000Y-139000000D01*
X123500000Y-119040600D02*
X123500000Y-120540000D01*
X116968300Y-112031700D02*
X116968300Y-112508900D01*
X116968300Y-112508900D02*
X113245700Y-116231500D01*
X116968300Y-112508900D02*
X123500000Y-119040600D01*
X112500000Y-116977200D02*
X112500000Y-122500000D01*
X103330400Y-131844400D02*
X103330400Y-118696800D01*
X103330400Y-118696800D02*
X108594300Y-113432900D01*
X106000000Y-134514000D02*
X133554300Y-134514000D01*
X133554300Y-134514000D02*
X142448300Y-125620000D01*
X106000000Y-134514000D02*
X103330400Y-131844400D01*
X159171400Y-141217900D02*
X172192100Y-141217900D01*
X176171900Y-136328100D02*
X173500000Y-139000000D01*
X162391700Y-117771700D02*
X171848300Y-117771700D01*
X171848300Y-117771700D02*
X178000000Y-111620000D01*
X176171900Y-129555100D02*
X176171900Y-136328100D01*
X147551700Y-125620000D02*
X147551700Y-129598200D01*
X110447100Y-113432900D02*
X113245700Y-116231500D01*
X106000000Y-135000000D02*
X106000000Y-134514000D01*
X171848300Y-128293900D02*
X171848300Y-117771700D01*
X173109500Y-129555100D02*
X171848300Y-128293900D01*
%TO.N,+3V3*%
X178000000Y-104000000D02*
X175798300Y-104000000D01*
X175798300Y-104000000D02*
X113500000Y-104000000D01*
X113500000Y-104000000D02*
X109500000Y-108000000D01*
%TO.N,+5V*%
X155171700Y-118000000D02*
X155171700Y-115551700D01*
X152620000Y-113000000D02*
X147451000Y-107831000D01*
X147451000Y-107831000D02*
X117169000Y-107831000D01*
X155171700Y-115551700D02*
X152620000Y-113000000D01*
X159080000Y-106540000D02*
X178000000Y-106540000D01*
X152620000Y-113000000D02*
X159080000Y-106540000D01*
X117169000Y-107831000D02*
X115000000Y-110000000D01*
X152620000Y-118000000D02*
X155171700Y-118000000D01*
%TO.N,/A0*%
X180224800Y-117775200D02*
X180224800Y-110725800D01*
X174000000Y-124000000D02*
X178000000Y-120000000D01*
X180224800Y-110725800D02*
X178579000Y-109080000D01*
X178579000Y-109080000D02*
X178000000Y-109080000D01*
X178000000Y-120000000D02*
X180224800Y-117775200D01*
X174000000Y-127380000D02*
X174000000Y-124000000D01*
%TO.N,Net-(C3-Pad1)*%
X126000000Y-120540000D02*
X129380000Y-120540000D01*
%TO.N,/MIC*%
X109500000Y-130000000D02*
X109500000Y-115620000D01*
X114500000Y-130000000D02*
X109500000Y-130000000D01*
X109500000Y-130000000D02*
X106000000Y-130000000D01*
%TO.N,Net-(U1A-+)*%
X120500000Y-128000000D02*
X119000000Y-128000000D01*
X125420000Y-123080000D02*
X120500000Y-128000000D01*
X145000000Y-123080000D02*
X125420000Y-123080000D01*
X119000000Y-128000000D02*
X117000000Y-130000000D01*
%TO.N,Net-(U1B--)*%
X160000000Y-130540000D02*
X160000000Y-133160000D01*
X160000000Y-130540000D02*
X164000000Y-130540000D01*
X160000000Y-129500000D02*
X160000000Y-130540000D01*
X153580000Y-123080000D02*
X160000000Y-129500000D01*
X160000000Y-139000000D02*
X160000000Y-133160000D01*
X152620000Y-123080000D02*
X153580000Y-123080000D01*
%TO.N,/OUT_B*%
X164000000Y-125540000D02*
X160000000Y-125540000D01*
X155171700Y-120711700D02*
X155171700Y-120540000D01*
X174000000Y-135000000D02*
X164540000Y-125540000D01*
X160000000Y-125540000D02*
X155171700Y-120711700D01*
X152620000Y-120540000D02*
X155171700Y-120540000D01*
X164540000Y-125540000D02*
X164000000Y-125540000D01*
%TO.N,Net-(C5-Pad1)*%
X167620000Y-139000000D02*
X171000000Y-139000000D01*
%TD*%
%TA.AperFunction,Conductor*%
%TO.N,GND*%
G36*
X184223798Y-100520028D02*
G01*
X184335026Y-100576702D01*
X184423298Y-100664974D01*
X184479972Y-100776202D01*
X184499500Y-100899500D01*
X184499500Y-144100500D01*
X184479972Y-144223798D01*
X184423298Y-144335026D01*
X184335026Y-144423298D01*
X184223798Y-144479972D01*
X184100500Y-144499500D01*
X100899500Y-144499500D01*
X100776202Y-144479972D01*
X100664974Y-144423298D01*
X100576702Y-144335026D01*
X100520028Y-144223798D01*
X100500500Y-144100500D01*
X100500500Y-136832728D01*
X104874378Y-136832728D01*
X105047032Y-136932410D01*
X105307423Y-137040268D01*
X105579659Y-137113213D01*
X105859088Y-137150000D01*
X106140912Y-137150000D01*
X106420340Y-137113213D01*
X106692576Y-137040268D01*
X106952967Y-136932410D01*
X107125620Y-136832728D01*
X105999999Y-135707107D01*
X104874378Y-136832728D01*
X100500500Y-136832728D01*
X100500500Y-134859087D01*
X103850000Y-134859087D01*
X103850000Y-135140912D01*
X103886786Y-135420340D01*
X103959731Y-135692576D01*
X104067589Y-135952967D01*
X104167270Y-136125620D01*
X105292891Y-134999999D01*
X105228873Y-134935981D01*
X105350000Y-134935981D01*
X105350000Y-135064019D01*
X105374979Y-135189598D01*
X105423978Y-135307890D01*
X105495112Y-135414351D01*
X105585649Y-135504888D01*
X105692110Y-135576022D01*
X105810402Y-135625021D01*
X105935981Y-135650000D01*
X106064019Y-135650000D01*
X106189598Y-135625021D01*
X106307890Y-135576022D01*
X106414351Y-135504888D01*
X106504888Y-135414351D01*
X106576022Y-135307890D01*
X106625021Y-135189598D01*
X106650000Y-135064019D01*
X106650000Y-134999999D01*
X106707107Y-134999999D01*
X107832728Y-136125620D01*
X107932410Y-135952967D01*
X108040268Y-135692576D01*
X108113213Y-135420340D01*
X108150000Y-135140912D01*
X108150000Y-134859087D01*
X108113213Y-134579659D01*
X108040268Y-134307423D01*
X107932410Y-134047032D01*
X107832728Y-133874378D01*
X106707107Y-134999999D01*
X106650000Y-134999999D01*
X106650000Y-134935981D01*
X106625021Y-134810402D01*
X106576022Y-134692110D01*
X106504888Y-134585649D01*
X106414351Y-134495112D01*
X106307890Y-134423978D01*
X106189598Y-134374979D01*
X106064019Y-134350000D01*
X105935981Y-134350000D01*
X105810402Y-134374979D01*
X105692110Y-134423978D01*
X105585649Y-134495112D01*
X105495112Y-134585649D01*
X105423978Y-134692110D01*
X105374979Y-134810402D01*
X105350000Y-134935981D01*
X105228873Y-134935981D01*
X104167270Y-133874378D01*
X104067584Y-134047041D01*
X104067582Y-134047044D01*
X103959733Y-134307417D01*
X103886786Y-134579659D01*
X103850000Y-134859087D01*
X100500500Y-134859087D01*
X100500500Y-128865946D01*
X103849500Y-128865946D01*
X103849500Y-131134053D01*
X103852311Y-131181238D01*
X103852311Y-131181241D01*
X103852312Y-131181245D01*
X103894654Y-131375888D01*
X103896988Y-131386616D01*
X103958209Y-131529578D01*
X103979721Y-131579813D01*
X104097523Y-131753865D01*
X104246135Y-131902477D01*
X104420187Y-132020279D01*
X104613388Y-132103013D01*
X104818755Y-132147688D01*
X104865962Y-132150500D01*
X104865976Y-132150500D01*
X105296810Y-132150500D01*
X105420108Y-132170028D01*
X105531336Y-132226702D01*
X105619608Y-132314974D01*
X105676282Y-132426202D01*
X105695810Y-132549500D01*
X105676282Y-132672798D01*
X105619608Y-132784026D01*
X105531336Y-132872298D01*
X105420108Y-132928972D01*
X105400079Y-132934904D01*
X105307422Y-132959731D01*
X105047044Y-133067582D01*
X105047041Y-133067584D01*
X104874378Y-133167270D01*
X105999999Y-134292891D01*
X107125620Y-133167270D01*
X106952967Y-133067589D01*
X106692571Y-132959729D01*
X106599921Y-132934904D01*
X106485879Y-132884130D01*
X106393109Y-132800599D01*
X106330692Y-132692489D01*
X106304737Y-132570382D01*
X106317786Y-132446231D01*
X106368560Y-132332189D01*
X106452091Y-132239419D01*
X106560201Y-132177002D01*
X106682308Y-132151047D01*
X106703190Y-132150500D01*
X107134024Y-132150500D01*
X107134038Y-132150500D01*
X107181245Y-132147688D01*
X107386612Y-132103013D01*
X107579813Y-132020279D01*
X107753865Y-131902477D01*
X107902477Y-131753865D01*
X108020279Y-131579813D01*
X108020279Y-131579811D01*
X108020284Y-131579805D01*
X108029388Y-131563133D01*
X108032308Y-131564727D01*
X108081375Y-131486765D01*
X108177261Y-131406831D01*
X108293156Y-131360440D01*
X108381660Y-131350500D01*
X109393713Y-131350500D01*
X113047006Y-131350500D01*
X113170304Y-131370028D01*
X113270649Y-131419069D01*
X113420183Y-131520277D01*
X113420185Y-131520278D01*
X113420187Y-131520279D01*
X113520260Y-131563133D01*
X113559192Y-131579805D01*
X113613388Y-131603013D01*
X113818755Y-131647688D01*
X113865962Y-131650500D01*
X113865976Y-131650500D01*
X115134024Y-131650500D01*
X115134038Y-131650500D01*
X115181245Y-131647688D01*
X115386612Y-131603013D01*
X115579813Y-131520279D01*
X115714937Y-131428823D01*
X115827987Y-131375888D01*
X115951867Y-131360477D01*
X116074446Y-131384102D01*
X116120169Y-131406109D01*
X116120981Y-131404517D01*
X116134949Y-131411634D01*
X116366428Y-131529579D01*
X116613507Y-131609860D01*
X116870103Y-131650500D01*
X116870106Y-131650500D01*
X117129894Y-131650500D01*
X117129897Y-131650500D01*
X117386493Y-131609860D01*
X117633572Y-131529579D01*
X117865051Y-131411634D01*
X118075229Y-131258931D01*
X118258931Y-131075229D01*
X118411634Y-130865051D01*
X118529579Y-130633572D01*
X118609860Y-130386493D01*
X118609861Y-130386487D01*
X118610903Y-130382148D01*
X118612611Y-130378023D01*
X118614704Y-130371583D01*
X118615210Y-130371747D01*
X118658673Y-130266815D01*
X118716740Y-130193154D01*
X119339418Y-129570476D01*
X119440409Y-129497103D01*
X119559134Y-129458527D01*
X119683968Y-129458527D01*
X119802686Y-129497100D01*
X119866428Y-129529579D01*
X120113507Y-129609860D01*
X120370103Y-129650500D01*
X120370106Y-129650500D01*
X120629894Y-129650500D01*
X120629897Y-129650500D01*
X120886493Y-129609860D01*
X121133572Y-129529579D01*
X121365051Y-129411634D01*
X121575229Y-129258931D01*
X121758931Y-129075229D01*
X121911634Y-128865051D01*
X122029579Y-128633572D01*
X122109860Y-128386493D01*
X122109861Y-128386481D01*
X122110902Y-128382151D01*
X122112610Y-128378025D01*
X122114704Y-128371583D01*
X122115210Y-128371747D01*
X122158671Y-128266818D01*
X122216740Y-128193153D01*
X124289894Y-126120000D01*
X143027546Y-126120000D01*
X143070881Y-126253369D01*
X143070886Y-126253382D01*
X143188790Y-126484780D01*
X143188793Y-126484785D01*
X143341447Y-126694898D01*
X143525101Y-126878552D01*
X143735214Y-127031206D01*
X143735219Y-127031209D01*
X143966615Y-127149112D01*
X143966620Y-127149114D01*
X144213622Y-127229370D01*
X144470145Y-127270000D01*
X144499999Y-127270000D01*
X144500000Y-127269999D01*
X144500000Y-126120001D01*
X145500000Y-126120001D01*
X145500000Y-127269999D01*
X145500001Y-127270000D01*
X145529855Y-127270000D01*
X145786377Y-127229370D01*
X146033379Y-127149114D01*
X146033384Y-127149112D01*
X146264780Y-127031209D01*
X146264785Y-127031206D01*
X146474898Y-126878552D01*
X146658552Y-126694898D01*
X146811206Y-126484785D01*
X146811209Y-126484780D01*
X146929113Y-126253382D01*
X146929118Y-126253369D01*
X146972453Y-126120000D01*
X145500001Y-126120000D01*
X145500000Y-126120001D01*
X144500000Y-126120001D01*
X144499999Y-126120000D01*
X143027546Y-126120000D01*
X124289894Y-126120000D01*
X124842555Y-125567339D01*
X144600000Y-125567339D01*
X144600000Y-125672661D01*
X144627259Y-125774394D01*
X144679920Y-125865606D01*
X144754394Y-125940080D01*
X144845606Y-125992741D01*
X144947339Y-126020000D01*
X145052661Y-126020000D01*
X145154394Y-125992741D01*
X145245606Y-125940080D01*
X145320080Y-125865606D01*
X145372741Y-125774394D01*
X145400000Y-125672661D01*
X145400000Y-125567339D01*
X145372741Y-125465606D01*
X145320080Y-125374394D01*
X145245606Y-125299920D01*
X145154394Y-125247259D01*
X145052661Y-125220000D01*
X144947339Y-125220000D01*
X144845606Y-125247259D01*
X144754394Y-125299920D01*
X144679920Y-125374394D01*
X144627259Y-125465606D01*
X144600000Y-125567339D01*
X124842555Y-125567339D01*
X125539751Y-124870144D01*
X125862532Y-124547364D01*
X125963525Y-124473988D01*
X126082250Y-124435412D01*
X126144667Y-124430500D01*
X142704092Y-124430500D01*
X142827390Y-124450028D01*
X142938618Y-124506702D01*
X143026890Y-124594974D01*
X143083564Y-124706202D01*
X143103092Y-124829500D01*
X143083564Y-124952798D01*
X143072717Y-124982197D01*
X143070882Y-124986624D01*
X143027546Y-125119999D01*
X143027547Y-125120000D01*
X146972453Y-125120000D01*
X146972453Y-125119999D01*
X146929118Y-124986630D01*
X146929113Y-124986617D01*
X146811209Y-124755219D01*
X146811202Y-124755207D01*
X146687504Y-124584949D01*
X146630831Y-124473721D01*
X146611303Y-124350423D01*
X146630832Y-124227125D01*
X146687504Y-124115900D01*
X146811634Y-123945051D01*
X146929579Y-123713572D01*
X147009860Y-123466493D01*
X147050500Y-123209897D01*
X147050500Y-122950103D01*
X147009860Y-122693507D01*
X146929579Y-122446428D01*
X146811634Y-122214949D01*
X146687814Y-122044525D01*
X146631141Y-121933298D01*
X146611612Y-121810001D01*
X146631140Y-121686703D01*
X146687812Y-121575476D01*
X146811634Y-121405051D01*
X146811635Y-121405048D01*
X146819746Y-121393885D01*
X146908018Y-121305613D01*
X147019246Y-121248940D01*
X147142544Y-121229411D01*
X147265842Y-121248939D01*
X147377070Y-121305613D01*
X147424680Y-121346275D01*
X148600936Y-122522531D01*
X148674312Y-122623525D01*
X148712888Y-122742250D01*
X148717800Y-122804667D01*
X148717800Y-125513713D01*
X148717800Y-125726287D01*
X148733239Y-125823765D01*
X148751055Y-125936248D01*
X148816742Y-126138410D01*
X148913249Y-126327817D01*
X149027289Y-126484780D01*
X149038196Y-126499792D01*
X149188508Y-126650104D01*
X149188511Y-126650106D01*
X149360482Y-126775050D01*
X149360484Y-126775051D01*
X149549888Y-126871557D01*
X149752057Y-126937246D01*
X149962013Y-126970500D01*
X151142659Y-126970500D01*
X151265957Y-126990028D01*
X151340939Y-127024597D01*
X151340981Y-127024517D01*
X151343034Y-127025563D01*
X151351146Y-127029303D01*
X151354945Y-127031631D01*
X151354949Y-127031634D01*
X151586428Y-127149579D01*
X151833507Y-127229860D01*
X152090103Y-127270500D01*
X152090106Y-127270500D01*
X153149894Y-127270500D01*
X153149897Y-127270500D01*
X153406493Y-127229860D01*
X153653572Y-127149579D01*
X153885051Y-127031634D01*
X154095229Y-126878931D01*
X154278931Y-126695229D01*
X154427840Y-126490272D01*
X154516108Y-126402005D01*
X154627336Y-126345331D01*
X154750634Y-126325802D01*
X154873932Y-126345330D01*
X154985161Y-126402004D01*
X155032771Y-126442666D01*
X158532636Y-129942531D01*
X158606012Y-130043525D01*
X158644588Y-130162250D01*
X158649500Y-130224667D01*
X158649500Y-132082658D01*
X158629972Y-132205956D01*
X158595403Y-132280940D01*
X158595483Y-132280981D01*
X158594449Y-132283009D01*
X158590703Y-132291136D01*
X158588363Y-132294953D01*
X158470422Y-132526424D01*
X158470421Y-132526427D01*
X158390140Y-132773505D01*
X158390140Y-132773507D01*
X158349500Y-133030103D01*
X158349500Y-133289897D01*
X158364609Y-133385295D01*
X158390140Y-133546494D01*
X158470421Y-133793572D01*
X158470422Y-133793575D01*
X158588363Y-134025046D01*
X158590703Y-134028864D01*
X158592416Y-134033000D01*
X158595483Y-134039019D01*
X158595009Y-134039260D01*
X158638475Y-134144196D01*
X158649500Y-134237342D01*
X158649500Y-137922658D01*
X158629972Y-138045956D01*
X158595403Y-138120940D01*
X158595483Y-138120981D01*
X158594449Y-138123009D01*
X158590703Y-138131136D01*
X158588363Y-138134953D01*
X158470422Y-138366424D01*
X158470421Y-138366427D01*
X158390140Y-138613505D01*
X158387962Y-138627259D01*
X158356234Y-138827589D01*
X158349500Y-138870105D01*
X158349500Y-139129894D01*
X158390140Y-139386494D01*
X158470421Y-139633572D01*
X158470422Y-139633575D01*
X158533992Y-139758337D01*
X158588366Y-139865051D01*
X158741069Y-140075229D01*
X158924771Y-140258931D01*
X159096629Y-140383793D01*
X159134949Y-140411634D01*
X159240558Y-140465445D01*
X159366428Y-140529579D01*
X159613507Y-140609860D01*
X159870103Y-140650500D01*
X159870106Y-140650500D01*
X160129894Y-140650500D01*
X160129897Y-140650500D01*
X160386493Y-140609860D01*
X160633572Y-140529579D01*
X160865051Y-140411634D01*
X161075229Y-140258931D01*
X161258931Y-140075229D01*
X161411634Y-139865051D01*
X161529579Y-139633572D01*
X161609860Y-139386493D01*
X161650500Y-139129897D01*
X161650500Y-138870105D01*
X165969500Y-138870105D01*
X165969500Y-139129894D01*
X166010140Y-139386494D01*
X166090421Y-139633572D01*
X166090422Y-139633575D01*
X166153992Y-139758337D01*
X166208366Y-139865051D01*
X166361069Y-140075229D01*
X166544771Y-140258931D01*
X166716629Y-140383793D01*
X166754949Y-140411634D01*
X166860558Y-140465445D01*
X166986428Y-140529579D01*
X167233507Y-140609860D01*
X167490103Y-140650500D01*
X167490106Y-140650500D01*
X167749894Y-140650500D01*
X167749897Y-140650500D01*
X168006493Y-140609860D01*
X168253572Y-140529579D01*
X168485051Y-140411634D01*
X168485060Y-140411627D01*
X168488854Y-140409303D01*
X168492982Y-140407592D01*
X168499019Y-140404517D01*
X168499260Y-140404991D01*
X168604185Y-140361527D01*
X168697341Y-140350500D01*
X169547006Y-140350500D01*
X169670304Y-140370028D01*
X169770649Y-140419069D01*
X169920183Y-140520277D01*
X169920185Y-140520278D01*
X169920187Y-140520279D01*
X170113388Y-140603013D01*
X170318755Y-140647688D01*
X170365962Y-140650500D01*
X170365976Y-140650500D01*
X171634024Y-140650500D01*
X171634038Y-140650500D01*
X171681245Y-140647688D01*
X171886612Y-140603013D01*
X172079813Y-140520279D01*
X172215393Y-140428515D01*
X172328445Y-140375579D01*
X172452325Y-140360168D01*
X172574904Y-140383793D01*
X172620423Y-140405699D01*
X172621244Y-140404089D01*
X172866615Y-140529112D01*
X172866620Y-140529114D01*
X173113622Y-140609370D01*
X173370145Y-140650000D01*
X173629855Y-140650000D01*
X173886377Y-140609370D01*
X174133379Y-140529114D01*
X174133384Y-140529112D01*
X174258337Y-140465445D01*
X174258337Y-140465444D01*
X173428582Y-139635688D01*
X173355206Y-139534695D01*
X173316630Y-139415970D01*
X173316630Y-139356011D01*
X173345606Y-139372741D01*
X173447339Y-139400000D01*
X173552661Y-139400000D01*
X173654394Y-139372741D01*
X173745606Y-139320080D01*
X173820080Y-139245606D01*
X173872741Y-139154394D01*
X173900000Y-139052661D01*
X173900000Y-139003743D01*
X174210850Y-139003743D01*
X174965444Y-139758337D01*
X174965445Y-139758337D01*
X175029112Y-139633384D01*
X175029114Y-139633379D01*
X175109370Y-139386377D01*
X175150000Y-139129855D01*
X175150000Y-138870144D01*
X175109370Y-138613622D01*
X175029113Y-138366617D01*
X174965445Y-138241660D01*
X174965444Y-138241660D01*
X174213388Y-138993716D01*
X174210850Y-139003743D01*
X173900000Y-139003743D01*
X173900000Y-138947339D01*
X173872741Y-138845606D01*
X173820080Y-138754394D01*
X173745606Y-138679920D01*
X173654394Y-138627259D01*
X173552661Y-138600000D01*
X173447339Y-138600000D01*
X173345606Y-138627259D01*
X173316629Y-138643988D01*
X173316629Y-138584030D01*
X173355205Y-138465305D01*
X173428580Y-138364311D01*
X173428581Y-138364310D01*
X174258337Y-137534553D01*
X174133382Y-137470886D01*
X174039488Y-137440378D01*
X173359393Y-137351702D01*
X173113622Y-137390629D01*
X172866620Y-137470885D01*
X172866615Y-137470887D01*
X172621244Y-137595911D01*
X172619668Y-137592818D01*
X172531850Y-137629107D01*
X172407392Y-137638795D01*
X172286031Y-137609550D01*
X172215392Y-137571483D01*
X172079816Y-137479722D01*
X171886616Y-137396988D01*
X171886612Y-137396987D01*
X171681245Y-137352312D01*
X171681238Y-137352311D01*
X171681240Y-137352311D01*
X171634053Y-137349500D01*
X171634038Y-137349500D01*
X170365962Y-137349500D01*
X170365946Y-137349500D01*
X170318761Y-137352311D01*
X170318756Y-137352311D01*
X170318755Y-137352312D01*
X170159217Y-137387017D01*
X170113383Y-137396988D01*
X169920183Y-137479722D01*
X169770649Y-137580931D01*
X169657595Y-137633868D01*
X169547006Y-137649500D01*
X168697341Y-137649500D01*
X168574043Y-137629972D01*
X168499060Y-137595402D01*
X168499019Y-137595483D01*
X168496965Y-137594436D01*
X168488854Y-137590697D01*
X168485046Y-137588363D01*
X168253575Y-137470422D01*
X168253572Y-137470421D01*
X168006494Y-137390140D01*
X167942344Y-137379980D01*
X167749897Y-137349500D01*
X167490103Y-137349500D01*
X167336145Y-137373884D01*
X167233505Y-137390140D01*
X166986427Y-137470421D01*
X166986424Y-137470422D01*
X166754949Y-137588365D01*
X166544773Y-137741067D01*
X166361067Y-137924773D01*
X166208365Y-138134949D01*
X166090422Y-138366424D01*
X166090421Y-138366427D01*
X166010140Y-138613505D01*
X166007962Y-138627259D01*
X165976234Y-138827589D01*
X165969500Y-138870105D01*
X161650500Y-138870105D01*
X161650500Y-138870103D01*
X161609860Y-138613507D01*
X161529579Y-138366428D01*
X161411634Y-138134949D01*
X161411631Y-138134945D01*
X161409297Y-138131136D01*
X161407583Y-138126999D01*
X161404517Y-138120981D01*
X161404990Y-138120739D01*
X161361525Y-138015804D01*
X161350500Y-137922658D01*
X161350500Y-134237342D01*
X161370028Y-134114044D01*
X161404596Y-134039059D01*
X161404517Y-134039019D01*
X161405550Y-134036990D01*
X161409297Y-134028864D01*
X161411627Y-134025060D01*
X161411634Y-134025051D01*
X161529579Y-133793572D01*
X161609860Y-133546493D01*
X161650500Y-133289897D01*
X161650500Y-133030103D01*
X161609860Y-132773507D01*
X161529579Y-132526428D01*
X161529576Y-132526423D01*
X161529575Y-132526419D01*
X161501155Y-132470642D01*
X161462578Y-132351918D01*
X161462578Y-132227083D01*
X161501154Y-132108358D01*
X161574530Y-132007365D01*
X161675524Y-131933989D01*
X161794248Y-131895412D01*
X161856666Y-131890500D01*
X162922659Y-131890500D01*
X163045957Y-131910028D01*
X163120939Y-131944597D01*
X163120981Y-131944517D01*
X163123034Y-131945563D01*
X163131146Y-131949303D01*
X163134945Y-131951631D01*
X163134949Y-131951634D01*
X163366428Y-132069579D01*
X163613507Y-132149860D01*
X163870103Y-132190500D01*
X163870106Y-132190500D01*
X164129894Y-132190500D01*
X164129897Y-132190500D01*
X164386493Y-132149860D01*
X164633572Y-132069579D01*
X164865051Y-131951634D01*
X165075229Y-131798931D01*
X165258931Y-131615229D01*
X165411634Y-131405051D01*
X165529579Y-131173572D01*
X165609860Y-130926493D01*
X165650500Y-130669897D01*
X165650500Y-130410103D01*
X165609860Y-130153507D01*
X165529579Y-129906428D01*
X165411634Y-129674949D01*
X165258931Y-129464771D01*
X165075229Y-129281069D01*
X164941290Y-129183757D01*
X164865050Y-129128365D01*
X164633575Y-129010422D01*
X164633572Y-129010421D01*
X164386494Y-128930140D01*
X164322344Y-128919980D01*
X164129897Y-128889500D01*
X163870103Y-128889500D01*
X163743333Y-128909578D01*
X163613505Y-128930140D01*
X163366427Y-129010421D01*
X163366424Y-129010422D01*
X163134953Y-129128363D01*
X163131146Y-129130697D01*
X163127017Y-129132407D01*
X163120981Y-129135483D01*
X163120739Y-129135008D01*
X163015815Y-129178473D01*
X162922659Y-129189500D01*
X161602001Y-129189500D01*
X161478703Y-129169972D01*
X161367475Y-129113298D01*
X161279203Y-129025026D01*
X161246489Y-128971642D01*
X161214866Y-128909579D01*
X161155051Y-128792184D01*
X161154651Y-128791634D01*
X161043389Y-128638493D01*
X161030104Y-128620208D01*
X160879792Y-128469896D01*
X160879788Y-128469893D01*
X160222905Y-127813010D01*
X160149529Y-127712016D01*
X160110953Y-127593291D01*
X160110953Y-127468457D01*
X160149529Y-127349732D01*
X160222905Y-127248738D01*
X160323899Y-127175362D01*
X160381744Y-127151402D01*
X160386486Y-127149860D01*
X160386493Y-127149860D01*
X160633572Y-127069579D01*
X160865051Y-126951634D01*
X160865060Y-126951627D01*
X160868854Y-126949303D01*
X160872982Y-126947592D01*
X160879019Y-126944517D01*
X160879260Y-126944991D01*
X160984185Y-126901527D01*
X161077341Y-126890500D01*
X162922659Y-126890500D01*
X163045957Y-126910028D01*
X163120939Y-126944597D01*
X163120981Y-126944517D01*
X163123034Y-126945563D01*
X163131146Y-126949303D01*
X163134945Y-126951631D01*
X163134949Y-126951634D01*
X163366428Y-127069579D01*
X163613507Y-127149860D01*
X163870103Y-127190500D01*
X163870106Y-127190500D01*
X164115333Y-127190500D01*
X164238631Y-127210028D01*
X164349859Y-127266702D01*
X164397468Y-127307363D01*
X168343969Y-131253865D01*
X172283255Y-135193151D01*
X172356631Y-135294145D01*
X172385211Y-135371611D01*
X172385295Y-135371584D01*
X172385987Y-135373715D01*
X172389092Y-135382130D01*
X172390140Y-135386497D01*
X172470417Y-135633561D01*
X172470422Y-135633575D01*
X172500485Y-135692576D01*
X172588366Y-135865051D01*
X172741069Y-136075229D01*
X172924771Y-136258931D01*
X173134949Y-136411634D01*
X173366428Y-136529579D01*
X173613507Y-136609860D01*
X173870103Y-136650500D01*
X174129897Y-136650500D01*
X174386493Y-136609860D01*
X174633572Y-136529579D01*
X174865051Y-136411634D01*
X175075229Y-136258931D01*
X175258931Y-136075229D01*
X175411634Y-135865051D01*
X175529579Y-135633572D01*
X175609860Y-135386493D01*
X175650500Y-135129897D01*
X175650500Y-134870103D01*
X175609860Y-134613507D01*
X175529579Y-134366428D01*
X175521208Y-134350000D01*
X175411634Y-134134949D01*
X175347765Y-134047041D01*
X175258931Y-133924771D01*
X175075229Y-133741069D01*
X174865051Y-133588366D01*
X174865052Y-133588366D01*
X174865050Y-133588365D01*
X174633575Y-133470422D01*
X174633561Y-133470417D01*
X174386497Y-133390140D01*
X174382130Y-133389092D01*
X174377983Y-133387374D01*
X174371584Y-133385295D01*
X174371747Y-133384791D01*
X174266799Y-133341316D01*
X174193151Y-133283255D01*
X165570106Y-124660211D01*
X165570104Y-124660208D01*
X165419792Y-124509896D01*
X165415396Y-124506702D01*
X165247817Y-124384949D01*
X165163575Y-124342026D01*
X165085588Y-124289916D01*
X165075234Y-124281072D01*
X164865050Y-124128365D01*
X164633575Y-124010422D01*
X164633572Y-124010421D01*
X164386494Y-123930140D01*
X164322344Y-123919980D01*
X164129897Y-123889500D01*
X163870103Y-123889500D01*
X163758272Y-123907212D01*
X163613505Y-123930140D01*
X163366427Y-124010421D01*
X163366424Y-124010422D01*
X163134953Y-124128363D01*
X163131146Y-124130697D01*
X163127017Y-124132407D01*
X163120981Y-124135483D01*
X163120739Y-124135008D01*
X163015815Y-124178473D01*
X162922659Y-124189500D01*
X161077341Y-124189500D01*
X160954043Y-124169972D01*
X160879060Y-124135402D01*
X160879019Y-124135483D01*
X160876965Y-124134436D01*
X160868854Y-124130697D01*
X160865046Y-124128363D01*
X160633575Y-124010422D01*
X160633561Y-124010417D01*
X160386497Y-123930140D01*
X160382130Y-123929092D01*
X160377983Y-123927374D01*
X160371584Y-123925295D01*
X160371747Y-123924791D01*
X160266799Y-123881316D01*
X160193151Y-123823255D01*
X156500948Y-120131052D01*
X156427572Y-120030058D01*
X156427572Y-120030057D01*
X156326751Y-119832184D01*
X156308342Y-119806846D01*
X156201804Y-119660208D01*
X156093728Y-119552132D01*
X156020355Y-119451142D01*
X155981779Y-119332417D01*
X155981779Y-119207583D01*
X156020355Y-119088858D01*
X156093728Y-118987867D01*
X156201804Y-118879792D01*
X156326751Y-118707816D01*
X156423257Y-118518412D01*
X156488946Y-118316243D01*
X156522200Y-118106287D01*
X156522200Y-115674482D01*
X156522201Y-115674457D01*
X156522201Y-115445412D01*
X156522200Y-115445409D01*
X156516850Y-115411634D01*
X156488946Y-115235457D01*
X156423257Y-115033288D01*
X156423256Y-115033286D01*
X156421736Y-115029615D01*
X156420808Y-115025751D01*
X156418413Y-115018379D01*
X156418993Y-115018190D01*
X156392594Y-114908229D01*
X156402389Y-114783779D01*
X156450161Y-114668447D01*
X156531235Y-114573522D01*
X156637674Y-114508297D01*
X156759060Y-114479155D01*
X156883510Y-114488950D01*
X156971511Y-114521416D01*
X156986618Y-114529113D01*
X156986620Y-114529114D01*
X157233622Y-114609370D01*
X157490145Y-114650000D01*
X157749855Y-114650000D01*
X158006377Y-114609370D01*
X158253379Y-114529114D01*
X158253384Y-114529112D01*
X158378337Y-114465445D01*
X158378337Y-114465444D01*
X157548582Y-113635688D01*
X157475206Y-113534695D01*
X157436630Y-113415970D01*
X157436630Y-113356011D01*
X157465606Y-113372741D01*
X157567339Y-113400000D01*
X157672661Y-113400000D01*
X157774394Y-113372741D01*
X157865606Y-113320080D01*
X157940080Y-113245606D01*
X157992741Y-113154394D01*
X158020000Y-113052661D01*
X158020000Y-113003743D01*
X158330850Y-113003743D01*
X159085444Y-113758337D01*
X159085445Y-113758337D01*
X159149112Y-113633384D01*
X159149114Y-113633379D01*
X159229370Y-113386377D01*
X159270000Y-113129855D01*
X159270000Y-112870144D01*
X159229370Y-112613622D01*
X159149113Y-112366617D01*
X159085445Y-112241660D01*
X159085444Y-112241660D01*
X158333388Y-112993716D01*
X158330850Y-113003743D01*
X158020000Y-113003743D01*
X158020000Y-112947339D01*
X157992741Y-112845606D01*
X157940080Y-112754394D01*
X157865606Y-112679920D01*
X157774394Y-112627259D01*
X157672661Y-112600000D01*
X157567339Y-112600000D01*
X157465606Y-112627259D01*
X157436629Y-112643988D01*
X157436629Y-112584030D01*
X157475205Y-112465305D01*
X157548580Y-112364311D01*
X157548581Y-112364310D01*
X158378337Y-111534553D01*
X158253382Y-111470886D01*
X158006377Y-111390629D01*
X157749855Y-111350000D01*
X157490145Y-111350000D01*
X157233620Y-111390630D01*
X157233614Y-111390631D01*
X157193156Y-111403777D01*
X157069858Y-111423305D01*
X156946561Y-111403776D01*
X156835332Y-111347101D01*
X156747062Y-111258829D01*
X156690389Y-111147600D01*
X156670861Y-111024302D01*
X156690390Y-110901005D01*
X156747065Y-110789776D01*
X156787719Y-110742175D01*
X159522531Y-108007364D01*
X159623525Y-107933988D01*
X159742250Y-107895412D01*
X159804667Y-107890500D01*
X176054953Y-107890500D01*
X176178251Y-107910028D01*
X176289479Y-107966702D01*
X176377751Y-108054974D01*
X176434425Y-108166202D01*
X176453953Y-108289500D01*
X176434425Y-108412798D01*
X176423580Y-108442192D01*
X176386292Y-108532210D01*
X176386292Y-108532211D01*
X176328595Y-108747540D01*
X176314660Y-108853388D01*
X176299500Y-108968543D01*
X176299500Y-109191457D01*
X176313575Y-109298364D01*
X176328486Y-109411634D01*
X176328596Y-109412463D01*
X176386290Y-109627781D01*
X176471595Y-109833726D01*
X176471597Y-109833730D01*
X176471599Y-109833734D01*
X176583052Y-110026774D01*
X176709887Y-110192070D01*
X176769452Y-110301778D01*
X176792201Y-110424522D01*
X176775907Y-110548289D01*
X176722163Y-110660962D01*
X176636233Y-110751514D01*
X176526525Y-110811079D01*
X176500420Y-110817346D01*
X176472045Y-110866496D01*
X176472045Y-110866497D01*
X176386763Y-111072382D01*
X176329086Y-111287637D01*
X176300000Y-111508581D01*
X176300000Y-111731418D01*
X176329086Y-111952362D01*
X176386763Y-112167620D01*
X176472042Y-112373498D01*
X176472049Y-112373512D01*
X176496693Y-112416197D01*
X177364310Y-111548581D01*
X177465304Y-111475205D01*
X177526486Y-111455325D01*
X177500000Y-111554174D01*
X177500000Y-111685826D01*
X177534075Y-111812993D01*
X177599901Y-111927007D01*
X177692993Y-112020099D01*
X177807007Y-112085925D01*
X177934174Y-112120000D01*
X178065826Y-112120000D01*
X178164671Y-112093513D01*
X178144793Y-112154694D01*
X178071417Y-112255687D01*
X177203801Y-113123304D01*
X177203801Y-113123305D01*
X177246494Y-113147954D01*
X177452386Y-113233237D01*
X177667639Y-113290913D01*
X177667635Y-113290913D01*
X177888581Y-113320000D01*
X178111419Y-113320000D01*
X178332363Y-113290913D01*
X178372027Y-113280285D01*
X178496178Y-113267235D01*
X178618285Y-113293188D01*
X178726396Y-113355604D01*
X178809927Y-113448374D01*
X178860703Y-113562415D01*
X178874300Y-113665688D01*
X178874300Y-117050532D01*
X178854772Y-117173830D01*
X178798098Y-117285058D01*
X178757435Y-117332668D01*
X177806847Y-118283255D01*
X177705854Y-118356631D01*
X177628388Y-118385211D01*
X177628416Y-118385295D01*
X177626285Y-118385987D01*
X177617873Y-118389091D01*
X177613505Y-118390139D01*
X177366438Y-118470417D01*
X177366424Y-118470422D01*
X177134949Y-118588365D01*
X176924773Y-118741067D01*
X176741067Y-118924773D01*
X176588365Y-119134949D01*
X176470422Y-119366424D01*
X176470417Y-119366438D01*
X176390140Y-119613502D01*
X176389094Y-119617862D01*
X176387378Y-119622002D01*
X176385295Y-119628416D01*
X176384790Y-119628251D01*
X176341320Y-119733193D01*
X176283256Y-119806846D01*
X173120211Y-122969893D01*
X173120208Y-122969896D01*
X173120207Y-122969895D01*
X172969898Y-123120205D01*
X172969894Y-123120210D01*
X172844949Y-123292182D01*
X172748442Y-123481589D01*
X172682755Y-123683751D01*
X172682754Y-123683756D01*
X172682754Y-123683757D01*
X172650168Y-123889500D01*
X172649500Y-123893715D01*
X172649500Y-126302658D01*
X172629972Y-126425956D01*
X172595403Y-126500940D01*
X172595483Y-126500981D01*
X172594449Y-126503009D01*
X172590703Y-126511136D01*
X172588363Y-126514953D01*
X172470422Y-126746424D01*
X172470421Y-126746427D01*
X172390140Y-126993505D01*
X172369820Y-127121805D01*
X172349717Y-127248738D01*
X172349500Y-127250105D01*
X172349500Y-127509894D01*
X172390140Y-127766494D01*
X172470421Y-128013572D01*
X172470422Y-128013575D01*
X172588365Y-128245050D01*
X172666295Y-128352311D01*
X172741069Y-128455229D01*
X172924771Y-128638931D01*
X173134949Y-128791634D01*
X173366428Y-128909579D01*
X173613507Y-128989860D01*
X173870103Y-129030500D01*
X173870106Y-129030500D01*
X174129894Y-129030500D01*
X174129897Y-129030500D01*
X174386493Y-128989860D01*
X174633572Y-128909579D01*
X174865051Y-128791634D01*
X175075229Y-128638931D01*
X175258931Y-128455229D01*
X175411634Y-128245051D01*
X175529579Y-128013572D01*
X175609860Y-127766493D01*
X175650500Y-127509897D01*
X175650500Y-127250103D01*
X175609860Y-126993507D01*
X175529579Y-126746428D01*
X175411634Y-126514949D01*
X175410457Y-126513329D01*
X175404684Y-126503413D01*
X175389950Y-126465445D01*
X177241660Y-126465445D01*
X177366617Y-126529113D01*
X177613622Y-126609370D01*
X177870145Y-126650000D01*
X178129855Y-126650000D01*
X178386377Y-126609370D01*
X178633379Y-126529114D01*
X178633384Y-126529112D01*
X178758337Y-126465445D01*
X178758337Y-126465444D01*
X178000000Y-125707107D01*
X177241661Y-126465445D01*
X177241660Y-126465445D01*
X175389950Y-126465445D01*
X175383709Y-126449363D01*
X175361525Y-126395804D01*
X175360910Y-126390608D01*
X175359523Y-126387034D01*
X175358655Y-126371564D01*
X175350500Y-126302658D01*
X175350500Y-124724667D01*
X175370028Y-124601369D01*
X175426702Y-124490141D01*
X175467364Y-124442532D01*
X175742169Y-124167726D01*
X175843162Y-124094350D01*
X175961887Y-124055773D01*
X176086722Y-124055773D01*
X176205447Y-124094349D01*
X176306440Y-124167725D01*
X176379816Y-124268718D01*
X176418393Y-124387443D01*
X176418393Y-124512278D01*
X176403777Y-124573156D01*
X176390631Y-124613614D01*
X176390630Y-124613620D01*
X176350000Y-124870144D01*
X176350000Y-125129855D01*
X176390629Y-125386377D01*
X176470886Y-125633382D01*
X176534553Y-125758337D01*
X176534554Y-125758337D01*
X177345554Y-124947339D01*
X177600000Y-124947339D01*
X177600000Y-125052661D01*
X177627259Y-125154394D01*
X177679920Y-125245606D01*
X177754394Y-125320080D01*
X177845606Y-125372741D01*
X177947339Y-125400000D01*
X178052661Y-125400000D01*
X178154394Y-125372741D01*
X178245606Y-125320080D01*
X178320080Y-125245606D01*
X178372741Y-125154394D01*
X178400000Y-125052661D01*
X178400000Y-125000000D01*
X178707107Y-125000000D01*
X179465444Y-125758337D01*
X179465445Y-125758337D01*
X179529112Y-125633384D01*
X179529114Y-125633379D01*
X179609370Y-125386377D01*
X179650000Y-125129855D01*
X179650000Y-124870144D01*
X179609370Y-124613622D01*
X179529113Y-124366617D01*
X179465445Y-124241661D01*
X178707107Y-125000000D01*
X178400000Y-125000000D01*
X178400000Y-124947339D01*
X178372741Y-124845606D01*
X178320080Y-124754394D01*
X178245606Y-124679920D01*
X178154394Y-124627259D01*
X178052661Y-124600000D01*
X177947339Y-124600000D01*
X177845606Y-124627259D01*
X177754394Y-124679920D01*
X177679920Y-124754394D01*
X177627259Y-124845606D01*
X177600000Y-124947339D01*
X177345554Y-124947339D01*
X177646447Y-124646447D01*
X177740304Y-124552590D01*
X178758337Y-123534554D01*
X178758337Y-123534553D01*
X178633382Y-123470886D01*
X178386377Y-123390629D01*
X178129855Y-123350000D01*
X177870145Y-123350000D01*
X177613620Y-123390630D01*
X177613614Y-123390631D01*
X177573156Y-123403777D01*
X177449858Y-123423305D01*
X177326561Y-123403776D01*
X177215332Y-123347101D01*
X177127062Y-123258829D01*
X177070389Y-123147600D01*
X177050861Y-123024302D01*
X177070390Y-122901005D01*
X177127065Y-122789776D01*
X177167719Y-122742175D01*
X178193153Y-121716741D01*
X178294144Y-121643368D01*
X178371610Y-121614790D01*
X178371583Y-121614704D01*
X178373776Y-121613991D01*
X178382148Y-121610903D01*
X178386487Y-121609861D01*
X178386487Y-121609860D01*
X178386493Y-121609860D01*
X178633572Y-121529579D01*
X178865051Y-121411634D01*
X179075229Y-121258931D01*
X179258931Y-121075229D01*
X179411634Y-120865051D01*
X179529579Y-120633572D01*
X179609860Y-120386493D01*
X179609861Y-120386487D01*
X179610903Y-120382148D01*
X179612611Y-120378023D01*
X179614704Y-120371583D01*
X179615210Y-120371747D01*
X179658673Y-120266815D01*
X179716740Y-120193154D01*
X181254904Y-118654992D01*
X181379851Y-118483016D01*
X181476357Y-118293612D01*
X181542046Y-118091443D01*
X181575300Y-117881487D01*
X181575300Y-117668914D01*
X181575300Y-110848582D01*
X181575301Y-110848557D01*
X181575301Y-110619512D01*
X181575300Y-110619509D01*
X181542047Y-110409563D01*
X181542046Y-110409562D01*
X181542046Y-110409557D01*
X181476357Y-110207388D01*
X181379851Y-110017984D01*
X181337572Y-109959792D01*
X181254904Y-109846008D01*
X181104592Y-109695696D01*
X181104588Y-109695693D01*
X179609106Y-108200211D01*
X179609104Y-108200208D01*
X179458792Y-108049896D01*
X179458788Y-108049893D01*
X179447706Y-108038811D01*
X179448814Y-108037702D01*
X179379333Y-107956354D01*
X179331558Y-107841023D01*
X179321760Y-107716573D01*
X179350899Y-107595187D01*
X179402984Y-107504971D01*
X179416948Y-107486774D01*
X179528405Y-107293726D01*
X179613710Y-107087781D01*
X179671404Y-106872463D01*
X179700500Y-106651457D01*
X179700500Y-106428543D01*
X179671404Y-106207537D01*
X179613710Y-105992219D01*
X179528405Y-105786274D01*
X179522951Y-105776828D01*
X179478213Y-105660290D01*
X179471675Y-105535627D01*
X179503981Y-105415045D01*
X179557507Y-105327341D01*
X179570842Y-105310753D01*
X179653037Y-105145021D01*
X179697683Y-104965495D01*
X179700500Y-104923954D01*
X179700500Y-103076046D01*
X179697683Y-103034505D01*
X179653037Y-102854979D01*
X179570842Y-102689247D01*
X179570840Y-102689245D01*
X179570839Y-102689242D01*
X179454947Y-102545068D01*
X179454944Y-102545065D01*
X179454940Y-102545060D01*
X179454934Y-102545055D01*
X179454931Y-102545052D01*
X179310757Y-102429160D01*
X179310753Y-102429158D01*
X179145021Y-102346963D01*
X179055258Y-102324640D01*
X178965496Y-102302317D01*
X178923959Y-102299500D01*
X178923954Y-102299500D01*
X177076046Y-102299500D01*
X177076040Y-102299500D01*
X177034503Y-102302317D01*
X176854979Y-102346963D01*
X176689242Y-102429160D01*
X176528200Y-102558612D01*
X176525815Y-102555645D01*
X176456491Y-102606012D01*
X176337766Y-102644588D01*
X176275349Y-102649500D01*
X175904587Y-102649500D01*
X113606286Y-102649500D01*
X113393713Y-102649500D01*
X113183757Y-102682754D01*
X113183751Y-102682755D01*
X112981589Y-102748442D01*
X112792182Y-102844949D01*
X112620211Y-102969893D01*
X109306848Y-106283255D01*
X109205854Y-106356631D01*
X109128388Y-106385211D01*
X109128416Y-106385295D01*
X109126285Y-106385987D01*
X109117873Y-106389091D01*
X109113505Y-106390139D01*
X108866438Y-106470417D01*
X108866424Y-106470422D01*
X108634949Y-106588365D01*
X108424773Y-106741067D01*
X108241067Y-106924773D01*
X108088365Y-107134949D01*
X107970422Y-107366424D01*
X107970421Y-107366427D01*
X107890140Y-107613505D01*
X107890140Y-107613507D01*
X107849500Y-107870103D01*
X107849500Y-108129897D01*
X107871186Y-108266818D01*
X107890140Y-108386494D01*
X107970421Y-108633572D01*
X107970422Y-108633575D01*
X108088365Y-108865050D01*
X108163557Y-108968543D01*
X108241069Y-109075229D01*
X108424771Y-109258931D01*
X108634949Y-109411634D01*
X108866428Y-109529579D01*
X109113507Y-109609860D01*
X109370103Y-109650500D01*
X109370106Y-109650500D01*
X109629894Y-109650500D01*
X109629897Y-109650500D01*
X109886493Y-109609860D01*
X110133572Y-109529579D01*
X110365051Y-109411634D01*
X110575229Y-109258931D01*
X110758931Y-109075229D01*
X110911634Y-108865051D01*
X111029579Y-108633572D01*
X111109860Y-108386493D01*
X111109861Y-108386481D01*
X111110902Y-108382151D01*
X111112610Y-108378025D01*
X111114704Y-108371583D01*
X111115210Y-108371747D01*
X111158671Y-108266818D01*
X111216745Y-108193149D01*
X113942533Y-105467364D01*
X114043526Y-105393988D01*
X114162251Y-105355412D01*
X114224668Y-105350500D01*
X157396332Y-105350500D01*
X157519630Y-105370028D01*
X157630858Y-105426702D01*
X157719130Y-105514974D01*
X157775804Y-105626202D01*
X157795332Y-105749500D01*
X157775804Y-105872798D01*
X157719130Y-105984026D01*
X157678468Y-106031636D01*
X152902135Y-110807968D01*
X152801141Y-110881344D01*
X152682416Y-110919920D01*
X152557582Y-110919920D01*
X152438857Y-110881344D01*
X152337863Y-110807968D01*
X148481106Y-106951211D01*
X148481104Y-106951208D01*
X148330792Y-106800896D01*
X148248444Y-106741067D01*
X148158817Y-106675949D01*
X147969410Y-106579442D01*
X147767248Y-106513755D01*
X147767244Y-106513754D01*
X147767243Y-106513754D01*
X147557287Y-106480500D01*
X117275286Y-106480500D01*
X117062713Y-106480500D01*
X116852757Y-106513754D01*
X116852751Y-106513755D01*
X116650589Y-106579442D01*
X116461182Y-106675949D01*
X116289210Y-106800894D01*
X116289205Y-106800898D01*
X114806845Y-108283256D01*
X114705852Y-108356632D01*
X114628388Y-108385210D01*
X114628416Y-108385295D01*
X114626264Y-108385993D01*
X114617862Y-108389094D01*
X114613502Y-108390140D01*
X114366438Y-108470417D01*
X114366424Y-108470422D01*
X114134949Y-108588365D01*
X113924773Y-108741067D01*
X113741067Y-108924773D01*
X113588365Y-109134949D01*
X113470422Y-109366424D01*
X113470421Y-109366427D01*
X113390140Y-109613505D01*
X113384281Y-109650500D01*
X113349500Y-109870103D01*
X113349500Y-110129897D01*
X113367826Y-110245606D01*
X113390140Y-110386494D01*
X113470421Y-110633572D01*
X113470422Y-110633575D01*
X113588365Y-110865050D01*
X113680528Y-110991902D01*
X113741069Y-111075229D01*
X113924771Y-111258931D01*
X114106041Y-111390631D01*
X114134949Y-111411634D01*
X114259713Y-111475205D01*
X114366428Y-111529579D01*
X114613507Y-111609860D01*
X114870103Y-111650500D01*
X114870106Y-111650500D01*
X115129894Y-111650500D01*
X115129897Y-111650500D01*
X115386493Y-111609860D01*
X115633572Y-111529579D01*
X115759443Y-111465444D01*
X118241660Y-111465444D01*
X118241660Y-111465445D01*
X118366617Y-111529113D01*
X118613622Y-111609370D01*
X118870145Y-111650000D01*
X119129855Y-111650000D01*
X119386377Y-111609370D01*
X119633379Y-111529114D01*
X119633384Y-111529112D01*
X119758337Y-111465445D01*
X119758337Y-111465444D01*
X119006280Y-110713387D01*
X118996255Y-110710850D01*
X118241660Y-111465444D01*
X115759443Y-111465444D01*
X115865051Y-111411634D01*
X116075229Y-111258931D01*
X116258931Y-111075229D01*
X116411634Y-110865051D01*
X116529579Y-110633572D01*
X116609860Y-110386493D01*
X116609861Y-110386487D01*
X116610903Y-110382148D01*
X116612611Y-110378023D01*
X116614704Y-110371583D01*
X116615210Y-110371747D01*
X116658673Y-110266815D01*
X116716739Y-110193155D01*
X116718970Y-110190924D01*
X116819961Y-110117551D01*
X116938686Y-110078975D01*
X117063520Y-110078975D01*
X117182245Y-110117551D01*
X117283239Y-110190927D01*
X117356615Y-110291921D01*
X117389078Y-110379917D01*
X117390627Y-110386369D01*
X117470886Y-110633382D01*
X117534553Y-110758337D01*
X118364310Y-109928581D01*
X118465304Y-109855205D01*
X118584029Y-109816629D01*
X118643989Y-109816629D01*
X118627259Y-109845606D01*
X118600000Y-109947339D01*
X118600000Y-110052661D01*
X118627259Y-110154394D01*
X118679920Y-110245606D01*
X118754394Y-110320080D01*
X118845606Y-110372741D01*
X118947339Y-110400000D01*
X119052661Y-110400000D01*
X119154394Y-110372741D01*
X119245606Y-110320080D01*
X119320080Y-110245606D01*
X119372741Y-110154394D01*
X119400000Y-110052661D01*
X119400000Y-109947339D01*
X119372741Y-109845606D01*
X119356012Y-109816630D01*
X119415970Y-109816630D01*
X119534695Y-109855206D01*
X119635688Y-109928582D01*
X120465444Y-110758337D01*
X120465445Y-110758337D01*
X120529112Y-110633384D01*
X120529114Y-110633379D01*
X120609370Y-110386377D01*
X120650000Y-110129855D01*
X120650000Y-109870141D01*
X120649999Y-109870137D01*
X120614011Y-109642919D01*
X120614010Y-109518084D01*
X120652586Y-109399359D01*
X120725961Y-109298365D01*
X120826955Y-109224989D01*
X120945679Y-109186413D01*
X121008098Y-109181500D01*
X133945332Y-109181500D01*
X134068630Y-109201028D01*
X134179858Y-109257702D01*
X134268130Y-109345974D01*
X134324804Y-109457202D01*
X134344332Y-109580500D01*
X134324804Y-109703798D01*
X134268130Y-109815026D01*
X134227468Y-109862636D01*
X134120211Y-109969893D01*
X134120208Y-109969896D01*
X134120207Y-109969895D01*
X133969898Y-110120205D01*
X133969894Y-110120210D01*
X133844949Y-110292182D01*
X133748442Y-110481589D01*
X133682755Y-110683751D01*
X133682754Y-110683756D01*
X133682754Y-110683757D01*
X133661596Y-110817346D01*
X133649500Y-110893715D01*
X133649500Y-112922658D01*
X133629972Y-113045956D01*
X133595403Y-113120940D01*
X133595483Y-113120981D01*
X133594449Y-113123009D01*
X133590703Y-113131136D01*
X133588363Y-113134953D01*
X133470422Y-113366424D01*
X133470421Y-113366427D01*
X133390140Y-113613505D01*
X133380648Y-113673436D01*
X133350301Y-113865050D01*
X133349500Y-113870105D01*
X133349500Y-114129894D01*
X133390140Y-114386494D01*
X133470421Y-114633572D01*
X133470422Y-114633575D01*
X133588365Y-114865050D01*
X133664539Y-114969895D01*
X133741069Y-115075229D01*
X133924771Y-115258931D01*
X134049974Y-115349896D01*
X134134949Y-115411634D01*
X134308778Y-115500205D01*
X134366428Y-115529579D01*
X134613507Y-115609860D01*
X134613512Y-115609860D01*
X134617841Y-115610900D01*
X134621960Y-115612606D01*
X134628417Y-115614704D01*
X134628251Y-115615211D01*
X134733175Y-115658667D01*
X134806847Y-115716743D01*
X135180526Y-116090422D01*
X135532635Y-116442530D01*
X135606011Y-116543524D01*
X135644588Y-116662248D01*
X135649500Y-116724666D01*
X135649500Y-119462658D01*
X135629972Y-119585956D01*
X135595403Y-119660940D01*
X135595483Y-119660981D01*
X135594449Y-119663009D01*
X135590703Y-119671136D01*
X135588363Y-119674953D01*
X135470422Y-119906424D01*
X135470421Y-119906427D01*
X135390140Y-120153505D01*
X135390140Y-120153507D01*
X135349500Y-120410103D01*
X135349500Y-120669897D01*
X135356280Y-120712704D01*
X135390140Y-120926494D01*
X135410257Y-120988406D01*
X135438466Y-121075226D01*
X135470426Y-121173586D01*
X135472176Y-121177811D01*
X135473243Y-121182257D01*
X135475266Y-121188482D01*
X135474776Y-121188641D01*
X135501318Y-121299196D01*
X135491523Y-121423646D01*
X135443751Y-121538978D01*
X135362677Y-121633903D01*
X135256237Y-121699128D01*
X135134852Y-121728270D01*
X135103548Y-121729500D01*
X131276452Y-121729500D01*
X131153154Y-121709972D01*
X131041926Y-121653298D01*
X130953654Y-121565026D01*
X130896980Y-121453798D01*
X130877452Y-121330500D01*
X130896980Y-121207202D01*
X130907824Y-121177811D01*
X130909573Y-121173586D01*
X130909574Y-121173579D01*
X130909579Y-121173572D01*
X130989860Y-120926493D01*
X131030500Y-120669897D01*
X131030500Y-120410103D01*
X130989860Y-120153507D01*
X130909579Y-119906428D01*
X130791634Y-119674949D01*
X130638931Y-119464771D01*
X130455229Y-119281069D01*
X130315887Y-119179831D01*
X130245050Y-119128365D01*
X130013575Y-119010422D01*
X130013572Y-119010421D01*
X129766494Y-118930140D01*
X129702344Y-118919980D01*
X129509897Y-118889500D01*
X129250103Y-118889500D01*
X129096688Y-118913798D01*
X128993505Y-118930140D01*
X128746427Y-119010421D01*
X128746424Y-119010422D01*
X128514953Y-119128363D01*
X128511146Y-119130697D01*
X128507017Y-119132407D01*
X128500981Y-119135483D01*
X128500739Y-119135008D01*
X128395815Y-119178473D01*
X128302659Y-119189500D01*
X127452994Y-119189500D01*
X127329696Y-119169972D01*
X127229351Y-119120931D01*
X127079816Y-119019722D01*
X126886616Y-118936988D01*
X126886612Y-118936987D01*
X126681245Y-118892312D01*
X126681238Y-118892311D01*
X126681240Y-118892311D01*
X126634053Y-118889500D01*
X126634038Y-118889500D01*
X125365962Y-118889500D01*
X125365946Y-118889500D01*
X125318761Y-118892311D01*
X125318756Y-118892311D01*
X125318755Y-118892312D01*
X125219986Y-118913798D01*
X125113383Y-118936988D01*
X124920184Y-119019722D01*
X124784606Y-119111484D01*
X124671551Y-119164421D01*
X124547671Y-119179831D01*
X124425092Y-119156205D01*
X124379573Y-119134305D01*
X124378756Y-119135911D01*
X124133384Y-119010887D01*
X124133379Y-119010885D01*
X123886377Y-118930629D01*
X123629855Y-118890000D01*
X123370145Y-118890000D01*
X123113621Y-118930629D01*
X122866624Y-119010883D01*
X122866622Y-119010884D01*
X122741661Y-119074553D01*
X122741661Y-119074554D01*
X123571417Y-119904311D01*
X123644793Y-120005304D01*
X123683369Y-120124029D01*
X123683369Y-120183987D01*
X123654394Y-120167259D01*
X123552661Y-120140000D01*
X123447339Y-120140000D01*
X123345606Y-120167259D01*
X123254394Y-120219920D01*
X123179920Y-120294394D01*
X123127259Y-120385606D01*
X123100000Y-120487339D01*
X123100000Y-120592661D01*
X123127259Y-120694394D01*
X123179920Y-120785606D01*
X123254394Y-120860080D01*
X123345606Y-120912741D01*
X123447339Y-120940000D01*
X123552661Y-120940000D01*
X123654394Y-120912741D01*
X123683369Y-120896012D01*
X123683369Y-120955969D01*
X123644793Y-121074694D01*
X123571417Y-121175687D01*
X122741660Y-122005444D01*
X122741660Y-122005445D01*
X122866617Y-122069113D01*
X123113622Y-122149370D01*
X123370145Y-122190000D01*
X123436832Y-122190000D01*
X123560130Y-122209528D01*
X123671358Y-122266202D01*
X123759630Y-122354474D01*
X123816304Y-122465702D01*
X123835832Y-122589000D01*
X123816304Y-122712298D01*
X123759630Y-122823526D01*
X123718968Y-122871136D01*
X120306848Y-126283255D01*
X120205854Y-126356631D01*
X120128388Y-126385211D01*
X120128416Y-126385295D01*
X120126285Y-126385987D01*
X120117873Y-126389091D01*
X120113505Y-126390139D01*
X119866438Y-126470417D01*
X119866424Y-126470422D01*
X119634953Y-126588363D01*
X119631146Y-126590697D01*
X119627017Y-126592407D01*
X119620981Y-126595483D01*
X119620739Y-126595008D01*
X119515815Y-126638473D01*
X119422659Y-126649500D01*
X119106287Y-126649500D01*
X118893713Y-126649500D01*
X118683757Y-126682754D01*
X118683751Y-126682755D01*
X118481589Y-126748442D01*
X118292182Y-126844949D01*
X118120210Y-126969894D01*
X118120205Y-126969898D01*
X116806845Y-128283256D01*
X116705852Y-128356632D01*
X116628388Y-128385210D01*
X116628416Y-128385295D01*
X116626264Y-128385993D01*
X116617862Y-128389094D01*
X116613502Y-128390140D01*
X116366438Y-128470417D01*
X116366424Y-128470422D01*
X116120981Y-128595483D01*
X116119418Y-128592416D01*
X116031470Y-128628779D01*
X115907014Y-128638493D01*
X115785647Y-128609271D01*
X115714934Y-128571174D01*
X115579813Y-128479721D01*
X115386616Y-128396988D01*
X115386612Y-128396987D01*
X115181245Y-128352312D01*
X115181238Y-128352311D01*
X115181240Y-128352311D01*
X115134053Y-128349500D01*
X115134038Y-128349500D01*
X113865962Y-128349500D01*
X113865946Y-128349500D01*
X113818761Y-128352311D01*
X113818756Y-128352311D01*
X113818755Y-128352312D01*
X113700555Y-128378025D01*
X113613383Y-128396988D01*
X113420183Y-128479722D01*
X113270649Y-128580931D01*
X113157595Y-128633868D01*
X113047006Y-128649500D01*
X111249500Y-128649500D01*
X111126202Y-128629972D01*
X111014974Y-128573298D01*
X110926702Y-128485026D01*
X110870028Y-128373798D01*
X110850500Y-128250500D01*
X110850500Y-123965444D01*
X111741660Y-123965444D01*
X111741660Y-123965445D01*
X111866617Y-124029113D01*
X112113622Y-124109370D01*
X112370145Y-124150000D01*
X112629855Y-124150000D01*
X112886377Y-124109370D01*
X113133379Y-124029114D01*
X113133384Y-124029112D01*
X113378756Y-123904089D01*
X113380347Y-123907212D01*
X113467722Y-123870995D01*
X113592169Y-123861169D01*
X113713562Y-123890281D01*
X113784605Y-123928514D01*
X113920187Y-124020279D01*
X114113388Y-124103013D01*
X114318755Y-124147688D01*
X114365962Y-124150500D01*
X114365976Y-124150500D01*
X115634024Y-124150500D01*
X115634038Y-124150500D01*
X115681245Y-124147688D01*
X115886612Y-124103013D01*
X116079813Y-124020279D01*
X116253865Y-123902477D01*
X116402477Y-123753865D01*
X116520279Y-123579813D01*
X116603013Y-123386612D01*
X116647688Y-123181245D01*
X116650500Y-123134038D01*
X116650500Y-121865962D01*
X116647688Y-121818755D01*
X116603013Y-121613388D01*
X116520279Y-121420187D01*
X116520278Y-121420185D01*
X116520277Y-121420183D01*
X116419069Y-121270649D01*
X116366132Y-121157595D01*
X116350500Y-121047006D01*
X116350500Y-119369500D01*
X116370028Y-119246202D01*
X116426702Y-119134974D01*
X116514974Y-119046702D01*
X116626202Y-118990028D01*
X116749500Y-118970500D01*
X117319515Y-118970500D01*
X117442813Y-118990028D01*
X117554041Y-119046702D01*
X117642313Y-119134974D01*
X117698986Y-119246201D01*
X117748442Y-119398410D01*
X117844949Y-119587817D01*
X117969893Y-119759788D01*
X117969896Y-119759792D01*
X118120208Y-119910104D01*
X118120211Y-119910106D01*
X118134143Y-119924038D01*
X118134142Y-119924038D01*
X118134148Y-119924043D01*
X118783255Y-120573151D01*
X118856631Y-120674144D01*
X118885210Y-120751611D01*
X118885295Y-120751584D01*
X118885990Y-120753724D01*
X118889093Y-120762134D01*
X118890140Y-120766497D01*
X118970417Y-121013561D01*
X118970422Y-121013575D01*
X119088365Y-121245050D01*
X119132367Y-121305613D01*
X119241069Y-121455229D01*
X119424771Y-121638931D01*
X119522551Y-121709972D01*
X119634949Y-121791634D01*
X119828983Y-121890500D01*
X119866428Y-121909579D01*
X120113507Y-121989860D01*
X120370103Y-122030500D01*
X120370106Y-122030500D01*
X120629894Y-122030500D01*
X120629897Y-122030500D01*
X120886493Y-121989860D01*
X121133572Y-121909579D01*
X121365051Y-121791634D01*
X121575229Y-121638931D01*
X121758931Y-121455229D01*
X121758944Y-121455209D01*
X121764670Y-121448507D01*
X121859591Y-121367429D01*
X121974921Y-121319651D01*
X122016515Y-121316375D01*
X122747446Y-120585445D01*
X122747446Y-120494552D01*
X122105697Y-119852803D01*
X122032322Y-119751811D01*
X121911634Y-119514949D01*
X121871847Y-119460187D01*
X121758931Y-119304771D01*
X121575229Y-119121069D01*
X121423576Y-119010887D01*
X121365050Y-118968365D01*
X121133575Y-118850422D01*
X121133561Y-118850417D01*
X120886497Y-118770140D01*
X120882130Y-118769092D01*
X120877983Y-118767374D01*
X120871584Y-118765295D01*
X120871747Y-118764791D01*
X120766799Y-118721316D01*
X120693151Y-118663255D01*
X120642116Y-118612220D01*
X120568740Y-118511226D01*
X120530164Y-118392501D01*
X120530164Y-118267667D01*
X120544781Y-118206786D01*
X120609858Y-118006500D01*
X120609858Y-118006498D01*
X120609860Y-118006493D01*
X120650500Y-117749897D01*
X120650500Y-117490103D01*
X120609860Y-117233507D01*
X120529579Y-116986428D01*
X120411634Y-116754949D01*
X120258931Y-116544771D01*
X120075229Y-116361069D01*
X119949195Y-116269500D01*
X119865050Y-116208365D01*
X119633575Y-116090422D01*
X119633572Y-116090421D01*
X119386494Y-116010140D01*
X119322344Y-115999980D01*
X119129897Y-115969500D01*
X118870103Y-115969500D01*
X118716145Y-115993884D01*
X118613505Y-116010140D01*
X118366427Y-116090421D01*
X118366424Y-116090422D01*
X118134953Y-116208363D01*
X118131146Y-116210697D01*
X118127017Y-116212407D01*
X118120981Y-116215483D01*
X118120739Y-116215008D01*
X118015815Y-116258473D01*
X117922659Y-116269500D01*
X116077341Y-116269500D01*
X115954043Y-116249972D01*
X115879060Y-116215402D01*
X115879019Y-116215483D01*
X115876965Y-116214436D01*
X115868854Y-116210697D01*
X115865046Y-116208363D01*
X115633575Y-116090422D01*
X115633572Y-116090421D01*
X115386494Y-116010140D01*
X115322344Y-115999980D01*
X115129897Y-115969500D01*
X114870103Y-115969500D01*
X114716145Y-115993884D01*
X114613505Y-116010140D01*
X114366427Y-116090421D01*
X114366424Y-116090422D01*
X114134949Y-116208365D01*
X113924773Y-116361067D01*
X113741067Y-116544773D01*
X113588365Y-116754949D01*
X113470422Y-116986424D01*
X113470421Y-116986427D01*
X113390140Y-117233505D01*
X113390140Y-117233507D01*
X113349500Y-117490103D01*
X113349500Y-117749897D01*
X113379980Y-117942344D01*
X113390140Y-118006494D01*
X113470421Y-118253572D01*
X113470422Y-118253575D01*
X113588363Y-118485046D01*
X113590703Y-118488864D01*
X113592416Y-118493000D01*
X113595483Y-118499019D01*
X113595009Y-118499260D01*
X113638475Y-118604196D01*
X113649500Y-118697342D01*
X113649500Y-120589406D01*
X113629972Y-120712704D01*
X113573298Y-120823932D01*
X113485026Y-120912204D01*
X113373798Y-120968878D01*
X113250500Y-120988406D01*
X113127203Y-120968878D01*
X112886378Y-120890629D01*
X112629855Y-120850000D01*
X112370145Y-120850000D01*
X112113621Y-120890629D01*
X111866624Y-120970883D01*
X111866622Y-120970884D01*
X111741661Y-121034553D01*
X111741661Y-121034554D01*
X112571417Y-121864311D01*
X112644793Y-121965304D01*
X112683369Y-122084029D01*
X112683369Y-122143987D01*
X112654394Y-122127259D01*
X112552661Y-122100000D01*
X112447339Y-122100000D01*
X112345606Y-122127259D01*
X112254394Y-122179920D01*
X112179920Y-122254394D01*
X112127259Y-122345606D01*
X112100000Y-122447339D01*
X112100000Y-122552661D01*
X112127259Y-122654394D01*
X112179920Y-122745606D01*
X112254394Y-122820080D01*
X112345606Y-122872741D01*
X112447339Y-122900000D01*
X112552661Y-122900000D01*
X112654394Y-122872741D01*
X112683369Y-122856012D01*
X112683369Y-122915969D01*
X112644793Y-123034694D01*
X112571417Y-123135687D01*
X111741660Y-123965444D01*
X110850500Y-123965444D01*
X110850500Y-123607663D01*
X110870028Y-123484365D01*
X110926702Y-123373137D01*
X110967364Y-123325527D01*
X111747446Y-122545445D01*
X111747446Y-122454554D01*
X110967364Y-121674472D01*
X110893988Y-121573478D01*
X110855412Y-121454753D01*
X110850500Y-121392336D01*
X110850500Y-116697342D01*
X110870028Y-116574044D01*
X110904596Y-116499059D01*
X110904517Y-116499019D01*
X110905550Y-116496990D01*
X110909297Y-116488864D01*
X110911627Y-116485060D01*
X110911634Y-116485051D01*
X111029579Y-116253572D01*
X111109860Y-116006493D01*
X111150500Y-115749897D01*
X111150500Y-115490103D01*
X111109860Y-115233507D01*
X111029579Y-114986428D01*
X111021155Y-114969896D01*
X110911634Y-114754949D01*
X110848787Y-114668447D01*
X110758931Y-114544771D01*
X110575229Y-114361069D01*
X110365051Y-114208366D01*
X110365052Y-114208366D01*
X110365050Y-114208365D01*
X110133575Y-114090422D01*
X110133572Y-114090421D01*
X109886494Y-114010140D01*
X109822344Y-113999980D01*
X109629897Y-113969500D01*
X109370103Y-113969500D01*
X109216145Y-113993884D01*
X109113505Y-114010140D01*
X108866427Y-114090421D01*
X108866424Y-114090422D01*
X108634949Y-114208365D01*
X108424773Y-114361067D01*
X108241067Y-114544773D01*
X108088365Y-114754949D01*
X107970422Y-114986424D01*
X107970421Y-114986427D01*
X107890140Y-115233505D01*
X107871706Y-115349895D01*
X107849500Y-115490103D01*
X107849500Y-115749897D01*
X107867190Y-115861588D01*
X107890140Y-116006494D01*
X107970421Y-116253572D01*
X107970422Y-116253575D01*
X108088363Y-116485046D01*
X108090703Y-116488864D01*
X108092416Y-116493000D01*
X108095483Y-116499019D01*
X108095009Y-116499260D01*
X108138475Y-116604196D01*
X108149500Y-116697342D01*
X108149500Y-127618768D01*
X108129972Y-127742066D01*
X108073298Y-127853294D01*
X107985026Y-127941566D01*
X107873798Y-127998240D01*
X107750500Y-128017768D01*
X107627202Y-127998240D01*
X107593433Y-127985553D01*
X107386616Y-127896988D01*
X107386612Y-127896987D01*
X107181245Y-127852312D01*
X107181238Y-127852311D01*
X107181240Y-127852311D01*
X107134053Y-127849500D01*
X107134038Y-127849500D01*
X104865962Y-127849500D01*
X104865946Y-127849500D01*
X104818761Y-127852311D01*
X104818756Y-127852311D01*
X104818755Y-127852312D01*
X104659217Y-127887017D01*
X104613383Y-127896988D01*
X104420186Y-127979721D01*
X104246136Y-128097522D01*
X104097522Y-128246136D01*
X103979721Y-128420186D01*
X103896988Y-128613383D01*
X103852311Y-128818761D01*
X103849500Y-128865946D01*
X100500500Y-128865946D01*
X100500500Y-100899500D01*
X100520028Y-100776202D01*
X100576702Y-100664974D01*
X100664974Y-100576702D01*
X100776202Y-100520028D01*
X100899500Y-100500500D01*
X184100500Y-100500500D01*
X184223798Y-100520028D01*
G37*
%TD.AperFunction*%
%TD*%
M02*
