%TF.GenerationSoftware,KiCad,Pcbnew,10.0.6*%
%TF.CreationDate,2026-10-03T13:43:59+02:00*%
%TF.ProjectId,rode-preamp,726f6465-2d70-4726-9561-6d702e6b6963,rev?*%
%TF.SameCoordinates,Original*%
%TF.FileFunction,Legend,Top*%
%TF.FilePolarity,Positive*%
%FSLAX46Y46*%
G04 Gerber Fmt 4.6, Leading zero omitted, Abs format (unit mm)*
G04 Created by KiCad (PCBNEW 10.0.6) date 2026-10-03 13:43:59*
%MOMM*%
%LPD*%
G01*
G04 APERTURE LIST*
%ADD10C,0.120000*%
%ADD11C,0.135000*%
%ADD12C,0.150000*%
G04 APERTURE END LIST*
D10*
X114009423Y-127773855D02*
X114009423Y-126973855D01*
X114009423Y-126973855D02*
X114276089Y-127545283D01*
X114276089Y-127545283D02*
X114542756Y-126973855D01*
X114542756Y-126973855D02*
X114542756Y-127773855D01*
X114923709Y-127773855D02*
X114923709Y-126973855D01*
X115761804Y-127697664D02*
X115723708Y-127735760D01*
X115723708Y-127735760D02*
X115609423Y-127773855D01*
X115609423Y-127773855D02*
X115533232Y-127773855D01*
X115533232Y-127773855D02*
X115418946Y-127735760D01*
X115418946Y-127735760D02*
X115342756Y-127659569D01*
X115342756Y-127659569D02*
X115304661Y-127583379D01*
X115304661Y-127583379D02*
X115266565Y-127430998D01*
X115266565Y-127430998D02*
X115266565Y-127316712D01*
X115266565Y-127316712D02*
X115304661Y-127164331D01*
X115304661Y-127164331D02*
X115342756Y-127088140D01*
X115342756Y-127088140D02*
X115418946Y-127011950D01*
X115418946Y-127011950D02*
X115533232Y-126973855D01*
X115533232Y-126973855D02*
X115609423Y-126973855D01*
X115609423Y-126973855D02*
X115723708Y-127011950D01*
X115723708Y-127011950D02*
X115761804Y-127050045D01*
X114428470Y-135511950D02*
X114352280Y-135473855D01*
X114352280Y-135473855D02*
X114237994Y-135473855D01*
X114237994Y-135473855D02*
X114123708Y-135511950D01*
X114123708Y-135511950D02*
X114047518Y-135588140D01*
X114047518Y-135588140D02*
X114009423Y-135664331D01*
X114009423Y-135664331D02*
X113971327Y-135816712D01*
X113971327Y-135816712D02*
X113971327Y-135930998D01*
X113971327Y-135930998D02*
X114009423Y-136083379D01*
X114009423Y-136083379D02*
X114047518Y-136159569D01*
X114047518Y-136159569D02*
X114123708Y-136235760D01*
X114123708Y-136235760D02*
X114237994Y-136273855D01*
X114237994Y-136273855D02*
X114314185Y-136273855D01*
X114314185Y-136273855D02*
X114428470Y-136235760D01*
X114428470Y-136235760D02*
X114466566Y-136197664D01*
X114466566Y-136197664D02*
X114466566Y-135930998D01*
X114466566Y-135930998D02*
X114314185Y-135930998D01*
X114809423Y-136273855D02*
X114809423Y-135473855D01*
X114809423Y-135473855D02*
X115266566Y-136273855D01*
X115266566Y-136273855D02*
X115266566Y-135473855D01*
X115647518Y-136273855D02*
X115647518Y-135473855D01*
X115647518Y-135473855D02*
X115837994Y-135473855D01*
X115837994Y-135473855D02*
X115952280Y-135511950D01*
X115952280Y-135511950D02*
X116028470Y-135588140D01*
X116028470Y-135588140D02*
X116066565Y-135664331D01*
X116066565Y-135664331D02*
X116104661Y-135816712D01*
X116104661Y-135816712D02*
X116104661Y-135930998D01*
X116104661Y-135930998D02*
X116066565Y-136083379D01*
X116066565Y-136083379D02*
X116028470Y-136159569D01*
X116028470Y-136159569D02*
X115952280Y-136235760D01*
X115952280Y-136235760D02*
X115837994Y-136273855D01*
X115837994Y-136273855D02*
X115647518Y-136273855D01*
X156065813Y-102583855D02*
X156561051Y-102583855D01*
X156561051Y-102583855D02*
X156294385Y-102888617D01*
X156294385Y-102888617D02*
X156408670Y-102888617D01*
X156408670Y-102888617D02*
X156484861Y-102926712D01*
X156484861Y-102926712D02*
X156522956Y-102964807D01*
X156522956Y-102964807D02*
X156561051Y-103040998D01*
X156561051Y-103040998D02*
X156561051Y-103231474D01*
X156561051Y-103231474D02*
X156522956Y-103307664D01*
X156522956Y-103307664D02*
X156484861Y-103345760D01*
X156484861Y-103345760D02*
X156408670Y-103383855D01*
X156408670Y-103383855D02*
X156180099Y-103383855D01*
X156180099Y-103383855D02*
X156103908Y-103345760D01*
X156103908Y-103345760D02*
X156065813Y-103307664D01*
X156789623Y-102583855D02*
X157056290Y-103383855D01*
X157056290Y-103383855D02*
X157322956Y-102583855D01*
X157513432Y-102583855D02*
X158008670Y-102583855D01*
X158008670Y-102583855D02*
X157742004Y-102888617D01*
X157742004Y-102888617D02*
X157856289Y-102888617D01*
X157856289Y-102888617D02*
X157932480Y-102926712D01*
X157932480Y-102926712D02*
X157970575Y-102964807D01*
X157970575Y-102964807D02*
X158008670Y-103040998D01*
X158008670Y-103040998D02*
X158008670Y-103231474D01*
X158008670Y-103231474D02*
X157970575Y-103307664D01*
X157970575Y-103307664D02*
X157932480Y-103345760D01*
X157932480Y-103345760D02*
X157856289Y-103383855D01*
X157856289Y-103383855D02*
X157627718Y-103383855D01*
X157627718Y-103383855D02*
X157551527Y-103345760D01*
X157551527Y-103345760D02*
X157513432Y-103307664D01*
X157284861Y-105123855D02*
X156903909Y-105123855D01*
X156903909Y-105123855D02*
X156865813Y-105504807D01*
X156865813Y-105504807D02*
X156903909Y-105466712D01*
X156903909Y-105466712D02*
X156980099Y-105428617D01*
X156980099Y-105428617D02*
X157170575Y-105428617D01*
X157170575Y-105428617D02*
X157246766Y-105466712D01*
X157246766Y-105466712D02*
X157284861Y-105504807D01*
X157284861Y-105504807D02*
X157322956Y-105580998D01*
X157322956Y-105580998D02*
X157322956Y-105771474D01*
X157322956Y-105771474D02*
X157284861Y-105847664D01*
X157284861Y-105847664D02*
X157246766Y-105885760D01*
X157246766Y-105885760D02*
X157170575Y-105923855D01*
X157170575Y-105923855D02*
X156980099Y-105923855D01*
X156980099Y-105923855D02*
X156903909Y-105885760D01*
X156903909Y-105885760D02*
X156865813Y-105847664D01*
X157551528Y-105123855D02*
X157818195Y-105923855D01*
X157818195Y-105923855D02*
X158084861Y-105123855D01*
X156865813Y-108235283D02*
X157246766Y-108235283D01*
X156789623Y-108463855D02*
X157056290Y-107663855D01*
X157056290Y-107663855D02*
X157322956Y-108463855D01*
X157742004Y-107663855D02*
X157818194Y-107663855D01*
X157818194Y-107663855D02*
X157894385Y-107701950D01*
X157894385Y-107701950D02*
X157932480Y-107740045D01*
X157932480Y-107740045D02*
X157970575Y-107816236D01*
X157970575Y-107816236D02*
X158008670Y-107968617D01*
X158008670Y-107968617D02*
X158008670Y-108159093D01*
X158008670Y-108159093D02*
X157970575Y-108311474D01*
X157970575Y-108311474D02*
X157932480Y-108387664D01*
X157932480Y-108387664D02*
X157894385Y-108425760D01*
X157894385Y-108425760D02*
X157818194Y-108463855D01*
X157818194Y-108463855D02*
X157742004Y-108463855D01*
X157742004Y-108463855D02*
X157665813Y-108425760D01*
X157665813Y-108425760D02*
X157627718Y-108387664D01*
X157627718Y-108387664D02*
X157589623Y-108311474D01*
X157589623Y-108311474D02*
X157551527Y-108159093D01*
X157551527Y-108159093D02*
X157551527Y-107968617D01*
X157551527Y-107968617D02*
X157589623Y-107816236D01*
X157589623Y-107816236D02*
X157627718Y-107740045D01*
X157627718Y-107740045D02*
X157665813Y-107701950D01*
X157665813Y-107701950D02*
X157742004Y-107663855D01*
X156332480Y-110241950D02*
X156256290Y-110203855D01*
X156256290Y-110203855D02*
X156142004Y-110203855D01*
X156142004Y-110203855D02*
X156027718Y-110241950D01*
X156027718Y-110241950D02*
X155951528Y-110318140D01*
X155951528Y-110318140D02*
X155913433Y-110394331D01*
X155913433Y-110394331D02*
X155875337Y-110546712D01*
X155875337Y-110546712D02*
X155875337Y-110660998D01*
X155875337Y-110660998D02*
X155913433Y-110813379D01*
X155913433Y-110813379D02*
X155951528Y-110889569D01*
X155951528Y-110889569D02*
X156027718Y-110965760D01*
X156027718Y-110965760D02*
X156142004Y-111003855D01*
X156142004Y-111003855D02*
X156218195Y-111003855D01*
X156218195Y-111003855D02*
X156332480Y-110965760D01*
X156332480Y-110965760D02*
X156370576Y-110927664D01*
X156370576Y-110927664D02*
X156370576Y-110660998D01*
X156370576Y-110660998D02*
X156218195Y-110660998D01*
X156713433Y-111003855D02*
X156713433Y-110203855D01*
X156713433Y-110203855D02*
X157170576Y-111003855D01*
X157170576Y-111003855D02*
X157170576Y-110203855D01*
X157551528Y-111003855D02*
X157551528Y-110203855D01*
X157551528Y-110203855D02*
X157742004Y-110203855D01*
X157742004Y-110203855D02*
X157856290Y-110241950D01*
X157856290Y-110241950D02*
X157932480Y-110318140D01*
X157932480Y-110318140D02*
X157970575Y-110394331D01*
X157970575Y-110394331D02*
X158008671Y-110546712D01*
X158008671Y-110546712D02*
X158008671Y-110660998D01*
X158008671Y-110660998D02*
X157970575Y-110813379D01*
X157970575Y-110813379D02*
X157932480Y-110889569D01*
X157932480Y-110889569D02*
X157856290Y-110965760D01*
X157856290Y-110965760D02*
X157742004Y-111003855D01*
X157742004Y-111003855D02*
X157551528Y-111003855D01*
D11*
X120735714Y-138009337D02*
X120435714Y-137580765D01*
X120221428Y-138009337D02*
X120221428Y-137109337D01*
X120221428Y-137109337D02*
X120564285Y-137109337D01*
X120564285Y-137109337D02*
X120650000Y-137152194D01*
X120650000Y-137152194D02*
X120692857Y-137195051D01*
X120692857Y-137195051D02*
X120735714Y-137280765D01*
X120735714Y-137280765D02*
X120735714Y-137409337D01*
X120735714Y-137409337D02*
X120692857Y-137495051D01*
X120692857Y-137495051D02*
X120650000Y-137537908D01*
X120650000Y-137537908D02*
X120564285Y-137580765D01*
X120564285Y-137580765D02*
X120221428Y-137580765D01*
X121292857Y-137109337D02*
X121464285Y-137109337D01*
X121464285Y-137109337D02*
X121550000Y-137152194D01*
X121550000Y-137152194D02*
X121635714Y-137237908D01*
X121635714Y-137237908D02*
X121678571Y-137409337D01*
X121678571Y-137409337D02*
X121678571Y-137709337D01*
X121678571Y-137709337D02*
X121635714Y-137880765D01*
X121635714Y-137880765D02*
X121550000Y-137966480D01*
X121550000Y-137966480D02*
X121464285Y-138009337D01*
X121464285Y-138009337D02*
X121292857Y-138009337D01*
X121292857Y-138009337D02*
X121207143Y-137966480D01*
X121207143Y-137966480D02*
X121121428Y-137880765D01*
X121121428Y-137880765D02*
X121078571Y-137709337D01*
X121078571Y-137709337D02*
X121078571Y-137409337D01*
X121078571Y-137409337D02*
X121121428Y-137237908D01*
X121121428Y-137237908D02*
X121207143Y-137152194D01*
X121207143Y-137152194D02*
X121292857Y-137109337D01*
X122064285Y-138009337D02*
X122064285Y-137109337D01*
X122064285Y-137109337D02*
X122278571Y-137109337D01*
X122278571Y-137109337D02*
X122407142Y-137152194D01*
X122407142Y-137152194D02*
X122492857Y-137237908D01*
X122492857Y-137237908D02*
X122535714Y-137323622D01*
X122535714Y-137323622D02*
X122578571Y-137495051D01*
X122578571Y-137495051D02*
X122578571Y-137623622D01*
X122578571Y-137623622D02*
X122535714Y-137795051D01*
X122535714Y-137795051D02*
X122492857Y-137880765D01*
X122492857Y-137880765D02*
X122407142Y-137966480D01*
X122407142Y-137966480D02*
X122278571Y-138009337D01*
X122278571Y-138009337D02*
X122064285Y-138009337D01*
X122964285Y-137537908D02*
X123264285Y-137537908D01*
X123392857Y-138009337D02*
X122964285Y-138009337D01*
X122964285Y-138009337D02*
X122964285Y-137109337D01*
X122964285Y-137109337D02*
X123392857Y-137109337D01*
X124464285Y-138009337D02*
X124464285Y-137409337D01*
X124464285Y-137495051D02*
X124507142Y-137452194D01*
X124507142Y-137452194D02*
X124592857Y-137409337D01*
X124592857Y-137409337D02*
X124721428Y-137409337D01*
X124721428Y-137409337D02*
X124807142Y-137452194D01*
X124807142Y-137452194D02*
X124850000Y-137537908D01*
X124850000Y-137537908D02*
X124850000Y-138009337D01*
X124850000Y-137537908D02*
X124892857Y-137452194D01*
X124892857Y-137452194D02*
X124978571Y-137409337D01*
X124978571Y-137409337D02*
X125107142Y-137409337D01*
X125107142Y-137409337D02*
X125192857Y-137452194D01*
X125192857Y-137452194D02*
X125235714Y-137537908D01*
X125235714Y-137537908D02*
X125235714Y-138009337D01*
X125664285Y-138009337D02*
X125664285Y-137409337D01*
X125664285Y-137109337D02*
X125621428Y-137152194D01*
X125621428Y-137152194D02*
X125664285Y-137195051D01*
X125664285Y-137195051D02*
X125707142Y-137152194D01*
X125707142Y-137152194D02*
X125664285Y-137109337D01*
X125664285Y-137109337D02*
X125664285Y-137195051D01*
X126478571Y-137966480D02*
X126392856Y-138009337D01*
X126392856Y-138009337D02*
X126221428Y-138009337D01*
X126221428Y-138009337D02*
X126135713Y-137966480D01*
X126135713Y-137966480D02*
X126092856Y-137923622D01*
X126092856Y-137923622D02*
X126049999Y-137837908D01*
X126049999Y-137837908D02*
X126049999Y-137580765D01*
X126049999Y-137580765D02*
X126092856Y-137495051D01*
X126092856Y-137495051D02*
X126135713Y-137452194D01*
X126135713Y-137452194D02*
X126221428Y-137409337D01*
X126221428Y-137409337D02*
X126392856Y-137409337D01*
X126392856Y-137409337D02*
X126478571Y-137452194D01*
X127549999Y-137409337D02*
X127549999Y-138309337D01*
X127549999Y-137452194D02*
X127635714Y-137409337D01*
X127635714Y-137409337D02*
X127807142Y-137409337D01*
X127807142Y-137409337D02*
X127892856Y-137452194D01*
X127892856Y-137452194D02*
X127935714Y-137495051D01*
X127935714Y-137495051D02*
X127978571Y-137580765D01*
X127978571Y-137580765D02*
X127978571Y-137837908D01*
X127978571Y-137837908D02*
X127935714Y-137923622D01*
X127935714Y-137923622D02*
X127892856Y-137966480D01*
X127892856Y-137966480D02*
X127807142Y-138009337D01*
X127807142Y-138009337D02*
X127635714Y-138009337D01*
X127635714Y-138009337D02*
X127549999Y-137966480D01*
X128364285Y-138009337D02*
X128364285Y-137409337D01*
X128364285Y-137580765D02*
X128407142Y-137495051D01*
X128407142Y-137495051D02*
X128450000Y-137452194D01*
X128450000Y-137452194D02*
X128535714Y-137409337D01*
X128535714Y-137409337D02*
X128621428Y-137409337D01*
X129264285Y-137966480D02*
X129178571Y-138009337D01*
X129178571Y-138009337D02*
X129007143Y-138009337D01*
X129007143Y-138009337D02*
X128921428Y-137966480D01*
X128921428Y-137966480D02*
X128878571Y-137880765D01*
X128878571Y-137880765D02*
X128878571Y-137537908D01*
X128878571Y-137537908D02*
X128921428Y-137452194D01*
X128921428Y-137452194D02*
X129007143Y-137409337D01*
X129007143Y-137409337D02*
X129178571Y-137409337D01*
X129178571Y-137409337D02*
X129264285Y-137452194D01*
X129264285Y-137452194D02*
X129307143Y-137537908D01*
X129307143Y-137537908D02*
X129307143Y-137623622D01*
X129307143Y-137623622D02*
X128878571Y-137709337D01*
X130078572Y-138009337D02*
X130078572Y-137537908D01*
X130078572Y-137537908D02*
X130035714Y-137452194D01*
X130035714Y-137452194D02*
X129950000Y-137409337D01*
X129950000Y-137409337D02*
X129778572Y-137409337D01*
X129778572Y-137409337D02*
X129692857Y-137452194D01*
X130078572Y-137966480D02*
X129992857Y-138009337D01*
X129992857Y-138009337D02*
X129778572Y-138009337D01*
X129778572Y-138009337D02*
X129692857Y-137966480D01*
X129692857Y-137966480D02*
X129650000Y-137880765D01*
X129650000Y-137880765D02*
X129650000Y-137795051D01*
X129650000Y-137795051D02*
X129692857Y-137709337D01*
X129692857Y-137709337D02*
X129778572Y-137666480D01*
X129778572Y-137666480D02*
X129992857Y-137666480D01*
X129992857Y-137666480D02*
X130078572Y-137623622D01*
X130507143Y-138009337D02*
X130507143Y-137409337D01*
X130507143Y-137495051D02*
X130550000Y-137452194D01*
X130550000Y-137452194D02*
X130635715Y-137409337D01*
X130635715Y-137409337D02*
X130764286Y-137409337D01*
X130764286Y-137409337D02*
X130850000Y-137452194D01*
X130850000Y-137452194D02*
X130892858Y-137537908D01*
X130892858Y-137537908D02*
X130892858Y-138009337D01*
X130892858Y-137537908D02*
X130935715Y-137452194D01*
X130935715Y-137452194D02*
X131021429Y-137409337D01*
X131021429Y-137409337D02*
X131150000Y-137409337D01*
X131150000Y-137409337D02*
X131235715Y-137452194D01*
X131235715Y-137452194D02*
X131278572Y-137537908D01*
X131278572Y-137537908D02*
X131278572Y-138009337D01*
X131707143Y-137409337D02*
X131707143Y-138309337D01*
X131707143Y-137452194D02*
X131792858Y-137409337D01*
X131792858Y-137409337D02*
X131964286Y-137409337D01*
X131964286Y-137409337D02*
X132050000Y-137452194D01*
X132050000Y-137452194D02*
X132092858Y-137495051D01*
X132092858Y-137495051D02*
X132135715Y-137580765D01*
X132135715Y-137580765D02*
X132135715Y-137837908D01*
X132135715Y-137837908D02*
X132092858Y-137923622D01*
X132092858Y-137923622D02*
X132050000Y-137966480D01*
X132050000Y-137966480D02*
X131964286Y-138009337D01*
X131964286Y-138009337D02*
X131792858Y-138009337D01*
X131792858Y-138009337D02*
X131707143Y-137966480D01*
X134321429Y-138009337D02*
X133892857Y-138009337D01*
X133892857Y-138009337D02*
X133892857Y-137109337D01*
X134621428Y-138009337D02*
X134621428Y-137109337D01*
X134621428Y-137109337D02*
X134921428Y-137752194D01*
X134921428Y-137752194D02*
X135221428Y-137109337D01*
X135221428Y-137109337D02*
X135221428Y-138009337D01*
X135564285Y-137109337D02*
X136121428Y-137109337D01*
X136121428Y-137109337D02*
X135821428Y-137452194D01*
X135821428Y-137452194D02*
X135949999Y-137452194D01*
X135949999Y-137452194D02*
X136035714Y-137495051D01*
X136035714Y-137495051D02*
X136078571Y-137537908D01*
X136078571Y-137537908D02*
X136121428Y-137623622D01*
X136121428Y-137623622D02*
X136121428Y-137837908D01*
X136121428Y-137837908D02*
X136078571Y-137923622D01*
X136078571Y-137923622D02*
X136035714Y-137966480D01*
X136035714Y-137966480D02*
X135949999Y-138009337D01*
X135949999Y-138009337D02*
X135692856Y-138009337D01*
X135692856Y-138009337D02*
X135607142Y-137966480D01*
X135607142Y-137966480D02*
X135564285Y-137923622D01*
X136935714Y-137109337D02*
X136507142Y-137109337D01*
X136507142Y-137109337D02*
X136464285Y-137537908D01*
X136464285Y-137537908D02*
X136507142Y-137495051D01*
X136507142Y-137495051D02*
X136592857Y-137452194D01*
X136592857Y-137452194D02*
X136807142Y-137452194D01*
X136807142Y-137452194D02*
X136892857Y-137495051D01*
X136892857Y-137495051D02*
X136935714Y-137537908D01*
X136935714Y-137537908D02*
X136978571Y-137623622D01*
X136978571Y-137623622D02*
X136978571Y-137837908D01*
X136978571Y-137837908D02*
X136935714Y-137923622D01*
X136935714Y-137923622D02*
X136892857Y-137966480D01*
X136892857Y-137966480D02*
X136807142Y-138009337D01*
X136807142Y-138009337D02*
X136592857Y-138009337D01*
X136592857Y-138009337D02*
X136507142Y-137966480D01*
X136507142Y-137966480D02*
X136464285Y-137923622D01*
X137492857Y-137495051D02*
X137407142Y-137452194D01*
X137407142Y-137452194D02*
X137364285Y-137409337D01*
X137364285Y-137409337D02*
X137321428Y-137323622D01*
X137321428Y-137323622D02*
X137321428Y-137280765D01*
X137321428Y-137280765D02*
X137364285Y-137195051D01*
X137364285Y-137195051D02*
X137407142Y-137152194D01*
X137407142Y-137152194D02*
X137492857Y-137109337D01*
X137492857Y-137109337D02*
X137664285Y-137109337D01*
X137664285Y-137109337D02*
X137750000Y-137152194D01*
X137750000Y-137152194D02*
X137792857Y-137195051D01*
X137792857Y-137195051D02*
X137835714Y-137280765D01*
X137835714Y-137280765D02*
X137835714Y-137323622D01*
X137835714Y-137323622D02*
X137792857Y-137409337D01*
X137792857Y-137409337D02*
X137750000Y-137452194D01*
X137750000Y-137452194D02*
X137664285Y-137495051D01*
X137664285Y-137495051D02*
X137492857Y-137495051D01*
X137492857Y-137495051D02*
X137407142Y-137537908D01*
X137407142Y-137537908D02*
X137364285Y-137580765D01*
X137364285Y-137580765D02*
X137321428Y-137666480D01*
X137321428Y-137666480D02*
X137321428Y-137837908D01*
X137321428Y-137837908D02*
X137364285Y-137923622D01*
X137364285Y-137923622D02*
X137407142Y-137966480D01*
X137407142Y-137966480D02*
X137492857Y-138009337D01*
X137492857Y-138009337D02*
X137664285Y-138009337D01*
X137664285Y-138009337D02*
X137750000Y-137966480D01*
X137750000Y-137966480D02*
X137792857Y-137923622D01*
X137792857Y-137923622D02*
X137835714Y-137837908D01*
X137835714Y-137837908D02*
X137835714Y-137666480D01*
X137835714Y-137666480D02*
X137792857Y-137580765D01*
X137792857Y-137580765D02*
X137750000Y-137537908D01*
X137750000Y-137537908D02*
X137664285Y-137495051D01*
X138821428Y-138009337D02*
X139292857Y-137409337D01*
X138821428Y-137409337D02*
X139292857Y-138009337D01*
X140064285Y-137109337D02*
X139635713Y-137109337D01*
X139635713Y-137109337D02*
X139592856Y-137537908D01*
X139592856Y-137537908D02*
X139635713Y-137495051D01*
X139635713Y-137495051D02*
X139721428Y-137452194D01*
X139721428Y-137452194D02*
X139935713Y-137452194D01*
X139935713Y-137452194D02*
X140021428Y-137495051D01*
X140021428Y-137495051D02*
X140064285Y-137537908D01*
X140064285Y-137537908D02*
X140107142Y-137623622D01*
X140107142Y-137623622D02*
X140107142Y-137837908D01*
X140107142Y-137837908D02*
X140064285Y-137923622D01*
X140064285Y-137923622D02*
X140021428Y-137966480D01*
X140021428Y-137966480D02*
X139935713Y-138009337D01*
X139935713Y-138009337D02*
X139721428Y-138009337D01*
X139721428Y-138009337D02*
X139635713Y-137966480D01*
X139635713Y-137966480D02*
X139592856Y-137923622D01*
X140878571Y-137109337D02*
X140707142Y-137109337D01*
X140707142Y-137109337D02*
X140621428Y-137152194D01*
X140621428Y-137152194D02*
X140578571Y-137195051D01*
X140578571Y-137195051D02*
X140492856Y-137323622D01*
X140492856Y-137323622D02*
X140449999Y-137495051D01*
X140449999Y-137495051D02*
X140449999Y-137837908D01*
X140449999Y-137837908D02*
X140492856Y-137923622D01*
X140492856Y-137923622D02*
X140535713Y-137966480D01*
X140535713Y-137966480D02*
X140621428Y-138009337D01*
X140621428Y-138009337D02*
X140792856Y-138009337D01*
X140792856Y-138009337D02*
X140878571Y-137966480D01*
X140878571Y-137966480D02*
X140921428Y-137923622D01*
X140921428Y-137923622D02*
X140964285Y-137837908D01*
X140964285Y-137837908D02*
X140964285Y-137623622D01*
X140964285Y-137623622D02*
X140921428Y-137537908D01*
X140921428Y-137537908D02*
X140878571Y-137495051D01*
X140878571Y-137495051D02*
X140792856Y-137452194D01*
X140792856Y-137452194D02*
X140621428Y-137452194D01*
X140621428Y-137452194D02*
X140535713Y-137495051D01*
X140535713Y-137495051D02*
X140492856Y-137537908D01*
X140492856Y-137537908D02*
X140449999Y-137623622D01*
X141735714Y-137409337D02*
X141735714Y-138009337D01*
X141521428Y-137066480D02*
X141307142Y-137709337D01*
X141307142Y-137709337D02*
X141864285Y-137709337D01*
D12*
X131783333Y-119619819D02*
X131450000Y-119143628D01*
X131211905Y-119619819D02*
X131211905Y-118619819D01*
X131211905Y-118619819D02*
X131592857Y-118619819D01*
X131592857Y-118619819D02*
X131688095Y-118667438D01*
X131688095Y-118667438D02*
X131735714Y-118715057D01*
X131735714Y-118715057D02*
X131783333Y-118810295D01*
X131783333Y-118810295D02*
X131783333Y-118953152D01*
X131783333Y-118953152D02*
X131735714Y-119048390D01*
X131735714Y-119048390D02*
X131688095Y-119096009D01*
X131688095Y-119096009D02*
X131592857Y-119143628D01*
X131592857Y-119143628D02*
X131211905Y-119143628D01*
X132640476Y-118619819D02*
X132450000Y-118619819D01*
X132450000Y-118619819D02*
X132354762Y-118667438D01*
X132354762Y-118667438D02*
X132307143Y-118715057D01*
X132307143Y-118715057D02*
X132211905Y-118857914D01*
X132211905Y-118857914D02*
X132164286Y-119048390D01*
X132164286Y-119048390D02*
X132164286Y-119429342D01*
X132164286Y-119429342D02*
X132211905Y-119524580D01*
X132211905Y-119524580D02*
X132259524Y-119572200D01*
X132259524Y-119572200D02*
X132354762Y-119619819D01*
X132354762Y-119619819D02*
X132545238Y-119619819D01*
X132545238Y-119619819D02*
X132640476Y-119572200D01*
X132640476Y-119572200D02*
X132688095Y-119524580D01*
X132688095Y-119524580D02*
X132735714Y-119429342D01*
X132735714Y-119429342D02*
X132735714Y-119191247D01*
X132735714Y-119191247D02*
X132688095Y-119096009D01*
X132688095Y-119096009D02*
X132640476Y-119048390D01*
X132640476Y-119048390D02*
X132545238Y-119000771D01*
X132545238Y-119000771D02*
X132354762Y-119000771D01*
X132354762Y-119000771D02*
X132259524Y-119048390D01*
X132259524Y-119048390D02*
X132211905Y-119096009D01*
X132211905Y-119096009D02*
X132164286Y-119191247D01*
X111224587Y-124772071D02*
X111176968Y-124819691D01*
X111176968Y-124819691D02*
X111034111Y-124867310D01*
X111034111Y-124867310D02*
X110938873Y-124867310D01*
X110938873Y-124867310D02*
X110796016Y-124819691D01*
X110796016Y-124819691D02*
X110700778Y-124724452D01*
X110700778Y-124724452D02*
X110653159Y-124629214D01*
X110653159Y-124629214D02*
X110605540Y-124438738D01*
X110605540Y-124438738D02*
X110605540Y-124295881D01*
X110605540Y-124295881D02*
X110653159Y-124105405D01*
X110653159Y-124105405D02*
X110700778Y-124010167D01*
X110700778Y-124010167D02*
X110796016Y-123914929D01*
X110796016Y-123914929D02*
X110938873Y-123867310D01*
X110938873Y-123867310D02*
X111034111Y-123867310D01*
X111034111Y-123867310D02*
X111176968Y-123914929D01*
X111176968Y-123914929D02*
X111224587Y-123962548D01*
X111605540Y-123962548D02*
X111653159Y-123914929D01*
X111653159Y-123914929D02*
X111748397Y-123867310D01*
X111748397Y-123867310D02*
X111986492Y-123867310D01*
X111986492Y-123867310D02*
X112081730Y-123914929D01*
X112081730Y-123914929D02*
X112129349Y-123962548D01*
X112129349Y-123962548D02*
X112176968Y-124057786D01*
X112176968Y-124057786D02*
X112176968Y-124153024D01*
X112176968Y-124153024D02*
X112129349Y-124295881D01*
X112129349Y-124295881D02*
X111557921Y-124867310D01*
X111557921Y-124867310D02*
X112176968Y-124867310D01*
X159806666Y-113009819D02*
X159806666Y-113724104D01*
X159806666Y-113724104D02*
X159759047Y-113866961D01*
X159759047Y-113866961D02*
X159663809Y-113962200D01*
X159663809Y-113962200D02*
X159520952Y-114009819D01*
X159520952Y-114009819D02*
X159425714Y-114009819D01*
X160235238Y-113105057D02*
X160282857Y-113057438D01*
X160282857Y-113057438D02*
X160378095Y-113009819D01*
X160378095Y-113009819D02*
X160616190Y-113009819D01*
X160616190Y-113009819D02*
X160711428Y-113057438D01*
X160711428Y-113057438D02*
X160759047Y-113105057D01*
X160759047Y-113105057D02*
X160806666Y-113200295D01*
X160806666Y-113200295D02*
X160806666Y-113295533D01*
X160806666Y-113295533D02*
X160759047Y-113438390D01*
X160759047Y-113438390D02*
X160187619Y-114009819D01*
X160187619Y-114009819D02*
X160806666Y-114009819D01*
X143093333Y-115879580D02*
X143045714Y-115927200D01*
X143045714Y-115927200D02*
X142902857Y-115974819D01*
X142902857Y-115974819D02*
X142807619Y-115974819D01*
X142807619Y-115974819D02*
X142664762Y-115927200D01*
X142664762Y-115927200D02*
X142569524Y-115831961D01*
X142569524Y-115831961D02*
X142521905Y-115736723D01*
X142521905Y-115736723D02*
X142474286Y-115546247D01*
X142474286Y-115546247D02*
X142474286Y-115403390D01*
X142474286Y-115403390D02*
X142521905Y-115212914D01*
X142521905Y-115212914D02*
X142569524Y-115117676D01*
X142569524Y-115117676D02*
X142664762Y-115022438D01*
X142664762Y-115022438D02*
X142807619Y-114974819D01*
X142807619Y-114974819D02*
X142902857Y-114974819D01*
X142902857Y-114974819D02*
X143045714Y-115022438D01*
X143045714Y-115022438D02*
X143093333Y-115070057D01*
X143664762Y-115403390D02*
X143569524Y-115355771D01*
X143569524Y-115355771D02*
X143521905Y-115308152D01*
X143521905Y-115308152D02*
X143474286Y-115212914D01*
X143474286Y-115212914D02*
X143474286Y-115165295D01*
X143474286Y-115165295D02*
X143521905Y-115070057D01*
X143521905Y-115070057D02*
X143569524Y-115022438D01*
X143569524Y-115022438D02*
X143664762Y-114974819D01*
X143664762Y-114974819D02*
X143855238Y-114974819D01*
X143855238Y-114974819D02*
X143950476Y-115022438D01*
X143950476Y-115022438D02*
X143998095Y-115070057D01*
X143998095Y-115070057D02*
X144045714Y-115165295D01*
X144045714Y-115165295D02*
X144045714Y-115212914D01*
X144045714Y-115212914D02*
X143998095Y-115308152D01*
X143998095Y-115308152D02*
X143950476Y-115355771D01*
X143950476Y-115355771D02*
X143855238Y-115403390D01*
X143855238Y-115403390D02*
X143664762Y-115403390D01*
X143664762Y-115403390D02*
X143569524Y-115451009D01*
X143569524Y-115451009D02*
X143521905Y-115498628D01*
X143521905Y-115498628D02*
X143474286Y-115593866D01*
X143474286Y-115593866D02*
X143474286Y-115784342D01*
X143474286Y-115784342D02*
X143521905Y-115879580D01*
X143521905Y-115879580D02*
X143569524Y-115927200D01*
X143569524Y-115927200D02*
X143664762Y-115974819D01*
X143664762Y-115974819D02*
X143855238Y-115974819D01*
X143855238Y-115974819D02*
X143950476Y-115927200D01*
X143950476Y-115927200D02*
X143998095Y-115879580D01*
X143998095Y-115879580D02*
X144045714Y-115784342D01*
X144045714Y-115784342D02*
X144045714Y-115593866D01*
X144045714Y-115593866D02*
X143998095Y-115498628D01*
X143998095Y-115498628D02*
X143950476Y-115451009D01*
X143950476Y-115451009D02*
X143855238Y-115403390D01*
X108473333Y-106279819D02*
X108140000Y-105803628D01*
X107901905Y-106279819D02*
X107901905Y-105279819D01*
X107901905Y-105279819D02*
X108282857Y-105279819D01*
X108282857Y-105279819D02*
X108378095Y-105327438D01*
X108378095Y-105327438D02*
X108425714Y-105375057D01*
X108425714Y-105375057D02*
X108473333Y-105470295D01*
X108473333Y-105470295D02*
X108473333Y-105613152D01*
X108473333Y-105613152D02*
X108425714Y-105708390D01*
X108425714Y-105708390D02*
X108378095Y-105756009D01*
X108378095Y-105756009D02*
X108282857Y-105803628D01*
X108282857Y-105803628D02*
X107901905Y-105803628D01*
X108806667Y-105279819D02*
X109425714Y-105279819D01*
X109425714Y-105279819D02*
X109092381Y-105660771D01*
X109092381Y-105660771D02*
X109235238Y-105660771D01*
X109235238Y-105660771D02*
X109330476Y-105708390D01*
X109330476Y-105708390D02*
X109378095Y-105756009D01*
X109378095Y-105756009D02*
X109425714Y-105851247D01*
X109425714Y-105851247D02*
X109425714Y-106089342D01*
X109425714Y-106089342D02*
X109378095Y-106184580D01*
X109378095Y-106184580D02*
X109330476Y-106232200D01*
X109330476Y-106232200D02*
X109235238Y-106279819D01*
X109235238Y-106279819D02*
X108949524Y-106279819D01*
X108949524Y-106279819D02*
X108854286Y-106232200D01*
X108854286Y-106232200D02*
X108806667Y-106184580D01*
X119723333Y-116129580D02*
X119675714Y-116177200D01*
X119675714Y-116177200D02*
X119532857Y-116224819D01*
X119532857Y-116224819D02*
X119437619Y-116224819D01*
X119437619Y-116224819D02*
X119294762Y-116177200D01*
X119294762Y-116177200D02*
X119199524Y-116081961D01*
X119199524Y-116081961D02*
X119151905Y-115986723D01*
X119151905Y-115986723D02*
X119104286Y-115796247D01*
X119104286Y-115796247D02*
X119104286Y-115653390D01*
X119104286Y-115653390D02*
X119151905Y-115462914D01*
X119151905Y-115462914D02*
X119199524Y-115367676D01*
X119199524Y-115367676D02*
X119294762Y-115272438D01*
X119294762Y-115272438D02*
X119437619Y-115224819D01*
X119437619Y-115224819D02*
X119532857Y-115224819D01*
X119532857Y-115224819D02*
X119675714Y-115272438D01*
X119675714Y-115272438D02*
X119723333Y-115320057D01*
X120056667Y-115224819D02*
X120675714Y-115224819D01*
X120675714Y-115224819D02*
X120342381Y-115605771D01*
X120342381Y-115605771D02*
X120485238Y-115605771D01*
X120485238Y-115605771D02*
X120580476Y-115653390D01*
X120580476Y-115653390D02*
X120628095Y-115701009D01*
X120628095Y-115701009D02*
X120675714Y-115796247D01*
X120675714Y-115796247D02*
X120675714Y-116034342D01*
X120675714Y-116034342D02*
X120628095Y-116129580D01*
X120628095Y-116129580D02*
X120580476Y-116177200D01*
X120580476Y-116177200D02*
X120485238Y-116224819D01*
X120485238Y-116224819D02*
X120199524Y-116224819D01*
X120199524Y-116224819D02*
X120104286Y-116177200D01*
X120104286Y-116177200D02*
X120056667Y-116129580D01*
X106111666Y-125319819D02*
X106111666Y-126034104D01*
X106111666Y-126034104D02*
X106064047Y-126176961D01*
X106064047Y-126176961D02*
X105968809Y-126272200D01*
X105968809Y-126272200D02*
X105825952Y-126319819D01*
X105825952Y-126319819D02*
X105730714Y-126319819D01*
X107111666Y-126319819D02*
X106540238Y-126319819D01*
X106825952Y-126319819D02*
X106825952Y-125319819D01*
X106825952Y-125319819D02*
X106730714Y-125462676D01*
X106730714Y-125462676D02*
X106635476Y-125557914D01*
X106635476Y-125557914D02*
X106540238Y-125605533D01*
X116224587Y-135162071D02*
X116176968Y-135209691D01*
X116176968Y-135209691D02*
X116034111Y-135257310D01*
X116034111Y-135257310D02*
X115938873Y-135257310D01*
X115938873Y-135257310D02*
X115796016Y-135209691D01*
X115796016Y-135209691D02*
X115700778Y-135114452D01*
X115700778Y-135114452D02*
X115653159Y-135019214D01*
X115653159Y-135019214D02*
X115605540Y-134828738D01*
X115605540Y-134828738D02*
X115605540Y-134685881D01*
X115605540Y-134685881D02*
X115653159Y-134495405D01*
X115653159Y-134495405D02*
X115700778Y-134400167D01*
X115700778Y-134400167D02*
X115796016Y-134304929D01*
X115796016Y-134304929D02*
X115938873Y-134257310D01*
X115938873Y-134257310D02*
X116034111Y-134257310D01*
X116034111Y-134257310D02*
X116176968Y-134304929D01*
X116176968Y-134304929D02*
X116224587Y-134352548D01*
X117176968Y-135257310D02*
X116605540Y-135257310D01*
X116891254Y-135257310D02*
X116891254Y-134257310D01*
X116891254Y-134257310D02*
X116796016Y-134400167D01*
X116796016Y-134400167D02*
X116700778Y-134495405D01*
X116700778Y-134495405D02*
X116605540Y-134543024D01*
X124473333Y-110279819D02*
X124140000Y-109803628D01*
X123901905Y-110279819D02*
X123901905Y-109279819D01*
X123901905Y-109279819D02*
X124282857Y-109279819D01*
X124282857Y-109279819D02*
X124378095Y-109327438D01*
X124378095Y-109327438D02*
X124425714Y-109375057D01*
X124425714Y-109375057D02*
X124473333Y-109470295D01*
X124473333Y-109470295D02*
X124473333Y-109613152D01*
X124473333Y-109613152D02*
X124425714Y-109708390D01*
X124425714Y-109708390D02*
X124378095Y-109756009D01*
X124378095Y-109756009D02*
X124282857Y-109803628D01*
X124282857Y-109803628D02*
X123901905Y-109803628D01*
X125378095Y-109279819D02*
X124901905Y-109279819D01*
X124901905Y-109279819D02*
X124854286Y-109756009D01*
X124854286Y-109756009D02*
X124901905Y-109708390D01*
X124901905Y-109708390D02*
X124997143Y-109660771D01*
X124997143Y-109660771D02*
X125235238Y-109660771D01*
X125235238Y-109660771D02*
X125330476Y-109708390D01*
X125330476Y-109708390D02*
X125378095Y-109756009D01*
X125378095Y-109756009D02*
X125425714Y-109851247D01*
X125425714Y-109851247D02*
X125425714Y-110089342D01*
X125425714Y-110089342D02*
X125378095Y-110184580D01*
X125378095Y-110184580D02*
X125330476Y-110232200D01*
X125330476Y-110232200D02*
X125235238Y-110279819D01*
X125235238Y-110279819D02*
X124997143Y-110279819D01*
X124997143Y-110279819D02*
X124901905Y-110232200D01*
X124901905Y-110232200D02*
X124854286Y-110184580D01*
X148473333Y-123724580D02*
X148425714Y-123772200D01*
X148425714Y-123772200D02*
X148282857Y-123819819D01*
X148282857Y-123819819D02*
X148187619Y-123819819D01*
X148187619Y-123819819D02*
X148044762Y-123772200D01*
X148044762Y-123772200D02*
X147949524Y-123676961D01*
X147949524Y-123676961D02*
X147901905Y-123581723D01*
X147901905Y-123581723D02*
X147854286Y-123391247D01*
X147854286Y-123391247D02*
X147854286Y-123248390D01*
X147854286Y-123248390D02*
X147901905Y-123057914D01*
X147901905Y-123057914D02*
X147949524Y-122962676D01*
X147949524Y-122962676D02*
X148044762Y-122867438D01*
X148044762Y-122867438D02*
X148187619Y-122819819D01*
X148187619Y-122819819D02*
X148282857Y-122819819D01*
X148282857Y-122819819D02*
X148425714Y-122867438D01*
X148425714Y-122867438D02*
X148473333Y-122915057D01*
X149330476Y-122819819D02*
X149140000Y-122819819D01*
X149140000Y-122819819D02*
X149044762Y-122867438D01*
X149044762Y-122867438D02*
X148997143Y-122915057D01*
X148997143Y-122915057D02*
X148901905Y-123057914D01*
X148901905Y-123057914D02*
X148854286Y-123248390D01*
X148854286Y-123248390D02*
X148854286Y-123629342D01*
X148854286Y-123629342D02*
X148901905Y-123724580D01*
X148901905Y-123724580D02*
X148949524Y-123772200D01*
X148949524Y-123772200D02*
X149044762Y-123819819D01*
X149044762Y-123819819D02*
X149235238Y-123819819D01*
X149235238Y-123819819D02*
X149330476Y-123772200D01*
X149330476Y-123772200D02*
X149378095Y-123724580D01*
X149378095Y-123724580D02*
X149425714Y-123629342D01*
X149425714Y-123629342D02*
X149425714Y-123391247D01*
X149425714Y-123391247D02*
X149378095Y-123296009D01*
X149378095Y-123296009D02*
X149330476Y-123248390D01*
X149330476Y-123248390D02*
X149235238Y-123200771D01*
X149235238Y-123200771D02*
X149044762Y-123200771D01*
X149044762Y-123200771D02*
X148949524Y-123248390D01*
X148949524Y-123248390D02*
X148901905Y-123296009D01*
X148901905Y-123296009D02*
X148854286Y-123391247D01*
X112473333Y-106279819D02*
X112140000Y-105803628D01*
X111901905Y-106279819D02*
X111901905Y-105279819D01*
X111901905Y-105279819D02*
X112282857Y-105279819D01*
X112282857Y-105279819D02*
X112378095Y-105327438D01*
X112378095Y-105327438D02*
X112425714Y-105375057D01*
X112425714Y-105375057D02*
X112473333Y-105470295D01*
X112473333Y-105470295D02*
X112473333Y-105613152D01*
X112473333Y-105613152D02*
X112425714Y-105708390D01*
X112425714Y-105708390D02*
X112378095Y-105756009D01*
X112378095Y-105756009D02*
X112282857Y-105803628D01*
X112282857Y-105803628D02*
X111901905Y-105803628D01*
X113330476Y-105613152D02*
X113330476Y-106279819D01*
X113092381Y-105232200D02*
X112854286Y-105946485D01*
X112854286Y-105946485D02*
X113473333Y-105946485D01*
X136188095Y-120144819D02*
X136188095Y-120954342D01*
X136188095Y-120954342D02*
X136235714Y-121049580D01*
X136235714Y-121049580D02*
X136283333Y-121097200D01*
X136283333Y-121097200D02*
X136378571Y-121144819D01*
X136378571Y-121144819D02*
X136569047Y-121144819D01*
X136569047Y-121144819D02*
X136664285Y-121097200D01*
X136664285Y-121097200D02*
X136711904Y-121049580D01*
X136711904Y-121049580D02*
X136759523Y-120954342D01*
X136759523Y-120954342D02*
X136759523Y-120144819D01*
X137759523Y-121144819D02*
X137188095Y-121144819D01*
X137473809Y-121144819D02*
X137473809Y-120144819D01*
X137473809Y-120144819D02*
X137378571Y-120287676D01*
X137378571Y-120287676D02*
X137283333Y-120382914D01*
X137283333Y-120382914D02*
X137188095Y-120430533D01*
X148783333Y-139334819D02*
X148450000Y-138858628D01*
X148211905Y-139334819D02*
X148211905Y-138334819D01*
X148211905Y-138334819D02*
X148592857Y-138334819D01*
X148592857Y-138334819D02*
X148688095Y-138382438D01*
X148688095Y-138382438D02*
X148735714Y-138430057D01*
X148735714Y-138430057D02*
X148783333Y-138525295D01*
X148783333Y-138525295D02*
X148783333Y-138668152D01*
X148783333Y-138668152D02*
X148735714Y-138763390D01*
X148735714Y-138763390D02*
X148688095Y-138811009D01*
X148688095Y-138811009D02*
X148592857Y-138858628D01*
X148592857Y-138858628D02*
X148211905Y-138858628D01*
X149116667Y-138334819D02*
X149783333Y-138334819D01*
X149783333Y-138334819D02*
X149354762Y-139334819D01*
X144973333Y-123819819D02*
X144640000Y-123343628D01*
X144401905Y-123819819D02*
X144401905Y-122819819D01*
X144401905Y-122819819D02*
X144782857Y-122819819D01*
X144782857Y-122819819D02*
X144878095Y-122867438D01*
X144878095Y-122867438D02*
X144925714Y-122915057D01*
X144925714Y-122915057D02*
X144973333Y-123010295D01*
X144973333Y-123010295D02*
X144973333Y-123153152D01*
X144973333Y-123153152D02*
X144925714Y-123248390D01*
X144925714Y-123248390D02*
X144878095Y-123296009D01*
X144878095Y-123296009D02*
X144782857Y-123343628D01*
X144782857Y-123343628D02*
X144401905Y-123343628D01*
X145544762Y-123248390D02*
X145449524Y-123200771D01*
X145449524Y-123200771D02*
X145401905Y-123153152D01*
X145401905Y-123153152D02*
X145354286Y-123057914D01*
X145354286Y-123057914D02*
X145354286Y-123010295D01*
X145354286Y-123010295D02*
X145401905Y-122915057D01*
X145401905Y-122915057D02*
X145449524Y-122867438D01*
X145449524Y-122867438D02*
X145544762Y-122819819D01*
X145544762Y-122819819D02*
X145735238Y-122819819D01*
X145735238Y-122819819D02*
X145830476Y-122867438D01*
X145830476Y-122867438D02*
X145878095Y-122915057D01*
X145878095Y-122915057D02*
X145925714Y-123010295D01*
X145925714Y-123010295D02*
X145925714Y-123057914D01*
X145925714Y-123057914D02*
X145878095Y-123153152D01*
X145878095Y-123153152D02*
X145830476Y-123200771D01*
X145830476Y-123200771D02*
X145735238Y-123248390D01*
X145735238Y-123248390D02*
X145544762Y-123248390D01*
X145544762Y-123248390D02*
X145449524Y-123296009D01*
X145449524Y-123296009D02*
X145401905Y-123343628D01*
X145401905Y-123343628D02*
X145354286Y-123438866D01*
X145354286Y-123438866D02*
X145354286Y-123629342D01*
X145354286Y-123629342D02*
X145401905Y-123724580D01*
X145401905Y-123724580D02*
X145449524Y-123772200D01*
X145449524Y-123772200D02*
X145544762Y-123819819D01*
X145544762Y-123819819D02*
X145735238Y-123819819D01*
X145735238Y-123819819D02*
X145830476Y-123772200D01*
X145830476Y-123772200D02*
X145878095Y-123724580D01*
X145878095Y-123724580D02*
X145925714Y-123629342D01*
X145925714Y-123629342D02*
X145925714Y-123438866D01*
X145925714Y-123438866D02*
X145878095Y-123343628D01*
X145878095Y-123343628D02*
X145830476Y-123296009D01*
X145830476Y-123296009D02*
X145735238Y-123248390D01*
X157224587Y-132977089D02*
X157176968Y-133024709D01*
X157176968Y-133024709D02*
X157034111Y-133072328D01*
X157034111Y-133072328D02*
X156938873Y-133072328D01*
X156938873Y-133072328D02*
X156796016Y-133024709D01*
X156796016Y-133024709D02*
X156700778Y-132929470D01*
X156700778Y-132929470D02*
X156653159Y-132834232D01*
X156653159Y-132834232D02*
X156605540Y-132643756D01*
X156605540Y-132643756D02*
X156605540Y-132500899D01*
X156605540Y-132500899D02*
X156653159Y-132310423D01*
X156653159Y-132310423D02*
X156700778Y-132215185D01*
X156700778Y-132215185D02*
X156796016Y-132119947D01*
X156796016Y-132119947D02*
X156938873Y-132072328D01*
X156938873Y-132072328D02*
X157034111Y-132072328D01*
X157034111Y-132072328D02*
X157176968Y-132119947D01*
X157176968Y-132119947D02*
X157224587Y-132167566D01*
X158129349Y-132072328D02*
X157653159Y-132072328D01*
X157653159Y-132072328D02*
X157605540Y-132548518D01*
X157605540Y-132548518D02*
X157653159Y-132500899D01*
X157653159Y-132500899D02*
X157748397Y-132453280D01*
X157748397Y-132453280D02*
X157986492Y-132453280D01*
X157986492Y-132453280D02*
X158081730Y-132500899D01*
X158081730Y-132500899D02*
X158129349Y-132548518D01*
X158129349Y-132548518D02*
X158176968Y-132643756D01*
X158176968Y-132643756D02*
X158176968Y-132881851D01*
X158176968Y-132881851D02*
X158129349Y-132977089D01*
X158129349Y-132977089D02*
X158081730Y-133024709D01*
X158081730Y-133024709D02*
X157986492Y-133072328D01*
X157986492Y-133072328D02*
X157748397Y-133072328D01*
X157748397Y-133072328D02*
X157653159Y-133024709D01*
X157653159Y-133024709D02*
X157605540Y-132977089D01*
X103973333Y-106279819D02*
X103640000Y-105803628D01*
X103401905Y-106279819D02*
X103401905Y-105279819D01*
X103401905Y-105279819D02*
X103782857Y-105279819D01*
X103782857Y-105279819D02*
X103878095Y-105327438D01*
X103878095Y-105327438D02*
X103925714Y-105375057D01*
X103925714Y-105375057D02*
X103973333Y-105470295D01*
X103973333Y-105470295D02*
X103973333Y-105613152D01*
X103973333Y-105613152D02*
X103925714Y-105708390D01*
X103925714Y-105708390D02*
X103878095Y-105756009D01*
X103878095Y-105756009D02*
X103782857Y-105803628D01*
X103782857Y-105803628D02*
X103401905Y-105803628D01*
X104925714Y-106279819D02*
X104354286Y-106279819D01*
X104640000Y-106279819D02*
X104640000Y-105279819D01*
X104640000Y-105279819D02*
X104544762Y-105422676D01*
X104544762Y-105422676D02*
X104449524Y-105517914D01*
X104449524Y-105517914D02*
X104354286Y-105565533D01*
X152973333Y-119649819D02*
X152640000Y-119173628D01*
X152401905Y-119649819D02*
X152401905Y-118649819D01*
X152401905Y-118649819D02*
X152782857Y-118649819D01*
X152782857Y-118649819D02*
X152878095Y-118697438D01*
X152878095Y-118697438D02*
X152925714Y-118745057D01*
X152925714Y-118745057D02*
X152973333Y-118840295D01*
X152973333Y-118840295D02*
X152973333Y-118983152D01*
X152973333Y-118983152D02*
X152925714Y-119078390D01*
X152925714Y-119078390D02*
X152878095Y-119126009D01*
X152878095Y-119126009D02*
X152782857Y-119173628D01*
X152782857Y-119173628D02*
X152401905Y-119173628D01*
X153449524Y-119649819D02*
X153640000Y-119649819D01*
X153640000Y-119649819D02*
X153735238Y-119602200D01*
X153735238Y-119602200D02*
X153782857Y-119554580D01*
X153782857Y-119554580D02*
X153878095Y-119411723D01*
X153878095Y-119411723D02*
X153925714Y-119221247D01*
X153925714Y-119221247D02*
X153925714Y-118840295D01*
X153925714Y-118840295D02*
X153878095Y-118745057D01*
X153878095Y-118745057D02*
X153830476Y-118697438D01*
X153830476Y-118697438D02*
X153735238Y-118649819D01*
X153735238Y-118649819D02*
X153544762Y-118649819D01*
X153544762Y-118649819D02*
X153449524Y-118697438D01*
X153449524Y-118697438D02*
X153401905Y-118745057D01*
X153401905Y-118745057D02*
X153354286Y-118840295D01*
X153354286Y-118840295D02*
X153354286Y-119078390D01*
X153354286Y-119078390D02*
X153401905Y-119173628D01*
X153401905Y-119173628D02*
X153449524Y-119221247D01*
X153449524Y-119221247D02*
X153544762Y-119268866D01*
X153544762Y-119268866D02*
X153735238Y-119268866D01*
X153735238Y-119268866D02*
X153830476Y-119221247D01*
X153830476Y-119221247D02*
X153878095Y-119173628D01*
X153878095Y-119173628D02*
X153925714Y-119078390D01*
X159999580Y-119686666D02*
X160047200Y-119734285D01*
X160047200Y-119734285D02*
X160094819Y-119877142D01*
X160094819Y-119877142D02*
X160094819Y-119972380D01*
X160094819Y-119972380D02*
X160047200Y-120115237D01*
X160047200Y-120115237D02*
X159951961Y-120210475D01*
X159951961Y-120210475D02*
X159856723Y-120258094D01*
X159856723Y-120258094D02*
X159666247Y-120305713D01*
X159666247Y-120305713D02*
X159523390Y-120305713D01*
X159523390Y-120305713D02*
X159332914Y-120258094D01*
X159332914Y-120258094D02*
X159237676Y-120210475D01*
X159237676Y-120210475D02*
X159142438Y-120115237D01*
X159142438Y-120115237D02*
X159094819Y-119972380D01*
X159094819Y-119972380D02*
X159094819Y-119877142D01*
X159094819Y-119877142D02*
X159142438Y-119734285D01*
X159142438Y-119734285D02*
X159190057Y-119686666D01*
X159094819Y-119353332D02*
X159094819Y-118686666D01*
X159094819Y-118686666D02*
X160094819Y-119115237D01*
X120239819Y-121166666D02*
X119763628Y-121499999D01*
X120239819Y-121738094D02*
X119239819Y-121738094D01*
X119239819Y-121738094D02*
X119239819Y-121357142D01*
X119239819Y-121357142D02*
X119287438Y-121261904D01*
X119287438Y-121261904D02*
X119335057Y-121214285D01*
X119335057Y-121214285D02*
X119430295Y-121166666D01*
X119430295Y-121166666D02*
X119573152Y-121166666D01*
X119573152Y-121166666D02*
X119668390Y-121214285D01*
X119668390Y-121214285D02*
X119716009Y-121261904D01*
X119716009Y-121261904D02*
X119763628Y-121357142D01*
X119763628Y-121357142D02*
X119763628Y-121738094D01*
X119335057Y-120785713D02*
X119287438Y-120738094D01*
X119287438Y-120738094D02*
X119239819Y-120642856D01*
X119239819Y-120642856D02*
X119239819Y-120404761D01*
X119239819Y-120404761D02*
X119287438Y-120309523D01*
X119287438Y-120309523D02*
X119335057Y-120261904D01*
X119335057Y-120261904D02*
X119430295Y-120214285D01*
X119430295Y-120214285D02*
X119525533Y-120214285D01*
X119525533Y-120214285D02*
X119668390Y-120261904D01*
X119668390Y-120261904D02*
X120239819Y-120833332D01*
X120239819Y-120833332D02*
X120239819Y-120214285D01*
X131473333Y-109879580D02*
X131425714Y-109927200D01*
X131425714Y-109927200D02*
X131282857Y-109974819D01*
X131282857Y-109974819D02*
X131187619Y-109974819D01*
X131187619Y-109974819D02*
X131044762Y-109927200D01*
X131044762Y-109927200D02*
X130949524Y-109831961D01*
X130949524Y-109831961D02*
X130901905Y-109736723D01*
X130901905Y-109736723D02*
X130854286Y-109546247D01*
X130854286Y-109546247D02*
X130854286Y-109403390D01*
X130854286Y-109403390D02*
X130901905Y-109212914D01*
X130901905Y-109212914D02*
X130949524Y-109117676D01*
X130949524Y-109117676D02*
X131044762Y-109022438D01*
X131044762Y-109022438D02*
X131187619Y-108974819D01*
X131187619Y-108974819D02*
X131282857Y-108974819D01*
X131282857Y-108974819D02*
X131425714Y-109022438D01*
X131425714Y-109022438D02*
X131473333Y-109070057D01*
X132330476Y-109308152D02*
X132330476Y-109974819D01*
X132092381Y-108927200D02*
X131854286Y-109641485D01*
X131854286Y-109641485D02*
X132473333Y-109641485D01*
%TO.C,R6*%
D10*
X128680000Y-115150000D02*
X135220000Y-115150000D01*
X128680000Y-115480000D02*
X128680000Y-115150000D01*
X128680000Y-117560000D02*
X128680000Y-117890000D01*
X128680000Y-117890000D02*
X135220000Y-117890000D01*
X135220000Y-115150000D02*
X135220000Y-115480000D01*
X135220000Y-117890000D02*
X135220000Y-117560000D01*
%TO.C,C2*%
X108585225Y-119045000D02*
X109085225Y-119045000D01*
X108835225Y-118795000D02*
X108835225Y-119295000D01*
X111390000Y-117940000D02*
X111390000Y-123100000D01*
X111430000Y-117940000D02*
X111430000Y-123100000D01*
X111470000Y-117941000D02*
X111470000Y-123099000D01*
X111510000Y-117943000D02*
X111510000Y-123097000D01*
X111550000Y-117945000D02*
X111550000Y-123095000D01*
X111590000Y-117948000D02*
X111590000Y-123092000D01*
X111630000Y-117951000D02*
X111630000Y-119480000D01*
X111630000Y-121560000D02*
X111630000Y-123089000D01*
X111670000Y-117955000D02*
X111670000Y-119480000D01*
X111670000Y-121560000D02*
X111670000Y-123085000D01*
X111710000Y-117960000D02*
X111710000Y-119480000D01*
X111710000Y-121560000D02*
X111710000Y-123080000D01*
X111750000Y-117965000D02*
X111750000Y-119480000D01*
X111750000Y-121560000D02*
X111750000Y-123075000D01*
X111790000Y-117971000D02*
X111790000Y-119480000D01*
X111790000Y-121560000D02*
X111790000Y-123069000D01*
X111830000Y-117977000D02*
X111830000Y-119480000D01*
X111830000Y-121560000D02*
X111830000Y-123063000D01*
X111870000Y-117984000D02*
X111870000Y-119480000D01*
X111870000Y-121560000D02*
X111870000Y-123056000D01*
X111910000Y-117992000D02*
X111910000Y-119480000D01*
X111910000Y-121560000D02*
X111910000Y-123048000D01*
X111950000Y-118001000D02*
X111950000Y-119480000D01*
X111950000Y-121560000D02*
X111950000Y-123039000D01*
X111990000Y-118010000D02*
X111990000Y-119480000D01*
X111990000Y-121560000D02*
X111990000Y-123030000D01*
X112030000Y-118019000D02*
X112030000Y-119480000D01*
X112030000Y-121560000D02*
X112030000Y-123021000D01*
X112070000Y-118030000D02*
X112070000Y-119480000D01*
X112070000Y-121560000D02*
X112070000Y-123010000D01*
X112110000Y-118041000D02*
X112110000Y-119480000D01*
X112110000Y-121560000D02*
X112110000Y-122999000D01*
X112150000Y-118053000D02*
X112150000Y-119480000D01*
X112150000Y-121560000D02*
X112150000Y-122987000D01*
X112190000Y-118065000D02*
X112190000Y-119480000D01*
X112190000Y-121560000D02*
X112190000Y-122975000D01*
X112230000Y-118078000D02*
X112230000Y-119480000D01*
X112230000Y-121560000D02*
X112230000Y-122962000D01*
X112270000Y-118092000D02*
X112270000Y-119480000D01*
X112270000Y-121560000D02*
X112270000Y-122948000D01*
X112310000Y-118107000D02*
X112310000Y-119480000D01*
X112310000Y-121560000D02*
X112310000Y-122933000D01*
X112350000Y-118122000D02*
X112350000Y-119480000D01*
X112350000Y-121560000D02*
X112350000Y-122918000D01*
X112390000Y-118138000D02*
X112390000Y-119480000D01*
X112390000Y-121560000D02*
X112390000Y-122902000D01*
X112430000Y-118155000D02*
X112430000Y-119480000D01*
X112430000Y-121560000D02*
X112430000Y-122885000D01*
X112470000Y-118173000D02*
X112470000Y-119480000D01*
X112470000Y-121560000D02*
X112470000Y-122867000D01*
X112510000Y-118191000D02*
X112510000Y-119480000D01*
X112510000Y-121560000D02*
X112510000Y-122849000D01*
X112550000Y-118211000D02*
X112550000Y-119480000D01*
X112550000Y-121560000D02*
X112550000Y-122829000D01*
X112590000Y-118231000D02*
X112590000Y-119480000D01*
X112590000Y-121560000D02*
X112590000Y-122809000D01*
X112630000Y-118252000D02*
X112630000Y-119480000D01*
X112630000Y-121560000D02*
X112630000Y-122788000D01*
X112670000Y-118274000D02*
X112670000Y-119480000D01*
X112670000Y-121560000D02*
X112670000Y-122766000D01*
X112710000Y-118297000D02*
X112710000Y-119480000D01*
X112710000Y-121560000D02*
X112710000Y-122743000D01*
X112750000Y-118321000D02*
X112750000Y-119480000D01*
X112750000Y-121560000D02*
X112750000Y-122719000D01*
X112790000Y-118345000D02*
X112790000Y-119480000D01*
X112790000Y-121560000D02*
X112790000Y-122695000D01*
X112830000Y-118371000D02*
X112830000Y-119480000D01*
X112830000Y-121560000D02*
X112830000Y-122669000D01*
X112870000Y-118398000D02*
X112870000Y-119480000D01*
X112870000Y-121560000D02*
X112870000Y-122642000D01*
X112910000Y-118426000D02*
X112910000Y-119480000D01*
X112910000Y-121560000D02*
X112910000Y-122614000D01*
X112950000Y-118455000D02*
X112950000Y-119480000D01*
X112950000Y-121560000D02*
X112950000Y-122585000D01*
X112990000Y-118485000D02*
X112990000Y-119480000D01*
X112990000Y-121560000D02*
X112990000Y-122555000D01*
X113030000Y-118517000D02*
X113030000Y-119480000D01*
X113030000Y-121560000D02*
X113030000Y-122523000D01*
X113070000Y-118550000D02*
X113070000Y-119480000D01*
X113070000Y-121560000D02*
X113070000Y-122490000D01*
X113110000Y-118584000D02*
X113110000Y-119480000D01*
X113110000Y-121560000D02*
X113110000Y-122456000D01*
X113150000Y-118619000D02*
X113150000Y-119480000D01*
X113150000Y-121560000D02*
X113150000Y-122421000D01*
X113190000Y-118656000D02*
X113190000Y-119480000D01*
X113190000Y-121560000D02*
X113190000Y-122384000D01*
X113230000Y-118695000D02*
X113230000Y-119480000D01*
X113230000Y-121560000D02*
X113230000Y-122345000D01*
X113270000Y-118735000D02*
X113270000Y-119480000D01*
X113270000Y-121560000D02*
X113270000Y-122305000D01*
X113310000Y-118777000D02*
X113310000Y-119480000D01*
X113310000Y-121560000D02*
X113310000Y-122263000D01*
X113350000Y-118821000D02*
X113350000Y-119480000D01*
X113350000Y-121560000D02*
X113350000Y-122219000D01*
X113390000Y-118868000D02*
X113390000Y-119480000D01*
X113390000Y-121560000D02*
X113390000Y-122172000D01*
X113430000Y-118916000D02*
X113430000Y-119480000D01*
X113430000Y-121560000D02*
X113430000Y-122124000D01*
X113470000Y-118967000D02*
X113470000Y-119480000D01*
X113470000Y-121560000D02*
X113470000Y-122073000D01*
X113510000Y-119021000D02*
X113510000Y-119480000D01*
X113510000Y-121560000D02*
X113510000Y-122019000D01*
X113550000Y-119077000D02*
X113550000Y-119480000D01*
X113550000Y-121560000D02*
X113550000Y-121963000D01*
X113590000Y-119137000D02*
X113590000Y-119480000D01*
X113590000Y-121560000D02*
X113590000Y-121903000D01*
X113630000Y-119201000D02*
X113630000Y-119480000D01*
X113630000Y-121560000D02*
X113630000Y-121839000D01*
X113670000Y-119269000D02*
X113670000Y-119480000D01*
X113670000Y-121560000D02*
X113670000Y-121771000D01*
X113710000Y-119343000D02*
X113710000Y-121697000D01*
X113750000Y-119422000D02*
X113750000Y-121618000D01*
X113790000Y-119509000D02*
X113790000Y-121531000D01*
X113830000Y-119606000D02*
X113830000Y-121434000D01*
X113870000Y-119715000D02*
X113870000Y-121325000D01*
X113910000Y-119843000D02*
X113910000Y-121197000D01*
X113950000Y-120003000D02*
X113950000Y-121037000D01*
X113990000Y-120237000D02*
X113990000Y-120803000D01*
X114010000Y-120520000D02*
G75*
G02*
X108770000Y-120520000I-2620000J0D01*
G01*
X108770000Y-120520000D02*
G75*
G02*
X114010000Y-120520000I2620000J0D01*
G01*
%TO.C,J2*%
X158760000Y-101640000D02*
X160140000Y-101640000D01*
X158760000Y-103020000D02*
X158760000Y-101640000D01*
X158760000Y-104290000D02*
X158760000Y-112020000D01*
X158760000Y-104290000D02*
X161520000Y-104290000D01*
X158760000Y-112020000D02*
X161520000Y-112020000D01*
X161520000Y-104290000D02*
X161520000Y-112020000D01*
%TO.C,C8*%
X140640000Y-116650000D02*
X145880000Y-116650000D01*
X140640000Y-116987000D02*
X140640000Y-116650000D01*
X140640000Y-119390000D02*
X140640000Y-119053000D01*
X145880000Y-116650000D02*
X145880000Y-116987000D01*
X145880000Y-119053000D02*
X145880000Y-119390000D01*
X145880000Y-119390000D02*
X140640000Y-119390000D01*
%TO.C,R3*%
X107270000Y-108560000D02*
X107270000Y-115100000D01*
X107270000Y-115100000D02*
X107600000Y-115100000D01*
X107600000Y-108560000D02*
X107270000Y-108560000D01*
X109680000Y-108560000D02*
X110010000Y-108560000D01*
X110010000Y-108560000D02*
X110010000Y-115100000D01*
X110010000Y-115100000D02*
X109680000Y-115100000D01*
%TO.C,C3*%
X117290000Y-112303000D02*
X117290000Y-111737000D01*
X117330000Y-112537000D02*
X117330000Y-111503000D01*
X117370000Y-112697000D02*
X117370000Y-111343000D01*
X117410000Y-112825000D02*
X117410000Y-111215000D01*
X117450000Y-112934000D02*
X117450000Y-111106000D01*
X117490000Y-113031000D02*
X117490000Y-111009000D01*
X117530000Y-113118000D02*
X117530000Y-110922000D01*
X117570000Y-113197000D02*
X117570000Y-110843000D01*
X117610000Y-110980000D02*
X117610000Y-110769000D01*
X117610000Y-113271000D02*
X117610000Y-113060000D01*
X117650000Y-110980000D02*
X117650000Y-110701000D01*
X117650000Y-113339000D02*
X117650000Y-113060000D01*
X117690000Y-110980000D02*
X117690000Y-110637000D01*
X117690000Y-113403000D02*
X117690000Y-113060000D01*
X117730000Y-110980000D02*
X117730000Y-110577000D01*
X117730000Y-113463000D02*
X117730000Y-113060000D01*
X117770000Y-110980000D02*
X117770000Y-110521000D01*
X117770000Y-113519000D02*
X117770000Y-113060000D01*
X117810000Y-110980000D02*
X117810000Y-110467000D01*
X117810000Y-113573000D02*
X117810000Y-113060000D01*
X117850000Y-110980000D02*
X117850000Y-110416000D01*
X117850000Y-113624000D02*
X117850000Y-113060000D01*
X117890000Y-110980000D02*
X117890000Y-110368000D01*
X117890000Y-113672000D02*
X117890000Y-113060000D01*
X117930000Y-110980000D02*
X117930000Y-110321000D01*
X117930000Y-113719000D02*
X117930000Y-113060000D01*
X117970000Y-110980000D02*
X117970000Y-110277000D01*
X117970000Y-113763000D02*
X117970000Y-113060000D01*
X118010000Y-110980000D02*
X118010000Y-110235000D01*
X118010000Y-113805000D02*
X118010000Y-113060000D01*
X118050000Y-110980000D02*
X118050000Y-110195000D01*
X118050000Y-113845000D02*
X118050000Y-113060000D01*
X118090000Y-110980000D02*
X118090000Y-110156000D01*
X118090000Y-113884000D02*
X118090000Y-113060000D01*
X118130000Y-110980000D02*
X118130000Y-110119000D01*
X118130000Y-113921000D02*
X118130000Y-113060000D01*
X118170000Y-110980000D02*
X118170000Y-110084000D01*
X118170000Y-113956000D02*
X118170000Y-113060000D01*
X118210000Y-110980000D02*
X118210000Y-110050000D01*
X118210000Y-113990000D02*
X118210000Y-113060000D01*
X118250000Y-110980000D02*
X118250000Y-110017000D01*
X118250000Y-114023000D02*
X118250000Y-113060000D01*
X118290000Y-110980000D02*
X118290000Y-109985000D01*
X118290000Y-114055000D02*
X118290000Y-113060000D01*
X118330000Y-110980000D02*
X118330000Y-109955000D01*
X118330000Y-114085000D02*
X118330000Y-113060000D01*
X118370000Y-110980000D02*
X118370000Y-109926000D01*
X118370000Y-114114000D02*
X118370000Y-113060000D01*
X118410000Y-110980000D02*
X118410000Y-109898000D01*
X118410000Y-114142000D02*
X118410000Y-113060000D01*
X118450000Y-110980000D02*
X118450000Y-109871000D01*
X118450000Y-114169000D02*
X118450000Y-113060000D01*
X118490000Y-110980000D02*
X118490000Y-109845000D01*
X118490000Y-114195000D02*
X118490000Y-113060000D01*
X118530000Y-110980000D02*
X118530000Y-109821000D01*
X118530000Y-114219000D02*
X118530000Y-113060000D01*
X118570000Y-110980000D02*
X118570000Y-109797000D01*
X118570000Y-114243000D02*
X118570000Y-113060000D01*
X118610000Y-110980000D02*
X118610000Y-109774000D01*
X118610000Y-114266000D02*
X118610000Y-113060000D01*
X118650000Y-110980000D02*
X118650000Y-109752000D01*
X118650000Y-114288000D02*
X118650000Y-113060000D01*
X118690000Y-110980000D02*
X118690000Y-109731000D01*
X118690000Y-114309000D02*
X118690000Y-113060000D01*
X118730000Y-110980000D02*
X118730000Y-109711000D01*
X118730000Y-114329000D02*
X118730000Y-113060000D01*
X118770000Y-110980000D02*
X118770000Y-109691000D01*
X118770000Y-114349000D02*
X118770000Y-113060000D01*
X118810000Y-110980000D02*
X118810000Y-109673000D01*
X118810000Y-114367000D02*
X118810000Y-113060000D01*
X118850000Y-110980000D02*
X118850000Y-109655000D01*
X118850000Y-114385000D02*
X118850000Y-113060000D01*
X118890000Y-110980000D02*
X118890000Y-109638000D01*
X118890000Y-114402000D02*
X118890000Y-113060000D01*
X118930000Y-110980000D02*
X118930000Y-109622000D01*
X118930000Y-114418000D02*
X118930000Y-113060000D01*
X118970000Y-110980000D02*
X118970000Y-109607000D01*
X118970000Y-114433000D02*
X118970000Y-113060000D01*
X119010000Y-110980000D02*
X119010000Y-109592000D01*
X119010000Y-114448000D02*
X119010000Y-113060000D01*
X119050000Y-110980000D02*
X119050000Y-109578000D01*
X119050000Y-114462000D02*
X119050000Y-113060000D01*
X119090000Y-110980000D02*
X119090000Y-109565000D01*
X119090000Y-114475000D02*
X119090000Y-113060000D01*
X119130000Y-110980000D02*
X119130000Y-109553000D01*
X119130000Y-114487000D02*
X119130000Y-113060000D01*
X119170000Y-110980000D02*
X119170000Y-109541000D01*
X119170000Y-114499000D02*
X119170000Y-113060000D01*
X119210000Y-110980000D02*
X119210000Y-109530000D01*
X119210000Y-114510000D02*
X119210000Y-113060000D01*
X119250000Y-110980000D02*
X119250000Y-109519000D01*
X119250000Y-114521000D02*
X119250000Y-113060000D01*
X119290000Y-110980000D02*
X119290000Y-109510000D01*
X119290000Y-114530000D02*
X119290000Y-113060000D01*
X119330000Y-110980000D02*
X119330000Y-109501000D01*
X119330000Y-114539000D02*
X119330000Y-113060000D01*
X119370000Y-110980000D02*
X119370000Y-109492000D01*
X119370000Y-114548000D02*
X119370000Y-113060000D01*
X119410000Y-110980000D02*
X119410000Y-109484000D01*
X119410000Y-114556000D02*
X119410000Y-113060000D01*
X119450000Y-110980000D02*
X119450000Y-109477000D01*
X119450000Y-114563000D02*
X119450000Y-113060000D01*
X119490000Y-110980000D02*
X119490000Y-109471000D01*
X119490000Y-114569000D02*
X119490000Y-113060000D01*
X119530000Y-110980000D02*
X119530000Y-109465000D01*
X119530000Y-114575000D02*
X119530000Y-113060000D01*
X119570000Y-110980000D02*
X119570000Y-109460000D01*
X119570000Y-114580000D02*
X119570000Y-113060000D01*
X119610000Y-110980000D02*
X119610000Y-109455000D01*
X119610000Y-114585000D02*
X119610000Y-113060000D01*
X119650000Y-110980000D02*
X119650000Y-109451000D01*
X119650000Y-114589000D02*
X119650000Y-113060000D01*
X119690000Y-114592000D02*
X119690000Y-109448000D01*
X119730000Y-114595000D02*
X119730000Y-109445000D01*
X119770000Y-114597000D02*
X119770000Y-109443000D01*
X119810000Y-114599000D02*
X119810000Y-109441000D01*
X119850000Y-114600000D02*
X119850000Y-109440000D01*
X119890000Y-114600000D02*
X119890000Y-109440000D01*
X122444775Y-113745000D02*
X122444775Y-113245000D01*
X122694775Y-113495000D02*
X122194775Y-113495000D01*
X122510000Y-112020000D02*
G75*
G02*
X117270000Y-112020000I-2620000J0D01*
G01*
X117270000Y-112020000D02*
G75*
G02*
X122510000Y-112020000I2620000J0D01*
G01*
%TO.C,J1*%
X101420000Y-127390000D02*
X111460000Y-127390000D01*
X101420000Y-129710000D02*
X101420000Y-127390000D01*
X101420000Y-137630000D02*
X101420000Y-130310000D01*
X102040000Y-127390000D02*
X102040000Y-137630000D01*
X103540000Y-127390000D02*
X103540000Y-137630000D01*
X108440000Y-127390000D02*
X108440000Y-137630000D01*
X111460000Y-127390000D02*
X111460000Y-137630000D01*
X111460000Y-137630000D02*
X101420000Y-137630000D01*
X101420000Y-130010000D02*
X100810000Y-130450000D01*
X100810000Y-129570000D01*
X101420000Y-130010000D01*
G36*
X101420000Y-130010000D02*
G01*
X100810000Y-130450000D01*
X100810000Y-129570000D01*
X101420000Y-130010000D01*
G37*
%TO.C,C1*%
X113585225Y-129535000D02*
X114085225Y-129535000D01*
X113835225Y-129285000D02*
X113835225Y-129785000D01*
X116390000Y-128430000D02*
X116390000Y-133590000D01*
X116430000Y-128430000D02*
X116430000Y-133590000D01*
X116470000Y-128431000D02*
X116470000Y-133589000D01*
X116510000Y-128433000D02*
X116510000Y-133587000D01*
X116550000Y-128435000D02*
X116550000Y-133585000D01*
X116590000Y-128438000D02*
X116590000Y-133582000D01*
X116630000Y-128441000D02*
X116630000Y-129970000D01*
X116630000Y-132050000D02*
X116630000Y-133579000D01*
X116670000Y-128445000D02*
X116670000Y-129970000D01*
X116670000Y-132050000D02*
X116670000Y-133575000D01*
X116710000Y-128450000D02*
X116710000Y-129970000D01*
X116710000Y-132050000D02*
X116710000Y-133570000D01*
X116750000Y-128455000D02*
X116750000Y-129970000D01*
X116750000Y-132050000D02*
X116750000Y-133565000D01*
X116790000Y-128461000D02*
X116790000Y-129970000D01*
X116790000Y-132050000D02*
X116790000Y-133559000D01*
X116830000Y-128467000D02*
X116830000Y-129970000D01*
X116830000Y-132050000D02*
X116830000Y-133553000D01*
X116870000Y-128474000D02*
X116870000Y-129970000D01*
X116870000Y-132050000D02*
X116870000Y-133546000D01*
X116910000Y-128482000D02*
X116910000Y-129970000D01*
X116910000Y-132050000D02*
X116910000Y-133538000D01*
X116950000Y-128491000D02*
X116950000Y-129970000D01*
X116950000Y-132050000D02*
X116950000Y-133529000D01*
X116990000Y-128500000D02*
X116990000Y-129970000D01*
X116990000Y-132050000D02*
X116990000Y-133520000D01*
X117030000Y-128509000D02*
X117030000Y-129970000D01*
X117030000Y-132050000D02*
X117030000Y-133511000D01*
X117070000Y-128520000D02*
X117070000Y-129970000D01*
X117070000Y-132050000D02*
X117070000Y-133500000D01*
X117110000Y-128531000D02*
X117110000Y-129970000D01*
X117110000Y-132050000D02*
X117110000Y-133489000D01*
X117150000Y-128543000D02*
X117150000Y-129970000D01*
X117150000Y-132050000D02*
X117150000Y-133477000D01*
X117190000Y-128555000D02*
X117190000Y-129970000D01*
X117190000Y-132050000D02*
X117190000Y-133465000D01*
X117230000Y-128568000D02*
X117230000Y-129970000D01*
X117230000Y-132050000D02*
X117230000Y-133452000D01*
X117270000Y-128582000D02*
X117270000Y-129970000D01*
X117270000Y-132050000D02*
X117270000Y-133438000D01*
X117310000Y-128597000D02*
X117310000Y-129970000D01*
X117310000Y-132050000D02*
X117310000Y-133423000D01*
X117350000Y-128612000D02*
X117350000Y-129970000D01*
X117350000Y-132050000D02*
X117350000Y-133408000D01*
X117390000Y-128628000D02*
X117390000Y-129970000D01*
X117390000Y-132050000D02*
X117390000Y-133392000D01*
X117430000Y-128645000D02*
X117430000Y-129970000D01*
X117430000Y-132050000D02*
X117430000Y-133375000D01*
X117470000Y-128663000D02*
X117470000Y-129970000D01*
X117470000Y-132050000D02*
X117470000Y-133357000D01*
X117510000Y-128681000D02*
X117510000Y-129970000D01*
X117510000Y-132050000D02*
X117510000Y-133339000D01*
X117550000Y-128701000D02*
X117550000Y-129970000D01*
X117550000Y-132050000D02*
X117550000Y-133319000D01*
X117590000Y-128721000D02*
X117590000Y-129970000D01*
X117590000Y-132050000D02*
X117590000Y-133299000D01*
X117630000Y-128742000D02*
X117630000Y-129970000D01*
X117630000Y-132050000D02*
X117630000Y-133278000D01*
X117670000Y-128764000D02*
X117670000Y-129970000D01*
X117670000Y-132050000D02*
X117670000Y-133256000D01*
X117710000Y-128787000D02*
X117710000Y-129970000D01*
X117710000Y-132050000D02*
X117710000Y-133233000D01*
X117750000Y-128811000D02*
X117750000Y-129970000D01*
X117750000Y-132050000D02*
X117750000Y-133209000D01*
X117790000Y-128835000D02*
X117790000Y-129970000D01*
X117790000Y-132050000D02*
X117790000Y-133185000D01*
X117830000Y-128861000D02*
X117830000Y-129970000D01*
X117830000Y-132050000D02*
X117830000Y-133159000D01*
X117870000Y-128888000D02*
X117870000Y-129970000D01*
X117870000Y-132050000D02*
X117870000Y-133132000D01*
X117910000Y-128916000D02*
X117910000Y-129970000D01*
X117910000Y-132050000D02*
X117910000Y-133104000D01*
X117950000Y-128945000D02*
X117950000Y-129970000D01*
X117950000Y-132050000D02*
X117950000Y-133075000D01*
X117990000Y-128975000D02*
X117990000Y-129970000D01*
X117990000Y-132050000D02*
X117990000Y-133045000D01*
X118030000Y-129007000D02*
X118030000Y-129970000D01*
X118030000Y-132050000D02*
X118030000Y-133013000D01*
X118070000Y-129040000D02*
X118070000Y-129970000D01*
X118070000Y-132050000D02*
X118070000Y-132980000D01*
X118110000Y-129074000D02*
X118110000Y-129970000D01*
X118110000Y-132050000D02*
X118110000Y-132946000D01*
X118150000Y-129109000D02*
X118150000Y-129970000D01*
X118150000Y-132050000D02*
X118150000Y-132911000D01*
X118190000Y-129146000D02*
X118190000Y-129970000D01*
X118190000Y-132050000D02*
X118190000Y-132874000D01*
X118230000Y-129185000D02*
X118230000Y-129970000D01*
X118230000Y-132050000D02*
X118230000Y-132835000D01*
X118270000Y-129225000D02*
X118270000Y-129970000D01*
X118270000Y-132050000D02*
X118270000Y-132795000D01*
X118310000Y-129267000D02*
X118310000Y-129970000D01*
X118310000Y-132050000D02*
X118310000Y-132753000D01*
X118350000Y-129311000D02*
X118350000Y-129970000D01*
X118350000Y-132050000D02*
X118350000Y-132709000D01*
X118390000Y-129358000D02*
X118390000Y-129970000D01*
X118390000Y-132050000D02*
X118390000Y-132662000D01*
X118430000Y-129406000D02*
X118430000Y-129970000D01*
X118430000Y-132050000D02*
X118430000Y-132614000D01*
X118470000Y-129457000D02*
X118470000Y-129970000D01*
X118470000Y-132050000D02*
X118470000Y-132563000D01*
X118510000Y-129511000D02*
X118510000Y-129970000D01*
X118510000Y-132050000D02*
X118510000Y-132509000D01*
X118550000Y-129567000D02*
X118550000Y-129970000D01*
X118550000Y-132050000D02*
X118550000Y-132453000D01*
X118590000Y-129627000D02*
X118590000Y-129970000D01*
X118590000Y-132050000D02*
X118590000Y-132393000D01*
X118630000Y-129691000D02*
X118630000Y-129970000D01*
X118630000Y-132050000D02*
X118630000Y-132329000D01*
X118670000Y-129759000D02*
X118670000Y-129970000D01*
X118670000Y-132050000D02*
X118670000Y-132261000D01*
X118710000Y-129833000D02*
X118710000Y-132187000D01*
X118750000Y-129912000D02*
X118750000Y-132108000D01*
X118790000Y-129999000D02*
X118790000Y-132021000D01*
X118830000Y-130096000D02*
X118830000Y-131924000D01*
X118870000Y-130205000D02*
X118870000Y-131815000D01*
X118910000Y-130333000D02*
X118910000Y-131687000D01*
X118950000Y-130493000D02*
X118950000Y-131527000D01*
X118990000Y-130727000D02*
X118990000Y-131293000D01*
X119010000Y-131010000D02*
G75*
G02*
X113770000Y-131010000I-2620000J0D01*
G01*
X113770000Y-131010000D02*
G75*
G02*
X119010000Y-131010000I2620000J0D01*
G01*
%TO.C,R5*%
X123270000Y-112560000D02*
X123270000Y-119100000D01*
X123270000Y-119100000D02*
X123600000Y-119100000D01*
X123600000Y-112560000D02*
X123270000Y-112560000D01*
X125680000Y-112560000D02*
X126010000Y-112560000D01*
X126010000Y-112560000D02*
X126010000Y-119100000D01*
X126010000Y-119100000D02*
X125680000Y-119100000D01*
%TO.C,C6*%
X147270000Y-125440000D02*
X147607000Y-125440000D01*
X147270000Y-130680000D02*
X147270000Y-125440000D01*
X147607000Y-130680000D02*
X147270000Y-130680000D01*
X149673000Y-125440000D02*
X150010000Y-125440000D01*
X150010000Y-125440000D02*
X150010000Y-130680000D01*
X150010000Y-130680000D02*
X149673000Y-130680000D01*
%TO.C,R4*%
X111270000Y-108560000D02*
X111600000Y-108560000D01*
X111270000Y-115100000D02*
X111270000Y-108560000D01*
X111600000Y-115100000D02*
X111270000Y-115100000D01*
X113680000Y-115100000D02*
X114010000Y-115100000D01*
X114010000Y-108560000D02*
X113680000Y-108560000D01*
X114010000Y-115100000D02*
X114010000Y-108560000D01*
%TO.C,U1*%
X134700000Y-121690000D02*
X134700000Y-131970000D01*
X134700000Y-131970000D02*
X139200000Y-131970000D01*
X135950000Y-121690000D02*
X134700000Y-121690000D01*
X139200000Y-121690000D02*
X137950000Y-121690000D01*
X139200000Y-131970000D02*
X139200000Y-121690000D01*
X137950000Y-121690000D02*
G75*
G02*
X135950000Y-121690000I-1000000J0D01*
G01*
%TO.C,R7*%
X145680000Y-135140000D02*
X145680000Y-135470000D01*
X145680000Y-137880000D02*
X145680000Y-137550000D01*
X152220000Y-135140000D02*
X145680000Y-135140000D01*
X152220000Y-135470000D02*
X152220000Y-135140000D01*
X152220000Y-137550000D02*
X152220000Y-137880000D01*
X152220000Y-137880000D02*
X145680000Y-137880000D01*
%TO.C,R8*%
X143770000Y-126100000D02*
X144100000Y-126100000D01*
X143770000Y-132640000D02*
X143770000Y-126100000D01*
X144100000Y-132640000D02*
X143770000Y-132640000D01*
X146180000Y-132640000D02*
X146510000Y-132640000D01*
X146510000Y-126100000D02*
X146180000Y-126100000D01*
X146510000Y-132640000D02*
X146510000Y-126100000D01*
%TO.C,C5*%
X154585225Y-135035000D02*
X155085225Y-135035000D01*
X154835225Y-134785000D02*
X154835225Y-135285000D01*
X157390000Y-133930000D02*
X157390000Y-139090000D01*
X157430000Y-133930000D02*
X157430000Y-139090000D01*
X157470000Y-133931000D02*
X157470000Y-139089000D01*
X157510000Y-133933000D02*
X157510000Y-139087000D01*
X157550000Y-133935000D02*
X157550000Y-139085000D01*
X157590000Y-133938000D02*
X157590000Y-139082000D01*
X157630000Y-133941000D02*
X157630000Y-135470000D01*
X157630000Y-137550000D02*
X157630000Y-139079000D01*
X157670000Y-133945000D02*
X157670000Y-135470000D01*
X157670000Y-137550000D02*
X157670000Y-139075000D01*
X157710000Y-133950000D02*
X157710000Y-135470000D01*
X157710000Y-137550000D02*
X157710000Y-139070000D01*
X157750000Y-133955000D02*
X157750000Y-135470000D01*
X157750000Y-137550000D02*
X157750000Y-139065000D01*
X157790000Y-133961000D02*
X157790000Y-135470000D01*
X157790000Y-137550000D02*
X157790000Y-139059000D01*
X157830000Y-133967000D02*
X157830000Y-135470000D01*
X157830000Y-137550000D02*
X157830000Y-139053000D01*
X157870000Y-133974000D02*
X157870000Y-135470000D01*
X157870000Y-137550000D02*
X157870000Y-139046000D01*
X157910000Y-133982000D02*
X157910000Y-135470000D01*
X157910000Y-137550000D02*
X157910000Y-139038000D01*
X157950000Y-133991000D02*
X157950000Y-135470000D01*
X157950000Y-137550000D02*
X157950000Y-139029000D01*
X157990000Y-134000000D02*
X157990000Y-135470000D01*
X157990000Y-137550000D02*
X157990000Y-139020000D01*
X158030000Y-134009000D02*
X158030000Y-135470000D01*
X158030000Y-137550000D02*
X158030000Y-139011000D01*
X158070000Y-134020000D02*
X158070000Y-135470000D01*
X158070000Y-137550000D02*
X158070000Y-139000000D01*
X158110000Y-134031000D02*
X158110000Y-135470000D01*
X158110000Y-137550000D02*
X158110000Y-138989000D01*
X158150000Y-134043000D02*
X158150000Y-135470000D01*
X158150000Y-137550000D02*
X158150000Y-138977000D01*
X158190000Y-134055000D02*
X158190000Y-135470000D01*
X158190000Y-137550000D02*
X158190000Y-138965000D01*
X158230000Y-134068000D02*
X158230000Y-135470000D01*
X158230000Y-137550000D02*
X158230000Y-138952000D01*
X158270000Y-134082000D02*
X158270000Y-135470000D01*
X158270000Y-137550000D02*
X158270000Y-138938000D01*
X158310000Y-134097000D02*
X158310000Y-135470000D01*
X158310000Y-137550000D02*
X158310000Y-138923000D01*
X158350000Y-134112000D02*
X158350000Y-135470000D01*
X158350000Y-137550000D02*
X158350000Y-138908000D01*
X158390000Y-134128000D02*
X158390000Y-135470000D01*
X158390000Y-137550000D02*
X158390000Y-138892000D01*
X158430000Y-134145000D02*
X158430000Y-135470000D01*
X158430000Y-137550000D02*
X158430000Y-138875000D01*
X158470000Y-134163000D02*
X158470000Y-135470000D01*
X158470000Y-137550000D02*
X158470000Y-138857000D01*
X158510000Y-134181000D02*
X158510000Y-135470000D01*
X158510000Y-137550000D02*
X158510000Y-138839000D01*
X158550000Y-134201000D02*
X158550000Y-135470000D01*
X158550000Y-137550000D02*
X158550000Y-138819000D01*
X158590000Y-134221000D02*
X158590000Y-135470000D01*
X158590000Y-137550000D02*
X158590000Y-138799000D01*
X158630000Y-134242000D02*
X158630000Y-135470000D01*
X158630000Y-137550000D02*
X158630000Y-138778000D01*
X158670000Y-134264000D02*
X158670000Y-135470000D01*
X158670000Y-137550000D02*
X158670000Y-138756000D01*
X158710000Y-134287000D02*
X158710000Y-135470000D01*
X158710000Y-137550000D02*
X158710000Y-138733000D01*
X158750000Y-134311000D02*
X158750000Y-135470000D01*
X158750000Y-137550000D02*
X158750000Y-138709000D01*
X158790000Y-134335000D02*
X158790000Y-135470000D01*
X158790000Y-137550000D02*
X158790000Y-138685000D01*
X158830000Y-134361000D02*
X158830000Y-135470000D01*
X158830000Y-137550000D02*
X158830000Y-138659000D01*
X158870000Y-134388000D02*
X158870000Y-135470000D01*
X158870000Y-137550000D02*
X158870000Y-138632000D01*
X158910000Y-134416000D02*
X158910000Y-135470000D01*
X158910000Y-137550000D02*
X158910000Y-138604000D01*
X158950000Y-134445000D02*
X158950000Y-135470000D01*
X158950000Y-137550000D02*
X158950000Y-138575000D01*
X158990000Y-134475000D02*
X158990000Y-135470000D01*
X158990000Y-137550000D02*
X158990000Y-138545000D01*
X159030000Y-134507000D02*
X159030000Y-135470000D01*
X159030000Y-137550000D02*
X159030000Y-138513000D01*
X159070000Y-134540000D02*
X159070000Y-135470000D01*
X159070000Y-137550000D02*
X159070000Y-138480000D01*
X159110000Y-134574000D02*
X159110000Y-135470000D01*
X159110000Y-137550000D02*
X159110000Y-138446000D01*
X159150000Y-134609000D02*
X159150000Y-135470000D01*
X159150000Y-137550000D02*
X159150000Y-138411000D01*
X159190000Y-134646000D02*
X159190000Y-135470000D01*
X159190000Y-137550000D02*
X159190000Y-138374000D01*
X159230000Y-134685000D02*
X159230000Y-135470000D01*
X159230000Y-137550000D02*
X159230000Y-138335000D01*
X159270000Y-134725000D02*
X159270000Y-135470000D01*
X159270000Y-137550000D02*
X159270000Y-138295000D01*
X159310000Y-134767000D02*
X159310000Y-135470000D01*
X159310000Y-137550000D02*
X159310000Y-138253000D01*
X159350000Y-134811000D02*
X159350000Y-135470000D01*
X159350000Y-137550000D02*
X159350000Y-138209000D01*
X159390000Y-134858000D02*
X159390000Y-135470000D01*
X159390000Y-137550000D02*
X159390000Y-138162000D01*
X159430000Y-134906000D02*
X159430000Y-135470000D01*
X159430000Y-137550000D02*
X159430000Y-138114000D01*
X159470000Y-134957000D02*
X159470000Y-135470000D01*
X159470000Y-137550000D02*
X159470000Y-138063000D01*
X159510000Y-135011000D02*
X159510000Y-135470000D01*
X159510000Y-137550000D02*
X159510000Y-138009000D01*
X159550000Y-135067000D02*
X159550000Y-135470000D01*
X159550000Y-137550000D02*
X159550000Y-137953000D01*
X159590000Y-135127000D02*
X159590000Y-135470000D01*
X159590000Y-137550000D02*
X159590000Y-137893000D01*
X159630000Y-135191000D02*
X159630000Y-135470000D01*
X159630000Y-137550000D02*
X159630000Y-137829000D01*
X159670000Y-135259000D02*
X159670000Y-135470000D01*
X159670000Y-137550000D02*
X159670000Y-137761000D01*
X159710000Y-135333000D02*
X159710000Y-137687000D01*
X159750000Y-135412000D02*
X159750000Y-137608000D01*
X159790000Y-135499000D02*
X159790000Y-137521000D01*
X159830000Y-135596000D02*
X159830000Y-137424000D01*
X159870000Y-135705000D02*
X159870000Y-137315000D01*
X159910000Y-135833000D02*
X159910000Y-137187000D01*
X159950000Y-135993000D02*
X159950000Y-137027000D01*
X159990000Y-136227000D02*
X159990000Y-136793000D01*
X160010000Y-136510000D02*
G75*
G02*
X154770000Y-136510000I-2620000J0D01*
G01*
X154770000Y-136510000D02*
G75*
G02*
X160010000Y-136510000I2620000J0D01*
G01*
%TO.C,R1*%
X102770000Y-108560000D02*
X102770000Y-115100000D01*
X102770000Y-115100000D02*
X103100000Y-115100000D01*
X103100000Y-108560000D02*
X102770000Y-108560000D01*
X105180000Y-108560000D02*
X105510000Y-108560000D01*
X105510000Y-108560000D02*
X105510000Y-115100000D01*
X105510000Y-115100000D02*
X105180000Y-115100000D01*
%TO.C,R9*%
X151770000Y-121930000D02*
X152100000Y-121930000D01*
X151770000Y-128470000D02*
X151770000Y-121930000D01*
X152100000Y-128470000D02*
X151770000Y-128470000D01*
X154180000Y-128470000D02*
X154510000Y-128470000D01*
X154510000Y-121930000D02*
X154180000Y-121930000D01*
X154510000Y-128470000D02*
X154510000Y-121930000D01*
%TO.C,C7*%
X155770000Y-116900000D02*
X156107000Y-116900000D01*
X155770000Y-122140000D02*
X155770000Y-116900000D01*
X156107000Y-122140000D02*
X155770000Y-122140000D01*
X158173000Y-116900000D02*
X158510000Y-116900000D01*
X158510000Y-116900000D02*
X158510000Y-122140000D01*
X158510000Y-122140000D02*
X158173000Y-122140000D01*
%TO.C,R2*%
X115770000Y-117730000D02*
X116100000Y-117730000D01*
X115770000Y-124270000D02*
X115770000Y-117730000D01*
X116100000Y-124270000D02*
X115770000Y-124270000D01*
X118180000Y-124270000D02*
X118510000Y-124270000D01*
X118510000Y-117730000D02*
X118180000Y-117730000D01*
X118510000Y-124270000D02*
X118510000Y-117730000D01*
%TO.C,C4*%
X129020000Y-110650000D02*
X134260000Y-110650000D01*
X129020000Y-110987000D02*
X129020000Y-110650000D01*
X129020000Y-113390000D02*
X129020000Y-113053000D01*
X134260000Y-110650000D02*
X134260000Y-110987000D01*
X134260000Y-113053000D02*
X134260000Y-113390000D01*
X134260000Y-113390000D02*
X129020000Y-113390000D01*
%TD*%
M02*
