0
SECTION
2
HEADER
9
$INSUNITS
70
4
0
ENDSEC
0
SECTION
2
ENTITIES
0
LINE
8
CUT
10
0.0000
20
0.0000
30
0.0
11
117.8000
21
0.0000
31
0.0
0
LINE
8
CUT
10
117.8000
20
0.0000
30
0.0
11
117.8000
21
139.8000
31
0.0
0
LINE
8
CUT
10
117.8000
20
139.8000
30
0.0
11
0.0000
21
139.8000
31
0.0
0
LINE
8
CUT
10
0.0000
20
139.8000
30
0.0
11
0.0000
21
0.0000
31
0.0
0
CIRCLE
8
CUT
10
3.9000
20
135.9000
30
0.0
40
1.7000
0
CIRCLE
8
CUT
10
113.9000
20
135.9000
30
0.0
40
1.7000
0
CIRCLE
8
CUT
10
3.9000
20
3.9000
30
0.0
40
1.7000
0
CIRCLE
8
CUT
10
113.9000
20
3.9000
30
0.0
40
1.7000
0
CIRCLE
8
CUT
10
24.4900
20
45.8700
30
0.0
40
2.0000
0
CIRCLE
8
CUT
10
14.8900
20
45.8700
30
0.0
40
2.0000
0
ENDSEC
0
EOF
