%TF.GenerationSoftware,KiCad,Pcbnew,9.0.6*%
%TF.CreationDate,2026-06-15T10:43:41+02:00*%
%TF.ProjectId,korad-esp32-carrier,6b6f7261-642d-4657-9370-33322d636172,rev?*%
%TF.SameCoordinates,Original*%
%TF.FileFunction,Copper,L2,Bot*%
%TF.FilePolarity,Positive*%
%FSLAX46Y46*%
G04 Gerber Fmt 4.6, Leading zero omitted, Abs format (unit mm)*
G04 Created by KiCad (PCBNEW 9.0.6) date 2026-06-15 10:43:41*
%MOMM*%
%LPD*%
G01*
G04 APERTURE LIST*
G04 Aperture macros list*
%AMRoundRect*
0 Rectangle with rounded corners*
0 $1 Rounding radius*
0 $2 $3 $4 $5 $6 $7 $8 $9 X,Y pos of 4 corners*
0 Add a 4 corners polygon primitive as box body*
4,1,4,$2,$3,$4,$5,$6,$7,$8,$9,$2,$3,0*
0 Add four circle primitives for the rounded corners*
1,1,$1+$1,$2,$3*
1,1,$1+$1,$4,$5*
1,1,$1+$1,$6,$7*
1,1,$1+$1,$8,$9*
0 Add four rect primitives between the rounded corners*
20,1,$1+$1,$2,$3,$4,$5,0*
20,1,$1+$1,$4,$5,$6,$7,0*
20,1,$1+$1,$6,$7,$8,$9,0*
20,1,$1+$1,$8,$9,$2,$3,0*%
G04 Aperture macros list end*
%TA.AperFunction,ComponentPad*%
%ADD10C,1.600000*%
%TD*%
%TA.AperFunction,ComponentPad*%
%ADD11R,1.700000X1.700000*%
%TD*%
%TA.AperFunction,ComponentPad*%
%ADD12C,1.700000*%
%TD*%
%TA.AperFunction,ComponentPad*%
%ADD13R,1.500000X1.500000*%
%TD*%
%TA.AperFunction,ComponentPad*%
%ADD14C,1.500000*%
%TD*%
%TA.AperFunction,ComponentPad*%
%ADD15RoundRect,0.250000X-0.750000X-0.750000X0.750000X-0.750000X0.750000X0.750000X-0.750000X0.750000X0*%
%TD*%
%TA.AperFunction,ComponentPad*%
%ADD16C,2.000000*%
%TD*%
%TA.AperFunction,Conductor*%
%ADD17C,1.000000*%
%TD*%
G04 APERTURE END LIST*
D10*
%TO.P,R6,1*%
%TO.N,+3V3*%
X109451200Y-77405000D03*
%TO.P,R6,2*%
%TO.N,/ESP_RX*%
X117071200Y-77405000D03*
%TD*%
%TO.P,C2,1*%
%TO.N,+3V3*%
X98761200Y-99405000D03*
%TO.P,C2,2*%
%TO.N,GND*%
X103761200Y-99405000D03*
%TD*%
%TO.P,R7,1*%
%TO.N,/J9_VDD*%
X109451200Y-85405000D03*
%TO.P,R7,2*%
%TO.N,/J9_TX*%
X117071200Y-85405000D03*
%TD*%
D11*
%TO.P,J1,1*%
%TO.N,GND*%
X31261200Y-65595000D03*
D12*
%TO.P,J1,2*%
%TO.N,/J9_RX*%
X31261200Y-68135000D03*
%TO.P,J1,3*%
%TO.N,/J9_TX*%
X31261200Y-70675000D03*
%TO.P,J1,4*%
%TO.N,/J9_VDD*%
X31261200Y-73215000D03*
%TD*%
D10*
%TO.P,R4,1*%
%TO.N,+3V3*%
X109451200Y-61405000D03*
%TO.P,R4,2*%
%TO.N,/ESP_TX*%
X117071200Y-61405000D03*
%TD*%
D11*
%TO.P,J3,1*%
%TO.N,N/C*%
X55286200Y-53655000D03*
D12*
%TO.P,J3,2*%
X55286200Y-56195000D03*
%TO.P,J3,3*%
X55286200Y-58735000D03*
%TO.P,J3,4*%
X55286200Y-61275000D03*
%TO.P,J3,5*%
X55286200Y-63815000D03*
%TO.P,J3,6*%
X55286200Y-66355000D03*
%TO.P,J3,7*%
X55286200Y-68895000D03*
%TO.P,J3,8*%
X55286200Y-71435000D03*
%TO.P,J3,9*%
X55286200Y-73975000D03*
%TO.P,J3,10*%
X55286200Y-76515000D03*
%TO.P,J3,11*%
X55286200Y-79055000D03*
%TO.P,J3,12*%
X55286200Y-81595000D03*
%TO.P,J3,13*%
X55286200Y-84135000D03*
%TO.P,J3,14*%
%TO.N,GND*%
X55286200Y-86675000D03*
%TO.P,J3,15*%
%TO.N,/VIN_DEV*%
X55286200Y-89215000D03*
%TD*%
D11*
%TO.P,J4,1*%
%TO.N,N/C*%
X83686200Y-53655000D03*
D12*
%TO.P,J4,2*%
X83686200Y-56195000D03*
%TO.P,J4,3*%
X83686200Y-58735000D03*
%TO.P,J4,4*%
X83686200Y-61275000D03*
%TO.P,J4,5*%
X83686200Y-63815000D03*
%TO.P,J4,6*%
X83686200Y-66355000D03*
%TO.P,J4,7*%
X83686200Y-68895000D03*
%TO.P,J4,8*%
X83686200Y-71435000D03*
%TO.P,J4,9*%
X83686200Y-73975000D03*
%TO.P,J4,10*%
X83686200Y-76515000D03*
%TO.P,J4,11*%
X83686200Y-79055000D03*
%TO.P,J4,12*%
%TO.N,/ESP_RX*%
X83686200Y-81595000D03*
%TO.P,J4,13*%
%TO.N,/ESP_TX*%
X83686200Y-84135000D03*
%TO.P,J4,14*%
%TO.N,N/C*%
X83686200Y-86675000D03*
%TO.P,J4,15*%
%TO.N,+3V3*%
X83686200Y-89215000D03*
%TD*%
D11*
%TO.P,P1,1*%
%TO.N,/VIN_DEV*%
X101261200Y-44865000D03*
D12*
%TO.P,P1,2*%
%TO.N,/J9_VDD*%
X101261200Y-47405000D03*
%TO.P,P1,3*%
%TO.N,+3V3*%
X101261200Y-49945000D03*
%TD*%
D13*
%TO.P,Q2,1*%
%TO.N,/J9_TX*%
X98721200Y-81765000D03*
D14*
%TO.P,Q2,2*%
%TO.N,+3V3*%
X101261200Y-81765000D03*
%TO.P,Q2,3*%
%TO.N,/ESP_RX*%
X103801200Y-81765000D03*
%TD*%
D15*
%TO.P,C4,1*%
%TO.N,/J9_VDD*%
X28893500Y-95405000D03*
D16*
%TO.P,C4,2*%
%TO.N,GND*%
X33893500Y-95405000D03*
%TD*%
D13*
%TO.P,Q1,1*%
%TO.N,/J9_RX*%
X98721200Y-65765000D03*
D14*
%TO.P,Q1,2*%
%TO.N,+3V3*%
X101261200Y-65765000D03*
%TO.P,Q1,3*%
%TO.N,/ESP_TX*%
X103801200Y-65765000D03*
%TD*%
D10*
%TO.P,R5,1*%
%TO.N,/J9_VDD*%
X109451200Y-69405000D03*
%TO.P,R5,2*%
%TO.N,/J9_RX*%
X117071200Y-69405000D03*
%TD*%
D17*
%TO.N,+3V3*%
X100035600Y-79713300D02*
X101465200Y-81142900D01*
X105249800Y-61405000D02*
X109451200Y-61405000D01*
X101261000Y-65579300D02*
X101261200Y-65579500D01*
X109451000Y-77405000D02*
X109451200Y-77405000D01*
X101261200Y-65765000D02*
X101261200Y-65393600D01*
X105203100Y-77405000D02*
X109451200Y-77405000D01*
X101261200Y-65579500D02*
X101261200Y-65765000D01*
X101261000Y-81555900D02*
X101261200Y-81556100D01*
X109451000Y-61405000D02*
X109451200Y-61405000D01*
X101261200Y-81765000D02*
X101261200Y-81346900D01*
X89406200Y-90050000D02*
X89406200Y-89215000D01*
X101261200Y-81346900D02*
X101465200Y-81142900D01*
X101261200Y-65393600D02*
X105249800Y-61405000D01*
X89406200Y-89215000D02*
X89406200Y-87739100D01*
X89406200Y-87739100D02*
X97432000Y-79713300D01*
X101261200Y-81556100D02*
X101261200Y-81765000D01*
X98761200Y-99405000D02*
X89406200Y-90050000D01*
X83686200Y-89215000D02*
X89406200Y-89215000D01*
X97432000Y-79713300D02*
X100035600Y-79713300D01*
X101465200Y-81142900D02*
X105203100Y-77405000D01*
%TO.N,/ESP_RX*%
X112711200Y-81765000D02*
X103801200Y-81765000D01*
X116011300Y-76345100D02*
X117071200Y-77405000D01*
X116011000Y-76345100D02*
X116011300Y-76345100D01*
X83686200Y-81595000D02*
X91908700Y-81595000D01*
X98218500Y-75285200D02*
X114951400Y-75285200D01*
X114951400Y-75285200D02*
X117071200Y-77405000D01*
X91908700Y-81595000D02*
X98218500Y-75285200D01*
X117071200Y-77405000D02*
X112711200Y-81765000D01*
%TO.N,/ESP_TX*%
X114968700Y-63507500D02*
X117071200Y-61405000D01*
X116230200Y-62246000D02*
X117071200Y-61405000D01*
X106058700Y-63507500D02*
X114968700Y-63507500D01*
X103801200Y-65765000D02*
X106058700Y-63507500D01*
X104704200Y-64862000D02*
X103801200Y-65765000D01*
%TO.N,/J9_RX*%
X117071200Y-69405000D02*
X117071000Y-69405000D01*
X98721200Y-65765000D02*
X98721200Y-62470400D01*
X30196800Y-68135000D02*
X31261200Y-68135000D01*
X114905900Y-67239700D02*
X117071200Y-69405000D01*
X105283600Y-67239700D02*
X114905900Y-67239700D01*
X98721200Y-66212900D02*
X98721200Y-65765000D01*
X50566200Y-42690500D02*
X29109500Y-64147200D01*
X98721200Y-62470400D02*
X103451600Y-57740000D01*
X29109500Y-67047700D02*
X30196800Y-68135000D01*
X98721200Y-66212900D02*
X98721200Y-67816700D01*
X29109500Y-64147200D02*
X29109500Y-67047700D01*
X102634000Y-42690500D02*
X50566200Y-42690500D01*
X104706600Y-67816700D02*
X105283600Y-67239700D01*
X98721200Y-67816700D02*
X104706600Y-67816700D01*
X103451600Y-57740000D02*
X103451600Y-43508100D01*
X103451600Y-43508100D02*
X102634000Y-42690500D01*
%TO.N,/J9_TX*%
X115852000Y-86624300D02*
X117071200Y-85405100D01*
X26541800Y-96767800D02*
X33124700Y-103350700D01*
X117071200Y-85405000D02*
X114632600Y-87843600D01*
X105868300Y-87843600D02*
X102748100Y-87843600D01*
X114632600Y-87843600D02*
X105868300Y-87843600D01*
X102748100Y-87843600D02*
X98721200Y-83816700D01*
X26541800Y-74884700D02*
X26541800Y-96767800D01*
X98721200Y-81765000D02*
X98721200Y-83816700D01*
X102802800Y-103350700D02*
X105868300Y-100285200D01*
X33124700Y-103350700D02*
X102802800Y-103350700D01*
X30751500Y-70675000D02*
X26541800Y-74884700D01*
X31261200Y-70675000D02*
X30751500Y-70675000D01*
X117071200Y-85405100D02*
X117071200Y-85405000D01*
X105868300Y-100285200D02*
X105868300Y-87843600D01*
%TO.N,/J9_VDD*%
X28893500Y-75582700D02*
X28893500Y-95405000D01*
X109451200Y-69681600D02*
X109451200Y-69405000D01*
X109451200Y-69543100D02*
X109451200Y-69405000D01*
X101261000Y-47405000D02*
X101261200Y-47405000D01*
X109451000Y-69543300D02*
X109451200Y-69543100D01*
X98016100Y-69681600D02*
X109451200Y-69681600D01*
X96593900Y-51562200D02*
X96593900Y-68259400D01*
X101261200Y-47405000D02*
X100751100Y-47405000D01*
X31261200Y-73215000D02*
X28893500Y-75582700D01*
X100751100Y-47405000D02*
X96593900Y-51562200D01*
X96593900Y-68259400D02*
X98016100Y-69681600D01*
%TO.N,/VIN_DEV*%
X67415000Y-77615100D02*
X55815100Y-89215000D01*
X101261000Y-44865000D02*
X101261200Y-44865000D01*
X101261200Y-44865000D02*
X86314100Y-44865000D01*
X55815100Y-89215000D02*
X55286200Y-89215000D01*
X67415000Y-63764100D02*
X67415000Y-77615100D01*
X86314100Y-44865000D02*
X67415000Y-63764100D01*
%TO.N,GND*%
X38959000Y-71141100D02*
X33412900Y-65595000D01*
X33893500Y-95405000D02*
X38959000Y-90339500D01*
X101632600Y-101533600D02*
X103761200Y-99405000D01*
X31261200Y-65595000D02*
X33412900Y-65595000D01*
X38959000Y-90339500D02*
X38959000Y-86675000D01*
X38959000Y-86675000D02*
X38959000Y-71141100D01*
X103761200Y-99405300D02*
X103761200Y-99405000D01*
X53074500Y-90094600D02*
X64513500Y-101533600D01*
X38959000Y-86675000D02*
X53074500Y-86675000D01*
X53074500Y-86675000D02*
X53074500Y-90094600D01*
X102697000Y-100469500D02*
X103761200Y-99405300D01*
X64513500Y-101533600D02*
X101632600Y-101533600D01*
X53074500Y-86675000D02*
X55286200Y-86675000D01*
%TD*%
%TA.AperFunction,NonConductor*%
G36*
X123442539Y-20520185D02*
G01*
X123488294Y-20572989D01*
X123499500Y-20624500D01*
X123499500Y-123375500D01*
X123479815Y-123442539D01*
X123427011Y-123488294D01*
X123375500Y-123499500D01*
X20624500Y-123499500D01*
X20557461Y-123479815D01*
X20511706Y-123427011D01*
X20500500Y-123375500D01*
X20500500Y-74782348D01*
X25241300Y-74782348D01*
X25241300Y-96870151D01*
X25273322Y-97072334D01*
X25336581Y-97267023D01*
X25381846Y-97355858D01*
X25383046Y-97358214D01*
X25429513Y-97449411D01*
X25549834Y-97615019D01*
X25549836Y-97615021D01*
X32277486Y-104342671D01*
X32432449Y-104455256D01*
X32443090Y-104462987D01*
X32534285Y-104509453D01*
X32625476Y-104555918D01*
X32625478Y-104555918D01*
X32625481Y-104555920D01*
X32722822Y-104587548D01*
X32820165Y-104619177D01*
X32921257Y-104635188D01*
X33022348Y-104651200D01*
X33022349Y-104651200D01*
X102905151Y-104651200D01*
X102905152Y-104651200D01*
X103107335Y-104619177D01*
X103204676Y-104587548D01*
X103302019Y-104555920D01*
X103393214Y-104509453D01*
X103484411Y-104462987D01*
X103650019Y-104342666D01*
X106708450Y-101284232D01*
X106708457Y-101284227D01*
X106715517Y-101277167D01*
X106715519Y-101277166D01*
X106860266Y-101132419D01*
X106860268Y-101132415D01*
X106860271Y-101132413D01*
X106913032Y-101059790D01*
X106980587Y-100966810D01*
X107039091Y-100851990D01*
X107073521Y-100784418D01*
X107136777Y-100589734D01*
X107168800Y-100387551D01*
X107168800Y-100182848D01*
X107168800Y-89268100D01*
X107188485Y-89201061D01*
X107241289Y-89155306D01*
X107292800Y-89144100D01*
X114734951Y-89144100D01*
X114734952Y-89144100D01*
X114937135Y-89112077D01*
X115103461Y-89058034D01*
X115131819Y-89048820D01*
X115223014Y-89002353D01*
X115314211Y-88955887D01*
X115479819Y-88835566D01*
X116695065Y-87620318D01*
X116696374Y-87619110D01*
X116699215Y-87616268D01*
X116699219Y-87616266D01*
X117302729Y-87012754D01*
X117364050Y-86979271D01*
X117370969Y-86977970D01*
X117445985Y-86966090D01*
X117685579Y-86888241D01*
X117910045Y-86773870D01*
X118113856Y-86625793D01*
X118291993Y-86447656D01*
X118440070Y-86243845D01*
X118554441Y-86019379D01*
X118632290Y-85779785D01*
X118671700Y-85530962D01*
X118671700Y-85279038D01*
X118632290Y-85030215D01*
X118554441Y-84790621D01*
X118554439Y-84790618D01*
X118554439Y-84790616D01*
X118489883Y-84663919D01*
X118440070Y-84566155D01*
X118407621Y-84521493D01*
X118291998Y-84362350D01*
X118291992Y-84362343D01*
X118113854Y-84184205D01*
X118113849Y-84184201D01*
X117910048Y-84036132D01*
X117910047Y-84036131D01*
X117910045Y-84036130D01*
X117839947Y-84000413D01*
X117685583Y-83921760D01*
X117445985Y-83843910D01*
X117197162Y-83804500D01*
X116945238Y-83804500D01*
X116820826Y-83824205D01*
X116696414Y-83843910D01*
X116456816Y-83921760D01*
X116232351Y-84036132D01*
X116028550Y-84184201D01*
X116028545Y-84184205D01*
X115850408Y-84362343D01*
X115850401Y-84362350D01*
X115702332Y-84566151D01*
X115587960Y-84790618D01*
X115510109Y-85030217D01*
X115498215Y-85105309D01*
X115468285Y-85168443D01*
X115463423Y-85173590D01*
X114130234Y-86506781D01*
X114068911Y-86540266D01*
X114042553Y-86543100D01*
X110846013Y-86543100D01*
X110778974Y-86523415D01*
X110733219Y-86470611D01*
X110723275Y-86401453D01*
X110745695Y-86346215D01*
X110787622Y-86288506D01*
X110820070Y-86243845D01*
X110934441Y-86019379D01*
X111012290Y-85779785D01*
X111051700Y-85530962D01*
X111051700Y-85279038D01*
X111012290Y-85030215D01*
X110934441Y-84790621D01*
X110934439Y-84790618D01*
X110934439Y-84790616D01*
X110869883Y-84663919D01*
X110820070Y-84566155D01*
X110787621Y-84521493D01*
X110671998Y-84362350D01*
X110671992Y-84362343D01*
X110493854Y-84184205D01*
X110493849Y-84184201D01*
X110290048Y-84036132D01*
X110290047Y-84036131D01*
X110290045Y-84036130D01*
X110219947Y-84000413D01*
X110065583Y-83921760D01*
X109825985Y-83843910D01*
X109577162Y-83804500D01*
X109325238Y-83804500D01*
X109200826Y-83824205D01*
X109076414Y-83843910D01*
X108836816Y-83921760D01*
X108612351Y-84036132D01*
X108408550Y-84184201D01*
X108408545Y-84184205D01*
X108230408Y-84362343D01*
X108230401Y-84362350D01*
X108082332Y-84566151D01*
X107967960Y-84790616D01*
X107890110Y-85030214D01*
X107850700Y-85279038D01*
X107850700Y-85530961D01*
X107890110Y-85779785D01*
X107967960Y-86019383D01*
X108082332Y-86243848D01*
X108156705Y-86346215D01*
X108180185Y-86412021D01*
X108164359Y-86480075D01*
X108114253Y-86528770D01*
X108056387Y-86543100D01*
X103338146Y-86543100D01*
X103271107Y-86523415D01*
X103250465Y-86506781D01*
X100058019Y-83314334D01*
X100043315Y-83287406D01*
X100026723Y-83261588D01*
X100025831Y-83255387D01*
X100024534Y-83253011D01*
X100021700Y-83226653D01*
X100021700Y-83147940D01*
X100041385Y-83080901D01*
X100058019Y-83060259D01*
X100058510Y-83059768D01*
X100101016Y-83017262D01*
X100107519Y-83006911D01*
X100159850Y-82960620D01*
X100228903Y-82949969D01*
X100285399Y-82972563D01*
X100413317Y-83065500D01*
X100448561Y-83091106D01*
X100666015Y-83201904D01*
X100898124Y-83277321D01*
X101139173Y-83315500D01*
X101139174Y-83315500D01*
X101383226Y-83315500D01*
X101383227Y-83315500D01*
X101624276Y-83277321D01*
X101856385Y-83201904D01*
X102073839Y-83091106D01*
X102271283Y-82947655D01*
X102443519Y-82775419D01*
X102504842Y-82741934D01*
X102574534Y-82746918D01*
X102618881Y-82775419D01*
X102791118Y-82947656D01*
X102791123Y-82947660D01*
X102886923Y-83017262D01*
X102988561Y-83091106D01*
X103206015Y-83201904D01*
X103438124Y-83277321D01*
X103679173Y-83315500D01*
X103679174Y-83315500D01*
X103923226Y-83315500D01*
X103923227Y-83315500D01*
X104164276Y-83277321D01*
X104396385Y-83201904D01*
X104613839Y-83091106D01*
X104616486Y-83089183D01*
X104617659Y-83088764D01*
X104617988Y-83088563D01*
X104618030Y-83088631D01*
X104682292Y-83065702D01*
X104689372Y-83065500D01*
X112813551Y-83065500D01*
X112813552Y-83065500D01*
X113015735Y-83033477D01*
X113113076Y-83001848D01*
X113210419Y-82970220D01*
X113301614Y-82923753D01*
X113392811Y-82877287D01*
X113558419Y-82756966D01*
X117302610Y-79012773D01*
X117363931Y-78979290D01*
X117370845Y-78977990D01*
X117445985Y-78966090D01*
X117685579Y-78888241D01*
X117910045Y-78773870D01*
X118113856Y-78625793D01*
X118291993Y-78447656D01*
X118440070Y-78243845D01*
X118554441Y-78019379D01*
X118632290Y-77779785D01*
X118671700Y-77530962D01*
X118671700Y-77279038D01*
X118632290Y-77030215D01*
X118554441Y-76790621D01*
X118554439Y-76790618D01*
X118554439Y-76790616D01*
X118506904Y-76697324D01*
X118440070Y-76566155D01*
X118421152Y-76540117D01*
X118291998Y-76362350D01*
X118291994Y-76362345D01*
X118113854Y-76184205D01*
X118113849Y-76184201D01*
X117910048Y-76036132D01*
X117910047Y-76036131D01*
X117910045Y-76036130D01*
X117685579Y-75921759D01*
X117561438Y-75881423D01*
X117445983Y-75843909D01*
X117370889Y-75832015D01*
X117307755Y-75802085D01*
X117302608Y-75797223D01*
X115798621Y-74293236D01*
X115798619Y-74293234D01*
X115633011Y-74172913D01*
X115499521Y-74104897D01*
X115499518Y-74104895D01*
X115450621Y-74079981D01*
X115450620Y-74079980D01*
X115450619Y-74079980D01*
X115319821Y-74037481D01*
X115255935Y-74016723D01*
X115255932Y-74016722D01*
X115100620Y-73992123D01*
X115053752Y-73984700D01*
X98116148Y-73984700D01*
X98048754Y-73995374D01*
X97913964Y-74016723D01*
X97719284Y-74079977D01*
X97719281Y-74079978D01*
X97536886Y-74172915D01*
X97371286Y-74293228D01*
X97371282Y-74293232D01*
X91406334Y-80258181D01*
X91345011Y-80291666D01*
X91318653Y-80294500D01*
X85069145Y-80294500D01*
X85002106Y-80274815D01*
X84956351Y-80222011D01*
X84946407Y-80152853D01*
X84968827Y-80097615D01*
X85022345Y-80023952D01*
X85097834Y-79920051D01*
X85215779Y-79688572D01*
X85296060Y-79441493D01*
X85318739Y-79298298D01*
X85336700Y-79184902D01*
X85336700Y-78925097D01*
X85315147Y-78789021D01*
X85296060Y-78668507D01*
X85215779Y-78421428D01*
X85215777Y-78421425D01*
X85215777Y-78421423D01*
X85152230Y-78296707D01*
X85097834Y-78189949D01*
X84945131Y-77979771D01*
X84838041Y-77872681D01*
X84804556Y-77811358D01*
X84809540Y-77741666D01*
X84838041Y-77697319D01*
X84945131Y-77590229D01*
X85097834Y-77380051D01*
X85215779Y-77148572D01*
X85296060Y-76901493D01*
X85318739Y-76758298D01*
X85336700Y-76644902D01*
X85336700Y-76385097D01*
X85315147Y-76249021D01*
X85296060Y-76128507D01*
X85215779Y-75881428D01*
X85215777Y-75881425D01*
X85215777Y-75881423D01*
X85172874Y-75797223D01*
X85097834Y-75649949D01*
X84945131Y-75439771D01*
X84838041Y-75332681D01*
X84804556Y-75271358D01*
X84809540Y-75201666D01*
X84838041Y-75157319D01*
X84945131Y-75050229D01*
X85097834Y-74840051D01*
X85215779Y-74608572D01*
X85296060Y-74361493D01*
X85320534Y-74206966D01*
X85336700Y-74104902D01*
X85336700Y-73845097D01*
X85315147Y-73709021D01*
X85296060Y-73588507D01*
X85215779Y-73341428D01*
X85215777Y-73341425D01*
X85215777Y-73341423D01*
X85172987Y-73257445D01*
X85097834Y-73109949D01*
X84945131Y-72899771D01*
X84838041Y-72792681D01*
X84804556Y-72731358D01*
X84809540Y-72661666D01*
X84838041Y-72617319D01*
X84873937Y-72581423D01*
X84945131Y-72510229D01*
X85097834Y-72300051D01*
X85215779Y-72068572D01*
X85296060Y-71821493D01*
X85318739Y-71678298D01*
X85336700Y-71564902D01*
X85336700Y-71305097D01*
X85315147Y-71169021D01*
X85296060Y-71048507D01*
X85215779Y-70801428D01*
X85215777Y-70801425D01*
X85215777Y-70801423D01*
X85150632Y-70673571D01*
X85097834Y-70569949D01*
X84945131Y-70359771D01*
X84838041Y-70252681D01*
X84804556Y-70191358D01*
X84809540Y-70121666D01*
X84838041Y-70077319D01*
X84873937Y-70041423D01*
X84945131Y-69970229D01*
X85097834Y-69760051D01*
X85215779Y-69528572D01*
X85296060Y-69281493D01*
X85320534Y-69126966D01*
X85336700Y-69024902D01*
X85336700Y-68765097D01*
X85308505Y-68587085D01*
X85296060Y-68508507D01*
X85215779Y-68261428D01*
X85215777Y-68261425D01*
X85215777Y-68261423D01*
X85162594Y-68157048D01*
X85097834Y-68029949D01*
X84945131Y-67819771D01*
X84838041Y-67712681D01*
X84804556Y-67651358D01*
X84809540Y-67581666D01*
X84838041Y-67537319D01*
X84873937Y-67501423D01*
X84945131Y-67430229D01*
X85097834Y-67220051D01*
X85215779Y-66988572D01*
X85296060Y-66741493D01*
X85318739Y-66598298D01*
X85336700Y-66484902D01*
X85336700Y-66225097D01*
X85309041Y-66050466D01*
X85296060Y-65968507D01*
X85215779Y-65721428D01*
X85215777Y-65721425D01*
X85215777Y-65721423D01*
X85172987Y-65637445D01*
X85097834Y-65489949D01*
X84945131Y-65279771D01*
X84838041Y-65172681D01*
X84804556Y-65111358D01*
X84809540Y-65041666D01*
X84838041Y-64997319D01*
X84945131Y-64890229D01*
X85097834Y-64680051D01*
X85215779Y-64448572D01*
X85296060Y-64201493D01*
X85324930Y-64019211D01*
X85336700Y-63944902D01*
X85336700Y-63685097D01*
X85309676Y-63514477D01*
X85296060Y-63428507D01*
X85215779Y-63181428D01*
X85215777Y-63181425D01*
X85215777Y-63181423D01*
X85154135Y-63060445D01*
X85097834Y-62949949D01*
X84945131Y-62739771D01*
X84838041Y-62632681D01*
X84804556Y-62571358D01*
X84809540Y-62501666D01*
X84838041Y-62457319D01*
X84847711Y-62447649D01*
X84945131Y-62350229D01*
X85097834Y-62140051D01*
X85215779Y-61908572D01*
X85296060Y-61661493D01*
X85318739Y-61518298D01*
X85336700Y-61404902D01*
X85336700Y-61145097D01*
X85315147Y-61009021D01*
X85296060Y-60888507D01*
X85215779Y-60641428D01*
X85215777Y-60641425D01*
X85215777Y-60641423D01*
X85172987Y-60557445D01*
X85097834Y-60409949D01*
X84945131Y-60199771D01*
X84838041Y-60092681D01*
X84804556Y-60031358D01*
X84809540Y-59961666D01*
X84838041Y-59917319D01*
X84945131Y-59810229D01*
X85097834Y-59600051D01*
X85215779Y-59368572D01*
X85296060Y-59121493D01*
X85318739Y-58978298D01*
X85336700Y-58864902D01*
X85336700Y-58605097D01*
X85307638Y-58421611D01*
X85296060Y-58348507D01*
X85215779Y-58101428D01*
X85215777Y-58101425D01*
X85215777Y-58101423D01*
X85172987Y-58017445D01*
X85097834Y-57869949D01*
X84945131Y-57659771D01*
X84838041Y-57552681D01*
X84804556Y-57491358D01*
X84809540Y-57421666D01*
X84838041Y-57377319D01*
X84945131Y-57270229D01*
X85097834Y-57060051D01*
X85215779Y-56828572D01*
X85296060Y-56581493D01*
X85318739Y-56438298D01*
X85336700Y-56324902D01*
X85336700Y-56065097D01*
X85315147Y-55929021D01*
X85296060Y-55808507D01*
X85215779Y-55561428D01*
X85215777Y-55561425D01*
X85215777Y-55561423D01*
X85097833Y-55329948D01*
X85097832Y-55329946D01*
X85052985Y-55268219D01*
X85029506Y-55202416D01*
X85045331Y-55134362D01*
X85065623Y-55107655D01*
X85065624Y-55107654D01*
X85166016Y-55007262D01*
X85261989Y-54854522D01*
X85321568Y-54684255D01*
X85336700Y-54549954D01*
X85336700Y-52760046D01*
X85321568Y-52625745D01*
X85261989Y-52455478D01*
X85166016Y-52302738D01*
X85038462Y-52175184D01*
X85001955Y-52152245D01*
X84885723Y-52079211D01*
X84715454Y-52019631D01*
X84715449Y-52019630D01*
X84581160Y-52004500D01*
X84581154Y-52004500D01*
X82791246Y-52004500D01*
X82791239Y-52004500D01*
X82656950Y-52019630D01*
X82656945Y-52019631D01*
X82486676Y-52079211D01*
X82333937Y-52175184D01*
X82206384Y-52302737D01*
X82110411Y-52455476D01*
X82050831Y-52625745D01*
X82050830Y-52625750D01*
X82035700Y-52760039D01*
X82035700Y-54549960D01*
X82050830Y-54684249D01*
X82050831Y-54684254D01*
X82110411Y-54854523D01*
X82206384Y-55007262D01*
X82306776Y-55107654D01*
X82340261Y-55168977D01*
X82335277Y-55238669D01*
X82319414Y-55268219D01*
X82274567Y-55329946D01*
X82156622Y-55561423D01*
X82076340Y-55808506D01*
X82035700Y-56065097D01*
X82035700Y-56324902D01*
X82076340Y-56581493D01*
X82156622Y-56828576D01*
X82274568Y-57060054D01*
X82427266Y-57270225D01*
X82427271Y-57270231D01*
X82534359Y-57377319D01*
X82567844Y-57438642D01*
X82562860Y-57508334D01*
X82534359Y-57552681D01*
X82427271Y-57659768D01*
X82427266Y-57659774D01*
X82274568Y-57869945D01*
X82156622Y-58101423D01*
X82076340Y-58348506D01*
X82035700Y-58605097D01*
X82035700Y-58864902D01*
X82076340Y-59121493D01*
X82156622Y-59368576D01*
X82274568Y-59600054D01*
X82427266Y-59810225D01*
X82427271Y-59810231D01*
X82534359Y-59917319D01*
X82567844Y-59978642D01*
X82562860Y-60048334D01*
X82534359Y-60092681D01*
X82427271Y-60199768D01*
X82427266Y-60199774D01*
X82274568Y-60409945D01*
X82156622Y-60641423D01*
X82076340Y-60888506D01*
X82035700Y-61145097D01*
X82035700Y-61404902D01*
X82076340Y-61661493D01*
X82156622Y-61908576D01*
X82236505Y-62065353D01*
X82271743Y-62134511D01*
X82274568Y-62140054D01*
X82427266Y-62350225D01*
X82427271Y-62350231D01*
X82534359Y-62457319D01*
X82567844Y-62518642D01*
X82562860Y-62588334D01*
X82534359Y-62632681D01*
X82427271Y-62739768D01*
X82427266Y-62739774D01*
X82274568Y-62949945D01*
X82156622Y-63181423D01*
X82076340Y-63428506D01*
X82035700Y-63685097D01*
X82035700Y-63944902D01*
X82076340Y-64201493D01*
X82156622Y-64448576D01*
X82214955Y-64563058D01*
X82258064Y-64647665D01*
X82274568Y-64680054D01*
X82427266Y-64890225D01*
X82427271Y-64890231D01*
X82534359Y-64997319D01*
X82567844Y-65058642D01*
X82562860Y-65128334D01*
X82534359Y-65172681D01*
X82427271Y-65279768D01*
X82427266Y-65279774D01*
X82274568Y-65489945D01*
X82156622Y-65721423D01*
X82076340Y-65968506D01*
X82035700Y-66225097D01*
X82035700Y-66484902D01*
X82076340Y-66741493D01*
X82156622Y-66988576D01*
X82201122Y-67075910D01*
X82252176Y-67176109D01*
X82274568Y-67220054D01*
X82427266Y-67430225D01*
X82427271Y-67430231D01*
X82534359Y-67537319D01*
X82567844Y-67598642D01*
X82562860Y-67668334D01*
X82534359Y-67712681D01*
X82427271Y-67819768D01*
X82427266Y-67819774D01*
X82274568Y-68029945D01*
X82156622Y-68261423D01*
X82076340Y-68508506D01*
X82035700Y-68765097D01*
X82035700Y-69024902D01*
X82076340Y-69281493D01*
X82156622Y-69528576D01*
X82274568Y-69760054D01*
X82427266Y-69970225D01*
X82427271Y-69970231D01*
X82534359Y-70077319D01*
X82567844Y-70138642D01*
X82562860Y-70208334D01*
X82534359Y-70252681D01*
X82427271Y-70359768D01*
X82427270Y-70359770D01*
X82274568Y-70569945D01*
X82156622Y-70801423D01*
X82076340Y-71048506D01*
X82035700Y-71305097D01*
X82035700Y-71564902D01*
X82076340Y-71821493D01*
X82156622Y-72068576D01*
X82274568Y-72300054D01*
X82427266Y-72510225D01*
X82427271Y-72510231D01*
X82534359Y-72617319D01*
X82567844Y-72678642D01*
X82562860Y-72748334D01*
X82534359Y-72792681D01*
X82427271Y-72899768D01*
X82427266Y-72899774D01*
X82274568Y-73109945D01*
X82156622Y-73341423D01*
X82076340Y-73588506D01*
X82035700Y-73845097D01*
X82035700Y-74104902D01*
X82076340Y-74361493D01*
X82156622Y-74608576D01*
X82225919Y-74744577D01*
X82266825Y-74824859D01*
X82274568Y-74840054D01*
X82427266Y-75050225D01*
X82427271Y-75050231D01*
X82534359Y-75157319D01*
X82567844Y-75218642D01*
X82562860Y-75288334D01*
X82534359Y-75332681D01*
X82427271Y-75439768D01*
X82427266Y-75439774D01*
X82274568Y-75649945D01*
X82156622Y-75881423D01*
X82076340Y-76128506D01*
X82035700Y-76385097D01*
X82035700Y-76644902D01*
X82076340Y-76901493D01*
X82156622Y-77148576D01*
X82274568Y-77380054D01*
X82427266Y-77590225D01*
X82427271Y-77590231D01*
X82534359Y-77697319D01*
X82567844Y-77758642D01*
X82562860Y-77828334D01*
X82534359Y-77872681D01*
X82427271Y-77979768D01*
X82427266Y-77979774D01*
X82274568Y-78189945D01*
X82156622Y-78421423D01*
X82076340Y-78668506D01*
X82035700Y-78925097D01*
X82035700Y-79184902D01*
X82076340Y-79441493D01*
X82156622Y-79688576D01*
X82274568Y-79920054D01*
X82427266Y-80130225D01*
X82427271Y-80130231D01*
X82534359Y-80237319D01*
X82567844Y-80298642D01*
X82562860Y-80368334D01*
X82534359Y-80412681D01*
X82427271Y-80519768D01*
X82427266Y-80519774D01*
X82274568Y-80729945D01*
X82156622Y-80961423D01*
X82076340Y-81208506D01*
X82035700Y-81465097D01*
X82035700Y-81724902D01*
X82076340Y-81981493D01*
X82156622Y-82228576D01*
X82274568Y-82460054D01*
X82427266Y-82670225D01*
X82427271Y-82670231D01*
X82534359Y-82777319D01*
X82567844Y-82838642D01*
X82562860Y-82908334D01*
X82534359Y-82952681D01*
X82427271Y-83059768D01*
X82427266Y-83059774D01*
X82274568Y-83269945D01*
X82156622Y-83501423D01*
X82076340Y-83748506D01*
X82035700Y-84005097D01*
X82035700Y-84264902D01*
X82076340Y-84521493D01*
X82156622Y-84768576D01*
X82274568Y-85000054D01*
X82427266Y-85210225D01*
X82427271Y-85210231D01*
X82534359Y-85317319D01*
X82567844Y-85378642D01*
X82562860Y-85448334D01*
X82534359Y-85492681D01*
X82427271Y-85599768D01*
X82427266Y-85599774D01*
X82274568Y-85809945D01*
X82156622Y-86041423D01*
X82076340Y-86288506D01*
X82035700Y-86545097D01*
X82035700Y-86804902D01*
X82076340Y-87061493D01*
X82076339Y-87061493D01*
X82156622Y-87308576D01*
X82274568Y-87540054D01*
X82427266Y-87750225D01*
X82427271Y-87750231D01*
X82534359Y-87857319D01*
X82567844Y-87918642D01*
X82562860Y-87988334D01*
X82534359Y-88032681D01*
X82427271Y-88139768D01*
X82427266Y-88139774D01*
X82274568Y-88349945D01*
X82156622Y-88581423D01*
X82076340Y-88828506D01*
X82035700Y-89085097D01*
X82035700Y-89344902D01*
X82076340Y-89601493D01*
X82156622Y-89848576D01*
X82229828Y-89992248D01*
X82274566Y-90080051D01*
X82427269Y-90290229D01*
X82610971Y-90473931D01*
X82821149Y-90626634D01*
X82968645Y-90701787D01*
X83052623Y-90744577D01*
X83052625Y-90744577D01*
X83052628Y-90744579D01*
X83299707Y-90824860D01*
X83431906Y-90845797D01*
X83556298Y-90865500D01*
X83556303Y-90865500D01*
X83816102Y-90865500D01*
X83929498Y-90847539D01*
X84072693Y-90824860D01*
X84319772Y-90744579D01*
X84551251Y-90626634D01*
X84660544Y-90547228D01*
X84671619Y-90539182D01*
X84737425Y-90515702D01*
X84744504Y-90515500D01*
X88107812Y-90515500D01*
X88122412Y-90519787D01*
X88137616Y-90519135D01*
X88155256Y-90529431D01*
X88174851Y-90535185D01*
X88185747Y-90547228D01*
X88197959Y-90554356D01*
X88218291Y-90583197D01*
X88218295Y-90583202D01*
X88223703Y-90593815D01*
X88223703Y-90593816D01*
X88223705Y-90593819D01*
X88293911Y-90731609D01*
X88334914Y-90788044D01*
X88414234Y-90897219D01*
X88414235Y-90897220D01*
X88414236Y-90897221D01*
X97153423Y-99636407D01*
X97186908Y-99697730D01*
X97188215Y-99704689D01*
X97200109Y-99779782D01*
X97277961Y-100019384D01*
X97294990Y-100052806D01*
X97307886Y-100121475D01*
X97281609Y-100186215D01*
X97224503Y-100226472D01*
X97184505Y-100233100D01*
X65103547Y-100233100D01*
X65036508Y-100213415D01*
X65015866Y-100196781D01*
X55794077Y-90974992D01*
X55760592Y-90913669D01*
X55765576Y-90843977D01*
X55807448Y-90788044D01*
X55843435Y-90769382D01*
X55919772Y-90744579D01*
X56151251Y-90626634D01*
X56361429Y-90473931D01*
X56531367Y-90303991D01*
X56546143Y-90291371D01*
X56662319Y-90206966D01*
X68406966Y-78462319D01*
X68527287Y-78296711D01*
X68573753Y-78205514D01*
X68620220Y-78114319D01*
X68683477Y-77919634D01*
X68699971Y-77815500D01*
X68706555Y-77773931D01*
X68715500Y-77717456D01*
X68715500Y-64354146D01*
X68735185Y-64287107D01*
X68751819Y-64266465D01*
X86816465Y-46201819D01*
X86877788Y-46168334D01*
X86904146Y-46165500D01*
X99680390Y-46165500D01*
X99710543Y-46174354D01*
X99741163Y-46181414D01*
X99744629Y-46184363D01*
X99747429Y-46185185D01*
X99769152Y-46202913D01*
X99778188Y-46212176D01*
X99781384Y-46217262D01*
X99853400Y-46289278D01*
X99853918Y-46289809D01*
X99869944Y-46320045D01*
X99886322Y-46350038D01*
X99886264Y-46350835D01*
X99886640Y-46351543D01*
X99883777Y-46385613D01*
X99881338Y-46419730D01*
X99880847Y-46420492D01*
X99880791Y-46421168D01*
X99878482Y-46424173D01*
X99852838Y-46464077D01*
X99759134Y-46557781D01*
X95601936Y-50714978D01*
X95481616Y-50880584D01*
X95481614Y-50880587D01*
X95452888Y-50936966D01*
X95388232Y-51063859D01*
X95387172Y-51067619D01*
X95342883Y-51203929D01*
X95342883Y-51203930D01*
X95325422Y-51257668D01*
X95325422Y-51257669D01*
X95293400Y-51459848D01*
X95293400Y-68361751D01*
X95325422Y-68563932D01*
X95325423Y-68563935D01*
X95334044Y-68590466D01*
X95388680Y-68758619D01*
X95397435Y-68775801D01*
X95401266Y-68783321D01*
X95401267Y-68783322D01*
X95404986Y-68790621D01*
X95481613Y-68941011D01*
X95601934Y-69106619D01*
X95601935Y-69106620D01*
X95601936Y-69106621D01*
X97021008Y-70525692D01*
X97021022Y-70525707D01*
X97024133Y-70528818D01*
X97024134Y-70528819D01*
X97168881Y-70673566D01*
X97168884Y-70673568D01*
X97168887Y-70673571D01*
X97265645Y-70743868D01*
X97306939Y-70773870D01*
X97320714Y-70783878D01*
X97334488Y-70793886D01*
X97516881Y-70886821D01*
X97516884Y-70886822D01*
X97698468Y-70945821D01*
X97711566Y-70950077D01*
X97913749Y-70982101D01*
X97913750Y-70982101D01*
X98123563Y-70982101D01*
X98123587Y-70982100D01*
X109167740Y-70982100D01*
X109187138Y-70983627D01*
X109325238Y-71005500D01*
X109325239Y-71005500D01*
X109577161Y-71005500D01*
X109577162Y-71005500D01*
X109825985Y-70966090D01*
X110065579Y-70888241D01*
X110290045Y-70773870D01*
X110493856Y-70625793D01*
X110671993Y-70447656D01*
X110820070Y-70243845D01*
X110934441Y-70019379D01*
X111012290Y-69779785D01*
X111051700Y-69530962D01*
X111051700Y-69279038D01*
X111012290Y-69030215D01*
X110934441Y-68790621D01*
X110934439Y-68790618D01*
X110934439Y-68790616D01*
X110898710Y-68720495D01*
X110885814Y-68651826D01*
X110912090Y-68587085D01*
X110969197Y-68546828D01*
X111009195Y-68540200D01*
X114315853Y-68540200D01*
X114382892Y-68559885D01*
X114403534Y-68576519D01*
X115463423Y-69636407D01*
X115496908Y-69697730D01*
X115498215Y-69704689D01*
X115510109Y-69779782D01*
X115510110Y-69779785D01*
X115587959Y-70019379D01*
X115684236Y-70208334D01*
X115702332Y-70243848D01*
X115850401Y-70447649D01*
X115850405Y-70447654D01*
X116028545Y-70625794D01*
X116028550Y-70625798D01*
X116204165Y-70753389D01*
X116232355Y-70773870D01*
X116355403Y-70836566D01*
X116456816Y-70888239D01*
X116456818Y-70888239D01*
X116456821Y-70888241D01*
X116696415Y-70966090D01*
X116945238Y-71005500D01*
X116945239Y-71005500D01*
X117197161Y-71005500D01*
X117197162Y-71005500D01*
X117445985Y-70966090D01*
X117685579Y-70888241D01*
X117910045Y-70773870D01*
X118113856Y-70625793D01*
X118291993Y-70447656D01*
X118440070Y-70243845D01*
X118554441Y-70019379D01*
X118632290Y-69779785D01*
X118671700Y-69530962D01*
X118671700Y-69279038D01*
X118632290Y-69030215D01*
X118554441Y-68790621D01*
X118554439Y-68790618D01*
X118554439Y-68790616D01*
X118512947Y-68709184D01*
X118440070Y-68566155D01*
X118398186Y-68508506D01*
X118291998Y-68362350D01*
X118291994Y-68362345D01*
X118113854Y-68184205D01*
X118113849Y-68184201D01*
X117910048Y-68036132D01*
X117910047Y-68036131D01*
X117910045Y-68036130D01*
X117685579Y-67921759D01*
X117445985Y-67843910D01*
X117445983Y-67843909D01*
X117370889Y-67832015D01*
X117307754Y-67802085D01*
X117302607Y-67797223D01*
X115753121Y-66247736D01*
X115753120Y-66247735D01*
X115753119Y-66247734D01*
X115587511Y-66127413D01*
X115436493Y-66050466D01*
X115436493Y-66050465D01*
X115415708Y-66039875D01*
X115405119Y-66034480D01*
X115307776Y-66002851D01*
X115283903Y-65995094D01*
X115210435Y-65971222D01*
X115035895Y-65943578D01*
X115008252Y-65939200D01*
X115008251Y-65939200D01*
X105765547Y-65939200D01*
X105698508Y-65919515D01*
X105652753Y-65866711D01*
X105642809Y-65797553D01*
X105671834Y-65733997D01*
X105677866Y-65727519D01*
X106561066Y-64844319D01*
X106622389Y-64810834D01*
X106648747Y-64808000D01*
X115071051Y-64808000D01*
X115071052Y-64808000D01*
X115273235Y-64775977D01*
X115370576Y-64744348D01*
X115467919Y-64712720D01*
X115585689Y-64652713D01*
X115650311Y-64619787D01*
X115815919Y-64499466D01*
X117302610Y-63012773D01*
X117363931Y-62979290D01*
X117370845Y-62977990D01*
X117445985Y-62966090D01*
X117685579Y-62888241D01*
X117910045Y-62773870D01*
X118113856Y-62625793D01*
X118291993Y-62447656D01*
X118440070Y-62243845D01*
X118554441Y-62019379D01*
X118632290Y-61779785D01*
X118671700Y-61530962D01*
X118671700Y-61279038D01*
X118632290Y-61030215D01*
X118554441Y-60790621D01*
X118554439Y-60790618D01*
X118554439Y-60790616D01*
X118478423Y-60641428D01*
X118440070Y-60566155D01*
X118328823Y-60413036D01*
X118291998Y-60362350D01*
X118291994Y-60362345D01*
X118113854Y-60184205D01*
X118113849Y-60184201D01*
X117910048Y-60036132D01*
X117910047Y-60036131D01*
X117910045Y-60036130D01*
X117827225Y-59993931D01*
X117685583Y-59921760D01*
X117445985Y-59843910D01*
X117197162Y-59804500D01*
X116945238Y-59804500D01*
X116820826Y-59824205D01*
X116696414Y-59843910D01*
X116456816Y-59921760D01*
X116232351Y-60036132D01*
X116028550Y-60184201D01*
X116028545Y-60184205D01*
X115850405Y-60362345D01*
X115850401Y-60362350D01*
X115702332Y-60566151D01*
X115587960Y-60790618D01*
X115510109Y-61030217D01*
X115498215Y-61105309D01*
X115468285Y-61168443D01*
X115463423Y-61173590D01*
X114466334Y-62170681D01*
X114405011Y-62204166D01*
X114378653Y-62207000D01*
X111041193Y-62207000D01*
X110974154Y-62187315D01*
X110928399Y-62134511D01*
X110918455Y-62065353D01*
X110930710Y-62026702D01*
X110934438Y-62019385D01*
X110934439Y-62019383D01*
X110934441Y-62019379D01*
X111012290Y-61779785D01*
X111051700Y-61530962D01*
X111051700Y-61279038D01*
X111012290Y-61030215D01*
X110934441Y-60790621D01*
X110934439Y-60790618D01*
X110934439Y-60790616D01*
X110858423Y-60641428D01*
X110820070Y-60566155D01*
X110708823Y-60413036D01*
X110671998Y-60362350D01*
X110671994Y-60362345D01*
X110493854Y-60184205D01*
X110493849Y-60184201D01*
X110290048Y-60036132D01*
X110290047Y-60036131D01*
X110290045Y-60036130D01*
X110207225Y-59993931D01*
X110065583Y-59921760D01*
X109825985Y-59843910D01*
X109577162Y-59804500D01*
X109325238Y-59804500D01*
X109200826Y-59824205D01*
X109076414Y-59843910D01*
X108836816Y-59921760D01*
X108612354Y-60036130D01*
X108574001Y-60063995D01*
X108550846Y-60080818D01*
X108485042Y-60104298D01*
X108477962Y-60104500D01*
X105352151Y-60104500D01*
X105147448Y-60104500D01*
X105100579Y-60111923D01*
X104945268Y-60136522D01*
X104945267Y-60136522D01*
X104864661Y-60162712D01*
X104864661Y-60162713D01*
X104825622Y-60175397D01*
X104750576Y-60199781D01*
X104683303Y-60234060D01*
X104568187Y-60292714D01*
X104568184Y-60292716D01*
X104402578Y-60413036D01*
X100288689Y-64526925D01*
X100279833Y-64531760D01*
X100273653Y-64539736D01*
X100249684Y-64548223D01*
X100227366Y-64560410D01*
X100217300Y-64559690D01*
X100207790Y-64563058D01*
X100183039Y-64557240D01*
X100157674Y-64555426D01*
X100147783Y-64548952D01*
X100139775Y-64547070D01*
X100122966Y-64532709D01*
X100111877Y-64525451D01*
X100103676Y-64516972D01*
X100101016Y-64512738D01*
X100057276Y-64468998D01*
X100056569Y-64468267D01*
X100040793Y-64438194D01*
X100024534Y-64408418D01*
X100024369Y-64406886D01*
X100024111Y-64406394D01*
X100024203Y-64405345D01*
X100021700Y-64382060D01*
X100021700Y-63060445D01*
X100041385Y-62993406D01*
X100058014Y-62972769D01*
X104291750Y-58739032D01*
X104291757Y-58739027D01*
X104298817Y-58731967D01*
X104298819Y-58731966D01*
X104443566Y-58587219D01*
X104557453Y-58430466D01*
X104563887Y-58421611D01*
X104610353Y-58330414D01*
X104656820Y-58239219D01*
X104720077Y-58044534D01*
X104752100Y-57842352D01*
X104752100Y-43405748D01*
X104720077Y-43203566D01*
X104656820Y-43008881D01*
X104656818Y-43008878D01*
X104656818Y-43008876D01*
X104610353Y-42917685D01*
X104610352Y-42917684D01*
X104563887Y-42826489D01*
X104443566Y-42660881D01*
X103481219Y-41698534D01*
X103315611Y-41578213D01*
X103224414Y-41531746D01*
X103224412Y-41531745D01*
X103133223Y-41485281D01*
X103086515Y-41470104D01*
X103035876Y-41453651D01*
X103012003Y-41445894D01*
X102938535Y-41422022D01*
X102763995Y-41394378D01*
X102736352Y-41390000D01*
X50668551Y-41390000D01*
X50463848Y-41390000D01*
X50396453Y-41400674D01*
X50261663Y-41422023D01*
X50164323Y-41453650D01*
X50164323Y-41453651D01*
X50111552Y-41470797D01*
X50066974Y-41485282D01*
X49975784Y-41531745D01*
X49975785Y-41531746D01*
X49884588Y-41578213D01*
X49718978Y-41698536D01*
X28117536Y-63299978D01*
X27997211Y-63465590D01*
X27972305Y-63514475D01*
X27972304Y-63514477D01*
X27904281Y-63647976D01*
X27892220Y-63685097D01*
X27876715Y-63732819D01*
X27874746Y-63738878D01*
X27841022Y-63842667D01*
X27841022Y-63842668D01*
X27836688Y-63870034D01*
X27809000Y-64044848D01*
X27809000Y-67150051D01*
X27841022Y-67352231D01*
X27841022Y-67352232D01*
X27860501Y-67412182D01*
X27904278Y-67546916D01*
X27904280Y-67546919D01*
X27943288Y-67623477D01*
X27997213Y-67729311D01*
X28117534Y-67894919D01*
X28117536Y-67894921D01*
X29349586Y-69126971D01*
X29464186Y-69210231D01*
X29515190Y-69247287D01*
X29631407Y-69306503D01*
X29697576Y-69340218D01*
X29697578Y-69340218D01*
X29697581Y-69340220D01*
X29892266Y-69403477D01*
X29918957Y-69407704D01*
X29921439Y-69408881D01*
X29924180Y-69408646D01*
X29952828Y-69423760D01*
X29982089Y-69437632D01*
X29983542Y-69439965D01*
X29985976Y-69441250D01*
X30001909Y-69469462D01*
X30019021Y-69496943D01*
X30018981Y-69499691D01*
X30020335Y-69502088D01*
X30018486Y-69534427D01*
X30018025Y-69566806D01*
X30016456Y-69569938D01*
X30016348Y-69571844D01*
X29999878Y-69603060D01*
X29995240Y-69609444D01*
X29967807Y-69636878D01*
X29904281Y-69683033D01*
X25549836Y-74037478D01*
X25549834Y-74037481D01*
X25429517Y-74203082D01*
X25429510Y-74203093D01*
X25427542Y-74206958D01*
X25427538Y-74206966D01*
X25336581Y-74385476D01*
X25273322Y-74580165D01*
X25241300Y-74782348D01*
X20500500Y-74782348D01*
X20500500Y-20624500D01*
X20520185Y-20557461D01*
X20572989Y-20511706D01*
X20624500Y-20500500D01*
X123375500Y-20500500D01*
X123442539Y-20520185D01*
G37*
%TD.AperFunction*%
%TA.AperFunction,NonConductor*%
G36*
X99610023Y-50453160D02*
G01*
X99642325Y-50455471D01*
X99644527Y-50457119D01*
X99647259Y-50457433D01*
X99672333Y-50477935D01*
X99698258Y-50497343D01*
X99699869Y-50500451D01*
X99701348Y-50501660D01*
X99716921Y-50533333D01*
X99731620Y-50578572D01*
X99801124Y-50714978D01*
X99849566Y-50810051D01*
X100002269Y-51020229D01*
X100185971Y-51203931D01*
X100396149Y-51356634D01*
X100526285Y-51422942D01*
X100627623Y-51474577D01*
X100627625Y-51474577D01*
X100627628Y-51474579D01*
X100874707Y-51554860D01*
X101006906Y-51575797D01*
X101131298Y-51595500D01*
X101131303Y-51595500D01*
X101391102Y-51595500D01*
X101504498Y-51577539D01*
X101647693Y-51554860D01*
X101894772Y-51474579D01*
X101970805Y-51435837D01*
X102039474Y-51422942D01*
X102104214Y-51449218D01*
X102144472Y-51506324D01*
X102151100Y-51546323D01*
X102151100Y-57149953D01*
X102131415Y-57216992D01*
X102114781Y-57237634D01*
X98106081Y-61246334D01*
X98044758Y-61279819D01*
X97975066Y-61274835D01*
X97919133Y-61232963D01*
X97894716Y-61167499D01*
X97894400Y-61158653D01*
X97894400Y-52152245D01*
X97914085Y-52085206D01*
X97930714Y-52064569D01*
X99511312Y-50483970D01*
X99513723Y-50482653D01*
X99515144Y-50480299D01*
X99544212Y-50466005D01*
X99572633Y-50450487D01*
X99575374Y-50450683D01*
X99577844Y-50449469D01*
X99610023Y-50453160D01*
G37*
%TD.AperFunction*%
%TA.AperFunction,NonConductor*%
G36*
X103950893Y-76605385D02*
G01*
X103996648Y-76658189D01*
X104006592Y-76727347D01*
X103977567Y-76790903D01*
X103971535Y-76797381D01*
X101552880Y-79216033D01*
X101491557Y-79249518D01*
X101421865Y-79244534D01*
X101377518Y-79216033D01*
X100882821Y-78721336D01*
X100882820Y-78721335D01*
X100882819Y-78721334D01*
X100717211Y-78601013D01*
X100626014Y-78554546D01*
X100534823Y-78508081D01*
X100488115Y-78492904D01*
X100437476Y-78476451D01*
X100413603Y-78468694D01*
X100340135Y-78444822D01*
X100165595Y-78417178D01*
X100137952Y-78412800D01*
X97534351Y-78412800D01*
X97329648Y-78412800D01*
X97295078Y-78418275D01*
X97231822Y-78428294D01*
X97162528Y-78419339D01*
X97109076Y-78374343D01*
X97088437Y-78307591D01*
X97107162Y-78240278D01*
X97124739Y-78218144D01*
X98720865Y-76622019D01*
X98782188Y-76588534D01*
X98808546Y-76585700D01*
X103883854Y-76585700D01*
X103950893Y-76605385D01*
G37*
%TD.AperFunction*%
%TA.AperFunction,NonConductor*%
G36*
X114428392Y-76605385D02*
G01*
X114449034Y-76622019D01*
X115013931Y-77186916D01*
X115018262Y-77191257D01*
X115019034Y-77192319D01*
X115143850Y-77317135D01*
X115144284Y-77317570D01*
X115161065Y-77348386D01*
X115177668Y-77378792D01*
X115177662Y-77378865D01*
X115177699Y-77378932D01*
X115175147Y-77414029D01*
X115172684Y-77448484D01*
X115172638Y-77448554D01*
X115172634Y-77448618D01*
X115172382Y-77448953D01*
X115144183Y-77492831D01*
X112208834Y-80428181D01*
X112147511Y-80461666D01*
X112121153Y-80464500D01*
X104689372Y-80464500D01*
X104622333Y-80444815D01*
X104616486Y-80440817D01*
X104613842Y-80438896D01*
X104613837Y-80438893D01*
X104396389Y-80328097D01*
X104390825Y-80326289D01*
X104379608Y-80322644D01*
X104321935Y-80283208D01*
X104294737Y-80218849D01*
X104306652Y-80150003D01*
X104330245Y-80117037D01*
X105705465Y-78741819D01*
X105766788Y-78708334D01*
X105793146Y-78705500D01*
X108477962Y-78705500D01*
X108545001Y-78725185D01*
X108550837Y-78729175D01*
X108612355Y-78773870D01*
X108718406Y-78827905D01*
X108836816Y-78888239D01*
X108836818Y-78888239D01*
X108836821Y-78888241D01*
X109076415Y-78966090D01*
X109325238Y-79005500D01*
X109325239Y-79005500D01*
X109577161Y-79005500D01*
X109577162Y-79005500D01*
X109825985Y-78966090D01*
X110065579Y-78888241D01*
X110290045Y-78773870D01*
X110493856Y-78625793D01*
X110671993Y-78447656D01*
X110820070Y-78243845D01*
X110934441Y-78019379D01*
X111012290Y-77779785D01*
X111051700Y-77530962D01*
X111051700Y-77279038D01*
X111012290Y-77030215D01*
X110934441Y-76790621D01*
X110934439Y-76790618D01*
X110934438Y-76790613D01*
X110921894Y-76765994D01*
X110908998Y-76697324D01*
X110935275Y-76632584D01*
X110992382Y-76592328D01*
X111032379Y-76585700D01*
X114361353Y-76585700D01*
X114428392Y-76605385D01*
G37*
%TD.AperFunction*%
%TA.AperFunction,NonConductor*%
G36*
X85116592Y-44010685D02*
G01*
X85162347Y-44063489D01*
X85172291Y-44132647D01*
X85143266Y-44196203D01*
X85137234Y-44202681D01*
X66423036Y-62916878D01*
X66423031Y-62916884D01*
X66302716Y-63082484D01*
X66302706Y-63082500D01*
X66297247Y-63093216D01*
X66297246Y-63093219D01*
X66209780Y-63264880D01*
X66209778Y-63264883D01*
X66179797Y-63357156D01*
X66179775Y-63357227D01*
X66179431Y-63358287D01*
X66146523Y-63459565D01*
X66145569Y-63465589D01*
X66144226Y-63474063D01*
X66144223Y-63474076D01*
X66114500Y-63661748D01*
X66114500Y-77025052D01*
X66094815Y-77092091D01*
X66078181Y-77112733D01*
X57040698Y-86150215D01*
X56979375Y-86183700D01*
X56909683Y-86178716D01*
X56853750Y-86136844D01*
X56835087Y-86100854D01*
X56815779Y-86041428D01*
X56697834Y-85809949D01*
X56545131Y-85599771D01*
X56438041Y-85492681D01*
X56404556Y-85431358D01*
X56409540Y-85361666D01*
X56438041Y-85317319D01*
X56476322Y-85279038D01*
X56545131Y-85210229D01*
X56697834Y-85000051D01*
X56815779Y-84768572D01*
X56896060Y-84521493D01*
X56928619Y-84315920D01*
X56936700Y-84264902D01*
X56936700Y-84005097D01*
X56904928Y-83804500D01*
X56896060Y-83748507D01*
X56815779Y-83501428D01*
X56815777Y-83501425D01*
X56815777Y-83501423D01*
X56772987Y-83417445D01*
X56697834Y-83269949D01*
X56545131Y-83059771D01*
X56438041Y-82952681D01*
X56404556Y-82891358D01*
X56409540Y-82821666D01*
X56438041Y-82777319D01*
X56473426Y-82741934D01*
X56545131Y-82670229D01*
X56697834Y-82460051D01*
X56815779Y-82228572D01*
X56896060Y-81981493D01*
X56922622Y-81813785D01*
X56936700Y-81724902D01*
X56936700Y-81465097D01*
X56915147Y-81329021D01*
X56896060Y-81208507D01*
X56815779Y-80961428D01*
X56815777Y-80961425D01*
X56815777Y-80961423D01*
X56772987Y-80877445D01*
X56697834Y-80729949D01*
X56545131Y-80519771D01*
X56438041Y-80412681D01*
X56404556Y-80351358D01*
X56409540Y-80281666D01*
X56438041Y-80237319D01*
X56456511Y-80218849D01*
X56545131Y-80130229D01*
X56697834Y-79920051D01*
X56815779Y-79688572D01*
X56896060Y-79441493D01*
X56918739Y-79298298D01*
X56936700Y-79184902D01*
X56936700Y-78925097D01*
X56915147Y-78789021D01*
X56896060Y-78668507D01*
X56815779Y-78421428D01*
X56815777Y-78421425D01*
X56815777Y-78421423D01*
X56752230Y-78296707D01*
X56697834Y-78189949D01*
X56545131Y-77979771D01*
X56438041Y-77872681D01*
X56404556Y-77811358D01*
X56409540Y-77741666D01*
X56438041Y-77697319D01*
X56545131Y-77590229D01*
X56697834Y-77380051D01*
X56815779Y-77148572D01*
X56896060Y-76901493D01*
X56918739Y-76758298D01*
X56936700Y-76644902D01*
X56936700Y-76385097D01*
X56915147Y-76249021D01*
X56896060Y-76128507D01*
X56815779Y-75881428D01*
X56815777Y-75881425D01*
X56815777Y-75881423D01*
X56772874Y-75797223D01*
X56697834Y-75649949D01*
X56545131Y-75439771D01*
X56438041Y-75332681D01*
X56404556Y-75271358D01*
X56409540Y-75201666D01*
X56438041Y-75157319D01*
X56545131Y-75050229D01*
X56697834Y-74840051D01*
X56815779Y-74608572D01*
X56896060Y-74361493D01*
X56920534Y-74206966D01*
X56936700Y-74104902D01*
X56936700Y-73845097D01*
X56915147Y-73709021D01*
X56896060Y-73588507D01*
X56815779Y-73341428D01*
X56815777Y-73341425D01*
X56815777Y-73341423D01*
X56772987Y-73257445D01*
X56697834Y-73109949D01*
X56545131Y-72899771D01*
X56438041Y-72792681D01*
X56404556Y-72731358D01*
X56409540Y-72661666D01*
X56438041Y-72617319D01*
X56473937Y-72581423D01*
X56545131Y-72510229D01*
X56697834Y-72300051D01*
X56815779Y-72068572D01*
X56896060Y-71821493D01*
X56918739Y-71678298D01*
X56936700Y-71564902D01*
X56936700Y-71305097D01*
X56915147Y-71169021D01*
X56896060Y-71048507D01*
X56815779Y-70801428D01*
X56815777Y-70801425D01*
X56815777Y-70801423D01*
X56750632Y-70673571D01*
X56697834Y-70569949D01*
X56545131Y-70359771D01*
X56438041Y-70252681D01*
X56404556Y-70191358D01*
X56409540Y-70121666D01*
X56438041Y-70077319D01*
X56473937Y-70041423D01*
X56545131Y-69970229D01*
X56697834Y-69760051D01*
X56815779Y-69528572D01*
X56896060Y-69281493D01*
X56920534Y-69126966D01*
X56936700Y-69024902D01*
X56936700Y-68765097D01*
X56908505Y-68587085D01*
X56896060Y-68508507D01*
X56815779Y-68261428D01*
X56815777Y-68261425D01*
X56815777Y-68261423D01*
X56762594Y-68157048D01*
X56697834Y-68029949D01*
X56545131Y-67819771D01*
X56438041Y-67712681D01*
X56404556Y-67651358D01*
X56409540Y-67581666D01*
X56438041Y-67537319D01*
X56473937Y-67501423D01*
X56545131Y-67430229D01*
X56697834Y-67220051D01*
X56815779Y-66988572D01*
X56896060Y-66741493D01*
X56918739Y-66598298D01*
X56936700Y-66484902D01*
X56936700Y-66225097D01*
X56909041Y-66050466D01*
X56896060Y-65968507D01*
X56815779Y-65721428D01*
X56815777Y-65721425D01*
X56815777Y-65721423D01*
X56772987Y-65637445D01*
X56697834Y-65489949D01*
X56545131Y-65279771D01*
X56438041Y-65172681D01*
X56404556Y-65111358D01*
X56409540Y-65041666D01*
X56438041Y-64997319D01*
X56545131Y-64890229D01*
X56697834Y-64680051D01*
X56815779Y-64448572D01*
X56896060Y-64201493D01*
X56924930Y-64019211D01*
X56936700Y-63944902D01*
X56936700Y-63685097D01*
X56909676Y-63514477D01*
X56896060Y-63428507D01*
X56815779Y-63181428D01*
X56815777Y-63181425D01*
X56815777Y-63181423D01*
X56754135Y-63060445D01*
X56697834Y-62949949D01*
X56545131Y-62739771D01*
X56438041Y-62632681D01*
X56404556Y-62571358D01*
X56409540Y-62501666D01*
X56438041Y-62457319D01*
X56447711Y-62447649D01*
X56545131Y-62350229D01*
X56697834Y-62140051D01*
X56815779Y-61908572D01*
X56896060Y-61661493D01*
X56918739Y-61518298D01*
X56936700Y-61404902D01*
X56936700Y-61145097D01*
X56915147Y-61009021D01*
X56896060Y-60888507D01*
X56815779Y-60641428D01*
X56815777Y-60641425D01*
X56815777Y-60641423D01*
X56772987Y-60557445D01*
X56697834Y-60409949D01*
X56545131Y-60199771D01*
X56438041Y-60092681D01*
X56404556Y-60031358D01*
X56409540Y-59961666D01*
X56438041Y-59917319D01*
X56545131Y-59810229D01*
X56697834Y-59600051D01*
X56815779Y-59368572D01*
X56896060Y-59121493D01*
X56918739Y-58978298D01*
X56936700Y-58864902D01*
X56936700Y-58605097D01*
X56907638Y-58421611D01*
X56896060Y-58348507D01*
X56815779Y-58101428D01*
X56815777Y-58101425D01*
X56815777Y-58101423D01*
X56772987Y-58017445D01*
X56697834Y-57869949D01*
X56545131Y-57659771D01*
X56438041Y-57552681D01*
X56404556Y-57491358D01*
X56409540Y-57421666D01*
X56438041Y-57377319D01*
X56545131Y-57270229D01*
X56697834Y-57060051D01*
X56815779Y-56828572D01*
X56896060Y-56581493D01*
X56918739Y-56438298D01*
X56936700Y-56324902D01*
X56936700Y-56065097D01*
X56915147Y-55929021D01*
X56896060Y-55808507D01*
X56815779Y-55561428D01*
X56815777Y-55561425D01*
X56815777Y-55561423D01*
X56697833Y-55329948D01*
X56697832Y-55329946D01*
X56652985Y-55268219D01*
X56629506Y-55202416D01*
X56645331Y-55134362D01*
X56665623Y-55107655D01*
X56665624Y-55107654D01*
X56766016Y-55007262D01*
X56861989Y-54854522D01*
X56921568Y-54684255D01*
X56936700Y-54549954D01*
X56936700Y-52760046D01*
X56921568Y-52625745D01*
X56861989Y-52455478D01*
X56766016Y-52302738D01*
X56638462Y-52175184D01*
X56601955Y-52152245D01*
X56485723Y-52079211D01*
X56315454Y-52019631D01*
X56315449Y-52019630D01*
X56181160Y-52004500D01*
X56181154Y-52004500D01*
X54391246Y-52004500D01*
X54391239Y-52004500D01*
X54256950Y-52019630D01*
X54256945Y-52019631D01*
X54086676Y-52079211D01*
X53933937Y-52175184D01*
X53806384Y-52302737D01*
X53710411Y-52455476D01*
X53650831Y-52625745D01*
X53650830Y-52625750D01*
X53635700Y-52760039D01*
X53635700Y-54549960D01*
X53650830Y-54684249D01*
X53650831Y-54684254D01*
X53710411Y-54854523D01*
X53806384Y-55007262D01*
X53906776Y-55107654D01*
X53940261Y-55168977D01*
X53935277Y-55238669D01*
X53919414Y-55268219D01*
X53874567Y-55329946D01*
X53756622Y-55561423D01*
X53676340Y-55808506D01*
X53635700Y-56065097D01*
X53635700Y-56324902D01*
X53676340Y-56581493D01*
X53756622Y-56828576D01*
X53874568Y-57060054D01*
X54027266Y-57270225D01*
X54027271Y-57270231D01*
X54134359Y-57377319D01*
X54167844Y-57438642D01*
X54162860Y-57508334D01*
X54134359Y-57552681D01*
X54027271Y-57659768D01*
X54027266Y-57659774D01*
X53874568Y-57869945D01*
X53756622Y-58101423D01*
X53676340Y-58348506D01*
X53635700Y-58605097D01*
X53635700Y-58864902D01*
X53676340Y-59121493D01*
X53756622Y-59368576D01*
X53874568Y-59600054D01*
X54027266Y-59810225D01*
X54027271Y-59810231D01*
X54134359Y-59917319D01*
X54167844Y-59978642D01*
X54162860Y-60048334D01*
X54134359Y-60092681D01*
X54027271Y-60199768D01*
X54027266Y-60199774D01*
X53874568Y-60409945D01*
X53756622Y-60641423D01*
X53676340Y-60888506D01*
X53635700Y-61145097D01*
X53635700Y-61404902D01*
X53676340Y-61661493D01*
X53756622Y-61908576D01*
X53836505Y-62065353D01*
X53871743Y-62134511D01*
X53874568Y-62140054D01*
X54027266Y-62350225D01*
X54027271Y-62350231D01*
X54134359Y-62457319D01*
X54167844Y-62518642D01*
X54162860Y-62588334D01*
X54134359Y-62632681D01*
X54027271Y-62739768D01*
X54027266Y-62739774D01*
X53874568Y-62949945D01*
X53756622Y-63181423D01*
X53676340Y-63428506D01*
X53635700Y-63685097D01*
X53635700Y-63944902D01*
X53676340Y-64201493D01*
X53756622Y-64448576D01*
X53814955Y-64563058D01*
X53858064Y-64647665D01*
X53874568Y-64680054D01*
X54027266Y-64890225D01*
X54027271Y-64890231D01*
X54134359Y-64997319D01*
X54167844Y-65058642D01*
X54162860Y-65128334D01*
X54134359Y-65172681D01*
X54027271Y-65279768D01*
X54027266Y-65279774D01*
X53874568Y-65489945D01*
X53756622Y-65721423D01*
X53676340Y-65968506D01*
X53635700Y-66225097D01*
X53635700Y-66484902D01*
X53676340Y-66741493D01*
X53756622Y-66988576D01*
X53801122Y-67075910D01*
X53852176Y-67176109D01*
X53874568Y-67220054D01*
X54027266Y-67430225D01*
X54027271Y-67430231D01*
X54134359Y-67537319D01*
X54167844Y-67598642D01*
X54162860Y-67668334D01*
X54134359Y-67712681D01*
X54027271Y-67819768D01*
X54027266Y-67819774D01*
X53874568Y-68029945D01*
X53756622Y-68261423D01*
X53676340Y-68508506D01*
X53635700Y-68765097D01*
X53635700Y-69024902D01*
X53676340Y-69281493D01*
X53756622Y-69528576D01*
X53874568Y-69760054D01*
X54027266Y-69970225D01*
X54027271Y-69970231D01*
X54134359Y-70077319D01*
X54167844Y-70138642D01*
X54162860Y-70208334D01*
X54134359Y-70252681D01*
X54027271Y-70359768D01*
X54027270Y-70359770D01*
X53874568Y-70569945D01*
X53756622Y-70801423D01*
X53676340Y-71048506D01*
X53635700Y-71305097D01*
X53635700Y-71564902D01*
X53676340Y-71821493D01*
X53756622Y-72068576D01*
X53874568Y-72300054D01*
X54027266Y-72510225D01*
X54027271Y-72510231D01*
X54134359Y-72617319D01*
X54167844Y-72678642D01*
X54162860Y-72748334D01*
X54134359Y-72792681D01*
X54027271Y-72899768D01*
X54027266Y-72899774D01*
X53874568Y-73109945D01*
X53756622Y-73341423D01*
X53676340Y-73588506D01*
X53635700Y-73845097D01*
X53635700Y-74104902D01*
X53676340Y-74361493D01*
X53756622Y-74608576D01*
X53825919Y-74744577D01*
X53866825Y-74824859D01*
X53874568Y-74840054D01*
X54027266Y-75050225D01*
X54027271Y-75050231D01*
X54134359Y-75157319D01*
X54167844Y-75218642D01*
X54162860Y-75288334D01*
X54134359Y-75332681D01*
X54027271Y-75439768D01*
X54027266Y-75439774D01*
X53874568Y-75649945D01*
X53756622Y-75881423D01*
X53676340Y-76128506D01*
X53635700Y-76385097D01*
X53635700Y-76644902D01*
X53676340Y-76901493D01*
X53756622Y-77148576D01*
X53874568Y-77380054D01*
X54027266Y-77590225D01*
X54027271Y-77590231D01*
X54134359Y-77697319D01*
X54167844Y-77758642D01*
X54162860Y-77828334D01*
X54134359Y-77872681D01*
X54027271Y-77979768D01*
X54027266Y-77979774D01*
X53874568Y-78189945D01*
X53756622Y-78421423D01*
X53676340Y-78668506D01*
X53635700Y-78925097D01*
X53635700Y-79184902D01*
X53676340Y-79441493D01*
X53756622Y-79688576D01*
X53874568Y-79920054D01*
X54027266Y-80130225D01*
X54027271Y-80130231D01*
X54134359Y-80237319D01*
X54167844Y-80298642D01*
X54162860Y-80368334D01*
X54134359Y-80412681D01*
X54027271Y-80519768D01*
X54027266Y-80519774D01*
X53874568Y-80729945D01*
X53756622Y-80961423D01*
X53676340Y-81208506D01*
X53635700Y-81465097D01*
X53635700Y-81724902D01*
X53676340Y-81981493D01*
X53756622Y-82228576D01*
X53874568Y-82460054D01*
X54027266Y-82670225D01*
X54027271Y-82670231D01*
X54134359Y-82777319D01*
X54167844Y-82838642D01*
X54162860Y-82908334D01*
X54134359Y-82952681D01*
X54027271Y-83059768D01*
X54027266Y-83059774D01*
X53874568Y-83269945D01*
X53756622Y-83501423D01*
X53676340Y-83748506D01*
X53635700Y-84005097D01*
X53635700Y-84264902D01*
X53676340Y-84521493D01*
X53756622Y-84768576D01*
X53874568Y-85000054D01*
X54003573Y-85177615D01*
X54027053Y-85243421D01*
X54011227Y-85311475D01*
X53961122Y-85360170D01*
X53903255Y-85374500D01*
X40383500Y-85374500D01*
X40316461Y-85354815D01*
X40270706Y-85302011D01*
X40259500Y-85250500D01*
X40259500Y-71038748D01*
X40254234Y-71005500D01*
X40227477Y-70836566D01*
X40207106Y-70773871D01*
X40200451Y-70753389D01*
X40168495Y-70655040D01*
X40164220Y-70641882D01*
X40164220Y-70641881D01*
X40094404Y-70504860D01*
X40071287Y-70459489D01*
X39998837Y-70359771D01*
X39998837Y-70359770D01*
X39950969Y-70293885D01*
X39950968Y-70293884D01*
X39950966Y-70293881D01*
X39806219Y-70149134D01*
X39806218Y-70149133D01*
X39803107Y-70146022D01*
X39803092Y-70146008D01*
X34260121Y-64603036D01*
X34260120Y-64603035D01*
X34260119Y-64603034D01*
X34094511Y-64482713D01*
X34007863Y-64438563D01*
X34007854Y-64438559D01*
X34003314Y-64436246D01*
X33912119Y-64389780D01*
X33804212Y-64354719D01*
X33799789Y-64353282D01*
X33799787Y-64353281D01*
X33717432Y-64326522D01*
X33562120Y-64301923D01*
X33515252Y-64294500D01*
X33515251Y-64294500D01*
X32842010Y-64294500D01*
X32774971Y-64274815D01*
X32745065Y-64247815D01*
X32741016Y-64242738D01*
X32613462Y-64115184D01*
X32460723Y-64019211D01*
X32290454Y-63959631D01*
X32290449Y-63959630D01*
X32156160Y-63944500D01*
X32156154Y-63944500D01*
X31450747Y-63944500D01*
X31383708Y-63924815D01*
X31337953Y-63872011D01*
X31328009Y-63802853D01*
X31357034Y-63739297D01*
X31363066Y-63732819D01*
X51068566Y-44027319D01*
X51129889Y-43993834D01*
X51156247Y-43991000D01*
X85049553Y-43991000D01*
X85116592Y-44010685D01*
G37*
%TD.AperFunction*%
%TA.AperFunction,NonConductor*%
G36*
X92178167Y-82888960D02*
G01*
X92231619Y-82933956D01*
X92252259Y-83000708D01*
X92233534Y-83068022D01*
X92215953Y-83090160D01*
X88414236Y-86891878D01*
X88414231Y-86891884D01*
X88293913Y-87057487D01*
X88293913Y-87057488D01*
X88291873Y-87061493D01*
X88200532Y-87240758D01*
X88199472Y-87244520D01*
X88137722Y-87434567D01*
X88137722Y-87434568D01*
X88117143Y-87564500D01*
X88105700Y-87636748D01*
X88105700Y-87790500D01*
X88086015Y-87857539D01*
X88033211Y-87903294D01*
X87981700Y-87914500D01*
X85069145Y-87914500D01*
X85002106Y-87894815D01*
X84956351Y-87842011D01*
X84946407Y-87772853D01*
X84968827Y-87717615D01*
X85042268Y-87616531D01*
X85097834Y-87540051D01*
X85215779Y-87308572D01*
X85296060Y-87061493D01*
X85308291Y-86984267D01*
X85336700Y-86804902D01*
X85336700Y-86545097D01*
X85315147Y-86409021D01*
X85296060Y-86288507D01*
X85215779Y-86041428D01*
X85215777Y-86041425D01*
X85215777Y-86041423D01*
X85172987Y-85957445D01*
X85097834Y-85809949D01*
X84945131Y-85599771D01*
X84838041Y-85492681D01*
X84804556Y-85431358D01*
X84809540Y-85361666D01*
X84838041Y-85317319D01*
X84876322Y-85279038D01*
X84945131Y-85210229D01*
X85097834Y-85000051D01*
X85215779Y-84768572D01*
X85296060Y-84521493D01*
X85328619Y-84315920D01*
X85336700Y-84264902D01*
X85336700Y-84005097D01*
X85304928Y-83804500D01*
X85296060Y-83748507D01*
X85215779Y-83501428D01*
X85215777Y-83501425D01*
X85215777Y-83501423D01*
X85172987Y-83417445D01*
X85097834Y-83269949D01*
X85066378Y-83226653D01*
X84968827Y-83092385D01*
X84945347Y-83026579D01*
X84961173Y-82958525D01*
X85011278Y-82909830D01*
X85069145Y-82895500D01*
X92011051Y-82895500D01*
X92011052Y-82895500D01*
X92108875Y-82880006D01*
X92178167Y-82888960D01*
G37*
%TD.AperFunction*%
%TA.AperFunction,NonConductor*%
G36*
X97090034Y-81996965D02*
G01*
X97145967Y-82038837D01*
X97170384Y-82104301D01*
X97170700Y-82113147D01*
X97170700Y-82559960D01*
X97185830Y-82694249D01*
X97185831Y-82694254D01*
X97245411Y-82864523D01*
X97341384Y-83017262D01*
X97384381Y-83060259D01*
X97417866Y-83121582D01*
X97420700Y-83147940D01*
X97420700Y-83919051D01*
X97452722Y-84121231D01*
X97452722Y-84121233D01*
X97452723Y-84121235D01*
X97457723Y-84136623D01*
X97515980Y-84315919D01*
X97539635Y-84362344D01*
X97608913Y-84498311D01*
X97729234Y-84663919D01*
X97729235Y-84663920D01*
X97729236Y-84663921D01*
X101753008Y-88687692D01*
X101753022Y-88687707D01*
X101756133Y-88690818D01*
X101756134Y-88690819D01*
X101900881Y-88835566D01*
X101900884Y-88835568D01*
X101900888Y-88835572D01*
X102050565Y-88944318D01*
X102064991Y-88954797D01*
X102066490Y-88955887D01*
X102157678Y-89002350D01*
X102248881Y-89048821D01*
X102248884Y-89048822D01*
X102414503Y-89102634D01*
X102443566Y-89112077D01*
X102645748Y-89144100D01*
X102645749Y-89144100D01*
X102850452Y-89144100D01*
X104443800Y-89144100D01*
X104510839Y-89163785D01*
X104556594Y-89216589D01*
X104567800Y-89268100D01*
X104567800Y-97817350D01*
X104548115Y-97884389D01*
X104495311Y-97930144D01*
X104426153Y-97940088D01*
X104387508Y-97927836D01*
X104375586Y-97921762D01*
X104375582Y-97921761D01*
X104375579Y-97921759D01*
X104135985Y-97843910D01*
X103887162Y-97804500D01*
X103635238Y-97804500D01*
X103554107Y-97817350D01*
X103386414Y-97843910D01*
X103146816Y-97921760D01*
X102922351Y-98036132D01*
X102718550Y-98184201D01*
X102718545Y-98184205D01*
X102540405Y-98362345D01*
X102540401Y-98362350D01*
X102392332Y-98566151D01*
X102277960Y-98790618D01*
X102200109Y-99030217D01*
X102188215Y-99105309D01*
X102158285Y-99168443D01*
X102153423Y-99173590D01*
X101130234Y-100196781D01*
X101068911Y-100230266D01*
X101042553Y-100233100D01*
X100337895Y-100233100D01*
X100270856Y-100213415D01*
X100225101Y-100160611D01*
X100215157Y-100091453D01*
X100227410Y-100052806D01*
X100244438Y-100019386D01*
X100244438Y-100019382D01*
X100244441Y-100019379D01*
X100322290Y-99779785D01*
X100361700Y-99530962D01*
X100361700Y-99279038D01*
X100322290Y-99030215D01*
X100244441Y-98790621D01*
X100244439Y-98790618D01*
X100244439Y-98790616D01*
X100202947Y-98709184D01*
X100130070Y-98566155D01*
X100111152Y-98540117D01*
X99981998Y-98362350D01*
X99981994Y-98362345D01*
X99803854Y-98184205D01*
X99803849Y-98184201D01*
X99600048Y-98036132D01*
X99600047Y-98036131D01*
X99600045Y-98036130D01*
X99375579Y-97921759D01*
X99135985Y-97843910D01*
X99135983Y-97843909D01*
X99060889Y-97832015D01*
X98997754Y-97802085D01*
X98992607Y-97797223D01*
X90743019Y-89547634D01*
X90709534Y-89486311D01*
X90706700Y-89459953D01*
X90706700Y-88329147D01*
X90726385Y-88262108D01*
X90743019Y-88241466D01*
X96959019Y-82025466D01*
X97020342Y-81991981D01*
X97090034Y-81996965D01*
G37*
%TD.AperFunction*%
%TA.AperFunction,NonConductor*%
G36*
X32876829Y-66913961D02*
G01*
X32921177Y-66942462D01*
X37622181Y-71643465D01*
X37655666Y-71704788D01*
X37658500Y-71731146D01*
X37658500Y-89749453D01*
X37638815Y-89816492D01*
X37622181Y-89837134D01*
X33891134Y-93568181D01*
X33829811Y-93601666D01*
X33803453Y-93604500D01*
X33775489Y-93604500D01*
X33775483Y-93604500D01*
X33775479Y-93604501D01*
X33541489Y-93635306D01*
X33313506Y-93696394D01*
X33095454Y-93786714D01*
X33095443Y-93786719D01*
X32891045Y-93904730D01*
X32703802Y-94048406D01*
X32703795Y-94048412D01*
X32536912Y-94215295D01*
X32536906Y-94215302D01*
X32393230Y-94402545D01*
X32275219Y-94606943D01*
X32275214Y-94606954D01*
X32184894Y-94825006D01*
X32123806Y-95052989D01*
X32093001Y-95286979D01*
X32093000Y-95286995D01*
X32093000Y-95523004D01*
X32093001Y-95523020D01*
X32123806Y-95757010D01*
X32184894Y-95984993D01*
X32275214Y-96203045D01*
X32275219Y-96203056D01*
X32346177Y-96325957D01*
X32393227Y-96407450D01*
X32393229Y-96407453D01*
X32393230Y-96407454D01*
X32536906Y-96594697D01*
X32536912Y-96594704D01*
X32703795Y-96761587D01*
X32703801Y-96761592D01*
X32891050Y-96905273D01*
X33022418Y-96981118D01*
X33095443Y-97023280D01*
X33095448Y-97023282D01*
X33095451Y-97023284D01*
X33313507Y-97113606D01*
X33541486Y-97174693D01*
X33775489Y-97205500D01*
X33775496Y-97205500D01*
X34011504Y-97205500D01*
X34011511Y-97205500D01*
X34245514Y-97174693D01*
X34473493Y-97113606D01*
X34691549Y-97023284D01*
X34895950Y-96905273D01*
X35083199Y-96761592D01*
X35250092Y-96594699D01*
X35393773Y-96407450D01*
X35511784Y-96203049D01*
X35602106Y-95984993D01*
X35663193Y-95757014D01*
X35694000Y-95523011D01*
X35694000Y-95495045D01*
X35713685Y-95428006D01*
X35730314Y-95407369D01*
X39799150Y-91338532D01*
X39799157Y-91338527D01*
X39806217Y-91331467D01*
X39806219Y-91331466D01*
X39950966Y-91186719D01*
X39950968Y-91186715D01*
X39950971Y-91186713D01*
X40003732Y-91114090D01*
X40071287Y-91021110D01*
X40134413Y-90897219D01*
X40164221Y-90838718D01*
X40227477Y-90644034D01*
X40259500Y-90441851D01*
X40259500Y-90237148D01*
X40259500Y-88099500D01*
X40279185Y-88032461D01*
X40331989Y-87986706D01*
X40383500Y-87975500D01*
X51650000Y-87975500D01*
X51717039Y-87995185D01*
X51762794Y-88047989D01*
X51774000Y-88099500D01*
X51774000Y-89992248D01*
X51774000Y-90196952D01*
X51783663Y-90257964D01*
X51806022Y-90399131D01*
X51806023Y-90399136D01*
X51819903Y-90441853D01*
X51869278Y-90593815D01*
X51869279Y-90593816D01*
X51869280Y-90593819D01*
X51886000Y-90626634D01*
X51962213Y-90776211D01*
X52082534Y-90941819D01*
X52082536Y-90941821D01*
X62979234Y-101838519D01*
X63012719Y-101899842D01*
X63007735Y-101969534D01*
X62965863Y-102025467D01*
X62900399Y-102049884D01*
X62891553Y-102050200D01*
X33714747Y-102050200D01*
X33647708Y-102030515D01*
X33627066Y-102013881D01*
X29030366Y-97417181D01*
X28996881Y-97355858D01*
X29001865Y-97286166D01*
X29043737Y-97230233D01*
X29109201Y-97205816D01*
X29118047Y-97205500D01*
X29695105Y-97205500D01*
X29695108Y-97205500D01*
X29849434Y-97190300D01*
X30047454Y-97130232D01*
X30229950Y-97032685D01*
X30389910Y-96901410D01*
X30521185Y-96741450D01*
X30618732Y-96558954D01*
X30678800Y-96360934D01*
X30694000Y-96206608D01*
X30694000Y-94603392D01*
X30678800Y-94449066D01*
X30618732Y-94251046D01*
X30521185Y-94068550D01*
X30389910Y-93908590D01*
X30385203Y-93904727D01*
X30239335Y-93785016D01*
X30200001Y-93727271D01*
X30194000Y-93689163D01*
X30194000Y-76172746D01*
X30213685Y-76105707D01*
X30230314Y-76085070D01*
X31432459Y-74882924D01*
X31493780Y-74849441D01*
X31500741Y-74848134D01*
X31593603Y-74833426D01*
X31647693Y-74824860D01*
X31894772Y-74744579D01*
X32126251Y-74626634D01*
X32336429Y-74473931D01*
X32520131Y-74290229D01*
X32672834Y-74080051D01*
X32790779Y-73848572D01*
X32871060Y-73601493D01*
X32893739Y-73458298D01*
X32911700Y-73344902D01*
X32911700Y-73085097D01*
X32882346Y-72899768D01*
X32871060Y-72828507D01*
X32790779Y-72581428D01*
X32790777Y-72581425D01*
X32790777Y-72581423D01*
X32747987Y-72497445D01*
X32672834Y-72349949D01*
X32520131Y-72139771D01*
X32413041Y-72032681D01*
X32379556Y-71971358D01*
X32384540Y-71901666D01*
X32413041Y-71857319D01*
X32448867Y-71821493D01*
X32520131Y-71750229D01*
X32672834Y-71540051D01*
X32790779Y-71308572D01*
X32871060Y-71061493D01*
X32906684Y-70836568D01*
X32911700Y-70804902D01*
X32911700Y-70545097D01*
X32882347Y-70359771D01*
X32871060Y-70288507D01*
X32790779Y-70041428D01*
X32790777Y-70041425D01*
X32790777Y-70041423D01*
X32681921Y-69827784D01*
X32672834Y-69809949D01*
X32520131Y-69599771D01*
X32413041Y-69492681D01*
X32379556Y-69431358D01*
X32384540Y-69361666D01*
X32413041Y-69317319D01*
X32451322Y-69279038D01*
X32520131Y-69210229D01*
X32672834Y-69000051D01*
X32790779Y-68768572D01*
X32871060Y-68521493D01*
X32896360Y-68361751D01*
X32911700Y-68264902D01*
X32911700Y-68005097D01*
X32882346Y-67819768D01*
X32871060Y-67748507D01*
X32790779Y-67501428D01*
X32790777Y-67501425D01*
X32790777Y-67501423D01*
X32672833Y-67269948D01*
X32636583Y-67220054D01*
X32627985Y-67208220D01*
X32616527Y-67176109D01*
X32604620Y-67144183D01*
X32604815Y-67143283D01*
X32604506Y-67142416D01*
X32612233Y-67109184D01*
X32619472Y-67075910D01*
X32620195Y-67074942D01*
X32620331Y-67074362D01*
X32640618Y-67047659D01*
X32741016Y-66947262D01*
X32741019Y-66947256D01*
X32745814Y-66942462D01*
X32807137Y-66908977D01*
X32876829Y-66913961D01*
G37*
%TD.AperFunction*%
M02*
