%TF.GenerationSoftware,KiCad,Pcbnew,9.0.6*%
%TF.CreationDate,2026-06-15T10:43:41+02:00*%
%TF.ProjectId,korad-esp32-carrier,6b6f7261-642d-4657-9370-33322d636172,rev?*%
%TF.SameCoordinates,Original*%
%TF.FileFunction,Copper,L1,Top*%
%TF.FilePolarity,Positive*%
%FSLAX46Y46*%
G04 Gerber Fmt 4.6, Leading zero omitted, Abs format (unit mm)*
G04 Created by KiCad (PCBNEW 9.0.6) date 2026-06-15 10:43:41*
%MOMM*%
%LPD*%
G01*
G04 APERTURE LIST*
G04 Aperture macros list*
%AMRoundRect*
0 Rectangle with rounded corners*
0 $1 Rounding radius*
0 $2 $3 $4 $5 $6 $7 $8 $9 X,Y pos of 4 corners*
0 Add a 4 corners polygon primitive as box body*
4,1,4,$2,$3,$4,$5,$6,$7,$8,$9,$2,$3,0*
0 Add four circle primitives for the rounded corners*
1,1,$1+$1,$2,$3*
1,1,$1+$1,$4,$5*
1,1,$1+$1,$6,$7*
1,1,$1+$1,$8,$9*
0 Add four rect primitives between the rounded corners*
20,1,$1+$1,$2,$3,$4,$5,0*
20,1,$1+$1,$4,$5,$6,$7,0*
20,1,$1+$1,$6,$7,$8,$9,0*
20,1,$1+$1,$8,$9,$2,$3,0*%
G04 Aperture macros list end*
%ADD10C,0.300000*%
%TA.AperFunction,NonConductor*%
%ADD11C,0.300000*%
%TD*%
%TA.AperFunction,ComponentPad*%
%ADD12C,1.600000*%
%TD*%
%TA.AperFunction,ComponentPad*%
%ADD13R,1.700000X1.700000*%
%TD*%
%TA.AperFunction,ComponentPad*%
%ADD14C,1.700000*%
%TD*%
%TA.AperFunction,ComponentPad*%
%ADD15R,1.500000X1.500000*%
%TD*%
%TA.AperFunction,ComponentPad*%
%ADD16C,1.500000*%
%TD*%
%TA.AperFunction,ComponentPad*%
%ADD17RoundRect,0.250000X-0.750000X-0.750000X0.750000X-0.750000X0.750000X0.750000X-0.750000X0.750000X0*%
%TD*%
%TA.AperFunction,ComponentPad*%
%ADD18C,2.000000*%
%TD*%
%TA.AperFunction,Conductor*%
%ADD19C,1.000000*%
%TD*%
G04 APERTURE END LIST*
D10*
D11*
X83161200Y-91858328D02*
X83161200Y-92929757D01*
X83161200Y-92929757D02*
X83089771Y-93144042D01*
X83089771Y-93144042D02*
X82946914Y-93286900D01*
X82946914Y-93286900D02*
X82732628Y-93358328D01*
X82732628Y-93358328D02*
X82589771Y-93358328D01*
X84518343Y-92358328D02*
X84518343Y-93358328D01*
X84161200Y-91786900D02*
X83804057Y-92858328D01*
X83804057Y-92858328D02*
X84732628Y-92858328D01*
D10*
D11*
X113011200Y-58858328D02*
X112511200Y-58144042D01*
X112154057Y-58858328D02*
X112154057Y-57358328D01*
X112154057Y-57358328D02*
X112725486Y-57358328D01*
X112725486Y-57358328D02*
X112868343Y-57429757D01*
X112868343Y-57429757D02*
X112939772Y-57501185D01*
X112939772Y-57501185D02*
X113011200Y-57644042D01*
X113011200Y-57644042D02*
X113011200Y-57858328D01*
X113011200Y-57858328D02*
X112939772Y-58001185D01*
X112939772Y-58001185D02*
X112868343Y-58072614D01*
X112868343Y-58072614D02*
X112725486Y-58144042D01*
X112725486Y-58144042D02*
X112154057Y-58144042D01*
X114296915Y-57858328D02*
X114296915Y-58858328D01*
X113939772Y-57286900D02*
X113582629Y-58358328D01*
X113582629Y-58358328D02*
X114511200Y-58358328D01*
D10*
D11*
X101011200Y-95215471D02*
X100939772Y-95286900D01*
X100939772Y-95286900D02*
X100725486Y-95358328D01*
X100725486Y-95358328D02*
X100582629Y-95358328D01*
X100582629Y-95358328D02*
X100368343Y-95286900D01*
X100368343Y-95286900D02*
X100225486Y-95144042D01*
X100225486Y-95144042D02*
X100154057Y-95001185D01*
X100154057Y-95001185D02*
X100082629Y-94715471D01*
X100082629Y-94715471D02*
X100082629Y-94501185D01*
X100082629Y-94501185D02*
X100154057Y-94215471D01*
X100154057Y-94215471D02*
X100225486Y-94072614D01*
X100225486Y-94072614D02*
X100368343Y-93929757D01*
X100368343Y-93929757D02*
X100582629Y-93858328D01*
X100582629Y-93858328D02*
X100725486Y-93858328D01*
X100725486Y-93858328D02*
X100939772Y-93929757D01*
X100939772Y-93929757D02*
X101011200Y-94001185D01*
X101582629Y-94001185D02*
X101654057Y-93929757D01*
X101654057Y-93929757D02*
X101796915Y-93858328D01*
X101796915Y-93858328D02*
X102154057Y-93858328D01*
X102154057Y-93858328D02*
X102296915Y-93929757D01*
X102296915Y-93929757D02*
X102368343Y-94001185D01*
X102368343Y-94001185D02*
X102439772Y-94144042D01*
X102439772Y-94144042D02*
X102439772Y-94286900D01*
X102439772Y-94286900D02*
X102368343Y-94501185D01*
X102368343Y-94501185D02*
X101511200Y-95358328D01*
X101511200Y-95358328D02*
X102439772Y-95358328D01*
D10*
D11*
X101118342Y-78131185D02*
X100975485Y-78059757D01*
X100975485Y-78059757D02*
X100832628Y-77916900D01*
X100832628Y-77916900D02*
X100618342Y-77702614D01*
X100618342Y-77702614D02*
X100475485Y-77631185D01*
X100475485Y-77631185D02*
X100332628Y-77631185D01*
X100404057Y-77988328D02*
X100261200Y-77916900D01*
X100261200Y-77916900D02*
X100118342Y-77774042D01*
X100118342Y-77774042D02*
X100046914Y-77488328D01*
X100046914Y-77488328D02*
X100046914Y-76988328D01*
X100046914Y-76988328D02*
X100118342Y-76702614D01*
X100118342Y-76702614D02*
X100261200Y-76559757D01*
X100261200Y-76559757D02*
X100404057Y-76488328D01*
X100404057Y-76488328D02*
X100689771Y-76488328D01*
X100689771Y-76488328D02*
X100832628Y-76559757D01*
X100832628Y-76559757D02*
X100975485Y-76702614D01*
X100975485Y-76702614D02*
X101046914Y-76988328D01*
X101046914Y-76988328D02*
X101046914Y-77488328D01*
X101046914Y-77488328D02*
X100975485Y-77774042D01*
X100975485Y-77774042D02*
X100832628Y-77916900D01*
X100832628Y-77916900D02*
X100689771Y-77988328D01*
X100689771Y-77988328D02*
X100404057Y-77988328D01*
X101618343Y-76631185D02*
X101689771Y-76559757D01*
X101689771Y-76559757D02*
X101832629Y-76488328D01*
X101832629Y-76488328D02*
X102189771Y-76488328D01*
X102189771Y-76488328D02*
X102332629Y-76559757D01*
X102332629Y-76559757D02*
X102404057Y-76631185D01*
X102404057Y-76631185D02*
X102475486Y-76774042D01*
X102475486Y-76774042D02*
X102475486Y-76916900D01*
X102475486Y-76916900D02*
X102404057Y-77131185D01*
X102404057Y-77131185D02*
X101546914Y-77988328D01*
X101546914Y-77988328D02*
X102475486Y-77988328D01*
D10*
D11*
X101926200Y-85808328D02*
X101426200Y-85094042D01*
X101069057Y-85808328D02*
X101069057Y-84308328D01*
X101069057Y-84308328D02*
X101640486Y-84308328D01*
X101640486Y-84308328D02*
X101783343Y-84379757D01*
X101783343Y-84379757D02*
X101854772Y-84451185D01*
X101854772Y-84451185D02*
X101926200Y-84594042D01*
X101926200Y-84594042D02*
X101926200Y-84808328D01*
X101926200Y-84808328D02*
X101854772Y-84951185D01*
X101854772Y-84951185D02*
X101783343Y-85022614D01*
X101783343Y-85022614D02*
X101640486Y-85094042D01*
X101640486Y-85094042D02*
X101069057Y-85094042D01*
X103211915Y-84308328D02*
X102926200Y-84308328D01*
X102926200Y-84308328D02*
X102783343Y-84379757D01*
X102783343Y-84379757D02*
X102711915Y-84451185D01*
X102711915Y-84451185D02*
X102569057Y-84665471D01*
X102569057Y-84665471D02*
X102497629Y-84951185D01*
X102497629Y-84951185D02*
X102497629Y-85522614D01*
X102497629Y-85522614D02*
X102569057Y-85665471D01*
X102569057Y-85665471D02*
X102640486Y-85736900D01*
X102640486Y-85736900D02*
X102783343Y-85808328D01*
X102783343Y-85808328D02*
X103069057Y-85808328D01*
X103069057Y-85808328D02*
X103211915Y-85736900D01*
X103211915Y-85736900D02*
X103283343Y-85665471D01*
X103283343Y-85665471D02*
X103354772Y-85522614D01*
X103354772Y-85522614D02*
X103354772Y-85165471D01*
X103354772Y-85165471D02*
X103283343Y-85022614D01*
X103283343Y-85022614D02*
X103211915Y-84951185D01*
X103211915Y-84951185D02*
X103069057Y-84879757D01*
X103069057Y-84879757D02*
X102783343Y-84879757D01*
X102783343Y-84879757D02*
X102640486Y-84951185D01*
X102640486Y-84951185D02*
X102569057Y-85022614D01*
X102569057Y-85022614D02*
X102497629Y-85165471D01*
D10*
D11*
X113011200Y-89308328D02*
X112511200Y-88594042D01*
X112154057Y-89308328D02*
X112154057Y-87808328D01*
X112154057Y-87808328D02*
X112725486Y-87808328D01*
X112725486Y-87808328D02*
X112868343Y-87879757D01*
X112868343Y-87879757D02*
X112939772Y-87951185D01*
X112939772Y-87951185D02*
X113011200Y-88094042D01*
X113011200Y-88094042D02*
X113011200Y-88308328D01*
X113011200Y-88308328D02*
X112939772Y-88451185D01*
X112939772Y-88451185D02*
X112868343Y-88522614D01*
X112868343Y-88522614D02*
X112725486Y-88594042D01*
X112725486Y-88594042D02*
X112154057Y-88594042D01*
X113511200Y-87808328D02*
X114511200Y-87808328D01*
X114511200Y-87808328D02*
X113868343Y-89308328D01*
D10*
D11*
X54761200Y-91858328D02*
X54761200Y-92929757D01*
X54761200Y-92929757D02*
X54689771Y-93144042D01*
X54689771Y-93144042D02*
X54546914Y-93286900D01*
X54546914Y-93286900D02*
X54332628Y-93358328D01*
X54332628Y-93358328D02*
X54189771Y-93358328D01*
X55332628Y-91858328D02*
X56261200Y-91858328D01*
X56261200Y-91858328D02*
X55761200Y-92429757D01*
X55761200Y-92429757D02*
X55975485Y-92429757D01*
X55975485Y-92429757D02*
X56118343Y-92501185D01*
X56118343Y-92501185D02*
X56189771Y-92572614D01*
X56189771Y-92572614D02*
X56261200Y-92715471D01*
X56261200Y-92715471D02*
X56261200Y-93072614D01*
X56261200Y-93072614D02*
X56189771Y-93215471D01*
X56189771Y-93215471D02*
X56118343Y-93286900D01*
X56118343Y-93286900D02*
X55975485Y-93358328D01*
X55975485Y-93358328D02*
X55546914Y-93358328D01*
X55546914Y-93358328D02*
X55404057Y-93286900D01*
X55404057Y-93286900D02*
X55332628Y-93215471D01*
D10*
D11*
X101118342Y-62131185D02*
X100975485Y-62059757D01*
X100975485Y-62059757D02*
X100832628Y-61916900D01*
X100832628Y-61916900D02*
X100618342Y-61702614D01*
X100618342Y-61702614D02*
X100475485Y-61631185D01*
X100475485Y-61631185D02*
X100332628Y-61631185D01*
X100404057Y-61988328D02*
X100261200Y-61916900D01*
X100261200Y-61916900D02*
X100118342Y-61774042D01*
X100118342Y-61774042D02*
X100046914Y-61488328D01*
X100046914Y-61488328D02*
X100046914Y-60988328D01*
X100046914Y-60988328D02*
X100118342Y-60702614D01*
X100118342Y-60702614D02*
X100261200Y-60559757D01*
X100261200Y-60559757D02*
X100404057Y-60488328D01*
X100404057Y-60488328D02*
X100689771Y-60488328D01*
X100689771Y-60488328D02*
X100832628Y-60559757D01*
X100832628Y-60559757D02*
X100975485Y-60702614D01*
X100975485Y-60702614D02*
X101046914Y-60988328D01*
X101046914Y-60988328D02*
X101046914Y-61488328D01*
X101046914Y-61488328D02*
X100975485Y-61774042D01*
X100975485Y-61774042D02*
X100832628Y-61916900D01*
X100832628Y-61916900D02*
X100689771Y-61988328D01*
X100689771Y-61988328D02*
X100404057Y-61988328D01*
X102475486Y-61988328D02*
X101618343Y-61988328D01*
X102046914Y-61988328D02*
X102046914Y-60488328D01*
X102046914Y-60488328D02*
X101904057Y-60702614D01*
X101904057Y-60702614D02*
X101761200Y-60845471D01*
X101761200Y-60845471D02*
X101618343Y-60916900D01*
D10*
D11*
X100154057Y-42048328D02*
X100154057Y-40548328D01*
X100154057Y-40548328D02*
X100725486Y-40548328D01*
X100725486Y-40548328D02*
X100868343Y-40619757D01*
X100868343Y-40619757D02*
X100939772Y-40691185D01*
X100939772Y-40691185D02*
X101011200Y-40834042D01*
X101011200Y-40834042D02*
X101011200Y-41048328D01*
X101011200Y-41048328D02*
X100939772Y-41191185D01*
X100939772Y-41191185D02*
X100868343Y-41262614D01*
X100868343Y-41262614D02*
X100725486Y-41334042D01*
X100725486Y-41334042D02*
X100154057Y-41334042D01*
X102439772Y-42048328D02*
X101582629Y-42048328D01*
X102011200Y-42048328D02*
X102011200Y-40548328D01*
X102011200Y-40548328D02*
X101868343Y-40762614D01*
X101868343Y-40762614D02*
X101725486Y-40905471D01*
X101725486Y-40905471D02*
X101582629Y-40976900D01*
D10*
D11*
X30761200Y-61278328D02*
X30761200Y-62349757D01*
X30761200Y-62349757D02*
X30689771Y-62564042D01*
X30689771Y-62564042D02*
X30546914Y-62706900D01*
X30546914Y-62706900D02*
X30332628Y-62778328D01*
X30332628Y-62778328D02*
X30189771Y-62778328D01*
X32261200Y-62778328D02*
X31404057Y-62778328D01*
X31832628Y-62778328D02*
X31832628Y-61278328D01*
X31832628Y-61278328D02*
X31689771Y-61492614D01*
X31689771Y-61492614D02*
X31546914Y-61635471D01*
X31546914Y-61635471D02*
X31404057Y-61706900D01*
D10*
D11*
X31011177Y-88965471D02*
X30939749Y-89036900D01*
X30939749Y-89036900D02*
X30725463Y-89108328D01*
X30725463Y-89108328D02*
X30582606Y-89108328D01*
X30582606Y-89108328D02*
X30368320Y-89036900D01*
X30368320Y-89036900D02*
X30225463Y-88894042D01*
X30225463Y-88894042D02*
X30154034Y-88751185D01*
X30154034Y-88751185D02*
X30082606Y-88465471D01*
X30082606Y-88465471D02*
X30082606Y-88251185D01*
X30082606Y-88251185D02*
X30154034Y-87965471D01*
X30154034Y-87965471D02*
X30225463Y-87822614D01*
X30225463Y-87822614D02*
X30368320Y-87679757D01*
X30368320Y-87679757D02*
X30582606Y-87608328D01*
X30582606Y-87608328D02*
X30725463Y-87608328D01*
X30725463Y-87608328D02*
X30939749Y-87679757D01*
X30939749Y-87679757D02*
X31011177Y-87751185D01*
X32296892Y-88108328D02*
X32296892Y-89108328D01*
X31939749Y-87536900D02*
X31582606Y-88608328D01*
X31582606Y-88608328D02*
X32511177Y-88608328D01*
D10*
D11*
X113011200Y-66858328D02*
X112511200Y-66144042D01*
X112154057Y-66858328D02*
X112154057Y-65358328D01*
X112154057Y-65358328D02*
X112725486Y-65358328D01*
X112725486Y-65358328D02*
X112868343Y-65429757D01*
X112868343Y-65429757D02*
X112939772Y-65501185D01*
X112939772Y-65501185D02*
X113011200Y-65644042D01*
X113011200Y-65644042D02*
X113011200Y-65858328D01*
X113011200Y-65858328D02*
X112939772Y-66001185D01*
X112939772Y-66001185D02*
X112868343Y-66072614D01*
X112868343Y-66072614D02*
X112725486Y-66144042D01*
X112725486Y-66144042D02*
X112154057Y-66144042D01*
X114368343Y-65358328D02*
X113654057Y-65358328D01*
X113654057Y-65358328D02*
X113582629Y-66072614D01*
X113582629Y-66072614D02*
X113654057Y-66001185D01*
X113654057Y-66001185D02*
X113796915Y-65929757D01*
X113796915Y-65929757D02*
X114154057Y-65929757D01*
X114154057Y-65929757D02*
X114296915Y-66001185D01*
X114296915Y-66001185D02*
X114368343Y-66072614D01*
X114368343Y-66072614D02*
X114439772Y-66215471D01*
X114439772Y-66215471D02*
X114439772Y-66572614D01*
X114439772Y-66572614D02*
X114368343Y-66715471D01*
X114368343Y-66715471D02*
X114296915Y-66786900D01*
X114296915Y-66786900D02*
X114154057Y-66858328D01*
X114154057Y-66858328D02*
X113796915Y-66858328D01*
X113796915Y-66858328D02*
X113654057Y-66786900D01*
X113654057Y-66786900D02*
X113582629Y-66715471D01*
D12*
%TO.P,R6,1*%
%TO.N,+3V3*%
X109451200Y-77405000D03*
%TO.P,R6,2*%
%TO.N,/ESP_RX*%
X117071200Y-77405000D03*
%TD*%
%TO.P,C2,1*%
%TO.N,+3V3*%
X98761200Y-99405000D03*
%TO.P,C2,2*%
%TO.N,GND*%
X103761200Y-99405000D03*
%TD*%
%TO.P,R7,1*%
%TO.N,/J9_VDD*%
X109451200Y-85405000D03*
%TO.P,R7,2*%
%TO.N,/J9_TX*%
X117071200Y-85405000D03*
%TD*%
D13*
%TO.P,J1,1*%
%TO.N,GND*%
X31261200Y-65595000D03*
D14*
%TO.P,J1,2*%
%TO.N,/J9_RX*%
X31261200Y-68135000D03*
%TO.P,J1,3*%
%TO.N,/J9_TX*%
X31261200Y-70675000D03*
%TO.P,J1,4*%
%TO.N,/J9_VDD*%
X31261200Y-73215000D03*
%TD*%
D12*
%TO.P,R4,1*%
%TO.N,+3V3*%
X109451200Y-61405000D03*
%TO.P,R4,2*%
%TO.N,/ESP_TX*%
X117071200Y-61405000D03*
%TD*%
D13*
%TO.P,J3,1*%
%TO.N,N/C*%
X55286200Y-53655000D03*
D14*
%TO.P,J3,2*%
X55286200Y-56195000D03*
%TO.P,J3,3*%
X55286200Y-58735000D03*
%TO.P,J3,4*%
X55286200Y-61275000D03*
%TO.P,J3,5*%
X55286200Y-63815000D03*
%TO.P,J3,6*%
X55286200Y-66355000D03*
%TO.P,J3,7*%
X55286200Y-68895000D03*
%TO.P,J3,8*%
X55286200Y-71435000D03*
%TO.P,J3,9*%
X55286200Y-73975000D03*
%TO.P,J3,10*%
X55286200Y-76515000D03*
%TO.P,J3,11*%
X55286200Y-79055000D03*
%TO.P,J3,12*%
X55286200Y-81595000D03*
%TO.P,J3,13*%
X55286200Y-84135000D03*
%TO.P,J3,14*%
%TO.N,GND*%
X55286200Y-86675000D03*
%TO.P,J3,15*%
%TO.N,/VIN_DEV*%
X55286200Y-89215000D03*
%TD*%
D13*
%TO.P,J4,1*%
%TO.N,N/C*%
X83686200Y-53655000D03*
D14*
%TO.P,J4,2*%
X83686200Y-56195000D03*
%TO.P,J4,3*%
X83686200Y-58735000D03*
%TO.P,J4,4*%
X83686200Y-61275000D03*
%TO.P,J4,5*%
X83686200Y-63815000D03*
%TO.P,J4,6*%
X83686200Y-66355000D03*
%TO.P,J4,7*%
X83686200Y-68895000D03*
%TO.P,J4,8*%
X83686200Y-71435000D03*
%TO.P,J4,9*%
X83686200Y-73975000D03*
%TO.P,J4,10*%
X83686200Y-76515000D03*
%TO.P,J4,11*%
X83686200Y-79055000D03*
%TO.P,J4,12*%
%TO.N,/ESP_RX*%
X83686200Y-81595000D03*
%TO.P,J4,13*%
%TO.N,/ESP_TX*%
X83686200Y-84135000D03*
%TO.P,J4,14*%
%TO.N,N/C*%
X83686200Y-86675000D03*
%TO.P,J4,15*%
%TO.N,+3V3*%
X83686200Y-89215000D03*
%TD*%
D13*
%TO.P,P1,1*%
%TO.N,/VIN_DEV*%
X101261200Y-44865000D03*
D14*
%TO.P,P1,2*%
%TO.N,/J9_VDD*%
X101261200Y-47405000D03*
%TO.P,P1,3*%
%TO.N,+3V3*%
X101261200Y-49945000D03*
%TD*%
D15*
%TO.P,Q2,1*%
%TO.N,/J9_TX*%
X98721200Y-81765000D03*
D16*
%TO.P,Q2,2*%
%TO.N,+3V3*%
X101261200Y-81765000D03*
%TO.P,Q2,3*%
%TO.N,/ESP_RX*%
X103801200Y-81765000D03*
%TD*%
D17*
%TO.P,C4,1*%
%TO.N,/J9_VDD*%
X28893500Y-95405000D03*
D18*
%TO.P,C4,2*%
%TO.N,GND*%
X33893500Y-95405000D03*
%TD*%
D15*
%TO.P,Q1,1*%
%TO.N,/J9_RX*%
X98721200Y-65765000D03*
D16*
%TO.P,Q1,2*%
%TO.N,+3V3*%
X101261200Y-65765000D03*
%TO.P,Q1,3*%
%TO.N,/ESP_TX*%
X103801200Y-65765000D03*
%TD*%
D12*
%TO.P,R5,1*%
%TO.N,/J9_VDD*%
X109451200Y-69405000D03*
%TO.P,R5,2*%
%TO.N,/J9_RX*%
X117071200Y-69405000D03*
%TD*%
D19*
%TO.N,+3V3*%
X101261200Y-49945000D02*
X109451200Y-58135000D01*
X107333700Y-63522500D02*
X107333700Y-75287500D01*
X109451200Y-61405000D02*
X107333700Y-63522500D01*
X107333700Y-75287500D02*
X109451200Y-77405000D01*
X109451200Y-58135000D02*
X109451200Y-61405000D01*
%TO.N,/ESP_TX*%
X103801200Y-65765000D02*
X103801200Y-66160800D01*
X103801200Y-66160800D02*
X85827000Y-84135000D01*
X85827000Y-84135000D02*
X83686200Y-84135000D01*
%TO.N,/J9_VDD*%
X111594300Y-71548100D02*
X111594300Y-83261900D01*
X57976000Y-47405000D02*
X32166000Y-73215000D01*
X32166000Y-73215000D02*
X31261200Y-73215000D01*
X101261200Y-47405000D02*
X57976000Y-47405000D01*
X111594300Y-83261900D02*
X109451200Y-85405000D01*
X109451200Y-69405000D02*
X111594300Y-71548100D01*
%TD*%
%TA.AperFunction,NonConductor*%
G36*
X123442539Y-20520185D02*
G01*
X123488294Y-20572989D01*
X123499500Y-20624500D01*
X123499500Y-123375500D01*
X123479815Y-123442539D01*
X123427011Y-123488294D01*
X123375500Y-123499500D01*
X20624500Y-123499500D01*
X20557461Y-123479815D01*
X20511706Y-123427011D01*
X20500500Y-123375500D01*
X20500500Y-99279038D01*
X97160700Y-99279038D01*
X97160700Y-99530961D01*
X97200110Y-99779785D01*
X97277960Y-100019383D01*
X97392332Y-100243848D01*
X97540401Y-100447649D01*
X97540405Y-100447654D01*
X97718545Y-100625794D01*
X97718550Y-100625798D01*
X97896317Y-100754952D01*
X97922355Y-100773870D01*
X98065384Y-100846747D01*
X98146816Y-100888239D01*
X98146818Y-100888239D01*
X98146821Y-100888241D01*
X98386415Y-100966090D01*
X98635238Y-101005500D01*
X98635239Y-101005500D01*
X98887161Y-101005500D01*
X98887162Y-101005500D01*
X99135985Y-100966090D01*
X99375579Y-100888241D01*
X99600045Y-100773870D01*
X99803856Y-100625793D01*
X99981993Y-100447656D01*
X100130070Y-100243845D01*
X100244441Y-100019379D01*
X100322290Y-99779785D01*
X100361700Y-99530962D01*
X100361700Y-99279038D01*
X102160700Y-99279038D01*
X102160700Y-99530961D01*
X102200110Y-99779785D01*
X102277960Y-100019383D01*
X102392332Y-100243848D01*
X102540401Y-100447649D01*
X102540405Y-100447654D01*
X102718545Y-100625794D01*
X102718550Y-100625798D01*
X102896317Y-100754952D01*
X102922355Y-100773870D01*
X103065384Y-100846747D01*
X103146816Y-100888239D01*
X103146818Y-100888239D01*
X103146821Y-100888241D01*
X103386415Y-100966090D01*
X103635238Y-101005500D01*
X103635239Y-101005500D01*
X103887161Y-101005500D01*
X103887162Y-101005500D01*
X104135985Y-100966090D01*
X104375579Y-100888241D01*
X104600045Y-100773870D01*
X104803856Y-100625793D01*
X104981993Y-100447656D01*
X105130070Y-100243845D01*
X105244441Y-100019379D01*
X105322290Y-99779785D01*
X105361700Y-99530962D01*
X105361700Y-99279038D01*
X105322290Y-99030215D01*
X105244441Y-98790621D01*
X105244439Y-98790618D01*
X105244439Y-98790616D01*
X105202947Y-98709184D01*
X105130070Y-98566155D01*
X105111152Y-98540117D01*
X104981998Y-98362350D01*
X104981994Y-98362345D01*
X104803854Y-98184205D01*
X104803849Y-98184201D01*
X104600048Y-98036132D01*
X104600047Y-98036131D01*
X104600045Y-98036130D01*
X104529947Y-98000413D01*
X104375583Y-97921760D01*
X104135985Y-97843910D01*
X103887162Y-97804500D01*
X103635238Y-97804500D01*
X103510826Y-97824205D01*
X103386414Y-97843910D01*
X103146816Y-97921760D01*
X102922351Y-98036132D01*
X102718550Y-98184201D01*
X102718545Y-98184205D01*
X102540405Y-98362345D01*
X102540401Y-98362350D01*
X102392332Y-98566151D01*
X102277960Y-98790616D01*
X102200110Y-99030214D01*
X102160700Y-99279038D01*
X100361700Y-99279038D01*
X100322290Y-99030215D01*
X100244441Y-98790621D01*
X100244439Y-98790618D01*
X100244439Y-98790616D01*
X100202947Y-98709184D01*
X100130070Y-98566155D01*
X100111152Y-98540117D01*
X99981998Y-98362350D01*
X99981994Y-98362345D01*
X99803854Y-98184205D01*
X99803849Y-98184201D01*
X99600048Y-98036132D01*
X99600047Y-98036131D01*
X99600045Y-98036130D01*
X99529947Y-98000413D01*
X99375583Y-97921760D01*
X99135985Y-97843910D01*
X98887162Y-97804500D01*
X98635238Y-97804500D01*
X98510826Y-97824205D01*
X98386414Y-97843910D01*
X98146816Y-97921760D01*
X97922351Y-98036132D01*
X97718550Y-98184201D01*
X97718545Y-98184205D01*
X97540405Y-98362345D01*
X97540401Y-98362350D01*
X97392332Y-98566151D01*
X97277960Y-98790616D01*
X97200110Y-99030214D01*
X97160700Y-99279038D01*
X20500500Y-99279038D01*
X20500500Y-94603395D01*
X27093000Y-94603395D01*
X27093000Y-96206604D01*
X27108199Y-96360932D01*
X27138234Y-96459944D01*
X27168268Y-96558954D01*
X27265815Y-96741450D01*
X27265817Y-96741452D01*
X27397089Y-96901410D01*
X27493709Y-96980702D01*
X27557050Y-97032685D01*
X27739546Y-97130232D01*
X27937566Y-97190300D01*
X27937565Y-97190300D01*
X27976147Y-97194100D01*
X28091892Y-97205500D01*
X28091895Y-97205500D01*
X29695105Y-97205500D01*
X29695108Y-97205500D01*
X29849434Y-97190300D01*
X30047454Y-97130232D01*
X30229950Y-97032685D01*
X30389910Y-96901410D01*
X30521185Y-96741450D01*
X30618732Y-96558954D01*
X30678800Y-96360934D01*
X30694000Y-96206608D01*
X30694000Y-95286995D01*
X32093000Y-95286995D01*
X32093000Y-95523004D01*
X32093001Y-95523020D01*
X32123806Y-95757010D01*
X32184894Y-95984993D01*
X32275214Y-96203045D01*
X32275219Y-96203056D01*
X32340170Y-96315553D01*
X32393227Y-96407450D01*
X32393229Y-96407453D01*
X32393230Y-96407454D01*
X32536906Y-96594697D01*
X32536912Y-96594704D01*
X32703795Y-96761587D01*
X32703801Y-96761592D01*
X32891050Y-96905273D01*
X33022418Y-96981118D01*
X33095443Y-97023280D01*
X33095448Y-97023282D01*
X33095451Y-97023284D01*
X33313507Y-97113606D01*
X33541486Y-97174693D01*
X33775489Y-97205500D01*
X33775496Y-97205500D01*
X34011504Y-97205500D01*
X34011511Y-97205500D01*
X34245514Y-97174693D01*
X34473493Y-97113606D01*
X34691549Y-97023284D01*
X34895950Y-96905273D01*
X35083199Y-96761592D01*
X35250092Y-96594699D01*
X35393773Y-96407450D01*
X35446830Y-96315553D01*
X99124425Y-96315553D01*
X103396997Y-96315553D01*
X103396997Y-92901103D01*
X99124425Y-92901103D01*
X99124425Y-96315553D01*
X35446830Y-96315553D01*
X35511784Y-96203049D01*
X35602106Y-95984993D01*
X35663193Y-95757014D01*
X35694000Y-95523011D01*
X35694000Y-95286989D01*
X35663193Y-95052986D01*
X35602106Y-94825007D01*
X35511784Y-94606951D01*
X35511782Y-94606948D01*
X35511780Y-94606943D01*
X35469618Y-94533918D01*
X35393773Y-94402550D01*
X35250092Y-94215301D01*
X35250087Y-94215295D01*
X35083204Y-94048412D01*
X35083197Y-94048406D01*
X34895954Y-93904730D01*
X34895953Y-93904729D01*
X34895950Y-93904727D01*
X34814457Y-93857677D01*
X34691556Y-93786719D01*
X34691545Y-93786714D01*
X34473493Y-93696394D01*
X34245510Y-93635306D01*
X34011520Y-93604501D01*
X34011517Y-93604500D01*
X34011511Y-93604500D01*
X33775489Y-93604500D01*
X33775483Y-93604500D01*
X33775479Y-93604501D01*
X33541489Y-93635306D01*
X33313506Y-93696394D01*
X33095454Y-93786714D01*
X33095443Y-93786719D01*
X32891045Y-93904730D01*
X32703802Y-94048406D01*
X32703795Y-94048412D01*
X32536912Y-94215295D01*
X32536906Y-94215302D01*
X32393230Y-94402545D01*
X32275219Y-94606943D01*
X32275214Y-94606954D01*
X32184894Y-94825006D01*
X32123806Y-95052989D01*
X32093001Y-95286979D01*
X32093000Y-95286995D01*
X30694000Y-95286995D01*
X30694000Y-94603392D01*
X30678800Y-94449066D01*
X30618732Y-94251046D01*
X30521185Y-94068550D01*
X30469202Y-94005209D01*
X30389910Y-93908589D01*
X30241405Y-93786716D01*
X30229950Y-93777315D01*
X30047454Y-93679768D01*
X29849434Y-93619700D01*
X29849432Y-93619699D01*
X29849434Y-93619699D01*
X29730305Y-93607966D01*
X29695108Y-93604500D01*
X28091892Y-93604500D01*
X28053798Y-93608251D01*
X27937567Y-93619699D01*
X27739543Y-93679769D01*
X27629398Y-93738643D01*
X27557050Y-93777315D01*
X27557048Y-93777316D01*
X27557047Y-93777317D01*
X27397089Y-93908589D01*
X27265817Y-94068547D01*
X27168269Y-94251043D01*
X27108199Y-94449067D01*
X27093000Y-94603395D01*
X20500500Y-94603395D01*
X20500500Y-90065553D01*
X29124402Y-90065553D01*
X33466677Y-90065553D01*
X33466677Y-86579676D01*
X29124402Y-86579676D01*
X29124402Y-90065553D01*
X20500500Y-90065553D01*
X20500500Y-60319984D01*
X29234271Y-60319984D01*
X29234271Y-63735553D01*
X30142513Y-63735553D01*
X30209552Y-63755238D01*
X30255307Y-63808042D01*
X30265251Y-63877200D01*
X30236226Y-63940756D01*
X30183467Y-63976595D01*
X30061678Y-64019210D01*
X29908937Y-64115184D01*
X29781384Y-64242737D01*
X29685411Y-64395476D01*
X29625831Y-64565745D01*
X29625830Y-64565750D01*
X29610700Y-64700039D01*
X29610700Y-66489960D01*
X29625830Y-66624249D01*
X29625831Y-66624254D01*
X29685411Y-66794523D01*
X29781384Y-66947262D01*
X29881776Y-67047654D01*
X29915261Y-67108977D01*
X29910277Y-67178669D01*
X29894414Y-67208219D01*
X29849567Y-67269946D01*
X29731622Y-67501423D01*
X29651340Y-67748506D01*
X29610700Y-68005097D01*
X29610700Y-68264902D01*
X29651340Y-68521493D01*
X29731622Y-68768576D01*
X29849568Y-69000054D01*
X30002266Y-69210225D01*
X30002271Y-69210231D01*
X30109359Y-69317319D01*
X30142844Y-69378642D01*
X30137860Y-69448334D01*
X30109359Y-69492681D01*
X30002271Y-69599768D01*
X30002266Y-69599774D01*
X29849568Y-69809945D01*
X29731622Y-70041423D01*
X29651340Y-70288506D01*
X29610700Y-70545097D01*
X29610700Y-70804902D01*
X29651340Y-71061493D01*
X29731622Y-71308576D01*
X29849568Y-71540054D01*
X30002266Y-71750225D01*
X30002271Y-71750231D01*
X30109359Y-71857319D01*
X30142844Y-71918642D01*
X30137860Y-71988334D01*
X30109359Y-72032681D01*
X30002271Y-72139768D01*
X30002266Y-72139774D01*
X29849568Y-72349945D01*
X29731622Y-72581423D01*
X29651340Y-72828506D01*
X29610700Y-73085097D01*
X29610700Y-73344902D01*
X29651340Y-73601493D01*
X29731622Y-73848576D01*
X29849568Y-74080054D01*
X29867621Y-74104902D01*
X30002269Y-74290229D01*
X30185971Y-74473931D01*
X30396149Y-74626634D01*
X30543645Y-74701787D01*
X30627623Y-74744577D01*
X30627625Y-74744577D01*
X30627628Y-74744579D01*
X30874707Y-74824860D01*
X31006906Y-74845797D01*
X31131298Y-74865500D01*
X31131303Y-74865500D01*
X31391102Y-74865500D01*
X31504498Y-74847539D01*
X31647693Y-74824860D01*
X31894772Y-74744579D01*
X32126251Y-74626634D01*
X32258158Y-74530796D01*
X32311639Y-74508642D01*
X32470535Y-74483477D01*
X32567876Y-74451848D01*
X32665219Y-74420220D01*
X32780477Y-74361493D01*
X32847611Y-74327287D01*
X33013219Y-74206966D01*
X53424019Y-53796166D01*
X53485342Y-53762681D01*
X53555034Y-53767665D01*
X53610967Y-53809537D01*
X53635384Y-53875001D01*
X53635700Y-53883847D01*
X53635700Y-54549960D01*
X53650830Y-54684249D01*
X53650831Y-54684254D01*
X53710411Y-54854523D01*
X53806384Y-55007262D01*
X53906776Y-55107654D01*
X53940261Y-55168977D01*
X53935277Y-55238669D01*
X53919414Y-55268219D01*
X53874567Y-55329946D01*
X53756622Y-55561423D01*
X53676340Y-55808506D01*
X53635700Y-56065097D01*
X53635700Y-56324902D01*
X53676340Y-56581493D01*
X53756622Y-56828576D01*
X53874568Y-57060054D01*
X54027266Y-57270225D01*
X54027271Y-57270231D01*
X54134359Y-57377319D01*
X54167844Y-57438642D01*
X54162860Y-57508334D01*
X54134359Y-57552681D01*
X54027271Y-57659768D01*
X54027266Y-57659774D01*
X53874568Y-57869945D01*
X53756622Y-58101423D01*
X53676340Y-58348506D01*
X53635700Y-58605097D01*
X53635700Y-58864902D01*
X53676340Y-59121493D01*
X53756622Y-59368576D01*
X53874568Y-59600054D01*
X54027266Y-59810225D01*
X54027271Y-59810231D01*
X54134359Y-59917319D01*
X54167844Y-59978642D01*
X54162860Y-60048334D01*
X54134359Y-60092681D01*
X54027271Y-60199768D01*
X54027266Y-60199774D01*
X53874568Y-60409945D01*
X53756622Y-60641423D01*
X53676340Y-60888506D01*
X53635700Y-61145097D01*
X53635700Y-61404902D01*
X53676340Y-61661493D01*
X53756622Y-61908576D01*
X53874568Y-62140054D01*
X54027266Y-62350225D01*
X54027271Y-62350231D01*
X54134359Y-62457319D01*
X54167844Y-62518642D01*
X54162860Y-62588334D01*
X54134359Y-62632681D01*
X54027271Y-62739768D01*
X54027266Y-62739774D01*
X53874568Y-62949945D01*
X53756622Y-63181423D01*
X53676340Y-63428506D01*
X53635700Y-63685097D01*
X53635700Y-63944902D01*
X53676340Y-64201493D01*
X53756622Y-64448576D01*
X53815990Y-64565090D01*
X53858064Y-64647665D01*
X53874568Y-64680054D01*
X54027266Y-64890225D01*
X54027271Y-64890231D01*
X54134359Y-64997319D01*
X54167844Y-65058642D01*
X54162860Y-65128334D01*
X54134359Y-65172681D01*
X54027271Y-65279768D01*
X54027266Y-65279774D01*
X53874568Y-65489945D01*
X53756622Y-65721423D01*
X53676340Y-65968506D01*
X53635700Y-66225097D01*
X53635700Y-66484902D01*
X53676340Y-66741493D01*
X53756622Y-66988576D01*
X53818677Y-67110363D01*
X53868537Y-67208219D01*
X53874568Y-67220054D01*
X54027266Y-67430225D01*
X54027271Y-67430231D01*
X54134359Y-67537319D01*
X54167844Y-67598642D01*
X54162860Y-67668334D01*
X54134359Y-67712681D01*
X54027271Y-67819768D01*
X54027266Y-67819774D01*
X53874568Y-68029945D01*
X53756622Y-68261423D01*
X53676340Y-68508506D01*
X53635700Y-68765097D01*
X53635700Y-69024902D01*
X53676340Y-69281493D01*
X53756622Y-69528576D01*
X53874568Y-69760054D01*
X54027266Y-69970225D01*
X54027271Y-69970231D01*
X54134359Y-70077319D01*
X54167844Y-70138642D01*
X54162860Y-70208334D01*
X54134359Y-70252681D01*
X54027271Y-70359768D01*
X54027266Y-70359774D01*
X53874568Y-70569945D01*
X53756622Y-70801423D01*
X53676340Y-71048506D01*
X53635700Y-71305097D01*
X53635700Y-71564902D01*
X53676340Y-71821493D01*
X53756622Y-72068576D01*
X53874568Y-72300054D01*
X54027266Y-72510225D01*
X54027271Y-72510231D01*
X54134359Y-72617319D01*
X54167844Y-72678642D01*
X54162860Y-72748334D01*
X54134359Y-72792681D01*
X54027271Y-72899768D01*
X54027266Y-72899774D01*
X53874568Y-73109945D01*
X53756622Y-73341423D01*
X53676340Y-73588506D01*
X53635700Y-73845097D01*
X53635700Y-74104902D01*
X53676340Y-74361493D01*
X53756622Y-74608576D01*
X53801908Y-74697453D01*
X53866825Y-74824859D01*
X53874568Y-74840054D01*
X54027266Y-75050225D01*
X54027271Y-75050231D01*
X54134359Y-75157319D01*
X54167844Y-75218642D01*
X54162860Y-75288334D01*
X54134359Y-75332681D01*
X54027271Y-75439768D01*
X54027270Y-75439770D01*
X53874568Y-75649945D01*
X53756622Y-75881423D01*
X53676340Y-76128506D01*
X53635700Y-76385097D01*
X53635700Y-76644902D01*
X53676340Y-76901493D01*
X53756622Y-77148576D01*
X53874568Y-77380054D01*
X54027266Y-77590225D01*
X54027271Y-77590231D01*
X54134359Y-77697319D01*
X54167844Y-77758642D01*
X54162860Y-77828334D01*
X54134359Y-77872681D01*
X54027271Y-77979768D01*
X54027266Y-77979774D01*
X53874568Y-78189945D01*
X53756622Y-78421423D01*
X53676340Y-78668506D01*
X53635700Y-78925097D01*
X53635700Y-79184902D01*
X53676340Y-79441493D01*
X53756622Y-79688576D01*
X53874568Y-79920054D01*
X54027266Y-80130225D01*
X54027271Y-80130231D01*
X54134359Y-80237319D01*
X54167844Y-80298642D01*
X54162860Y-80368334D01*
X54134359Y-80412681D01*
X54027271Y-80519768D01*
X54027266Y-80519774D01*
X53874568Y-80729945D01*
X53756622Y-80961423D01*
X53676340Y-81208506D01*
X53635700Y-81465097D01*
X53635700Y-81724902D01*
X53676340Y-81981493D01*
X53756622Y-82228576D01*
X53874568Y-82460054D01*
X54027266Y-82670225D01*
X54027271Y-82670231D01*
X54134359Y-82777319D01*
X54167844Y-82838642D01*
X54162860Y-82908334D01*
X54134359Y-82952681D01*
X54027271Y-83059768D01*
X54027266Y-83059774D01*
X53874568Y-83269945D01*
X53756622Y-83501423D01*
X53676340Y-83748506D01*
X53635700Y-84005097D01*
X53635700Y-84264902D01*
X53676340Y-84521493D01*
X53756622Y-84768576D01*
X53874568Y-85000054D01*
X54027266Y-85210225D01*
X54027271Y-85210231D01*
X54134359Y-85317319D01*
X54167844Y-85378642D01*
X54162860Y-85448334D01*
X54134359Y-85492681D01*
X54027271Y-85599768D01*
X54027266Y-85599774D01*
X53874568Y-85809945D01*
X53756622Y-86041423D01*
X53676340Y-86288506D01*
X53635700Y-86545097D01*
X53635700Y-86804902D01*
X53676340Y-87061493D01*
X53756622Y-87308576D01*
X53874568Y-87540054D01*
X54027266Y-87750225D01*
X54027271Y-87750231D01*
X54134359Y-87857319D01*
X54167844Y-87918642D01*
X54162860Y-87988334D01*
X54134359Y-88032681D01*
X54027271Y-88139768D01*
X54027266Y-88139774D01*
X53874568Y-88349945D01*
X53756622Y-88581423D01*
X53676340Y-88828506D01*
X53635700Y-89085097D01*
X53635700Y-89344902D01*
X53676340Y-89601493D01*
X53756622Y-89848576D01*
X53874568Y-90080054D01*
X54027266Y-90290225D01*
X54027269Y-90290229D01*
X54210971Y-90473931D01*
X54421149Y-90626634D01*
X54499787Y-90666702D01*
X54550583Y-90714677D01*
X54567378Y-90782498D01*
X54544841Y-90848633D01*
X54490125Y-90892084D01*
X54443492Y-90901187D01*
X53234271Y-90901187D01*
X53234271Y-94315553D01*
X57218425Y-94315553D01*
X57218425Y-90901187D01*
X56128908Y-90901187D01*
X56061869Y-90881502D01*
X56016961Y-90829676D01*
X81634271Y-90829676D01*
X81634271Y-94315553D01*
X85688128Y-94315553D01*
X85688128Y-90829676D01*
X84653421Y-90829676D01*
X84586382Y-90809991D01*
X84540627Y-90757187D01*
X84530683Y-90688029D01*
X84559708Y-90624473D01*
X84580535Y-90605358D01*
X84584626Y-90602385D01*
X84761429Y-90473931D01*
X84945131Y-90290229D01*
X84962258Y-90266655D01*
X111198557Y-90266655D01*
X115467053Y-90266655D01*
X115467053Y-86851103D01*
X111198557Y-86851103D01*
X111198557Y-90266655D01*
X84962258Y-90266655D01*
X85097834Y-90080051D01*
X85215779Y-89848572D01*
X85296060Y-89601493D01*
X85318739Y-89458298D01*
X85336700Y-89344902D01*
X85336700Y-89085097D01*
X85315147Y-88949021D01*
X85296060Y-88828507D01*
X85215779Y-88581428D01*
X85215777Y-88581425D01*
X85215777Y-88581423D01*
X85172987Y-88497445D01*
X85097834Y-88349949D01*
X84945131Y-88139771D01*
X84838041Y-88032681D01*
X84804556Y-87971358D01*
X84809540Y-87901666D01*
X84838041Y-87857319D01*
X84945131Y-87750229D01*
X85097834Y-87540051D01*
X85215779Y-87308572D01*
X85296060Y-87061493D01*
X85329382Y-86851103D01*
X85336700Y-86804902D01*
X85336700Y-86545097D01*
X85315147Y-86409021D01*
X85296060Y-86288507D01*
X85215779Y-86041428D01*
X85215777Y-86041425D01*
X85215777Y-86041423D01*
X85172987Y-85957445D01*
X85097834Y-85809949D01*
X85075919Y-85779785D01*
X84968827Y-85632385D01*
X84945347Y-85566579D01*
X84961173Y-85498525D01*
X85011278Y-85449830D01*
X85069145Y-85435500D01*
X85929351Y-85435500D01*
X85929352Y-85435500D01*
X86131535Y-85403477D01*
X86228876Y-85371848D01*
X86326219Y-85340220D01*
X86417414Y-85293753D01*
X86508611Y-85247287D01*
X86674219Y-85126966D01*
X90831146Y-80970039D01*
X97170700Y-80970039D01*
X97170700Y-82559960D01*
X97185830Y-82694249D01*
X97185831Y-82694254D01*
X97245411Y-82864523D01*
X97304508Y-82958575D01*
X97341384Y-83017262D01*
X97468938Y-83144816D01*
X97621678Y-83240789D01*
X97729776Y-83278614D01*
X97791945Y-83300368D01*
X97791950Y-83300369D01*
X97882446Y-83310565D01*
X97926240Y-83315499D01*
X97926243Y-83315500D01*
X97926246Y-83315500D01*
X99516157Y-83315500D01*
X99516158Y-83315499D01*
X99583304Y-83307934D01*
X99650449Y-83300369D01*
X99650452Y-83300368D01*
X99650455Y-83300368D01*
X99820722Y-83240789D01*
X99973462Y-83144816D01*
X100101016Y-83017262D01*
X100114584Y-82995667D01*
X100123860Y-82986183D01*
X100143224Y-82975327D01*
X100159850Y-82960620D01*
X100173105Y-82958575D01*
X100184806Y-82952016D01*
X100206965Y-82953352D01*
X100228903Y-82949969D01*
X100242763Y-82955512D01*
X100254549Y-82956223D01*
X100266625Y-82965055D01*
X100285399Y-82972563D01*
X100304146Y-82986183D01*
X100448561Y-83091106D01*
X100492242Y-83113362D01*
X100498631Y-83116618D01*
X100549427Y-83164593D01*
X100566222Y-83232414D01*
X100543684Y-83298549D01*
X100488969Y-83342000D01*
X100442336Y-83351103D01*
X100113557Y-83351103D01*
X100113557Y-86766655D01*
X104311997Y-86766655D01*
X104311997Y-83319414D01*
X104331682Y-83252375D01*
X104384486Y-83206620D01*
X104393032Y-83203292D01*
X104396383Y-83201905D01*
X104396385Y-83201904D01*
X104613839Y-83091106D01*
X104811283Y-82947655D01*
X104983855Y-82775083D01*
X105127306Y-82577639D01*
X105238104Y-82360185D01*
X105313521Y-82128076D01*
X105351700Y-81887027D01*
X105351700Y-81642973D01*
X105313521Y-81401924D01*
X105238104Y-81169815D01*
X105127306Y-80952361D01*
X105108979Y-80927136D01*
X104983860Y-80754923D01*
X104983856Y-80754918D01*
X104811281Y-80582343D01*
X104811276Y-80582339D01*
X104613842Y-80438896D01*
X104613841Y-80438895D01*
X104613839Y-80438894D01*
X104396385Y-80328096D01*
X104164276Y-80252679D01*
X104164274Y-80252678D01*
X104164272Y-80252678D01*
X103995969Y-80226021D01*
X103923227Y-80214500D01*
X103679173Y-80214500D01*
X103623293Y-80223350D01*
X103438127Y-80252678D01*
X103438124Y-80252679D01*
X103215544Y-80325000D01*
X103206012Y-80328097D01*
X102988557Y-80438896D01*
X102791123Y-80582339D01*
X102791118Y-80582343D01*
X102618881Y-80754581D01*
X102557558Y-80788066D01*
X102487866Y-80783082D01*
X102443519Y-80754581D01*
X102271281Y-80582343D01*
X102271276Y-80582339D01*
X102073842Y-80438896D01*
X102073841Y-80438895D01*
X102073839Y-80438894D01*
X101856385Y-80328096D01*
X101624276Y-80252679D01*
X101624274Y-80252678D01*
X101624272Y-80252678D01*
X101455969Y-80226021D01*
X101383227Y-80214500D01*
X101139173Y-80214500D01*
X101083293Y-80223350D01*
X100898127Y-80252678D01*
X100898124Y-80252679D01*
X100675544Y-80325000D01*
X100666012Y-80328097D01*
X100448561Y-80438893D01*
X100285399Y-80557437D01*
X100219592Y-80580916D01*
X100151539Y-80565090D01*
X100107521Y-80523091D01*
X100101016Y-80512738D01*
X99973462Y-80385184D01*
X99820723Y-80289211D01*
X99650454Y-80229631D01*
X99650449Y-80229630D01*
X99516160Y-80214500D01*
X99516154Y-80214500D01*
X97926246Y-80214500D01*
X97926239Y-80214500D01*
X97791950Y-80229630D01*
X97791945Y-80229631D01*
X97621676Y-80289211D01*
X97468937Y-80385184D01*
X97341384Y-80512737D01*
X97245411Y-80665476D01*
X97185831Y-80835745D01*
X97185830Y-80835750D01*
X97170700Y-80970039D01*
X90831146Y-80970039D01*
X92712775Y-79088410D01*
X99088710Y-79088410D01*
X103432711Y-79088410D01*
X103432711Y-75531103D01*
X99088710Y-75531103D01*
X99088710Y-79088410D01*
X92712775Y-79088410D01*
X104793166Y-67008019D01*
X104874915Y-66895500D01*
X104899676Y-66861418D01*
X104912307Y-66846630D01*
X104983850Y-66775088D01*
X104983850Y-66775087D01*
X104983855Y-66775083D01*
X105127306Y-66577639D01*
X105238104Y-66360185D01*
X105313521Y-66128076D01*
X105351700Y-65887027D01*
X105351700Y-65642973D01*
X105313521Y-65401924D01*
X105238104Y-65169815D01*
X105127306Y-64952361D01*
X105071200Y-64875137D01*
X104983860Y-64754923D01*
X104983856Y-64754918D01*
X104811281Y-64582343D01*
X104811276Y-64582339D01*
X104613842Y-64438896D01*
X104613841Y-64438895D01*
X104613839Y-64438894D01*
X104396385Y-64328096D01*
X104164276Y-64252679D01*
X104164274Y-64252678D01*
X104164272Y-64252678D01*
X103995969Y-64226021D01*
X103923227Y-64214500D01*
X103679173Y-64214500D01*
X103623293Y-64223350D01*
X103438127Y-64252678D01*
X103206012Y-64328097D01*
X102988557Y-64438896D01*
X102791123Y-64582339D01*
X102791118Y-64582343D01*
X102618881Y-64754581D01*
X102557558Y-64788066D01*
X102487866Y-64783082D01*
X102443519Y-64754581D01*
X102271281Y-64582343D01*
X102271276Y-64582339D01*
X102073842Y-64438896D01*
X102073841Y-64438895D01*
X102073839Y-64438894D01*
X101856385Y-64328096D01*
X101624276Y-64252679D01*
X101624274Y-64252678D01*
X101624272Y-64252678D01*
X101455969Y-64226021D01*
X101383227Y-64214500D01*
X101139173Y-64214500D01*
X101083293Y-64223350D01*
X100898127Y-64252678D01*
X100666012Y-64328097D01*
X100448561Y-64438893D01*
X100285399Y-64557437D01*
X100219592Y-64580916D01*
X100151539Y-64565090D01*
X100107521Y-64523091D01*
X100101016Y-64512738D01*
X99973462Y-64385184D01*
X99882609Y-64328097D01*
X99820723Y-64289211D01*
X99650454Y-64229631D01*
X99650449Y-64229630D01*
X99516160Y-64214500D01*
X99516154Y-64214500D01*
X97926246Y-64214500D01*
X97926239Y-64214500D01*
X97791950Y-64229630D01*
X97791945Y-64229631D01*
X97621676Y-64289211D01*
X97468937Y-64385184D01*
X97341384Y-64512737D01*
X97245411Y-64665476D01*
X97185831Y-64835745D01*
X97185830Y-64835750D01*
X97170700Y-64970039D01*
X97170700Y-66559960D01*
X97185830Y-66694249D01*
X97185831Y-66694254D01*
X97245411Y-66864523D01*
X97264877Y-66895502D01*
X97341384Y-67017262D01*
X97468938Y-67144816D01*
X97522815Y-67178669D01*
X97564282Y-67204725D01*
X97621678Y-67240789D01*
X97791945Y-67300368D01*
X97791950Y-67300369D01*
X97882446Y-67310565D01*
X97926240Y-67315499D01*
X97926243Y-67315500D01*
X97926246Y-67315500D01*
X99516157Y-67315500D01*
X99516158Y-67315499D01*
X99583304Y-67307934D01*
X99650449Y-67300369D01*
X99650452Y-67300368D01*
X99650455Y-67300368D01*
X99820722Y-67240789D01*
X99973462Y-67144816D01*
X100101016Y-67017262D01*
X100107519Y-67006911D01*
X100159850Y-66960620D01*
X100228903Y-66949969D01*
X100285399Y-66972563D01*
X100425515Y-67074362D01*
X100448561Y-67091106D01*
X100592579Y-67164486D01*
X100666016Y-67201905D01*
X100670508Y-67203765D01*
X100670110Y-67204725D01*
X100723632Y-67241324D01*
X100750828Y-67305684D01*
X100738912Y-67374530D01*
X100715317Y-67407496D01*
X85324634Y-82798181D01*
X85297706Y-82812884D01*
X85271888Y-82829477D01*
X85265687Y-82830368D01*
X85263311Y-82831666D01*
X85236953Y-82834500D01*
X85069145Y-82834500D01*
X85002106Y-82814815D01*
X84956351Y-82762011D01*
X84946407Y-82692853D01*
X84968827Y-82637615D01*
X85025250Y-82559954D01*
X85097834Y-82460051D01*
X85215779Y-82228572D01*
X85296060Y-81981493D01*
X85318739Y-81838298D01*
X85336700Y-81724902D01*
X85336700Y-81465097D01*
X85315147Y-81329021D01*
X85296060Y-81208507D01*
X85215779Y-80961428D01*
X85215777Y-80961425D01*
X85215777Y-80961423D01*
X85171811Y-80875137D01*
X85097834Y-80729949D01*
X84945131Y-80519771D01*
X84838041Y-80412681D01*
X84804556Y-80351358D01*
X84809540Y-80281666D01*
X84838041Y-80237319D01*
X84860860Y-80214500D01*
X84945131Y-80130229D01*
X85097834Y-79920051D01*
X85215779Y-79688572D01*
X85296060Y-79441493D01*
X85318739Y-79298298D01*
X85336700Y-79184902D01*
X85336700Y-78925097D01*
X85315147Y-78789021D01*
X85296060Y-78668507D01*
X85215779Y-78421428D01*
X85215777Y-78421425D01*
X85215777Y-78421423D01*
X85172987Y-78337445D01*
X85097834Y-78189949D01*
X84945131Y-77979771D01*
X84838041Y-77872681D01*
X84804556Y-77811358D01*
X84809540Y-77741666D01*
X84838041Y-77697319D01*
X84870462Y-77664898D01*
X84945131Y-77590229D01*
X85097834Y-77380051D01*
X85215779Y-77148572D01*
X85296060Y-76901493D01*
X85318739Y-76758298D01*
X85336700Y-76644902D01*
X85336700Y-76385097D01*
X85315147Y-76249021D01*
X85296060Y-76128507D01*
X85215779Y-75881428D01*
X85215777Y-75881425D01*
X85215777Y-75881423D01*
X85167522Y-75786719D01*
X85097834Y-75649949D01*
X84945131Y-75439771D01*
X84838041Y-75332681D01*
X84804556Y-75271358D01*
X84809540Y-75201666D01*
X84838041Y-75157319D01*
X84945131Y-75050229D01*
X85097834Y-74840051D01*
X85215779Y-74608572D01*
X85296060Y-74361493D01*
X85320535Y-74206963D01*
X85336700Y-74104902D01*
X85336700Y-73845097D01*
X85315147Y-73709021D01*
X85296060Y-73588507D01*
X85215779Y-73341428D01*
X85215777Y-73341425D01*
X85215777Y-73341423D01*
X85172987Y-73257445D01*
X85097834Y-73109949D01*
X84945131Y-72899771D01*
X84838041Y-72792681D01*
X84804556Y-72731358D01*
X84809540Y-72661666D01*
X84838041Y-72617319D01*
X84873937Y-72581423D01*
X84945131Y-72510229D01*
X85097834Y-72300051D01*
X85215779Y-72068572D01*
X85296060Y-71821493D01*
X85318739Y-71678298D01*
X85336700Y-71564902D01*
X85336700Y-71305097D01*
X85315147Y-71169021D01*
X85296060Y-71048507D01*
X85215779Y-70801428D01*
X85215777Y-70801425D01*
X85215777Y-70801423D01*
X85172987Y-70717445D01*
X85097834Y-70569949D01*
X84945131Y-70359771D01*
X84838041Y-70252681D01*
X84804556Y-70191358D01*
X84809540Y-70121666D01*
X84838041Y-70077319D01*
X84873937Y-70041423D01*
X84945131Y-69970229D01*
X85097834Y-69760051D01*
X85215779Y-69528572D01*
X85296060Y-69281493D01*
X85335858Y-69030215D01*
X85336700Y-69024902D01*
X85336700Y-68765097D01*
X85305190Y-68566155D01*
X85296060Y-68508507D01*
X85215779Y-68261428D01*
X85215777Y-68261425D01*
X85215777Y-68261423D01*
X85172987Y-68177445D01*
X85097834Y-68029949D01*
X84945131Y-67819771D01*
X84838041Y-67712681D01*
X84804556Y-67651358D01*
X84809540Y-67581666D01*
X84838041Y-67537319D01*
X84873937Y-67501423D01*
X84945131Y-67430229D01*
X85097834Y-67220051D01*
X85215779Y-66988572D01*
X85296060Y-66741493D01*
X85322011Y-66577642D01*
X85336700Y-66484902D01*
X85336700Y-66225097D01*
X85315147Y-66089021D01*
X85296060Y-65968507D01*
X85215779Y-65721428D01*
X85215777Y-65721425D01*
X85215777Y-65721423D01*
X85172987Y-65637445D01*
X85097834Y-65489949D01*
X84945131Y-65279771D01*
X84838041Y-65172681D01*
X84804556Y-65111358D01*
X84809540Y-65041666D01*
X84838041Y-64997319D01*
X84883003Y-64952357D01*
X84945131Y-64890229D01*
X85097834Y-64680051D01*
X85215779Y-64448572D01*
X85296060Y-64201493D01*
X85331680Y-63976595D01*
X85336700Y-63944902D01*
X85336700Y-63685097D01*
X85315147Y-63549021D01*
X85296060Y-63428507D01*
X85215779Y-63181428D01*
X85215777Y-63181425D01*
X85215777Y-63181423D01*
X85168384Y-63088410D01*
X99088710Y-63088410D01*
X103430986Y-63088410D01*
X103430986Y-59529984D01*
X99088710Y-59529984D01*
X99088710Y-63088410D01*
X85168384Y-63088410D01*
X85097834Y-62949949D01*
X84945131Y-62739771D01*
X84838041Y-62632681D01*
X84804556Y-62571358D01*
X84809540Y-62501666D01*
X84838041Y-62457319D01*
X84847711Y-62447649D01*
X84945131Y-62350229D01*
X85097834Y-62140051D01*
X85215779Y-61908572D01*
X85296060Y-61661493D01*
X85318739Y-61518298D01*
X85336700Y-61404902D01*
X85336700Y-61145097D01*
X85315147Y-61009021D01*
X85296060Y-60888507D01*
X85215779Y-60641428D01*
X85215777Y-60641425D01*
X85215777Y-60641423D01*
X85172987Y-60557445D01*
X85097834Y-60409949D01*
X84945131Y-60199771D01*
X84838041Y-60092681D01*
X84804556Y-60031358D01*
X84809540Y-59961666D01*
X84838041Y-59917319D01*
X84945131Y-59810229D01*
X85097834Y-59600051D01*
X85215779Y-59368572D01*
X85296060Y-59121493D01*
X85318739Y-58978298D01*
X85336700Y-58864902D01*
X85336700Y-58605097D01*
X85315147Y-58469021D01*
X85296060Y-58348507D01*
X85215779Y-58101428D01*
X85215777Y-58101425D01*
X85215777Y-58101423D01*
X85172987Y-58017445D01*
X85097834Y-57869949D01*
X84945131Y-57659771D01*
X84838041Y-57552681D01*
X84804556Y-57491358D01*
X84809540Y-57421666D01*
X84838041Y-57377319D01*
X84945131Y-57270229D01*
X85097834Y-57060051D01*
X85215779Y-56828572D01*
X85296060Y-56581493D01*
X85318739Y-56438298D01*
X85336700Y-56324902D01*
X85336700Y-56065097D01*
X85315147Y-55929021D01*
X85296060Y-55808507D01*
X85215779Y-55561428D01*
X85215777Y-55561425D01*
X85215777Y-55561423D01*
X85097833Y-55329948D01*
X85097832Y-55329946D01*
X85052985Y-55268219D01*
X85029506Y-55202416D01*
X85045331Y-55134362D01*
X85065623Y-55107655D01*
X85065624Y-55107654D01*
X85166016Y-55007262D01*
X85261989Y-54854522D01*
X85321568Y-54684255D01*
X85336700Y-54549954D01*
X85336700Y-52760046D01*
X85321568Y-52625745D01*
X85261989Y-52455478D01*
X85166016Y-52302738D01*
X85038462Y-52175184D01*
X84885723Y-52079211D01*
X84715454Y-52019631D01*
X84715449Y-52019630D01*
X84581160Y-52004500D01*
X84581154Y-52004500D01*
X82791246Y-52004500D01*
X82791239Y-52004500D01*
X82656950Y-52019630D01*
X82656945Y-52019631D01*
X82486676Y-52079211D01*
X82333937Y-52175184D01*
X82206384Y-52302737D01*
X82110411Y-52455476D01*
X82050831Y-52625745D01*
X82050830Y-52625750D01*
X82035700Y-52760039D01*
X82035700Y-54549960D01*
X82050830Y-54684249D01*
X82050831Y-54684254D01*
X82110411Y-54854523D01*
X82206384Y-55007262D01*
X82306776Y-55107654D01*
X82340261Y-55168977D01*
X82335277Y-55238669D01*
X82319414Y-55268219D01*
X82274567Y-55329946D01*
X82156622Y-55561423D01*
X82076340Y-55808506D01*
X82035700Y-56065097D01*
X82035700Y-56324902D01*
X82076340Y-56581493D01*
X82156622Y-56828576D01*
X82274568Y-57060054D01*
X82427266Y-57270225D01*
X82427271Y-57270231D01*
X82534359Y-57377319D01*
X82567844Y-57438642D01*
X82562860Y-57508334D01*
X82534359Y-57552681D01*
X82427271Y-57659768D01*
X82427266Y-57659774D01*
X82274568Y-57869945D01*
X82156622Y-58101423D01*
X82076340Y-58348506D01*
X82035700Y-58605097D01*
X82035700Y-58864902D01*
X82076340Y-59121493D01*
X82156622Y-59368576D01*
X82274568Y-59600054D01*
X82427266Y-59810225D01*
X82427271Y-59810231D01*
X82534359Y-59917319D01*
X82567844Y-59978642D01*
X82562860Y-60048334D01*
X82534359Y-60092681D01*
X82427271Y-60199768D01*
X82427266Y-60199774D01*
X82274568Y-60409945D01*
X82156622Y-60641423D01*
X82076340Y-60888506D01*
X82035700Y-61145097D01*
X82035700Y-61404902D01*
X82076340Y-61661493D01*
X82156622Y-61908576D01*
X82274568Y-62140054D01*
X82427266Y-62350225D01*
X82427271Y-62350231D01*
X82534359Y-62457319D01*
X82567844Y-62518642D01*
X82562860Y-62588334D01*
X82534359Y-62632681D01*
X82427271Y-62739768D01*
X82427266Y-62739774D01*
X82274568Y-62949945D01*
X82156622Y-63181423D01*
X82076340Y-63428506D01*
X82035700Y-63685097D01*
X82035700Y-63944902D01*
X82076340Y-64201493D01*
X82156622Y-64448576D01*
X82215990Y-64565090D01*
X82258064Y-64647665D01*
X82274568Y-64680054D01*
X82427266Y-64890225D01*
X82427271Y-64890231D01*
X82534359Y-64997319D01*
X82567844Y-65058642D01*
X82562860Y-65128334D01*
X82534359Y-65172681D01*
X82427271Y-65279768D01*
X82427266Y-65279774D01*
X82274568Y-65489945D01*
X82156622Y-65721423D01*
X82076340Y-65968506D01*
X82035700Y-66225097D01*
X82035700Y-66484902D01*
X82076340Y-66741493D01*
X82156622Y-66988576D01*
X82218677Y-67110363D01*
X82268537Y-67208219D01*
X82274568Y-67220054D01*
X82427266Y-67430225D01*
X82427271Y-67430231D01*
X82534359Y-67537319D01*
X82567844Y-67598642D01*
X82562860Y-67668334D01*
X82534359Y-67712681D01*
X82427271Y-67819768D01*
X82427266Y-67819774D01*
X82274568Y-68029945D01*
X82156622Y-68261423D01*
X82076340Y-68508506D01*
X82035700Y-68765097D01*
X82035700Y-69024902D01*
X82076340Y-69281493D01*
X82156622Y-69528576D01*
X82274568Y-69760054D01*
X82427266Y-69970225D01*
X82427271Y-69970231D01*
X82534359Y-70077319D01*
X82567844Y-70138642D01*
X82562860Y-70208334D01*
X82534359Y-70252681D01*
X82427271Y-70359768D01*
X82427266Y-70359774D01*
X82274568Y-70569945D01*
X82156622Y-70801423D01*
X82076340Y-71048506D01*
X82035700Y-71305097D01*
X82035700Y-71564902D01*
X82076340Y-71821493D01*
X82156622Y-72068576D01*
X82274568Y-72300054D01*
X82427266Y-72510225D01*
X82427271Y-72510231D01*
X82534359Y-72617319D01*
X82567844Y-72678642D01*
X82562860Y-72748334D01*
X82534359Y-72792681D01*
X82427271Y-72899768D01*
X82427266Y-72899774D01*
X82274568Y-73109945D01*
X82156622Y-73341423D01*
X82076340Y-73588506D01*
X82035700Y-73845097D01*
X82035700Y-74104902D01*
X82076340Y-74361493D01*
X82156622Y-74608576D01*
X82201908Y-74697453D01*
X82266825Y-74824859D01*
X82274568Y-74840054D01*
X82427266Y-75050225D01*
X82427271Y-75050231D01*
X82534359Y-75157319D01*
X82567844Y-75218642D01*
X82562860Y-75288334D01*
X82534359Y-75332681D01*
X82427271Y-75439768D01*
X82427270Y-75439770D01*
X82274568Y-75649945D01*
X82156622Y-75881423D01*
X82076340Y-76128506D01*
X82035700Y-76385097D01*
X82035700Y-76644902D01*
X82076340Y-76901493D01*
X82156622Y-77148576D01*
X82274568Y-77380054D01*
X82427266Y-77590225D01*
X82427271Y-77590231D01*
X82534359Y-77697319D01*
X82567844Y-77758642D01*
X82562860Y-77828334D01*
X82534359Y-77872681D01*
X82427271Y-77979768D01*
X82427266Y-77979774D01*
X82274568Y-78189945D01*
X82156622Y-78421423D01*
X82076340Y-78668506D01*
X82035700Y-78925097D01*
X82035700Y-79184902D01*
X82076340Y-79441493D01*
X82156622Y-79688576D01*
X82274568Y-79920054D01*
X82427266Y-80130225D01*
X82427271Y-80130231D01*
X82534359Y-80237319D01*
X82567844Y-80298642D01*
X82562860Y-80368334D01*
X82534359Y-80412681D01*
X82427271Y-80519768D01*
X82427266Y-80519774D01*
X82274568Y-80729945D01*
X82156622Y-80961423D01*
X82076340Y-81208506D01*
X82035700Y-81465097D01*
X82035700Y-81724902D01*
X82076340Y-81981493D01*
X82156622Y-82228576D01*
X82274568Y-82460054D01*
X82427266Y-82670225D01*
X82427271Y-82670231D01*
X82534359Y-82777319D01*
X82567844Y-82838642D01*
X82562860Y-82908334D01*
X82534359Y-82952681D01*
X82427271Y-83059768D01*
X82427266Y-83059774D01*
X82274568Y-83269945D01*
X82156622Y-83501423D01*
X82076340Y-83748506D01*
X82035700Y-84005097D01*
X82035700Y-84264902D01*
X82076340Y-84521493D01*
X82156622Y-84768576D01*
X82274568Y-85000054D01*
X82427266Y-85210225D01*
X82427271Y-85210231D01*
X82534359Y-85317319D01*
X82567844Y-85378642D01*
X82562860Y-85448334D01*
X82534359Y-85492681D01*
X82427271Y-85599768D01*
X82427266Y-85599774D01*
X82274568Y-85809945D01*
X82156622Y-86041423D01*
X82076340Y-86288506D01*
X82035700Y-86545097D01*
X82035700Y-86804902D01*
X82076340Y-87061493D01*
X82156622Y-87308576D01*
X82274568Y-87540054D01*
X82427266Y-87750225D01*
X82427271Y-87750231D01*
X82534359Y-87857319D01*
X82567844Y-87918642D01*
X82562860Y-87988334D01*
X82534359Y-88032681D01*
X82427271Y-88139768D01*
X82427266Y-88139774D01*
X82274568Y-88349945D01*
X82156622Y-88581423D01*
X82076340Y-88828506D01*
X82035700Y-89085097D01*
X82035700Y-89344902D01*
X82076340Y-89601493D01*
X82156622Y-89848576D01*
X82274568Y-90080054D01*
X82427266Y-90290225D01*
X82427269Y-90290229D01*
X82610971Y-90473931D01*
X82784301Y-90599862D01*
X82791865Y-90605358D01*
X82834530Y-90660688D01*
X82840509Y-90730301D01*
X82807903Y-90792096D01*
X82747064Y-90826454D01*
X82718979Y-90829676D01*
X81634271Y-90829676D01*
X56016961Y-90829676D01*
X56016114Y-90828698D01*
X56006170Y-90759540D01*
X56035195Y-90695984D01*
X56072613Y-90666702D01*
X56151251Y-90626634D01*
X56361429Y-90473931D01*
X56545131Y-90290229D01*
X56697834Y-90080051D01*
X56815779Y-89848572D01*
X56896060Y-89601493D01*
X56918739Y-89458298D01*
X56936700Y-89344902D01*
X56936700Y-89085097D01*
X56915147Y-88949021D01*
X56896060Y-88828507D01*
X56815779Y-88581428D01*
X56815777Y-88581425D01*
X56815777Y-88581423D01*
X56772987Y-88497445D01*
X56697834Y-88349949D01*
X56545131Y-88139771D01*
X56438041Y-88032681D01*
X56404556Y-87971358D01*
X56409540Y-87901666D01*
X56438041Y-87857319D01*
X56545131Y-87750229D01*
X56697834Y-87540051D01*
X56815779Y-87308572D01*
X56896060Y-87061493D01*
X56929382Y-86851103D01*
X56936700Y-86804902D01*
X56936700Y-86545097D01*
X56915147Y-86409021D01*
X56896060Y-86288507D01*
X56815779Y-86041428D01*
X56815777Y-86041425D01*
X56815777Y-86041423D01*
X56772987Y-85957445D01*
X56697834Y-85809949D01*
X56545131Y-85599771D01*
X56438041Y-85492681D01*
X56404556Y-85431358D01*
X56409540Y-85361666D01*
X56438041Y-85317319D01*
X56476322Y-85279038D01*
X56545131Y-85210229D01*
X56697834Y-85000051D01*
X56815779Y-84768572D01*
X56896060Y-84521493D01*
X56921266Y-84362344D01*
X56936700Y-84264902D01*
X56936700Y-84005097D01*
X56904928Y-83804500D01*
X56896060Y-83748507D01*
X56815779Y-83501428D01*
X56815777Y-83501425D01*
X56815777Y-83501423D01*
X56739184Y-83351103D01*
X56697834Y-83269949D01*
X56545131Y-83059771D01*
X56438041Y-82952681D01*
X56404556Y-82891358D01*
X56409540Y-82821666D01*
X56438041Y-82777319D01*
X56476469Y-82738891D01*
X56545131Y-82670229D01*
X56697834Y-82460051D01*
X56815779Y-82228572D01*
X56896060Y-81981493D01*
X56918739Y-81838298D01*
X56936700Y-81724902D01*
X56936700Y-81465097D01*
X56915147Y-81329021D01*
X56896060Y-81208507D01*
X56815779Y-80961428D01*
X56815777Y-80961425D01*
X56815777Y-80961423D01*
X56771811Y-80875137D01*
X56697834Y-80729949D01*
X56545131Y-80519771D01*
X56438041Y-80412681D01*
X56404556Y-80351358D01*
X56409540Y-80281666D01*
X56438041Y-80237319D01*
X56460860Y-80214500D01*
X56545131Y-80130229D01*
X56697834Y-79920051D01*
X56815779Y-79688572D01*
X56896060Y-79441493D01*
X56918739Y-79298298D01*
X56936700Y-79184902D01*
X56936700Y-78925097D01*
X56915147Y-78789021D01*
X56896060Y-78668507D01*
X56815779Y-78421428D01*
X56815777Y-78421425D01*
X56815777Y-78421423D01*
X56772987Y-78337445D01*
X56697834Y-78189949D01*
X56545131Y-77979771D01*
X56438041Y-77872681D01*
X56404556Y-77811358D01*
X56409540Y-77741666D01*
X56438041Y-77697319D01*
X56470462Y-77664898D01*
X56545131Y-77590229D01*
X56697834Y-77380051D01*
X56815779Y-77148572D01*
X56896060Y-76901493D01*
X56918739Y-76758298D01*
X56936700Y-76644902D01*
X56936700Y-76385097D01*
X56915147Y-76249021D01*
X56896060Y-76128507D01*
X56815779Y-75881428D01*
X56815777Y-75881425D01*
X56815777Y-75881423D01*
X56767522Y-75786719D01*
X56697834Y-75649949D01*
X56545131Y-75439771D01*
X56438041Y-75332681D01*
X56404556Y-75271358D01*
X56409540Y-75201666D01*
X56438041Y-75157319D01*
X56545131Y-75050229D01*
X56697834Y-74840051D01*
X56815779Y-74608572D01*
X56896060Y-74361493D01*
X56920535Y-74206963D01*
X56936700Y-74104902D01*
X56936700Y-73845097D01*
X56915147Y-73709021D01*
X56896060Y-73588507D01*
X56815779Y-73341428D01*
X56815777Y-73341425D01*
X56815777Y-73341423D01*
X56772987Y-73257445D01*
X56697834Y-73109949D01*
X56545131Y-72899771D01*
X56438041Y-72792681D01*
X56404556Y-72731358D01*
X56409540Y-72661666D01*
X56438041Y-72617319D01*
X56473937Y-72581423D01*
X56545131Y-72510229D01*
X56697834Y-72300051D01*
X56815779Y-72068572D01*
X56896060Y-71821493D01*
X56918739Y-71678298D01*
X56936700Y-71564902D01*
X56936700Y-71305097D01*
X56915147Y-71169021D01*
X56896060Y-71048507D01*
X56815779Y-70801428D01*
X56815777Y-70801425D01*
X56815777Y-70801423D01*
X56772987Y-70717445D01*
X56697834Y-70569949D01*
X56545131Y-70359771D01*
X56438041Y-70252681D01*
X56404556Y-70191358D01*
X56409540Y-70121666D01*
X56438041Y-70077319D01*
X56473937Y-70041423D01*
X56545131Y-69970229D01*
X56697834Y-69760051D01*
X56815779Y-69528572D01*
X56896060Y-69281493D01*
X56935858Y-69030215D01*
X56936700Y-69024902D01*
X56936700Y-68765097D01*
X56905190Y-68566155D01*
X56896060Y-68508507D01*
X56815779Y-68261428D01*
X56815777Y-68261425D01*
X56815777Y-68261423D01*
X56772987Y-68177445D01*
X56697834Y-68029949D01*
X56545131Y-67819771D01*
X56438041Y-67712681D01*
X56404556Y-67651358D01*
X56409540Y-67581666D01*
X56438041Y-67537319D01*
X56473937Y-67501423D01*
X56545131Y-67430229D01*
X56697834Y-67220051D01*
X56815779Y-66988572D01*
X56896060Y-66741493D01*
X56922011Y-66577642D01*
X56936700Y-66484902D01*
X56936700Y-66225097D01*
X56915147Y-66089021D01*
X56896060Y-65968507D01*
X56815779Y-65721428D01*
X56815777Y-65721425D01*
X56815777Y-65721423D01*
X56772987Y-65637445D01*
X56697834Y-65489949D01*
X56545131Y-65279771D01*
X56438041Y-65172681D01*
X56404556Y-65111358D01*
X56409540Y-65041666D01*
X56438041Y-64997319D01*
X56483003Y-64952357D01*
X56545131Y-64890229D01*
X56697834Y-64680051D01*
X56815779Y-64448572D01*
X56896060Y-64201493D01*
X56931680Y-63976595D01*
X56936700Y-63944902D01*
X56936700Y-63685097D01*
X56915147Y-63549021D01*
X56896060Y-63428507D01*
X56815779Y-63181428D01*
X56815777Y-63181425D01*
X56815777Y-63181423D01*
X56768384Y-63088410D01*
X56697834Y-62949949D01*
X56545131Y-62739771D01*
X56438041Y-62632681D01*
X56404556Y-62571358D01*
X56409540Y-62501666D01*
X56438041Y-62457319D01*
X56447711Y-62447649D01*
X56545131Y-62350229D01*
X56697834Y-62140051D01*
X56815779Y-61908572D01*
X56896060Y-61661493D01*
X56918739Y-61518298D01*
X56936700Y-61404902D01*
X56936700Y-61145097D01*
X56915147Y-61009021D01*
X56896060Y-60888507D01*
X56815779Y-60641428D01*
X56815777Y-60641425D01*
X56815777Y-60641423D01*
X56772987Y-60557445D01*
X56697834Y-60409949D01*
X56545131Y-60199771D01*
X56438041Y-60092681D01*
X56404556Y-60031358D01*
X56409540Y-59961666D01*
X56438041Y-59917319D01*
X56545131Y-59810229D01*
X56697834Y-59600051D01*
X56815779Y-59368572D01*
X56896060Y-59121493D01*
X56918739Y-58978298D01*
X56936700Y-58864902D01*
X56936700Y-58605097D01*
X56915147Y-58469021D01*
X56896060Y-58348507D01*
X56815779Y-58101428D01*
X56815777Y-58101425D01*
X56815777Y-58101423D01*
X56772987Y-58017445D01*
X56697834Y-57869949D01*
X56545131Y-57659771D01*
X56438041Y-57552681D01*
X56404556Y-57491358D01*
X56409540Y-57421666D01*
X56438041Y-57377319D01*
X56545131Y-57270229D01*
X56697834Y-57060051D01*
X56815779Y-56828572D01*
X56896060Y-56581493D01*
X56918739Y-56438298D01*
X56936700Y-56324902D01*
X56936700Y-56065097D01*
X56915147Y-55929021D01*
X56896060Y-55808507D01*
X56815779Y-55561428D01*
X56815777Y-55561425D01*
X56815777Y-55561423D01*
X56697833Y-55329948D01*
X56697832Y-55329946D01*
X56652985Y-55268219D01*
X56629506Y-55202416D01*
X56645331Y-55134362D01*
X56665623Y-55107655D01*
X56665624Y-55107654D01*
X56766016Y-55007262D01*
X56861989Y-54854522D01*
X56921568Y-54684255D01*
X56936700Y-54549954D01*
X56936700Y-52760046D01*
X56921568Y-52625745D01*
X56861989Y-52455478D01*
X56766016Y-52302738D01*
X56638462Y-52175184D01*
X56485723Y-52079211D01*
X56315454Y-52019631D01*
X56315449Y-52019630D01*
X56181160Y-52004500D01*
X56181154Y-52004500D01*
X55515047Y-52004500D01*
X55448008Y-51984815D01*
X55402253Y-51932011D01*
X55392309Y-51862853D01*
X55421334Y-51799297D01*
X55427366Y-51792819D01*
X58478366Y-48741819D01*
X58539689Y-48708334D01*
X58566047Y-48705500D01*
X99878255Y-48705500D01*
X99945294Y-48725185D01*
X99991049Y-48777989D01*
X100000993Y-48847147D01*
X99978573Y-48902385D01*
X99849568Y-49079945D01*
X99731622Y-49311423D01*
X99651340Y-49558506D01*
X99610700Y-49815097D01*
X99610700Y-50074902D01*
X99651340Y-50331493D01*
X99731622Y-50578576D01*
X99812734Y-50737764D01*
X99849566Y-50810051D01*
X100002269Y-51020229D01*
X100185971Y-51203931D01*
X100396149Y-51356634D01*
X100627628Y-51474579D01*
X100874707Y-51554860D01*
X101021660Y-51578134D01*
X101084791Y-51608061D01*
X101089940Y-51612925D01*
X108114381Y-58637366D01*
X108147866Y-58698689D01*
X108150700Y-58725047D01*
X108150700Y-60431761D01*
X108131015Y-60498800D01*
X108127018Y-60504646D01*
X108082332Y-60566151D01*
X107967960Y-60790618D01*
X107890109Y-61030217D01*
X107878215Y-61105309D01*
X107848285Y-61168443D01*
X107843423Y-61173590D01*
X106341736Y-62675278D01*
X106221416Y-62840884D01*
X106221414Y-62840887D01*
X106199009Y-62884860D01*
X106128481Y-63023276D01*
X106065222Y-63217965D01*
X106033200Y-63420148D01*
X106033200Y-75389855D01*
X106041106Y-75439770D01*
X106041106Y-75439771D01*
X106065222Y-75592030D01*
X106065222Y-75592031D01*
X106065223Y-75592034D01*
X106128480Y-75786719D01*
X106174946Y-75877914D01*
X106221413Y-75969111D01*
X106341734Y-76134719D01*
X106341736Y-76134721D01*
X107843423Y-77636408D01*
X107876908Y-77697731D01*
X107878215Y-77704689D01*
X107890109Y-77779783D01*
X107967960Y-78019381D01*
X108082332Y-78243848D01*
X108230401Y-78447649D01*
X108230405Y-78447654D01*
X108408545Y-78625794D01*
X108408550Y-78625798D01*
X108586317Y-78754952D01*
X108612355Y-78773870D01*
X108755384Y-78846747D01*
X108836816Y-78888239D01*
X108836818Y-78888239D01*
X108836821Y-78888241D01*
X109076415Y-78966090D01*
X109325238Y-79005500D01*
X109325239Y-79005500D01*
X109577161Y-79005500D01*
X109577162Y-79005500D01*
X109825985Y-78966090D01*
X110065579Y-78888241D01*
X110113504Y-78863821D01*
X110182173Y-78850925D01*
X110246914Y-78877201D01*
X110287171Y-78934307D01*
X110293800Y-78974306D01*
X110293800Y-82671852D01*
X110274115Y-82738891D01*
X110257481Y-82759533D01*
X109219790Y-83797223D01*
X109158467Y-83830708D01*
X109151509Y-83832015D01*
X109076417Y-83843909D01*
X108836818Y-83921760D01*
X108612351Y-84036132D01*
X108408550Y-84184201D01*
X108408545Y-84184205D01*
X108230405Y-84362345D01*
X108230401Y-84362350D01*
X108082332Y-84566151D01*
X107967960Y-84790616D01*
X107890110Y-85030214D01*
X107850700Y-85279038D01*
X107850700Y-85530961D01*
X107890110Y-85779785D01*
X107967960Y-86019383D01*
X108082332Y-86243848D01*
X108230401Y-86447649D01*
X108230405Y-86447654D01*
X108408545Y-86625794D01*
X108408550Y-86625798D01*
X108509887Y-86699423D01*
X108612355Y-86773870D01*
X108755384Y-86846747D01*
X108836816Y-86888239D01*
X108836818Y-86888239D01*
X108836821Y-86888241D01*
X109076415Y-86966090D01*
X109325238Y-87005500D01*
X109325239Y-87005500D01*
X109577161Y-87005500D01*
X109577162Y-87005500D01*
X109825985Y-86966090D01*
X110065579Y-86888241D01*
X110290045Y-86773870D01*
X110338747Y-86738485D01*
X110392514Y-86699423D01*
X110493849Y-86625798D01*
X110493847Y-86625798D01*
X110493856Y-86625793D01*
X110671993Y-86447656D01*
X110820070Y-86243845D01*
X110934441Y-86019379D01*
X111012290Y-85779785D01*
X111024184Y-85704687D01*
X111054111Y-85641557D01*
X111058957Y-85636426D01*
X111416345Y-85279038D01*
X115470700Y-85279038D01*
X115470700Y-85530961D01*
X115510110Y-85779785D01*
X115587960Y-86019383D01*
X115702332Y-86243848D01*
X115850401Y-86447649D01*
X115850405Y-86447654D01*
X116028545Y-86625794D01*
X116028550Y-86625798D01*
X116129887Y-86699423D01*
X116232355Y-86773870D01*
X116375384Y-86846747D01*
X116456816Y-86888239D01*
X116456818Y-86888239D01*
X116456821Y-86888241D01*
X116696415Y-86966090D01*
X116945238Y-87005500D01*
X116945239Y-87005500D01*
X117197161Y-87005500D01*
X117197162Y-87005500D01*
X117445985Y-86966090D01*
X117685579Y-86888241D01*
X117910045Y-86773870D01*
X118113856Y-86625793D01*
X118291993Y-86447656D01*
X118440070Y-86243845D01*
X118554441Y-86019379D01*
X118632290Y-85779785D01*
X118671700Y-85530962D01*
X118671700Y-85279038D01*
X118632290Y-85030215D01*
X118554441Y-84790621D01*
X118554439Y-84790618D01*
X118554439Y-84790616D01*
X118512947Y-84709184D01*
X118440070Y-84566155D01*
X118407621Y-84521493D01*
X118291998Y-84362350D01*
X118291994Y-84362345D01*
X118113854Y-84184205D01*
X118113849Y-84184201D01*
X117910048Y-84036132D01*
X117910047Y-84036131D01*
X117910045Y-84036130D01*
X117839947Y-84000413D01*
X117685583Y-83921760D01*
X117445985Y-83843910D01*
X117445979Y-83843909D01*
X117197162Y-83804500D01*
X116945238Y-83804500D01*
X116820826Y-83824205D01*
X116696414Y-83843910D01*
X116456816Y-83921760D01*
X116232351Y-84036132D01*
X116028550Y-84184201D01*
X116028545Y-84184205D01*
X115850405Y-84362345D01*
X115850401Y-84362350D01*
X115702332Y-84566151D01*
X115587960Y-84790616D01*
X115510110Y-85030214D01*
X115470700Y-85279038D01*
X111416345Y-85279038D01*
X112586266Y-84109119D01*
X112706587Y-83943511D01*
X112777416Y-83804500D01*
X112799520Y-83761119D01*
X112831148Y-83663776D01*
X112862777Y-83566435D01*
X112894800Y-83364252D01*
X112894800Y-83159548D01*
X112894800Y-77279038D01*
X115470700Y-77279038D01*
X115470700Y-77530962D01*
X115506761Y-77758642D01*
X115510110Y-77779785D01*
X115587960Y-78019383D01*
X115702332Y-78243848D01*
X115850401Y-78447649D01*
X115850405Y-78447654D01*
X116028545Y-78625794D01*
X116028550Y-78625798D01*
X116206317Y-78754952D01*
X116232355Y-78773870D01*
X116375384Y-78846747D01*
X116456816Y-78888239D01*
X116456818Y-78888239D01*
X116456821Y-78888241D01*
X116696415Y-78966090D01*
X116945238Y-79005500D01*
X116945239Y-79005500D01*
X117197161Y-79005500D01*
X117197162Y-79005500D01*
X117445985Y-78966090D01*
X117685579Y-78888241D01*
X117910045Y-78773870D01*
X118113856Y-78625793D01*
X118291993Y-78447656D01*
X118440070Y-78243845D01*
X118554441Y-78019379D01*
X118632290Y-77779785D01*
X118671700Y-77530962D01*
X118671700Y-77279038D01*
X118632290Y-77030215D01*
X118554441Y-76790621D01*
X118554439Y-76790618D01*
X118554439Y-76790616D01*
X118512947Y-76709184D01*
X118440070Y-76566155D01*
X118421152Y-76540117D01*
X118291998Y-76362350D01*
X118291994Y-76362345D01*
X118113854Y-76184205D01*
X118113849Y-76184201D01*
X117910048Y-76036132D01*
X117910047Y-76036131D01*
X117910045Y-76036130D01*
X117778513Y-75969111D01*
X117685583Y-75921760D01*
X117445985Y-75843910D01*
X117394105Y-75835693D01*
X117197162Y-75804500D01*
X116945238Y-75804500D01*
X116820826Y-75824205D01*
X116696414Y-75843910D01*
X116456816Y-75921760D01*
X116232351Y-76036132D01*
X116028550Y-76184201D01*
X116028545Y-76184205D01*
X115850405Y-76362345D01*
X115850401Y-76362350D01*
X115702332Y-76566151D01*
X115587960Y-76790616D01*
X115551934Y-76901493D01*
X115510110Y-77030215D01*
X115470700Y-77279038D01*
X112894800Y-77279038D01*
X112894800Y-71445748D01*
X112894800Y-71445743D01*
X112880682Y-71356611D01*
X112880682Y-71356610D01*
X112862777Y-71243568D01*
X112862777Y-71243565D01*
X112799520Y-71048882D01*
X112799520Y-71048881D01*
X112717670Y-70888241D01*
X112706587Y-70866489D01*
X112586266Y-70700881D01*
X111164423Y-69279038D01*
X115470700Y-69279038D01*
X115470700Y-69530961D01*
X115510110Y-69779785D01*
X115587960Y-70019383D01*
X115702332Y-70243848D01*
X115850401Y-70447649D01*
X115850405Y-70447654D01*
X116028545Y-70625794D01*
X116028550Y-70625798D01*
X116131890Y-70700878D01*
X116232355Y-70773870D01*
X116375384Y-70846747D01*
X116456816Y-70888239D01*
X116456818Y-70888239D01*
X116456821Y-70888241D01*
X116696415Y-70966090D01*
X116945238Y-71005500D01*
X116945239Y-71005500D01*
X117197161Y-71005500D01*
X117197162Y-71005500D01*
X117445985Y-70966090D01*
X117685579Y-70888241D01*
X117910045Y-70773870D01*
X118113856Y-70625793D01*
X118291993Y-70447656D01*
X118440070Y-70243845D01*
X118554441Y-70019379D01*
X118632290Y-69779785D01*
X118671700Y-69530962D01*
X118671700Y-69279038D01*
X118632290Y-69030215D01*
X118554441Y-68790621D01*
X118554439Y-68790618D01*
X118554439Y-68790616D01*
X118512947Y-68709184D01*
X118440070Y-68566155D01*
X118398186Y-68508506D01*
X118291998Y-68362350D01*
X118291994Y-68362345D01*
X118113854Y-68184205D01*
X118113849Y-68184201D01*
X117910048Y-68036132D01*
X117910047Y-68036131D01*
X117910045Y-68036130D01*
X117839947Y-68000413D01*
X117685583Y-67921760D01*
X117445985Y-67843910D01*
X117293597Y-67819774D01*
X117197162Y-67804500D01*
X116945238Y-67804500D01*
X116848803Y-67819774D01*
X116696414Y-67843910D01*
X116456816Y-67921760D01*
X116232351Y-68036132D01*
X116028550Y-68184201D01*
X116028545Y-68184205D01*
X115850405Y-68362345D01*
X115850401Y-68362350D01*
X115702332Y-68566151D01*
X115587960Y-68790616D01*
X115510110Y-69030214D01*
X115470700Y-69279038D01*
X111164423Y-69279038D01*
X111058975Y-69173590D01*
X111025490Y-69112267D01*
X111024183Y-69105306D01*
X111012290Y-69030214D01*
X110934439Y-68790616D01*
X110892947Y-68709184D01*
X110820070Y-68566155D01*
X110778186Y-68508506D01*
X110671998Y-68362350D01*
X110671994Y-68362345D01*
X110493854Y-68184205D01*
X110493849Y-68184201D01*
X110290048Y-68036132D01*
X110290047Y-68036131D01*
X110290045Y-68036130D01*
X110219947Y-68000413D01*
X110065583Y-67921760D01*
X109825985Y-67843910D01*
X109673597Y-67819774D01*
X109653905Y-67816655D01*
X111198557Y-67816655D01*
X115396997Y-67816655D01*
X115396997Y-64400629D01*
X111198557Y-64400629D01*
X111198557Y-67816655D01*
X109653905Y-67816655D01*
X109577162Y-67804500D01*
X109325238Y-67804500D01*
X109228803Y-67819774D01*
X109076414Y-67843910D01*
X108965249Y-67880029D01*
X108836821Y-67921759D01*
X108836818Y-67921760D01*
X108836816Y-67921761D01*
X108814493Y-67933135D01*
X108745824Y-67946030D01*
X108681084Y-67919752D01*
X108640828Y-67862645D01*
X108634200Y-67822649D01*
X108634200Y-64112546D01*
X108653885Y-64045507D01*
X108670514Y-64024869D01*
X109682610Y-63012773D01*
X109743931Y-62979290D01*
X109750845Y-62977990D01*
X109825985Y-62966090D01*
X110065579Y-62888241D01*
X110290045Y-62773870D01*
X110493856Y-62625793D01*
X110671993Y-62447656D01*
X110820070Y-62243845D01*
X110934441Y-62019379D01*
X111012290Y-61779785D01*
X111051700Y-61530962D01*
X111051700Y-61279038D01*
X115470700Y-61279038D01*
X115470700Y-61530961D01*
X115510110Y-61779785D01*
X115587960Y-62019383D01*
X115702332Y-62243848D01*
X115850401Y-62447649D01*
X115850405Y-62447654D01*
X116028545Y-62625794D01*
X116028550Y-62625798D01*
X116185422Y-62739771D01*
X116232355Y-62773870D01*
X116375384Y-62846747D01*
X116456816Y-62888239D01*
X116456818Y-62888239D01*
X116456821Y-62888241D01*
X116696415Y-62966090D01*
X116945238Y-63005500D01*
X116945239Y-63005500D01*
X117197161Y-63005500D01*
X117197162Y-63005500D01*
X117445985Y-62966090D01*
X117685579Y-62888241D01*
X117910045Y-62773870D01*
X118113856Y-62625793D01*
X118291993Y-62447656D01*
X118440070Y-62243845D01*
X118554441Y-62019379D01*
X118632290Y-61779785D01*
X118671700Y-61530962D01*
X118671700Y-61279038D01*
X118632290Y-61030215D01*
X118554441Y-60790621D01*
X118554439Y-60790618D01*
X118554439Y-60790616D01*
X118478423Y-60641428D01*
X118440070Y-60566155D01*
X118371700Y-60472051D01*
X118291998Y-60362350D01*
X118291994Y-60362345D01*
X118113854Y-60184205D01*
X118113849Y-60184201D01*
X117910048Y-60036132D01*
X117910047Y-60036131D01*
X117910045Y-60036130D01*
X117827225Y-59993931D01*
X117685583Y-59921760D01*
X117445985Y-59843910D01*
X117197162Y-59804500D01*
X116945238Y-59804500D01*
X116868495Y-59816655D01*
X116696414Y-59843910D01*
X116456816Y-59921760D01*
X116232351Y-60036132D01*
X116028550Y-60184201D01*
X116028545Y-60184205D01*
X115850405Y-60362345D01*
X115850401Y-60362350D01*
X115702332Y-60566151D01*
X115587960Y-60790616D01*
X115510110Y-61030214D01*
X115470700Y-61279038D01*
X111051700Y-61279038D01*
X111012290Y-61030215D01*
X110934441Y-60790621D01*
X110934439Y-60790618D01*
X110934439Y-60790616D01*
X110858423Y-60641428D01*
X110820070Y-60566155D01*
X110813446Y-60557038D01*
X110775382Y-60504646D01*
X110751902Y-60438840D01*
X110751700Y-60431761D01*
X110751700Y-59816655D01*
X111198557Y-59816655D01*
X115466700Y-59816655D01*
X115466700Y-56329676D01*
X111198557Y-56329676D01*
X111198557Y-59816655D01*
X110751700Y-59816655D01*
X110751700Y-58032648D01*
X110719677Y-57830465D01*
X110656418Y-57635776D01*
X110563763Y-57453931D01*
X110563773Y-57453925D01*
X110563742Y-57453890D01*
X110563487Y-57453389D01*
X110443166Y-57287781D01*
X102929125Y-49773740D01*
X102895640Y-49712417D01*
X102894340Y-49705502D01*
X102871060Y-49558507D01*
X102790779Y-49311428D01*
X102672834Y-49079949D01*
X102520131Y-48869771D01*
X102413041Y-48762681D01*
X102379556Y-48701358D01*
X102384540Y-48631666D01*
X102413041Y-48587319D01*
X102520131Y-48480229D01*
X102672834Y-48270051D01*
X102790779Y-48038572D01*
X102871060Y-47791493D01*
X102893739Y-47648298D01*
X102911700Y-47534902D01*
X102911700Y-47275097D01*
X102890147Y-47139021D01*
X102871060Y-47018507D01*
X102790779Y-46771428D01*
X102790777Y-46771425D01*
X102790777Y-46771423D01*
X102672833Y-46539948D01*
X102627985Y-46478220D01*
X102604506Y-46412416D01*
X102620331Y-46344362D01*
X102640623Y-46317655D01*
X102665565Y-46292713D01*
X102741016Y-46217262D01*
X102836989Y-46064522D01*
X102896568Y-45894255D01*
X102911700Y-45759954D01*
X102911700Y-43970046D01*
X102896568Y-43835745D01*
X102836989Y-43665478D01*
X102741016Y-43512738D01*
X102613462Y-43385184D01*
X102460722Y-43289211D01*
X102334003Y-43244870D01*
X102277227Y-43204148D01*
X102251480Y-43139195D01*
X102264936Y-43070633D01*
X102313324Y-43020231D01*
X102374958Y-43003828D01*
X103395272Y-43003828D01*
X103395272Y-39589984D01*
X99198557Y-39589984D01*
X99198557Y-43003828D01*
X100147442Y-43003828D01*
X100214481Y-43023513D01*
X100260236Y-43076317D01*
X100270180Y-43145475D01*
X100241155Y-43209031D01*
X100188397Y-43244870D01*
X100061677Y-43289211D01*
X99908937Y-43385184D01*
X99781384Y-43512737D01*
X99685411Y-43665476D01*
X99625831Y-43835745D01*
X99625830Y-43835750D01*
X99610700Y-43970039D01*
X99610700Y-45759960D01*
X99625830Y-45894249D01*
X99625833Y-45894262D01*
X99641679Y-45939545D01*
X99645242Y-46009323D01*
X99610513Y-46069951D01*
X99548520Y-46102179D01*
X99524638Y-46104500D01*
X58078352Y-46104500D01*
X57873648Y-46104500D01*
X57847142Y-46108698D01*
X57671471Y-46136521D01*
X57671465Y-46136523D01*
X57642086Y-46146069D01*
X57642083Y-46146069D01*
X57476781Y-46199780D01*
X57442470Y-46217261D01*
X57442471Y-46217262D01*
X57294388Y-46292713D01*
X57128778Y-46413036D01*
X33095408Y-70446406D01*
X33034085Y-70479891D01*
X32964393Y-70474907D01*
X32908460Y-70433035D01*
X32885254Y-70378123D01*
X32871060Y-70288506D01*
X32830930Y-70165000D01*
X32790779Y-70041428D01*
X32790777Y-70041425D01*
X32790777Y-70041423D01*
X32747987Y-69957445D01*
X32672834Y-69809949D01*
X32520131Y-69599771D01*
X32413041Y-69492681D01*
X32379556Y-69431358D01*
X32384540Y-69361666D01*
X32413041Y-69317319D01*
X32451322Y-69279038D01*
X32520131Y-69210229D01*
X32672834Y-69000051D01*
X32790779Y-68768572D01*
X32871060Y-68521493D01*
X32896266Y-68362344D01*
X32911700Y-68264902D01*
X32911700Y-68005097D01*
X32886170Y-67843910D01*
X32871060Y-67748507D01*
X32790779Y-67501428D01*
X32790777Y-67501425D01*
X32790777Y-67501423D01*
X32726121Y-67374530D01*
X32672834Y-67269949D01*
X32627985Y-67208219D01*
X32604506Y-67142416D01*
X32620331Y-67074362D01*
X32640623Y-67047655D01*
X32681365Y-67006913D01*
X32741016Y-66947262D01*
X32836989Y-66794522D01*
X32896568Y-66624255D01*
X32911700Y-66489954D01*
X32911700Y-64700046D01*
X32905798Y-64647665D01*
X32896569Y-64565750D01*
X32896568Y-64565745D01*
X32855567Y-64448572D01*
X32836989Y-64395478D01*
X32741016Y-64242738D01*
X32613462Y-64115184D01*
X32609264Y-64112546D01*
X32460721Y-64019210D01*
X32338933Y-63976595D01*
X32282156Y-63935873D01*
X32256409Y-63870920D01*
X32269865Y-63802359D01*
X32318252Y-63751956D01*
X32379887Y-63735553D01*
X33216700Y-63735553D01*
X33216700Y-60319984D01*
X29234271Y-60319984D01*
X20500500Y-60319984D01*
X20500500Y-20624500D01*
X20520185Y-20557461D01*
X20572989Y-20511706D01*
X20624500Y-20500500D01*
X123375500Y-20500500D01*
X123442539Y-20520185D01*
G37*
%TD.AperFunction*%
%TA.AperFunction,NonConductor*%
G36*
X102574534Y-82746918D02*
G01*
X102618881Y-82775419D01*
X102791118Y-82947656D01*
X102791123Y-82947660D01*
X102829204Y-82975327D01*
X102988561Y-83091106D01*
X103032242Y-83113362D01*
X103038631Y-83116618D01*
X103089427Y-83164593D01*
X103106222Y-83232414D01*
X103083684Y-83298549D01*
X103028969Y-83342000D01*
X102982336Y-83351103D01*
X102080064Y-83351103D01*
X102013025Y-83331418D01*
X101967270Y-83278614D01*
X101957326Y-83209456D01*
X101986351Y-83145900D01*
X102023769Y-83116618D01*
X102028138Y-83114391D01*
X102073839Y-83091106D01*
X102271283Y-82947655D01*
X102443519Y-82775419D01*
X102504842Y-82741934D01*
X102574534Y-82746918D01*
G37*
%TD.AperFunction*%
%TA.AperFunction,NonConductor*%
G36*
X108814496Y-70876866D02*
G01*
X108836814Y-70888238D01*
X108836817Y-70888238D01*
X108836821Y-70888241D01*
X109002303Y-70942009D01*
X109076414Y-70966090D01*
X109115639Y-70972302D01*
X109151506Y-70977983D01*
X109214641Y-71007912D01*
X109219790Y-71012775D01*
X110257481Y-72050466D01*
X110290966Y-72111789D01*
X110293800Y-72138147D01*
X110293800Y-75835693D01*
X110274115Y-75902732D01*
X110221311Y-75948487D01*
X110152153Y-75958431D01*
X110113506Y-75946178D01*
X110065584Y-75921761D01*
X110065581Y-75921760D01*
X110065579Y-75921759D01*
X109930638Y-75877914D01*
X109825983Y-75843909D01*
X109750889Y-75832015D01*
X109687755Y-75802085D01*
X109682608Y-75797223D01*
X108670519Y-74785134D01*
X108637034Y-74723811D01*
X108634200Y-74697453D01*
X108634200Y-70987350D01*
X108653885Y-70920311D01*
X108706689Y-70874556D01*
X108775847Y-70864612D01*
X108814496Y-70876866D01*
G37*
%TD.AperFunction*%
M02*
