%TF.GenerationSoftware,KiCad,Pcbnew,9.0.6*%
%TF.CreationDate,2026-06-15T10:43:41+02:00*%
%TF.ProjectId,korad-esp32-carrier,6b6f7261-642d-4657-9370-33322d636172,rev?*%
%TF.SameCoordinates,Original*%
%TF.FileFunction,AssemblyDrawing,Top*%
%FSLAX46Y46*%
G04 Gerber Fmt 4.6, Leading zero omitted, Abs format (unit mm)*
G04 Created by KiCad (PCBNEW 9.0.6) date 2026-06-15 10:43:41*
%MOMM*%
%LPD*%
G01*
G04 APERTURE LIST*
%ADD10C,0.150000*%
%ADD11C,0.100000*%
G04 APERTURE END LIST*
D10*
X112665961Y-80229819D02*
X112094533Y-80229819D01*
X112380247Y-80229819D02*
X112380247Y-79229819D01*
X112380247Y-79229819D02*
X112285009Y-79372676D01*
X112285009Y-79372676D02*
X112189771Y-79467914D01*
X112189771Y-79467914D02*
X112094533Y-79515533D01*
X113285009Y-79229819D02*
X113380247Y-79229819D01*
X113380247Y-79229819D02*
X113475485Y-79277438D01*
X113475485Y-79277438D02*
X113523104Y-79325057D01*
X113523104Y-79325057D02*
X113570723Y-79420295D01*
X113570723Y-79420295D02*
X113618342Y-79610771D01*
X113618342Y-79610771D02*
X113618342Y-79848866D01*
X113618342Y-79848866D02*
X113570723Y-80039342D01*
X113570723Y-80039342D02*
X113523104Y-80134580D01*
X113523104Y-80134580D02*
X113475485Y-80182200D01*
X113475485Y-80182200D02*
X113380247Y-80229819D01*
X113380247Y-80229819D02*
X113285009Y-80229819D01*
X113285009Y-80229819D02*
X113189771Y-80182200D01*
X113189771Y-80182200D02*
X113142152Y-80134580D01*
X113142152Y-80134580D02*
X113094533Y-80039342D01*
X113094533Y-80039342D02*
X113046914Y-79848866D01*
X113046914Y-79848866D02*
X113046914Y-79610771D01*
X113046914Y-79610771D02*
X113094533Y-79420295D01*
X113094533Y-79420295D02*
X113142152Y-79325057D01*
X113142152Y-79325057D02*
X113189771Y-79277438D01*
X113189771Y-79277438D02*
X113285009Y-79229819D01*
X114046914Y-80229819D02*
X114046914Y-79229819D01*
X114142152Y-79848866D02*
X114427866Y-80229819D01*
X114427866Y-79563152D02*
X114046914Y-79944104D01*
X113094533Y-77859819D02*
X112761200Y-77383628D01*
X112523105Y-77859819D02*
X112523105Y-76859819D01*
X112523105Y-76859819D02*
X112904057Y-76859819D01*
X112904057Y-76859819D02*
X112999295Y-76907438D01*
X112999295Y-76907438D02*
X113046914Y-76955057D01*
X113046914Y-76955057D02*
X113094533Y-77050295D01*
X113094533Y-77050295D02*
X113094533Y-77193152D01*
X113094533Y-77193152D02*
X113046914Y-77288390D01*
X113046914Y-77288390D02*
X112999295Y-77336009D01*
X112999295Y-77336009D02*
X112904057Y-77383628D01*
X112904057Y-77383628D02*
X112523105Y-77383628D01*
X113951676Y-76859819D02*
X113761200Y-76859819D01*
X113761200Y-76859819D02*
X113665962Y-76907438D01*
X113665962Y-76907438D02*
X113618343Y-76955057D01*
X113618343Y-76955057D02*
X113523105Y-77097914D01*
X113523105Y-77097914D02*
X113475486Y-77288390D01*
X113475486Y-77288390D02*
X113475486Y-77669342D01*
X113475486Y-77669342D02*
X113523105Y-77764580D01*
X113523105Y-77764580D02*
X113570724Y-77812200D01*
X113570724Y-77812200D02*
X113665962Y-77859819D01*
X113665962Y-77859819D02*
X113856438Y-77859819D01*
X113856438Y-77859819D02*
X113951676Y-77812200D01*
X113951676Y-77812200D02*
X113999295Y-77764580D01*
X113999295Y-77764580D02*
X114046914Y-77669342D01*
X114046914Y-77669342D02*
X114046914Y-77431247D01*
X114046914Y-77431247D02*
X113999295Y-77336009D01*
X113999295Y-77336009D02*
X113951676Y-77288390D01*
X113951676Y-77288390D02*
X113856438Y-77240771D01*
X113856438Y-77240771D02*
X113665962Y-77240771D01*
X113665962Y-77240771D02*
X113570724Y-77288390D01*
X113570724Y-77288390D02*
X113523105Y-77336009D01*
X113523105Y-77336009D02*
X113475486Y-77431247D01*
X99713580Y-102359819D02*
X99142152Y-102359819D01*
X99427866Y-102359819D02*
X99427866Y-101359819D01*
X99427866Y-101359819D02*
X99332628Y-101502676D01*
X99332628Y-101502676D02*
X99237390Y-101597914D01*
X99237390Y-101597914D02*
X99142152Y-101645533D01*
X100332628Y-101359819D02*
X100427866Y-101359819D01*
X100427866Y-101359819D02*
X100523104Y-101407438D01*
X100523104Y-101407438D02*
X100570723Y-101455057D01*
X100570723Y-101455057D02*
X100618342Y-101550295D01*
X100618342Y-101550295D02*
X100665961Y-101740771D01*
X100665961Y-101740771D02*
X100665961Y-101978866D01*
X100665961Y-101978866D02*
X100618342Y-102169342D01*
X100618342Y-102169342D02*
X100570723Y-102264580D01*
X100570723Y-102264580D02*
X100523104Y-102312200D01*
X100523104Y-102312200D02*
X100427866Y-102359819D01*
X100427866Y-102359819D02*
X100332628Y-102359819D01*
X100332628Y-102359819D02*
X100237390Y-102312200D01*
X100237390Y-102312200D02*
X100189771Y-102264580D01*
X100189771Y-102264580D02*
X100142152Y-102169342D01*
X100142152Y-102169342D02*
X100094533Y-101978866D01*
X100094533Y-101978866D02*
X100094533Y-101740771D01*
X100094533Y-101740771D02*
X100142152Y-101550295D01*
X100142152Y-101550295D02*
X100189771Y-101455057D01*
X100189771Y-101455057D02*
X100237390Y-101407438D01*
X100237390Y-101407438D02*
X100332628Y-101359819D01*
X101285009Y-101359819D02*
X101380247Y-101359819D01*
X101380247Y-101359819D02*
X101475485Y-101407438D01*
X101475485Y-101407438D02*
X101523104Y-101455057D01*
X101523104Y-101455057D02*
X101570723Y-101550295D01*
X101570723Y-101550295D02*
X101618342Y-101740771D01*
X101618342Y-101740771D02*
X101618342Y-101978866D01*
X101618342Y-101978866D02*
X101570723Y-102169342D01*
X101570723Y-102169342D02*
X101523104Y-102264580D01*
X101523104Y-102264580D02*
X101475485Y-102312200D01*
X101475485Y-102312200D02*
X101380247Y-102359819D01*
X101380247Y-102359819D02*
X101285009Y-102359819D01*
X101285009Y-102359819D02*
X101189771Y-102312200D01*
X101189771Y-102312200D02*
X101142152Y-102264580D01*
X101142152Y-102264580D02*
X101094533Y-102169342D01*
X101094533Y-102169342D02*
X101046914Y-101978866D01*
X101046914Y-101978866D02*
X101046914Y-101740771D01*
X101046914Y-101740771D02*
X101094533Y-101550295D01*
X101094533Y-101550295D02*
X101142152Y-101455057D01*
X101142152Y-101455057D02*
X101189771Y-101407438D01*
X101189771Y-101407438D02*
X101285009Y-101359819D01*
X102046914Y-101693152D02*
X102046914Y-102359819D01*
X102046914Y-101788390D02*
X102094533Y-101740771D01*
X102094533Y-101740771D02*
X102189771Y-101693152D01*
X102189771Y-101693152D02*
X102332628Y-101693152D01*
X102332628Y-101693152D02*
X102427866Y-101740771D01*
X102427866Y-101740771D02*
X102475485Y-101836009D01*
X102475485Y-101836009D02*
X102475485Y-102359819D01*
X103285009Y-101836009D02*
X102951676Y-101836009D01*
X102951676Y-102359819D02*
X102951676Y-101359819D01*
X102951676Y-101359819D02*
X103427866Y-101359819D01*
X101094533Y-99764580D02*
X101046914Y-99812200D01*
X101046914Y-99812200D02*
X100904057Y-99859819D01*
X100904057Y-99859819D02*
X100808819Y-99859819D01*
X100808819Y-99859819D02*
X100665962Y-99812200D01*
X100665962Y-99812200D02*
X100570724Y-99716961D01*
X100570724Y-99716961D02*
X100523105Y-99621723D01*
X100523105Y-99621723D02*
X100475486Y-99431247D01*
X100475486Y-99431247D02*
X100475486Y-99288390D01*
X100475486Y-99288390D02*
X100523105Y-99097914D01*
X100523105Y-99097914D02*
X100570724Y-99002676D01*
X100570724Y-99002676D02*
X100665962Y-98907438D01*
X100665962Y-98907438D02*
X100808819Y-98859819D01*
X100808819Y-98859819D02*
X100904057Y-98859819D01*
X100904057Y-98859819D02*
X101046914Y-98907438D01*
X101046914Y-98907438D02*
X101094533Y-98955057D01*
X101475486Y-98955057D02*
X101523105Y-98907438D01*
X101523105Y-98907438D02*
X101618343Y-98859819D01*
X101618343Y-98859819D02*
X101856438Y-98859819D01*
X101856438Y-98859819D02*
X101951676Y-98907438D01*
X101951676Y-98907438D02*
X101999295Y-98955057D01*
X101999295Y-98955057D02*
X102046914Y-99050295D01*
X102046914Y-99050295D02*
X102046914Y-99145533D01*
X102046914Y-99145533D02*
X101999295Y-99288390D01*
X101999295Y-99288390D02*
X101427867Y-99859819D01*
X101427867Y-99859819D02*
X102046914Y-99859819D01*
X112665961Y-88229819D02*
X112094533Y-88229819D01*
X112380247Y-88229819D02*
X112380247Y-87229819D01*
X112380247Y-87229819D02*
X112285009Y-87372676D01*
X112285009Y-87372676D02*
X112189771Y-87467914D01*
X112189771Y-87467914D02*
X112094533Y-87515533D01*
X113285009Y-87229819D02*
X113380247Y-87229819D01*
X113380247Y-87229819D02*
X113475485Y-87277438D01*
X113475485Y-87277438D02*
X113523104Y-87325057D01*
X113523104Y-87325057D02*
X113570723Y-87420295D01*
X113570723Y-87420295D02*
X113618342Y-87610771D01*
X113618342Y-87610771D02*
X113618342Y-87848866D01*
X113618342Y-87848866D02*
X113570723Y-88039342D01*
X113570723Y-88039342D02*
X113523104Y-88134580D01*
X113523104Y-88134580D02*
X113475485Y-88182200D01*
X113475485Y-88182200D02*
X113380247Y-88229819D01*
X113380247Y-88229819D02*
X113285009Y-88229819D01*
X113285009Y-88229819D02*
X113189771Y-88182200D01*
X113189771Y-88182200D02*
X113142152Y-88134580D01*
X113142152Y-88134580D02*
X113094533Y-88039342D01*
X113094533Y-88039342D02*
X113046914Y-87848866D01*
X113046914Y-87848866D02*
X113046914Y-87610771D01*
X113046914Y-87610771D02*
X113094533Y-87420295D01*
X113094533Y-87420295D02*
X113142152Y-87325057D01*
X113142152Y-87325057D02*
X113189771Y-87277438D01*
X113189771Y-87277438D02*
X113285009Y-87229819D01*
X114046914Y-88229819D02*
X114046914Y-87229819D01*
X114142152Y-87848866D02*
X114427866Y-88229819D01*
X114427866Y-87563152D02*
X114046914Y-87944104D01*
X113094533Y-85859819D02*
X112761200Y-85383628D01*
X112523105Y-85859819D02*
X112523105Y-84859819D01*
X112523105Y-84859819D02*
X112904057Y-84859819D01*
X112904057Y-84859819D02*
X112999295Y-84907438D01*
X112999295Y-84907438D02*
X113046914Y-84955057D01*
X113046914Y-84955057D02*
X113094533Y-85050295D01*
X113094533Y-85050295D02*
X113094533Y-85193152D01*
X113094533Y-85193152D02*
X113046914Y-85288390D01*
X113046914Y-85288390D02*
X112999295Y-85336009D01*
X112999295Y-85336009D02*
X112904057Y-85383628D01*
X112904057Y-85383628D02*
X112523105Y-85383628D01*
X113427867Y-84859819D02*
X114094533Y-84859819D01*
X114094533Y-84859819D02*
X113665962Y-85859819D01*
X27927866Y-75049819D02*
X27927866Y-75764104D01*
X27927866Y-75764104D02*
X27880247Y-75906961D01*
X27880247Y-75906961D02*
X27785009Y-76002200D01*
X27785009Y-76002200D02*
X27642152Y-76049819D01*
X27642152Y-76049819D02*
X27546914Y-76049819D01*
X28451676Y-76049819D02*
X28642152Y-76049819D01*
X28642152Y-76049819D02*
X28737390Y-76002200D01*
X28737390Y-76002200D02*
X28785009Y-75954580D01*
X28785009Y-75954580D02*
X28880247Y-75811723D01*
X28880247Y-75811723D02*
X28927866Y-75621247D01*
X28927866Y-75621247D02*
X28927866Y-75240295D01*
X28927866Y-75240295D02*
X28880247Y-75145057D01*
X28880247Y-75145057D02*
X28832628Y-75097438D01*
X28832628Y-75097438D02*
X28737390Y-75049819D01*
X28737390Y-75049819D02*
X28546914Y-75049819D01*
X28546914Y-75049819D02*
X28451676Y-75097438D01*
X28451676Y-75097438D02*
X28404057Y-75145057D01*
X28404057Y-75145057D02*
X28356438Y-75240295D01*
X28356438Y-75240295D02*
X28356438Y-75478390D01*
X28356438Y-75478390D02*
X28404057Y-75573628D01*
X28404057Y-75573628D02*
X28451676Y-75621247D01*
X28451676Y-75621247D02*
X28546914Y-75668866D01*
X28546914Y-75668866D02*
X28737390Y-75668866D01*
X28737390Y-75668866D02*
X28832628Y-75621247D01*
X28832628Y-75621247D02*
X28880247Y-75573628D01*
X28880247Y-75573628D02*
X28927866Y-75478390D01*
X29118343Y-76145057D02*
X29880247Y-76145057D01*
X29975486Y-75383152D02*
X30356438Y-75383152D01*
X30118343Y-75049819D02*
X30118343Y-75906961D01*
X30118343Y-75906961D02*
X30165962Y-76002200D01*
X30165962Y-76002200D02*
X30261200Y-76049819D01*
X30261200Y-76049819D02*
X30356438Y-76049819D01*
X30832629Y-76049819D02*
X30737391Y-76002200D01*
X30737391Y-76002200D02*
X30689772Y-75954580D01*
X30689772Y-75954580D02*
X30642153Y-75859342D01*
X30642153Y-75859342D02*
X30642153Y-75573628D01*
X30642153Y-75573628D02*
X30689772Y-75478390D01*
X30689772Y-75478390D02*
X30737391Y-75430771D01*
X30737391Y-75430771D02*
X30832629Y-75383152D01*
X30832629Y-75383152D02*
X30975486Y-75383152D01*
X30975486Y-75383152D02*
X31070724Y-75430771D01*
X31070724Y-75430771D02*
X31118343Y-75478390D01*
X31118343Y-75478390D02*
X31165962Y-75573628D01*
X31165962Y-75573628D02*
X31165962Y-75859342D01*
X31165962Y-75859342D02*
X31118343Y-75954580D01*
X31118343Y-75954580D02*
X31070724Y-76002200D01*
X31070724Y-76002200D02*
X30975486Y-76049819D01*
X30975486Y-76049819D02*
X30832629Y-76049819D01*
X31356439Y-76145057D02*
X32118343Y-76145057D01*
X32356439Y-76049819D02*
X32356439Y-75049819D01*
X32356439Y-75049819D02*
X32737391Y-75049819D01*
X32737391Y-75049819D02*
X32832629Y-75097438D01*
X32832629Y-75097438D02*
X32880248Y-75145057D01*
X32880248Y-75145057D02*
X32927867Y-75240295D01*
X32927867Y-75240295D02*
X32927867Y-75383152D01*
X32927867Y-75383152D02*
X32880248Y-75478390D01*
X32880248Y-75478390D02*
X32832629Y-75526009D01*
X32832629Y-75526009D02*
X32737391Y-75573628D01*
X32737391Y-75573628D02*
X32356439Y-75573628D01*
X33308820Y-76002200D02*
X33451677Y-76049819D01*
X33451677Y-76049819D02*
X33689772Y-76049819D01*
X33689772Y-76049819D02*
X33785010Y-76002200D01*
X33785010Y-76002200D02*
X33832629Y-75954580D01*
X33832629Y-75954580D02*
X33880248Y-75859342D01*
X33880248Y-75859342D02*
X33880248Y-75764104D01*
X33880248Y-75764104D02*
X33832629Y-75668866D01*
X33832629Y-75668866D02*
X33785010Y-75621247D01*
X33785010Y-75621247D02*
X33689772Y-75573628D01*
X33689772Y-75573628D02*
X33499296Y-75526009D01*
X33499296Y-75526009D02*
X33404058Y-75478390D01*
X33404058Y-75478390D02*
X33356439Y-75430771D01*
X33356439Y-75430771D02*
X33308820Y-75335533D01*
X33308820Y-75335533D02*
X33308820Y-75240295D01*
X33308820Y-75240295D02*
X33356439Y-75145057D01*
X33356439Y-75145057D02*
X33404058Y-75097438D01*
X33404058Y-75097438D02*
X33499296Y-75049819D01*
X33499296Y-75049819D02*
X33737391Y-75049819D01*
X33737391Y-75049819D02*
X33880248Y-75097438D01*
X34308820Y-75049819D02*
X34308820Y-75859342D01*
X34308820Y-75859342D02*
X34356439Y-75954580D01*
X34356439Y-75954580D02*
X34404058Y-76002200D01*
X34404058Y-76002200D02*
X34499296Y-76049819D01*
X34499296Y-76049819D02*
X34689772Y-76049819D01*
X34689772Y-76049819D02*
X34785010Y-76002200D01*
X34785010Y-76002200D02*
X34832629Y-75954580D01*
X34832629Y-75954580D02*
X34880248Y-75859342D01*
X34880248Y-75859342D02*
X34880248Y-75049819D01*
X30716019Y-69738333D02*
X31430304Y-69738333D01*
X31430304Y-69738333D02*
X31573161Y-69785952D01*
X31573161Y-69785952D02*
X31668400Y-69881190D01*
X31668400Y-69881190D02*
X31716019Y-70024047D01*
X31716019Y-70024047D02*
X31716019Y-70119285D01*
X31716019Y-68738333D02*
X31716019Y-69309761D01*
X31716019Y-69024047D02*
X30716019Y-69024047D01*
X30716019Y-69024047D02*
X30858876Y-69119285D01*
X30858876Y-69119285D02*
X30954114Y-69214523D01*
X30954114Y-69214523D02*
X31001733Y-69309761D01*
X112665961Y-64229819D02*
X112094533Y-64229819D01*
X112380247Y-64229819D02*
X112380247Y-63229819D01*
X112380247Y-63229819D02*
X112285009Y-63372676D01*
X112285009Y-63372676D02*
X112189771Y-63467914D01*
X112189771Y-63467914D02*
X112094533Y-63515533D01*
X113285009Y-63229819D02*
X113380247Y-63229819D01*
X113380247Y-63229819D02*
X113475485Y-63277438D01*
X113475485Y-63277438D02*
X113523104Y-63325057D01*
X113523104Y-63325057D02*
X113570723Y-63420295D01*
X113570723Y-63420295D02*
X113618342Y-63610771D01*
X113618342Y-63610771D02*
X113618342Y-63848866D01*
X113618342Y-63848866D02*
X113570723Y-64039342D01*
X113570723Y-64039342D02*
X113523104Y-64134580D01*
X113523104Y-64134580D02*
X113475485Y-64182200D01*
X113475485Y-64182200D02*
X113380247Y-64229819D01*
X113380247Y-64229819D02*
X113285009Y-64229819D01*
X113285009Y-64229819D02*
X113189771Y-64182200D01*
X113189771Y-64182200D02*
X113142152Y-64134580D01*
X113142152Y-64134580D02*
X113094533Y-64039342D01*
X113094533Y-64039342D02*
X113046914Y-63848866D01*
X113046914Y-63848866D02*
X113046914Y-63610771D01*
X113046914Y-63610771D02*
X113094533Y-63420295D01*
X113094533Y-63420295D02*
X113142152Y-63325057D01*
X113142152Y-63325057D02*
X113189771Y-63277438D01*
X113189771Y-63277438D02*
X113285009Y-63229819D01*
X114046914Y-64229819D02*
X114046914Y-63229819D01*
X114142152Y-63848866D02*
X114427866Y-64229819D01*
X114427866Y-63563152D02*
X114046914Y-63944104D01*
X113094533Y-61859819D02*
X112761200Y-61383628D01*
X112523105Y-61859819D02*
X112523105Y-60859819D01*
X112523105Y-60859819D02*
X112904057Y-60859819D01*
X112904057Y-60859819D02*
X112999295Y-60907438D01*
X112999295Y-60907438D02*
X113046914Y-60955057D01*
X113046914Y-60955057D02*
X113094533Y-61050295D01*
X113094533Y-61050295D02*
X113094533Y-61193152D01*
X113094533Y-61193152D02*
X113046914Y-61288390D01*
X113046914Y-61288390D02*
X112999295Y-61336009D01*
X112999295Y-61336009D02*
X112904057Y-61383628D01*
X112904057Y-61383628D02*
X112523105Y-61383628D01*
X113951676Y-61193152D02*
X113951676Y-61859819D01*
X113713581Y-60812200D02*
X113475486Y-61526485D01*
X113475486Y-61526485D02*
X114094533Y-61526485D01*
X51143343Y-92439819D02*
X51143343Y-91439819D01*
X51143343Y-91439819D02*
X51714771Y-92439819D01*
X51714771Y-92439819D02*
X51714771Y-91439819D01*
X52381438Y-91439819D02*
X52571914Y-91439819D01*
X52571914Y-91439819D02*
X52667152Y-91487438D01*
X52667152Y-91487438D02*
X52762390Y-91582676D01*
X52762390Y-91582676D02*
X52810009Y-91773152D01*
X52810009Y-91773152D02*
X52810009Y-92106485D01*
X52810009Y-92106485D02*
X52762390Y-92296961D01*
X52762390Y-92296961D02*
X52667152Y-92392200D01*
X52667152Y-92392200D02*
X52571914Y-92439819D01*
X52571914Y-92439819D02*
X52381438Y-92439819D01*
X52381438Y-92439819D02*
X52286200Y-92392200D01*
X52286200Y-92392200D02*
X52190962Y-92296961D01*
X52190962Y-92296961D02*
X52143343Y-92106485D01*
X52143343Y-92106485D02*
X52143343Y-91773152D01*
X52143343Y-91773152D02*
X52190962Y-91582676D01*
X52190962Y-91582676D02*
X52286200Y-91487438D01*
X52286200Y-91487438D02*
X52381438Y-91439819D01*
X53238581Y-92439819D02*
X53238581Y-91439819D01*
X53238581Y-91439819D02*
X53476676Y-91439819D01*
X53476676Y-91439819D02*
X53619533Y-91487438D01*
X53619533Y-91487438D02*
X53714771Y-91582676D01*
X53714771Y-91582676D02*
X53762390Y-91677914D01*
X53762390Y-91677914D02*
X53810009Y-91868390D01*
X53810009Y-91868390D02*
X53810009Y-92011247D01*
X53810009Y-92011247D02*
X53762390Y-92201723D01*
X53762390Y-92201723D02*
X53714771Y-92296961D01*
X53714771Y-92296961D02*
X53619533Y-92392200D01*
X53619533Y-92392200D02*
X53476676Y-92439819D01*
X53476676Y-92439819D02*
X53238581Y-92439819D01*
X54238581Y-91916009D02*
X54571914Y-91916009D01*
X54714771Y-92439819D02*
X54238581Y-92439819D01*
X54238581Y-92439819D02*
X54238581Y-91439819D01*
X54238581Y-91439819D02*
X54714771Y-91439819D01*
X55143343Y-92439819D02*
X55143343Y-91439819D01*
X55143343Y-91439819D02*
X55476676Y-92154104D01*
X55476676Y-92154104D02*
X55810009Y-91439819D01*
X55810009Y-91439819D02*
X55810009Y-92439819D01*
X56857628Y-92344580D02*
X56810009Y-92392200D01*
X56810009Y-92392200D02*
X56667152Y-92439819D01*
X56667152Y-92439819D02*
X56571914Y-92439819D01*
X56571914Y-92439819D02*
X56429057Y-92392200D01*
X56429057Y-92392200D02*
X56333819Y-92296961D01*
X56333819Y-92296961D02*
X56286200Y-92201723D01*
X56286200Y-92201723D02*
X56238581Y-92011247D01*
X56238581Y-92011247D02*
X56238581Y-91868390D01*
X56238581Y-91868390D02*
X56286200Y-91677914D01*
X56286200Y-91677914D02*
X56333819Y-91582676D01*
X56333819Y-91582676D02*
X56429057Y-91487438D01*
X56429057Y-91487438D02*
X56571914Y-91439819D01*
X56571914Y-91439819D02*
X56667152Y-91439819D01*
X56667152Y-91439819D02*
X56810009Y-91487438D01*
X56810009Y-91487438D02*
X56857628Y-91535057D01*
X57286200Y-91439819D02*
X57286200Y-92249342D01*
X57286200Y-92249342D02*
X57333819Y-92344580D01*
X57333819Y-92344580D02*
X57381438Y-92392200D01*
X57381438Y-92392200D02*
X57476676Y-92439819D01*
X57476676Y-92439819D02*
X57667152Y-92439819D01*
X57667152Y-92439819D02*
X57762390Y-92392200D01*
X57762390Y-92392200D02*
X57810009Y-92344580D01*
X57810009Y-92344580D02*
X57857628Y-92249342D01*
X57857628Y-92249342D02*
X57857628Y-91439819D01*
X58095724Y-92535057D02*
X58857628Y-92535057D01*
X59571914Y-92439819D02*
X59095724Y-92439819D01*
X59095724Y-92439819D02*
X59095724Y-91439819D01*
X54741019Y-71768333D02*
X55455304Y-71768333D01*
X55455304Y-71768333D02*
X55598161Y-71815952D01*
X55598161Y-71815952D02*
X55693400Y-71911190D01*
X55693400Y-71911190D02*
X55741019Y-72054047D01*
X55741019Y-72054047D02*
X55741019Y-72149285D01*
X54741019Y-71387380D02*
X54741019Y-70768333D01*
X54741019Y-70768333D02*
X55121971Y-71101666D01*
X55121971Y-71101666D02*
X55121971Y-70958809D01*
X55121971Y-70958809D02*
X55169590Y-70863571D01*
X55169590Y-70863571D02*
X55217209Y-70815952D01*
X55217209Y-70815952D02*
X55312447Y-70768333D01*
X55312447Y-70768333D02*
X55550542Y-70768333D01*
X55550542Y-70768333D02*
X55645780Y-70815952D01*
X55645780Y-70815952D02*
X55693400Y-70863571D01*
X55693400Y-70863571D02*
X55741019Y-70958809D01*
X55741019Y-70958809D02*
X55741019Y-71244523D01*
X55741019Y-71244523D02*
X55693400Y-71339761D01*
X55693400Y-71339761D02*
X55645780Y-71387380D01*
X79448105Y-92439819D02*
X79448105Y-91439819D01*
X79448105Y-91439819D02*
X80019533Y-92439819D01*
X80019533Y-92439819D02*
X80019533Y-91439819D01*
X80686200Y-91439819D02*
X80876676Y-91439819D01*
X80876676Y-91439819D02*
X80971914Y-91487438D01*
X80971914Y-91487438D02*
X81067152Y-91582676D01*
X81067152Y-91582676D02*
X81114771Y-91773152D01*
X81114771Y-91773152D02*
X81114771Y-92106485D01*
X81114771Y-92106485D02*
X81067152Y-92296961D01*
X81067152Y-92296961D02*
X80971914Y-92392200D01*
X80971914Y-92392200D02*
X80876676Y-92439819D01*
X80876676Y-92439819D02*
X80686200Y-92439819D01*
X80686200Y-92439819D02*
X80590962Y-92392200D01*
X80590962Y-92392200D02*
X80495724Y-92296961D01*
X80495724Y-92296961D02*
X80448105Y-92106485D01*
X80448105Y-92106485D02*
X80448105Y-91773152D01*
X80448105Y-91773152D02*
X80495724Y-91582676D01*
X80495724Y-91582676D02*
X80590962Y-91487438D01*
X80590962Y-91487438D02*
X80686200Y-91439819D01*
X81543343Y-92439819D02*
X81543343Y-91439819D01*
X81543343Y-91439819D02*
X81781438Y-91439819D01*
X81781438Y-91439819D02*
X81924295Y-91487438D01*
X81924295Y-91487438D02*
X82019533Y-91582676D01*
X82019533Y-91582676D02*
X82067152Y-91677914D01*
X82067152Y-91677914D02*
X82114771Y-91868390D01*
X82114771Y-91868390D02*
X82114771Y-92011247D01*
X82114771Y-92011247D02*
X82067152Y-92201723D01*
X82067152Y-92201723D02*
X82019533Y-92296961D01*
X82019533Y-92296961D02*
X81924295Y-92392200D01*
X81924295Y-92392200D02*
X81781438Y-92439819D01*
X81781438Y-92439819D02*
X81543343Y-92439819D01*
X82543343Y-91916009D02*
X82876676Y-91916009D01*
X83019533Y-92439819D02*
X82543343Y-92439819D01*
X82543343Y-92439819D02*
X82543343Y-91439819D01*
X82543343Y-91439819D02*
X83019533Y-91439819D01*
X83448105Y-92439819D02*
X83448105Y-91439819D01*
X83448105Y-91439819D02*
X83781438Y-92154104D01*
X83781438Y-92154104D02*
X84114771Y-91439819D01*
X84114771Y-91439819D02*
X84114771Y-92439819D01*
X85162390Y-92344580D02*
X85114771Y-92392200D01*
X85114771Y-92392200D02*
X84971914Y-92439819D01*
X84971914Y-92439819D02*
X84876676Y-92439819D01*
X84876676Y-92439819D02*
X84733819Y-92392200D01*
X84733819Y-92392200D02*
X84638581Y-92296961D01*
X84638581Y-92296961D02*
X84590962Y-92201723D01*
X84590962Y-92201723D02*
X84543343Y-92011247D01*
X84543343Y-92011247D02*
X84543343Y-91868390D01*
X84543343Y-91868390D02*
X84590962Y-91677914D01*
X84590962Y-91677914D02*
X84638581Y-91582676D01*
X84638581Y-91582676D02*
X84733819Y-91487438D01*
X84733819Y-91487438D02*
X84876676Y-91439819D01*
X84876676Y-91439819D02*
X84971914Y-91439819D01*
X84971914Y-91439819D02*
X85114771Y-91487438D01*
X85114771Y-91487438D02*
X85162390Y-91535057D01*
X85590962Y-91439819D02*
X85590962Y-92249342D01*
X85590962Y-92249342D02*
X85638581Y-92344580D01*
X85638581Y-92344580D02*
X85686200Y-92392200D01*
X85686200Y-92392200D02*
X85781438Y-92439819D01*
X85781438Y-92439819D02*
X85971914Y-92439819D01*
X85971914Y-92439819D02*
X86067152Y-92392200D01*
X86067152Y-92392200D02*
X86114771Y-92344580D01*
X86114771Y-92344580D02*
X86162390Y-92249342D01*
X86162390Y-92249342D02*
X86162390Y-91439819D01*
X86400486Y-92535057D02*
X87162390Y-92535057D01*
X87971914Y-92439819D02*
X87638581Y-91963628D01*
X87400486Y-92439819D02*
X87400486Y-91439819D01*
X87400486Y-91439819D02*
X87781438Y-91439819D01*
X87781438Y-91439819D02*
X87876676Y-91487438D01*
X87876676Y-91487438D02*
X87924295Y-91535057D01*
X87924295Y-91535057D02*
X87971914Y-91630295D01*
X87971914Y-91630295D02*
X87971914Y-91773152D01*
X87971914Y-91773152D02*
X87924295Y-91868390D01*
X87924295Y-91868390D02*
X87876676Y-91916009D01*
X87876676Y-91916009D02*
X87781438Y-91963628D01*
X87781438Y-91963628D02*
X87400486Y-91963628D01*
X83141019Y-71768333D02*
X83855304Y-71768333D01*
X83855304Y-71768333D02*
X83998161Y-71815952D01*
X83998161Y-71815952D02*
X84093400Y-71911190D01*
X84093400Y-71911190D02*
X84141019Y-72054047D01*
X84141019Y-72054047D02*
X84141019Y-72149285D01*
X83474352Y-70863571D02*
X84141019Y-70863571D01*
X83093400Y-71101666D02*
X83807685Y-71339761D01*
X83807685Y-71339761D02*
X83807685Y-70720714D01*
X98213581Y-52779819D02*
X98213581Y-51779819D01*
X98213581Y-51779819D02*
X98594533Y-51779819D01*
X98594533Y-51779819D02*
X98689771Y-51827438D01*
X98689771Y-51827438D02*
X98737390Y-51875057D01*
X98737390Y-51875057D02*
X98785009Y-51970295D01*
X98785009Y-51970295D02*
X98785009Y-52113152D01*
X98785009Y-52113152D02*
X98737390Y-52208390D01*
X98737390Y-52208390D02*
X98689771Y-52256009D01*
X98689771Y-52256009D02*
X98594533Y-52303628D01*
X98594533Y-52303628D02*
X98213581Y-52303628D01*
X99118343Y-51779819D02*
X99356438Y-52779819D01*
X99356438Y-52779819D02*
X99546914Y-52065533D01*
X99546914Y-52065533D02*
X99737390Y-52779819D01*
X99737390Y-52779819D02*
X99975486Y-51779819D01*
X100927866Y-52779819D02*
X100594533Y-52303628D01*
X100356438Y-52779819D02*
X100356438Y-51779819D01*
X100356438Y-51779819D02*
X100737390Y-51779819D01*
X100737390Y-51779819D02*
X100832628Y-51827438D01*
X100832628Y-51827438D02*
X100880247Y-51875057D01*
X100880247Y-51875057D02*
X100927866Y-51970295D01*
X100927866Y-51970295D02*
X100927866Y-52113152D01*
X100927866Y-52113152D02*
X100880247Y-52208390D01*
X100880247Y-52208390D02*
X100832628Y-52256009D01*
X100832628Y-52256009D02*
X100737390Y-52303628D01*
X100737390Y-52303628D02*
X100356438Y-52303628D01*
X101118343Y-52875057D02*
X101880247Y-52875057D01*
X102070724Y-52732200D02*
X102213581Y-52779819D01*
X102213581Y-52779819D02*
X102451676Y-52779819D01*
X102451676Y-52779819D02*
X102546914Y-52732200D01*
X102546914Y-52732200D02*
X102594533Y-52684580D01*
X102594533Y-52684580D02*
X102642152Y-52589342D01*
X102642152Y-52589342D02*
X102642152Y-52494104D01*
X102642152Y-52494104D02*
X102594533Y-52398866D01*
X102594533Y-52398866D02*
X102546914Y-52351247D01*
X102546914Y-52351247D02*
X102451676Y-52303628D01*
X102451676Y-52303628D02*
X102261200Y-52256009D01*
X102261200Y-52256009D02*
X102165962Y-52208390D01*
X102165962Y-52208390D02*
X102118343Y-52160771D01*
X102118343Y-52160771D02*
X102070724Y-52065533D01*
X102070724Y-52065533D02*
X102070724Y-51970295D01*
X102070724Y-51970295D02*
X102118343Y-51875057D01*
X102118343Y-51875057D02*
X102165962Y-51827438D01*
X102165962Y-51827438D02*
X102261200Y-51779819D01*
X102261200Y-51779819D02*
X102499295Y-51779819D01*
X102499295Y-51779819D02*
X102642152Y-51827438D01*
X103070724Y-52256009D02*
X103404057Y-52256009D01*
X103546914Y-52779819D02*
X103070724Y-52779819D01*
X103070724Y-52779819D02*
X103070724Y-51779819D01*
X103070724Y-51779819D02*
X103546914Y-51779819D01*
X104451676Y-52779819D02*
X103975486Y-52779819D01*
X103975486Y-52779819D02*
X103975486Y-51779819D01*
X101716019Y-48143094D02*
X100716019Y-48143094D01*
X100716019Y-48143094D02*
X100716019Y-47762142D01*
X100716019Y-47762142D02*
X100763638Y-47666904D01*
X100763638Y-47666904D02*
X100811257Y-47619285D01*
X100811257Y-47619285D02*
X100906495Y-47571666D01*
X100906495Y-47571666D02*
X101049352Y-47571666D01*
X101049352Y-47571666D02*
X101144590Y-47619285D01*
X101144590Y-47619285D02*
X101192209Y-47666904D01*
X101192209Y-47666904D02*
X101239828Y-47762142D01*
X101239828Y-47762142D02*
X101239828Y-48143094D01*
X101716019Y-46619285D02*
X101716019Y-47190713D01*
X101716019Y-46904999D02*
X100716019Y-46904999D01*
X100716019Y-46904999D02*
X100858876Y-47000237D01*
X100858876Y-47000237D02*
X100954114Y-47095475D01*
X100954114Y-47095475D02*
X101001733Y-47190713D01*
X99427866Y-84486009D02*
X99570723Y-84533628D01*
X99570723Y-84533628D02*
X99618342Y-84581247D01*
X99618342Y-84581247D02*
X99665961Y-84676485D01*
X99665961Y-84676485D02*
X99665961Y-84819342D01*
X99665961Y-84819342D02*
X99618342Y-84914580D01*
X99618342Y-84914580D02*
X99570723Y-84962200D01*
X99570723Y-84962200D02*
X99475485Y-85009819D01*
X99475485Y-85009819D02*
X99094533Y-85009819D01*
X99094533Y-85009819D02*
X99094533Y-84009819D01*
X99094533Y-84009819D02*
X99427866Y-84009819D01*
X99427866Y-84009819D02*
X99523104Y-84057438D01*
X99523104Y-84057438D02*
X99570723Y-84105057D01*
X99570723Y-84105057D02*
X99618342Y-84200295D01*
X99618342Y-84200295D02*
X99618342Y-84295533D01*
X99618342Y-84295533D02*
X99570723Y-84390771D01*
X99570723Y-84390771D02*
X99523104Y-84438390D01*
X99523104Y-84438390D02*
X99427866Y-84486009D01*
X99427866Y-84486009D02*
X99094533Y-84486009D01*
X100046914Y-84962200D02*
X100189771Y-85009819D01*
X100189771Y-85009819D02*
X100427866Y-85009819D01*
X100427866Y-85009819D02*
X100523104Y-84962200D01*
X100523104Y-84962200D02*
X100570723Y-84914580D01*
X100570723Y-84914580D02*
X100618342Y-84819342D01*
X100618342Y-84819342D02*
X100618342Y-84724104D01*
X100618342Y-84724104D02*
X100570723Y-84628866D01*
X100570723Y-84628866D02*
X100523104Y-84581247D01*
X100523104Y-84581247D02*
X100427866Y-84533628D01*
X100427866Y-84533628D02*
X100237390Y-84486009D01*
X100237390Y-84486009D02*
X100142152Y-84438390D01*
X100142152Y-84438390D02*
X100094533Y-84390771D01*
X100094533Y-84390771D02*
X100046914Y-84295533D01*
X100046914Y-84295533D02*
X100046914Y-84200295D01*
X100046914Y-84200295D02*
X100094533Y-84105057D01*
X100094533Y-84105057D02*
X100142152Y-84057438D01*
X100142152Y-84057438D02*
X100237390Y-84009819D01*
X100237390Y-84009819D02*
X100475485Y-84009819D01*
X100475485Y-84009819D02*
X100618342Y-84057438D01*
X101570723Y-85009819D02*
X100999295Y-85009819D01*
X101285009Y-85009819D02*
X101285009Y-84009819D01*
X101285009Y-84009819D02*
X101189771Y-84152676D01*
X101189771Y-84152676D02*
X101094533Y-84247914D01*
X101094533Y-84247914D02*
X100999295Y-84295533D01*
X101904057Y-84009819D02*
X102570723Y-84009819D01*
X102570723Y-84009819D02*
X102142152Y-85009819D01*
X103142152Y-84009819D02*
X103237390Y-84009819D01*
X103237390Y-84009819D02*
X103332628Y-84057438D01*
X103332628Y-84057438D02*
X103380247Y-84105057D01*
X103380247Y-84105057D02*
X103427866Y-84200295D01*
X103427866Y-84200295D02*
X103475485Y-84390771D01*
X103475485Y-84390771D02*
X103475485Y-84628866D01*
X103475485Y-84628866D02*
X103427866Y-84819342D01*
X103427866Y-84819342D02*
X103380247Y-84914580D01*
X103380247Y-84914580D02*
X103332628Y-84962200D01*
X103332628Y-84962200D02*
X103237390Y-85009819D01*
X103237390Y-85009819D02*
X103142152Y-85009819D01*
X103142152Y-85009819D02*
X103046914Y-84962200D01*
X103046914Y-84962200D02*
X102999295Y-84914580D01*
X102999295Y-84914580D02*
X102951676Y-84819342D01*
X102951676Y-84819342D02*
X102904057Y-84628866D01*
X102904057Y-84628866D02*
X102904057Y-84390771D01*
X102904057Y-84390771D02*
X102951676Y-84200295D01*
X102951676Y-84200295D02*
X102999295Y-84105057D01*
X102999295Y-84105057D02*
X103046914Y-84057438D01*
X103046914Y-84057438D02*
X103142152Y-84009819D01*
X101165961Y-82315057D02*
X101070723Y-82267438D01*
X101070723Y-82267438D02*
X100975485Y-82172200D01*
X100975485Y-82172200D02*
X100832628Y-82029342D01*
X100832628Y-82029342D02*
X100737390Y-81981723D01*
X100737390Y-81981723D02*
X100642152Y-81981723D01*
X100689771Y-82219819D02*
X100594533Y-82172200D01*
X100594533Y-82172200D02*
X100499295Y-82076961D01*
X100499295Y-82076961D02*
X100451676Y-81886485D01*
X100451676Y-81886485D02*
X100451676Y-81553152D01*
X100451676Y-81553152D02*
X100499295Y-81362676D01*
X100499295Y-81362676D02*
X100594533Y-81267438D01*
X100594533Y-81267438D02*
X100689771Y-81219819D01*
X100689771Y-81219819D02*
X100880247Y-81219819D01*
X100880247Y-81219819D02*
X100975485Y-81267438D01*
X100975485Y-81267438D02*
X101070723Y-81362676D01*
X101070723Y-81362676D02*
X101118342Y-81553152D01*
X101118342Y-81553152D02*
X101118342Y-81886485D01*
X101118342Y-81886485D02*
X101070723Y-82076961D01*
X101070723Y-82076961D02*
X100975485Y-82172200D01*
X100975485Y-82172200D02*
X100880247Y-82219819D01*
X100880247Y-82219819D02*
X100689771Y-82219819D01*
X101499295Y-81315057D02*
X101546914Y-81267438D01*
X101546914Y-81267438D02*
X101642152Y-81219819D01*
X101642152Y-81219819D02*
X101880247Y-81219819D01*
X101880247Y-81219819D02*
X101975485Y-81267438D01*
X101975485Y-81267438D02*
X102023104Y-81315057D01*
X102023104Y-81315057D02*
X102070723Y-81410295D01*
X102070723Y-81410295D02*
X102070723Y-81505533D01*
X102070723Y-81505533D02*
X102023104Y-81648390D01*
X102023104Y-81648390D02*
X101451676Y-82219819D01*
X101451676Y-82219819D02*
X102070723Y-82219819D01*
X29750642Y-101443152D02*
X29750642Y-102109819D01*
X29512547Y-101062200D02*
X29274452Y-101776485D01*
X29274452Y-101776485D02*
X29893499Y-101776485D01*
X30179214Y-101109819D02*
X30845880Y-101109819D01*
X30845880Y-101109819D02*
X30417309Y-102109819D01*
X31417309Y-101109819D02*
X31512547Y-101109819D01*
X31512547Y-101109819D02*
X31607785Y-101157438D01*
X31607785Y-101157438D02*
X31655404Y-101205057D01*
X31655404Y-101205057D02*
X31703023Y-101300295D01*
X31703023Y-101300295D02*
X31750642Y-101490771D01*
X31750642Y-101490771D02*
X31750642Y-101728866D01*
X31750642Y-101728866D02*
X31703023Y-101919342D01*
X31703023Y-101919342D02*
X31655404Y-102014580D01*
X31655404Y-102014580D02*
X31607785Y-102062200D01*
X31607785Y-102062200D02*
X31512547Y-102109819D01*
X31512547Y-102109819D02*
X31417309Y-102109819D01*
X31417309Y-102109819D02*
X31322071Y-102062200D01*
X31322071Y-102062200D02*
X31274452Y-102014580D01*
X31274452Y-102014580D02*
X31226833Y-101919342D01*
X31226833Y-101919342D02*
X31179214Y-101728866D01*
X31179214Y-101728866D02*
X31179214Y-101490771D01*
X31179214Y-101490771D02*
X31226833Y-101300295D01*
X31226833Y-101300295D02*
X31274452Y-101205057D01*
X31274452Y-101205057D02*
X31322071Y-101157438D01*
X31322071Y-101157438D02*
X31417309Y-101109819D01*
X32607785Y-101443152D02*
X32607785Y-102109819D01*
X32179214Y-101443152D02*
X32179214Y-101966961D01*
X32179214Y-101966961D02*
X32226833Y-102062200D01*
X32226833Y-102062200D02*
X32322071Y-102109819D01*
X32322071Y-102109819D02*
X32464928Y-102109819D01*
X32464928Y-102109819D02*
X32560166Y-102062200D01*
X32560166Y-102062200D02*
X32607785Y-102014580D01*
X33417309Y-101586009D02*
X33083976Y-101586009D01*
X33083976Y-102109819D02*
X33083976Y-101109819D01*
X33083976Y-101109819D02*
X33560166Y-101109819D01*
X31226833Y-95764580D02*
X31179214Y-95812200D01*
X31179214Y-95812200D02*
X31036357Y-95859819D01*
X31036357Y-95859819D02*
X30941119Y-95859819D01*
X30941119Y-95859819D02*
X30798262Y-95812200D01*
X30798262Y-95812200D02*
X30703024Y-95716961D01*
X30703024Y-95716961D02*
X30655405Y-95621723D01*
X30655405Y-95621723D02*
X30607786Y-95431247D01*
X30607786Y-95431247D02*
X30607786Y-95288390D01*
X30607786Y-95288390D02*
X30655405Y-95097914D01*
X30655405Y-95097914D02*
X30703024Y-95002676D01*
X30703024Y-95002676D02*
X30798262Y-94907438D01*
X30798262Y-94907438D02*
X30941119Y-94859819D01*
X30941119Y-94859819D02*
X31036357Y-94859819D01*
X31036357Y-94859819D02*
X31179214Y-94907438D01*
X31179214Y-94907438D02*
X31226833Y-94955057D01*
X32083976Y-95193152D02*
X32083976Y-95859819D01*
X31845881Y-94812200D02*
X31607786Y-95526485D01*
X31607786Y-95526485D02*
X32226833Y-95526485D01*
X99427866Y-68486009D02*
X99570723Y-68533628D01*
X99570723Y-68533628D02*
X99618342Y-68581247D01*
X99618342Y-68581247D02*
X99665961Y-68676485D01*
X99665961Y-68676485D02*
X99665961Y-68819342D01*
X99665961Y-68819342D02*
X99618342Y-68914580D01*
X99618342Y-68914580D02*
X99570723Y-68962200D01*
X99570723Y-68962200D02*
X99475485Y-69009819D01*
X99475485Y-69009819D02*
X99094533Y-69009819D01*
X99094533Y-69009819D02*
X99094533Y-68009819D01*
X99094533Y-68009819D02*
X99427866Y-68009819D01*
X99427866Y-68009819D02*
X99523104Y-68057438D01*
X99523104Y-68057438D02*
X99570723Y-68105057D01*
X99570723Y-68105057D02*
X99618342Y-68200295D01*
X99618342Y-68200295D02*
X99618342Y-68295533D01*
X99618342Y-68295533D02*
X99570723Y-68390771D01*
X99570723Y-68390771D02*
X99523104Y-68438390D01*
X99523104Y-68438390D02*
X99427866Y-68486009D01*
X99427866Y-68486009D02*
X99094533Y-68486009D01*
X100046914Y-68962200D02*
X100189771Y-69009819D01*
X100189771Y-69009819D02*
X100427866Y-69009819D01*
X100427866Y-69009819D02*
X100523104Y-68962200D01*
X100523104Y-68962200D02*
X100570723Y-68914580D01*
X100570723Y-68914580D02*
X100618342Y-68819342D01*
X100618342Y-68819342D02*
X100618342Y-68724104D01*
X100618342Y-68724104D02*
X100570723Y-68628866D01*
X100570723Y-68628866D02*
X100523104Y-68581247D01*
X100523104Y-68581247D02*
X100427866Y-68533628D01*
X100427866Y-68533628D02*
X100237390Y-68486009D01*
X100237390Y-68486009D02*
X100142152Y-68438390D01*
X100142152Y-68438390D02*
X100094533Y-68390771D01*
X100094533Y-68390771D02*
X100046914Y-68295533D01*
X100046914Y-68295533D02*
X100046914Y-68200295D01*
X100046914Y-68200295D02*
X100094533Y-68105057D01*
X100094533Y-68105057D02*
X100142152Y-68057438D01*
X100142152Y-68057438D02*
X100237390Y-68009819D01*
X100237390Y-68009819D02*
X100475485Y-68009819D01*
X100475485Y-68009819D02*
X100618342Y-68057438D01*
X101570723Y-69009819D02*
X100999295Y-69009819D01*
X101285009Y-69009819D02*
X101285009Y-68009819D01*
X101285009Y-68009819D02*
X101189771Y-68152676D01*
X101189771Y-68152676D02*
X101094533Y-68247914D01*
X101094533Y-68247914D02*
X100999295Y-68295533D01*
X101904057Y-68009819D02*
X102570723Y-68009819D01*
X102570723Y-68009819D02*
X102142152Y-69009819D01*
X103142152Y-68009819D02*
X103237390Y-68009819D01*
X103237390Y-68009819D02*
X103332628Y-68057438D01*
X103332628Y-68057438D02*
X103380247Y-68105057D01*
X103380247Y-68105057D02*
X103427866Y-68200295D01*
X103427866Y-68200295D02*
X103475485Y-68390771D01*
X103475485Y-68390771D02*
X103475485Y-68628866D01*
X103475485Y-68628866D02*
X103427866Y-68819342D01*
X103427866Y-68819342D02*
X103380247Y-68914580D01*
X103380247Y-68914580D02*
X103332628Y-68962200D01*
X103332628Y-68962200D02*
X103237390Y-69009819D01*
X103237390Y-69009819D02*
X103142152Y-69009819D01*
X103142152Y-69009819D02*
X103046914Y-68962200D01*
X103046914Y-68962200D02*
X102999295Y-68914580D01*
X102999295Y-68914580D02*
X102951676Y-68819342D01*
X102951676Y-68819342D02*
X102904057Y-68628866D01*
X102904057Y-68628866D02*
X102904057Y-68390771D01*
X102904057Y-68390771D02*
X102951676Y-68200295D01*
X102951676Y-68200295D02*
X102999295Y-68105057D01*
X102999295Y-68105057D02*
X103046914Y-68057438D01*
X103046914Y-68057438D02*
X103142152Y-68009819D01*
X101165961Y-66315057D02*
X101070723Y-66267438D01*
X101070723Y-66267438D02*
X100975485Y-66172200D01*
X100975485Y-66172200D02*
X100832628Y-66029342D01*
X100832628Y-66029342D02*
X100737390Y-65981723D01*
X100737390Y-65981723D02*
X100642152Y-65981723D01*
X100689771Y-66219819D02*
X100594533Y-66172200D01*
X100594533Y-66172200D02*
X100499295Y-66076961D01*
X100499295Y-66076961D02*
X100451676Y-65886485D01*
X100451676Y-65886485D02*
X100451676Y-65553152D01*
X100451676Y-65553152D02*
X100499295Y-65362676D01*
X100499295Y-65362676D02*
X100594533Y-65267438D01*
X100594533Y-65267438D02*
X100689771Y-65219819D01*
X100689771Y-65219819D02*
X100880247Y-65219819D01*
X100880247Y-65219819D02*
X100975485Y-65267438D01*
X100975485Y-65267438D02*
X101070723Y-65362676D01*
X101070723Y-65362676D02*
X101118342Y-65553152D01*
X101118342Y-65553152D02*
X101118342Y-65886485D01*
X101118342Y-65886485D02*
X101070723Y-66076961D01*
X101070723Y-66076961D02*
X100975485Y-66172200D01*
X100975485Y-66172200D02*
X100880247Y-66219819D01*
X100880247Y-66219819D02*
X100689771Y-66219819D01*
X102070723Y-66219819D02*
X101499295Y-66219819D01*
X101785009Y-66219819D02*
X101785009Y-65219819D01*
X101785009Y-65219819D02*
X101689771Y-65362676D01*
X101689771Y-65362676D02*
X101594533Y-65457914D01*
X101594533Y-65457914D02*
X101499295Y-65505533D01*
X112665961Y-72229819D02*
X112094533Y-72229819D01*
X112380247Y-72229819D02*
X112380247Y-71229819D01*
X112380247Y-71229819D02*
X112285009Y-71372676D01*
X112285009Y-71372676D02*
X112189771Y-71467914D01*
X112189771Y-71467914D02*
X112094533Y-71515533D01*
X113285009Y-71229819D02*
X113380247Y-71229819D01*
X113380247Y-71229819D02*
X113475485Y-71277438D01*
X113475485Y-71277438D02*
X113523104Y-71325057D01*
X113523104Y-71325057D02*
X113570723Y-71420295D01*
X113570723Y-71420295D02*
X113618342Y-71610771D01*
X113618342Y-71610771D02*
X113618342Y-71848866D01*
X113618342Y-71848866D02*
X113570723Y-72039342D01*
X113570723Y-72039342D02*
X113523104Y-72134580D01*
X113523104Y-72134580D02*
X113475485Y-72182200D01*
X113475485Y-72182200D02*
X113380247Y-72229819D01*
X113380247Y-72229819D02*
X113285009Y-72229819D01*
X113285009Y-72229819D02*
X113189771Y-72182200D01*
X113189771Y-72182200D02*
X113142152Y-72134580D01*
X113142152Y-72134580D02*
X113094533Y-72039342D01*
X113094533Y-72039342D02*
X113046914Y-71848866D01*
X113046914Y-71848866D02*
X113046914Y-71610771D01*
X113046914Y-71610771D02*
X113094533Y-71420295D01*
X113094533Y-71420295D02*
X113142152Y-71325057D01*
X113142152Y-71325057D02*
X113189771Y-71277438D01*
X113189771Y-71277438D02*
X113285009Y-71229819D01*
X114046914Y-72229819D02*
X114046914Y-71229819D01*
X114142152Y-71848866D02*
X114427866Y-72229819D01*
X114427866Y-71563152D02*
X114046914Y-71944104D01*
X113094533Y-69859819D02*
X112761200Y-69383628D01*
X112523105Y-69859819D02*
X112523105Y-68859819D01*
X112523105Y-68859819D02*
X112904057Y-68859819D01*
X112904057Y-68859819D02*
X112999295Y-68907438D01*
X112999295Y-68907438D02*
X113046914Y-68955057D01*
X113046914Y-68955057D02*
X113094533Y-69050295D01*
X113094533Y-69050295D02*
X113094533Y-69193152D01*
X113094533Y-69193152D02*
X113046914Y-69288390D01*
X113046914Y-69288390D02*
X112999295Y-69336009D01*
X112999295Y-69336009D02*
X112904057Y-69383628D01*
X112904057Y-69383628D02*
X112523105Y-69383628D01*
X113999295Y-68859819D02*
X113523105Y-68859819D01*
X113523105Y-68859819D02*
X113475486Y-69336009D01*
X113475486Y-69336009D02*
X113523105Y-69288390D01*
X113523105Y-69288390D02*
X113618343Y-69240771D01*
X113618343Y-69240771D02*
X113856438Y-69240771D01*
X113856438Y-69240771D02*
X113951676Y-69288390D01*
X113951676Y-69288390D02*
X113999295Y-69336009D01*
X113999295Y-69336009D02*
X114046914Y-69431247D01*
X114046914Y-69431247D02*
X114046914Y-69669342D01*
X114046914Y-69669342D02*
X113999295Y-69764580D01*
X113999295Y-69764580D02*
X113951676Y-69812200D01*
X113951676Y-69812200D02*
X113856438Y-69859819D01*
X113856438Y-69859819D02*
X113618343Y-69859819D01*
X113618343Y-69859819D02*
X113523105Y-69812200D01*
X113523105Y-69812200D02*
X113475486Y-69764580D01*
D11*
%TO.C,R6*%
X109451200Y-77405000D02*
X110111200Y-77405000D01*
X117071200Y-77405000D02*
X116411200Y-77405000D01*
X110111200Y-76155000D02*
X116411200Y-76155000D01*
X116411200Y-78655000D01*
X110111200Y-78655000D01*
X110111200Y-76155000D01*
%TO.C,C2*%
X98761200Y-98155000D02*
X103761200Y-98155000D01*
X103761200Y-100655000D01*
X98761200Y-100655000D01*
X98761200Y-98155000D01*
%TO.C,R7*%
X109451200Y-85405000D02*
X110111200Y-85405000D01*
X117071200Y-85405000D02*
X116411200Y-85405000D01*
X110111200Y-84155000D02*
X116411200Y-84155000D01*
X116411200Y-86655000D01*
X110111200Y-86655000D01*
X110111200Y-84155000D01*
%TO.C,J1*%
X29991200Y-64960000D02*
X30626200Y-64325000D01*
X29991200Y-74485000D02*
X29991200Y-64960000D01*
X30626200Y-64325000D02*
X32531200Y-64325000D01*
X32531200Y-64325000D02*
X32531200Y-74485000D01*
X32531200Y-74485000D02*
X29991200Y-74485000D01*
%TO.C,R4*%
X109451200Y-61405000D02*
X110111200Y-61405000D01*
X117071200Y-61405000D02*
X116411200Y-61405000D01*
X110111200Y-60155000D02*
X116411200Y-60155000D01*
X116411200Y-62655000D01*
X110111200Y-62655000D01*
X110111200Y-60155000D01*
%TO.C,J3*%
X54016200Y-52385000D02*
X55921200Y-52385000D01*
X54016200Y-90485000D02*
X54016200Y-52385000D01*
X55921200Y-52385000D02*
X56556200Y-53020000D01*
X56556200Y-53020000D02*
X56556200Y-90485000D01*
X56556200Y-90485000D02*
X54016200Y-90485000D01*
%TO.C,J4*%
X82416200Y-52385000D02*
X84321200Y-52385000D01*
X82416200Y-90485000D02*
X82416200Y-52385000D01*
X84321200Y-52385000D02*
X84956200Y-53020000D01*
X84956200Y-53020000D02*
X84956200Y-90485000D01*
X84956200Y-90485000D02*
X82416200Y-90485000D01*
%TO.C,P1*%
X99991200Y-44230000D02*
X100626200Y-43595000D01*
X99991200Y-51215000D02*
X99991200Y-44230000D01*
X100626200Y-43595000D02*
X102531200Y-43595000D01*
X102531200Y-43595000D02*
X102531200Y-51215000D01*
X102531200Y-51215000D02*
X99991200Y-51215000D01*
%TO.C,Q2*%
X99521200Y-83515000D02*
X103021200Y-83515000D01*
X99507575Y-83518625D02*
G75*
G02*
X101261200Y-79285000I1753625J1753625D01*
G01*
X101261200Y-79285000D02*
G75*
G02*
X103014825Y-83518625I0J-2480000D01*
G01*
%TO.C,C4*%
X27104639Y-93217500D02*
X28104639Y-93217500D01*
X27604639Y-92717500D02*
X27604639Y-93717500D01*
X36393500Y-95405000D02*
G75*
G02*
X26393500Y-95405000I-5000000J0D01*
G01*
X26393500Y-95405000D02*
G75*
G02*
X36393500Y-95405000I5000000J0D01*
G01*
%TO.C,Q1*%
X99521200Y-67515000D02*
X103021200Y-67515000D01*
X99507575Y-67518625D02*
G75*
G02*
X101261200Y-63285000I1753625J1753625D01*
G01*
X101261200Y-63285000D02*
G75*
G02*
X103014825Y-67518625I0J-2480000D01*
G01*
%TO.C,R5*%
X109451200Y-69405000D02*
X110111200Y-69405000D01*
X117071200Y-69405000D02*
X116411200Y-69405000D01*
X110111200Y-68155000D02*
X116411200Y-68155000D01*
X116411200Y-70655000D01*
X110111200Y-70655000D01*
X110111200Y-68155000D01*
%TD*%
M02*
