M48
; DRILL file {KiCad 9.0.6} date 2026-06-15T10:43:42+0200
; FORMAT={-:-/ absolute / metric / decimal}
; #@! TF.CreationDate,2026-06-15T10:43:42+02:00
; #@! TF.GenerationSoftware,Kicad,Pcbnew,9.0.6
; #@! TF.FileFunction,MixedPlating,1,2
FMAT,2
METRIC
; #@! TA.AperFunction,Plated,PTH,ComponentDrill
T1C0.800
; #@! TA.AperFunction,Plated,PTH,ComponentDrill
T2C1.000
%
G90
G05
T1
X98.721Y-65.765
X98.721Y-81.765
X98.761Y-99.405
X101.261Y-65.765
X101.261Y-81.765
X103.761Y-99.405
X103.801Y-65.765
X103.801Y-81.765
X109.451Y-61.405
X109.451Y-69.405
X109.451Y-77.405
X109.451Y-85.405
X117.071Y-61.405
X117.071Y-69.405
X117.071Y-77.405
X117.071Y-85.405
T2
X28.893Y-95.405
X31.261Y-65.595
X31.261Y-68.135
X31.261Y-70.675
X31.261Y-73.215
X33.893Y-95.405
X55.286Y-53.655
X55.286Y-56.195
X55.286Y-58.735
X55.286Y-61.275
X55.286Y-63.815
X55.286Y-66.355
X55.286Y-68.895
X55.286Y-71.435
X55.286Y-73.975
X55.286Y-76.515
X55.286Y-79.055
X55.286Y-81.595
X55.286Y-84.135
X55.286Y-86.675
X55.286Y-89.215
X83.686Y-53.655
X83.686Y-56.195
X83.686Y-58.735
X83.686Y-61.275
X83.686Y-63.815
X83.686Y-66.355
X83.686Y-68.895
X83.686Y-71.435
X83.686Y-73.975
X83.686Y-76.515
X83.686Y-79.055
X83.686Y-81.595
X83.686Y-84.135
X83.686Y-86.675
X83.686Y-89.215
X101.261Y-44.865
X101.261Y-47.405
X101.261Y-49.945
M30
