%TF.GenerationSoftware,KiCad,Pcbnew,10.0.6*%
%TF.CreationDate,2026-09-24T16:56:17+02:00*%
%TF.ProjectId,illuminate7mk2-crossover,696c6c75-6d69-46e6-9174-65376d6b322d,rev?*%
%TF.SameCoordinates,Original*%
%TF.FileFunction,Legend,Top*%
%TF.FilePolarity,Positive*%
%FSLAX46Y46*%
G04 Gerber Fmt 4.6, Leading zero omitted, Abs format (unit mm)*
G04 Created by KiCad (PCBNEW 10.0.6) date 2026-09-24 16:56:17*
%MOMM*%
%LPD*%
G01*
G04 APERTURE LIST*
%ADD10C,0.150000*%
%ADD11C,0.120000*%
G04 APERTURE END LIST*
D10*
X174490952Y-43939579D02*
X174443333Y-43987199D01*
X174443333Y-43987199D02*
X174300476Y-44034818D01*
X174300476Y-44034818D02*
X174205238Y-44034818D01*
X174205238Y-44034818D02*
X174062381Y-43987199D01*
X174062381Y-43987199D02*
X173967143Y-43891960D01*
X173967143Y-43891960D02*
X173919524Y-43796722D01*
X173919524Y-43796722D02*
X173871905Y-43606246D01*
X173871905Y-43606246D02*
X173871905Y-43463389D01*
X173871905Y-43463389D02*
X173919524Y-43272913D01*
X173919524Y-43272913D02*
X173967143Y-43177675D01*
X173967143Y-43177675D02*
X174062381Y-43082437D01*
X174062381Y-43082437D02*
X174205238Y-43034818D01*
X174205238Y-43034818D02*
X174300476Y-43034818D01*
X174300476Y-43034818D02*
X174443333Y-43082437D01*
X174443333Y-43082437D02*
X174490952Y-43130056D01*
X175443333Y-44034818D02*
X174871905Y-44034818D01*
X175157619Y-44034818D02*
X175157619Y-43034818D01*
X175157619Y-43034818D02*
X175062381Y-43177675D01*
X175062381Y-43177675D02*
X174967143Y-43272913D01*
X174967143Y-43272913D02*
X174871905Y-43320532D01*
X176062381Y-43034818D02*
X176157619Y-43034818D01*
X176157619Y-43034818D02*
X176252857Y-43082437D01*
X176252857Y-43082437D02*
X176300476Y-43130056D01*
X176300476Y-43130056D02*
X176348095Y-43225294D01*
X176348095Y-43225294D02*
X176395714Y-43415770D01*
X176395714Y-43415770D02*
X176395714Y-43653865D01*
X176395714Y-43653865D02*
X176348095Y-43844341D01*
X176348095Y-43844341D02*
X176300476Y-43939579D01*
X176300476Y-43939579D02*
X176252857Y-43987199D01*
X176252857Y-43987199D02*
X176157619Y-44034818D01*
X176157619Y-44034818D02*
X176062381Y-44034818D01*
X176062381Y-44034818D02*
X175967143Y-43987199D01*
X175967143Y-43987199D02*
X175919524Y-43939579D01*
X175919524Y-43939579D02*
X175871905Y-43844341D01*
X175871905Y-43844341D02*
X175824286Y-43653865D01*
X175824286Y-43653865D02*
X175824286Y-43415770D01*
X175824286Y-43415770D02*
X175871905Y-43225294D01*
X175871905Y-43225294D02*
X175919524Y-43130056D01*
X175919524Y-43130056D02*
X175967143Y-43082437D01*
X175967143Y-43082437D02*
X176062381Y-43034818D01*
X177252857Y-43368151D02*
X177252857Y-44034818D01*
X177014762Y-42987199D02*
X176776667Y-43701484D01*
X176776667Y-43701484D02*
X177395714Y-43701484D01*
X195754819Y-92369047D02*
X195754819Y-92845237D01*
X195754819Y-92845237D02*
X194754819Y-92845237D01*
X194850057Y-92083332D02*
X194802438Y-92035713D01*
X194802438Y-92035713D02*
X194754819Y-91940475D01*
X194754819Y-91940475D02*
X194754819Y-91702380D01*
X194754819Y-91702380D02*
X194802438Y-91607142D01*
X194802438Y-91607142D02*
X194850057Y-91559523D01*
X194850057Y-91559523D02*
X194945295Y-91511904D01*
X194945295Y-91511904D02*
X195040533Y-91511904D01*
X195040533Y-91511904D02*
X195183390Y-91559523D01*
X195183390Y-91559523D02*
X195754819Y-92130951D01*
X195754819Y-92130951D02*
X195754819Y-91511904D01*
X194754819Y-90892856D02*
X194754819Y-90797618D01*
X194754819Y-90797618D02*
X194802438Y-90702380D01*
X194802438Y-90702380D02*
X194850057Y-90654761D01*
X194850057Y-90654761D02*
X194945295Y-90607142D01*
X194945295Y-90607142D02*
X195135771Y-90559523D01*
X195135771Y-90559523D02*
X195373866Y-90559523D01*
X195373866Y-90559523D02*
X195564342Y-90607142D01*
X195564342Y-90607142D02*
X195659580Y-90654761D01*
X195659580Y-90654761D02*
X195707200Y-90702380D01*
X195707200Y-90702380D02*
X195754819Y-90797618D01*
X195754819Y-90797618D02*
X195754819Y-90892856D01*
X195754819Y-90892856D02*
X195707200Y-90988094D01*
X195707200Y-90988094D02*
X195659580Y-91035713D01*
X195659580Y-91035713D02*
X195564342Y-91083332D01*
X195564342Y-91083332D02*
X195373866Y-91130951D01*
X195373866Y-91130951D02*
X195135771Y-91130951D01*
X195135771Y-91130951D02*
X194945295Y-91083332D01*
X194945295Y-91083332D02*
X194850057Y-91035713D01*
X194850057Y-91035713D02*
X194802438Y-90988094D01*
X194802438Y-90988094D02*
X194754819Y-90892856D01*
X195754819Y-89607142D02*
X195754819Y-90178570D01*
X195754819Y-89892856D02*
X194754819Y-89892856D01*
X194754819Y-89892856D02*
X194897676Y-89988094D01*
X194897676Y-89988094D02*
X194992914Y-90083332D01*
X194992914Y-90083332D02*
X195040533Y-90178570D01*
X132429580Y-92369047D02*
X132477200Y-92416666D01*
X132477200Y-92416666D02*
X132524819Y-92559523D01*
X132524819Y-92559523D02*
X132524819Y-92654761D01*
X132524819Y-92654761D02*
X132477200Y-92797618D01*
X132477200Y-92797618D02*
X132381961Y-92892856D01*
X132381961Y-92892856D02*
X132286723Y-92940475D01*
X132286723Y-92940475D02*
X132096247Y-92988094D01*
X132096247Y-92988094D02*
X131953390Y-92988094D01*
X131953390Y-92988094D02*
X131762914Y-92940475D01*
X131762914Y-92940475D02*
X131667676Y-92892856D01*
X131667676Y-92892856D02*
X131572438Y-92797618D01*
X131572438Y-92797618D02*
X131524819Y-92654761D01*
X131524819Y-92654761D02*
X131524819Y-92559523D01*
X131524819Y-92559523D02*
X131572438Y-92416666D01*
X131572438Y-92416666D02*
X131620057Y-92369047D01*
X131620057Y-91988094D02*
X131572438Y-91940475D01*
X131572438Y-91940475D02*
X131524819Y-91845237D01*
X131524819Y-91845237D02*
X131524819Y-91607142D01*
X131524819Y-91607142D02*
X131572438Y-91511904D01*
X131572438Y-91511904D02*
X131620057Y-91464285D01*
X131620057Y-91464285D02*
X131715295Y-91416666D01*
X131715295Y-91416666D02*
X131810533Y-91416666D01*
X131810533Y-91416666D02*
X131953390Y-91464285D01*
X131953390Y-91464285D02*
X132524819Y-92035713D01*
X132524819Y-92035713D02*
X132524819Y-91416666D01*
X131524819Y-90797618D02*
X131524819Y-90702380D01*
X131524819Y-90702380D02*
X131572438Y-90607142D01*
X131572438Y-90607142D02*
X131620057Y-90559523D01*
X131620057Y-90559523D02*
X131715295Y-90511904D01*
X131715295Y-90511904D02*
X131905771Y-90464285D01*
X131905771Y-90464285D02*
X132143866Y-90464285D01*
X132143866Y-90464285D02*
X132334342Y-90511904D01*
X132334342Y-90511904D02*
X132429580Y-90559523D01*
X132429580Y-90559523D02*
X132477200Y-90607142D01*
X132477200Y-90607142D02*
X132524819Y-90702380D01*
X132524819Y-90702380D02*
X132524819Y-90797618D01*
X132524819Y-90797618D02*
X132477200Y-90892856D01*
X132477200Y-90892856D02*
X132429580Y-90940475D01*
X132429580Y-90940475D02*
X132334342Y-90988094D01*
X132334342Y-90988094D02*
X132143866Y-91035713D01*
X132143866Y-91035713D02*
X131905771Y-91035713D01*
X131905771Y-91035713D02*
X131715295Y-90988094D01*
X131715295Y-90988094D02*
X131620057Y-90940475D01*
X131620057Y-90940475D02*
X131572438Y-90892856D01*
X131572438Y-90892856D02*
X131524819Y-90797618D01*
X131524819Y-90130951D02*
X131524819Y-89511904D01*
X131524819Y-89511904D02*
X131905771Y-89845237D01*
X131905771Y-89845237D02*
X131905771Y-89702380D01*
X131905771Y-89702380D02*
X131953390Y-89607142D01*
X131953390Y-89607142D02*
X132001009Y-89559523D01*
X132001009Y-89559523D02*
X132096247Y-89511904D01*
X132096247Y-89511904D02*
X132334342Y-89511904D01*
X132334342Y-89511904D02*
X132429580Y-89559523D01*
X132429580Y-89559523D02*
X132477200Y-89607142D01*
X132477200Y-89607142D02*
X132524819Y-89702380D01*
X132524819Y-89702380D02*
X132524819Y-89988094D01*
X132524819Y-89988094D02*
X132477200Y-90083332D01*
X132477200Y-90083332D02*
X132429580Y-90130951D01*
X105754819Y-128619047D02*
X105754819Y-129095237D01*
X105754819Y-129095237D02*
X104754819Y-129095237D01*
X104850057Y-128333332D02*
X104802438Y-128285713D01*
X104802438Y-128285713D02*
X104754819Y-128190475D01*
X104754819Y-128190475D02*
X104754819Y-127952380D01*
X104754819Y-127952380D02*
X104802438Y-127857142D01*
X104802438Y-127857142D02*
X104850057Y-127809523D01*
X104850057Y-127809523D02*
X104945295Y-127761904D01*
X104945295Y-127761904D02*
X105040533Y-127761904D01*
X105040533Y-127761904D02*
X105183390Y-127809523D01*
X105183390Y-127809523D02*
X105754819Y-128380951D01*
X105754819Y-128380951D02*
X105754819Y-127761904D01*
X104754819Y-127142856D02*
X104754819Y-127047618D01*
X104754819Y-127047618D02*
X104802438Y-126952380D01*
X104802438Y-126952380D02*
X104850057Y-126904761D01*
X104850057Y-126904761D02*
X104945295Y-126857142D01*
X104945295Y-126857142D02*
X105135771Y-126809523D01*
X105135771Y-126809523D02*
X105373866Y-126809523D01*
X105373866Y-126809523D02*
X105564342Y-126857142D01*
X105564342Y-126857142D02*
X105659580Y-126904761D01*
X105659580Y-126904761D02*
X105707200Y-126952380D01*
X105707200Y-126952380D02*
X105754819Y-127047618D01*
X105754819Y-127047618D02*
X105754819Y-127142856D01*
X105754819Y-127142856D02*
X105707200Y-127238094D01*
X105707200Y-127238094D02*
X105659580Y-127285713D01*
X105659580Y-127285713D02*
X105564342Y-127333332D01*
X105564342Y-127333332D02*
X105373866Y-127380951D01*
X105373866Y-127380951D02*
X105135771Y-127380951D01*
X105135771Y-127380951D02*
X104945295Y-127333332D01*
X104945295Y-127333332D02*
X104850057Y-127285713D01*
X104850057Y-127285713D02*
X104802438Y-127238094D01*
X104802438Y-127238094D02*
X104754819Y-127142856D01*
X104850057Y-126428570D02*
X104802438Y-126380951D01*
X104802438Y-126380951D02*
X104754819Y-126285713D01*
X104754819Y-126285713D02*
X104754819Y-126047618D01*
X104754819Y-126047618D02*
X104802438Y-125952380D01*
X104802438Y-125952380D02*
X104850057Y-125904761D01*
X104850057Y-125904761D02*
X104945295Y-125857142D01*
X104945295Y-125857142D02*
X105040533Y-125857142D01*
X105040533Y-125857142D02*
X105183390Y-125904761D01*
X105183390Y-125904761D02*
X105754819Y-126476189D01*
X105754819Y-126476189D02*
X105754819Y-125857142D01*
X87800952Y-50709818D02*
X87467619Y-50233627D01*
X87229524Y-50709818D02*
X87229524Y-49709818D01*
X87229524Y-49709818D02*
X87610476Y-49709818D01*
X87610476Y-49709818D02*
X87705714Y-49757437D01*
X87705714Y-49757437D02*
X87753333Y-49805056D01*
X87753333Y-49805056D02*
X87800952Y-49900294D01*
X87800952Y-49900294D02*
X87800952Y-50043151D01*
X87800952Y-50043151D02*
X87753333Y-50138389D01*
X87753333Y-50138389D02*
X87705714Y-50186008D01*
X87705714Y-50186008D02*
X87610476Y-50233627D01*
X87610476Y-50233627D02*
X87229524Y-50233627D01*
X88753333Y-50709818D02*
X88181905Y-50709818D01*
X88467619Y-50709818D02*
X88467619Y-49709818D01*
X88467619Y-49709818D02*
X88372381Y-49852675D01*
X88372381Y-49852675D02*
X88277143Y-49947913D01*
X88277143Y-49947913D02*
X88181905Y-49995532D01*
X89372381Y-49709818D02*
X89467619Y-49709818D01*
X89467619Y-49709818D02*
X89562857Y-49757437D01*
X89562857Y-49757437D02*
X89610476Y-49805056D01*
X89610476Y-49805056D02*
X89658095Y-49900294D01*
X89658095Y-49900294D02*
X89705714Y-50090770D01*
X89705714Y-50090770D02*
X89705714Y-50328865D01*
X89705714Y-50328865D02*
X89658095Y-50519341D01*
X89658095Y-50519341D02*
X89610476Y-50614579D01*
X89610476Y-50614579D02*
X89562857Y-50662199D01*
X89562857Y-50662199D02*
X89467619Y-50709818D01*
X89467619Y-50709818D02*
X89372381Y-50709818D01*
X89372381Y-50709818D02*
X89277143Y-50662199D01*
X89277143Y-50662199D02*
X89229524Y-50614579D01*
X89229524Y-50614579D02*
X89181905Y-50519341D01*
X89181905Y-50519341D02*
X89134286Y-50328865D01*
X89134286Y-50328865D02*
X89134286Y-50090770D01*
X89134286Y-50090770D02*
X89181905Y-49900294D01*
X89181905Y-49900294D02*
X89229524Y-49805056D01*
X89229524Y-49805056D02*
X89277143Y-49757437D01*
X89277143Y-49757437D02*
X89372381Y-49709818D01*
X90658095Y-50709818D02*
X90086667Y-50709818D01*
X90372381Y-50709818D02*
X90372381Y-49709818D01*
X90372381Y-49709818D02*
X90277143Y-49852675D01*
X90277143Y-49852675D02*
X90181905Y-49947913D01*
X90181905Y-49947913D02*
X90086667Y-49995532D01*
X87634819Y-93119047D02*
X87158628Y-93452380D01*
X87634819Y-93690475D02*
X86634819Y-93690475D01*
X86634819Y-93690475D02*
X86634819Y-93309523D01*
X86634819Y-93309523D02*
X86682438Y-93214285D01*
X86682438Y-93214285D02*
X86730057Y-93166666D01*
X86730057Y-93166666D02*
X86825295Y-93119047D01*
X86825295Y-93119047D02*
X86968152Y-93119047D01*
X86968152Y-93119047D02*
X87063390Y-93166666D01*
X87063390Y-93166666D02*
X87111009Y-93214285D01*
X87111009Y-93214285D02*
X87158628Y-93309523D01*
X87158628Y-93309523D02*
X87158628Y-93690475D01*
X86730057Y-92738094D02*
X86682438Y-92690475D01*
X86682438Y-92690475D02*
X86634819Y-92595237D01*
X86634819Y-92595237D02*
X86634819Y-92357142D01*
X86634819Y-92357142D02*
X86682438Y-92261904D01*
X86682438Y-92261904D02*
X86730057Y-92214285D01*
X86730057Y-92214285D02*
X86825295Y-92166666D01*
X86825295Y-92166666D02*
X86920533Y-92166666D01*
X86920533Y-92166666D02*
X87063390Y-92214285D01*
X87063390Y-92214285D02*
X87634819Y-92785713D01*
X87634819Y-92785713D02*
X87634819Y-92166666D01*
X86634819Y-91547618D02*
X86634819Y-91452380D01*
X86634819Y-91452380D02*
X86682438Y-91357142D01*
X86682438Y-91357142D02*
X86730057Y-91309523D01*
X86730057Y-91309523D02*
X86825295Y-91261904D01*
X86825295Y-91261904D02*
X87015771Y-91214285D01*
X87015771Y-91214285D02*
X87253866Y-91214285D01*
X87253866Y-91214285D02*
X87444342Y-91261904D01*
X87444342Y-91261904D02*
X87539580Y-91309523D01*
X87539580Y-91309523D02*
X87587200Y-91357142D01*
X87587200Y-91357142D02*
X87634819Y-91452380D01*
X87634819Y-91452380D02*
X87634819Y-91547618D01*
X87634819Y-91547618D02*
X87587200Y-91642856D01*
X87587200Y-91642856D02*
X87539580Y-91690475D01*
X87539580Y-91690475D02*
X87444342Y-91738094D01*
X87444342Y-91738094D02*
X87253866Y-91785713D01*
X87253866Y-91785713D02*
X87015771Y-91785713D01*
X87015771Y-91785713D02*
X86825295Y-91738094D01*
X86825295Y-91738094D02*
X86730057Y-91690475D01*
X86730057Y-91690475D02*
X86682438Y-91642856D01*
X86682438Y-91642856D02*
X86634819Y-91547618D01*
X87634819Y-90261904D02*
X87634819Y-90833332D01*
X87634819Y-90547618D02*
X86634819Y-90547618D01*
X86634819Y-90547618D02*
X86777676Y-90642856D01*
X86777676Y-90642856D02*
X86872914Y-90738094D01*
X86872914Y-90738094D02*
X86920533Y-90833332D01*
X194534819Y-57208332D02*
X195249104Y-57208332D01*
X195249104Y-57208332D02*
X195391961Y-57255951D01*
X195391961Y-57255951D02*
X195487200Y-57351189D01*
X195487200Y-57351189D02*
X195534819Y-57494046D01*
X195534819Y-57494046D02*
X195534819Y-57589284D01*
X194630057Y-56779760D02*
X194582438Y-56732141D01*
X194582438Y-56732141D02*
X194534819Y-56636903D01*
X194534819Y-56636903D02*
X194534819Y-56398808D01*
X194534819Y-56398808D02*
X194582438Y-56303570D01*
X194582438Y-56303570D02*
X194630057Y-56255951D01*
X194630057Y-56255951D02*
X194725295Y-56208332D01*
X194725295Y-56208332D02*
X194820533Y-56208332D01*
X194820533Y-56208332D02*
X194963390Y-56255951D01*
X194963390Y-56255951D02*
X195534819Y-56827379D01*
X195534819Y-56827379D02*
X195534819Y-56208332D01*
X97249580Y-92369047D02*
X97297200Y-92416666D01*
X97297200Y-92416666D02*
X97344819Y-92559523D01*
X97344819Y-92559523D02*
X97344819Y-92654761D01*
X97344819Y-92654761D02*
X97297200Y-92797618D01*
X97297200Y-92797618D02*
X97201961Y-92892856D01*
X97201961Y-92892856D02*
X97106723Y-92940475D01*
X97106723Y-92940475D02*
X96916247Y-92988094D01*
X96916247Y-92988094D02*
X96773390Y-92988094D01*
X96773390Y-92988094D02*
X96582914Y-92940475D01*
X96582914Y-92940475D02*
X96487676Y-92892856D01*
X96487676Y-92892856D02*
X96392438Y-92797618D01*
X96392438Y-92797618D02*
X96344819Y-92654761D01*
X96344819Y-92654761D02*
X96344819Y-92559523D01*
X96344819Y-92559523D02*
X96392438Y-92416666D01*
X96392438Y-92416666D02*
X96440057Y-92369047D01*
X96440057Y-91988094D02*
X96392438Y-91940475D01*
X96392438Y-91940475D02*
X96344819Y-91845237D01*
X96344819Y-91845237D02*
X96344819Y-91607142D01*
X96344819Y-91607142D02*
X96392438Y-91511904D01*
X96392438Y-91511904D02*
X96440057Y-91464285D01*
X96440057Y-91464285D02*
X96535295Y-91416666D01*
X96535295Y-91416666D02*
X96630533Y-91416666D01*
X96630533Y-91416666D02*
X96773390Y-91464285D01*
X96773390Y-91464285D02*
X97344819Y-92035713D01*
X97344819Y-92035713D02*
X97344819Y-91416666D01*
X96344819Y-90797618D02*
X96344819Y-90702380D01*
X96344819Y-90702380D02*
X96392438Y-90607142D01*
X96392438Y-90607142D02*
X96440057Y-90559523D01*
X96440057Y-90559523D02*
X96535295Y-90511904D01*
X96535295Y-90511904D02*
X96725771Y-90464285D01*
X96725771Y-90464285D02*
X96963866Y-90464285D01*
X96963866Y-90464285D02*
X97154342Y-90511904D01*
X97154342Y-90511904D02*
X97249580Y-90559523D01*
X97249580Y-90559523D02*
X97297200Y-90607142D01*
X97297200Y-90607142D02*
X97344819Y-90702380D01*
X97344819Y-90702380D02*
X97344819Y-90797618D01*
X97344819Y-90797618D02*
X97297200Y-90892856D01*
X97297200Y-90892856D02*
X97249580Y-90940475D01*
X97249580Y-90940475D02*
X97154342Y-90988094D01*
X97154342Y-90988094D02*
X96963866Y-91035713D01*
X96963866Y-91035713D02*
X96725771Y-91035713D01*
X96725771Y-91035713D02*
X96535295Y-90988094D01*
X96535295Y-90988094D02*
X96440057Y-90940475D01*
X96440057Y-90940475D02*
X96392438Y-90892856D01*
X96392438Y-90892856D02*
X96344819Y-90797618D01*
X97344819Y-89511904D02*
X97344819Y-90083332D01*
X97344819Y-89797618D02*
X96344819Y-89797618D01*
X96344819Y-89797618D02*
X96487676Y-89892856D01*
X96487676Y-89892856D02*
X96582914Y-89988094D01*
X96582914Y-89988094D02*
X96630533Y-90083332D01*
X150019580Y-92369047D02*
X150067200Y-92416666D01*
X150067200Y-92416666D02*
X150114819Y-92559523D01*
X150114819Y-92559523D02*
X150114819Y-92654761D01*
X150114819Y-92654761D02*
X150067200Y-92797618D01*
X150067200Y-92797618D02*
X149971961Y-92892856D01*
X149971961Y-92892856D02*
X149876723Y-92940475D01*
X149876723Y-92940475D02*
X149686247Y-92988094D01*
X149686247Y-92988094D02*
X149543390Y-92988094D01*
X149543390Y-92988094D02*
X149352914Y-92940475D01*
X149352914Y-92940475D02*
X149257676Y-92892856D01*
X149257676Y-92892856D02*
X149162438Y-92797618D01*
X149162438Y-92797618D02*
X149114819Y-92654761D01*
X149114819Y-92654761D02*
X149114819Y-92559523D01*
X149114819Y-92559523D02*
X149162438Y-92416666D01*
X149162438Y-92416666D02*
X149210057Y-92369047D01*
X149210057Y-91988094D02*
X149162438Y-91940475D01*
X149162438Y-91940475D02*
X149114819Y-91845237D01*
X149114819Y-91845237D02*
X149114819Y-91607142D01*
X149114819Y-91607142D02*
X149162438Y-91511904D01*
X149162438Y-91511904D02*
X149210057Y-91464285D01*
X149210057Y-91464285D02*
X149305295Y-91416666D01*
X149305295Y-91416666D02*
X149400533Y-91416666D01*
X149400533Y-91416666D02*
X149543390Y-91464285D01*
X149543390Y-91464285D02*
X150114819Y-92035713D01*
X150114819Y-92035713D02*
X150114819Y-91416666D01*
X149114819Y-90797618D02*
X149114819Y-90702380D01*
X149114819Y-90702380D02*
X149162438Y-90607142D01*
X149162438Y-90607142D02*
X149210057Y-90559523D01*
X149210057Y-90559523D02*
X149305295Y-90511904D01*
X149305295Y-90511904D02*
X149495771Y-90464285D01*
X149495771Y-90464285D02*
X149733866Y-90464285D01*
X149733866Y-90464285D02*
X149924342Y-90511904D01*
X149924342Y-90511904D02*
X150019580Y-90559523D01*
X150019580Y-90559523D02*
X150067200Y-90607142D01*
X150067200Y-90607142D02*
X150114819Y-90702380D01*
X150114819Y-90702380D02*
X150114819Y-90797618D01*
X150114819Y-90797618D02*
X150067200Y-90892856D01*
X150067200Y-90892856D02*
X150019580Y-90940475D01*
X150019580Y-90940475D02*
X149924342Y-90988094D01*
X149924342Y-90988094D02*
X149733866Y-91035713D01*
X149733866Y-91035713D02*
X149495771Y-91035713D01*
X149495771Y-91035713D02*
X149305295Y-90988094D01*
X149305295Y-90988094D02*
X149210057Y-90940475D01*
X149210057Y-90940475D02*
X149162438Y-90892856D01*
X149162438Y-90892856D02*
X149114819Y-90797618D01*
X149448152Y-89607142D02*
X150114819Y-89607142D01*
X149067200Y-89845237D02*
X149781485Y-90083332D01*
X149781485Y-90083332D02*
X149781485Y-89464285D01*
X195034819Y-129413333D02*
X195749104Y-129413333D01*
X195749104Y-129413333D02*
X195891961Y-129460952D01*
X195891961Y-129460952D02*
X195987200Y-129556190D01*
X195987200Y-129556190D02*
X196034819Y-129699047D01*
X196034819Y-129699047D02*
X196034819Y-129794285D01*
X195034819Y-129032380D02*
X195034819Y-128413333D01*
X195034819Y-128413333D02*
X195415771Y-128746666D01*
X195415771Y-128746666D02*
X195415771Y-128603809D01*
X195415771Y-128603809D02*
X195463390Y-128508571D01*
X195463390Y-128508571D02*
X195511009Y-128460952D01*
X195511009Y-128460952D02*
X195606247Y-128413333D01*
X195606247Y-128413333D02*
X195844342Y-128413333D01*
X195844342Y-128413333D02*
X195939580Y-128460952D01*
X195939580Y-128460952D02*
X195987200Y-128508571D01*
X195987200Y-128508571D02*
X196034819Y-128603809D01*
X196034819Y-128603809D02*
X196034819Y-128889523D01*
X196034819Y-128889523D02*
X195987200Y-128984761D01*
X195987200Y-128984761D02*
X195939580Y-129032380D01*
X87800952Y-64299819D02*
X87467619Y-63823628D01*
X87229524Y-64299819D02*
X87229524Y-63299819D01*
X87229524Y-63299819D02*
X87610476Y-63299819D01*
X87610476Y-63299819D02*
X87705714Y-63347438D01*
X87705714Y-63347438D02*
X87753333Y-63395057D01*
X87753333Y-63395057D02*
X87800952Y-63490295D01*
X87800952Y-63490295D02*
X87800952Y-63633152D01*
X87800952Y-63633152D02*
X87753333Y-63728390D01*
X87753333Y-63728390D02*
X87705714Y-63776009D01*
X87705714Y-63776009D02*
X87610476Y-63823628D01*
X87610476Y-63823628D02*
X87229524Y-63823628D01*
X88753333Y-64299819D02*
X88181905Y-64299819D01*
X88467619Y-64299819D02*
X88467619Y-63299819D01*
X88467619Y-63299819D02*
X88372381Y-63442676D01*
X88372381Y-63442676D02*
X88277143Y-63537914D01*
X88277143Y-63537914D02*
X88181905Y-63585533D01*
X89372381Y-63299819D02*
X89467619Y-63299819D01*
X89467619Y-63299819D02*
X89562857Y-63347438D01*
X89562857Y-63347438D02*
X89610476Y-63395057D01*
X89610476Y-63395057D02*
X89658095Y-63490295D01*
X89658095Y-63490295D02*
X89705714Y-63680771D01*
X89705714Y-63680771D02*
X89705714Y-63918866D01*
X89705714Y-63918866D02*
X89658095Y-64109342D01*
X89658095Y-64109342D02*
X89610476Y-64204580D01*
X89610476Y-64204580D02*
X89562857Y-64252200D01*
X89562857Y-64252200D02*
X89467619Y-64299819D01*
X89467619Y-64299819D02*
X89372381Y-64299819D01*
X89372381Y-64299819D02*
X89277143Y-64252200D01*
X89277143Y-64252200D02*
X89229524Y-64204580D01*
X89229524Y-64204580D02*
X89181905Y-64109342D01*
X89181905Y-64109342D02*
X89134286Y-63918866D01*
X89134286Y-63918866D02*
X89134286Y-63680771D01*
X89134286Y-63680771D02*
X89181905Y-63490295D01*
X89181905Y-63490295D02*
X89229524Y-63395057D01*
X89229524Y-63395057D02*
X89277143Y-63347438D01*
X89277143Y-63347438D02*
X89372381Y-63299819D01*
X90086667Y-63395057D02*
X90134286Y-63347438D01*
X90134286Y-63347438D02*
X90229524Y-63299819D01*
X90229524Y-63299819D02*
X90467619Y-63299819D01*
X90467619Y-63299819D02*
X90562857Y-63347438D01*
X90562857Y-63347438D02*
X90610476Y-63395057D01*
X90610476Y-63395057D02*
X90658095Y-63490295D01*
X90658095Y-63490295D02*
X90658095Y-63585533D01*
X90658095Y-63585533D02*
X90610476Y-63728390D01*
X90610476Y-63728390D02*
X90039048Y-64299819D01*
X90039048Y-64299819D02*
X90658095Y-64299819D01*
X167609580Y-92369047D02*
X167657200Y-92416666D01*
X167657200Y-92416666D02*
X167704819Y-92559523D01*
X167704819Y-92559523D02*
X167704819Y-92654761D01*
X167704819Y-92654761D02*
X167657200Y-92797618D01*
X167657200Y-92797618D02*
X167561961Y-92892856D01*
X167561961Y-92892856D02*
X167466723Y-92940475D01*
X167466723Y-92940475D02*
X167276247Y-92988094D01*
X167276247Y-92988094D02*
X167133390Y-92988094D01*
X167133390Y-92988094D02*
X166942914Y-92940475D01*
X166942914Y-92940475D02*
X166847676Y-92892856D01*
X166847676Y-92892856D02*
X166752438Y-92797618D01*
X166752438Y-92797618D02*
X166704819Y-92654761D01*
X166704819Y-92654761D02*
X166704819Y-92559523D01*
X166704819Y-92559523D02*
X166752438Y-92416666D01*
X166752438Y-92416666D02*
X166800057Y-92369047D01*
X166800057Y-91988094D02*
X166752438Y-91940475D01*
X166752438Y-91940475D02*
X166704819Y-91845237D01*
X166704819Y-91845237D02*
X166704819Y-91607142D01*
X166704819Y-91607142D02*
X166752438Y-91511904D01*
X166752438Y-91511904D02*
X166800057Y-91464285D01*
X166800057Y-91464285D02*
X166895295Y-91416666D01*
X166895295Y-91416666D02*
X166990533Y-91416666D01*
X166990533Y-91416666D02*
X167133390Y-91464285D01*
X167133390Y-91464285D02*
X167704819Y-92035713D01*
X167704819Y-92035713D02*
X167704819Y-91416666D01*
X166704819Y-90797618D02*
X166704819Y-90702380D01*
X166704819Y-90702380D02*
X166752438Y-90607142D01*
X166752438Y-90607142D02*
X166800057Y-90559523D01*
X166800057Y-90559523D02*
X166895295Y-90511904D01*
X166895295Y-90511904D02*
X167085771Y-90464285D01*
X167085771Y-90464285D02*
X167323866Y-90464285D01*
X167323866Y-90464285D02*
X167514342Y-90511904D01*
X167514342Y-90511904D02*
X167609580Y-90559523D01*
X167609580Y-90559523D02*
X167657200Y-90607142D01*
X167657200Y-90607142D02*
X167704819Y-90702380D01*
X167704819Y-90702380D02*
X167704819Y-90797618D01*
X167704819Y-90797618D02*
X167657200Y-90892856D01*
X167657200Y-90892856D02*
X167609580Y-90940475D01*
X167609580Y-90940475D02*
X167514342Y-90988094D01*
X167514342Y-90988094D02*
X167323866Y-91035713D01*
X167323866Y-91035713D02*
X167085771Y-91035713D01*
X167085771Y-91035713D02*
X166895295Y-90988094D01*
X166895295Y-90988094D02*
X166800057Y-90940475D01*
X166800057Y-90940475D02*
X166752438Y-90892856D01*
X166752438Y-90892856D02*
X166704819Y-90797618D01*
X166704819Y-89559523D02*
X166704819Y-90035713D01*
X166704819Y-90035713D02*
X167181009Y-90083332D01*
X167181009Y-90083332D02*
X167133390Y-90035713D01*
X167133390Y-90035713D02*
X167085771Y-89940475D01*
X167085771Y-89940475D02*
X167085771Y-89702380D01*
X167085771Y-89702380D02*
X167133390Y-89607142D01*
X167133390Y-89607142D02*
X167181009Y-89559523D01*
X167181009Y-89559523D02*
X167276247Y-89511904D01*
X167276247Y-89511904D02*
X167514342Y-89511904D01*
X167514342Y-89511904D02*
X167609580Y-89559523D01*
X167609580Y-89559523D02*
X167657200Y-89607142D01*
X167657200Y-89607142D02*
X167704819Y-89702380D01*
X167704819Y-89702380D02*
X167704819Y-89940475D01*
X167704819Y-89940475D02*
X167657200Y-90035713D01*
X167657200Y-90035713D02*
X167609580Y-90083332D01*
X114839580Y-92369047D02*
X114887200Y-92416666D01*
X114887200Y-92416666D02*
X114934819Y-92559523D01*
X114934819Y-92559523D02*
X114934819Y-92654761D01*
X114934819Y-92654761D02*
X114887200Y-92797618D01*
X114887200Y-92797618D02*
X114791961Y-92892856D01*
X114791961Y-92892856D02*
X114696723Y-92940475D01*
X114696723Y-92940475D02*
X114506247Y-92988094D01*
X114506247Y-92988094D02*
X114363390Y-92988094D01*
X114363390Y-92988094D02*
X114172914Y-92940475D01*
X114172914Y-92940475D02*
X114077676Y-92892856D01*
X114077676Y-92892856D02*
X113982438Y-92797618D01*
X113982438Y-92797618D02*
X113934819Y-92654761D01*
X113934819Y-92654761D02*
X113934819Y-92559523D01*
X113934819Y-92559523D02*
X113982438Y-92416666D01*
X113982438Y-92416666D02*
X114030057Y-92369047D01*
X114030057Y-91988094D02*
X113982438Y-91940475D01*
X113982438Y-91940475D02*
X113934819Y-91845237D01*
X113934819Y-91845237D02*
X113934819Y-91607142D01*
X113934819Y-91607142D02*
X113982438Y-91511904D01*
X113982438Y-91511904D02*
X114030057Y-91464285D01*
X114030057Y-91464285D02*
X114125295Y-91416666D01*
X114125295Y-91416666D02*
X114220533Y-91416666D01*
X114220533Y-91416666D02*
X114363390Y-91464285D01*
X114363390Y-91464285D02*
X114934819Y-92035713D01*
X114934819Y-92035713D02*
X114934819Y-91416666D01*
X113934819Y-90797618D02*
X113934819Y-90702380D01*
X113934819Y-90702380D02*
X113982438Y-90607142D01*
X113982438Y-90607142D02*
X114030057Y-90559523D01*
X114030057Y-90559523D02*
X114125295Y-90511904D01*
X114125295Y-90511904D02*
X114315771Y-90464285D01*
X114315771Y-90464285D02*
X114553866Y-90464285D01*
X114553866Y-90464285D02*
X114744342Y-90511904D01*
X114744342Y-90511904D02*
X114839580Y-90559523D01*
X114839580Y-90559523D02*
X114887200Y-90607142D01*
X114887200Y-90607142D02*
X114934819Y-90702380D01*
X114934819Y-90702380D02*
X114934819Y-90797618D01*
X114934819Y-90797618D02*
X114887200Y-90892856D01*
X114887200Y-90892856D02*
X114839580Y-90940475D01*
X114839580Y-90940475D02*
X114744342Y-90988094D01*
X114744342Y-90988094D02*
X114553866Y-91035713D01*
X114553866Y-91035713D02*
X114315771Y-91035713D01*
X114315771Y-91035713D02*
X114125295Y-90988094D01*
X114125295Y-90988094D02*
X114030057Y-90940475D01*
X114030057Y-90940475D02*
X113982438Y-90892856D01*
X113982438Y-90892856D02*
X113934819Y-90797618D01*
X114030057Y-90083332D02*
X113982438Y-90035713D01*
X113982438Y-90035713D02*
X113934819Y-89940475D01*
X113934819Y-89940475D02*
X113934819Y-89702380D01*
X113934819Y-89702380D02*
X113982438Y-89607142D01*
X113982438Y-89607142D02*
X114030057Y-89559523D01*
X114030057Y-89559523D02*
X114125295Y-89511904D01*
X114125295Y-89511904D02*
X114220533Y-89511904D01*
X114220533Y-89511904D02*
X114363390Y-89559523D01*
X114363390Y-89559523D02*
X114934819Y-90130951D01*
X114934819Y-90130951D02*
X114934819Y-89511904D01*
X138130952Y-109609580D02*
X138083333Y-109657200D01*
X138083333Y-109657200D02*
X137940476Y-109704819D01*
X137940476Y-109704819D02*
X137845238Y-109704819D01*
X137845238Y-109704819D02*
X137702381Y-109657200D01*
X137702381Y-109657200D02*
X137607143Y-109561961D01*
X137607143Y-109561961D02*
X137559524Y-109466723D01*
X137559524Y-109466723D02*
X137511905Y-109276247D01*
X137511905Y-109276247D02*
X137511905Y-109133390D01*
X137511905Y-109133390D02*
X137559524Y-108942914D01*
X137559524Y-108942914D02*
X137607143Y-108847676D01*
X137607143Y-108847676D02*
X137702381Y-108752438D01*
X137702381Y-108752438D02*
X137845238Y-108704819D01*
X137845238Y-108704819D02*
X137940476Y-108704819D01*
X137940476Y-108704819D02*
X138083333Y-108752438D01*
X138083333Y-108752438D02*
X138130952Y-108800057D01*
X138511905Y-108800057D02*
X138559524Y-108752438D01*
X138559524Y-108752438D02*
X138654762Y-108704819D01*
X138654762Y-108704819D02*
X138892857Y-108704819D01*
X138892857Y-108704819D02*
X138988095Y-108752438D01*
X138988095Y-108752438D02*
X139035714Y-108800057D01*
X139035714Y-108800057D02*
X139083333Y-108895295D01*
X139083333Y-108895295D02*
X139083333Y-108990533D01*
X139083333Y-108990533D02*
X139035714Y-109133390D01*
X139035714Y-109133390D02*
X138464286Y-109704819D01*
X138464286Y-109704819D02*
X139083333Y-109704819D01*
X139702381Y-108704819D02*
X139797619Y-108704819D01*
X139797619Y-108704819D02*
X139892857Y-108752438D01*
X139892857Y-108752438D02*
X139940476Y-108800057D01*
X139940476Y-108800057D02*
X139988095Y-108895295D01*
X139988095Y-108895295D02*
X140035714Y-109085771D01*
X140035714Y-109085771D02*
X140035714Y-109323866D01*
X140035714Y-109323866D02*
X139988095Y-109514342D01*
X139988095Y-109514342D02*
X139940476Y-109609580D01*
X139940476Y-109609580D02*
X139892857Y-109657200D01*
X139892857Y-109657200D02*
X139797619Y-109704819D01*
X139797619Y-109704819D02*
X139702381Y-109704819D01*
X139702381Y-109704819D02*
X139607143Y-109657200D01*
X139607143Y-109657200D02*
X139559524Y-109609580D01*
X139559524Y-109609580D02*
X139511905Y-109514342D01*
X139511905Y-109514342D02*
X139464286Y-109323866D01*
X139464286Y-109323866D02*
X139464286Y-109085771D01*
X139464286Y-109085771D02*
X139511905Y-108895295D01*
X139511905Y-108895295D02*
X139559524Y-108800057D01*
X139559524Y-108800057D02*
X139607143Y-108752438D01*
X139607143Y-108752438D02*
X139702381Y-108704819D01*
X140892857Y-108704819D02*
X140702381Y-108704819D01*
X140702381Y-108704819D02*
X140607143Y-108752438D01*
X140607143Y-108752438D02*
X140559524Y-108800057D01*
X140559524Y-108800057D02*
X140464286Y-108942914D01*
X140464286Y-108942914D02*
X140416667Y-109133390D01*
X140416667Y-109133390D02*
X140416667Y-109514342D01*
X140416667Y-109514342D02*
X140464286Y-109609580D01*
X140464286Y-109609580D02*
X140511905Y-109657200D01*
X140511905Y-109657200D02*
X140607143Y-109704819D01*
X140607143Y-109704819D02*
X140797619Y-109704819D01*
X140797619Y-109704819D02*
X140892857Y-109657200D01*
X140892857Y-109657200D02*
X140940476Y-109609580D01*
X140940476Y-109609580D02*
X140988095Y-109514342D01*
X140988095Y-109514342D02*
X140988095Y-109276247D01*
X140988095Y-109276247D02*
X140940476Y-109181009D01*
X140940476Y-109181009D02*
X140892857Y-109133390D01*
X140892857Y-109133390D02*
X140797619Y-109085771D01*
X140797619Y-109085771D02*
X140607143Y-109085771D01*
X140607143Y-109085771D02*
X140511905Y-109133390D01*
X140511905Y-109133390D02*
X140464286Y-109181009D01*
X140464286Y-109181009D02*
X140416667Y-109276247D01*
X72064819Y-57989047D02*
X72064819Y-58465237D01*
X72064819Y-58465237D02*
X71064819Y-58465237D01*
X72064819Y-57131904D02*
X72064819Y-57703332D01*
X72064819Y-57417618D02*
X71064819Y-57417618D01*
X71064819Y-57417618D02*
X71207676Y-57512856D01*
X71207676Y-57512856D02*
X71302914Y-57608094D01*
X71302914Y-57608094D02*
X71350533Y-57703332D01*
X71064819Y-56512856D02*
X71064819Y-56417618D01*
X71064819Y-56417618D02*
X71112438Y-56322380D01*
X71112438Y-56322380D02*
X71160057Y-56274761D01*
X71160057Y-56274761D02*
X71255295Y-56227142D01*
X71255295Y-56227142D02*
X71445771Y-56179523D01*
X71445771Y-56179523D02*
X71683866Y-56179523D01*
X71683866Y-56179523D02*
X71874342Y-56227142D01*
X71874342Y-56227142D02*
X71969580Y-56274761D01*
X71969580Y-56274761D02*
X72017200Y-56322380D01*
X72017200Y-56322380D02*
X72064819Y-56417618D01*
X72064819Y-56417618D02*
X72064819Y-56512856D01*
X72064819Y-56512856D02*
X72017200Y-56608094D01*
X72017200Y-56608094D02*
X71969580Y-56655713D01*
X71969580Y-56655713D02*
X71874342Y-56703332D01*
X71874342Y-56703332D02*
X71683866Y-56750951D01*
X71683866Y-56750951D02*
X71445771Y-56750951D01*
X71445771Y-56750951D02*
X71255295Y-56703332D01*
X71255295Y-56703332D02*
X71160057Y-56655713D01*
X71160057Y-56655713D02*
X71112438Y-56608094D01*
X71112438Y-56608094D02*
X71064819Y-56512856D01*
X72064819Y-55227142D02*
X72064819Y-55798570D01*
X72064819Y-55512856D02*
X71064819Y-55512856D01*
X71064819Y-55512856D02*
X71207676Y-55608094D01*
X71207676Y-55608094D02*
X71302914Y-55703332D01*
X71302914Y-55703332D02*
X71350533Y-55798570D01*
X120810952Y-59029580D02*
X120763333Y-59077200D01*
X120763333Y-59077200D02*
X120620476Y-59124819D01*
X120620476Y-59124819D02*
X120525238Y-59124819D01*
X120525238Y-59124819D02*
X120382381Y-59077200D01*
X120382381Y-59077200D02*
X120287143Y-58981961D01*
X120287143Y-58981961D02*
X120239524Y-58886723D01*
X120239524Y-58886723D02*
X120191905Y-58696247D01*
X120191905Y-58696247D02*
X120191905Y-58553390D01*
X120191905Y-58553390D02*
X120239524Y-58362914D01*
X120239524Y-58362914D02*
X120287143Y-58267676D01*
X120287143Y-58267676D02*
X120382381Y-58172438D01*
X120382381Y-58172438D02*
X120525238Y-58124819D01*
X120525238Y-58124819D02*
X120620476Y-58124819D01*
X120620476Y-58124819D02*
X120763333Y-58172438D01*
X120763333Y-58172438D02*
X120810952Y-58220057D01*
X121763333Y-59124819D02*
X121191905Y-59124819D01*
X121477619Y-59124819D02*
X121477619Y-58124819D01*
X121477619Y-58124819D02*
X121382381Y-58267676D01*
X121382381Y-58267676D02*
X121287143Y-58362914D01*
X121287143Y-58362914D02*
X121191905Y-58410533D01*
X122382381Y-58124819D02*
X122477619Y-58124819D01*
X122477619Y-58124819D02*
X122572857Y-58172438D01*
X122572857Y-58172438D02*
X122620476Y-58220057D01*
X122620476Y-58220057D02*
X122668095Y-58315295D01*
X122668095Y-58315295D02*
X122715714Y-58505771D01*
X122715714Y-58505771D02*
X122715714Y-58743866D01*
X122715714Y-58743866D02*
X122668095Y-58934342D01*
X122668095Y-58934342D02*
X122620476Y-59029580D01*
X122620476Y-59029580D02*
X122572857Y-59077200D01*
X122572857Y-59077200D02*
X122477619Y-59124819D01*
X122477619Y-59124819D02*
X122382381Y-59124819D01*
X122382381Y-59124819D02*
X122287143Y-59077200D01*
X122287143Y-59077200D02*
X122239524Y-59029580D01*
X122239524Y-59029580D02*
X122191905Y-58934342D01*
X122191905Y-58934342D02*
X122144286Y-58743866D01*
X122144286Y-58743866D02*
X122144286Y-58505771D01*
X122144286Y-58505771D02*
X122191905Y-58315295D01*
X122191905Y-58315295D02*
X122239524Y-58220057D01*
X122239524Y-58220057D02*
X122287143Y-58172438D01*
X122287143Y-58172438D02*
X122382381Y-58124819D01*
X123049048Y-58124819D02*
X123668095Y-58124819D01*
X123668095Y-58124819D02*
X123334762Y-58505771D01*
X123334762Y-58505771D02*
X123477619Y-58505771D01*
X123477619Y-58505771D02*
X123572857Y-58553390D01*
X123572857Y-58553390D02*
X123620476Y-58601009D01*
X123620476Y-58601009D02*
X123668095Y-58696247D01*
X123668095Y-58696247D02*
X123668095Y-58934342D01*
X123668095Y-58934342D02*
X123620476Y-59029580D01*
X123620476Y-59029580D02*
X123572857Y-59077200D01*
X123572857Y-59077200D02*
X123477619Y-59124819D01*
X123477619Y-59124819D02*
X123191905Y-59124819D01*
X123191905Y-59124819D02*
X123096667Y-59077200D01*
X123096667Y-59077200D02*
X123049048Y-59029580D01*
X138630952Y-127859580D02*
X138583333Y-127907200D01*
X138583333Y-127907200D02*
X138440476Y-127954819D01*
X138440476Y-127954819D02*
X138345238Y-127954819D01*
X138345238Y-127954819D02*
X138202381Y-127907200D01*
X138202381Y-127907200D02*
X138107143Y-127811961D01*
X138107143Y-127811961D02*
X138059524Y-127716723D01*
X138059524Y-127716723D02*
X138011905Y-127526247D01*
X138011905Y-127526247D02*
X138011905Y-127383390D01*
X138011905Y-127383390D02*
X138059524Y-127192914D01*
X138059524Y-127192914D02*
X138107143Y-127097676D01*
X138107143Y-127097676D02*
X138202381Y-127002438D01*
X138202381Y-127002438D02*
X138345238Y-126954819D01*
X138345238Y-126954819D02*
X138440476Y-126954819D01*
X138440476Y-126954819D02*
X138583333Y-127002438D01*
X138583333Y-127002438D02*
X138630952Y-127050057D01*
X139011905Y-127050057D02*
X139059524Y-127002438D01*
X139059524Y-127002438D02*
X139154762Y-126954819D01*
X139154762Y-126954819D02*
X139392857Y-126954819D01*
X139392857Y-126954819D02*
X139488095Y-127002438D01*
X139488095Y-127002438D02*
X139535714Y-127050057D01*
X139535714Y-127050057D02*
X139583333Y-127145295D01*
X139583333Y-127145295D02*
X139583333Y-127240533D01*
X139583333Y-127240533D02*
X139535714Y-127383390D01*
X139535714Y-127383390D02*
X138964286Y-127954819D01*
X138964286Y-127954819D02*
X139583333Y-127954819D01*
X140202381Y-126954819D02*
X140297619Y-126954819D01*
X140297619Y-126954819D02*
X140392857Y-127002438D01*
X140392857Y-127002438D02*
X140440476Y-127050057D01*
X140440476Y-127050057D02*
X140488095Y-127145295D01*
X140488095Y-127145295D02*
X140535714Y-127335771D01*
X140535714Y-127335771D02*
X140535714Y-127573866D01*
X140535714Y-127573866D02*
X140488095Y-127764342D01*
X140488095Y-127764342D02*
X140440476Y-127859580D01*
X140440476Y-127859580D02*
X140392857Y-127907200D01*
X140392857Y-127907200D02*
X140297619Y-127954819D01*
X140297619Y-127954819D02*
X140202381Y-127954819D01*
X140202381Y-127954819D02*
X140107143Y-127907200D01*
X140107143Y-127907200D02*
X140059524Y-127859580D01*
X140059524Y-127859580D02*
X140011905Y-127764342D01*
X140011905Y-127764342D02*
X139964286Y-127573866D01*
X139964286Y-127573866D02*
X139964286Y-127335771D01*
X139964286Y-127335771D02*
X140011905Y-127145295D01*
X140011905Y-127145295D02*
X140059524Y-127050057D01*
X140059524Y-127050057D02*
X140107143Y-127002438D01*
X140107143Y-127002438D02*
X140202381Y-126954819D01*
X140869048Y-126954819D02*
X141535714Y-126954819D01*
X141535714Y-126954819D02*
X141107143Y-127954819D01*
X77634819Y-93119047D02*
X77158628Y-93452380D01*
X77634819Y-93690475D02*
X76634819Y-93690475D01*
X76634819Y-93690475D02*
X76634819Y-93309523D01*
X76634819Y-93309523D02*
X76682438Y-93214285D01*
X76682438Y-93214285D02*
X76730057Y-93166666D01*
X76730057Y-93166666D02*
X76825295Y-93119047D01*
X76825295Y-93119047D02*
X76968152Y-93119047D01*
X76968152Y-93119047D02*
X77063390Y-93166666D01*
X77063390Y-93166666D02*
X77111009Y-93214285D01*
X77111009Y-93214285D02*
X77158628Y-93309523D01*
X77158628Y-93309523D02*
X77158628Y-93690475D01*
X76730057Y-92738094D02*
X76682438Y-92690475D01*
X76682438Y-92690475D02*
X76634819Y-92595237D01*
X76634819Y-92595237D02*
X76634819Y-92357142D01*
X76634819Y-92357142D02*
X76682438Y-92261904D01*
X76682438Y-92261904D02*
X76730057Y-92214285D01*
X76730057Y-92214285D02*
X76825295Y-92166666D01*
X76825295Y-92166666D02*
X76920533Y-92166666D01*
X76920533Y-92166666D02*
X77063390Y-92214285D01*
X77063390Y-92214285D02*
X77634819Y-92785713D01*
X77634819Y-92785713D02*
X77634819Y-92166666D01*
X76634819Y-91547618D02*
X76634819Y-91452380D01*
X76634819Y-91452380D02*
X76682438Y-91357142D01*
X76682438Y-91357142D02*
X76730057Y-91309523D01*
X76730057Y-91309523D02*
X76825295Y-91261904D01*
X76825295Y-91261904D02*
X77015771Y-91214285D01*
X77015771Y-91214285D02*
X77253866Y-91214285D01*
X77253866Y-91214285D02*
X77444342Y-91261904D01*
X77444342Y-91261904D02*
X77539580Y-91309523D01*
X77539580Y-91309523D02*
X77587200Y-91357142D01*
X77587200Y-91357142D02*
X77634819Y-91452380D01*
X77634819Y-91452380D02*
X77634819Y-91547618D01*
X77634819Y-91547618D02*
X77587200Y-91642856D01*
X77587200Y-91642856D02*
X77539580Y-91690475D01*
X77539580Y-91690475D02*
X77444342Y-91738094D01*
X77444342Y-91738094D02*
X77253866Y-91785713D01*
X77253866Y-91785713D02*
X77015771Y-91785713D01*
X77015771Y-91785713D02*
X76825295Y-91738094D01*
X76825295Y-91738094D02*
X76730057Y-91690475D01*
X76730057Y-91690475D02*
X76682438Y-91642856D01*
X76682438Y-91642856D02*
X76634819Y-91547618D01*
X76730057Y-90833332D02*
X76682438Y-90785713D01*
X76682438Y-90785713D02*
X76634819Y-90690475D01*
X76634819Y-90690475D02*
X76634819Y-90452380D01*
X76634819Y-90452380D02*
X76682438Y-90357142D01*
X76682438Y-90357142D02*
X76730057Y-90309523D01*
X76730057Y-90309523D02*
X76825295Y-90261904D01*
X76825295Y-90261904D02*
X76920533Y-90261904D01*
X76920533Y-90261904D02*
X77063390Y-90309523D01*
X77063390Y-90309523D02*
X77634819Y-90880951D01*
X77634819Y-90880951D02*
X77634819Y-90261904D01*
X87800952Y-38894580D02*
X87753333Y-38942200D01*
X87753333Y-38942200D02*
X87610476Y-38989819D01*
X87610476Y-38989819D02*
X87515238Y-38989819D01*
X87515238Y-38989819D02*
X87372381Y-38942200D01*
X87372381Y-38942200D02*
X87277143Y-38846961D01*
X87277143Y-38846961D02*
X87229524Y-38751723D01*
X87229524Y-38751723D02*
X87181905Y-38561247D01*
X87181905Y-38561247D02*
X87181905Y-38418390D01*
X87181905Y-38418390D02*
X87229524Y-38227914D01*
X87229524Y-38227914D02*
X87277143Y-38132676D01*
X87277143Y-38132676D02*
X87372381Y-38037438D01*
X87372381Y-38037438D02*
X87515238Y-37989819D01*
X87515238Y-37989819D02*
X87610476Y-37989819D01*
X87610476Y-37989819D02*
X87753333Y-38037438D01*
X87753333Y-38037438D02*
X87800952Y-38085057D01*
X88753333Y-38989819D02*
X88181905Y-38989819D01*
X88467619Y-38989819D02*
X88467619Y-37989819D01*
X88467619Y-37989819D02*
X88372381Y-38132676D01*
X88372381Y-38132676D02*
X88277143Y-38227914D01*
X88277143Y-38227914D02*
X88181905Y-38275533D01*
X89372381Y-37989819D02*
X89467619Y-37989819D01*
X89467619Y-37989819D02*
X89562857Y-38037438D01*
X89562857Y-38037438D02*
X89610476Y-38085057D01*
X89610476Y-38085057D02*
X89658095Y-38180295D01*
X89658095Y-38180295D02*
X89705714Y-38370771D01*
X89705714Y-38370771D02*
X89705714Y-38608866D01*
X89705714Y-38608866D02*
X89658095Y-38799342D01*
X89658095Y-38799342D02*
X89610476Y-38894580D01*
X89610476Y-38894580D02*
X89562857Y-38942200D01*
X89562857Y-38942200D02*
X89467619Y-38989819D01*
X89467619Y-38989819D02*
X89372381Y-38989819D01*
X89372381Y-38989819D02*
X89277143Y-38942200D01*
X89277143Y-38942200D02*
X89229524Y-38894580D01*
X89229524Y-38894580D02*
X89181905Y-38799342D01*
X89181905Y-38799342D02*
X89134286Y-38608866D01*
X89134286Y-38608866D02*
X89134286Y-38370771D01*
X89134286Y-38370771D02*
X89181905Y-38180295D01*
X89181905Y-38180295D02*
X89229524Y-38085057D01*
X89229524Y-38085057D02*
X89277143Y-38037438D01*
X89277143Y-38037438D02*
X89372381Y-37989819D01*
X90658095Y-38989819D02*
X90086667Y-38989819D01*
X90372381Y-38989819D02*
X90372381Y-37989819D01*
X90372381Y-37989819D02*
X90277143Y-38132676D01*
X90277143Y-38132676D02*
X90181905Y-38227914D01*
X90181905Y-38227914D02*
X90086667Y-38275533D01*
X120810952Y-45939579D02*
X120763333Y-45987199D01*
X120763333Y-45987199D02*
X120620476Y-46034818D01*
X120620476Y-46034818D02*
X120525238Y-46034818D01*
X120525238Y-46034818D02*
X120382381Y-45987199D01*
X120382381Y-45987199D02*
X120287143Y-45891960D01*
X120287143Y-45891960D02*
X120239524Y-45796722D01*
X120239524Y-45796722D02*
X120191905Y-45606246D01*
X120191905Y-45606246D02*
X120191905Y-45463389D01*
X120191905Y-45463389D02*
X120239524Y-45272913D01*
X120239524Y-45272913D02*
X120287143Y-45177675D01*
X120287143Y-45177675D02*
X120382381Y-45082437D01*
X120382381Y-45082437D02*
X120525238Y-45034818D01*
X120525238Y-45034818D02*
X120620476Y-45034818D01*
X120620476Y-45034818D02*
X120763333Y-45082437D01*
X120763333Y-45082437D02*
X120810952Y-45130056D01*
X121763333Y-46034818D02*
X121191905Y-46034818D01*
X121477619Y-46034818D02*
X121477619Y-45034818D01*
X121477619Y-45034818D02*
X121382381Y-45177675D01*
X121382381Y-45177675D02*
X121287143Y-45272913D01*
X121287143Y-45272913D02*
X121191905Y-45320532D01*
X122382381Y-45034818D02*
X122477619Y-45034818D01*
X122477619Y-45034818D02*
X122572857Y-45082437D01*
X122572857Y-45082437D02*
X122620476Y-45130056D01*
X122620476Y-45130056D02*
X122668095Y-45225294D01*
X122668095Y-45225294D02*
X122715714Y-45415770D01*
X122715714Y-45415770D02*
X122715714Y-45653865D01*
X122715714Y-45653865D02*
X122668095Y-45844341D01*
X122668095Y-45844341D02*
X122620476Y-45939579D01*
X122620476Y-45939579D02*
X122572857Y-45987199D01*
X122572857Y-45987199D02*
X122477619Y-46034818D01*
X122477619Y-46034818D02*
X122382381Y-46034818D01*
X122382381Y-46034818D02*
X122287143Y-45987199D01*
X122287143Y-45987199D02*
X122239524Y-45939579D01*
X122239524Y-45939579D02*
X122191905Y-45844341D01*
X122191905Y-45844341D02*
X122144286Y-45653865D01*
X122144286Y-45653865D02*
X122144286Y-45415770D01*
X122144286Y-45415770D02*
X122191905Y-45225294D01*
X122191905Y-45225294D02*
X122239524Y-45130056D01*
X122239524Y-45130056D02*
X122287143Y-45082437D01*
X122287143Y-45082437D02*
X122382381Y-45034818D01*
X123096667Y-45130056D02*
X123144286Y-45082437D01*
X123144286Y-45082437D02*
X123239524Y-45034818D01*
X123239524Y-45034818D02*
X123477619Y-45034818D01*
X123477619Y-45034818D02*
X123572857Y-45082437D01*
X123572857Y-45082437D02*
X123620476Y-45130056D01*
X123620476Y-45130056D02*
X123668095Y-45225294D01*
X123668095Y-45225294D02*
X123668095Y-45320532D01*
X123668095Y-45320532D02*
X123620476Y-45463389D01*
X123620476Y-45463389D02*
X123049048Y-46034818D01*
X123049048Y-46034818D02*
X123668095Y-46034818D01*
X174490952Y-59529580D02*
X174443333Y-59577200D01*
X174443333Y-59577200D02*
X174300476Y-59624819D01*
X174300476Y-59624819D02*
X174205238Y-59624819D01*
X174205238Y-59624819D02*
X174062381Y-59577200D01*
X174062381Y-59577200D02*
X173967143Y-59481961D01*
X173967143Y-59481961D02*
X173919524Y-59386723D01*
X173919524Y-59386723D02*
X173871905Y-59196247D01*
X173871905Y-59196247D02*
X173871905Y-59053390D01*
X173871905Y-59053390D02*
X173919524Y-58862914D01*
X173919524Y-58862914D02*
X173967143Y-58767676D01*
X173967143Y-58767676D02*
X174062381Y-58672438D01*
X174062381Y-58672438D02*
X174205238Y-58624819D01*
X174205238Y-58624819D02*
X174300476Y-58624819D01*
X174300476Y-58624819D02*
X174443333Y-58672438D01*
X174443333Y-58672438D02*
X174490952Y-58720057D01*
X175443333Y-59624819D02*
X174871905Y-59624819D01*
X175157619Y-59624819D02*
X175157619Y-58624819D01*
X175157619Y-58624819D02*
X175062381Y-58767676D01*
X175062381Y-58767676D02*
X174967143Y-58862914D01*
X174967143Y-58862914D02*
X174871905Y-58910533D01*
X176062381Y-58624819D02*
X176157619Y-58624819D01*
X176157619Y-58624819D02*
X176252857Y-58672438D01*
X176252857Y-58672438D02*
X176300476Y-58720057D01*
X176300476Y-58720057D02*
X176348095Y-58815295D01*
X176348095Y-58815295D02*
X176395714Y-59005771D01*
X176395714Y-59005771D02*
X176395714Y-59243866D01*
X176395714Y-59243866D02*
X176348095Y-59434342D01*
X176348095Y-59434342D02*
X176300476Y-59529580D01*
X176300476Y-59529580D02*
X176252857Y-59577200D01*
X176252857Y-59577200D02*
X176157619Y-59624819D01*
X176157619Y-59624819D02*
X176062381Y-59624819D01*
X176062381Y-59624819D02*
X175967143Y-59577200D01*
X175967143Y-59577200D02*
X175919524Y-59529580D01*
X175919524Y-59529580D02*
X175871905Y-59434342D01*
X175871905Y-59434342D02*
X175824286Y-59243866D01*
X175824286Y-59243866D02*
X175824286Y-59005771D01*
X175824286Y-59005771D02*
X175871905Y-58815295D01*
X175871905Y-58815295D02*
X175919524Y-58720057D01*
X175919524Y-58720057D02*
X175967143Y-58672438D01*
X175967143Y-58672438D02*
X176062381Y-58624819D01*
X177300476Y-58624819D02*
X176824286Y-58624819D01*
X176824286Y-58624819D02*
X176776667Y-59101009D01*
X176776667Y-59101009D02*
X176824286Y-59053390D01*
X176824286Y-59053390D02*
X176919524Y-59005771D01*
X176919524Y-59005771D02*
X177157619Y-59005771D01*
X177157619Y-59005771D02*
X177252857Y-59053390D01*
X177252857Y-59053390D02*
X177300476Y-59101009D01*
X177300476Y-59101009D02*
X177348095Y-59196247D01*
X177348095Y-59196247D02*
X177348095Y-59434342D01*
X177348095Y-59434342D02*
X177300476Y-59529580D01*
X177300476Y-59529580D02*
X177252857Y-59577200D01*
X177252857Y-59577200D02*
X177157619Y-59624819D01*
X177157619Y-59624819D02*
X176919524Y-59624819D01*
X176919524Y-59624819D02*
X176824286Y-59577200D01*
X176824286Y-59577200D02*
X176776667Y-59529580D01*
X72334818Y-91888333D02*
X73049103Y-91888333D01*
X73049103Y-91888333D02*
X73191960Y-91935952D01*
X73191960Y-91935952D02*
X73287199Y-92031190D01*
X73287199Y-92031190D02*
X73334818Y-92174047D01*
X73334818Y-92174047D02*
X73334818Y-92269285D01*
X73334818Y-90888333D02*
X73334818Y-91459761D01*
X73334818Y-91174047D02*
X72334818Y-91174047D01*
X72334818Y-91174047D02*
X72477675Y-91269285D01*
X72477675Y-91269285D02*
X72572913Y-91364523D01*
X72572913Y-91364523D02*
X72620532Y-91459761D01*
X146400952Y-52129818D02*
X145924762Y-52129818D01*
X145924762Y-52129818D02*
X145924762Y-51129818D01*
X147258095Y-52129818D02*
X146686667Y-52129818D01*
X146972381Y-52129818D02*
X146972381Y-51129818D01*
X146972381Y-51129818D02*
X146877143Y-51272675D01*
X146877143Y-51272675D02*
X146781905Y-51367913D01*
X146781905Y-51367913D02*
X146686667Y-51415532D01*
X147877143Y-51129818D02*
X147972381Y-51129818D01*
X147972381Y-51129818D02*
X148067619Y-51177437D01*
X148067619Y-51177437D02*
X148115238Y-51225056D01*
X148115238Y-51225056D02*
X148162857Y-51320294D01*
X148162857Y-51320294D02*
X148210476Y-51510770D01*
X148210476Y-51510770D02*
X148210476Y-51748865D01*
X148210476Y-51748865D02*
X148162857Y-51939341D01*
X148162857Y-51939341D02*
X148115238Y-52034579D01*
X148115238Y-52034579D02*
X148067619Y-52082199D01*
X148067619Y-52082199D02*
X147972381Y-52129818D01*
X147972381Y-52129818D02*
X147877143Y-52129818D01*
X147877143Y-52129818D02*
X147781905Y-52082199D01*
X147781905Y-52082199D02*
X147734286Y-52034579D01*
X147734286Y-52034579D02*
X147686667Y-51939341D01*
X147686667Y-51939341D02*
X147639048Y-51748865D01*
X147639048Y-51748865D02*
X147639048Y-51510770D01*
X147639048Y-51510770D02*
X147686667Y-51320294D01*
X147686667Y-51320294D02*
X147734286Y-51225056D01*
X147734286Y-51225056D02*
X147781905Y-51177437D01*
X147781905Y-51177437D02*
X147877143Y-51129818D01*
X148591429Y-51225056D02*
X148639048Y-51177437D01*
X148639048Y-51177437D02*
X148734286Y-51129818D01*
X148734286Y-51129818D02*
X148972381Y-51129818D01*
X148972381Y-51129818D02*
X149067619Y-51177437D01*
X149067619Y-51177437D02*
X149115238Y-51225056D01*
X149115238Y-51225056D02*
X149162857Y-51320294D01*
X149162857Y-51320294D02*
X149162857Y-51415532D01*
X149162857Y-51415532D02*
X149115238Y-51558389D01*
X149115238Y-51558389D02*
X148543810Y-52129818D01*
X148543810Y-52129818D02*
X149162857Y-52129818D01*
%TO.C,C104*%
D11*
X159740000Y-44709999D02*
X191480000Y-44709999D01*
X159740000Y-55949999D02*
X159740000Y-44709999D01*
X191480000Y-44709999D02*
X191480000Y-55949999D01*
X191480000Y-55949999D02*
X159740000Y-55949999D01*
%TO.C,L201*%
X197000000Y-83750000D02*
X204000000Y-83750000D01*
X204000000Y-98750000D01*
X197000000Y-98750000D01*
X197000000Y-83750000D01*
%TO.C,C203*%
X133200000Y-75380000D02*
X146440000Y-75380000D01*
X133200000Y-107120000D02*
X133200000Y-75380000D01*
X146440000Y-75380000D02*
X146440000Y-107120000D01*
X146440000Y-107120000D02*
X133200000Y-107120000D01*
%TO.C,L202*%
X107000000Y-120000000D02*
X114000000Y-120000000D01*
X114000000Y-135000000D01*
X107000000Y-135000000D01*
X107000000Y-120000000D01*
%TO.C,R101*%
X76300000Y-51254999D02*
X101540000Y-51254999D01*
X76300000Y-54434999D02*
X76300000Y-51254999D01*
X76300000Y-57314999D02*
X76300000Y-60494999D01*
X76300000Y-60494999D02*
X101540000Y-60494999D01*
X101540000Y-51254999D02*
X101540000Y-54434999D01*
X101540000Y-60494999D02*
X101540000Y-57314999D01*
%TO.C,R201*%
X88180000Y-81880000D02*
X90060000Y-81880000D01*
X88180000Y-102120000D02*
X88180000Y-81880000D01*
X90060000Y-102120000D02*
X88180000Y-102120000D01*
X92940000Y-102120000D02*
X94820000Y-102120000D01*
X94820000Y-81880000D02*
X92940000Y-81880000D01*
X94820000Y-102120000D02*
X94820000Y-81880000D01*
%TO.C,J2*%
X196080000Y-51504999D02*
X204120000Y-51504999D01*
X196080000Y-62244999D02*
X196080000Y-51504999D01*
X199700000Y-52312999D02*
X199700000Y-51504999D01*
X199700000Y-57244999D02*
X199700000Y-55936999D01*
X199700000Y-62244999D02*
X199700000Y-61004999D01*
X200700000Y-52312999D02*
X200700000Y-51504999D01*
X200700000Y-57244999D02*
X200700000Y-55936999D01*
X200700000Y-62244999D02*
X200700000Y-61004999D01*
X202000000Y-53581999D02*
X202000000Y-51504999D01*
X202000000Y-57244999D02*
X202000000Y-54667999D01*
X202000000Y-62244999D02*
X202000000Y-61004999D01*
X204120000Y-51504999D02*
X204120000Y-58824999D01*
X204120000Y-59424999D02*
X204120000Y-62244999D01*
X204120000Y-62244999D02*
X196080000Y-62244999D01*
X204120000Y-59124999D02*
X204730000Y-58684999D01*
X204730000Y-59564999D01*
X204120000Y-59124999D01*
G36*
X204730000Y-59564999D02*
G01*
X204120000Y-59124999D01*
X204730000Y-58684999D01*
X204730000Y-59564999D01*
G37*
%TO.C,C201*%
X98020000Y-75380000D02*
X111260000Y-75380000D01*
X98020000Y-107120000D02*
X98020000Y-75380000D01*
X111260000Y-75380000D02*
X111260000Y-107120000D01*
X111260000Y-107120000D02*
X98020000Y-107120000D01*
%TO.C,C204*%
X150790000Y-75380000D02*
X164030000Y-75380000D01*
X150790000Y-107120000D02*
X150790000Y-75380000D01*
X164030000Y-75380000D02*
X164030000Y-107120000D01*
X164030000Y-107120000D02*
X150790000Y-107120000D01*
%TO.C,J3*%
X196580000Y-123710000D02*
X204620000Y-123710000D01*
X196580000Y-134450000D02*
X196580000Y-123710000D01*
X200200000Y-124518000D02*
X200200000Y-123710000D01*
X200200000Y-129450000D02*
X200200000Y-128142000D01*
X200200000Y-134450000D02*
X200200000Y-133210000D01*
X201200000Y-124518000D02*
X201200000Y-123710000D01*
X201200000Y-129450000D02*
X201200000Y-128142000D01*
X201200000Y-134450000D02*
X201200000Y-133210000D01*
X202500000Y-125787000D02*
X202500000Y-123710000D01*
X202500000Y-129450000D02*
X202500000Y-126873000D01*
X202500000Y-134450000D02*
X202500000Y-133210000D01*
X204620000Y-123710000D02*
X204620000Y-131030000D01*
X204620000Y-131630000D02*
X204620000Y-134450000D01*
X204620000Y-134450000D02*
X196580000Y-134450000D01*
X204620000Y-131330000D02*
X205230000Y-130890000D01*
X205230000Y-131770000D01*
X204620000Y-131330000D01*
G36*
X205230000Y-131770000D02*
G01*
X204620000Y-131330000D01*
X205230000Y-130890000D01*
X205230000Y-131770000D01*
G37*
%TO.C,R102*%
X76300000Y-64845000D02*
X101540000Y-64845000D01*
X76300000Y-68025000D02*
X76300000Y-64845000D01*
X76300000Y-70905000D02*
X76300000Y-74085000D01*
X76300000Y-74085000D02*
X101540000Y-74085000D01*
X101540000Y-64845000D02*
X101540000Y-68025000D01*
X101540000Y-74085000D02*
X101540000Y-70905000D01*
%TO.C,C205*%
X168380000Y-75380000D02*
X181620000Y-75380000D01*
X168380000Y-107120000D02*
X168380000Y-75380000D01*
X181620000Y-75380000D02*
X181620000Y-107120000D01*
X181620000Y-107120000D02*
X168380000Y-107120000D01*
%TO.C,C202*%
X115610000Y-75380000D02*
X128850000Y-75380000D01*
X115610000Y-107120000D02*
X115610000Y-75380000D01*
X128850000Y-75380000D02*
X128850000Y-107120000D01*
X128850000Y-107120000D02*
X115610000Y-107120000D01*
%TO.C,C206*%
X123380000Y-110380000D02*
X155120000Y-110380000D01*
X123380000Y-123620000D02*
X123380000Y-110380000D01*
X155120000Y-110380000D02*
X155120000Y-123620000D01*
X155120000Y-123620000D02*
X123380000Y-123620000D01*
%TO.C,L101*%
X62910000Y-49374999D02*
X69910000Y-49374999D01*
X69910000Y-64374999D01*
X62910000Y-64374999D01*
X62910000Y-49374999D01*
%TO.C,C103*%
X108560000Y-59800000D02*
X135300000Y-59800000D01*
X108560000Y-67040000D02*
X108560000Y-59800000D01*
X135300000Y-59800000D02*
X135300000Y-67040000D01*
X135300000Y-67040000D02*
X108560000Y-67040000D01*
%TO.C,C207*%
X126380000Y-128630000D02*
X153120000Y-128630000D01*
X126380000Y-137370000D02*
X126380000Y-128630000D01*
X153120000Y-128630000D02*
X153120000Y-137370000D01*
X153120000Y-137370000D02*
X126380000Y-137370000D01*
%TO.C,R202*%
X78180000Y-81880000D02*
X78180000Y-102120000D01*
X78180000Y-102120000D02*
X80060000Y-102120000D01*
X80060000Y-81880000D02*
X78180000Y-81880000D01*
X82940000Y-81880000D02*
X84820000Y-81880000D01*
X84820000Y-81880000D02*
X84820000Y-102120000D01*
X84820000Y-102120000D02*
X82940000Y-102120000D01*
%TO.C,C101*%
X75550000Y-39665000D02*
X102290000Y-39665000D01*
X75550000Y-46905000D02*
X75550000Y-39665000D01*
X102290000Y-39665000D02*
X102290000Y-46905000D01*
X102290000Y-46905000D02*
X75550000Y-46905000D01*
%TO.C,C102*%
X108560000Y-46709999D02*
X135300000Y-46709999D01*
X108560000Y-55449999D02*
X108560000Y-46709999D01*
X135300000Y-46709999D02*
X135300000Y-55449999D01*
X135300000Y-55449999D02*
X108560000Y-55449999D01*
%TO.C,C105*%
X162240000Y-60300000D02*
X188980000Y-60300000D01*
X162240000Y-69040000D02*
X162240000Y-60300000D01*
X188980000Y-60300000D02*
X188980000Y-69040000D01*
X188980000Y-69040000D02*
X162240000Y-69040000D01*
%TO.C,J1*%
X63839999Y-86185000D02*
X71879999Y-86185000D01*
X63839999Y-89005000D02*
X63839999Y-86185000D01*
X63839999Y-96925000D02*
X63839999Y-89605000D01*
X65959999Y-86185000D02*
X65959999Y-87425000D01*
X65959999Y-91185000D02*
X65959999Y-93762000D01*
X65959999Y-94848000D02*
X65959999Y-96925000D01*
X67259999Y-86185000D02*
X67259999Y-87425000D01*
X67259999Y-91185000D02*
X67259999Y-92493000D01*
X67259999Y-96117000D02*
X67259999Y-96925000D01*
X68259999Y-86185000D02*
X68259999Y-87425000D01*
X68259999Y-91185000D02*
X68259999Y-92493000D01*
X68259999Y-96117000D02*
X68259999Y-96925000D01*
X71879999Y-86185000D02*
X71879999Y-96925000D01*
X71879999Y-96925000D02*
X63839999Y-96925000D01*
X63839999Y-89305000D02*
X63229999Y-89745000D01*
X63229999Y-88865000D01*
X63839999Y-89305000D01*
G36*
X63839999Y-89305000D02*
G01*
X63229999Y-89745000D01*
X63229999Y-88865000D01*
X63839999Y-89305000D01*
G37*
%TO.C,L102*%
X140020000Y-53374999D02*
X155020000Y-53374999D01*
X155020000Y-60374999D01*
X140020000Y-60374999D01*
X140020000Y-53374999D01*
%TD*%
M02*
