M48
; DRILL file KiCad 10.0.6 date 2026-09-24T16:56:17
; FORMAT={-:-/ absolute / metric / decimal}
; #@! TF.CreationDate,2026-09-24T16:56:17+02:00
; #@! TF.GenerationSoftware,Kicad,Pcbnew,10.0.6
; #@! TF.FileFunction,MixedPlating,1,2
FMAT,2
METRIC
; #@! TA.AperFunction,Plated,PTH,ComponentDrill
T1C1.200
; #@! TA.AperFunction,Plated,PTH,ComponentDrill
T2C1.300
; #@! TA.AperFunction,Plated,PTH,ComponentDrill
T3C1.400
; #@! TA.AperFunction,NonPlated,NPTH,ComponentDrill
T4C4.300
%
G90
G05
T1
X74.95Y-55.875
X74.95Y-69.465
X77.67Y-43.285
X81.5Y-80.8
X81.5Y-103.2
X91.5Y-80.8
X91.5Y-103.2
X100.17Y-43.285
X102.89Y-55.875
X102.89Y-69.465
X104.64Y-77.5
X104.64Y-105.0
X110.68Y-51.08
X110.68Y-63.42
X122.23Y-77.5
X122.23Y-105.0
X125.5Y-117.0
X128.5Y-133.0
X133.18Y-51.08
X133.18Y-63.42
X139.82Y-77.5
X139.82Y-105.0
X151.0Y-133.0
X153.0Y-117.0
X157.41Y-77.5
X157.41Y-105.0
X161.86Y-50.33
X164.36Y-64.67
X175.0Y-77.5
X175.0Y-105.0
X186.86Y-64.67
X189.36Y-50.33
T2
X67.76Y-89.305
X67.76Y-94.305
X200.2Y-54.125
X200.2Y-59.125
X200.7Y-126.33
X200.7Y-131.33
T3
X66.41Y-51.795
X66.41Y-61.955
X110.5Y-122.42
X110.5Y-132.58
X142.44Y-56.875
X152.6Y-56.875
X200.5Y-86.17
X200.5Y-96.33
T4
X67.0Y-41.5
X67.0Y-139.5
X199.5Y-41.5
X199.5Y-139.5
M30
