%TF.GenerationSoftware,KiCad,Pcbnew,10.0.6*%
%TF.CreationDate,2026-09-24T16:56:17+02:00*%
%TF.ProjectId,illuminate7mk2-crossover,696c6c75-6d69-46e6-9174-65376d6b322d,rev?*%
%TF.SameCoordinates,Original*%
%TF.FileFunction,Copper,L1,Top*%
%TF.FilePolarity,Positive*%
%FSLAX46Y46*%
G04 Gerber Fmt 4.6, Leading zero omitted, Abs format (unit mm)*
G04 Created by KiCad (PCBNEW 10.0.6) date 2026-09-24 16:56:17*
%MOMM*%
%LPD*%
G01*
G04 APERTURE LIST*
G04 Aperture macros list*
%AMRoundRect*
0 Rectangle with rounded corners*
0 $1 Rounding radius*
0 $2 $3 $4 $5 $6 $7 $8 $9 X,Y pos of 4 corners*
0 Add a 4 corners polygon primitive as box body*
4,1,4,$2,$3,$4,$5,$6,$7,$8,$9,$2,$3,0*
0 Add four circle primitives for the rounded corners*
1,1,$1+$1,$2,$3*
1,1,$1+$1,$4,$5*
1,1,$1+$1,$6,$7*
1,1,$1+$1,$8,$9*
0 Add four rect primitives between the rounded corners*
20,1,$1+$1,$2,$3,$4,$5,0*
20,1,$1+$1,$4,$5,$6,$7,0*
20,1,$1+$1,$6,$7,$8,$9,0*
20,1,$1+$1,$8,$9,$2,$3,0*%
G04 Aperture macros list end*
%TA.AperFunction,ComponentPad*%
%ADD10C,2.400000*%
%TD*%
%TA.AperFunction,ComponentPad*%
%ADD11C,3.200000*%
%TD*%
%TA.AperFunction,ComponentPad*%
%ADD12RoundRect,0.250001X1.149999X-1.149999X1.149999X1.149999X-1.149999X1.149999X-1.149999X-1.149999X0*%
%TD*%
%TA.AperFunction,ComponentPad*%
%ADD13C,2.800000*%
%TD*%
%TA.AperFunction,ComponentPad*%
%ADD14RoundRect,0.250001X-1.149999X1.149999X-1.149999X-1.149999X1.149999X-1.149999X1.149999X1.149999X0*%
%TD*%
G04 APERTURE END LIST*
D10*
%TO.P,C104,1*%
%TO.N,/TW_B*%
X161860000Y-50329999D03*
%TO.P,C104,2*%
%TO.N,/TW+*%
X189360000Y-50329999D03*
%TD*%
D11*
%TO.P,L201,1*%
%TO.N,/IN+*%
X200500000Y-96330000D03*
%TO.P,L201,2*%
%TO.N,/WF_C*%
X200500000Y-86170000D03*
%TD*%
D10*
%TO.P,C203,1*%
%TO.N,/IN+*%
X139820000Y-105000000D03*
%TO.P,C203,2*%
%TO.N,/WF_C*%
X139820000Y-77500000D03*
%TD*%
D11*
%TO.P,L202,1*%
%TO.N,/WF_C*%
X110500000Y-132580000D03*
%TO.P,L202,2*%
%TO.N,/WF_D*%
X110500000Y-122420000D03*
%TD*%
D10*
%TO.P,R101,1*%
%TO.N,/IN+*%
X74950000Y-55874999D03*
%TO.P,R101,2*%
%TO.N,Net-(R101-Pad2)*%
X102890000Y-55874999D03*
%TD*%
%TO.P,R201,1*%
%TO.N,/IN+*%
X91500000Y-103200000D03*
%TO.P,R201,2*%
%TO.N,Net-(R201-Pad2)*%
X91500000Y-80800000D03*
%TD*%
D12*
%TO.P,J2,1*%
%TO.N,/TW+*%
X200200000Y-59124999D03*
D13*
%TO.P,J2,2*%
%TO.N,GND*%
X200200000Y-54124999D03*
%TD*%
D10*
%TO.P,C201,1*%
%TO.N,/IN+*%
X104640000Y-105000000D03*
%TO.P,C201,2*%
%TO.N,/WF_C*%
X104640000Y-77500000D03*
%TD*%
%TO.P,C204,1*%
%TO.N,/IN+*%
X157410000Y-105000000D03*
%TO.P,C204,2*%
%TO.N,/WF_C*%
X157410000Y-77500000D03*
%TD*%
D12*
%TO.P,J3,1*%
%TO.N,/WF_D*%
X200700000Y-131330000D03*
D13*
%TO.P,J3,2*%
%TO.N,GND*%
X200700000Y-126330000D03*
%TD*%
D10*
%TO.P,R102,1*%
%TO.N,Net-(R101-Pad2)*%
X74950000Y-69465000D03*
%TO.P,R102,2*%
%TO.N,/TW_A*%
X102890000Y-69465000D03*
%TD*%
%TO.P,C205,1*%
%TO.N,/IN+*%
X175000000Y-105000000D03*
%TO.P,C205,2*%
%TO.N,/WF_C*%
X175000000Y-77500000D03*
%TD*%
%TO.P,C202,1*%
%TO.N,/IN+*%
X122230000Y-105000000D03*
%TO.P,C202,2*%
%TO.N,/WF_C*%
X122230000Y-77500000D03*
%TD*%
%TO.P,C206,1*%
%TO.N,/WF_D*%
X125500000Y-117000000D03*
%TO.P,C206,2*%
%TO.N,GND*%
X153000000Y-117000000D03*
%TD*%
D11*
%TO.P,L101,1*%
%TO.N,/IN+*%
X66410000Y-61954999D03*
%TO.P,L101,2*%
%TO.N,/TW_A*%
X66410000Y-51794999D03*
%TD*%
D10*
%TO.P,C103,1*%
%TO.N,/TW_A*%
X110680000Y-63420000D03*
%TO.P,C103,2*%
%TO.N,/TW_B*%
X133180000Y-63420000D03*
%TD*%
%TO.P,C207,1*%
%TO.N,/WF_D*%
X128500000Y-133000000D03*
%TO.P,C207,2*%
%TO.N,GND*%
X151000000Y-133000000D03*
%TD*%
%TO.P,R202,1*%
%TO.N,Net-(R201-Pad2)*%
X81500000Y-80800000D03*
%TO.P,R202,2*%
%TO.N,/WF_C*%
X81500000Y-103200000D03*
%TD*%
%TO.P,C101,1*%
%TO.N,/IN+*%
X77670000Y-43285000D03*
%TO.P,C101,2*%
%TO.N,/TW_A*%
X100170000Y-43285000D03*
%TD*%
%TO.P,C102,1*%
%TO.N,/TW_A*%
X110680000Y-51079999D03*
%TO.P,C102,2*%
%TO.N,/TW_B*%
X133180000Y-51079999D03*
%TD*%
%TO.P,C105,1*%
%TO.N,/TW_B*%
X164360000Y-64670000D03*
%TO.P,C105,2*%
%TO.N,/TW+*%
X186860000Y-64670000D03*
%TD*%
D14*
%TO.P,J1,1*%
%TO.N,/IN+*%
X67759999Y-89305000D03*
D13*
%TO.P,J1,2*%
%TO.N,GND*%
X67759999Y-94305000D03*
%TD*%
D11*
%TO.P,L102,1*%
%TO.N,/TW_B*%
X142440000Y-56874999D03*
%TO.P,L102,2*%
%TO.N,GND*%
X152600000Y-56874999D03*
%TD*%
M02*
