%TF.GenerationSoftware,KiCad,Pcbnew,10.0.6*%
%TF.CreationDate,2026-09-24T16:56:17+02:00*%
%TF.ProjectId,illuminate7mk2-crossover,696c6c75-6d69-46e6-9174-65376d6b322d,rev?*%
%TF.SameCoordinates,Original*%
%TF.FileFunction,AssemblyDrawing,Top*%
%FSLAX46Y46*%
G04 Gerber Fmt 4.6, Leading zero omitted, Abs format (unit mm)*
G04 Created by KiCad (PCBNEW 10.0.6) date 2026-09-24 16:56:17*
%MOMM*%
%LPD*%
G01*
G04 APERTURE LIST*
%ADD10C,0.150000*%
%ADD11C,0.100000*%
G04 APERTURE END LIST*
D10*
X174871904Y-56534818D02*
X174681428Y-56534818D01*
X174681428Y-56534818D02*
X174586190Y-56582437D01*
X174586190Y-56582437D02*
X174538571Y-56630056D01*
X174538571Y-56630056D02*
X174443333Y-56772913D01*
X174443333Y-56772913D02*
X174395714Y-56963389D01*
X174395714Y-56963389D02*
X174395714Y-57344341D01*
X174395714Y-57344341D02*
X174443333Y-57439579D01*
X174443333Y-57439579D02*
X174490952Y-57487199D01*
X174490952Y-57487199D02*
X174586190Y-57534818D01*
X174586190Y-57534818D02*
X174776666Y-57534818D01*
X174776666Y-57534818D02*
X174871904Y-57487199D01*
X174871904Y-57487199D02*
X174919523Y-57439579D01*
X174919523Y-57439579D02*
X174967142Y-57344341D01*
X174967142Y-57344341D02*
X174967142Y-57106246D01*
X174967142Y-57106246D02*
X174919523Y-57011008D01*
X174919523Y-57011008D02*
X174871904Y-56963389D01*
X174871904Y-56963389D02*
X174776666Y-56915770D01*
X174776666Y-56915770D02*
X174586190Y-56915770D01*
X174586190Y-56915770D02*
X174490952Y-56963389D01*
X174490952Y-56963389D02*
X174443333Y-57011008D01*
X174443333Y-57011008D02*
X174395714Y-57106246D01*
X175824285Y-56868151D02*
X175824285Y-57534818D01*
X175395714Y-56868151D02*
X175395714Y-57391960D01*
X175395714Y-57391960D02*
X175443333Y-57487199D01*
X175443333Y-57487199D02*
X175538571Y-57534818D01*
X175538571Y-57534818D02*
X175681428Y-57534818D01*
X175681428Y-57534818D02*
X175776666Y-57487199D01*
X175776666Y-57487199D02*
X175824285Y-57439579D01*
X176443333Y-56963389D02*
X176348095Y-56915770D01*
X176348095Y-56915770D02*
X176300476Y-56868151D01*
X176300476Y-56868151D02*
X176252857Y-56772913D01*
X176252857Y-56772913D02*
X176252857Y-56725294D01*
X176252857Y-56725294D02*
X176300476Y-56630056D01*
X176300476Y-56630056D02*
X176348095Y-56582437D01*
X176348095Y-56582437D02*
X176443333Y-56534818D01*
X176443333Y-56534818D02*
X176633809Y-56534818D01*
X176633809Y-56534818D02*
X176729047Y-56582437D01*
X176729047Y-56582437D02*
X176776666Y-56630056D01*
X176776666Y-56630056D02*
X176824285Y-56725294D01*
X176824285Y-56725294D02*
X176824285Y-56772913D01*
X176824285Y-56772913D02*
X176776666Y-56868151D01*
X176776666Y-56868151D02*
X176729047Y-56915770D01*
X176729047Y-56915770D02*
X176633809Y-56963389D01*
X176633809Y-56963389D02*
X176443333Y-56963389D01*
X176443333Y-56963389D02*
X176348095Y-57011008D01*
X176348095Y-57011008D02*
X176300476Y-57058627D01*
X176300476Y-57058627D02*
X176252857Y-57153865D01*
X176252857Y-57153865D02*
X176252857Y-57344341D01*
X176252857Y-57344341D02*
X176300476Y-57439579D01*
X176300476Y-57439579D02*
X176348095Y-57487199D01*
X176348095Y-57487199D02*
X176443333Y-57534818D01*
X176443333Y-57534818D02*
X176633809Y-57534818D01*
X176633809Y-57534818D02*
X176729047Y-57487199D01*
X176729047Y-57487199D02*
X176776666Y-57439579D01*
X176776666Y-57439579D02*
X176824285Y-57344341D01*
X176824285Y-57344341D02*
X176824285Y-57153865D01*
X176824285Y-57153865D02*
X176776666Y-57058627D01*
X176776666Y-57058627D02*
X176729047Y-57011008D01*
X176729047Y-57011008D02*
X176633809Y-56963389D01*
X174490952Y-50689579D02*
X174443333Y-50737199D01*
X174443333Y-50737199D02*
X174300476Y-50784818D01*
X174300476Y-50784818D02*
X174205238Y-50784818D01*
X174205238Y-50784818D02*
X174062381Y-50737199D01*
X174062381Y-50737199D02*
X173967143Y-50641960D01*
X173967143Y-50641960D02*
X173919524Y-50546722D01*
X173919524Y-50546722D02*
X173871905Y-50356246D01*
X173871905Y-50356246D02*
X173871905Y-50213389D01*
X173871905Y-50213389D02*
X173919524Y-50022913D01*
X173919524Y-50022913D02*
X173967143Y-49927675D01*
X173967143Y-49927675D02*
X174062381Y-49832437D01*
X174062381Y-49832437D02*
X174205238Y-49784818D01*
X174205238Y-49784818D02*
X174300476Y-49784818D01*
X174300476Y-49784818D02*
X174443333Y-49832437D01*
X174443333Y-49832437D02*
X174490952Y-49880056D01*
X175443333Y-50784818D02*
X174871905Y-50784818D01*
X175157619Y-50784818D02*
X175157619Y-49784818D01*
X175157619Y-49784818D02*
X175062381Y-49927675D01*
X175062381Y-49927675D02*
X174967143Y-50022913D01*
X174967143Y-50022913D02*
X174871905Y-50070532D01*
X176062381Y-49784818D02*
X176157619Y-49784818D01*
X176157619Y-49784818D02*
X176252857Y-49832437D01*
X176252857Y-49832437D02*
X176300476Y-49880056D01*
X176300476Y-49880056D02*
X176348095Y-49975294D01*
X176348095Y-49975294D02*
X176395714Y-50165770D01*
X176395714Y-50165770D02*
X176395714Y-50403865D01*
X176395714Y-50403865D02*
X176348095Y-50594341D01*
X176348095Y-50594341D02*
X176300476Y-50689579D01*
X176300476Y-50689579D02*
X176252857Y-50737199D01*
X176252857Y-50737199D02*
X176157619Y-50784818D01*
X176157619Y-50784818D02*
X176062381Y-50784818D01*
X176062381Y-50784818D02*
X175967143Y-50737199D01*
X175967143Y-50737199D02*
X175919524Y-50689579D01*
X175919524Y-50689579D02*
X175871905Y-50594341D01*
X175871905Y-50594341D02*
X175824286Y-50403865D01*
X175824286Y-50403865D02*
X175824286Y-50165770D01*
X175824286Y-50165770D02*
X175871905Y-49975294D01*
X175871905Y-49975294D02*
X175919524Y-49880056D01*
X175919524Y-49880056D02*
X175967143Y-49832437D01*
X175967143Y-49832437D02*
X176062381Y-49784818D01*
X177252857Y-50118151D02*
X177252857Y-50784818D01*
X177014762Y-49737199D02*
X176776667Y-50451484D01*
X176776667Y-50451484D02*
X177395714Y-50451484D01*
X205154819Y-93678570D02*
X205154819Y-93583332D01*
X205154819Y-93583332D02*
X205202438Y-93488094D01*
X205202438Y-93488094D02*
X205250057Y-93440475D01*
X205250057Y-93440475D02*
X205345295Y-93392856D01*
X205345295Y-93392856D02*
X205535771Y-93345237D01*
X205535771Y-93345237D02*
X205773866Y-93345237D01*
X205773866Y-93345237D02*
X205964342Y-93392856D01*
X205964342Y-93392856D02*
X206059580Y-93440475D01*
X206059580Y-93440475D02*
X206107200Y-93488094D01*
X206107200Y-93488094D02*
X206154819Y-93583332D01*
X206154819Y-93583332D02*
X206154819Y-93678570D01*
X206154819Y-93678570D02*
X206107200Y-93773808D01*
X206107200Y-93773808D02*
X206059580Y-93821427D01*
X206059580Y-93821427D02*
X205964342Y-93869046D01*
X205964342Y-93869046D02*
X205773866Y-93916665D01*
X205773866Y-93916665D02*
X205535771Y-93916665D01*
X205535771Y-93916665D02*
X205345295Y-93869046D01*
X205345295Y-93869046D02*
X205250057Y-93821427D01*
X205250057Y-93821427D02*
X205202438Y-93773808D01*
X205202438Y-93773808D02*
X205154819Y-93678570D01*
X206059580Y-92916665D02*
X206107200Y-92869046D01*
X206107200Y-92869046D02*
X206154819Y-92916665D01*
X206154819Y-92916665D02*
X206107200Y-92964284D01*
X206107200Y-92964284D02*
X206059580Y-92916665D01*
X206059580Y-92916665D02*
X206154819Y-92916665D01*
X205154819Y-92535713D02*
X205154819Y-91869047D01*
X205154819Y-91869047D02*
X206154819Y-92297618D01*
X205154819Y-91297618D02*
X205154819Y-91202380D01*
X205154819Y-91202380D02*
X205202438Y-91107142D01*
X205202438Y-91107142D02*
X205250057Y-91059523D01*
X205250057Y-91059523D02*
X205345295Y-91011904D01*
X205345295Y-91011904D02*
X205535771Y-90964285D01*
X205535771Y-90964285D02*
X205773866Y-90964285D01*
X205773866Y-90964285D02*
X205964342Y-91011904D01*
X205964342Y-91011904D02*
X206059580Y-91059523D01*
X206059580Y-91059523D02*
X206107200Y-91107142D01*
X206107200Y-91107142D02*
X206154819Y-91202380D01*
X206154819Y-91202380D02*
X206154819Y-91297618D01*
X206154819Y-91297618D02*
X206107200Y-91392856D01*
X206107200Y-91392856D02*
X206059580Y-91440475D01*
X206059580Y-91440475D02*
X205964342Y-91488094D01*
X205964342Y-91488094D02*
X205773866Y-91535713D01*
X205773866Y-91535713D02*
X205535771Y-91535713D01*
X205535771Y-91535713D02*
X205345295Y-91488094D01*
X205345295Y-91488094D02*
X205250057Y-91440475D01*
X205250057Y-91440475D02*
X205202438Y-91392856D01*
X205202438Y-91392856D02*
X205154819Y-91297618D01*
X206154819Y-90535713D02*
X205488152Y-90535713D01*
X205583390Y-90535713D02*
X205535771Y-90488094D01*
X205535771Y-90488094D02*
X205488152Y-90392856D01*
X205488152Y-90392856D02*
X205488152Y-90249999D01*
X205488152Y-90249999D02*
X205535771Y-90154761D01*
X205535771Y-90154761D02*
X205631009Y-90107142D01*
X205631009Y-90107142D02*
X206154819Y-90107142D01*
X205631009Y-90107142D02*
X205535771Y-90059523D01*
X205535771Y-90059523D02*
X205488152Y-89964285D01*
X205488152Y-89964285D02*
X205488152Y-89821428D01*
X205488152Y-89821428D02*
X205535771Y-89726189D01*
X205535771Y-89726189D02*
X205631009Y-89678570D01*
X205631009Y-89678570D02*
X206154819Y-89678570D01*
X206154819Y-89202380D02*
X205154819Y-89202380D01*
X205631009Y-89202380D02*
X205631009Y-88630952D01*
X206154819Y-88630952D02*
X205154819Y-88630952D01*
X66190476Y-46654819D02*
X66190476Y-45654819D01*
X66190476Y-45654819D02*
X66523809Y-46369104D01*
X66523809Y-46369104D02*
X66857142Y-45654819D01*
X66857142Y-45654819D02*
X66857142Y-46654819D01*
X67761904Y-45988152D02*
X67761904Y-46654819D01*
X67523809Y-45607200D02*
X67285714Y-46321485D01*
X67285714Y-46321485D02*
X67904761Y-46321485D01*
X66238095Y-41954819D02*
X66238095Y-40954819D01*
X66238095Y-41431009D02*
X66809523Y-41431009D01*
X66809523Y-41954819D02*
X66809523Y-40954819D01*
X67809523Y-41954819D02*
X67238095Y-41954819D01*
X67523809Y-41954819D02*
X67523809Y-40954819D01*
X67523809Y-40954819D02*
X67428571Y-41097676D01*
X67428571Y-41097676D02*
X67333333Y-41192914D01*
X67333333Y-41192914D02*
X67238095Y-41240533D01*
X147453390Y-92273809D02*
X147405771Y-92369047D01*
X147405771Y-92369047D02*
X147358152Y-92416666D01*
X147358152Y-92416666D02*
X147262914Y-92464285D01*
X147262914Y-92464285D02*
X147215295Y-92464285D01*
X147215295Y-92464285D02*
X147120057Y-92416666D01*
X147120057Y-92416666D02*
X147072438Y-92369047D01*
X147072438Y-92369047D02*
X147024819Y-92273809D01*
X147024819Y-92273809D02*
X147024819Y-92083333D01*
X147024819Y-92083333D02*
X147072438Y-91988095D01*
X147072438Y-91988095D02*
X147120057Y-91940476D01*
X147120057Y-91940476D02*
X147215295Y-91892857D01*
X147215295Y-91892857D02*
X147262914Y-91892857D01*
X147262914Y-91892857D02*
X147358152Y-91940476D01*
X147358152Y-91940476D02*
X147405771Y-91988095D01*
X147405771Y-91988095D02*
X147453390Y-92083333D01*
X147453390Y-92083333D02*
X147453390Y-92273809D01*
X147453390Y-92273809D02*
X147501009Y-92369047D01*
X147501009Y-92369047D02*
X147548628Y-92416666D01*
X147548628Y-92416666D02*
X147643866Y-92464285D01*
X147643866Y-92464285D02*
X147834342Y-92464285D01*
X147834342Y-92464285D02*
X147929580Y-92416666D01*
X147929580Y-92416666D02*
X147977200Y-92369047D01*
X147977200Y-92369047D02*
X148024819Y-92273809D01*
X148024819Y-92273809D02*
X148024819Y-92083333D01*
X148024819Y-92083333D02*
X147977200Y-91988095D01*
X147977200Y-91988095D02*
X147929580Y-91940476D01*
X147929580Y-91940476D02*
X147834342Y-91892857D01*
X147834342Y-91892857D02*
X147643866Y-91892857D01*
X147643866Y-91892857D02*
X147548628Y-91940476D01*
X147548628Y-91940476D02*
X147501009Y-91988095D01*
X147501009Y-91988095D02*
X147453390Y-92083333D01*
X147358152Y-91035714D02*
X148024819Y-91035714D01*
X147358152Y-91464285D02*
X147881961Y-91464285D01*
X147881961Y-91464285D02*
X147977200Y-91416666D01*
X147977200Y-91416666D02*
X148024819Y-91321428D01*
X148024819Y-91321428D02*
X148024819Y-91178571D01*
X148024819Y-91178571D02*
X147977200Y-91083333D01*
X147977200Y-91083333D02*
X147929580Y-91035714D01*
X147120057Y-90607142D02*
X147072438Y-90559523D01*
X147072438Y-90559523D02*
X147024819Y-90464285D01*
X147024819Y-90464285D02*
X147024819Y-90226190D01*
X147024819Y-90226190D02*
X147072438Y-90130952D01*
X147072438Y-90130952D02*
X147120057Y-90083333D01*
X147120057Y-90083333D02*
X147215295Y-90035714D01*
X147215295Y-90035714D02*
X147310533Y-90035714D01*
X147310533Y-90035714D02*
X147453390Y-90083333D01*
X147453390Y-90083333D02*
X148024819Y-90654761D01*
X148024819Y-90654761D02*
X148024819Y-90035714D01*
X140179580Y-92369047D02*
X140227200Y-92416666D01*
X140227200Y-92416666D02*
X140274819Y-92559523D01*
X140274819Y-92559523D02*
X140274819Y-92654761D01*
X140274819Y-92654761D02*
X140227200Y-92797618D01*
X140227200Y-92797618D02*
X140131961Y-92892856D01*
X140131961Y-92892856D02*
X140036723Y-92940475D01*
X140036723Y-92940475D02*
X139846247Y-92988094D01*
X139846247Y-92988094D02*
X139703390Y-92988094D01*
X139703390Y-92988094D02*
X139512914Y-92940475D01*
X139512914Y-92940475D02*
X139417676Y-92892856D01*
X139417676Y-92892856D02*
X139322438Y-92797618D01*
X139322438Y-92797618D02*
X139274819Y-92654761D01*
X139274819Y-92654761D02*
X139274819Y-92559523D01*
X139274819Y-92559523D02*
X139322438Y-92416666D01*
X139322438Y-92416666D02*
X139370057Y-92369047D01*
X139370057Y-91988094D02*
X139322438Y-91940475D01*
X139322438Y-91940475D02*
X139274819Y-91845237D01*
X139274819Y-91845237D02*
X139274819Y-91607142D01*
X139274819Y-91607142D02*
X139322438Y-91511904D01*
X139322438Y-91511904D02*
X139370057Y-91464285D01*
X139370057Y-91464285D02*
X139465295Y-91416666D01*
X139465295Y-91416666D02*
X139560533Y-91416666D01*
X139560533Y-91416666D02*
X139703390Y-91464285D01*
X139703390Y-91464285D02*
X140274819Y-92035713D01*
X140274819Y-92035713D02*
X140274819Y-91416666D01*
X139274819Y-90797618D02*
X139274819Y-90702380D01*
X139274819Y-90702380D02*
X139322438Y-90607142D01*
X139322438Y-90607142D02*
X139370057Y-90559523D01*
X139370057Y-90559523D02*
X139465295Y-90511904D01*
X139465295Y-90511904D02*
X139655771Y-90464285D01*
X139655771Y-90464285D02*
X139893866Y-90464285D01*
X139893866Y-90464285D02*
X140084342Y-90511904D01*
X140084342Y-90511904D02*
X140179580Y-90559523D01*
X140179580Y-90559523D02*
X140227200Y-90607142D01*
X140227200Y-90607142D02*
X140274819Y-90702380D01*
X140274819Y-90702380D02*
X140274819Y-90797618D01*
X140274819Y-90797618D02*
X140227200Y-90892856D01*
X140227200Y-90892856D02*
X140179580Y-90940475D01*
X140179580Y-90940475D02*
X140084342Y-90988094D01*
X140084342Y-90988094D02*
X139893866Y-91035713D01*
X139893866Y-91035713D02*
X139655771Y-91035713D01*
X139655771Y-91035713D02*
X139465295Y-90988094D01*
X139465295Y-90988094D02*
X139370057Y-90940475D01*
X139370057Y-90940475D02*
X139322438Y-90892856D01*
X139322438Y-90892856D02*
X139274819Y-90797618D01*
X139274819Y-90130951D02*
X139274819Y-89511904D01*
X139274819Y-89511904D02*
X139655771Y-89845237D01*
X139655771Y-89845237D02*
X139655771Y-89702380D01*
X139655771Y-89702380D02*
X139703390Y-89607142D01*
X139703390Y-89607142D02*
X139751009Y-89559523D01*
X139751009Y-89559523D02*
X139846247Y-89511904D01*
X139846247Y-89511904D02*
X140084342Y-89511904D01*
X140084342Y-89511904D02*
X140179580Y-89559523D01*
X140179580Y-89559523D02*
X140227200Y-89607142D01*
X140227200Y-89607142D02*
X140274819Y-89702380D01*
X140274819Y-89702380D02*
X140274819Y-89988094D01*
X140274819Y-89988094D02*
X140227200Y-90083332D01*
X140227200Y-90083332D02*
X140179580Y-90130951D01*
X115250057Y-129690475D02*
X115202438Y-129642856D01*
X115202438Y-129642856D02*
X115154819Y-129547618D01*
X115154819Y-129547618D02*
X115154819Y-129309523D01*
X115154819Y-129309523D02*
X115202438Y-129214285D01*
X115202438Y-129214285D02*
X115250057Y-129166666D01*
X115250057Y-129166666D02*
X115345295Y-129119047D01*
X115345295Y-129119047D02*
X115440533Y-129119047D01*
X115440533Y-129119047D02*
X115583390Y-129166666D01*
X115583390Y-129166666D02*
X116154819Y-129738094D01*
X116154819Y-129738094D02*
X116154819Y-129119047D01*
X116059580Y-128690475D02*
X116107200Y-128642856D01*
X116107200Y-128642856D02*
X116154819Y-128690475D01*
X116154819Y-128690475D02*
X116107200Y-128738094D01*
X116107200Y-128738094D02*
X116059580Y-128690475D01*
X116059580Y-128690475D02*
X116154819Y-128690475D01*
X115154819Y-128023809D02*
X115154819Y-127928571D01*
X115154819Y-127928571D02*
X115202438Y-127833333D01*
X115202438Y-127833333D02*
X115250057Y-127785714D01*
X115250057Y-127785714D02*
X115345295Y-127738095D01*
X115345295Y-127738095D02*
X115535771Y-127690476D01*
X115535771Y-127690476D02*
X115773866Y-127690476D01*
X115773866Y-127690476D02*
X115964342Y-127738095D01*
X115964342Y-127738095D02*
X116059580Y-127785714D01*
X116059580Y-127785714D02*
X116107200Y-127833333D01*
X116107200Y-127833333D02*
X116154819Y-127928571D01*
X116154819Y-127928571D02*
X116154819Y-128023809D01*
X116154819Y-128023809D02*
X116107200Y-128119047D01*
X116107200Y-128119047D02*
X116059580Y-128166666D01*
X116059580Y-128166666D02*
X115964342Y-128214285D01*
X115964342Y-128214285D02*
X115773866Y-128261904D01*
X115773866Y-128261904D02*
X115535771Y-128261904D01*
X115535771Y-128261904D02*
X115345295Y-128214285D01*
X115345295Y-128214285D02*
X115250057Y-128166666D01*
X115250057Y-128166666D02*
X115202438Y-128119047D01*
X115202438Y-128119047D02*
X115154819Y-128023809D01*
X116154819Y-127261904D02*
X115488152Y-127261904D01*
X115583390Y-127261904D02*
X115535771Y-127214285D01*
X115535771Y-127214285D02*
X115488152Y-127119047D01*
X115488152Y-127119047D02*
X115488152Y-126976190D01*
X115488152Y-126976190D02*
X115535771Y-126880952D01*
X115535771Y-126880952D02*
X115631009Y-126833333D01*
X115631009Y-126833333D02*
X116154819Y-126833333D01*
X115631009Y-126833333D02*
X115535771Y-126785714D01*
X115535771Y-126785714D02*
X115488152Y-126690476D01*
X115488152Y-126690476D02*
X115488152Y-126547619D01*
X115488152Y-126547619D02*
X115535771Y-126452380D01*
X115535771Y-126452380D02*
X115631009Y-126404761D01*
X115631009Y-126404761D02*
X116154819Y-126404761D01*
X116154819Y-125928571D02*
X115154819Y-125928571D01*
X115631009Y-125928571D02*
X115631009Y-125357143D01*
X116154819Y-125357143D02*
X115154819Y-125357143D01*
X86705714Y-61283151D02*
X86705714Y-61949818D01*
X86467619Y-60902199D02*
X86229524Y-61616484D01*
X86229524Y-61616484D02*
X86848571Y-61616484D01*
X87800952Y-61949818D02*
X87467619Y-61473627D01*
X87229524Y-61949818D02*
X87229524Y-60949818D01*
X87229524Y-60949818D02*
X87610476Y-60949818D01*
X87610476Y-60949818D02*
X87705714Y-60997437D01*
X87705714Y-60997437D02*
X87753333Y-61045056D01*
X87753333Y-61045056D02*
X87800952Y-61140294D01*
X87800952Y-61140294D02*
X87800952Y-61283151D01*
X87800952Y-61283151D02*
X87753333Y-61378389D01*
X87753333Y-61378389D02*
X87705714Y-61426008D01*
X87705714Y-61426008D02*
X87610476Y-61473627D01*
X87610476Y-61473627D02*
X87229524Y-61473627D01*
X88134286Y-60949818D02*
X88800952Y-60949818D01*
X88800952Y-60949818D02*
X88372381Y-61949818D01*
X90420000Y-60949818D02*
X89943810Y-60949818D01*
X89943810Y-60949818D02*
X89896191Y-61426008D01*
X89896191Y-61426008D02*
X89943810Y-61378389D01*
X89943810Y-61378389D02*
X90039048Y-61330770D01*
X90039048Y-61330770D02*
X90277143Y-61330770D01*
X90277143Y-61330770D02*
X90372381Y-61378389D01*
X90372381Y-61378389D02*
X90420000Y-61426008D01*
X90420000Y-61426008D02*
X90467619Y-61521246D01*
X90467619Y-61521246D02*
X90467619Y-61759341D01*
X90467619Y-61759341D02*
X90420000Y-61854579D01*
X90420000Y-61854579D02*
X90372381Y-61902199D01*
X90372381Y-61902199D02*
X90277143Y-61949818D01*
X90277143Y-61949818D02*
X90039048Y-61949818D01*
X90039048Y-61949818D02*
X89943810Y-61902199D01*
X89943810Y-61902199D02*
X89896191Y-61854579D01*
X90800953Y-60949818D02*
X91039048Y-61949818D01*
X91039048Y-61949818D02*
X91229524Y-61235532D01*
X91229524Y-61235532D02*
X91420000Y-61949818D01*
X91420000Y-61949818D02*
X91658096Y-60949818D01*
X87800952Y-56329818D02*
X87467619Y-55853627D01*
X87229524Y-56329818D02*
X87229524Y-55329818D01*
X87229524Y-55329818D02*
X87610476Y-55329818D01*
X87610476Y-55329818D02*
X87705714Y-55377437D01*
X87705714Y-55377437D02*
X87753333Y-55425056D01*
X87753333Y-55425056D02*
X87800952Y-55520294D01*
X87800952Y-55520294D02*
X87800952Y-55663151D01*
X87800952Y-55663151D02*
X87753333Y-55758389D01*
X87753333Y-55758389D02*
X87705714Y-55806008D01*
X87705714Y-55806008D02*
X87610476Y-55853627D01*
X87610476Y-55853627D02*
X87229524Y-55853627D01*
X88753333Y-56329818D02*
X88181905Y-56329818D01*
X88467619Y-56329818D02*
X88467619Y-55329818D01*
X88467619Y-55329818D02*
X88372381Y-55472675D01*
X88372381Y-55472675D02*
X88277143Y-55567913D01*
X88277143Y-55567913D02*
X88181905Y-55615532D01*
X89372381Y-55329818D02*
X89467619Y-55329818D01*
X89467619Y-55329818D02*
X89562857Y-55377437D01*
X89562857Y-55377437D02*
X89610476Y-55425056D01*
X89610476Y-55425056D02*
X89658095Y-55520294D01*
X89658095Y-55520294D02*
X89705714Y-55710770D01*
X89705714Y-55710770D02*
X89705714Y-55948865D01*
X89705714Y-55948865D02*
X89658095Y-56139341D01*
X89658095Y-56139341D02*
X89610476Y-56234579D01*
X89610476Y-56234579D02*
X89562857Y-56282199D01*
X89562857Y-56282199D02*
X89467619Y-56329818D01*
X89467619Y-56329818D02*
X89372381Y-56329818D01*
X89372381Y-56329818D02*
X89277143Y-56282199D01*
X89277143Y-56282199D02*
X89229524Y-56234579D01*
X89229524Y-56234579D02*
X89181905Y-56139341D01*
X89181905Y-56139341D02*
X89134286Y-55948865D01*
X89134286Y-55948865D02*
X89134286Y-55710770D01*
X89134286Y-55710770D02*
X89181905Y-55520294D01*
X89181905Y-55520294D02*
X89229524Y-55425056D01*
X89229524Y-55425056D02*
X89277143Y-55377437D01*
X89277143Y-55377437D02*
X89372381Y-55329818D01*
X90658095Y-56329818D02*
X90086667Y-56329818D01*
X90372381Y-56329818D02*
X90372381Y-55329818D01*
X90372381Y-55329818D02*
X90277143Y-55472675D01*
X90277143Y-55472675D02*
X90181905Y-55567913D01*
X90181905Y-55567913D02*
X90086667Y-55615532D01*
X96274819Y-94119047D02*
X96274819Y-94690475D01*
X96274819Y-94404761D02*
X95274819Y-94404761D01*
X95274819Y-94404761D02*
X95417676Y-94499999D01*
X95417676Y-94499999D02*
X95512914Y-94595237D01*
X95512914Y-94595237D02*
X95560533Y-94690475D01*
X95274819Y-93499999D02*
X95274819Y-93404761D01*
X95274819Y-93404761D02*
X95322438Y-93309523D01*
X95322438Y-93309523D02*
X95370057Y-93261904D01*
X95370057Y-93261904D02*
X95465295Y-93214285D01*
X95465295Y-93214285D02*
X95655771Y-93166666D01*
X95655771Y-93166666D02*
X95893866Y-93166666D01*
X95893866Y-93166666D02*
X96084342Y-93214285D01*
X96084342Y-93214285D02*
X96179580Y-93261904D01*
X96179580Y-93261904D02*
X96227200Y-93309523D01*
X96227200Y-93309523D02*
X96274819Y-93404761D01*
X96274819Y-93404761D02*
X96274819Y-93499999D01*
X96274819Y-93499999D02*
X96227200Y-93595237D01*
X96227200Y-93595237D02*
X96179580Y-93642856D01*
X96179580Y-93642856D02*
X96084342Y-93690475D01*
X96084342Y-93690475D02*
X95893866Y-93738094D01*
X95893866Y-93738094D02*
X95655771Y-93738094D01*
X95655771Y-93738094D02*
X95465295Y-93690475D01*
X95465295Y-93690475D02*
X95370057Y-93642856D01*
X95370057Y-93642856D02*
X95322438Y-93595237D01*
X95322438Y-93595237D02*
X95274819Y-93499999D01*
X96274819Y-92166666D02*
X95798628Y-92499999D01*
X96274819Y-92738094D02*
X95274819Y-92738094D01*
X95274819Y-92738094D02*
X95274819Y-92357142D01*
X95274819Y-92357142D02*
X95322438Y-92261904D01*
X95322438Y-92261904D02*
X95370057Y-92214285D01*
X95370057Y-92214285D02*
X95465295Y-92166666D01*
X95465295Y-92166666D02*
X95608152Y-92166666D01*
X95608152Y-92166666D02*
X95703390Y-92214285D01*
X95703390Y-92214285D02*
X95751009Y-92261904D01*
X95751009Y-92261904D02*
X95798628Y-92357142D01*
X95798628Y-92357142D02*
X95798628Y-92738094D01*
X95274819Y-90499999D02*
X95274819Y-90976189D01*
X95274819Y-90976189D02*
X95751009Y-91023808D01*
X95751009Y-91023808D02*
X95703390Y-90976189D01*
X95703390Y-90976189D02*
X95655771Y-90880951D01*
X95655771Y-90880951D02*
X95655771Y-90642856D01*
X95655771Y-90642856D02*
X95703390Y-90547618D01*
X95703390Y-90547618D02*
X95751009Y-90499999D01*
X95751009Y-90499999D02*
X95846247Y-90452380D01*
X95846247Y-90452380D02*
X96084342Y-90452380D01*
X96084342Y-90452380D02*
X96179580Y-90499999D01*
X96179580Y-90499999D02*
X96227200Y-90547618D01*
X96227200Y-90547618D02*
X96274819Y-90642856D01*
X96274819Y-90642856D02*
X96274819Y-90880951D01*
X96274819Y-90880951D02*
X96227200Y-90976189D01*
X96227200Y-90976189D02*
X96179580Y-91023808D01*
X95274819Y-90119046D02*
X96274819Y-89880951D01*
X96274819Y-89880951D02*
X95560533Y-89690475D01*
X95560533Y-89690475D02*
X96274819Y-89499999D01*
X96274819Y-89499999D02*
X95274819Y-89261904D01*
X91954819Y-93119047D02*
X91478628Y-93452380D01*
X91954819Y-93690475D02*
X90954819Y-93690475D01*
X90954819Y-93690475D02*
X90954819Y-93309523D01*
X90954819Y-93309523D02*
X91002438Y-93214285D01*
X91002438Y-93214285D02*
X91050057Y-93166666D01*
X91050057Y-93166666D02*
X91145295Y-93119047D01*
X91145295Y-93119047D02*
X91288152Y-93119047D01*
X91288152Y-93119047D02*
X91383390Y-93166666D01*
X91383390Y-93166666D02*
X91431009Y-93214285D01*
X91431009Y-93214285D02*
X91478628Y-93309523D01*
X91478628Y-93309523D02*
X91478628Y-93690475D01*
X91050057Y-92738094D02*
X91002438Y-92690475D01*
X91002438Y-92690475D02*
X90954819Y-92595237D01*
X90954819Y-92595237D02*
X90954819Y-92357142D01*
X90954819Y-92357142D02*
X91002438Y-92261904D01*
X91002438Y-92261904D02*
X91050057Y-92214285D01*
X91050057Y-92214285D02*
X91145295Y-92166666D01*
X91145295Y-92166666D02*
X91240533Y-92166666D01*
X91240533Y-92166666D02*
X91383390Y-92214285D01*
X91383390Y-92214285D02*
X91954819Y-92785713D01*
X91954819Y-92785713D02*
X91954819Y-92166666D01*
X90954819Y-91547618D02*
X90954819Y-91452380D01*
X90954819Y-91452380D02*
X91002438Y-91357142D01*
X91002438Y-91357142D02*
X91050057Y-91309523D01*
X91050057Y-91309523D02*
X91145295Y-91261904D01*
X91145295Y-91261904D02*
X91335771Y-91214285D01*
X91335771Y-91214285D02*
X91573866Y-91214285D01*
X91573866Y-91214285D02*
X91764342Y-91261904D01*
X91764342Y-91261904D02*
X91859580Y-91309523D01*
X91859580Y-91309523D02*
X91907200Y-91357142D01*
X91907200Y-91357142D02*
X91954819Y-91452380D01*
X91954819Y-91452380D02*
X91954819Y-91547618D01*
X91954819Y-91547618D02*
X91907200Y-91642856D01*
X91907200Y-91642856D02*
X91859580Y-91690475D01*
X91859580Y-91690475D02*
X91764342Y-91738094D01*
X91764342Y-91738094D02*
X91573866Y-91785713D01*
X91573866Y-91785713D02*
X91335771Y-91785713D01*
X91335771Y-91785713D02*
X91145295Y-91738094D01*
X91145295Y-91738094D02*
X91050057Y-91690475D01*
X91050057Y-91690475D02*
X91002438Y-91642856D01*
X91002438Y-91642856D02*
X90954819Y-91547618D01*
X91954819Y-90261904D02*
X91954819Y-90833332D01*
X91954819Y-90547618D02*
X90954819Y-90547618D01*
X90954819Y-90547618D02*
X91097676Y-90642856D01*
X91097676Y-90642856D02*
X91192914Y-90738094D01*
X91192914Y-90738094D02*
X91240533Y-90833332D01*
X204574819Y-59970236D02*
X204574819Y-59398808D01*
X205574819Y-59684522D02*
X204574819Y-59684522D01*
X204574819Y-59160712D02*
X205574819Y-58922617D01*
X205574819Y-58922617D02*
X204860533Y-58732141D01*
X204860533Y-58732141D02*
X205574819Y-58541665D01*
X205574819Y-58541665D02*
X204574819Y-58303570D01*
X205051009Y-57922617D02*
X205051009Y-57589284D01*
X205574819Y-57446427D02*
X205574819Y-57922617D01*
X205574819Y-57922617D02*
X204574819Y-57922617D01*
X204574819Y-57922617D02*
X204574819Y-57446427D01*
X205051009Y-57017855D02*
X205051009Y-56684522D01*
X205574819Y-56541665D02*
X205574819Y-57017855D01*
X205574819Y-57017855D02*
X204574819Y-57017855D01*
X204574819Y-57017855D02*
X204574819Y-56541665D01*
X204574819Y-56255950D02*
X204574819Y-55684522D01*
X205574819Y-55970236D02*
X204574819Y-55970236D01*
X205051009Y-55351188D02*
X205051009Y-55017855D01*
X205574819Y-54874998D02*
X205574819Y-55351188D01*
X205574819Y-55351188D02*
X204574819Y-55351188D01*
X204574819Y-55351188D02*
X204574819Y-54874998D01*
X205574819Y-53874998D02*
X205098628Y-54208331D01*
X205574819Y-54446426D02*
X204574819Y-54446426D01*
X204574819Y-54446426D02*
X204574819Y-54065474D01*
X204574819Y-54065474D02*
X204622438Y-53970236D01*
X204622438Y-53970236D02*
X204670057Y-53922617D01*
X204670057Y-53922617D02*
X204765295Y-53874998D01*
X204765295Y-53874998D02*
X204908152Y-53874998D01*
X204908152Y-53874998D02*
X205003390Y-53922617D01*
X205003390Y-53922617D02*
X205051009Y-53970236D01*
X205051009Y-53970236D02*
X205098628Y-54065474D01*
X205098628Y-54065474D02*
X205098628Y-54446426D01*
X202304819Y-57208332D02*
X203019104Y-57208332D01*
X203019104Y-57208332D02*
X203161961Y-57255951D01*
X203161961Y-57255951D02*
X203257200Y-57351189D01*
X203257200Y-57351189D02*
X203304819Y-57494046D01*
X203304819Y-57494046D02*
X203304819Y-57589284D01*
X202400057Y-56779760D02*
X202352438Y-56732141D01*
X202352438Y-56732141D02*
X202304819Y-56636903D01*
X202304819Y-56636903D02*
X202304819Y-56398808D01*
X202304819Y-56398808D02*
X202352438Y-56303570D01*
X202352438Y-56303570D02*
X202400057Y-56255951D01*
X202400057Y-56255951D02*
X202495295Y-56208332D01*
X202495295Y-56208332D02*
X202590533Y-56208332D01*
X202590533Y-56208332D02*
X202733390Y-56255951D01*
X202733390Y-56255951D02*
X203304819Y-56827379D01*
X203304819Y-56827379D02*
X203304819Y-56208332D01*
X112273390Y-92273809D02*
X112225771Y-92369047D01*
X112225771Y-92369047D02*
X112178152Y-92416666D01*
X112178152Y-92416666D02*
X112082914Y-92464285D01*
X112082914Y-92464285D02*
X112035295Y-92464285D01*
X112035295Y-92464285D02*
X111940057Y-92416666D01*
X111940057Y-92416666D02*
X111892438Y-92369047D01*
X111892438Y-92369047D02*
X111844819Y-92273809D01*
X111844819Y-92273809D02*
X111844819Y-92083333D01*
X111844819Y-92083333D02*
X111892438Y-91988095D01*
X111892438Y-91988095D02*
X111940057Y-91940476D01*
X111940057Y-91940476D02*
X112035295Y-91892857D01*
X112035295Y-91892857D02*
X112082914Y-91892857D01*
X112082914Y-91892857D02*
X112178152Y-91940476D01*
X112178152Y-91940476D02*
X112225771Y-91988095D01*
X112225771Y-91988095D02*
X112273390Y-92083333D01*
X112273390Y-92083333D02*
X112273390Y-92273809D01*
X112273390Y-92273809D02*
X112321009Y-92369047D01*
X112321009Y-92369047D02*
X112368628Y-92416666D01*
X112368628Y-92416666D02*
X112463866Y-92464285D01*
X112463866Y-92464285D02*
X112654342Y-92464285D01*
X112654342Y-92464285D02*
X112749580Y-92416666D01*
X112749580Y-92416666D02*
X112797200Y-92369047D01*
X112797200Y-92369047D02*
X112844819Y-92273809D01*
X112844819Y-92273809D02*
X112844819Y-92083333D01*
X112844819Y-92083333D02*
X112797200Y-91988095D01*
X112797200Y-91988095D02*
X112749580Y-91940476D01*
X112749580Y-91940476D02*
X112654342Y-91892857D01*
X112654342Y-91892857D02*
X112463866Y-91892857D01*
X112463866Y-91892857D02*
X112368628Y-91940476D01*
X112368628Y-91940476D02*
X112321009Y-91988095D01*
X112321009Y-91988095D02*
X112273390Y-92083333D01*
X112178152Y-91035714D02*
X112844819Y-91035714D01*
X112178152Y-91464285D02*
X112701961Y-91464285D01*
X112701961Y-91464285D02*
X112797200Y-91416666D01*
X112797200Y-91416666D02*
X112844819Y-91321428D01*
X112844819Y-91321428D02*
X112844819Y-91178571D01*
X112844819Y-91178571D02*
X112797200Y-91083333D01*
X112797200Y-91083333D02*
X112749580Y-91035714D01*
X111940057Y-90607142D02*
X111892438Y-90559523D01*
X111892438Y-90559523D02*
X111844819Y-90464285D01*
X111844819Y-90464285D02*
X111844819Y-90226190D01*
X111844819Y-90226190D02*
X111892438Y-90130952D01*
X111892438Y-90130952D02*
X111940057Y-90083333D01*
X111940057Y-90083333D02*
X112035295Y-90035714D01*
X112035295Y-90035714D02*
X112130533Y-90035714D01*
X112130533Y-90035714D02*
X112273390Y-90083333D01*
X112273390Y-90083333D02*
X112844819Y-90654761D01*
X112844819Y-90654761D02*
X112844819Y-90035714D01*
X104999580Y-92369047D02*
X105047200Y-92416666D01*
X105047200Y-92416666D02*
X105094819Y-92559523D01*
X105094819Y-92559523D02*
X105094819Y-92654761D01*
X105094819Y-92654761D02*
X105047200Y-92797618D01*
X105047200Y-92797618D02*
X104951961Y-92892856D01*
X104951961Y-92892856D02*
X104856723Y-92940475D01*
X104856723Y-92940475D02*
X104666247Y-92988094D01*
X104666247Y-92988094D02*
X104523390Y-92988094D01*
X104523390Y-92988094D02*
X104332914Y-92940475D01*
X104332914Y-92940475D02*
X104237676Y-92892856D01*
X104237676Y-92892856D02*
X104142438Y-92797618D01*
X104142438Y-92797618D02*
X104094819Y-92654761D01*
X104094819Y-92654761D02*
X104094819Y-92559523D01*
X104094819Y-92559523D02*
X104142438Y-92416666D01*
X104142438Y-92416666D02*
X104190057Y-92369047D01*
X104190057Y-91988094D02*
X104142438Y-91940475D01*
X104142438Y-91940475D02*
X104094819Y-91845237D01*
X104094819Y-91845237D02*
X104094819Y-91607142D01*
X104094819Y-91607142D02*
X104142438Y-91511904D01*
X104142438Y-91511904D02*
X104190057Y-91464285D01*
X104190057Y-91464285D02*
X104285295Y-91416666D01*
X104285295Y-91416666D02*
X104380533Y-91416666D01*
X104380533Y-91416666D02*
X104523390Y-91464285D01*
X104523390Y-91464285D02*
X105094819Y-92035713D01*
X105094819Y-92035713D02*
X105094819Y-91416666D01*
X104094819Y-90797618D02*
X104094819Y-90702380D01*
X104094819Y-90702380D02*
X104142438Y-90607142D01*
X104142438Y-90607142D02*
X104190057Y-90559523D01*
X104190057Y-90559523D02*
X104285295Y-90511904D01*
X104285295Y-90511904D02*
X104475771Y-90464285D01*
X104475771Y-90464285D02*
X104713866Y-90464285D01*
X104713866Y-90464285D02*
X104904342Y-90511904D01*
X104904342Y-90511904D02*
X104999580Y-90559523D01*
X104999580Y-90559523D02*
X105047200Y-90607142D01*
X105047200Y-90607142D02*
X105094819Y-90702380D01*
X105094819Y-90702380D02*
X105094819Y-90797618D01*
X105094819Y-90797618D02*
X105047200Y-90892856D01*
X105047200Y-90892856D02*
X104999580Y-90940475D01*
X104999580Y-90940475D02*
X104904342Y-90988094D01*
X104904342Y-90988094D02*
X104713866Y-91035713D01*
X104713866Y-91035713D02*
X104475771Y-91035713D01*
X104475771Y-91035713D02*
X104285295Y-90988094D01*
X104285295Y-90988094D02*
X104190057Y-90940475D01*
X104190057Y-90940475D02*
X104142438Y-90892856D01*
X104142438Y-90892856D02*
X104094819Y-90797618D01*
X105094819Y-89511904D02*
X105094819Y-90083332D01*
X105094819Y-89797618D02*
X104094819Y-89797618D01*
X104094819Y-89797618D02*
X104237676Y-89892856D01*
X104237676Y-89892856D02*
X104332914Y-89988094D01*
X104332914Y-89988094D02*
X104380533Y-90083332D01*
X165043390Y-92273809D02*
X164995771Y-92369047D01*
X164995771Y-92369047D02*
X164948152Y-92416666D01*
X164948152Y-92416666D02*
X164852914Y-92464285D01*
X164852914Y-92464285D02*
X164805295Y-92464285D01*
X164805295Y-92464285D02*
X164710057Y-92416666D01*
X164710057Y-92416666D02*
X164662438Y-92369047D01*
X164662438Y-92369047D02*
X164614819Y-92273809D01*
X164614819Y-92273809D02*
X164614819Y-92083333D01*
X164614819Y-92083333D02*
X164662438Y-91988095D01*
X164662438Y-91988095D02*
X164710057Y-91940476D01*
X164710057Y-91940476D02*
X164805295Y-91892857D01*
X164805295Y-91892857D02*
X164852914Y-91892857D01*
X164852914Y-91892857D02*
X164948152Y-91940476D01*
X164948152Y-91940476D02*
X164995771Y-91988095D01*
X164995771Y-91988095D02*
X165043390Y-92083333D01*
X165043390Y-92083333D02*
X165043390Y-92273809D01*
X165043390Y-92273809D02*
X165091009Y-92369047D01*
X165091009Y-92369047D02*
X165138628Y-92416666D01*
X165138628Y-92416666D02*
X165233866Y-92464285D01*
X165233866Y-92464285D02*
X165424342Y-92464285D01*
X165424342Y-92464285D02*
X165519580Y-92416666D01*
X165519580Y-92416666D02*
X165567200Y-92369047D01*
X165567200Y-92369047D02*
X165614819Y-92273809D01*
X165614819Y-92273809D02*
X165614819Y-92083333D01*
X165614819Y-92083333D02*
X165567200Y-91988095D01*
X165567200Y-91988095D02*
X165519580Y-91940476D01*
X165519580Y-91940476D02*
X165424342Y-91892857D01*
X165424342Y-91892857D02*
X165233866Y-91892857D01*
X165233866Y-91892857D02*
X165138628Y-91940476D01*
X165138628Y-91940476D02*
X165091009Y-91988095D01*
X165091009Y-91988095D02*
X165043390Y-92083333D01*
X164948152Y-91035714D02*
X165614819Y-91035714D01*
X164948152Y-91464285D02*
X165471961Y-91464285D01*
X165471961Y-91464285D02*
X165567200Y-91416666D01*
X165567200Y-91416666D02*
X165614819Y-91321428D01*
X165614819Y-91321428D02*
X165614819Y-91178571D01*
X165614819Y-91178571D02*
X165567200Y-91083333D01*
X165567200Y-91083333D02*
X165519580Y-91035714D01*
X164710057Y-90607142D02*
X164662438Y-90559523D01*
X164662438Y-90559523D02*
X164614819Y-90464285D01*
X164614819Y-90464285D02*
X164614819Y-90226190D01*
X164614819Y-90226190D02*
X164662438Y-90130952D01*
X164662438Y-90130952D02*
X164710057Y-90083333D01*
X164710057Y-90083333D02*
X164805295Y-90035714D01*
X164805295Y-90035714D02*
X164900533Y-90035714D01*
X164900533Y-90035714D02*
X165043390Y-90083333D01*
X165043390Y-90083333D02*
X165614819Y-90654761D01*
X165614819Y-90654761D02*
X165614819Y-90035714D01*
X157769580Y-92369047D02*
X157817200Y-92416666D01*
X157817200Y-92416666D02*
X157864819Y-92559523D01*
X157864819Y-92559523D02*
X157864819Y-92654761D01*
X157864819Y-92654761D02*
X157817200Y-92797618D01*
X157817200Y-92797618D02*
X157721961Y-92892856D01*
X157721961Y-92892856D02*
X157626723Y-92940475D01*
X157626723Y-92940475D02*
X157436247Y-92988094D01*
X157436247Y-92988094D02*
X157293390Y-92988094D01*
X157293390Y-92988094D02*
X157102914Y-92940475D01*
X157102914Y-92940475D02*
X157007676Y-92892856D01*
X157007676Y-92892856D02*
X156912438Y-92797618D01*
X156912438Y-92797618D02*
X156864819Y-92654761D01*
X156864819Y-92654761D02*
X156864819Y-92559523D01*
X156864819Y-92559523D02*
X156912438Y-92416666D01*
X156912438Y-92416666D02*
X156960057Y-92369047D01*
X156960057Y-91988094D02*
X156912438Y-91940475D01*
X156912438Y-91940475D02*
X156864819Y-91845237D01*
X156864819Y-91845237D02*
X156864819Y-91607142D01*
X156864819Y-91607142D02*
X156912438Y-91511904D01*
X156912438Y-91511904D02*
X156960057Y-91464285D01*
X156960057Y-91464285D02*
X157055295Y-91416666D01*
X157055295Y-91416666D02*
X157150533Y-91416666D01*
X157150533Y-91416666D02*
X157293390Y-91464285D01*
X157293390Y-91464285D02*
X157864819Y-92035713D01*
X157864819Y-92035713D02*
X157864819Y-91416666D01*
X156864819Y-90797618D02*
X156864819Y-90702380D01*
X156864819Y-90702380D02*
X156912438Y-90607142D01*
X156912438Y-90607142D02*
X156960057Y-90559523D01*
X156960057Y-90559523D02*
X157055295Y-90511904D01*
X157055295Y-90511904D02*
X157245771Y-90464285D01*
X157245771Y-90464285D02*
X157483866Y-90464285D01*
X157483866Y-90464285D02*
X157674342Y-90511904D01*
X157674342Y-90511904D02*
X157769580Y-90559523D01*
X157769580Y-90559523D02*
X157817200Y-90607142D01*
X157817200Y-90607142D02*
X157864819Y-90702380D01*
X157864819Y-90702380D02*
X157864819Y-90797618D01*
X157864819Y-90797618D02*
X157817200Y-90892856D01*
X157817200Y-90892856D02*
X157769580Y-90940475D01*
X157769580Y-90940475D02*
X157674342Y-90988094D01*
X157674342Y-90988094D02*
X157483866Y-91035713D01*
X157483866Y-91035713D02*
X157245771Y-91035713D01*
X157245771Y-91035713D02*
X157055295Y-90988094D01*
X157055295Y-90988094D02*
X156960057Y-90940475D01*
X156960057Y-90940475D02*
X156912438Y-90892856D01*
X156912438Y-90892856D02*
X156864819Y-90797618D01*
X157198152Y-89607142D02*
X157864819Y-89607142D01*
X156817200Y-89845237D02*
X157531485Y-90083332D01*
X157531485Y-90083332D02*
X157531485Y-89464285D01*
X205074819Y-131937142D02*
X206074819Y-131699047D01*
X206074819Y-131699047D02*
X205360533Y-131508571D01*
X205360533Y-131508571D02*
X206074819Y-131318095D01*
X206074819Y-131318095D02*
X205074819Y-131080000D01*
X205074819Y-130508571D02*
X205074819Y-130318095D01*
X205074819Y-130318095D02*
X205122438Y-130222857D01*
X205122438Y-130222857D02*
X205217676Y-130127619D01*
X205217676Y-130127619D02*
X205408152Y-130080000D01*
X205408152Y-130080000D02*
X205741485Y-130080000D01*
X205741485Y-130080000D02*
X205931961Y-130127619D01*
X205931961Y-130127619D02*
X206027200Y-130222857D01*
X206027200Y-130222857D02*
X206074819Y-130318095D01*
X206074819Y-130318095D02*
X206074819Y-130508571D01*
X206074819Y-130508571D02*
X206027200Y-130603809D01*
X206027200Y-130603809D02*
X205931961Y-130699047D01*
X205931961Y-130699047D02*
X205741485Y-130746666D01*
X205741485Y-130746666D02*
X205408152Y-130746666D01*
X205408152Y-130746666D02*
X205217676Y-130699047D01*
X205217676Y-130699047D02*
X205122438Y-130603809D01*
X205122438Y-130603809D02*
X205074819Y-130508571D01*
X205074819Y-129460952D02*
X205074819Y-129270476D01*
X205074819Y-129270476D02*
X205122438Y-129175238D01*
X205122438Y-129175238D02*
X205217676Y-129080000D01*
X205217676Y-129080000D02*
X205408152Y-129032381D01*
X205408152Y-129032381D02*
X205741485Y-129032381D01*
X205741485Y-129032381D02*
X205931961Y-129080000D01*
X205931961Y-129080000D02*
X206027200Y-129175238D01*
X206027200Y-129175238D02*
X206074819Y-129270476D01*
X206074819Y-129270476D02*
X206074819Y-129460952D01*
X206074819Y-129460952D02*
X206027200Y-129556190D01*
X206027200Y-129556190D02*
X205931961Y-129651428D01*
X205931961Y-129651428D02*
X205741485Y-129699047D01*
X205741485Y-129699047D02*
X205408152Y-129699047D01*
X205408152Y-129699047D02*
X205217676Y-129651428D01*
X205217676Y-129651428D02*
X205122438Y-129556190D01*
X205122438Y-129556190D02*
X205074819Y-129460952D01*
X205551009Y-128270476D02*
X205551009Y-128603809D01*
X206074819Y-128603809D02*
X205074819Y-128603809D01*
X205074819Y-128603809D02*
X205074819Y-128127619D01*
X205551009Y-127746666D02*
X205551009Y-127413333D01*
X206074819Y-127270476D02*
X206074819Y-127746666D01*
X206074819Y-127746666D02*
X205074819Y-127746666D01*
X205074819Y-127746666D02*
X205074819Y-127270476D01*
X206074819Y-126270476D02*
X205598628Y-126603809D01*
X206074819Y-126841904D02*
X205074819Y-126841904D01*
X205074819Y-126841904D02*
X205074819Y-126460952D01*
X205074819Y-126460952D02*
X205122438Y-126365714D01*
X205122438Y-126365714D02*
X205170057Y-126318095D01*
X205170057Y-126318095D02*
X205265295Y-126270476D01*
X205265295Y-126270476D02*
X205408152Y-126270476D01*
X205408152Y-126270476D02*
X205503390Y-126318095D01*
X205503390Y-126318095D02*
X205551009Y-126365714D01*
X205551009Y-126365714D02*
X205598628Y-126460952D01*
X205598628Y-126460952D02*
X205598628Y-126841904D01*
X202804819Y-129413333D02*
X203519104Y-129413333D01*
X203519104Y-129413333D02*
X203661961Y-129460952D01*
X203661961Y-129460952D02*
X203757200Y-129556190D01*
X203757200Y-129556190D02*
X203804819Y-129699047D01*
X203804819Y-129699047D02*
X203804819Y-129794285D01*
X202804819Y-129032380D02*
X202804819Y-128413333D01*
X202804819Y-128413333D02*
X203185771Y-128746666D01*
X203185771Y-128746666D02*
X203185771Y-128603809D01*
X203185771Y-128603809D02*
X203233390Y-128508571D01*
X203233390Y-128508571D02*
X203281009Y-128460952D01*
X203281009Y-128460952D02*
X203376247Y-128413333D01*
X203376247Y-128413333D02*
X203614342Y-128413333D01*
X203614342Y-128413333D02*
X203709580Y-128460952D01*
X203709580Y-128460952D02*
X203757200Y-128508571D01*
X203757200Y-128508571D02*
X203804819Y-128603809D01*
X203804819Y-128603809D02*
X203804819Y-128889523D01*
X203804819Y-128889523D02*
X203757200Y-128984761D01*
X203757200Y-128984761D02*
X203709580Y-129032380D01*
X86705714Y-74873152D02*
X86705714Y-75539819D01*
X86467619Y-74492200D02*
X86229524Y-75206485D01*
X86229524Y-75206485D02*
X86848571Y-75206485D01*
X87800952Y-75539819D02*
X87467619Y-75063628D01*
X87229524Y-75539819D02*
X87229524Y-74539819D01*
X87229524Y-74539819D02*
X87610476Y-74539819D01*
X87610476Y-74539819D02*
X87705714Y-74587438D01*
X87705714Y-74587438D02*
X87753333Y-74635057D01*
X87753333Y-74635057D02*
X87800952Y-74730295D01*
X87800952Y-74730295D02*
X87800952Y-74873152D01*
X87800952Y-74873152D02*
X87753333Y-74968390D01*
X87753333Y-74968390D02*
X87705714Y-75016009D01*
X87705714Y-75016009D02*
X87610476Y-75063628D01*
X87610476Y-75063628D02*
X87229524Y-75063628D01*
X88134286Y-74539819D02*
X88800952Y-74539819D01*
X88800952Y-74539819D02*
X88372381Y-75539819D01*
X90420000Y-74539819D02*
X89943810Y-74539819D01*
X89943810Y-74539819D02*
X89896191Y-75016009D01*
X89896191Y-75016009D02*
X89943810Y-74968390D01*
X89943810Y-74968390D02*
X90039048Y-74920771D01*
X90039048Y-74920771D02*
X90277143Y-74920771D01*
X90277143Y-74920771D02*
X90372381Y-74968390D01*
X90372381Y-74968390D02*
X90420000Y-75016009D01*
X90420000Y-75016009D02*
X90467619Y-75111247D01*
X90467619Y-75111247D02*
X90467619Y-75349342D01*
X90467619Y-75349342D02*
X90420000Y-75444580D01*
X90420000Y-75444580D02*
X90372381Y-75492200D01*
X90372381Y-75492200D02*
X90277143Y-75539819D01*
X90277143Y-75539819D02*
X90039048Y-75539819D01*
X90039048Y-75539819D02*
X89943810Y-75492200D01*
X89943810Y-75492200D02*
X89896191Y-75444580D01*
X90800953Y-74539819D02*
X91039048Y-75539819D01*
X91039048Y-75539819D02*
X91229524Y-74825533D01*
X91229524Y-74825533D02*
X91420000Y-75539819D01*
X91420000Y-75539819D02*
X91658096Y-74539819D01*
X87800952Y-69919819D02*
X87467619Y-69443628D01*
X87229524Y-69919819D02*
X87229524Y-68919819D01*
X87229524Y-68919819D02*
X87610476Y-68919819D01*
X87610476Y-68919819D02*
X87705714Y-68967438D01*
X87705714Y-68967438D02*
X87753333Y-69015057D01*
X87753333Y-69015057D02*
X87800952Y-69110295D01*
X87800952Y-69110295D02*
X87800952Y-69253152D01*
X87800952Y-69253152D02*
X87753333Y-69348390D01*
X87753333Y-69348390D02*
X87705714Y-69396009D01*
X87705714Y-69396009D02*
X87610476Y-69443628D01*
X87610476Y-69443628D02*
X87229524Y-69443628D01*
X88753333Y-69919819D02*
X88181905Y-69919819D01*
X88467619Y-69919819D02*
X88467619Y-68919819D01*
X88467619Y-68919819D02*
X88372381Y-69062676D01*
X88372381Y-69062676D02*
X88277143Y-69157914D01*
X88277143Y-69157914D02*
X88181905Y-69205533D01*
X89372381Y-68919819D02*
X89467619Y-68919819D01*
X89467619Y-68919819D02*
X89562857Y-68967438D01*
X89562857Y-68967438D02*
X89610476Y-69015057D01*
X89610476Y-69015057D02*
X89658095Y-69110295D01*
X89658095Y-69110295D02*
X89705714Y-69300771D01*
X89705714Y-69300771D02*
X89705714Y-69538866D01*
X89705714Y-69538866D02*
X89658095Y-69729342D01*
X89658095Y-69729342D02*
X89610476Y-69824580D01*
X89610476Y-69824580D02*
X89562857Y-69872200D01*
X89562857Y-69872200D02*
X89467619Y-69919819D01*
X89467619Y-69919819D02*
X89372381Y-69919819D01*
X89372381Y-69919819D02*
X89277143Y-69872200D01*
X89277143Y-69872200D02*
X89229524Y-69824580D01*
X89229524Y-69824580D02*
X89181905Y-69729342D01*
X89181905Y-69729342D02*
X89134286Y-69538866D01*
X89134286Y-69538866D02*
X89134286Y-69300771D01*
X89134286Y-69300771D02*
X89181905Y-69110295D01*
X89181905Y-69110295D02*
X89229524Y-69015057D01*
X89229524Y-69015057D02*
X89277143Y-68967438D01*
X89277143Y-68967438D02*
X89372381Y-68919819D01*
X90086667Y-69015057D02*
X90134286Y-68967438D01*
X90134286Y-68967438D02*
X90229524Y-68919819D01*
X90229524Y-68919819D02*
X90467619Y-68919819D01*
X90467619Y-68919819D02*
X90562857Y-68967438D01*
X90562857Y-68967438D02*
X90610476Y-69015057D01*
X90610476Y-69015057D02*
X90658095Y-69110295D01*
X90658095Y-69110295D02*
X90658095Y-69205533D01*
X90658095Y-69205533D02*
X90610476Y-69348390D01*
X90610476Y-69348390D02*
X90039048Y-69919819D01*
X90039048Y-69919819D02*
X90658095Y-69919819D01*
X182633390Y-92273809D02*
X182585771Y-92369047D01*
X182585771Y-92369047D02*
X182538152Y-92416666D01*
X182538152Y-92416666D02*
X182442914Y-92464285D01*
X182442914Y-92464285D02*
X182395295Y-92464285D01*
X182395295Y-92464285D02*
X182300057Y-92416666D01*
X182300057Y-92416666D02*
X182252438Y-92369047D01*
X182252438Y-92369047D02*
X182204819Y-92273809D01*
X182204819Y-92273809D02*
X182204819Y-92083333D01*
X182204819Y-92083333D02*
X182252438Y-91988095D01*
X182252438Y-91988095D02*
X182300057Y-91940476D01*
X182300057Y-91940476D02*
X182395295Y-91892857D01*
X182395295Y-91892857D02*
X182442914Y-91892857D01*
X182442914Y-91892857D02*
X182538152Y-91940476D01*
X182538152Y-91940476D02*
X182585771Y-91988095D01*
X182585771Y-91988095D02*
X182633390Y-92083333D01*
X182633390Y-92083333D02*
X182633390Y-92273809D01*
X182633390Y-92273809D02*
X182681009Y-92369047D01*
X182681009Y-92369047D02*
X182728628Y-92416666D01*
X182728628Y-92416666D02*
X182823866Y-92464285D01*
X182823866Y-92464285D02*
X183014342Y-92464285D01*
X183014342Y-92464285D02*
X183109580Y-92416666D01*
X183109580Y-92416666D02*
X183157200Y-92369047D01*
X183157200Y-92369047D02*
X183204819Y-92273809D01*
X183204819Y-92273809D02*
X183204819Y-92083333D01*
X183204819Y-92083333D02*
X183157200Y-91988095D01*
X183157200Y-91988095D02*
X183109580Y-91940476D01*
X183109580Y-91940476D02*
X183014342Y-91892857D01*
X183014342Y-91892857D02*
X182823866Y-91892857D01*
X182823866Y-91892857D02*
X182728628Y-91940476D01*
X182728628Y-91940476D02*
X182681009Y-91988095D01*
X182681009Y-91988095D02*
X182633390Y-92083333D01*
X182538152Y-91035714D02*
X183204819Y-91035714D01*
X182538152Y-91464285D02*
X183061961Y-91464285D01*
X183061961Y-91464285D02*
X183157200Y-91416666D01*
X183157200Y-91416666D02*
X183204819Y-91321428D01*
X183204819Y-91321428D02*
X183204819Y-91178571D01*
X183204819Y-91178571D02*
X183157200Y-91083333D01*
X183157200Y-91083333D02*
X183109580Y-91035714D01*
X182300057Y-90607142D02*
X182252438Y-90559523D01*
X182252438Y-90559523D02*
X182204819Y-90464285D01*
X182204819Y-90464285D02*
X182204819Y-90226190D01*
X182204819Y-90226190D02*
X182252438Y-90130952D01*
X182252438Y-90130952D02*
X182300057Y-90083333D01*
X182300057Y-90083333D02*
X182395295Y-90035714D01*
X182395295Y-90035714D02*
X182490533Y-90035714D01*
X182490533Y-90035714D02*
X182633390Y-90083333D01*
X182633390Y-90083333D02*
X183204819Y-90654761D01*
X183204819Y-90654761D02*
X183204819Y-90035714D01*
X175359580Y-92369047D02*
X175407200Y-92416666D01*
X175407200Y-92416666D02*
X175454819Y-92559523D01*
X175454819Y-92559523D02*
X175454819Y-92654761D01*
X175454819Y-92654761D02*
X175407200Y-92797618D01*
X175407200Y-92797618D02*
X175311961Y-92892856D01*
X175311961Y-92892856D02*
X175216723Y-92940475D01*
X175216723Y-92940475D02*
X175026247Y-92988094D01*
X175026247Y-92988094D02*
X174883390Y-92988094D01*
X174883390Y-92988094D02*
X174692914Y-92940475D01*
X174692914Y-92940475D02*
X174597676Y-92892856D01*
X174597676Y-92892856D02*
X174502438Y-92797618D01*
X174502438Y-92797618D02*
X174454819Y-92654761D01*
X174454819Y-92654761D02*
X174454819Y-92559523D01*
X174454819Y-92559523D02*
X174502438Y-92416666D01*
X174502438Y-92416666D02*
X174550057Y-92369047D01*
X174550057Y-91988094D02*
X174502438Y-91940475D01*
X174502438Y-91940475D02*
X174454819Y-91845237D01*
X174454819Y-91845237D02*
X174454819Y-91607142D01*
X174454819Y-91607142D02*
X174502438Y-91511904D01*
X174502438Y-91511904D02*
X174550057Y-91464285D01*
X174550057Y-91464285D02*
X174645295Y-91416666D01*
X174645295Y-91416666D02*
X174740533Y-91416666D01*
X174740533Y-91416666D02*
X174883390Y-91464285D01*
X174883390Y-91464285D02*
X175454819Y-92035713D01*
X175454819Y-92035713D02*
X175454819Y-91416666D01*
X174454819Y-90797618D02*
X174454819Y-90702380D01*
X174454819Y-90702380D02*
X174502438Y-90607142D01*
X174502438Y-90607142D02*
X174550057Y-90559523D01*
X174550057Y-90559523D02*
X174645295Y-90511904D01*
X174645295Y-90511904D02*
X174835771Y-90464285D01*
X174835771Y-90464285D02*
X175073866Y-90464285D01*
X175073866Y-90464285D02*
X175264342Y-90511904D01*
X175264342Y-90511904D02*
X175359580Y-90559523D01*
X175359580Y-90559523D02*
X175407200Y-90607142D01*
X175407200Y-90607142D02*
X175454819Y-90702380D01*
X175454819Y-90702380D02*
X175454819Y-90797618D01*
X175454819Y-90797618D02*
X175407200Y-90892856D01*
X175407200Y-90892856D02*
X175359580Y-90940475D01*
X175359580Y-90940475D02*
X175264342Y-90988094D01*
X175264342Y-90988094D02*
X175073866Y-91035713D01*
X175073866Y-91035713D02*
X174835771Y-91035713D01*
X174835771Y-91035713D02*
X174645295Y-90988094D01*
X174645295Y-90988094D02*
X174550057Y-90940475D01*
X174550057Y-90940475D02*
X174502438Y-90892856D01*
X174502438Y-90892856D02*
X174454819Y-90797618D01*
X174454819Y-89559523D02*
X174454819Y-90035713D01*
X174454819Y-90035713D02*
X174931009Y-90083332D01*
X174931009Y-90083332D02*
X174883390Y-90035713D01*
X174883390Y-90035713D02*
X174835771Y-89940475D01*
X174835771Y-89940475D02*
X174835771Y-89702380D01*
X174835771Y-89702380D02*
X174883390Y-89607142D01*
X174883390Y-89607142D02*
X174931009Y-89559523D01*
X174931009Y-89559523D02*
X175026247Y-89511904D01*
X175026247Y-89511904D02*
X175264342Y-89511904D01*
X175264342Y-89511904D02*
X175359580Y-89559523D01*
X175359580Y-89559523D02*
X175407200Y-89607142D01*
X175407200Y-89607142D02*
X175454819Y-89702380D01*
X175454819Y-89702380D02*
X175454819Y-89940475D01*
X175454819Y-89940475D02*
X175407200Y-90035713D01*
X175407200Y-90035713D02*
X175359580Y-90083332D01*
X129863390Y-92273809D02*
X129815771Y-92369047D01*
X129815771Y-92369047D02*
X129768152Y-92416666D01*
X129768152Y-92416666D02*
X129672914Y-92464285D01*
X129672914Y-92464285D02*
X129625295Y-92464285D01*
X129625295Y-92464285D02*
X129530057Y-92416666D01*
X129530057Y-92416666D02*
X129482438Y-92369047D01*
X129482438Y-92369047D02*
X129434819Y-92273809D01*
X129434819Y-92273809D02*
X129434819Y-92083333D01*
X129434819Y-92083333D02*
X129482438Y-91988095D01*
X129482438Y-91988095D02*
X129530057Y-91940476D01*
X129530057Y-91940476D02*
X129625295Y-91892857D01*
X129625295Y-91892857D02*
X129672914Y-91892857D01*
X129672914Y-91892857D02*
X129768152Y-91940476D01*
X129768152Y-91940476D02*
X129815771Y-91988095D01*
X129815771Y-91988095D02*
X129863390Y-92083333D01*
X129863390Y-92083333D02*
X129863390Y-92273809D01*
X129863390Y-92273809D02*
X129911009Y-92369047D01*
X129911009Y-92369047D02*
X129958628Y-92416666D01*
X129958628Y-92416666D02*
X130053866Y-92464285D01*
X130053866Y-92464285D02*
X130244342Y-92464285D01*
X130244342Y-92464285D02*
X130339580Y-92416666D01*
X130339580Y-92416666D02*
X130387200Y-92369047D01*
X130387200Y-92369047D02*
X130434819Y-92273809D01*
X130434819Y-92273809D02*
X130434819Y-92083333D01*
X130434819Y-92083333D02*
X130387200Y-91988095D01*
X130387200Y-91988095D02*
X130339580Y-91940476D01*
X130339580Y-91940476D02*
X130244342Y-91892857D01*
X130244342Y-91892857D02*
X130053866Y-91892857D01*
X130053866Y-91892857D02*
X129958628Y-91940476D01*
X129958628Y-91940476D02*
X129911009Y-91988095D01*
X129911009Y-91988095D02*
X129863390Y-92083333D01*
X129768152Y-91035714D02*
X130434819Y-91035714D01*
X129768152Y-91464285D02*
X130291961Y-91464285D01*
X130291961Y-91464285D02*
X130387200Y-91416666D01*
X130387200Y-91416666D02*
X130434819Y-91321428D01*
X130434819Y-91321428D02*
X130434819Y-91178571D01*
X130434819Y-91178571D02*
X130387200Y-91083333D01*
X130387200Y-91083333D02*
X130339580Y-91035714D01*
X129530057Y-90607142D02*
X129482438Y-90559523D01*
X129482438Y-90559523D02*
X129434819Y-90464285D01*
X129434819Y-90464285D02*
X129434819Y-90226190D01*
X129434819Y-90226190D02*
X129482438Y-90130952D01*
X129482438Y-90130952D02*
X129530057Y-90083333D01*
X129530057Y-90083333D02*
X129625295Y-90035714D01*
X129625295Y-90035714D02*
X129720533Y-90035714D01*
X129720533Y-90035714D02*
X129863390Y-90083333D01*
X129863390Y-90083333D02*
X130434819Y-90654761D01*
X130434819Y-90654761D02*
X130434819Y-90035714D01*
X122589580Y-92369047D02*
X122637200Y-92416666D01*
X122637200Y-92416666D02*
X122684819Y-92559523D01*
X122684819Y-92559523D02*
X122684819Y-92654761D01*
X122684819Y-92654761D02*
X122637200Y-92797618D01*
X122637200Y-92797618D02*
X122541961Y-92892856D01*
X122541961Y-92892856D02*
X122446723Y-92940475D01*
X122446723Y-92940475D02*
X122256247Y-92988094D01*
X122256247Y-92988094D02*
X122113390Y-92988094D01*
X122113390Y-92988094D02*
X121922914Y-92940475D01*
X121922914Y-92940475D02*
X121827676Y-92892856D01*
X121827676Y-92892856D02*
X121732438Y-92797618D01*
X121732438Y-92797618D02*
X121684819Y-92654761D01*
X121684819Y-92654761D02*
X121684819Y-92559523D01*
X121684819Y-92559523D02*
X121732438Y-92416666D01*
X121732438Y-92416666D02*
X121780057Y-92369047D01*
X121780057Y-91988094D02*
X121732438Y-91940475D01*
X121732438Y-91940475D02*
X121684819Y-91845237D01*
X121684819Y-91845237D02*
X121684819Y-91607142D01*
X121684819Y-91607142D02*
X121732438Y-91511904D01*
X121732438Y-91511904D02*
X121780057Y-91464285D01*
X121780057Y-91464285D02*
X121875295Y-91416666D01*
X121875295Y-91416666D02*
X121970533Y-91416666D01*
X121970533Y-91416666D02*
X122113390Y-91464285D01*
X122113390Y-91464285D02*
X122684819Y-92035713D01*
X122684819Y-92035713D02*
X122684819Y-91416666D01*
X121684819Y-90797618D02*
X121684819Y-90702380D01*
X121684819Y-90702380D02*
X121732438Y-90607142D01*
X121732438Y-90607142D02*
X121780057Y-90559523D01*
X121780057Y-90559523D02*
X121875295Y-90511904D01*
X121875295Y-90511904D02*
X122065771Y-90464285D01*
X122065771Y-90464285D02*
X122303866Y-90464285D01*
X122303866Y-90464285D02*
X122494342Y-90511904D01*
X122494342Y-90511904D02*
X122589580Y-90559523D01*
X122589580Y-90559523D02*
X122637200Y-90607142D01*
X122637200Y-90607142D02*
X122684819Y-90702380D01*
X122684819Y-90702380D02*
X122684819Y-90797618D01*
X122684819Y-90797618D02*
X122637200Y-90892856D01*
X122637200Y-90892856D02*
X122589580Y-90940475D01*
X122589580Y-90940475D02*
X122494342Y-90988094D01*
X122494342Y-90988094D02*
X122303866Y-91035713D01*
X122303866Y-91035713D02*
X122065771Y-91035713D01*
X122065771Y-91035713D02*
X121875295Y-90988094D01*
X121875295Y-90988094D02*
X121780057Y-90940475D01*
X121780057Y-90940475D02*
X121732438Y-90892856D01*
X121732438Y-90892856D02*
X121684819Y-90797618D01*
X121780057Y-90083332D02*
X121732438Y-90035713D01*
X121732438Y-90035713D02*
X121684819Y-89940475D01*
X121684819Y-89940475D02*
X121684819Y-89702380D01*
X121684819Y-89702380D02*
X121732438Y-89607142D01*
X121732438Y-89607142D02*
X121780057Y-89559523D01*
X121780057Y-89559523D02*
X121875295Y-89511904D01*
X121875295Y-89511904D02*
X121970533Y-89511904D01*
X121970533Y-89511904D02*
X122113390Y-89559523D01*
X122113390Y-89559523D02*
X122684819Y-90130951D01*
X122684819Y-90130951D02*
X122684819Y-89511904D01*
X138226190Y-124633390D02*
X138130952Y-124585771D01*
X138130952Y-124585771D02*
X138083333Y-124538152D01*
X138083333Y-124538152D02*
X138035714Y-124442914D01*
X138035714Y-124442914D02*
X138035714Y-124395295D01*
X138035714Y-124395295D02*
X138083333Y-124300057D01*
X138083333Y-124300057D02*
X138130952Y-124252438D01*
X138130952Y-124252438D02*
X138226190Y-124204819D01*
X138226190Y-124204819D02*
X138416666Y-124204819D01*
X138416666Y-124204819D02*
X138511904Y-124252438D01*
X138511904Y-124252438D02*
X138559523Y-124300057D01*
X138559523Y-124300057D02*
X138607142Y-124395295D01*
X138607142Y-124395295D02*
X138607142Y-124442914D01*
X138607142Y-124442914D02*
X138559523Y-124538152D01*
X138559523Y-124538152D02*
X138511904Y-124585771D01*
X138511904Y-124585771D02*
X138416666Y-124633390D01*
X138416666Y-124633390D02*
X138226190Y-124633390D01*
X138226190Y-124633390D02*
X138130952Y-124681009D01*
X138130952Y-124681009D02*
X138083333Y-124728628D01*
X138083333Y-124728628D02*
X138035714Y-124823866D01*
X138035714Y-124823866D02*
X138035714Y-125014342D01*
X138035714Y-125014342D02*
X138083333Y-125109580D01*
X138083333Y-125109580D02*
X138130952Y-125157200D01*
X138130952Y-125157200D02*
X138226190Y-125204819D01*
X138226190Y-125204819D02*
X138416666Y-125204819D01*
X138416666Y-125204819D02*
X138511904Y-125157200D01*
X138511904Y-125157200D02*
X138559523Y-125109580D01*
X138559523Y-125109580D02*
X138607142Y-125014342D01*
X138607142Y-125014342D02*
X138607142Y-124823866D01*
X138607142Y-124823866D02*
X138559523Y-124728628D01*
X138559523Y-124728628D02*
X138511904Y-124681009D01*
X138511904Y-124681009D02*
X138416666Y-124633390D01*
X139464285Y-124538152D02*
X139464285Y-125204819D01*
X139035714Y-124538152D02*
X139035714Y-125061961D01*
X139035714Y-125061961D02*
X139083333Y-125157200D01*
X139083333Y-125157200D02*
X139178571Y-125204819D01*
X139178571Y-125204819D02*
X139321428Y-125204819D01*
X139321428Y-125204819D02*
X139416666Y-125157200D01*
X139416666Y-125157200D02*
X139464285Y-125109580D01*
X139892857Y-124300057D02*
X139940476Y-124252438D01*
X139940476Y-124252438D02*
X140035714Y-124204819D01*
X140035714Y-124204819D02*
X140273809Y-124204819D01*
X140273809Y-124204819D02*
X140369047Y-124252438D01*
X140369047Y-124252438D02*
X140416666Y-124300057D01*
X140416666Y-124300057D02*
X140464285Y-124395295D01*
X140464285Y-124395295D02*
X140464285Y-124490533D01*
X140464285Y-124490533D02*
X140416666Y-124633390D01*
X140416666Y-124633390D02*
X139845238Y-125204819D01*
X139845238Y-125204819D02*
X140464285Y-125204819D01*
X138130952Y-117359580D02*
X138083333Y-117407200D01*
X138083333Y-117407200D02*
X137940476Y-117454819D01*
X137940476Y-117454819D02*
X137845238Y-117454819D01*
X137845238Y-117454819D02*
X137702381Y-117407200D01*
X137702381Y-117407200D02*
X137607143Y-117311961D01*
X137607143Y-117311961D02*
X137559524Y-117216723D01*
X137559524Y-117216723D02*
X137511905Y-117026247D01*
X137511905Y-117026247D02*
X137511905Y-116883390D01*
X137511905Y-116883390D02*
X137559524Y-116692914D01*
X137559524Y-116692914D02*
X137607143Y-116597676D01*
X137607143Y-116597676D02*
X137702381Y-116502438D01*
X137702381Y-116502438D02*
X137845238Y-116454819D01*
X137845238Y-116454819D02*
X137940476Y-116454819D01*
X137940476Y-116454819D02*
X138083333Y-116502438D01*
X138083333Y-116502438D02*
X138130952Y-116550057D01*
X138511905Y-116550057D02*
X138559524Y-116502438D01*
X138559524Y-116502438D02*
X138654762Y-116454819D01*
X138654762Y-116454819D02*
X138892857Y-116454819D01*
X138892857Y-116454819D02*
X138988095Y-116502438D01*
X138988095Y-116502438D02*
X139035714Y-116550057D01*
X139035714Y-116550057D02*
X139083333Y-116645295D01*
X139083333Y-116645295D02*
X139083333Y-116740533D01*
X139083333Y-116740533D02*
X139035714Y-116883390D01*
X139035714Y-116883390D02*
X138464286Y-117454819D01*
X138464286Y-117454819D02*
X139083333Y-117454819D01*
X139702381Y-116454819D02*
X139797619Y-116454819D01*
X139797619Y-116454819D02*
X139892857Y-116502438D01*
X139892857Y-116502438D02*
X139940476Y-116550057D01*
X139940476Y-116550057D02*
X139988095Y-116645295D01*
X139988095Y-116645295D02*
X140035714Y-116835771D01*
X140035714Y-116835771D02*
X140035714Y-117073866D01*
X140035714Y-117073866D02*
X139988095Y-117264342D01*
X139988095Y-117264342D02*
X139940476Y-117359580D01*
X139940476Y-117359580D02*
X139892857Y-117407200D01*
X139892857Y-117407200D02*
X139797619Y-117454819D01*
X139797619Y-117454819D02*
X139702381Y-117454819D01*
X139702381Y-117454819D02*
X139607143Y-117407200D01*
X139607143Y-117407200D02*
X139559524Y-117359580D01*
X139559524Y-117359580D02*
X139511905Y-117264342D01*
X139511905Y-117264342D02*
X139464286Y-117073866D01*
X139464286Y-117073866D02*
X139464286Y-116835771D01*
X139464286Y-116835771D02*
X139511905Y-116645295D01*
X139511905Y-116645295D02*
X139559524Y-116550057D01*
X139559524Y-116550057D02*
X139607143Y-116502438D01*
X139607143Y-116502438D02*
X139702381Y-116454819D01*
X140892857Y-116454819D02*
X140702381Y-116454819D01*
X140702381Y-116454819D02*
X140607143Y-116502438D01*
X140607143Y-116502438D02*
X140559524Y-116550057D01*
X140559524Y-116550057D02*
X140464286Y-116692914D01*
X140464286Y-116692914D02*
X140416667Y-116883390D01*
X140416667Y-116883390D02*
X140416667Y-117264342D01*
X140416667Y-117264342D02*
X140464286Y-117359580D01*
X140464286Y-117359580D02*
X140511905Y-117407200D01*
X140511905Y-117407200D02*
X140607143Y-117454819D01*
X140607143Y-117454819D02*
X140797619Y-117454819D01*
X140797619Y-117454819D02*
X140892857Y-117407200D01*
X140892857Y-117407200D02*
X140940476Y-117359580D01*
X140940476Y-117359580D02*
X140988095Y-117264342D01*
X140988095Y-117264342D02*
X140988095Y-117026247D01*
X140988095Y-117026247D02*
X140940476Y-116931009D01*
X140940476Y-116931009D02*
X140892857Y-116883390D01*
X140892857Y-116883390D02*
X140797619Y-116835771D01*
X140797619Y-116835771D02*
X140607143Y-116835771D01*
X140607143Y-116835771D02*
X140511905Y-116883390D01*
X140511905Y-116883390D02*
X140464286Y-116931009D01*
X140464286Y-116931009D02*
X140416667Y-117026247D01*
X71064819Y-59303569D02*
X71064819Y-59208331D01*
X71064819Y-59208331D02*
X71112438Y-59113093D01*
X71112438Y-59113093D02*
X71160057Y-59065474D01*
X71160057Y-59065474D02*
X71255295Y-59017855D01*
X71255295Y-59017855D02*
X71445771Y-58970236D01*
X71445771Y-58970236D02*
X71683866Y-58970236D01*
X71683866Y-58970236D02*
X71874342Y-59017855D01*
X71874342Y-59017855D02*
X71969580Y-59065474D01*
X71969580Y-59065474D02*
X72017200Y-59113093D01*
X72017200Y-59113093D02*
X72064819Y-59208331D01*
X72064819Y-59208331D02*
X72064819Y-59303569D01*
X72064819Y-59303569D02*
X72017200Y-59398807D01*
X72017200Y-59398807D02*
X71969580Y-59446426D01*
X71969580Y-59446426D02*
X71874342Y-59494045D01*
X71874342Y-59494045D02*
X71683866Y-59541664D01*
X71683866Y-59541664D02*
X71445771Y-59541664D01*
X71445771Y-59541664D02*
X71255295Y-59494045D01*
X71255295Y-59494045D02*
X71160057Y-59446426D01*
X71160057Y-59446426D02*
X71112438Y-59398807D01*
X71112438Y-59398807D02*
X71064819Y-59303569D01*
X71969580Y-58541664D02*
X72017200Y-58494045D01*
X72017200Y-58494045D02*
X72064819Y-58541664D01*
X72064819Y-58541664D02*
X72017200Y-58589283D01*
X72017200Y-58589283D02*
X71969580Y-58541664D01*
X71969580Y-58541664D02*
X72064819Y-58541664D01*
X71160057Y-58113093D02*
X71112438Y-58065474D01*
X71112438Y-58065474D02*
X71064819Y-57970236D01*
X71064819Y-57970236D02*
X71064819Y-57732141D01*
X71064819Y-57732141D02*
X71112438Y-57636903D01*
X71112438Y-57636903D02*
X71160057Y-57589284D01*
X71160057Y-57589284D02*
X71255295Y-57541665D01*
X71255295Y-57541665D02*
X71350533Y-57541665D01*
X71350533Y-57541665D02*
X71493390Y-57589284D01*
X71493390Y-57589284D02*
X72064819Y-58160712D01*
X72064819Y-58160712D02*
X72064819Y-57541665D01*
X71064819Y-56922617D02*
X71064819Y-56827379D01*
X71064819Y-56827379D02*
X71112438Y-56732141D01*
X71112438Y-56732141D02*
X71160057Y-56684522D01*
X71160057Y-56684522D02*
X71255295Y-56636903D01*
X71255295Y-56636903D02*
X71445771Y-56589284D01*
X71445771Y-56589284D02*
X71683866Y-56589284D01*
X71683866Y-56589284D02*
X71874342Y-56636903D01*
X71874342Y-56636903D02*
X71969580Y-56684522D01*
X71969580Y-56684522D02*
X72017200Y-56732141D01*
X72017200Y-56732141D02*
X72064819Y-56827379D01*
X72064819Y-56827379D02*
X72064819Y-56922617D01*
X72064819Y-56922617D02*
X72017200Y-57017855D01*
X72017200Y-57017855D02*
X71969580Y-57065474D01*
X71969580Y-57065474D02*
X71874342Y-57113093D01*
X71874342Y-57113093D02*
X71683866Y-57160712D01*
X71683866Y-57160712D02*
X71445771Y-57160712D01*
X71445771Y-57160712D02*
X71255295Y-57113093D01*
X71255295Y-57113093D02*
X71160057Y-57065474D01*
X71160057Y-57065474D02*
X71112438Y-57017855D01*
X71112438Y-57017855D02*
X71064819Y-56922617D01*
X72064819Y-56160712D02*
X71398152Y-56160712D01*
X71493390Y-56160712D02*
X71445771Y-56113093D01*
X71445771Y-56113093D02*
X71398152Y-56017855D01*
X71398152Y-56017855D02*
X71398152Y-55874998D01*
X71398152Y-55874998D02*
X71445771Y-55779760D01*
X71445771Y-55779760D02*
X71541009Y-55732141D01*
X71541009Y-55732141D02*
X72064819Y-55732141D01*
X71541009Y-55732141D02*
X71445771Y-55684522D01*
X71445771Y-55684522D02*
X71398152Y-55589284D01*
X71398152Y-55589284D02*
X71398152Y-55446427D01*
X71398152Y-55446427D02*
X71445771Y-55351188D01*
X71445771Y-55351188D02*
X71541009Y-55303569D01*
X71541009Y-55303569D02*
X72064819Y-55303569D01*
X72064819Y-54827379D02*
X71064819Y-54827379D01*
X71541009Y-54827379D02*
X71541009Y-54255951D01*
X72064819Y-54255951D02*
X71064819Y-54255951D01*
X120715714Y-67720057D02*
X120763333Y-67672438D01*
X120763333Y-67672438D02*
X120858571Y-67624819D01*
X120858571Y-67624819D02*
X121096666Y-67624819D01*
X121096666Y-67624819D02*
X121191904Y-67672438D01*
X121191904Y-67672438D02*
X121239523Y-67720057D01*
X121239523Y-67720057D02*
X121287142Y-67815295D01*
X121287142Y-67815295D02*
X121287142Y-67910533D01*
X121287142Y-67910533D02*
X121239523Y-68053390D01*
X121239523Y-68053390D02*
X120668095Y-68624819D01*
X120668095Y-68624819D02*
X121287142Y-68624819D01*
X122144285Y-67958152D02*
X122144285Y-68624819D01*
X121715714Y-67958152D02*
X121715714Y-68481961D01*
X121715714Y-68481961D02*
X121763333Y-68577200D01*
X121763333Y-68577200D02*
X121858571Y-68624819D01*
X121858571Y-68624819D02*
X122001428Y-68624819D01*
X122001428Y-68624819D02*
X122096666Y-68577200D01*
X122096666Y-68577200D02*
X122144285Y-68529580D01*
X122572857Y-67720057D02*
X122620476Y-67672438D01*
X122620476Y-67672438D02*
X122715714Y-67624819D01*
X122715714Y-67624819D02*
X122953809Y-67624819D01*
X122953809Y-67624819D02*
X123049047Y-67672438D01*
X123049047Y-67672438D02*
X123096666Y-67720057D01*
X123096666Y-67720057D02*
X123144285Y-67815295D01*
X123144285Y-67815295D02*
X123144285Y-67910533D01*
X123144285Y-67910533D02*
X123096666Y-68053390D01*
X123096666Y-68053390D02*
X122525238Y-68624819D01*
X122525238Y-68624819D02*
X123144285Y-68624819D01*
X120810952Y-63779580D02*
X120763333Y-63827200D01*
X120763333Y-63827200D02*
X120620476Y-63874819D01*
X120620476Y-63874819D02*
X120525238Y-63874819D01*
X120525238Y-63874819D02*
X120382381Y-63827200D01*
X120382381Y-63827200D02*
X120287143Y-63731961D01*
X120287143Y-63731961D02*
X120239524Y-63636723D01*
X120239524Y-63636723D02*
X120191905Y-63446247D01*
X120191905Y-63446247D02*
X120191905Y-63303390D01*
X120191905Y-63303390D02*
X120239524Y-63112914D01*
X120239524Y-63112914D02*
X120287143Y-63017676D01*
X120287143Y-63017676D02*
X120382381Y-62922438D01*
X120382381Y-62922438D02*
X120525238Y-62874819D01*
X120525238Y-62874819D02*
X120620476Y-62874819D01*
X120620476Y-62874819D02*
X120763333Y-62922438D01*
X120763333Y-62922438D02*
X120810952Y-62970057D01*
X121763333Y-63874819D02*
X121191905Y-63874819D01*
X121477619Y-63874819D02*
X121477619Y-62874819D01*
X121477619Y-62874819D02*
X121382381Y-63017676D01*
X121382381Y-63017676D02*
X121287143Y-63112914D01*
X121287143Y-63112914D02*
X121191905Y-63160533D01*
X122382381Y-62874819D02*
X122477619Y-62874819D01*
X122477619Y-62874819D02*
X122572857Y-62922438D01*
X122572857Y-62922438D02*
X122620476Y-62970057D01*
X122620476Y-62970057D02*
X122668095Y-63065295D01*
X122668095Y-63065295D02*
X122715714Y-63255771D01*
X122715714Y-63255771D02*
X122715714Y-63493866D01*
X122715714Y-63493866D02*
X122668095Y-63684342D01*
X122668095Y-63684342D02*
X122620476Y-63779580D01*
X122620476Y-63779580D02*
X122572857Y-63827200D01*
X122572857Y-63827200D02*
X122477619Y-63874819D01*
X122477619Y-63874819D02*
X122382381Y-63874819D01*
X122382381Y-63874819D02*
X122287143Y-63827200D01*
X122287143Y-63827200D02*
X122239524Y-63779580D01*
X122239524Y-63779580D02*
X122191905Y-63684342D01*
X122191905Y-63684342D02*
X122144286Y-63493866D01*
X122144286Y-63493866D02*
X122144286Y-63255771D01*
X122144286Y-63255771D02*
X122191905Y-63065295D01*
X122191905Y-63065295D02*
X122239524Y-62970057D01*
X122239524Y-62970057D02*
X122287143Y-62922438D01*
X122287143Y-62922438D02*
X122382381Y-62874819D01*
X123049048Y-62874819D02*
X123668095Y-62874819D01*
X123668095Y-62874819D02*
X123334762Y-63255771D01*
X123334762Y-63255771D02*
X123477619Y-63255771D01*
X123477619Y-63255771D02*
X123572857Y-63303390D01*
X123572857Y-63303390D02*
X123620476Y-63351009D01*
X123620476Y-63351009D02*
X123668095Y-63446247D01*
X123668095Y-63446247D02*
X123668095Y-63684342D01*
X123668095Y-63684342D02*
X123620476Y-63779580D01*
X123620476Y-63779580D02*
X123572857Y-63827200D01*
X123572857Y-63827200D02*
X123477619Y-63874819D01*
X123477619Y-63874819D02*
X123191905Y-63874819D01*
X123191905Y-63874819D02*
X123096667Y-63827200D01*
X123096667Y-63827200D02*
X123049048Y-63779580D01*
X138488095Y-137954819D02*
X139107142Y-137954819D01*
X139107142Y-137954819D02*
X138773809Y-138335771D01*
X138773809Y-138335771D02*
X138916666Y-138335771D01*
X138916666Y-138335771D02*
X139011904Y-138383390D01*
X139011904Y-138383390D02*
X139059523Y-138431009D01*
X139059523Y-138431009D02*
X139107142Y-138526247D01*
X139107142Y-138526247D02*
X139107142Y-138764342D01*
X139107142Y-138764342D02*
X139059523Y-138859580D01*
X139059523Y-138859580D02*
X139011904Y-138907200D01*
X139011904Y-138907200D02*
X138916666Y-138954819D01*
X138916666Y-138954819D02*
X138630952Y-138954819D01*
X138630952Y-138954819D02*
X138535714Y-138907200D01*
X138535714Y-138907200D02*
X138488095Y-138859580D01*
X139964285Y-138288152D02*
X139964285Y-138954819D01*
X139535714Y-138288152D02*
X139535714Y-138811961D01*
X139535714Y-138811961D02*
X139583333Y-138907200D01*
X139583333Y-138907200D02*
X139678571Y-138954819D01*
X139678571Y-138954819D02*
X139821428Y-138954819D01*
X139821428Y-138954819D02*
X139916666Y-138907200D01*
X139916666Y-138907200D02*
X139964285Y-138859580D01*
X140345238Y-137954819D02*
X140964285Y-137954819D01*
X140964285Y-137954819D02*
X140630952Y-138335771D01*
X140630952Y-138335771D02*
X140773809Y-138335771D01*
X140773809Y-138335771D02*
X140869047Y-138383390D01*
X140869047Y-138383390D02*
X140916666Y-138431009D01*
X140916666Y-138431009D02*
X140964285Y-138526247D01*
X140964285Y-138526247D02*
X140964285Y-138764342D01*
X140964285Y-138764342D02*
X140916666Y-138859580D01*
X140916666Y-138859580D02*
X140869047Y-138907200D01*
X140869047Y-138907200D02*
X140773809Y-138954819D01*
X140773809Y-138954819D02*
X140488095Y-138954819D01*
X140488095Y-138954819D02*
X140392857Y-138907200D01*
X140392857Y-138907200D02*
X140345238Y-138859580D01*
X138630952Y-133359580D02*
X138583333Y-133407200D01*
X138583333Y-133407200D02*
X138440476Y-133454819D01*
X138440476Y-133454819D02*
X138345238Y-133454819D01*
X138345238Y-133454819D02*
X138202381Y-133407200D01*
X138202381Y-133407200D02*
X138107143Y-133311961D01*
X138107143Y-133311961D02*
X138059524Y-133216723D01*
X138059524Y-133216723D02*
X138011905Y-133026247D01*
X138011905Y-133026247D02*
X138011905Y-132883390D01*
X138011905Y-132883390D02*
X138059524Y-132692914D01*
X138059524Y-132692914D02*
X138107143Y-132597676D01*
X138107143Y-132597676D02*
X138202381Y-132502438D01*
X138202381Y-132502438D02*
X138345238Y-132454819D01*
X138345238Y-132454819D02*
X138440476Y-132454819D01*
X138440476Y-132454819D02*
X138583333Y-132502438D01*
X138583333Y-132502438D02*
X138630952Y-132550057D01*
X139011905Y-132550057D02*
X139059524Y-132502438D01*
X139059524Y-132502438D02*
X139154762Y-132454819D01*
X139154762Y-132454819D02*
X139392857Y-132454819D01*
X139392857Y-132454819D02*
X139488095Y-132502438D01*
X139488095Y-132502438D02*
X139535714Y-132550057D01*
X139535714Y-132550057D02*
X139583333Y-132645295D01*
X139583333Y-132645295D02*
X139583333Y-132740533D01*
X139583333Y-132740533D02*
X139535714Y-132883390D01*
X139535714Y-132883390D02*
X138964286Y-133454819D01*
X138964286Y-133454819D02*
X139583333Y-133454819D01*
X140202381Y-132454819D02*
X140297619Y-132454819D01*
X140297619Y-132454819D02*
X140392857Y-132502438D01*
X140392857Y-132502438D02*
X140440476Y-132550057D01*
X140440476Y-132550057D02*
X140488095Y-132645295D01*
X140488095Y-132645295D02*
X140535714Y-132835771D01*
X140535714Y-132835771D02*
X140535714Y-133073866D01*
X140535714Y-133073866D02*
X140488095Y-133264342D01*
X140488095Y-133264342D02*
X140440476Y-133359580D01*
X140440476Y-133359580D02*
X140392857Y-133407200D01*
X140392857Y-133407200D02*
X140297619Y-133454819D01*
X140297619Y-133454819D02*
X140202381Y-133454819D01*
X140202381Y-133454819D02*
X140107143Y-133407200D01*
X140107143Y-133407200D02*
X140059524Y-133359580D01*
X140059524Y-133359580D02*
X140011905Y-133264342D01*
X140011905Y-133264342D02*
X139964286Y-133073866D01*
X139964286Y-133073866D02*
X139964286Y-132835771D01*
X139964286Y-132835771D02*
X140011905Y-132645295D01*
X140011905Y-132645295D02*
X140059524Y-132550057D01*
X140059524Y-132550057D02*
X140107143Y-132502438D01*
X140107143Y-132502438D02*
X140202381Y-132454819D01*
X140869048Y-132454819D02*
X141535714Y-132454819D01*
X141535714Y-132454819D02*
X141107143Y-133454819D01*
X77634819Y-94119047D02*
X77634819Y-94690475D01*
X77634819Y-94404761D02*
X76634819Y-94404761D01*
X76634819Y-94404761D02*
X76777676Y-94499999D01*
X76777676Y-94499999D02*
X76872914Y-94595237D01*
X76872914Y-94595237D02*
X76920533Y-94690475D01*
X76634819Y-93499999D02*
X76634819Y-93404761D01*
X76634819Y-93404761D02*
X76682438Y-93309523D01*
X76682438Y-93309523D02*
X76730057Y-93261904D01*
X76730057Y-93261904D02*
X76825295Y-93214285D01*
X76825295Y-93214285D02*
X77015771Y-93166666D01*
X77015771Y-93166666D02*
X77253866Y-93166666D01*
X77253866Y-93166666D02*
X77444342Y-93214285D01*
X77444342Y-93214285D02*
X77539580Y-93261904D01*
X77539580Y-93261904D02*
X77587200Y-93309523D01*
X77587200Y-93309523D02*
X77634819Y-93404761D01*
X77634819Y-93404761D02*
X77634819Y-93499999D01*
X77634819Y-93499999D02*
X77587200Y-93595237D01*
X77587200Y-93595237D02*
X77539580Y-93642856D01*
X77539580Y-93642856D02*
X77444342Y-93690475D01*
X77444342Y-93690475D02*
X77253866Y-93738094D01*
X77253866Y-93738094D02*
X77015771Y-93738094D01*
X77015771Y-93738094D02*
X76825295Y-93690475D01*
X76825295Y-93690475D02*
X76730057Y-93642856D01*
X76730057Y-93642856D02*
X76682438Y-93595237D01*
X76682438Y-93595237D02*
X76634819Y-93499999D01*
X77634819Y-92166666D02*
X77158628Y-92499999D01*
X77634819Y-92738094D02*
X76634819Y-92738094D01*
X76634819Y-92738094D02*
X76634819Y-92357142D01*
X76634819Y-92357142D02*
X76682438Y-92261904D01*
X76682438Y-92261904D02*
X76730057Y-92214285D01*
X76730057Y-92214285D02*
X76825295Y-92166666D01*
X76825295Y-92166666D02*
X76968152Y-92166666D01*
X76968152Y-92166666D02*
X77063390Y-92214285D01*
X77063390Y-92214285D02*
X77111009Y-92261904D01*
X77111009Y-92261904D02*
X77158628Y-92357142D01*
X77158628Y-92357142D02*
X77158628Y-92738094D01*
X76634819Y-90499999D02*
X76634819Y-90976189D01*
X76634819Y-90976189D02*
X77111009Y-91023808D01*
X77111009Y-91023808D02*
X77063390Y-90976189D01*
X77063390Y-90976189D02*
X77015771Y-90880951D01*
X77015771Y-90880951D02*
X77015771Y-90642856D01*
X77015771Y-90642856D02*
X77063390Y-90547618D01*
X77063390Y-90547618D02*
X77111009Y-90499999D01*
X77111009Y-90499999D02*
X77206247Y-90452380D01*
X77206247Y-90452380D02*
X77444342Y-90452380D01*
X77444342Y-90452380D02*
X77539580Y-90499999D01*
X77539580Y-90499999D02*
X77587200Y-90547618D01*
X77587200Y-90547618D02*
X77634819Y-90642856D01*
X77634819Y-90642856D02*
X77634819Y-90880951D01*
X77634819Y-90880951D02*
X77587200Y-90976189D01*
X77587200Y-90976189D02*
X77539580Y-91023808D01*
X76634819Y-90119046D02*
X77634819Y-89880951D01*
X77634819Y-89880951D02*
X76920533Y-89690475D01*
X76920533Y-89690475D02*
X77634819Y-89499999D01*
X77634819Y-89499999D02*
X76634819Y-89261904D01*
X81954819Y-93119047D02*
X81478628Y-93452380D01*
X81954819Y-93690475D02*
X80954819Y-93690475D01*
X80954819Y-93690475D02*
X80954819Y-93309523D01*
X80954819Y-93309523D02*
X81002438Y-93214285D01*
X81002438Y-93214285D02*
X81050057Y-93166666D01*
X81050057Y-93166666D02*
X81145295Y-93119047D01*
X81145295Y-93119047D02*
X81288152Y-93119047D01*
X81288152Y-93119047D02*
X81383390Y-93166666D01*
X81383390Y-93166666D02*
X81431009Y-93214285D01*
X81431009Y-93214285D02*
X81478628Y-93309523D01*
X81478628Y-93309523D02*
X81478628Y-93690475D01*
X81050057Y-92738094D02*
X81002438Y-92690475D01*
X81002438Y-92690475D02*
X80954819Y-92595237D01*
X80954819Y-92595237D02*
X80954819Y-92357142D01*
X80954819Y-92357142D02*
X81002438Y-92261904D01*
X81002438Y-92261904D02*
X81050057Y-92214285D01*
X81050057Y-92214285D02*
X81145295Y-92166666D01*
X81145295Y-92166666D02*
X81240533Y-92166666D01*
X81240533Y-92166666D02*
X81383390Y-92214285D01*
X81383390Y-92214285D02*
X81954819Y-92785713D01*
X81954819Y-92785713D02*
X81954819Y-92166666D01*
X80954819Y-91547618D02*
X80954819Y-91452380D01*
X80954819Y-91452380D02*
X81002438Y-91357142D01*
X81002438Y-91357142D02*
X81050057Y-91309523D01*
X81050057Y-91309523D02*
X81145295Y-91261904D01*
X81145295Y-91261904D02*
X81335771Y-91214285D01*
X81335771Y-91214285D02*
X81573866Y-91214285D01*
X81573866Y-91214285D02*
X81764342Y-91261904D01*
X81764342Y-91261904D02*
X81859580Y-91309523D01*
X81859580Y-91309523D02*
X81907200Y-91357142D01*
X81907200Y-91357142D02*
X81954819Y-91452380D01*
X81954819Y-91452380D02*
X81954819Y-91547618D01*
X81954819Y-91547618D02*
X81907200Y-91642856D01*
X81907200Y-91642856D02*
X81859580Y-91690475D01*
X81859580Y-91690475D02*
X81764342Y-91738094D01*
X81764342Y-91738094D02*
X81573866Y-91785713D01*
X81573866Y-91785713D02*
X81335771Y-91785713D01*
X81335771Y-91785713D02*
X81145295Y-91738094D01*
X81145295Y-91738094D02*
X81050057Y-91690475D01*
X81050057Y-91690475D02*
X81002438Y-91642856D01*
X81002438Y-91642856D02*
X80954819Y-91547618D01*
X81050057Y-90833332D02*
X81002438Y-90785713D01*
X81002438Y-90785713D02*
X80954819Y-90690475D01*
X80954819Y-90690475D02*
X80954819Y-90452380D01*
X80954819Y-90452380D02*
X81002438Y-90357142D01*
X81002438Y-90357142D02*
X81050057Y-90309523D01*
X81050057Y-90309523D02*
X81145295Y-90261904D01*
X81145295Y-90261904D02*
X81240533Y-90261904D01*
X81240533Y-90261904D02*
X81383390Y-90309523D01*
X81383390Y-90309523D02*
X81954819Y-90880951D01*
X81954819Y-90880951D02*
X81954819Y-90261904D01*
X87705714Y-47585057D02*
X87753333Y-47537438D01*
X87753333Y-47537438D02*
X87848571Y-47489819D01*
X87848571Y-47489819D02*
X88086666Y-47489819D01*
X88086666Y-47489819D02*
X88181904Y-47537438D01*
X88181904Y-47537438D02*
X88229523Y-47585057D01*
X88229523Y-47585057D02*
X88277142Y-47680295D01*
X88277142Y-47680295D02*
X88277142Y-47775533D01*
X88277142Y-47775533D02*
X88229523Y-47918390D01*
X88229523Y-47918390D02*
X87658095Y-48489819D01*
X87658095Y-48489819D02*
X88277142Y-48489819D01*
X89134285Y-47823152D02*
X89134285Y-48489819D01*
X88705714Y-47823152D02*
X88705714Y-48346961D01*
X88705714Y-48346961D02*
X88753333Y-48442200D01*
X88753333Y-48442200D02*
X88848571Y-48489819D01*
X88848571Y-48489819D02*
X88991428Y-48489819D01*
X88991428Y-48489819D02*
X89086666Y-48442200D01*
X89086666Y-48442200D02*
X89134285Y-48394580D01*
X89562857Y-47585057D02*
X89610476Y-47537438D01*
X89610476Y-47537438D02*
X89705714Y-47489819D01*
X89705714Y-47489819D02*
X89943809Y-47489819D01*
X89943809Y-47489819D02*
X90039047Y-47537438D01*
X90039047Y-47537438D02*
X90086666Y-47585057D01*
X90086666Y-47585057D02*
X90134285Y-47680295D01*
X90134285Y-47680295D02*
X90134285Y-47775533D01*
X90134285Y-47775533D02*
X90086666Y-47918390D01*
X90086666Y-47918390D02*
X89515238Y-48489819D01*
X89515238Y-48489819D02*
X90134285Y-48489819D01*
X87800952Y-43644580D02*
X87753333Y-43692200D01*
X87753333Y-43692200D02*
X87610476Y-43739819D01*
X87610476Y-43739819D02*
X87515238Y-43739819D01*
X87515238Y-43739819D02*
X87372381Y-43692200D01*
X87372381Y-43692200D02*
X87277143Y-43596961D01*
X87277143Y-43596961D02*
X87229524Y-43501723D01*
X87229524Y-43501723D02*
X87181905Y-43311247D01*
X87181905Y-43311247D02*
X87181905Y-43168390D01*
X87181905Y-43168390D02*
X87229524Y-42977914D01*
X87229524Y-42977914D02*
X87277143Y-42882676D01*
X87277143Y-42882676D02*
X87372381Y-42787438D01*
X87372381Y-42787438D02*
X87515238Y-42739819D01*
X87515238Y-42739819D02*
X87610476Y-42739819D01*
X87610476Y-42739819D02*
X87753333Y-42787438D01*
X87753333Y-42787438D02*
X87800952Y-42835057D01*
X88753333Y-43739819D02*
X88181905Y-43739819D01*
X88467619Y-43739819D02*
X88467619Y-42739819D01*
X88467619Y-42739819D02*
X88372381Y-42882676D01*
X88372381Y-42882676D02*
X88277143Y-42977914D01*
X88277143Y-42977914D02*
X88181905Y-43025533D01*
X89372381Y-42739819D02*
X89467619Y-42739819D01*
X89467619Y-42739819D02*
X89562857Y-42787438D01*
X89562857Y-42787438D02*
X89610476Y-42835057D01*
X89610476Y-42835057D02*
X89658095Y-42930295D01*
X89658095Y-42930295D02*
X89705714Y-43120771D01*
X89705714Y-43120771D02*
X89705714Y-43358866D01*
X89705714Y-43358866D02*
X89658095Y-43549342D01*
X89658095Y-43549342D02*
X89610476Y-43644580D01*
X89610476Y-43644580D02*
X89562857Y-43692200D01*
X89562857Y-43692200D02*
X89467619Y-43739819D01*
X89467619Y-43739819D02*
X89372381Y-43739819D01*
X89372381Y-43739819D02*
X89277143Y-43692200D01*
X89277143Y-43692200D02*
X89229524Y-43644580D01*
X89229524Y-43644580D02*
X89181905Y-43549342D01*
X89181905Y-43549342D02*
X89134286Y-43358866D01*
X89134286Y-43358866D02*
X89134286Y-43120771D01*
X89134286Y-43120771D02*
X89181905Y-42930295D01*
X89181905Y-42930295D02*
X89229524Y-42835057D01*
X89229524Y-42835057D02*
X89277143Y-42787438D01*
X89277143Y-42787438D02*
X89372381Y-42739819D01*
X90658095Y-43739819D02*
X90086667Y-43739819D01*
X90372381Y-43739819D02*
X90372381Y-42739819D01*
X90372381Y-42739819D02*
X90277143Y-42882676D01*
X90277143Y-42882676D02*
X90181905Y-42977914D01*
X90181905Y-42977914D02*
X90086667Y-43025533D01*
X66190476Y-144654819D02*
X66190476Y-143654819D01*
X66190476Y-143654819D02*
X66523809Y-144369104D01*
X66523809Y-144369104D02*
X66857142Y-143654819D01*
X66857142Y-143654819D02*
X66857142Y-144654819D01*
X67761904Y-143988152D02*
X67761904Y-144654819D01*
X67523809Y-143607200D02*
X67285714Y-144321485D01*
X67285714Y-144321485D02*
X67904761Y-144321485D01*
X66238095Y-139954819D02*
X66238095Y-138954819D01*
X66238095Y-139431009D02*
X66809523Y-139431009D01*
X66809523Y-139954819D02*
X66809523Y-138954819D01*
X67190476Y-138954819D02*
X67809523Y-138954819D01*
X67809523Y-138954819D02*
X67476190Y-139335771D01*
X67476190Y-139335771D02*
X67619047Y-139335771D01*
X67619047Y-139335771D02*
X67714285Y-139383390D01*
X67714285Y-139383390D02*
X67761904Y-139431009D01*
X67761904Y-139431009D02*
X67809523Y-139526247D01*
X67809523Y-139526247D02*
X67809523Y-139764342D01*
X67809523Y-139764342D02*
X67761904Y-139859580D01*
X67761904Y-139859580D02*
X67714285Y-139907200D01*
X67714285Y-139907200D02*
X67619047Y-139954819D01*
X67619047Y-139954819D02*
X67333333Y-139954819D01*
X67333333Y-139954819D02*
X67238095Y-139907200D01*
X67238095Y-139907200D02*
X67190476Y-139859580D01*
X198690476Y-144654819D02*
X198690476Y-143654819D01*
X198690476Y-143654819D02*
X199023809Y-144369104D01*
X199023809Y-144369104D02*
X199357142Y-143654819D01*
X199357142Y-143654819D02*
X199357142Y-144654819D01*
X200261904Y-143988152D02*
X200261904Y-144654819D01*
X200023809Y-143607200D02*
X199785714Y-144321485D01*
X199785714Y-144321485D02*
X200404761Y-144321485D01*
X198738095Y-139954819D02*
X198738095Y-138954819D01*
X198738095Y-139431009D02*
X199309523Y-139431009D01*
X199309523Y-139954819D02*
X199309523Y-138954819D01*
X200214285Y-139288152D02*
X200214285Y-139954819D01*
X199976190Y-138907200D02*
X199738095Y-139621485D01*
X199738095Y-139621485D02*
X200357142Y-139621485D01*
X120668095Y-56034818D02*
X121287142Y-56034818D01*
X121287142Y-56034818D02*
X120953809Y-56415770D01*
X120953809Y-56415770D02*
X121096666Y-56415770D01*
X121096666Y-56415770D02*
X121191904Y-56463389D01*
X121191904Y-56463389D02*
X121239523Y-56511008D01*
X121239523Y-56511008D02*
X121287142Y-56606246D01*
X121287142Y-56606246D02*
X121287142Y-56844341D01*
X121287142Y-56844341D02*
X121239523Y-56939579D01*
X121239523Y-56939579D02*
X121191904Y-56987199D01*
X121191904Y-56987199D02*
X121096666Y-57034818D01*
X121096666Y-57034818D02*
X120810952Y-57034818D01*
X120810952Y-57034818D02*
X120715714Y-56987199D01*
X120715714Y-56987199D02*
X120668095Y-56939579D01*
X122144285Y-56368151D02*
X122144285Y-57034818D01*
X121715714Y-56368151D02*
X121715714Y-56891960D01*
X121715714Y-56891960D02*
X121763333Y-56987199D01*
X121763333Y-56987199D02*
X121858571Y-57034818D01*
X121858571Y-57034818D02*
X122001428Y-57034818D01*
X122001428Y-57034818D02*
X122096666Y-56987199D01*
X122096666Y-56987199D02*
X122144285Y-56939579D01*
X122525238Y-56034818D02*
X123144285Y-56034818D01*
X123144285Y-56034818D02*
X122810952Y-56415770D01*
X122810952Y-56415770D02*
X122953809Y-56415770D01*
X122953809Y-56415770D02*
X123049047Y-56463389D01*
X123049047Y-56463389D02*
X123096666Y-56511008D01*
X123096666Y-56511008D02*
X123144285Y-56606246D01*
X123144285Y-56606246D02*
X123144285Y-56844341D01*
X123144285Y-56844341D02*
X123096666Y-56939579D01*
X123096666Y-56939579D02*
X123049047Y-56987199D01*
X123049047Y-56987199D02*
X122953809Y-57034818D01*
X122953809Y-57034818D02*
X122668095Y-57034818D01*
X122668095Y-57034818D02*
X122572857Y-56987199D01*
X122572857Y-56987199D02*
X122525238Y-56939579D01*
X120810952Y-51439579D02*
X120763333Y-51487199D01*
X120763333Y-51487199D02*
X120620476Y-51534818D01*
X120620476Y-51534818D02*
X120525238Y-51534818D01*
X120525238Y-51534818D02*
X120382381Y-51487199D01*
X120382381Y-51487199D02*
X120287143Y-51391960D01*
X120287143Y-51391960D02*
X120239524Y-51296722D01*
X120239524Y-51296722D02*
X120191905Y-51106246D01*
X120191905Y-51106246D02*
X120191905Y-50963389D01*
X120191905Y-50963389D02*
X120239524Y-50772913D01*
X120239524Y-50772913D02*
X120287143Y-50677675D01*
X120287143Y-50677675D02*
X120382381Y-50582437D01*
X120382381Y-50582437D02*
X120525238Y-50534818D01*
X120525238Y-50534818D02*
X120620476Y-50534818D01*
X120620476Y-50534818D02*
X120763333Y-50582437D01*
X120763333Y-50582437D02*
X120810952Y-50630056D01*
X121763333Y-51534818D02*
X121191905Y-51534818D01*
X121477619Y-51534818D02*
X121477619Y-50534818D01*
X121477619Y-50534818D02*
X121382381Y-50677675D01*
X121382381Y-50677675D02*
X121287143Y-50772913D01*
X121287143Y-50772913D02*
X121191905Y-50820532D01*
X122382381Y-50534818D02*
X122477619Y-50534818D01*
X122477619Y-50534818D02*
X122572857Y-50582437D01*
X122572857Y-50582437D02*
X122620476Y-50630056D01*
X122620476Y-50630056D02*
X122668095Y-50725294D01*
X122668095Y-50725294D02*
X122715714Y-50915770D01*
X122715714Y-50915770D02*
X122715714Y-51153865D01*
X122715714Y-51153865D02*
X122668095Y-51344341D01*
X122668095Y-51344341D02*
X122620476Y-51439579D01*
X122620476Y-51439579D02*
X122572857Y-51487199D01*
X122572857Y-51487199D02*
X122477619Y-51534818D01*
X122477619Y-51534818D02*
X122382381Y-51534818D01*
X122382381Y-51534818D02*
X122287143Y-51487199D01*
X122287143Y-51487199D02*
X122239524Y-51439579D01*
X122239524Y-51439579D02*
X122191905Y-51344341D01*
X122191905Y-51344341D02*
X122144286Y-51153865D01*
X122144286Y-51153865D02*
X122144286Y-50915770D01*
X122144286Y-50915770D02*
X122191905Y-50725294D01*
X122191905Y-50725294D02*
X122239524Y-50630056D01*
X122239524Y-50630056D02*
X122287143Y-50582437D01*
X122287143Y-50582437D02*
X122382381Y-50534818D01*
X123096667Y-50630056D02*
X123144286Y-50582437D01*
X123144286Y-50582437D02*
X123239524Y-50534818D01*
X123239524Y-50534818D02*
X123477619Y-50534818D01*
X123477619Y-50534818D02*
X123572857Y-50582437D01*
X123572857Y-50582437D02*
X123620476Y-50630056D01*
X123620476Y-50630056D02*
X123668095Y-50725294D01*
X123668095Y-50725294D02*
X123668095Y-50820532D01*
X123668095Y-50820532D02*
X123620476Y-50963389D01*
X123620476Y-50963389D02*
X123049048Y-51534818D01*
X123049048Y-51534818D02*
X123668095Y-51534818D01*
X174348095Y-69624819D02*
X174967142Y-69624819D01*
X174967142Y-69624819D02*
X174633809Y-70005771D01*
X174633809Y-70005771D02*
X174776666Y-70005771D01*
X174776666Y-70005771D02*
X174871904Y-70053390D01*
X174871904Y-70053390D02*
X174919523Y-70101009D01*
X174919523Y-70101009D02*
X174967142Y-70196247D01*
X174967142Y-70196247D02*
X174967142Y-70434342D01*
X174967142Y-70434342D02*
X174919523Y-70529580D01*
X174919523Y-70529580D02*
X174871904Y-70577200D01*
X174871904Y-70577200D02*
X174776666Y-70624819D01*
X174776666Y-70624819D02*
X174490952Y-70624819D01*
X174490952Y-70624819D02*
X174395714Y-70577200D01*
X174395714Y-70577200D02*
X174348095Y-70529580D01*
X175824285Y-69958152D02*
X175824285Y-70624819D01*
X175395714Y-69958152D02*
X175395714Y-70481961D01*
X175395714Y-70481961D02*
X175443333Y-70577200D01*
X175443333Y-70577200D02*
X175538571Y-70624819D01*
X175538571Y-70624819D02*
X175681428Y-70624819D01*
X175681428Y-70624819D02*
X175776666Y-70577200D01*
X175776666Y-70577200D02*
X175824285Y-70529580D01*
X176205238Y-69624819D02*
X176824285Y-69624819D01*
X176824285Y-69624819D02*
X176490952Y-70005771D01*
X176490952Y-70005771D02*
X176633809Y-70005771D01*
X176633809Y-70005771D02*
X176729047Y-70053390D01*
X176729047Y-70053390D02*
X176776666Y-70101009D01*
X176776666Y-70101009D02*
X176824285Y-70196247D01*
X176824285Y-70196247D02*
X176824285Y-70434342D01*
X176824285Y-70434342D02*
X176776666Y-70529580D01*
X176776666Y-70529580D02*
X176729047Y-70577200D01*
X176729047Y-70577200D02*
X176633809Y-70624819D01*
X176633809Y-70624819D02*
X176348095Y-70624819D01*
X176348095Y-70624819D02*
X176252857Y-70577200D01*
X176252857Y-70577200D02*
X176205238Y-70529580D01*
X174490952Y-65029580D02*
X174443333Y-65077200D01*
X174443333Y-65077200D02*
X174300476Y-65124819D01*
X174300476Y-65124819D02*
X174205238Y-65124819D01*
X174205238Y-65124819D02*
X174062381Y-65077200D01*
X174062381Y-65077200D02*
X173967143Y-64981961D01*
X173967143Y-64981961D02*
X173919524Y-64886723D01*
X173919524Y-64886723D02*
X173871905Y-64696247D01*
X173871905Y-64696247D02*
X173871905Y-64553390D01*
X173871905Y-64553390D02*
X173919524Y-64362914D01*
X173919524Y-64362914D02*
X173967143Y-64267676D01*
X173967143Y-64267676D02*
X174062381Y-64172438D01*
X174062381Y-64172438D02*
X174205238Y-64124819D01*
X174205238Y-64124819D02*
X174300476Y-64124819D01*
X174300476Y-64124819D02*
X174443333Y-64172438D01*
X174443333Y-64172438D02*
X174490952Y-64220057D01*
X175443333Y-65124819D02*
X174871905Y-65124819D01*
X175157619Y-65124819D02*
X175157619Y-64124819D01*
X175157619Y-64124819D02*
X175062381Y-64267676D01*
X175062381Y-64267676D02*
X174967143Y-64362914D01*
X174967143Y-64362914D02*
X174871905Y-64410533D01*
X176062381Y-64124819D02*
X176157619Y-64124819D01*
X176157619Y-64124819D02*
X176252857Y-64172438D01*
X176252857Y-64172438D02*
X176300476Y-64220057D01*
X176300476Y-64220057D02*
X176348095Y-64315295D01*
X176348095Y-64315295D02*
X176395714Y-64505771D01*
X176395714Y-64505771D02*
X176395714Y-64743866D01*
X176395714Y-64743866D02*
X176348095Y-64934342D01*
X176348095Y-64934342D02*
X176300476Y-65029580D01*
X176300476Y-65029580D02*
X176252857Y-65077200D01*
X176252857Y-65077200D02*
X176157619Y-65124819D01*
X176157619Y-65124819D02*
X176062381Y-65124819D01*
X176062381Y-65124819D02*
X175967143Y-65077200D01*
X175967143Y-65077200D02*
X175919524Y-65029580D01*
X175919524Y-65029580D02*
X175871905Y-64934342D01*
X175871905Y-64934342D02*
X175824286Y-64743866D01*
X175824286Y-64743866D02*
X175824286Y-64505771D01*
X175824286Y-64505771D02*
X175871905Y-64315295D01*
X175871905Y-64315295D02*
X175919524Y-64220057D01*
X175919524Y-64220057D02*
X175967143Y-64172438D01*
X175967143Y-64172438D02*
X176062381Y-64124819D01*
X177300476Y-64124819D02*
X176824286Y-64124819D01*
X176824286Y-64124819D02*
X176776667Y-64601009D01*
X176776667Y-64601009D02*
X176824286Y-64553390D01*
X176824286Y-64553390D02*
X176919524Y-64505771D01*
X176919524Y-64505771D02*
X177157619Y-64505771D01*
X177157619Y-64505771D02*
X177252857Y-64553390D01*
X177252857Y-64553390D02*
X177300476Y-64601009D01*
X177300476Y-64601009D02*
X177348095Y-64696247D01*
X177348095Y-64696247D02*
X177348095Y-64934342D01*
X177348095Y-64934342D02*
X177300476Y-65029580D01*
X177300476Y-65029580D02*
X177252857Y-65077200D01*
X177252857Y-65077200D02*
X177157619Y-65124819D01*
X177157619Y-65124819D02*
X176919524Y-65124819D01*
X176919524Y-65124819D02*
X176824286Y-65077200D01*
X176824286Y-65077200D02*
X176776667Y-65029580D01*
X198690476Y-46654819D02*
X198690476Y-45654819D01*
X198690476Y-45654819D02*
X199023809Y-46369104D01*
X199023809Y-46369104D02*
X199357142Y-45654819D01*
X199357142Y-45654819D02*
X199357142Y-46654819D01*
X200261904Y-45988152D02*
X200261904Y-46654819D01*
X200023809Y-45607200D02*
X199785714Y-46321485D01*
X199785714Y-46321485D02*
X200404761Y-46321485D01*
X198738095Y-41954819D02*
X198738095Y-40954819D01*
X198738095Y-41431009D02*
X199309523Y-41431009D01*
X199309523Y-41954819D02*
X199309523Y-40954819D01*
X199738095Y-41050057D02*
X199785714Y-41002438D01*
X199785714Y-41002438D02*
X199880952Y-40954819D01*
X199880952Y-40954819D02*
X200119047Y-40954819D01*
X200119047Y-40954819D02*
X200214285Y-41002438D01*
X200214285Y-41002438D02*
X200261904Y-41050057D01*
X200261904Y-41050057D02*
X200309523Y-41145295D01*
X200309523Y-41145295D02*
X200309523Y-41240533D01*
X200309523Y-41240533D02*
X200261904Y-41383390D01*
X200261904Y-41383390D02*
X199690476Y-41954819D01*
X199690476Y-41954819D02*
X200309523Y-41954819D01*
X63294818Y-94697856D02*
X62294818Y-94697856D01*
X63294818Y-94221666D02*
X62294818Y-94221666D01*
X62294818Y-94221666D02*
X63294818Y-93650238D01*
X63294818Y-93650238D02*
X62294818Y-93650238D01*
X63675770Y-92126428D02*
X63628151Y-92174047D01*
X63628151Y-92174047D02*
X63485294Y-92269285D01*
X63485294Y-92269285D02*
X63390056Y-92316904D01*
X63390056Y-92316904D02*
X63247199Y-92364523D01*
X63247199Y-92364523D02*
X63009103Y-92412142D01*
X63009103Y-92412142D02*
X62818627Y-92412142D01*
X62818627Y-92412142D02*
X62580532Y-92364523D01*
X62580532Y-92364523D02*
X62437675Y-92316904D01*
X62437675Y-92316904D02*
X62342437Y-92269285D01*
X62342437Y-92269285D02*
X62199579Y-92174047D01*
X62199579Y-92174047D02*
X62151960Y-92126428D01*
X63294818Y-91316904D02*
X62771008Y-91316904D01*
X62771008Y-91316904D02*
X62675770Y-91364523D01*
X62675770Y-91364523D02*
X62628151Y-91459761D01*
X62628151Y-91459761D02*
X62628151Y-91650237D01*
X62628151Y-91650237D02*
X62675770Y-91745475D01*
X63247199Y-91316904D02*
X63294818Y-91412142D01*
X63294818Y-91412142D02*
X63294818Y-91650237D01*
X63294818Y-91650237D02*
X63247199Y-91745475D01*
X63247199Y-91745475D02*
X63151960Y-91793094D01*
X63151960Y-91793094D02*
X63056722Y-91793094D01*
X63056722Y-91793094D02*
X62961484Y-91745475D01*
X62961484Y-91745475D02*
X62913865Y-91650237D01*
X62913865Y-91650237D02*
X62913865Y-91412142D01*
X62913865Y-91412142D02*
X62866246Y-91316904D01*
X63294818Y-90840713D02*
X62628151Y-90840713D01*
X62723389Y-90840713D02*
X62675770Y-90793094D01*
X62675770Y-90793094D02*
X62628151Y-90697856D01*
X62628151Y-90697856D02*
X62628151Y-90554999D01*
X62628151Y-90554999D02*
X62675770Y-90459761D01*
X62675770Y-90459761D02*
X62771008Y-90412142D01*
X62771008Y-90412142D02*
X63294818Y-90412142D01*
X62771008Y-90412142D02*
X62675770Y-90364523D01*
X62675770Y-90364523D02*
X62628151Y-90269285D01*
X62628151Y-90269285D02*
X62628151Y-90126428D01*
X62628151Y-90126428D02*
X62675770Y-90031189D01*
X62675770Y-90031189D02*
X62771008Y-89983570D01*
X62771008Y-89983570D02*
X63294818Y-89983570D01*
X62628151Y-89507380D02*
X63628151Y-89507380D01*
X62675770Y-89507380D02*
X62628151Y-89412142D01*
X62628151Y-89412142D02*
X62628151Y-89221666D01*
X62628151Y-89221666D02*
X62675770Y-89126428D01*
X62675770Y-89126428D02*
X62723389Y-89078809D01*
X62723389Y-89078809D02*
X62818627Y-89031190D01*
X62818627Y-89031190D02*
X63104341Y-89031190D01*
X63104341Y-89031190D02*
X63199579Y-89078809D01*
X63199579Y-89078809D02*
X63247199Y-89126428D01*
X63247199Y-89126428D02*
X63294818Y-89221666D01*
X63294818Y-89221666D02*
X63294818Y-89412142D01*
X63294818Y-89412142D02*
X63247199Y-89507380D01*
X63675770Y-88697856D02*
X63628151Y-88650237D01*
X63628151Y-88650237D02*
X63485294Y-88554999D01*
X63485294Y-88554999D02*
X63390056Y-88507380D01*
X63390056Y-88507380D02*
X63247199Y-88459761D01*
X63247199Y-88459761D02*
X63009103Y-88412142D01*
X63009103Y-88412142D02*
X62818627Y-88412142D01*
X62818627Y-88412142D02*
X62580532Y-88459761D01*
X62580532Y-88459761D02*
X62437675Y-88507380D01*
X62437675Y-88507380D02*
X62342437Y-88554999D01*
X62342437Y-88554999D02*
X62199579Y-88650237D01*
X62199579Y-88650237D02*
X62151960Y-88697856D01*
X64564818Y-91888333D02*
X65279103Y-91888333D01*
X65279103Y-91888333D02*
X65421960Y-91935952D01*
X65421960Y-91935952D02*
X65517199Y-92031190D01*
X65517199Y-92031190D02*
X65564818Y-92174047D01*
X65564818Y-92174047D02*
X65564818Y-92269285D01*
X65564818Y-90888333D02*
X65564818Y-91459761D01*
X65564818Y-91174047D02*
X64564818Y-91174047D01*
X64564818Y-91174047D02*
X64707675Y-91269285D01*
X64707675Y-91269285D02*
X64802913Y-91364523D01*
X64802913Y-91364523D02*
X64850532Y-91459761D01*
X145091429Y-61529818D02*
X145186667Y-61529818D01*
X145186667Y-61529818D02*
X145281905Y-61577437D01*
X145281905Y-61577437D02*
X145329524Y-61625056D01*
X145329524Y-61625056D02*
X145377143Y-61720294D01*
X145377143Y-61720294D02*
X145424762Y-61910770D01*
X145424762Y-61910770D02*
X145424762Y-62148865D01*
X145424762Y-62148865D02*
X145377143Y-62339341D01*
X145377143Y-62339341D02*
X145329524Y-62434579D01*
X145329524Y-62434579D02*
X145281905Y-62482199D01*
X145281905Y-62482199D02*
X145186667Y-62529818D01*
X145186667Y-62529818D02*
X145091429Y-62529818D01*
X145091429Y-62529818D02*
X144996191Y-62482199D01*
X144996191Y-62482199D02*
X144948572Y-62434579D01*
X144948572Y-62434579D02*
X144900953Y-62339341D01*
X144900953Y-62339341D02*
X144853334Y-62148865D01*
X144853334Y-62148865D02*
X144853334Y-61910770D01*
X144853334Y-61910770D02*
X144900953Y-61720294D01*
X144900953Y-61720294D02*
X144948572Y-61625056D01*
X144948572Y-61625056D02*
X144996191Y-61577437D01*
X144996191Y-61577437D02*
X145091429Y-61529818D01*
X145853334Y-62434579D02*
X145900953Y-62482199D01*
X145900953Y-62482199D02*
X145853334Y-62529818D01*
X145853334Y-62529818D02*
X145805715Y-62482199D01*
X145805715Y-62482199D02*
X145853334Y-62434579D01*
X145853334Y-62434579D02*
X145853334Y-62529818D01*
X146281905Y-61625056D02*
X146329524Y-61577437D01*
X146329524Y-61577437D02*
X146424762Y-61529818D01*
X146424762Y-61529818D02*
X146662857Y-61529818D01*
X146662857Y-61529818D02*
X146758095Y-61577437D01*
X146758095Y-61577437D02*
X146805714Y-61625056D01*
X146805714Y-61625056D02*
X146853333Y-61720294D01*
X146853333Y-61720294D02*
X146853333Y-61815532D01*
X146853333Y-61815532D02*
X146805714Y-61958389D01*
X146805714Y-61958389D02*
X146234286Y-62529818D01*
X146234286Y-62529818D02*
X146853333Y-62529818D01*
X147758095Y-61529818D02*
X147281905Y-61529818D01*
X147281905Y-61529818D02*
X147234286Y-62006008D01*
X147234286Y-62006008D02*
X147281905Y-61958389D01*
X147281905Y-61958389D02*
X147377143Y-61910770D01*
X147377143Y-61910770D02*
X147615238Y-61910770D01*
X147615238Y-61910770D02*
X147710476Y-61958389D01*
X147710476Y-61958389D02*
X147758095Y-62006008D01*
X147758095Y-62006008D02*
X147805714Y-62101246D01*
X147805714Y-62101246D02*
X147805714Y-62339341D01*
X147805714Y-62339341D02*
X147758095Y-62434579D01*
X147758095Y-62434579D02*
X147710476Y-62482199D01*
X147710476Y-62482199D02*
X147615238Y-62529818D01*
X147615238Y-62529818D02*
X147377143Y-62529818D01*
X147377143Y-62529818D02*
X147281905Y-62482199D01*
X147281905Y-62482199D02*
X147234286Y-62434579D01*
X148234286Y-62529818D02*
X148234286Y-61863151D01*
X148234286Y-61958389D02*
X148281905Y-61910770D01*
X148281905Y-61910770D02*
X148377143Y-61863151D01*
X148377143Y-61863151D02*
X148520000Y-61863151D01*
X148520000Y-61863151D02*
X148615238Y-61910770D01*
X148615238Y-61910770D02*
X148662857Y-62006008D01*
X148662857Y-62006008D02*
X148662857Y-62529818D01*
X148662857Y-62006008D02*
X148710476Y-61910770D01*
X148710476Y-61910770D02*
X148805714Y-61863151D01*
X148805714Y-61863151D02*
X148948571Y-61863151D01*
X148948571Y-61863151D02*
X149043810Y-61910770D01*
X149043810Y-61910770D02*
X149091429Y-62006008D01*
X149091429Y-62006008D02*
X149091429Y-62529818D01*
X149567619Y-62529818D02*
X149567619Y-61529818D01*
X149567619Y-62006008D02*
X150139047Y-62006008D01*
X150139047Y-62529818D02*
X150139047Y-61529818D01*
%TO.C,C104*%
D11*
X159860000Y-44829999D02*
X191360000Y-44829999D01*
X191360000Y-55829999D01*
X159860000Y-55829999D01*
X159860000Y-44829999D01*
%TO.C,L201*%
X197000000Y-83750000D02*
X204000000Y-83750000D01*
X204000000Y-98750000D01*
X197000000Y-98750000D01*
X197000000Y-83750000D01*
%TO.C,C203*%
X133320000Y-75500000D02*
X146320000Y-75500000D01*
X146320000Y-107000000D01*
X133320000Y-107000000D01*
X133320000Y-75500000D01*
%TO.C,L202*%
X107000000Y-120000000D02*
X114000000Y-120000000D01*
X114000000Y-135000000D01*
X107000000Y-135000000D01*
X107000000Y-120000000D01*
%TO.C,R101*%
X74950000Y-55874999D02*
X76420000Y-55874999D01*
X102890000Y-55874999D02*
X101420000Y-55874999D01*
X76420000Y-51374999D02*
X101420000Y-51374999D01*
X101420000Y-60374999D01*
X76420000Y-60374999D01*
X76420000Y-51374999D01*
%TO.C,R201*%
X91500000Y-80800000D02*
X91500000Y-82000000D01*
X91500000Y-103200000D02*
X91500000Y-102000000D01*
X88300000Y-82000000D02*
X94700000Y-82000000D01*
X94700000Y-102000000D01*
X88300000Y-102000000D01*
X88300000Y-82000000D01*
%TO.C,J2*%
X196200000Y-51624999D02*
X204000000Y-51624999D01*
X196200000Y-62124999D02*
X196200000Y-51624999D01*
X198987000Y-53106999D02*
X201218000Y-55337999D01*
X198987000Y-58106999D02*
X201218000Y-60337999D01*
X199182000Y-52911999D02*
X201413000Y-55142999D01*
X199182000Y-57911999D02*
X201413000Y-60142999D01*
X199700000Y-62124999D02*
X199700000Y-51624999D01*
X200700000Y-62124999D02*
X200700000Y-51624999D01*
X202000000Y-62124999D02*
X202000000Y-51624999D01*
X202050000Y-62124999D02*
X196200000Y-62124999D01*
X204000000Y-51624999D02*
X204000000Y-60174999D01*
X204000000Y-60174999D02*
X202050000Y-62124999D01*
X201800000Y-54124999D02*
G75*
G02*
X198600000Y-54124999I-1600000J0D01*
G01*
X198600000Y-54124999D02*
G75*
G02*
X201800000Y-54124999I1600000J0D01*
G01*
X201800000Y-59124999D02*
G75*
G02*
X198600000Y-59124999I-1600000J0D01*
G01*
X198600000Y-59124999D02*
G75*
G02*
X201800000Y-59124999I1600000J0D01*
G01*
%TO.C,C201*%
X98140000Y-75500000D02*
X111140000Y-75500000D01*
X111140000Y-107000000D01*
X98140000Y-107000000D01*
X98140000Y-75500000D01*
%TO.C,C204*%
X150910000Y-75500000D02*
X163910000Y-75500000D01*
X163910000Y-107000000D01*
X150910000Y-107000000D01*
X150910000Y-75500000D01*
%TO.C,J3*%
X196700000Y-123830000D02*
X204500000Y-123830000D01*
X196700000Y-134330000D02*
X196700000Y-123830000D01*
X199487000Y-125312000D02*
X201718000Y-127543000D01*
X199487000Y-130312000D02*
X201718000Y-132543000D01*
X199682000Y-125117000D02*
X201913000Y-127348000D01*
X199682000Y-130117000D02*
X201913000Y-132348000D01*
X200200000Y-134330000D02*
X200200000Y-123830000D01*
X201200000Y-134330000D02*
X201200000Y-123830000D01*
X202500000Y-134330000D02*
X202500000Y-123830000D01*
X202550000Y-134330000D02*
X196700000Y-134330000D01*
X204500000Y-123830000D02*
X204500000Y-132380000D01*
X204500000Y-132380000D02*
X202550000Y-134330000D01*
X202300000Y-126330000D02*
G75*
G02*
X199100000Y-126330000I-1600000J0D01*
G01*
X199100000Y-126330000D02*
G75*
G02*
X202300000Y-126330000I1600000J0D01*
G01*
X202300000Y-131330000D02*
G75*
G02*
X199100000Y-131330000I-1600000J0D01*
G01*
X199100000Y-131330000D02*
G75*
G02*
X202300000Y-131330000I1600000J0D01*
G01*
%TO.C,R102*%
X74950000Y-69465000D02*
X76420000Y-69465000D01*
X102890000Y-69465000D02*
X101420000Y-69465000D01*
X76420000Y-64965000D02*
X101420000Y-64965000D01*
X101420000Y-73965000D01*
X76420000Y-73965000D01*
X76420000Y-64965000D01*
%TO.C,C205*%
X168500000Y-75500000D02*
X181500000Y-75500000D01*
X181500000Y-107000000D01*
X168500000Y-107000000D01*
X168500000Y-75500000D01*
%TO.C,C202*%
X115730000Y-75500000D02*
X128730000Y-75500000D01*
X128730000Y-107000000D01*
X115730000Y-107000000D01*
X115730000Y-75500000D01*
%TO.C,C206*%
X123500000Y-110500000D02*
X155000000Y-110500000D01*
X155000000Y-123500000D01*
X123500000Y-123500000D01*
X123500000Y-110500000D01*
%TO.C,L101*%
X62910000Y-49374999D02*
X69910000Y-49374999D01*
X69910000Y-64374999D01*
X62910000Y-64374999D01*
X62910000Y-49374999D01*
%TO.C,C103*%
X108680000Y-59920000D02*
X135180000Y-59920000D01*
X135180000Y-66920000D01*
X108680000Y-66920000D01*
X108680000Y-59920000D01*
%TO.C,C207*%
X126500000Y-128750000D02*
X153000000Y-128750000D01*
X153000000Y-137250000D01*
X126500000Y-137250000D01*
X126500000Y-128750000D01*
%TO.C,R202*%
X81500000Y-80800000D02*
X81500000Y-82000000D01*
X81500000Y-103200000D02*
X81500000Y-102000000D01*
X78300000Y-82000000D02*
X84700000Y-82000000D01*
X84700000Y-102000000D01*
X78300000Y-102000000D01*
X78300000Y-82000000D01*
%TO.C,C101*%
X75670000Y-39785000D02*
X102170000Y-39785000D01*
X102170000Y-46785000D01*
X75670000Y-46785000D01*
X75670000Y-39785000D01*
%TO.C,C102*%
X108680000Y-46829999D02*
X135180000Y-46829999D01*
X135180000Y-55329999D01*
X108680000Y-55329999D01*
X108680000Y-46829999D01*
%TO.C,C105*%
X162360000Y-60420000D02*
X188860000Y-60420000D01*
X188860000Y-68920000D01*
X162360000Y-68920000D01*
X162360000Y-60420000D01*
%TO.C,J1*%
X63959999Y-88255000D02*
X65909999Y-86305000D01*
X63959999Y-96805000D02*
X63959999Y-88255000D01*
X65909999Y-86305000D02*
X71759999Y-86305000D01*
X65959999Y-86305000D02*
X65959999Y-96805000D01*
X67259999Y-86305000D02*
X67259999Y-96805000D01*
X68259999Y-86305000D02*
X68259999Y-96805000D01*
X68777999Y-90518000D02*
X66546999Y-88287000D01*
X68777999Y-95518000D02*
X66546999Y-93287000D01*
X68972999Y-90323000D02*
X66741999Y-88092000D01*
X68972999Y-95323000D02*
X66741999Y-93092000D01*
X71759999Y-86305000D02*
X71759999Y-96805000D01*
X71759999Y-96805000D02*
X63959999Y-96805000D01*
X69359999Y-89305000D02*
G75*
G02*
X66159999Y-89305000I-1600000J0D01*
G01*
X66159999Y-89305000D02*
G75*
G02*
X69359999Y-89305000I1600000J0D01*
G01*
X69359999Y-94305000D02*
G75*
G02*
X66159999Y-94305000I-1600000J0D01*
G01*
X66159999Y-94305000D02*
G75*
G02*
X69359999Y-94305000I1600000J0D01*
G01*
%TO.C,L102*%
X140020000Y-53374999D02*
X155020000Y-53374999D01*
X155020000Y-60374999D01*
X140020000Y-60374999D01*
X140020000Y-53374999D01*
%TD*%
M02*
