0
SECTION
2
HEADER
9
$INSUNITS
70
4
0
ENDSEC
0
SECTION
2
TABLES
0
TABLE
2
LAYER
70
1
0
LAYER
2
ABLATE
70
0
62
1
6
CONTINUOUS
0
ENDTAB
0
ENDSEC
0
SECTION
2
ENTITIES
0
POLYLINE
8
ABLATE
66
1
70
1
0
VERTEX
8
ABLATE
10
4.0500
20
27.1500
0
VERTEX
8
ABLATE
10
6.4500
20
27.1500
0
VERTEX
8
ABLATE
10
6.4500
20
8.8400
0
VERTEX
8
ABLATE
10
4.0500
20
8.8400
0
SEQEND
8
ABLATE
0
POLYLINE
8
ABLATE
66
1
70
1
0
VERTEX
8
ABLATE
10
4.5000
20
26.7000
0
VERTEX
8
ABLATE
10
6.0000
20
26.7000
0
VERTEX
8
ABLATE
10
6.0000
20
25.8000
0
VERTEX
8
ABLATE
10
4.5000
20
25.8000
0
SEQEND
8
ABLATE
0
POLYLINE
8
ABLATE
66
1
70
1
0
VERTEX
8
ABLATE
10
4.5000
20
25.4300
0
VERTEX
8
ABLATE
10
6.0000
20
25.4300
0
VERTEX
8
ABLATE
10
6.0000
20
24.5300
0
VERTEX
8
ABLATE
10
4.5000
20
24.5300
0
SEQEND
8
ABLATE
0
POLYLINE
8
ABLATE
66
1
70
1
0
VERTEX
8
ABLATE
10
4.5000
20
24.1600
0
VERTEX
8
ABLATE
10
6.0000
20
24.1600
0
VERTEX
8
ABLATE
10
6.0000
20
23.2600
0
VERTEX
8
ABLATE
10
4.5000
20
23.2600
0
SEQEND
8
ABLATE
0
POLYLINE
8
ABLATE
66
1
70
1
0
VERTEX
8
ABLATE
10
4.5000
20
22.8900
0
VERTEX
8
ABLATE
10
6.0000
20
22.8900
0
VERTEX
8
ABLATE
10
6.0000
20
21.9900
0
VERTEX
8
ABLATE
10
4.5000
20
21.9900
0
SEQEND
8
ABLATE
0
POLYLINE
8
ABLATE
66
1
70
1
0
VERTEX
8
ABLATE
10
4.5000
20
21.6200
0
VERTEX
8
ABLATE
10
6.0000
20
21.6200
0
VERTEX
8
ABLATE
10
6.0000
20
20.7200
0
VERTEX
8
ABLATE
10
4.5000
20
20.7200
0
SEQEND
8
ABLATE
0
POLYLINE
8
ABLATE
66
1
70
1
0
VERTEX
8
ABLATE
10
4.5000
20
20.3500
0
VERTEX
8
ABLATE
10
6.0000
20
20.3500
0
VERTEX
8
ABLATE
10
6.0000
20
19.4500
0
VERTEX
8
ABLATE
10
4.5000
20
19.4500
0
SEQEND
8
ABLATE
0
POLYLINE
8
ABLATE
66
1
70
1
0
VERTEX
8
ABLATE
10
4.5000
20
19.0800
0
VERTEX
8
ABLATE
10
6.0000
20
19.0800
0
VERTEX
8
ABLATE
10
6.0000
20
18.1800
0
VERTEX
8
ABLATE
10
4.5000
20
18.1800
0
SEQEND
8
ABLATE
0
POLYLINE
8
ABLATE
66
1
70
1
0
VERTEX
8
ABLATE
10
4.5000
20
17.8100
0
VERTEX
8
ABLATE
10
6.0000
20
17.8100
0
VERTEX
8
ABLATE
10
6.0000
20
16.9100
0
VERTEX
8
ABLATE
10
4.5000
20
16.9100
0
SEQEND
8
ABLATE
0
POLYLINE
8
ABLATE
66
1
70
1
0
VERTEX
8
ABLATE
10
4.5000
20
16.5400
0
VERTEX
8
ABLATE
10
6.0000
20
16.5400
0
VERTEX
8
ABLATE
10
6.0000
20
15.6400
0
VERTEX
8
ABLATE
10
4.5000
20
15.6400
0
SEQEND
8
ABLATE
0
POLYLINE
8
ABLATE
66
1
70
1
0
VERTEX
8
ABLATE
10
4.5000
20
15.2700
0
VERTEX
8
ABLATE
10
6.0000
20
15.2700
0
VERTEX
8
ABLATE
10
6.0000
20
14.3700
0
VERTEX
8
ABLATE
10
4.5000
20
14.3700
0
SEQEND
8
ABLATE
0
POLYLINE
8
ABLATE
66
1
70
1
0
VERTEX
8
ABLATE
10
4.5000
20
14.0000
0
VERTEX
8
ABLATE
10
6.0000
20
14.0000
0
VERTEX
8
ABLATE
10
6.0000
20
13.1000
0
VERTEX
8
ABLATE
10
4.5000
20
13.1000
0
SEQEND
8
ABLATE
0
POLYLINE
8
ABLATE
66
1
70
1
0
VERTEX
8
ABLATE
10
4.5000
20
12.7300
0
VERTEX
8
ABLATE
10
6.0000
20
12.7300
0
VERTEX
8
ABLATE
10
6.0000
20
11.8300
0
VERTEX
8
ABLATE
10
4.5000
20
11.8300
0
SEQEND
8
ABLATE
0
POLYLINE
8
ABLATE
66
1
70
1
0
VERTEX
8
ABLATE
10
4.5000
20
11.4600
0
VERTEX
8
ABLATE
10
6.0000
20
11.4600
0
VERTEX
8
ABLATE
10
6.0000
20
10.5600
0
VERTEX
8
ABLATE
10
4.5000
20
10.5600
0
SEQEND
8
ABLATE
0
POLYLINE
8
ABLATE
66
1
70
1
0
VERTEX
8
ABLATE
10
4.5000
20
10.1900
0
VERTEX
8
ABLATE
10
6.0000
20
10.1900
0
VERTEX
8
ABLATE
10
6.0000
20
9.2900
0
VERTEX
8
ABLATE
10
4.5000
20
9.2900
0
SEQEND
8
ABLATE
0
POLYLINE
8
ABLATE
66
1
70
1
0
VERTEX
8
ABLATE
10
21.5500
20
27.1500
0
VERTEX
8
ABLATE
10
23.9500
20
27.1500
0
VERTEX
8
ABLATE
10
23.9500
20
8.8400
0
VERTEX
8
ABLATE
10
21.5500
20
8.8400
0
SEQEND
8
ABLATE
0
POLYLINE
8
ABLATE
66
1
70
1
0
VERTEX
8
ABLATE
10
22.0000
20
10.1900
0
VERTEX
8
ABLATE
10
23.5000
20
10.1900
0
VERTEX
8
ABLATE
10
23.5000
20
9.2900
0
VERTEX
8
ABLATE
10
22.0000
20
9.2900
0
SEQEND
8
ABLATE
0
POLYLINE
8
ABLATE
66
1
70
1
0
VERTEX
8
ABLATE
10
22.0000
20
11.4600
0
VERTEX
8
ABLATE
10
23.5000
20
11.4600
0
VERTEX
8
ABLATE
10
23.5000
20
10.5600
0
VERTEX
8
ABLATE
10
22.0000
20
10.5600
0
SEQEND
8
ABLATE
0
POLYLINE
8
ABLATE
66
1
70
1
0
VERTEX
8
ABLATE
10
22.0000
20
12.7300
0
VERTEX
8
ABLATE
10
23.5000
20
12.7300
0
VERTEX
8
ABLATE
10
23.5000
20
11.8300
0
VERTEX
8
ABLATE
10
22.0000
20
11.8300
0
SEQEND
8
ABLATE
0
POLYLINE
8
ABLATE
66
1
70
1
0
VERTEX
8
ABLATE
10
22.0000
20
14.0000
0
VERTEX
8
ABLATE
10
23.5000
20
14.0000
0
VERTEX
8
ABLATE
10
23.5000
20
13.1000
0
VERTEX
8
ABLATE
10
22.0000
20
13.1000
0
SEQEND
8
ABLATE
0
POLYLINE
8
ABLATE
66
1
70
1
0
VERTEX
8
ABLATE
10
22.0000
20
15.2700
0
VERTEX
8
ABLATE
10
23.5000
20
15.2700
0
VERTEX
8
ABLATE
10
23.5000
20
14.3700
0
VERTEX
8
ABLATE
10
22.0000
20
14.3700
0
SEQEND
8
ABLATE
0
POLYLINE
8
ABLATE
66
1
70
1
0
VERTEX
8
ABLATE
10
22.0000
20
16.5400
0
VERTEX
8
ABLATE
10
23.5000
20
16.5400
0
VERTEX
8
ABLATE
10
23.5000
20
15.6400
0
VERTEX
8
ABLATE
10
22.0000
20
15.6400
0
SEQEND
8
ABLATE
0
POLYLINE
8
ABLATE
66
1
70
1
0
VERTEX
8
ABLATE
10
22.0000
20
17.8100
0
VERTEX
8
ABLATE
10
23.5000
20
17.8100
0
VERTEX
8
ABLATE
10
23.5000
20
16.9100
0
VERTEX
8
ABLATE
10
22.0000
20
16.9100
0
SEQEND
8
ABLATE
0
POLYLINE
8
ABLATE
66
1
70
1
0
VERTEX
8
ABLATE
10
22.0000
20
19.0800
0
VERTEX
8
ABLATE
10
23.5000
20
19.0800
0
VERTEX
8
ABLATE
10
23.5000
20
18.1800
0
VERTEX
8
ABLATE
10
22.0000
20
18.1800
0
SEQEND
8
ABLATE
0
POLYLINE
8
ABLATE
66
1
70
1
0
VERTEX
8
ABLATE
10
22.0000
20
20.3500
0
VERTEX
8
ABLATE
10
23.5000
20
20.3500
0
VERTEX
8
ABLATE
10
23.5000
20
19.4500
0
VERTEX
8
ABLATE
10
22.0000
20
19.4500
0
SEQEND
8
ABLATE
0
POLYLINE
8
ABLATE
66
1
70
1
0
VERTEX
8
ABLATE
10
22.0000
20
21.6200
0
VERTEX
8
ABLATE
10
23.5000
20
21.6200
0
VERTEX
8
ABLATE
10
23.5000
20
20.7200
0
VERTEX
8
ABLATE
10
22.0000
20
20.7200
0
SEQEND
8
ABLATE
0
POLYLINE
8
ABLATE
66
1
70
1
0
VERTEX
8
ABLATE
10
22.0000
20
22.8900
0
VERTEX
8
ABLATE
10
23.5000
20
22.8900
0
VERTEX
8
ABLATE
10
23.5000
20
21.9900
0
VERTEX
8
ABLATE
10
22.0000
20
21.9900
0
SEQEND
8
ABLATE
0
POLYLINE
8
ABLATE
66
1
70
1
0
VERTEX
8
ABLATE
10
22.0000
20
24.1600
0
VERTEX
8
ABLATE
10
23.5000
20
24.1600
0
VERTEX
8
ABLATE
10
23.5000
20
23.2600
0
VERTEX
8
ABLATE
10
22.0000
20
23.2600
0
SEQEND
8
ABLATE
0
POLYLINE
8
ABLATE
66
1
70
1
0
VERTEX
8
ABLATE
10
22.0000
20
25.4300
0
VERTEX
8
ABLATE
10
23.5000
20
25.4300
0
VERTEX
8
ABLATE
10
23.5000
20
24.5300
0
VERTEX
8
ABLATE
10
22.0000
20
24.5300
0
SEQEND
8
ABLATE
0
POLYLINE
8
ABLATE
66
1
70
1
0
VERTEX
8
ABLATE
10
22.0000
20
26.7000
0
VERTEX
8
ABLATE
10
23.5000
20
26.7000
0
VERTEX
8
ABLATE
10
23.5000
20
25.8000
0
VERTEX
8
ABLATE
10
22.0000
20
25.8000
0
SEQEND
8
ABLATE
0
POLYLINE
8
ABLATE
66
1
70
1
0
VERTEX
8
ABLATE
10
7.3900
20
9.6900
0
VERTEX
8
ABLATE
10
20.6200
20
9.6900
0
VERTEX
8
ABLATE
10
20.6200
20
7.2900
0
VERTEX
8
ABLATE
10
7.3900
20
7.2900
0
SEQEND
8
ABLATE
0
POLYLINE
8
ABLATE
66
1
70
1
0
VERTEX
8
ABLATE
10
7.8400
20
9.2400
0
VERTEX
8
ABLATE
10
8.7400
20
9.2400
0
VERTEX
8
ABLATE
10
8.7400
20
7.7400
0
VERTEX
8
ABLATE
10
7.8400
20
7.7400
0
SEQEND
8
ABLATE
0
POLYLINE
8
ABLATE
66
1
70
1
0
VERTEX
8
ABLATE
10
9.1100
20
9.2400
0
VERTEX
8
ABLATE
10
10.0100
20
9.2400
0
VERTEX
8
ABLATE
10
10.0100
20
7.7400
0
VERTEX
8
ABLATE
10
9.1100
20
7.7400
0
SEQEND
8
ABLATE
0
POLYLINE
8
ABLATE
66
1
70
1
0
VERTEX
8
ABLATE
10
10.3800
20
9.2400
0
VERTEX
8
ABLATE
10
11.2800
20
9.2400
0
VERTEX
8
ABLATE
10
11.2800
20
7.7400
0
VERTEX
8
ABLATE
10
10.3800
20
7.7400
0
SEQEND
8
ABLATE
0
POLYLINE
8
ABLATE
66
1
70
1
0
VERTEX
8
ABLATE
10
11.6500
20
9.2400
0
VERTEX
8
ABLATE
10
12.5500
20
9.2400
0
VERTEX
8
ABLATE
10
12.5500
20
7.7400
0
VERTEX
8
ABLATE
10
11.6500
20
7.7400
0
SEQEND
8
ABLATE
0
POLYLINE
8
ABLATE
66
1
70
1
0
VERTEX
8
ABLATE
10
12.9200
20
9.2400
0
VERTEX
8
ABLATE
10
13.8200
20
9.2400
0
VERTEX
8
ABLATE
10
13.8200
20
7.7400
0
VERTEX
8
ABLATE
10
12.9200
20
7.7400
0
SEQEND
8
ABLATE
0
POLYLINE
8
ABLATE
66
1
70
1
0
VERTEX
8
ABLATE
10
14.1900
20
9.2400
0
VERTEX
8
ABLATE
10
15.0900
20
9.2400
0
VERTEX
8
ABLATE
10
15.0900
20
7.7400
0
VERTEX
8
ABLATE
10
14.1900
20
7.7400
0
SEQEND
8
ABLATE
0
POLYLINE
8
ABLATE
66
1
70
1
0
VERTEX
8
ABLATE
10
15.4600
20
9.2400
0
VERTEX
8
ABLATE
10
16.3600
20
9.2400
0
VERTEX
8
ABLATE
10
16.3600
20
7.7400
0
VERTEX
8
ABLATE
10
15.4600
20
7.7400
0
SEQEND
8
ABLATE
0
POLYLINE
8
ABLATE
66
1
70
1
0
VERTEX
8
ABLATE
10
16.7300
20
9.2400
0
VERTEX
8
ABLATE
10
17.6300
20
9.2400
0
VERTEX
8
ABLATE
10
17.6300
20
7.7400
0
VERTEX
8
ABLATE
10
16.7300
20
7.7400
0
SEQEND
8
ABLATE
0
POLYLINE
8
ABLATE
66
1
70
1
0
VERTEX
8
ABLATE
10
18.0000
20
9.2400
0
VERTEX
8
ABLATE
10
18.9000
20
9.2400
0
VERTEX
8
ABLATE
10
18.9000
20
7.7400
0
VERTEX
8
ABLATE
10
18.0000
20
7.7400
0
SEQEND
8
ABLATE
0
POLYLINE
8
ABLATE
66
1
70
1
0
VERTEX
8
ABLATE
10
19.2700
20
9.2400
0
VERTEX
8
ABLATE
10
20.1700
20
9.2400
0
VERTEX
8
ABLATE
10
20.1700
20
7.7400
0
VERTEX
8
ABLATE
10
19.2700
20
7.7400
0
SEQEND
8
ABLATE
0
POLYLINE
8
ABLATE
66
1
70
1
0
VERTEX
8
ABLATE
10
31.6000
20
29.9000
0
VERTEX
8
ABLATE
10
35.5500
20
29.9000
0
VERTEX
8
ABLATE
10
35.5500
20
26.1000
0
VERTEX
8
ABLATE
10
31.6000
20
26.1000
0
SEQEND
8
ABLATE
0
POLYLINE
8
ABLATE
66
1
70
1
0
VERTEX
8
ABLATE
10
32.0000
20
29.5000
0
VERTEX
8
ABLATE
10
33.5000
20
29.5000
0
VERTEX
8
ABLATE
10
33.5000
20
26.5000
0
VERTEX
8
ABLATE
10
32.0000
20
26.5000
0
SEQEND
8
ABLATE
0
POLYLINE
8
ABLATE
66
1
70
1
0
VERTEX
8
ABLATE
10
33.6500
20
29.5000
0
VERTEX
8
ABLATE
10
35.1500
20
29.5000
0
VERTEX
8
ABLATE
10
35.1500
20
26.5000
0
VERTEX
8
ABLATE
10
33.6500
20
26.5000
0
SEQEND
8
ABLATE
0
POLYLINE
8
ABLATE
66
1
70
1
0
VERTEX
8
ABLATE
10
36.5500
20
29.9000
0
VERTEX
8
ABLATE
10
40.5500
20
29.9000
0
VERTEX
8
ABLATE
10
40.5500
20
26.1000
0
VERTEX
8
ABLATE
10
36.5500
20
26.1000
0
SEQEND
8
ABLATE
0
POLYLINE
8
ABLATE
66
1
70
1
0
VERTEX
8
ABLATE
10
36.9500
20
29.5000
0
VERTEX
8
ABLATE
10
38.4500
20
29.5000
0
VERTEX
8
ABLATE
10
38.4500
20
26.5000
0
VERTEX
8
ABLATE
10
36.9500
20
26.5000
0
SEQEND
8
ABLATE
0
POLYLINE
8
ABLATE
66
1
70
1
0
VERTEX
8
ABLATE
10
38.6500
20
29.5000
0
VERTEX
8
ABLATE
10
40.1500
20
29.5000
0
VERTEX
8
ABLATE
10
40.1500
20
26.5000
0
VERTEX
8
ABLATE
10
38.6500
20
26.5000
0
SEQEND
8
ABLATE
0
POLYLINE
8
ABLATE
66
1
70
1
0
VERTEX
8
ABLATE
10
41.5500
20
29.9000
0
VERTEX
8
ABLATE
10
45.6000
20
29.9000
0
VERTEX
8
ABLATE
10
45.6000
20
26.1000
0
VERTEX
8
ABLATE
10
41.5500
20
26.1000
0
SEQEND
8
ABLATE
0
POLYLINE
8
ABLATE
66
1
70
1
0
VERTEX
8
ABLATE
10
41.9500
20
29.5000
0
VERTEX
8
ABLATE
10
43.4500
20
29.5000
0
VERTEX
8
ABLATE
10
43.4500
20
26.5000
0
VERTEX
8
ABLATE
10
41.9500
20
26.5000
0
SEQEND
8
ABLATE
0
POLYLINE
8
ABLATE
66
1
70
1
0
VERTEX
8
ABLATE
10
43.7000
20
29.5000
0
VERTEX
8
ABLATE
10
45.2000
20
29.5000
0
VERTEX
8
ABLATE
10
45.2000
20
26.5000
0
VERTEX
8
ABLATE
10
43.7000
20
26.5000
0
SEQEND
8
ABLATE
0
POLYLINE
8
ABLATE
66
1
70
1
0
VERTEX
8
ABLATE
10
46.6000
20
29.9000
0
VERTEX
8
ABLATE
10
50.7000
20
29.9000
0
VERTEX
8
ABLATE
10
50.7000
20
26.1000
0
VERTEX
8
ABLATE
10
46.6000
20
26.1000
0
SEQEND
8
ABLATE
0
POLYLINE
8
ABLATE
66
1
70
1
0
VERTEX
8
ABLATE
10
47.0000
20
29.5000
0
VERTEX
8
ABLATE
10
48.5000
20
29.5000
0
VERTEX
8
ABLATE
10
48.5000
20
26.5000
0
VERTEX
8
ABLATE
10
47.0000
20
26.5000
0
SEQEND
8
ABLATE
0
POLYLINE
8
ABLATE
66
1
70
1
0
VERTEX
8
ABLATE
10
48.8000
20
29.5000
0
VERTEX
8
ABLATE
10
50.3000
20
29.5000
0
VERTEX
8
ABLATE
10
50.3000
20
26.5000
0
VERTEX
8
ABLATE
10
48.8000
20
26.5000
0
SEQEND
8
ABLATE
0
POLYLINE
8
ABLATE
66
1
70
1
0
VERTEX
8
ABLATE
10
51.7000
20
29.9000
0
VERTEX
8
ABLATE
10
55.8700
20
29.9000
0
VERTEX
8
ABLATE
10
55.8700
20
26.1000
0
VERTEX
8
ABLATE
10
51.7000
20
26.1000
0
SEQEND
8
ABLATE
0
POLYLINE
8
ABLATE
66
1
70
1
0
VERTEX
8
ABLATE
10
52.1000
20
29.5000
0
VERTEX
8
ABLATE
10
53.6000
20
29.5000
0
VERTEX
8
ABLATE
10
53.6000
20
26.5000
0
VERTEX
8
ABLATE
10
52.1000
20
26.5000
0
SEQEND
8
ABLATE
0
POLYLINE
8
ABLATE
66
1
70
1
0
VERTEX
8
ABLATE
10
53.9700
20
29.5000
0
VERTEX
8
ABLATE
10
55.4700
20
29.5000
0
VERTEX
8
ABLATE
10
55.4700
20
26.5000
0
VERTEX
8
ABLATE
10
53.9700
20
26.5000
0
SEQEND
8
ABLATE
0
POLYLINE
8
ABLATE
66
1
70
1
0
VERTEX
8
ABLATE
10
56.8700
20
29.9000
0
VERTEX
8
ABLATE
10
61.1700
20
29.9000
0
VERTEX
8
ABLATE
10
61.1700
20
26.1000
0
VERTEX
8
ABLATE
10
56.8700
20
26.1000
0
SEQEND
8
ABLATE
0
POLYLINE
8
ABLATE
66
1
70
1
0
VERTEX
8
ABLATE
10
57.2700
20
29.5000
0
VERTEX
8
ABLATE
10
58.7700
20
29.5000
0
VERTEX
8
ABLATE
10
58.7700
20
26.5000
0
VERTEX
8
ABLATE
10
57.2700
20
26.5000
0
SEQEND
8
ABLATE
0
POLYLINE
8
ABLATE
66
1
70
1
0
VERTEX
8
ABLATE
10
59.2700
20
29.5000
0
VERTEX
8
ABLATE
10
60.7700
20
29.5000
0
VERTEX
8
ABLATE
10
60.7700
20
26.5000
0
VERTEX
8
ABLATE
10
59.2700
20
26.5000
0
SEQEND
8
ABLATE
0
POLYLINE
8
ABLATE
66
1
70
1
0
VERTEX
8
ABLATE
10
31.6000
20
23.1500
0
VERTEX
8
ABLATE
10
43.4000
20
23.1500
0
VERTEX
8
ABLATE
10
43.4000
20
20.8500
0
VERTEX
8
ABLATE
10
31.6000
20
20.8500
0
SEQEND
8
ABLATE
0
POLYLINE
8
ABLATE
66
1
70
1
0
VERTEX
8
ABLATE
10
32.0000
20
22.7500
0
VERTEX
8
ABLATE
10
33.5000
20
22.7500
0
VERTEX
8
ABLATE
10
33.5000
20
21.2500
0
VERTEX
8
ABLATE
10
32.0000
20
21.2500
0
SEQEND
8
ABLATE
0
POLYLINE
8
ABLATE
66
1
70
1
0
VERTEX
8
ABLATE
10
41.5000
20
22.7500
0
VERTEX
8
ABLATE
10
43.0000
20
22.7500
0
VERTEX
8
ABLATE
10
43.0000
20
21.2500
0
VERTEX
8
ABLATE
10
41.5000
20
21.2500
0
SEQEND
8
ABLATE
0
POLYLINE
8
ABLATE
66
1
70
1
0
VERTEX
8
ABLATE
10
33.5000
20
22.0750
0
VERTEX
8
ABLATE
10
41.5000
20
22.0750
0
VERTEX
8
ABLATE
10
41.5000
20
21.9250
0
VERTEX
8
ABLATE
10
33.5000
20
21.9250
0
SEQEND
8
ABLATE
0
POLYLINE
8
ABLATE
66
1
70
1
0
VERTEX
8
ABLATE
10
31.6000
20
20.0500
0
VERTEX
8
ABLATE
10
43.4000
20
20.0500
0
VERTEX
8
ABLATE
10
43.4000
20
17.7500
0
VERTEX
8
ABLATE
10
31.6000
20
17.7500
0
SEQEND
8
ABLATE
0
POLYLINE
8
ABLATE
66
1
70
1
0
VERTEX
8
ABLATE
10
32.0000
20
19.6500
0
VERTEX
8
ABLATE
10
33.5000
20
19.6500
0
VERTEX
8
ABLATE
10
33.5000
20
18.1500
0
VERTEX
8
ABLATE
10
32.0000
20
18.1500
0
SEQEND
8
ABLATE
0
POLYLINE
8
ABLATE
66
1
70
1
0
VERTEX
8
ABLATE
10
41.5000
20
19.6500
0
VERTEX
8
ABLATE
10
43.0000
20
19.6500
0
VERTEX
8
ABLATE
10
43.0000
20
18.1500
0
VERTEX
8
ABLATE
10
41.5000
20
18.1500
0
SEQEND
8
ABLATE
0
POLYLINE
8
ABLATE
66
1
70
1
0
VERTEX
8
ABLATE
10
33.5000
20
19.0000
0
VERTEX
8
ABLATE
10
41.5000
20
19.0000
0
VERTEX
8
ABLATE
10
41.5000
20
18.8000
0
VERTEX
8
ABLATE
10
33.5000
20
18.8000
0
SEQEND
8
ABLATE
0
POLYLINE
8
ABLATE
66
1
70
1
0
VERTEX
8
ABLATE
10
31.6000
20
16.9500
0
VERTEX
8
ABLATE
10
43.4000
20
16.9500
0
VERTEX
8
ABLATE
10
43.4000
20
14.6500
0
VERTEX
8
ABLATE
10
31.6000
20
14.6500
0
SEQEND
8
ABLATE
0
POLYLINE
8
ABLATE
66
1
70
1
0
VERTEX
8
ABLATE
10
32.0000
20
16.5500
0
VERTEX
8
ABLATE
10
33.5000
20
16.5500
0
VERTEX
8
ABLATE
10
33.5000
20
15.0500
0
VERTEX
8
ABLATE
10
32.0000
20
15.0500
0
SEQEND
8
ABLATE
0
POLYLINE
8
ABLATE
66
1
70
1
0
VERTEX
8
ABLATE
10
41.5000
20
16.5500
0
VERTEX
8
ABLATE
10
43.0000
20
16.5500
0
VERTEX
8
ABLATE
10
43.0000
20
15.0500
0
VERTEX
8
ABLATE
10
41.5000
20
15.0500
0
SEQEND
8
ABLATE
0
POLYLINE
8
ABLATE
66
1
70
1
0
VERTEX
8
ABLATE
10
33.5000
20
15.9250
0
VERTEX
8
ABLATE
10
41.5000
20
15.9250
0
VERTEX
8
ABLATE
10
41.5000
20
15.6750
0
VERTEX
8
ABLATE
10
33.5000
20
15.6750
0
SEQEND
8
ABLATE
0
POLYLINE
8
ABLATE
66
1
70
1
0
VERTEX
8
ABLATE
10
31.6000
20
13.8500
0
VERTEX
8
ABLATE
10
43.4000
20
13.8500
0
VERTEX
8
ABLATE
10
43.4000
20
11.5500
0
VERTEX
8
ABLATE
10
31.6000
20
11.5500
0
SEQEND
8
ABLATE
0
POLYLINE
8
ABLATE
66
1
70
1
0
VERTEX
8
ABLATE
10
32.0000
20
13.4500
0
VERTEX
8
ABLATE
10
33.5000
20
13.4500
0
VERTEX
8
ABLATE
10
33.5000
20
11.9500
0
VERTEX
8
ABLATE
10
32.0000
20
11.9500
0
SEQEND
8
ABLATE
0
POLYLINE
8
ABLATE
66
1
70
1
0
VERTEX
8
ABLATE
10
41.5000
20
13.4500
0
VERTEX
8
ABLATE
10
43.0000
20
13.4500
0
VERTEX
8
ABLATE
10
43.0000
20
11.9500
0
VERTEX
8
ABLATE
10
41.5000
20
11.9500
0
SEQEND
8
ABLATE
0
POLYLINE
8
ABLATE
66
1
70
1
0
VERTEX
8
ABLATE
10
33.5000
20
12.8500
0
VERTEX
8
ABLATE
10
41.5000
20
12.8500
0
VERTEX
8
ABLATE
10
41.5000
20
12.5500
0
VERTEX
8
ABLATE
10
33.5000
20
12.5500
0
SEQEND
8
ABLATE
0
POLYLINE
8
ABLATE
66
1
70
1
0
VERTEX
8
ABLATE
10
31.6000
20
10.7500
0
VERTEX
8
ABLATE
10
43.4000
20
10.7500
0
VERTEX
8
ABLATE
10
43.4000
20
8.4500
0
VERTEX
8
ABLATE
10
31.6000
20
8.4500
0
SEQEND
8
ABLATE
0
POLYLINE
8
ABLATE
66
1
70
1
0
VERTEX
8
ABLATE
10
32.0000
20
10.3500
0
VERTEX
8
ABLATE
10
33.5000
20
10.3500
0
VERTEX
8
ABLATE
10
33.5000
20
8.8500
0
VERTEX
8
ABLATE
10
32.0000
20
8.8500
0
SEQEND
8
ABLATE
0
POLYLINE
8
ABLATE
66
1
70
1
0
VERTEX
8
ABLATE
10
41.5000
20
10.3500
0
VERTEX
8
ABLATE
10
43.0000
20
10.3500
0
VERTEX
8
ABLATE
10
43.0000
20
8.8500
0
VERTEX
8
ABLATE
10
41.5000
20
8.8500
0
SEQEND
8
ABLATE
0
POLYLINE
8
ABLATE
66
1
70
1
0
VERTEX
8
ABLATE
10
33.5000
20
9.8000
0
VERTEX
8
ABLATE
10
41.5000
20
9.8000
0
VERTEX
8
ABLATE
10
41.5000
20
9.4000
0
VERTEX
8
ABLATE
10
33.5000
20
9.4000
0
SEQEND
8
ABLATE
0
POLYLINE
8
ABLATE
66
1
70
1
0
VERTEX
8
ABLATE
10
31.6000
20
7.6500
0
VERTEX
8
ABLATE
10
43.4000
20
7.6500
0
VERTEX
8
ABLATE
10
43.4000
20
5.3500
0
VERTEX
8
ABLATE
10
31.6000
20
5.3500
0
SEQEND
8
ABLATE
0
POLYLINE
8
ABLATE
66
1
70
1
0
VERTEX
8
ABLATE
10
32.0000
20
7.2500
0
VERTEX
8
ABLATE
10
33.5000
20
7.2500
0
VERTEX
8
ABLATE
10
33.5000
20
5.7500
0
VERTEX
8
ABLATE
10
32.0000
20
5.7500
0
SEQEND
8
ABLATE
0
POLYLINE
8
ABLATE
66
1
70
1
0
VERTEX
8
ABLATE
10
41.5000
20
7.2500
0
VERTEX
8
ABLATE
10
43.0000
20
7.2500
0
VERTEX
8
ABLATE
10
43.0000
20
5.7500
0
VERTEX
8
ABLATE
10
41.5000
20
5.7500
0
SEQEND
8
ABLATE
0
POLYLINE
8
ABLATE
66
1
70
1
0
VERTEX
8
ABLATE
10
33.5000
20
6.7500
0
VERTEX
8
ABLATE
10
41.5000
20
6.7500
0
VERTEX
8
ABLATE
10
41.5000
20
6.2500
0
VERTEX
8
ABLATE
10
33.5000
20
6.2500
0
SEQEND
8
ABLATE
0
ENDSEC
0
EOF
