0
SECTION
2
HEADER
9
$INSUNITS
70
4
0
ENDSEC
0
SECTION
2
TABLES
0
TABLE
2
LAYER
70
2
0
LAYER
2
HOLES
70
0
62
1
6
CONTINUOUS
0
LAYER
2
OUTLINE
70
0
62
2
6
CONTINUOUS
0
ENDTAB
0
ENDSEC
0
SECTION
2
ENTITIES
0
POLYLINE
8
HOLES
66
1
70
1
0
VERTEX
8
HOLES
10
131.4400
20
-100.5000
0
VERTEX
8
HOLES
10
131.4434
20
-100.5522
0
VERTEX
8
HOLES
10
131.4536
20
-100.6035
0
VERTEX
8
HOLES
10
131.4704
20
-100.6531
0
VERTEX
8
HOLES
10
131.4936
20
-100.7000
0
VERTEX
8
HOLES
10
131.5227
20
-100.7435
0
VERTEX
8
HOLES
10
131.5572
20
-100.7828
0
VERTEX
8
HOLES
10
131.5965
20
-100.8173
0
VERTEX
8
HOLES
10
131.6400
20
-100.8464
0
VERTEX
8
HOLES
10
131.6869
20
-100.8696
0
VERTEX
8
HOLES
10
131.7365
20
-100.8864
0
VERTEX
8
HOLES
10
131.7878
20
-100.8966
0
VERTEX
8
HOLES
10
131.8400
20
-100.9000
0
VERTEX
8
HOLES
10
131.8922
20
-100.8966
0
VERTEX
8
HOLES
10
131.9435
20
-100.8864
0
VERTEX
8
HOLES
10
131.9931
20
-100.8696
0
VERTEX
8
HOLES
10
132.0400
20
-100.8464
0
VERTEX
8
HOLES
10
132.0835
20
-100.8173
0
VERTEX
8
HOLES
10
132.1228
20
-100.7828
0
VERTEX
8
HOLES
10
132.1573
20
-100.7435
0
VERTEX
8
HOLES
10
132.1864
20
-100.7000
0
VERTEX
8
HOLES
10
132.2096
20
-100.6531
0
VERTEX
8
HOLES
10
132.2264
20
-100.6035
0
VERTEX
8
HOLES
10
132.2366
20
-100.5522
0
VERTEX
8
HOLES
10
132.2400
20
-100.5000
0
VERTEX
8
HOLES
10
132.2366
20
-100.4478
0
VERTEX
8
HOLES
10
132.2264
20
-100.3965
0
VERTEX
8
HOLES
10
132.2096
20
-100.3469
0
VERTEX
8
HOLES
10
132.1864
20
-100.3000
0
VERTEX
8
HOLES
10
132.1573
20
-100.2565
0
VERTEX
8
HOLES
10
132.1228
20
-100.2172
0
VERTEX
8
HOLES
10
132.0835
20
-100.1827
0
VERTEX
8
HOLES
10
132.0400
20
-100.1536
0
VERTEX
8
HOLES
10
131.9931
20
-100.1304
0
VERTEX
8
HOLES
10
131.9435
20
-100.1136
0
VERTEX
8
HOLES
10
131.8922
20
-100.1034
0
VERTEX
8
HOLES
10
131.8400
20
-100.1000
0
VERTEX
8
HOLES
10
131.7878
20
-100.1034
0
VERTEX
8
HOLES
10
131.7365
20
-100.1136
0
VERTEX
8
HOLES
10
131.6869
20
-100.1304
0
VERTEX
8
HOLES
10
131.6400
20
-100.1536
0
VERTEX
8
HOLES
10
131.5965
20
-100.1827
0
VERTEX
8
HOLES
10
131.5572
20
-100.2172
0
VERTEX
8
HOLES
10
131.5227
20
-100.2565
0
VERTEX
8
HOLES
10
131.4936
20
-100.3000
0
VERTEX
8
HOLES
10
131.4704
20
-100.3469
0
VERTEX
8
HOLES
10
131.4536
20
-100.3965
0
VERTEX
8
HOLES
10
131.4434
20
-100.4478
0
SEQEND
8
HOLES
0
POLYLINE
8
HOLES
66
1
70
1
0
VERTEX
8
HOLES
10
141.6000
20
-100.5000
0
VERTEX
8
HOLES
10
141.6034
20
-100.5522
0
VERTEX
8
HOLES
10
141.6136
20
-100.6035
0
VERTEX
8
HOLES
10
141.6304
20
-100.6531
0
VERTEX
8
HOLES
10
141.6536
20
-100.7000
0
VERTEX
8
HOLES
10
141.6827
20
-100.7435
0
VERTEX
8
HOLES
10
141.7172
20
-100.7828
0
VERTEX
8
HOLES
10
141.7565
20
-100.8173
0
VERTEX
8
HOLES
10
141.8000
20
-100.8464
0
VERTEX
8
HOLES
10
141.8469
20
-100.8696
0
VERTEX
8
HOLES
10
141.8965
20
-100.8864
0
VERTEX
8
HOLES
10
141.9478
20
-100.8966
0
VERTEX
8
HOLES
10
142.0000
20
-100.9000
0
VERTEX
8
HOLES
10
142.0522
20
-100.8966
0
VERTEX
8
HOLES
10
142.1035
20
-100.8864
0
VERTEX
8
HOLES
10
142.1531
20
-100.8696
0
VERTEX
8
HOLES
10
142.2000
20
-100.8464
0
VERTEX
8
HOLES
10
142.2435
20
-100.8173
0
VERTEX
8
HOLES
10
142.2828
20
-100.7828
0
VERTEX
8
HOLES
10
142.3173
20
-100.7435
0
VERTEX
8
HOLES
10
142.3464
20
-100.7000
0
VERTEX
8
HOLES
10
142.3696
20
-100.6531
0
VERTEX
8
HOLES
10
142.3864
20
-100.6035
0
VERTEX
8
HOLES
10
142.3966
20
-100.5522
0
VERTEX
8
HOLES
10
142.4000
20
-100.5000
0
VERTEX
8
HOLES
10
142.3966
20
-100.4478
0
VERTEX
8
HOLES
10
142.3864
20
-100.3965
0
VERTEX
8
HOLES
10
142.3696
20
-100.3469
0
VERTEX
8
HOLES
10
142.3464
20
-100.3000
0
VERTEX
8
HOLES
10
142.3173
20
-100.2565
0
VERTEX
8
HOLES
10
142.2828
20
-100.2172
0
VERTEX
8
HOLES
10
142.2435
20
-100.1827
0
VERTEX
8
HOLES
10
142.2000
20
-100.1536
0
VERTEX
8
HOLES
10
142.1531
20
-100.1304
0
VERTEX
8
HOLES
10
142.1035
20
-100.1136
0
VERTEX
8
HOLES
10
142.0522
20
-100.1034
0
VERTEX
8
HOLES
10
142.0000
20
-100.1000
0
VERTEX
8
HOLES
10
141.9478
20
-100.1034
0
VERTEX
8
HOLES
10
141.8965
20
-100.1136
0
VERTEX
8
HOLES
10
141.8469
20
-100.1304
0
VERTEX
8
HOLES
10
141.8000
20
-100.1536
0
VERTEX
8
HOLES
10
141.7565
20
-100.1827
0
VERTEX
8
HOLES
10
141.7172
20
-100.2172
0
VERTEX
8
HOLES
10
141.6827
20
-100.2565
0
VERTEX
8
HOLES
10
141.6536
20
-100.3000
0
VERTEX
8
HOLES
10
141.6304
20
-100.3469
0
VERTEX
8
HOLES
10
141.6136
20
-100.3965
0
VERTEX
8
HOLES
10
141.6034
20
-100.4478
0
SEQEND
8
HOLES
0
POLYLINE
8
HOLES
66
1
70
1
0
VERTEX
8
HOLES
10
164.6000
20
-122.6600
0
VERTEX
8
HOLES
10
164.6034
20
-122.7122
0
VERTEX
8
HOLES
10
164.6136
20
-122.7635
0
VERTEX
8
HOLES
10
164.6304
20
-122.8131
0
VERTEX
8
HOLES
10
164.6536
20
-122.8600
0
VERTEX
8
HOLES
10
164.6827
20
-122.9035
0
VERTEX
8
HOLES
10
164.7172
20
-122.9428
0
VERTEX
8
HOLES
10
164.7565
20
-122.9773
0
VERTEX
8
HOLES
10
164.8000
20
-123.0064
0
VERTEX
8
HOLES
10
164.8469
20
-123.0296
0
VERTEX
8
HOLES
10
164.8965
20
-123.0464
0
VERTEX
8
HOLES
10
164.9478
20
-123.0566
0
VERTEX
8
HOLES
10
165.0000
20
-123.0600
0
VERTEX
8
HOLES
10
165.0522
20
-123.0566
0
VERTEX
8
HOLES
10
165.1035
20
-123.0464
0
VERTEX
8
HOLES
10
165.1531
20
-123.0296
0
VERTEX
8
HOLES
10
165.2000
20
-123.0064
0
VERTEX
8
HOLES
10
165.2435
20
-122.9773
0
VERTEX
8
HOLES
10
165.2828
20
-122.9428
0
VERTEX
8
HOLES
10
165.3173
20
-122.9035
0
VERTEX
8
HOLES
10
165.3464
20
-122.8600
0
VERTEX
8
HOLES
10
165.3696
20
-122.8131
0
VERTEX
8
HOLES
10
165.3864
20
-122.7635
0
VERTEX
8
HOLES
10
165.3966
20
-122.7122
0
VERTEX
8
HOLES
10
165.4000
20
-122.6600
0
VERTEX
8
HOLES
10
165.3966
20
-122.6078
0
VERTEX
8
HOLES
10
165.3864
20
-122.5565
0
VERTEX
8
HOLES
10
165.3696
20
-122.5069
0
VERTEX
8
HOLES
10
165.3464
20
-122.4600
0
VERTEX
8
HOLES
10
165.3173
20
-122.4165
0
VERTEX
8
HOLES
10
165.2828
20
-122.3772
0
VERTEX
8
HOLES
10
165.2435
20
-122.3427
0
VERTEX
8
HOLES
10
165.2000
20
-122.3136
0
VERTEX
8
HOLES
10
165.1531
20
-122.2904
0
VERTEX
8
HOLES
10
165.1035
20
-122.2736
0
VERTEX
8
HOLES
10
165.0522
20
-122.2634
0
VERTEX
8
HOLES
10
165.0000
20
-122.2600
0
VERTEX
8
HOLES
10
164.9478
20
-122.2634
0
VERTEX
8
HOLES
10
164.8965
20
-122.2736
0
VERTEX
8
HOLES
10
164.8469
20
-122.2904
0
VERTEX
8
HOLES
10
164.8000
20
-122.3136
0
VERTEX
8
HOLES
10
164.7565
20
-122.3427
0
VERTEX
8
HOLES
10
164.7172
20
-122.3772
0
VERTEX
8
HOLES
10
164.6827
20
-122.4165
0
VERTEX
8
HOLES
10
164.6536
20
-122.4600
0
VERTEX
8
HOLES
10
164.6304
20
-122.5069
0
VERTEX
8
HOLES
10
164.6136
20
-122.5565
0
VERTEX
8
HOLES
10
164.6034
20
-122.6078
0
SEQEND
8
HOLES
0
POLYLINE
8
HOLES
66
1
70
1
0
VERTEX
8
HOLES
10
164.6000
20
-112.5000
0
VERTEX
8
HOLES
10
164.6034
20
-112.5522
0
VERTEX
8
HOLES
10
164.6136
20
-112.6035
0
VERTEX
8
HOLES
10
164.6304
20
-112.6531
0
VERTEX
8
HOLES
10
164.6536
20
-112.7000
0
VERTEX
8
HOLES
10
164.6827
20
-112.7435
0
VERTEX
8
HOLES
10
164.7172
20
-112.7828
0
VERTEX
8
HOLES
10
164.7565
20
-112.8173
0
VERTEX
8
HOLES
10
164.8000
20
-112.8464
0
VERTEX
8
HOLES
10
164.8469
20
-112.8696
0
VERTEX
8
HOLES
10
164.8965
20
-112.8864
0
VERTEX
8
HOLES
10
164.9478
20
-112.8966
0
VERTEX
8
HOLES
10
165.0000
20
-112.9000
0
VERTEX
8
HOLES
10
165.0522
20
-112.8966
0
VERTEX
8
HOLES
10
165.1035
20
-112.8864
0
VERTEX
8
HOLES
10
165.1531
20
-112.8696
0
VERTEX
8
HOLES
10
165.2000
20
-112.8464
0
VERTEX
8
HOLES
10
165.2435
20
-112.8173
0
VERTEX
8
HOLES
10
165.2828
20
-112.7828
0
VERTEX
8
HOLES
10
165.3173
20
-112.7435
0
VERTEX
8
HOLES
10
165.3464
20
-112.7000
0
VERTEX
8
HOLES
10
165.3696
20
-112.6531
0
VERTEX
8
HOLES
10
165.3864
20
-112.6035
0
VERTEX
8
HOLES
10
165.3966
20
-112.5522
0
VERTEX
8
HOLES
10
165.4000
20
-112.5000
0
VERTEX
8
HOLES
10
165.3966
20
-112.4478
0
VERTEX
8
HOLES
10
165.3864
20
-112.3965
0
VERTEX
8
HOLES
10
165.3696
20
-112.3469
0
VERTEX
8
HOLES
10
165.3464
20
-112.3000
0
VERTEX
8
HOLES
10
165.3173
20
-112.2565
0
VERTEX
8
HOLES
10
165.2828
20
-112.2172
0
VERTEX
8
HOLES
10
165.2435
20
-112.1827
0
VERTEX
8
HOLES
10
165.2000
20
-112.1536
0
VERTEX
8
HOLES
10
165.1531
20
-112.1304
0
VERTEX
8
HOLES
10
165.1035
20
-112.1136
0
VERTEX
8
HOLES
10
165.0522
20
-112.1034
0
VERTEX
8
HOLES
10
165.0000
20
-112.1000
0
VERTEX
8
HOLES
10
164.9478
20
-112.1034
0
VERTEX
8
HOLES
10
164.8965
20
-112.1136
0
VERTEX
8
HOLES
10
164.8469
20
-112.1304
0
VERTEX
8
HOLES
10
164.8000
20
-112.1536
0
VERTEX
8
HOLES
10
164.7565
20
-112.1827
0
VERTEX
8
HOLES
10
164.7172
20
-112.2172
0
VERTEX
8
HOLES
10
164.6827
20
-112.2565
0
VERTEX
8
HOLES
10
164.6536
20
-112.3000
0
VERTEX
8
HOLES
10
164.6304
20
-112.3469
0
VERTEX
8
HOLES
10
164.6136
20
-112.3965
0
VERTEX
8
HOLES
10
164.6034
20
-112.4478
0
SEQEND
8
HOLES
0
POLYLINE
8
HOLES
66
1
70
1
0
VERTEX
8
HOLES
10
170.0600
20
-125.5000
0
VERTEX
8
HOLES
10
170.0634
20
-125.5522
0
VERTEX
8
HOLES
10
170.0736
20
-125.6035
0
VERTEX
8
HOLES
10
170.0904
20
-125.6531
0
VERTEX
8
HOLES
10
170.1136
20
-125.7000
0
VERTEX
8
HOLES
10
170.1427
20
-125.7435
0
VERTEX
8
HOLES
10
170.1772
20
-125.7828
0
VERTEX
8
HOLES
10
170.2165
20
-125.8173
0
VERTEX
8
HOLES
10
170.2600
20
-125.8464
0
VERTEX
8
HOLES
10
170.3069
20
-125.8696
0
VERTEX
8
HOLES
10
170.3565
20
-125.8864
0
VERTEX
8
HOLES
10
170.4078
20
-125.8966
0
VERTEX
8
HOLES
10
170.4600
20
-125.9000
0
VERTEX
8
HOLES
10
170.5122
20
-125.8966
0
VERTEX
8
HOLES
10
170.5635
20
-125.8864
0
VERTEX
8
HOLES
10
170.6131
20
-125.8696
0
VERTEX
8
HOLES
10
170.6600
20
-125.8464
0
VERTEX
8
HOLES
10
170.7035
20
-125.8173
0
VERTEX
8
HOLES
10
170.7428
20
-125.7828
0
VERTEX
8
HOLES
10
170.7773
20
-125.7435
0
VERTEX
8
HOLES
10
170.8064
20
-125.7000
0
VERTEX
8
HOLES
10
170.8296
20
-125.6531
0
VERTEX
8
HOLES
10
170.8464
20
-125.6035
0
VERTEX
8
HOLES
10
170.8566
20
-125.5522
0
VERTEX
8
HOLES
10
170.8600
20
-125.5000
0
VERTEX
8
HOLES
10
170.8566
20
-125.4478
0
VERTEX
8
HOLES
10
170.8464
20
-125.3965
0
VERTEX
8
HOLES
10
170.8296
20
-125.3469
0
VERTEX
8
HOLES
10
170.8064
20
-125.3000
0
VERTEX
8
HOLES
10
170.7773
20
-125.2565
0
VERTEX
8
HOLES
10
170.7428
20
-125.2172
0
VERTEX
8
HOLES
10
170.7035
20
-125.1827
0
VERTEX
8
HOLES
10
170.6600
20
-125.1536
0
VERTEX
8
HOLES
10
170.6131
20
-125.1304
0
VERTEX
8
HOLES
10
170.5635
20
-125.1136
0
VERTEX
8
HOLES
10
170.5122
20
-125.1034
0
VERTEX
8
HOLES
10
170.4600
20
-125.1000
0
VERTEX
8
HOLES
10
170.4078
20
-125.1034
0
VERTEX
8
HOLES
10
170.3565
20
-125.1136
0
VERTEX
8
HOLES
10
170.3069
20
-125.1304
0
VERTEX
8
HOLES
10
170.2600
20
-125.1536
0
VERTEX
8
HOLES
10
170.2165
20
-125.1827
0
VERTEX
8
HOLES
10
170.1772
20
-125.2172
0
VERTEX
8
HOLES
10
170.1427
20
-125.2565
0
VERTEX
8
HOLES
10
170.1136
20
-125.3000
0
VERTEX
8
HOLES
10
170.0904
20
-125.3469
0
VERTEX
8
HOLES
10
170.0736
20
-125.3965
0
VERTEX
8
HOLES
10
170.0634
20
-125.4478
0
SEQEND
8
HOLES
0
POLYLINE
8
HOLES
66
1
70
1
0
VERTEX
8
HOLES
10
168.0600
20
-125.5000
0
VERTEX
8
HOLES
10
168.0634
20
-125.5522
0
VERTEX
8
HOLES
10
168.0736
20
-125.6035
0
VERTEX
8
HOLES
10
168.0904
20
-125.6531
0
VERTEX
8
HOLES
10
168.1136
20
-125.7000
0
VERTEX
8
HOLES
10
168.1427
20
-125.7435
0
VERTEX
8
HOLES
10
168.1772
20
-125.7828
0
VERTEX
8
HOLES
10
168.2165
20
-125.8173
0
VERTEX
8
HOLES
10
168.2600
20
-125.8464
0
VERTEX
8
HOLES
10
168.3069
20
-125.8696
0
VERTEX
8
HOLES
10
168.3565
20
-125.8864
0
VERTEX
8
HOLES
10
168.4078
20
-125.8966
0
VERTEX
8
HOLES
10
168.4600
20
-125.9000
0
VERTEX
8
HOLES
10
168.5122
20
-125.8966
0
VERTEX
8
HOLES
10
168.5635
20
-125.8864
0
VERTEX
8
HOLES
10
168.6131
20
-125.8696
0
VERTEX
8
HOLES
10
168.6600
20
-125.8464
0
VERTEX
8
HOLES
10
168.7035
20
-125.8173
0
VERTEX
8
HOLES
10
168.7428
20
-125.7828
0
VERTEX
8
HOLES
10
168.7773
20
-125.7435
0
VERTEX
8
HOLES
10
168.8064
20
-125.7000
0
VERTEX
8
HOLES
10
168.8296
20
-125.6531
0
VERTEX
8
HOLES
10
168.8464
20
-125.6035
0
VERTEX
8
HOLES
10
168.8566
20
-125.5522
0
VERTEX
8
HOLES
10
168.8600
20
-125.5000
0
VERTEX
8
HOLES
10
168.8566
20
-125.4478
0
VERTEX
8
HOLES
10
168.8464
20
-125.3965
0
VERTEX
8
HOLES
10
168.8296
20
-125.3469
0
VERTEX
8
HOLES
10
168.8064
20
-125.3000
0
VERTEX
8
HOLES
10
168.7773
20
-125.2565
0
VERTEX
8
HOLES
10
168.7428
20
-125.2172
0
VERTEX
8
HOLES
10
168.7035
20
-125.1827
0
VERTEX
8
HOLES
10
168.6600
20
-125.1536
0
VERTEX
8
HOLES
10
168.6131
20
-125.1304
0
VERTEX
8
HOLES
10
168.5635
20
-125.1136
0
VERTEX
8
HOLES
10
168.5122
20
-125.1034
0
VERTEX
8
HOLES
10
168.4600
20
-125.1000
0
VERTEX
8
HOLES
10
168.4078
20
-125.1034
0
VERTEX
8
HOLES
10
168.3565
20
-125.1136
0
VERTEX
8
HOLES
10
168.3069
20
-125.1304
0
VERTEX
8
HOLES
10
168.2600
20
-125.1536
0
VERTEX
8
HOLES
10
168.2165
20
-125.1827
0
VERTEX
8
HOLES
10
168.1772
20
-125.2172
0
VERTEX
8
HOLES
10
168.1427
20
-125.2565
0
VERTEX
8
HOLES
10
168.1136
20
-125.3000
0
VERTEX
8
HOLES
10
168.0904
20
-125.3469
0
VERTEX
8
HOLES
10
168.0736
20
-125.3965
0
VERTEX
8
HOLES
10
168.0634
20
-125.4478
0
SEQEND
8
HOLES
0
POLYLINE
8
HOLES
66
1
70
1
0
VERTEX
8
HOLES
10
167.3700
20
-131.5000
0
VERTEX
8
HOLES
10
167.3747
20
-131.5718
0
VERTEX
8
HOLES
10
167.3887
20
-131.6424
0
VERTEX
8
HOLES
10
167.4119
20
-131.7105
0
VERTEX
8
HOLES
10
167.4437
20
-131.7750
0
VERTEX
8
HOLES
10
167.4837
20
-131.8348
0
VERTEX
8
HOLES
10
167.5311
20
-131.8889
0
VERTEX
8
HOLES
10
167.5852
20
-131.9363
0
VERTEX
8
HOLES
10
167.6450
20
-131.9763
0
VERTEX
8
HOLES
10
167.7095
20
-132.0081
0
VERTEX
8
HOLES
10
167.7776
20
-132.0313
0
VERTEX
8
HOLES
10
167.8482
20
-132.0453
0
VERTEX
8
HOLES
10
167.9200
20
-132.0500
0
VERTEX
8
HOLES
10
167.9918
20
-132.0453
0
VERTEX
8
HOLES
10
168.0624
20
-132.0313
0
VERTEX
8
HOLES
10
168.1305
20
-132.0081
0
VERTEX
8
HOLES
10
168.1950
20
-131.9763
0
VERTEX
8
HOLES
10
168.2548
20
-131.9363
0
VERTEX
8
HOLES
10
168.3089
20
-131.8889
0
VERTEX
8
HOLES
10
168.3563
20
-131.8348
0
VERTEX
8
HOLES
10
168.3963
20
-131.7750
0
VERTEX
8
HOLES
10
168.4281
20
-131.7105
0
VERTEX
8
HOLES
10
168.4513
20
-131.6424
0
VERTEX
8
HOLES
10
168.4653
20
-131.5718
0
VERTEX
8
HOLES
10
168.4700
20
-131.5000
0
VERTEX
8
HOLES
10
168.4653
20
-131.4282
0
VERTEX
8
HOLES
10
168.4513
20
-131.3576
0
VERTEX
8
HOLES
10
168.4281
20
-131.2895
0
VERTEX
8
HOLES
10
168.3963
20
-131.2250
0
VERTEX
8
HOLES
10
168.3563
20
-131.1652
0
VERTEX
8
HOLES
10
168.3089
20
-131.1111
0
VERTEX
8
HOLES
10
168.2548
20
-131.0637
0
VERTEX
8
HOLES
10
168.1950
20
-131.0237
0
VERTEX
8
HOLES
10
168.1305
20
-130.9919
0
VERTEX
8
HOLES
10
168.0624
20
-130.9687
0
VERTEX
8
HOLES
10
167.9918
20
-130.9547
0
VERTEX
8
HOLES
10
167.9200
20
-130.9500
0
VERTEX
8
HOLES
10
167.8482
20
-130.9547
0
VERTEX
8
HOLES
10
167.7776
20
-130.9687
0
VERTEX
8
HOLES
10
167.7095
20
-130.9919
0
VERTEX
8
HOLES
10
167.6450
20
-131.0237
0
VERTEX
8
HOLES
10
167.5852
20
-131.0637
0
VERTEX
8
HOLES
10
167.5311
20
-131.1111
0
VERTEX
8
HOLES
10
167.4837
20
-131.1652
0
VERTEX
8
HOLES
10
167.4437
20
-131.2250
0
VERTEX
8
HOLES
10
167.4119
20
-131.2895
0
VERTEX
8
HOLES
10
167.3887
20
-131.3576
0
VERTEX
8
HOLES
10
167.3747
20
-131.4282
0
SEQEND
8
HOLES
0
POLYLINE
8
HOLES
66
1
70
1
0
VERTEX
8
HOLES
10
169.9100
20
-131.5000
0
VERTEX
8
HOLES
10
169.9147
20
-131.5718
0
VERTEX
8
HOLES
10
169.9287
20
-131.6424
0
VERTEX
8
HOLES
10
169.9519
20
-131.7105
0
VERTEX
8
HOLES
10
169.9837
20
-131.7750
0
VERTEX
8
HOLES
10
170.0237
20
-131.8348
0
VERTEX
8
HOLES
10
170.0711
20
-131.8889
0
VERTEX
8
HOLES
10
170.1252
20
-131.9363
0
VERTEX
8
HOLES
10
170.1850
20
-131.9763
0
VERTEX
8
HOLES
10
170.2495
20
-132.0081
0
VERTEX
8
HOLES
10
170.3176
20
-132.0313
0
VERTEX
8
HOLES
10
170.3882
20
-132.0453
0
VERTEX
8
HOLES
10
170.4600
20
-132.0500
0
VERTEX
8
HOLES
10
170.5318
20
-132.0453
0
VERTEX
8
HOLES
10
170.6024
20
-132.0313
0
VERTEX
8
HOLES
10
170.6705
20
-132.0081
0
VERTEX
8
HOLES
10
170.7350
20
-131.9763
0
VERTEX
8
HOLES
10
170.7948
20
-131.9363
0
VERTEX
8
HOLES
10
170.8489
20
-131.8889
0
VERTEX
8
HOLES
10
170.8963
20
-131.8348
0
VERTEX
8
HOLES
10
170.9363
20
-131.7750
0
VERTEX
8
HOLES
10
170.9681
20
-131.7105
0
VERTEX
8
HOLES
10
170.9913
20
-131.6424
0
VERTEX
8
HOLES
10
171.0053
20
-131.5718
0
VERTEX
8
HOLES
10
171.0100
20
-131.5000
0
VERTEX
8
HOLES
10
171.0053
20
-131.4282
0
VERTEX
8
HOLES
10
170.9913
20
-131.3576
0
VERTEX
8
HOLES
10
170.9681
20
-131.2895
0
VERTEX
8
HOLES
10
170.9363
20
-131.2250
0
VERTEX
8
HOLES
10
170.8963
20
-131.1652
0
VERTEX
8
HOLES
10
170.8489
20
-131.1111
0
VERTEX
8
HOLES
10
170.7948
20
-131.0637
0
VERTEX
8
HOLES
10
170.7350
20
-131.0237
0
VERTEX
8
HOLES
10
170.6705
20
-130.9919
0
VERTEX
8
HOLES
10
170.6024
20
-130.9687
0
VERTEX
8
HOLES
10
170.5318
20
-130.9547
0
VERTEX
8
HOLES
10
170.4600
20
-130.9500
0
VERTEX
8
HOLES
10
170.3882
20
-130.9547
0
VERTEX
8
HOLES
10
170.3176
20
-130.9687
0
VERTEX
8
HOLES
10
170.2495
20
-130.9919
0
VERTEX
8
HOLES
10
170.1850
20
-131.0237
0
VERTEX
8
HOLES
10
170.1252
20
-131.0637
0
VERTEX
8
HOLES
10
170.0711
20
-131.1111
0
VERTEX
8
HOLES
10
170.0237
20
-131.1652
0
VERTEX
8
HOLES
10
169.9837
20
-131.2250
0
VERTEX
8
HOLES
10
169.9519
20
-131.2895
0
VERTEX
8
HOLES
10
169.9287
20
-131.3576
0
VERTEX
8
HOLES
10
169.9147
20
-131.4282
0
SEQEND
8
HOLES
0
POLYLINE
8
HOLES
66
1
70
1
0
VERTEX
8
HOLES
10
172.4500
20
-131.5000
0
VERTEX
8
HOLES
10
172.4547
20
-131.5718
0
VERTEX
8
HOLES
10
172.4687
20
-131.6424
0
VERTEX
8
HOLES
10
172.4919
20
-131.7105
0
VERTEX
8
HOLES
10
172.5237
20
-131.7750
0
VERTEX
8
HOLES
10
172.5637
20
-131.8348
0
VERTEX
8
HOLES
10
172.6111
20
-131.8889
0
VERTEX
8
HOLES
10
172.6652
20
-131.9363
0
VERTEX
8
HOLES
10
172.7250
20
-131.9763
0
VERTEX
8
HOLES
10
172.7895
20
-132.0081
0
VERTEX
8
HOLES
10
172.8576
20
-132.0313
0
VERTEX
8
HOLES
10
172.9282
20
-132.0453
0
VERTEX
8
HOLES
10
173.0000
20
-132.0500
0
VERTEX
8
HOLES
10
173.0718
20
-132.0453
0
VERTEX
8
HOLES
10
173.1424
20
-132.0313
0
VERTEX
8
HOLES
10
173.2105
20
-132.0081
0
VERTEX
8
HOLES
10
173.2750
20
-131.9763
0
VERTEX
8
HOLES
10
173.3348
20
-131.9363
0
VERTEX
8
HOLES
10
173.3889
20
-131.8889
0
VERTEX
8
HOLES
10
173.4363
20
-131.8348
0
VERTEX
8
HOLES
10
173.4763
20
-131.7750
0
VERTEX
8
HOLES
10
173.5081
20
-131.7105
0
VERTEX
8
HOLES
10
173.5313
20
-131.6424
0
VERTEX
8
HOLES
10
173.5453
20
-131.5718
0
VERTEX
8
HOLES
10
173.5500
20
-131.5000
0
VERTEX
8
HOLES
10
173.5453
20
-131.4282
0
VERTEX
8
HOLES
10
173.5313
20
-131.3576
0
VERTEX
8
HOLES
10
173.5081
20
-131.2895
0
VERTEX
8
HOLES
10
173.4763
20
-131.2250
0
VERTEX
8
HOLES
10
173.4363
20
-131.1652
0
VERTEX
8
HOLES
10
173.3889
20
-131.1111
0
VERTEX
8
HOLES
10
173.3348
20
-131.0637
0
VERTEX
8
HOLES
10
173.2750
20
-131.0237
0
VERTEX
8
HOLES
10
173.2105
20
-130.9919
0
VERTEX
8
HOLES
10
173.1424
20
-130.9687
0
VERTEX
8
HOLES
10
173.0718
20
-130.9547
0
VERTEX
8
HOLES
10
173.0000
20
-130.9500
0
VERTEX
8
HOLES
10
172.9282
20
-130.9547
0
VERTEX
8
HOLES
10
172.8576
20
-130.9687
0
VERTEX
8
HOLES
10
172.7895
20
-130.9919
0
VERTEX
8
HOLES
10
172.7250
20
-131.0237
0
VERTEX
8
HOLES
10
172.6652
20
-131.0637
0
VERTEX
8
HOLES
10
172.6111
20
-131.1111
0
VERTEX
8
HOLES
10
172.5637
20
-131.1652
0
VERTEX
8
HOLES
10
172.5237
20
-131.2250
0
VERTEX
8
HOLES
10
172.4919
20
-131.2895
0
VERTEX
8
HOLES
10
172.4687
20
-131.3576
0
VERTEX
8
HOLES
10
172.4547
20
-131.4282
0
SEQEND
8
HOLES
0
POLYLINE
8
HOLES
66
1
70
1
0
VERTEX
8
HOLES
10
141.6000
20
-105.0000
0
VERTEX
8
HOLES
10
141.6034
20
-105.0522
0
VERTEX
8
HOLES
10
141.6136
20
-105.1035
0
VERTEX
8
HOLES
10
141.6304
20
-105.1531
0
VERTEX
8
HOLES
10
141.6536
20
-105.2000
0
VERTEX
8
HOLES
10
141.6827
20
-105.2435
0
VERTEX
8
HOLES
10
141.7172
20
-105.2828
0
VERTEX
8
HOLES
10
141.7565
20
-105.3173
0
VERTEX
8
HOLES
10
141.8000
20
-105.3464
0
VERTEX
8
HOLES
10
141.8469
20
-105.3696
0
VERTEX
8
HOLES
10
141.8965
20
-105.3864
0
VERTEX
8
HOLES
10
141.9478
20
-105.3966
0
VERTEX
8
HOLES
10
142.0000
20
-105.4000
0
VERTEX
8
HOLES
10
142.0522
20
-105.3966
0
VERTEX
8
HOLES
10
142.1035
20
-105.3864
0
VERTEX
8
HOLES
10
142.1531
20
-105.3696
0
VERTEX
8
HOLES
10
142.2000
20
-105.3464
0
VERTEX
8
HOLES
10
142.2435
20
-105.3173
0
VERTEX
8
HOLES
10
142.2828
20
-105.2828
0
VERTEX
8
HOLES
10
142.3173
20
-105.2435
0
VERTEX
8
HOLES
10
142.3464
20
-105.2000
0
VERTEX
8
HOLES
10
142.3696
20
-105.1531
0
VERTEX
8
HOLES
10
142.3864
20
-105.1035
0
VERTEX
8
HOLES
10
142.3966
20
-105.0522
0
VERTEX
8
HOLES
10
142.4000
20
-105.0000
0
VERTEX
8
HOLES
10
142.3966
20
-104.9478
0
VERTEX
8
HOLES
10
142.3864
20
-104.8965
0
VERTEX
8
HOLES
10
142.3696
20
-104.8469
0
VERTEX
8
HOLES
10
142.3464
20
-104.8000
0
VERTEX
8
HOLES
10
142.3173
20
-104.7565
0
VERTEX
8
HOLES
10
142.2828
20
-104.7172
0
VERTEX
8
HOLES
10
142.2435
20
-104.6827
0
VERTEX
8
HOLES
10
142.2000
20
-104.6536
0
VERTEX
8
HOLES
10
142.1531
20
-104.6304
0
VERTEX
8
HOLES
10
142.1035
20
-104.6136
0
VERTEX
8
HOLES
10
142.0522
20
-104.6034
0
VERTEX
8
HOLES
10
142.0000
20
-104.6000
0
VERTEX
8
HOLES
10
141.9478
20
-104.6034
0
VERTEX
8
HOLES
10
141.8965
20
-104.6136
0
VERTEX
8
HOLES
10
141.8469
20
-104.6304
0
VERTEX
8
HOLES
10
141.8000
20
-104.6536
0
VERTEX
8
HOLES
10
141.7565
20
-104.6827
0
VERTEX
8
HOLES
10
141.7172
20
-104.7172
0
VERTEX
8
HOLES
10
141.6827
20
-104.7565
0
VERTEX
8
HOLES
10
141.6536
20
-104.8000
0
VERTEX
8
HOLES
10
141.6304
20
-104.8469
0
VERTEX
8
HOLES
10
141.6136
20
-104.8965
0
VERTEX
8
HOLES
10
141.6034
20
-104.9478
0
SEQEND
8
HOLES
0
POLYLINE
8
HOLES
66
1
70
1
0
VERTEX
8
HOLES
10
139.6000
20
-105.0000
0
VERTEX
8
HOLES
10
139.6034
20
-105.0522
0
VERTEX
8
HOLES
10
139.6136
20
-105.1035
0
VERTEX
8
HOLES
10
139.6304
20
-105.1531
0
VERTEX
8
HOLES
10
139.6536
20
-105.2000
0
VERTEX
8
HOLES
10
139.6827
20
-105.2435
0
VERTEX
8
HOLES
10
139.7172
20
-105.2828
0
VERTEX
8
HOLES
10
139.7565
20
-105.3173
0
VERTEX
8
HOLES
10
139.8000
20
-105.3464
0
VERTEX
8
HOLES
10
139.8469
20
-105.3696
0
VERTEX
8
HOLES
10
139.8965
20
-105.3864
0
VERTEX
8
HOLES
10
139.9478
20
-105.3966
0
VERTEX
8
HOLES
10
140.0000
20
-105.4000
0
VERTEX
8
HOLES
10
140.0522
20
-105.3966
0
VERTEX
8
HOLES
10
140.1035
20
-105.3864
0
VERTEX
8
HOLES
10
140.1531
20
-105.3696
0
VERTEX
8
HOLES
10
140.2000
20
-105.3464
0
VERTEX
8
HOLES
10
140.2435
20
-105.3173
0
VERTEX
8
HOLES
10
140.2828
20
-105.2828
0
VERTEX
8
HOLES
10
140.3173
20
-105.2435
0
VERTEX
8
HOLES
10
140.3464
20
-105.2000
0
VERTEX
8
HOLES
10
140.3696
20
-105.1531
0
VERTEX
8
HOLES
10
140.3864
20
-105.1035
0
VERTEX
8
HOLES
10
140.3966
20
-105.0522
0
VERTEX
8
HOLES
10
140.4000
20
-105.0000
0
VERTEX
8
HOLES
10
140.3966
20
-104.9478
0
VERTEX
8
HOLES
10
140.3864
20
-104.8965
0
VERTEX
8
HOLES
10
140.3696
20
-104.8469
0
VERTEX
8
HOLES
10
140.3464
20
-104.8000
0
VERTEX
8
HOLES
10
140.3173
20
-104.7565
0
VERTEX
8
HOLES
10
140.2828
20
-104.7172
0
VERTEX
8
HOLES
10
140.2435
20
-104.6827
0
VERTEX
8
HOLES
10
140.2000
20
-104.6536
0
VERTEX
8
HOLES
10
140.1531
20
-104.6304
0
VERTEX
8
HOLES
10
140.1035
20
-104.6136
0
VERTEX
8
HOLES
10
140.0522
20
-104.6034
0
VERTEX
8
HOLES
10
140.0000
20
-104.6000
0
VERTEX
8
HOLES
10
139.9478
20
-104.6034
0
VERTEX
8
HOLES
10
139.8965
20
-104.6136
0
VERTEX
8
HOLES
10
139.8469
20
-104.6304
0
VERTEX
8
HOLES
10
139.8000
20
-104.6536
0
VERTEX
8
HOLES
10
139.7565
20
-104.6827
0
VERTEX
8
HOLES
10
139.7172
20
-104.7172
0
VERTEX
8
HOLES
10
139.6827
20
-104.7565
0
VERTEX
8
HOLES
10
139.6536
20
-104.8000
0
VERTEX
8
HOLES
10
139.6304
20
-104.8469
0
VERTEX
8
HOLES
10
139.6136
20
-104.8965
0
VERTEX
8
HOLES
10
139.6034
20
-104.9478
0
SEQEND
8
HOLES
0
POLYLINE
8
HOLES
66
1
70
1
0
VERTEX
8
HOLES
10
177.1000
20
-127.0000
0
VERTEX
8
HOLES
10
177.1034
20
-127.0522
0
VERTEX
8
HOLES
10
177.1136
20
-127.1035
0
VERTEX
8
HOLES
10
177.1304
20
-127.1531
0
VERTEX
8
HOLES
10
177.1536
20
-127.2000
0
VERTEX
8
HOLES
10
177.1827
20
-127.2435
0
VERTEX
8
HOLES
10
177.2172
20
-127.2828
0
VERTEX
8
HOLES
10
177.2565
20
-127.3173
0
VERTEX
8
HOLES
10
177.3000
20
-127.3464
0
VERTEX
8
HOLES
10
177.3469
20
-127.3696
0
VERTEX
8
HOLES
10
177.3965
20
-127.3864
0
VERTEX
8
HOLES
10
177.4478
20
-127.3966
0
VERTEX
8
HOLES
10
177.5000
20
-127.4000
0
VERTEX
8
HOLES
10
177.5522
20
-127.3966
0
VERTEX
8
HOLES
10
177.6035
20
-127.3864
0
VERTEX
8
HOLES
10
177.6531
20
-127.3696
0
VERTEX
8
HOLES
10
177.7000
20
-127.3464
0
VERTEX
8
HOLES
10
177.7435
20
-127.3173
0
VERTEX
8
HOLES
10
177.7828
20
-127.2828
0
VERTEX
8
HOLES
10
177.8173
20
-127.2435
0
VERTEX
8
HOLES
10
177.8464
20
-127.2000
0
VERTEX
8
HOLES
10
177.8696
20
-127.1531
0
VERTEX
8
HOLES
10
177.8864
20
-127.1035
0
VERTEX
8
HOLES
10
177.8966
20
-127.0522
0
VERTEX
8
HOLES
10
177.9000
20
-127.0000
0
VERTEX
8
HOLES
10
177.8966
20
-126.9478
0
VERTEX
8
HOLES
10
177.8864
20
-126.8965
0
VERTEX
8
HOLES
10
177.8696
20
-126.8469
0
VERTEX
8
HOLES
10
177.8464
20
-126.8000
0
VERTEX
8
HOLES
10
177.8173
20
-126.7565
0
VERTEX
8
HOLES
10
177.7828
20
-126.7172
0
VERTEX
8
HOLES
10
177.7435
20
-126.6827
0
VERTEX
8
HOLES
10
177.7000
20
-126.6536
0
VERTEX
8
HOLES
10
177.6531
20
-126.6304
0
VERTEX
8
HOLES
10
177.6035
20
-126.6136
0
VERTEX
8
HOLES
10
177.5522
20
-126.6034
0
VERTEX
8
HOLES
10
177.5000
20
-126.6000
0
VERTEX
8
HOLES
10
177.4478
20
-126.6034
0
VERTEX
8
HOLES
10
177.3965
20
-126.6136
0
VERTEX
8
HOLES
10
177.3469
20
-126.6304
0
VERTEX
8
HOLES
10
177.3000
20
-126.6536
0
VERTEX
8
HOLES
10
177.2565
20
-126.6827
0
VERTEX
8
HOLES
10
177.2172
20
-126.7172
0
VERTEX
8
HOLES
10
177.1827
20
-126.7565
0
VERTEX
8
HOLES
10
177.1536
20
-126.8000
0
VERTEX
8
HOLES
10
177.1304
20
-126.8469
0
VERTEX
8
HOLES
10
177.1136
20
-126.8965
0
VERTEX
8
HOLES
10
177.1034
20
-126.9478
0
SEQEND
8
HOLES
0
POLYLINE
8
HOLES
66
1
70
1
0
VERTEX
8
HOLES
10
175.1000
20
-127.0000
0
VERTEX
8
HOLES
10
175.1034
20
-127.0522
0
VERTEX
8
HOLES
10
175.1136
20
-127.1035
0
VERTEX
8
HOLES
10
175.1304
20
-127.1531
0
VERTEX
8
HOLES
10
175.1536
20
-127.2000
0
VERTEX
8
HOLES
10
175.1827
20
-127.2435
0
VERTEX
8
HOLES
10
175.2172
20
-127.2828
0
VERTEX
8
HOLES
10
175.2565
20
-127.3173
0
VERTEX
8
HOLES
10
175.3000
20
-127.3464
0
VERTEX
8
HOLES
10
175.3469
20
-127.3696
0
VERTEX
8
HOLES
10
175.3965
20
-127.3864
0
VERTEX
8
HOLES
10
175.4478
20
-127.3966
0
VERTEX
8
HOLES
10
175.5000
20
-127.4000
0
VERTEX
8
HOLES
10
175.5522
20
-127.3966
0
VERTEX
8
HOLES
10
175.6035
20
-127.3864
0
VERTEX
8
HOLES
10
175.6531
20
-127.3696
0
VERTEX
8
HOLES
10
175.7000
20
-127.3464
0
VERTEX
8
HOLES
10
175.7435
20
-127.3173
0
VERTEX
8
HOLES
10
175.7828
20
-127.2828
0
VERTEX
8
HOLES
10
175.8173
20
-127.2435
0
VERTEX
8
HOLES
10
175.8464
20
-127.2000
0
VERTEX
8
HOLES
10
175.8696
20
-127.1531
0
VERTEX
8
HOLES
10
175.8864
20
-127.1035
0
VERTEX
8
HOLES
10
175.8966
20
-127.0522
0
VERTEX
8
HOLES
10
175.9000
20
-127.0000
0
VERTEX
8
HOLES
10
175.8966
20
-126.9478
0
VERTEX
8
HOLES
10
175.8864
20
-126.8965
0
VERTEX
8
HOLES
10
175.8696
20
-126.8469
0
VERTEX
8
HOLES
10
175.8464
20
-126.8000
0
VERTEX
8
HOLES
10
175.8173
20
-126.7565
0
VERTEX
8
HOLES
10
175.7828
20
-126.7172
0
VERTEX
8
HOLES
10
175.7435
20
-126.6827
0
VERTEX
8
HOLES
10
175.7000
20
-126.6536
0
VERTEX
8
HOLES
10
175.6531
20
-126.6304
0
VERTEX
8
HOLES
10
175.6035
20
-126.6136
0
VERTEX
8
HOLES
10
175.5522
20
-126.6034
0
VERTEX
8
HOLES
10
175.5000
20
-126.6000
0
VERTEX
8
HOLES
10
175.4478
20
-126.6034
0
VERTEX
8
HOLES
10
175.3965
20
-126.6136
0
VERTEX
8
HOLES
10
175.3469
20
-126.6304
0
VERTEX
8
HOLES
10
175.3000
20
-126.6536
0
VERTEX
8
HOLES
10
175.2565
20
-126.6827
0
VERTEX
8
HOLES
10
175.2172
20
-126.7172
0
VERTEX
8
HOLES
10
175.1827
20
-126.7565
0
VERTEX
8
HOLES
10
175.1536
20
-126.8000
0
VERTEX
8
HOLES
10
175.1304
20
-126.8469
0
VERTEX
8
HOLES
10
175.1136
20
-126.8965
0
VERTEX
8
HOLES
10
175.1034
20
-126.9478
0
SEQEND
8
HOLES
0
POLYLINE
8
HOLES
66
1
70
1
0
VERTEX
8
HOLES
10
128.5500
20
-129.0400
0
VERTEX
8
HOLES
10
128.5538
20
-129.0987
0
VERTEX
8
HOLES
10
128.5653
20
-129.1565
0
VERTEX
8
HOLES
10
128.5843
20
-129.2122
0
VERTEX
8
HOLES
10
128.6103
20
-129.2650
0
VERTEX
8
HOLES
10
128.6430
20
-129.3139
0
VERTEX
8
HOLES
10
128.6818
20
-129.3582
0
VERTEX
8
HOLES
10
128.7261
20
-129.3970
0
VERTEX
8
HOLES
10
128.7750
20
-129.4297
0
VERTEX
8
HOLES
10
128.8278
20
-129.4557
0
VERTEX
8
HOLES
10
128.8835
20
-129.4747
0
VERTEX
8
HOLES
10
128.9413
20
-129.4862
0
VERTEX
8
HOLES
10
129.0000
20
-129.4900
0
VERTEX
8
HOLES
10
129.0587
20
-129.4862
0
VERTEX
8
HOLES
10
129.1165
20
-129.4747
0
VERTEX
8
HOLES
10
129.1722
20
-129.4557
0
VERTEX
8
HOLES
10
129.2250
20
-129.4297
0
VERTEX
8
HOLES
10
129.2739
20
-129.3970
0
VERTEX
8
HOLES
10
129.3182
20
-129.3582
0
VERTEX
8
HOLES
10
129.3570
20
-129.3139
0
VERTEX
8
HOLES
10
129.3897
20
-129.2650
0
VERTEX
8
HOLES
10
129.4157
20
-129.2122
0
VERTEX
8
HOLES
10
129.4347
20
-129.1565
0
VERTEX
8
HOLES
10
129.4462
20
-129.0987
0
VERTEX
8
HOLES
10
129.4500
20
-129.0400
0
VERTEX
8
HOLES
10
129.4462
20
-128.9813
0
VERTEX
8
HOLES
10
129.4347
20
-128.9235
0
VERTEX
8
HOLES
10
129.4157
20
-128.8678
0
VERTEX
8
HOLES
10
129.3897
20
-128.8150
0
VERTEX
8
HOLES
10
129.3570
20
-128.7661
0
VERTEX
8
HOLES
10
129.3182
20
-128.7218
0
VERTEX
8
HOLES
10
129.2739
20
-128.6830
0
VERTEX
8
HOLES
10
129.2250
20
-128.6503
0
VERTEX
8
HOLES
10
129.1722
20
-128.6243
0
VERTEX
8
HOLES
10
129.1165
20
-128.6053
0
VERTEX
8
HOLES
10
129.0587
20
-128.5938
0
VERTEX
8
HOLES
10
129.0000
20
-128.5900
0
VERTEX
8
HOLES
10
128.9413
20
-128.5938
0
VERTEX
8
HOLES
10
128.8835
20
-128.6053
0
VERTEX
8
HOLES
10
128.8278
20
-128.6243
0
VERTEX
8
HOLES
10
128.7750
20
-128.6503
0
VERTEX
8
HOLES
10
128.7261
20
-128.6830
0
VERTEX
8
HOLES
10
128.6818
20
-128.7218
0
VERTEX
8
HOLES
10
128.6430
20
-128.7661
0
VERTEX
8
HOLES
10
128.6103
20
-128.8150
0
VERTEX
8
HOLES
10
128.5843
20
-128.8678
0
VERTEX
8
HOLES
10
128.5653
20
-128.9235
0
VERTEX
8
HOLES
10
128.5538
20
-128.9813
0
SEQEND
8
HOLES
0
POLYLINE
8
HOLES
66
1
70
1
0
VERTEX
8
HOLES
10
128.5500
20
-126.5000
0
VERTEX
8
HOLES
10
128.5538
20
-126.5587
0
VERTEX
8
HOLES
10
128.5653
20
-126.6165
0
VERTEX
8
HOLES
10
128.5843
20
-126.6722
0
VERTEX
8
HOLES
10
128.6103
20
-126.7250
0
VERTEX
8
HOLES
10
128.6430
20
-126.7739
0
VERTEX
8
HOLES
10
128.6818
20
-126.8182
0
VERTEX
8
HOLES
10
128.7261
20
-126.8570
0
VERTEX
8
HOLES
10
128.7750
20
-126.8897
0
VERTEX
8
HOLES
10
128.8278
20
-126.9157
0
VERTEX
8
HOLES
10
128.8835
20
-126.9347
0
VERTEX
8
HOLES
10
128.9413
20
-126.9462
0
VERTEX
8
HOLES
10
129.0000
20
-126.9500
0
VERTEX
8
HOLES
10
129.0587
20
-126.9462
0
VERTEX
8
HOLES
10
129.1165
20
-126.9347
0
VERTEX
8
HOLES
10
129.1722
20
-126.9157
0
VERTEX
8
HOLES
10
129.2250
20
-126.8897
0
VERTEX
8
HOLES
10
129.2739
20
-126.8570
0
VERTEX
8
HOLES
10
129.3182
20
-126.8182
0
VERTEX
8
HOLES
10
129.3570
20
-126.7739
0
VERTEX
8
HOLES
10
129.3897
20
-126.7250
0
VERTEX
8
HOLES
10
129.4157
20
-126.6722
0
VERTEX
8
HOLES
10
129.4347
20
-126.6165
0
VERTEX
8
HOLES
10
129.4462
20
-126.5587
0
VERTEX
8
HOLES
10
129.4500
20
-126.5000
0
VERTEX
8
HOLES
10
129.4462
20
-126.4413
0
VERTEX
8
HOLES
10
129.4347
20
-126.3835
0
VERTEX
8
HOLES
10
129.4157
20
-126.3278
0
VERTEX
8
HOLES
10
129.3897
20
-126.2750
0
VERTEX
8
HOLES
10
129.3570
20
-126.2261
0
VERTEX
8
HOLES
10
129.3182
20
-126.1818
0
VERTEX
8
HOLES
10
129.2739
20
-126.1430
0
VERTEX
8
HOLES
10
129.2250
20
-126.1103
0
VERTEX
8
HOLES
10
129.1722
20
-126.0843
0
VERTEX
8
HOLES
10
129.1165
20
-126.0653
0
VERTEX
8
HOLES
10
129.0587
20
-126.0538
0
VERTEX
8
HOLES
10
129.0000
20
-126.0500
0
VERTEX
8
HOLES
10
128.9413
20
-126.0538
0
VERTEX
8
HOLES
10
128.8835
20
-126.0653
0
VERTEX
8
HOLES
10
128.8278
20
-126.0843
0
VERTEX
8
HOLES
10
128.7750
20
-126.1103
0
VERTEX
8
HOLES
10
128.7261
20
-126.1430
0
VERTEX
8
HOLES
10
128.6818
20
-126.1818
0
VERTEX
8
HOLES
10
128.6430
20
-126.2261
0
VERTEX
8
HOLES
10
128.6103
20
-126.2750
0
VERTEX
8
HOLES
10
128.5843
20
-126.3278
0
VERTEX
8
HOLES
10
128.5653
20
-126.3835
0
VERTEX
8
HOLES
10
128.5538
20
-126.4413
0
SEQEND
8
HOLES
0
POLYLINE
8
HOLES
66
1
70
1
0
VERTEX
8
HOLES
10
163.6000
20
-131.5000
0
VERTEX
8
HOLES
10
163.6034
20
-131.5522
0
VERTEX
8
HOLES
10
163.6136
20
-131.6035
0
VERTEX
8
HOLES
10
163.6304
20
-131.6531
0
VERTEX
8
HOLES
10
163.6536
20
-131.7000
0
VERTEX
8
HOLES
10
163.6827
20
-131.7435
0
VERTEX
8
HOLES
10
163.7172
20
-131.7828
0
VERTEX
8
HOLES
10
163.7565
20
-131.8173
0
VERTEX
8
HOLES
10
163.8000
20
-131.8464
0
VERTEX
8
HOLES
10
163.8469
20
-131.8696
0
VERTEX
8
HOLES
10
163.8965
20
-131.8864
0
VERTEX
8
HOLES
10
163.9478
20
-131.8966
0
VERTEX
8
HOLES
10
164.0000
20
-131.9000
0
VERTEX
8
HOLES
10
164.0522
20
-131.8966
0
VERTEX
8
HOLES
10
164.1035
20
-131.8864
0
VERTEX
8
HOLES
10
164.1531
20
-131.8696
0
VERTEX
8
HOLES
10
164.2000
20
-131.8464
0
VERTEX
8
HOLES
10
164.2435
20
-131.8173
0
VERTEX
8
HOLES
10
164.2828
20
-131.7828
0
VERTEX
8
HOLES
10
164.3173
20
-131.7435
0
VERTEX
8
HOLES
10
164.3464
20
-131.7000
0
VERTEX
8
HOLES
10
164.3696
20
-131.6531
0
VERTEX
8
HOLES
10
164.3864
20
-131.6035
0
VERTEX
8
HOLES
10
164.3966
20
-131.5522
0
VERTEX
8
HOLES
10
164.4000
20
-131.5000
0
VERTEX
8
HOLES
10
164.3966
20
-131.4478
0
VERTEX
8
HOLES
10
164.3864
20
-131.3965
0
VERTEX
8
HOLES
10
164.3696
20
-131.3469
0
VERTEX
8
HOLES
10
164.3464
20
-131.3000
0
VERTEX
8
HOLES
10
164.3173
20
-131.2565
0
VERTEX
8
HOLES
10
164.2828
20
-131.2172
0
VERTEX
8
HOLES
10
164.2435
20
-131.1827
0
VERTEX
8
HOLES
10
164.2000
20
-131.1536
0
VERTEX
8
HOLES
10
164.1531
20
-131.1304
0
VERTEX
8
HOLES
10
164.1035
20
-131.1136
0
VERTEX
8
HOLES
10
164.0522
20
-131.1034
0
VERTEX
8
HOLES
10
164.0000
20
-131.1000
0
VERTEX
8
HOLES
10
163.9478
20
-131.1034
0
VERTEX
8
HOLES
10
163.8965
20
-131.1136
0
VERTEX
8
HOLES
10
163.8469
20
-131.1304
0
VERTEX
8
HOLES
10
163.8000
20
-131.1536
0
VERTEX
8
HOLES
10
163.7565
20
-131.1827
0
VERTEX
8
HOLES
10
163.7172
20
-131.2172
0
VERTEX
8
HOLES
10
163.6827
20
-131.2565
0
VERTEX
8
HOLES
10
163.6536
20
-131.3000
0
VERTEX
8
HOLES
10
163.6304
20
-131.3469
0
VERTEX
8
HOLES
10
163.6136
20
-131.3965
0
VERTEX
8
HOLES
10
163.6034
20
-131.4478
0
SEQEND
8
HOLES
0
POLYLINE
8
HOLES
66
1
70
1
0
VERTEX
8
HOLES
10
153.4400
20
-131.5000
0
VERTEX
8
HOLES
10
153.4434
20
-131.5522
0
VERTEX
8
HOLES
10
153.4536
20
-131.6035
0
VERTEX
8
HOLES
10
153.4704
20
-131.6531
0
VERTEX
8
HOLES
10
153.4936
20
-131.7000
0
VERTEX
8
HOLES
10
153.5227
20
-131.7435
0
VERTEX
8
HOLES
10
153.5572
20
-131.7828
0
VERTEX
8
HOLES
10
153.5965
20
-131.8173
0
VERTEX
8
HOLES
10
153.6400
20
-131.8464
0
VERTEX
8
HOLES
10
153.6869
20
-131.8696
0
VERTEX
8
HOLES
10
153.7365
20
-131.8864
0
VERTEX
8
HOLES
10
153.7878
20
-131.8966
0
VERTEX
8
HOLES
10
153.8400
20
-131.9000
0
VERTEX
8
HOLES
10
153.8922
20
-131.8966
0
VERTEX
8
HOLES
10
153.9435
20
-131.8864
0
VERTEX
8
HOLES
10
153.9931
20
-131.8696
0
VERTEX
8
HOLES
10
154.0400
20
-131.8464
0
VERTEX
8
HOLES
10
154.0835
20
-131.8173
0
VERTEX
8
HOLES
10
154.1228
20
-131.7828
0
VERTEX
8
HOLES
10
154.1573
20
-131.7435
0
VERTEX
8
HOLES
10
154.1864
20
-131.7000
0
VERTEX
8
HOLES
10
154.2096
20
-131.6531
0
VERTEX
8
HOLES
10
154.2264
20
-131.6035
0
VERTEX
8
HOLES
10
154.2366
20
-131.5522
0
VERTEX
8
HOLES
10
154.2400
20
-131.5000
0
VERTEX
8
HOLES
10
154.2366
20
-131.4478
0
VERTEX
8
HOLES
10
154.2264
20
-131.3965
0
VERTEX
8
HOLES
10
154.2096
20
-131.3469
0
VERTEX
8
HOLES
10
154.1864
20
-131.3000
0
VERTEX
8
HOLES
10
154.1573
20
-131.2565
0
VERTEX
8
HOLES
10
154.1228
20
-131.2172
0
VERTEX
8
HOLES
10
154.0835
20
-131.1827
0
VERTEX
8
HOLES
10
154.0400
20
-131.1536
0
VERTEX
8
HOLES
10
153.9931
20
-131.1304
0
VERTEX
8
HOLES
10
153.9435
20
-131.1136
0
VERTEX
8
HOLES
10
153.8922
20
-131.1034
0
VERTEX
8
HOLES
10
153.8400
20
-131.1000
0
VERTEX
8
HOLES
10
153.7878
20
-131.1034
0
VERTEX
8
HOLES
10
153.7365
20
-131.1136
0
VERTEX
8
HOLES
10
153.6869
20
-131.1304
0
VERTEX
8
HOLES
10
153.6400
20
-131.1536
0
VERTEX
8
HOLES
10
153.5965
20
-131.1827
0
VERTEX
8
HOLES
10
153.5572
20
-131.2172
0
VERTEX
8
HOLES
10
153.5227
20
-131.2565
0
VERTEX
8
HOLES
10
153.4936
20
-131.3000
0
VERTEX
8
HOLES
10
153.4704
20
-131.3469
0
VERTEX
8
HOLES
10
153.4536
20
-131.3965
0
VERTEX
8
HOLES
10
153.4434
20
-131.4478
0
SEQEND
8
HOLES
0
POLYLINE
8
HOLES
66
1
70
1
0
VERTEX
8
HOLES
10
135.9500
20
-104.5000
0
VERTEX
8
HOLES
10
135.9547
20
-104.5718
0
VERTEX
8
HOLES
10
135.9687
20
-104.6424
0
VERTEX
8
HOLES
10
135.9919
20
-104.7105
0
VERTEX
8
HOLES
10
136.0237
20
-104.7750
0
VERTEX
8
HOLES
10
136.0637
20
-104.8348
0
VERTEX
8
HOLES
10
136.1111
20
-104.8889
0
VERTEX
8
HOLES
10
136.1652
20
-104.9363
0
VERTEX
8
HOLES
10
136.2250
20
-104.9763
0
VERTEX
8
HOLES
10
136.2895
20
-105.0081
0
VERTEX
8
HOLES
10
136.3576
20
-105.0313
0
VERTEX
8
HOLES
10
136.4282
20
-105.0453
0
VERTEX
8
HOLES
10
136.5000
20
-105.0500
0
VERTEX
8
HOLES
10
136.5718
20
-105.0453
0
VERTEX
8
HOLES
10
136.6424
20
-105.0313
0
VERTEX
8
HOLES
10
136.7105
20
-105.0081
0
VERTEX
8
HOLES
10
136.7750
20
-104.9763
0
VERTEX
8
HOLES
10
136.8348
20
-104.9363
0
VERTEX
8
HOLES
10
136.8889
20
-104.8889
0
VERTEX
8
HOLES
10
136.9363
20
-104.8348
0
VERTEX
8
HOLES
10
136.9763
20
-104.7750
0
VERTEX
8
HOLES
10
137.0081
20
-104.7105
0
VERTEX
8
HOLES
10
137.0313
20
-104.6424
0
VERTEX
8
HOLES
10
137.0453
20
-104.5718
0
VERTEX
8
HOLES
10
137.0500
20
-104.5000
0
VERTEX
8
HOLES
10
137.0453
20
-104.4282
0
VERTEX
8
HOLES
10
137.0313
20
-104.3576
0
VERTEX
8
HOLES
10
137.0081
20
-104.2895
0
VERTEX
8
HOLES
10
136.9763
20
-104.2250
0
VERTEX
8
HOLES
10
136.9363
20
-104.1652
0
VERTEX
8
HOLES
10
136.8889
20
-104.1111
0
VERTEX
8
HOLES
10
136.8348
20
-104.0637
0
VERTEX
8
HOLES
10
136.7750
20
-104.0237
0
VERTEX
8
HOLES
10
136.7105
20
-103.9919
0
VERTEX
8
HOLES
10
136.6424
20
-103.9687
0
VERTEX
8
HOLES
10
136.5718
20
-103.9547
0
VERTEX
8
HOLES
10
136.5000
20
-103.9500
0
VERTEX
8
HOLES
10
136.4282
20
-103.9547
0
VERTEX
8
HOLES
10
136.3576
20
-103.9687
0
VERTEX
8
HOLES
10
136.2895
20
-103.9919
0
VERTEX
8
HOLES
10
136.2250
20
-104.0237
0
VERTEX
8
HOLES
10
136.1652
20
-104.0637
0
VERTEX
8
HOLES
10
136.1111
20
-104.1111
0
VERTEX
8
HOLES
10
136.0637
20
-104.1652
0
VERTEX
8
HOLES
10
136.0237
20
-104.2250
0
VERTEX
8
HOLES
10
135.9919
20
-104.2895
0
VERTEX
8
HOLES
10
135.9687
20
-104.3576
0
VERTEX
8
HOLES
10
135.9547
20
-104.4282
0
SEQEND
8
HOLES
0
POLYLINE
8
HOLES
66
1
70
1
0
VERTEX
8
HOLES
10
129.4500
20
-104.5000
0
VERTEX
8
HOLES
10
129.4547
20
-104.5718
0
VERTEX
8
HOLES
10
129.4687
20
-104.6424
0
VERTEX
8
HOLES
10
129.4919
20
-104.7105
0
VERTEX
8
HOLES
10
129.5237
20
-104.7750
0
VERTEX
8
HOLES
10
129.5637
20
-104.8348
0
VERTEX
8
HOLES
10
129.6111
20
-104.8889
0
VERTEX
8
HOLES
10
129.6652
20
-104.9363
0
VERTEX
8
HOLES
10
129.7250
20
-104.9763
0
VERTEX
8
HOLES
10
129.7895
20
-105.0081
0
VERTEX
8
HOLES
10
129.8576
20
-105.0313
0
VERTEX
8
HOLES
10
129.9282
20
-105.0453
0
VERTEX
8
HOLES
10
130.0000
20
-105.0500
0
VERTEX
8
HOLES
10
130.0718
20
-105.0453
0
VERTEX
8
HOLES
10
130.1424
20
-105.0313
0
VERTEX
8
HOLES
10
130.2105
20
-105.0081
0
VERTEX
8
HOLES
10
130.2750
20
-104.9763
0
VERTEX
8
HOLES
10
130.3348
20
-104.9363
0
VERTEX
8
HOLES
10
130.3889
20
-104.8889
0
VERTEX
8
HOLES
10
130.4363
20
-104.8348
0
VERTEX
8
HOLES
10
130.4763
20
-104.7750
0
VERTEX
8
HOLES
10
130.5081
20
-104.7105
0
VERTEX
8
HOLES
10
130.5313
20
-104.6424
0
VERTEX
8
HOLES
10
130.5453
20
-104.5718
0
VERTEX
8
HOLES
10
130.5500
20
-104.5000
0
VERTEX
8
HOLES
10
130.5453
20
-104.4282
0
VERTEX
8
HOLES
10
130.5313
20
-104.3576
0
VERTEX
8
HOLES
10
130.5081
20
-104.2895
0
VERTEX
8
HOLES
10
130.4763
20
-104.2250
0
VERTEX
8
HOLES
10
130.4363
20
-104.1652
0
VERTEX
8
HOLES
10
130.3889
20
-104.1111
0
VERTEX
8
HOLES
10
130.3348
20
-104.0637
0
VERTEX
8
HOLES
10
130.2750
20
-104.0237
0
VERTEX
8
HOLES
10
130.2105
20
-103.9919
0
VERTEX
8
HOLES
10
130.1424
20
-103.9687
0
VERTEX
8
HOLES
10
130.0718
20
-103.9547
0
VERTEX
8
HOLES
10
130.0000
20
-103.9500
0
VERTEX
8
HOLES
10
129.9282
20
-103.9547
0
VERTEX
8
HOLES
10
129.8576
20
-103.9687
0
VERTEX
8
HOLES
10
129.7895
20
-103.9919
0
VERTEX
8
HOLES
10
129.7250
20
-104.0237
0
VERTEX
8
HOLES
10
129.6652
20
-104.0637
0
VERTEX
8
HOLES
10
129.6111
20
-104.1111
0
VERTEX
8
HOLES
10
129.5637
20
-104.1652
0
VERTEX
8
HOLES
10
129.5237
20
-104.2250
0
VERTEX
8
HOLES
10
129.4919
20
-104.2895
0
VERTEX
8
HOLES
10
129.4687
20
-104.3576
0
VERTEX
8
HOLES
10
129.4547
20
-104.4282
0
SEQEND
8
HOLES
0
POLYLINE
8
HOLES
66
1
70
1
0
VERTEX
8
HOLES
10
135.9500
20
-109.0000
0
VERTEX
8
HOLES
10
135.9547
20
-109.0718
0
VERTEX
8
HOLES
10
135.9687
20
-109.1424
0
VERTEX
8
HOLES
10
135.9919
20
-109.2105
0
VERTEX
8
HOLES
10
136.0237
20
-109.2750
0
VERTEX
8
HOLES
10
136.0637
20
-109.3348
0
VERTEX
8
HOLES
10
136.1111
20
-109.3889
0
VERTEX
8
HOLES
10
136.1652
20
-109.4363
0
VERTEX
8
HOLES
10
136.2250
20
-109.4763
0
VERTEX
8
HOLES
10
136.2895
20
-109.5081
0
VERTEX
8
HOLES
10
136.3576
20
-109.5313
0
VERTEX
8
HOLES
10
136.4282
20
-109.5453
0
VERTEX
8
HOLES
10
136.5000
20
-109.5500
0
VERTEX
8
HOLES
10
136.5718
20
-109.5453
0
VERTEX
8
HOLES
10
136.6424
20
-109.5313
0
VERTEX
8
HOLES
10
136.7105
20
-109.5081
0
VERTEX
8
HOLES
10
136.7750
20
-109.4763
0
VERTEX
8
HOLES
10
136.8348
20
-109.4363
0
VERTEX
8
HOLES
10
136.8889
20
-109.3889
0
VERTEX
8
HOLES
10
136.9363
20
-109.3348
0
VERTEX
8
HOLES
10
136.9763
20
-109.2750
0
VERTEX
8
HOLES
10
137.0081
20
-109.2105
0
VERTEX
8
HOLES
10
137.0313
20
-109.1424
0
VERTEX
8
HOLES
10
137.0453
20
-109.0718
0
VERTEX
8
HOLES
10
137.0500
20
-109.0000
0
VERTEX
8
HOLES
10
137.0453
20
-108.9282
0
VERTEX
8
HOLES
10
137.0313
20
-108.8576
0
VERTEX
8
HOLES
10
137.0081
20
-108.7895
0
VERTEX
8
HOLES
10
136.9763
20
-108.7250
0
VERTEX
8
HOLES
10
136.9363
20
-108.6652
0
VERTEX
8
HOLES
10
136.8889
20
-108.6111
0
VERTEX
8
HOLES
10
136.8348
20
-108.5637
0
VERTEX
8
HOLES
10
136.7750
20
-108.5237
0
VERTEX
8
HOLES
10
136.7105
20
-108.4919
0
VERTEX
8
HOLES
10
136.6424
20
-108.4687
0
VERTEX
8
HOLES
10
136.5718
20
-108.4547
0
VERTEX
8
HOLES
10
136.5000
20
-108.4500
0
VERTEX
8
HOLES
10
136.4282
20
-108.4547
0
VERTEX
8
HOLES
10
136.3576
20
-108.4687
0
VERTEX
8
HOLES
10
136.2895
20
-108.4919
0
VERTEX
8
HOLES
10
136.2250
20
-108.5237
0
VERTEX
8
HOLES
10
136.1652
20
-108.5637
0
VERTEX
8
HOLES
10
136.1111
20
-108.6111
0
VERTEX
8
HOLES
10
136.0637
20
-108.6652
0
VERTEX
8
HOLES
10
136.0237
20
-108.7250
0
VERTEX
8
HOLES
10
135.9919
20
-108.7895
0
VERTEX
8
HOLES
10
135.9687
20
-108.8576
0
VERTEX
8
HOLES
10
135.9547
20
-108.9282
0
SEQEND
8
HOLES
0
POLYLINE
8
HOLES
66
1
70
1
0
VERTEX
8
HOLES
10
129.4500
20
-109.0000
0
VERTEX
8
HOLES
10
129.4547
20
-109.0718
0
VERTEX
8
HOLES
10
129.4687
20
-109.1424
0
VERTEX
8
HOLES
10
129.4919
20
-109.2105
0
VERTEX
8
HOLES
10
129.5237
20
-109.2750
0
VERTEX
8
HOLES
10
129.5637
20
-109.3348
0
VERTEX
8
HOLES
10
129.6111
20
-109.3889
0
VERTEX
8
HOLES
10
129.6652
20
-109.4363
0
VERTEX
8
HOLES
10
129.7250
20
-109.4763
0
VERTEX
8
HOLES
10
129.7895
20
-109.5081
0
VERTEX
8
HOLES
10
129.8576
20
-109.5313
0
VERTEX
8
HOLES
10
129.9282
20
-109.5453
0
VERTEX
8
HOLES
10
130.0000
20
-109.5500
0
VERTEX
8
HOLES
10
130.0718
20
-109.5453
0
VERTEX
8
HOLES
10
130.1424
20
-109.5313
0
VERTEX
8
HOLES
10
130.2105
20
-109.5081
0
VERTEX
8
HOLES
10
130.2750
20
-109.4763
0
VERTEX
8
HOLES
10
130.3348
20
-109.4363
0
VERTEX
8
HOLES
10
130.3889
20
-109.3889
0
VERTEX
8
HOLES
10
130.4363
20
-109.3348
0
VERTEX
8
HOLES
10
130.4763
20
-109.2750
0
VERTEX
8
HOLES
10
130.5081
20
-109.2105
0
VERTEX
8
HOLES
10
130.5313
20
-109.1424
0
VERTEX
8
HOLES
10
130.5453
20
-109.0718
0
VERTEX
8
HOLES
10
130.5500
20
-109.0000
0
VERTEX
8
HOLES
10
130.5453
20
-108.9282
0
VERTEX
8
HOLES
10
130.5313
20
-108.8576
0
VERTEX
8
HOLES
10
130.5081
20
-108.7895
0
VERTEX
8
HOLES
10
130.4763
20
-108.7250
0
VERTEX
8
HOLES
10
130.4363
20
-108.6652
0
VERTEX
8
HOLES
10
130.3889
20
-108.6111
0
VERTEX
8
HOLES
10
130.3348
20
-108.5637
0
VERTEX
8
HOLES
10
130.2750
20
-108.5237
0
VERTEX
8
HOLES
10
130.2105
20
-108.4919
0
VERTEX
8
HOLES
10
130.1424
20
-108.4687
0
VERTEX
8
HOLES
10
130.0718
20
-108.4547
0
VERTEX
8
HOLES
10
130.0000
20
-108.4500
0
VERTEX
8
HOLES
10
129.9282
20
-108.4547
0
VERTEX
8
HOLES
10
129.8576
20
-108.4687
0
VERTEX
8
HOLES
10
129.7895
20
-108.4919
0
VERTEX
8
HOLES
10
129.7250
20
-108.5237
0
VERTEX
8
HOLES
10
129.6652
20
-108.5637
0
VERTEX
8
HOLES
10
129.6111
20
-108.6111
0
VERTEX
8
HOLES
10
129.5637
20
-108.6652
0
VERTEX
8
HOLES
10
129.5237
20
-108.7250
0
VERTEX
8
HOLES
10
129.4919
20
-108.7895
0
VERTEX
8
HOLES
10
129.4687
20
-108.8576
0
VERTEX
8
HOLES
10
129.4547
20
-108.9282
0
SEQEND
8
HOLES
0
POLYLINE
8
HOLES
66
1
70
1
0
VERTEX
8
HOLES
10
175.9500
20
-112.0000
0
VERTEX
8
HOLES
10
175.9547
20
-112.0718
0
VERTEX
8
HOLES
10
175.9687
20
-112.1424
0
VERTEX
8
HOLES
10
175.9919
20
-112.2105
0
VERTEX
8
HOLES
10
176.0237
20
-112.2750
0
VERTEX
8
HOLES
10
176.0637
20
-112.3348
0
VERTEX
8
HOLES
10
176.1111
20
-112.3889
0
VERTEX
8
HOLES
10
176.1652
20
-112.4363
0
VERTEX
8
HOLES
10
176.2250
20
-112.4763
0
VERTEX
8
HOLES
10
176.2895
20
-112.5081
0
VERTEX
8
HOLES
10
176.3576
20
-112.5313
0
VERTEX
8
HOLES
10
176.4282
20
-112.5453
0
VERTEX
8
HOLES
10
176.5000
20
-112.5500
0
VERTEX
8
HOLES
10
176.5718
20
-112.5453
0
VERTEX
8
HOLES
10
176.6424
20
-112.5313
0
VERTEX
8
HOLES
10
176.7105
20
-112.5081
0
VERTEX
8
HOLES
10
176.7750
20
-112.4763
0
VERTEX
8
HOLES
10
176.8348
20
-112.4363
0
VERTEX
8
HOLES
10
176.8889
20
-112.3889
0
VERTEX
8
HOLES
10
176.9363
20
-112.3348
0
VERTEX
8
HOLES
10
176.9763
20
-112.2750
0
VERTEX
8
HOLES
10
177.0081
20
-112.2105
0
VERTEX
8
HOLES
10
177.0313
20
-112.1424
0
VERTEX
8
HOLES
10
177.0453
20
-112.0718
0
VERTEX
8
HOLES
10
177.0500
20
-112.0000
0
VERTEX
8
HOLES
10
177.0453
20
-111.9282
0
VERTEX
8
HOLES
10
177.0313
20
-111.8576
0
VERTEX
8
HOLES
10
177.0081
20
-111.7895
0
VERTEX
8
HOLES
10
176.9763
20
-111.7250
0
VERTEX
8
HOLES
10
176.9363
20
-111.6652
0
VERTEX
8
HOLES
10
176.8889
20
-111.6111
0
VERTEX
8
HOLES
10
176.8348
20
-111.5637
0
VERTEX
8
HOLES
10
176.7750
20
-111.5237
0
VERTEX
8
HOLES
10
176.7105
20
-111.4919
0
VERTEX
8
HOLES
10
176.6424
20
-111.4687
0
VERTEX
8
HOLES
10
176.5718
20
-111.4547
0
VERTEX
8
HOLES
10
176.5000
20
-111.4500
0
VERTEX
8
HOLES
10
176.4282
20
-111.4547
0
VERTEX
8
HOLES
10
176.3576
20
-111.4687
0
VERTEX
8
HOLES
10
176.2895
20
-111.4919
0
VERTEX
8
HOLES
10
176.2250
20
-111.5237
0
VERTEX
8
HOLES
10
176.1652
20
-111.5637
0
VERTEX
8
HOLES
10
176.1111
20
-111.6111
0
VERTEX
8
HOLES
10
176.0637
20
-111.6652
0
VERTEX
8
HOLES
10
176.0237
20
-111.7250
0
VERTEX
8
HOLES
10
175.9919
20
-111.7895
0
VERTEX
8
HOLES
10
175.9687
20
-111.8576
0
VERTEX
8
HOLES
10
175.9547
20
-111.9282
0
SEQEND
8
HOLES
0
POLYLINE
8
HOLES
66
1
70
1
0
VERTEX
8
HOLES
10
169.4500
20
-112.0000
0
VERTEX
8
HOLES
10
169.4547
20
-112.0718
0
VERTEX
8
HOLES
10
169.4687
20
-112.1424
0
VERTEX
8
HOLES
10
169.4919
20
-112.2105
0
VERTEX
8
HOLES
10
169.5237
20
-112.2750
0
VERTEX
8
HOLES
10
169.5637
20
-112.3348
0
VERTEX
8
HOLES
10
169.6111
20
-112.3889
0
VERTEX
8
HOLES
10
169.6652
20
-112.4363
0
VERTEX
8
HOLES
10
169.7250
20
-112.4763
0
VERTEX
8
HOLES
10
169.7895
20
-112.5081
0
VERTEX
8
HOLES
10
169.8576
20
-112.5313
0
VERTEX
8
HOLES
10
169.9282
20
-112.5453
0
VERTEX
8
HOLES
10
170.0000
20
-112.5500
0
VERTEX
8
HOLES
10
170.0718
20
-112.5453
0
VERTEX
8
HOLES
10
170.1424
20
-112.5313
0
VERTEX
8
HOLES
10
170.2105
20
-112.5081
0
VERTEX
8
HOLES
10
170.2750
20
-112.4763
0
VERTEX
8
HOLES
10
170.3348
20
-112.4363
0
VERTEX
8
HOLES
10
170.3889
20
-112.3889
0
VERTEX
8
HOLES
10
170.4363
20
-112.3348
0
VERTEX
8
HOLES
10
170.4763
20
-112.2750
0
VERTEX
8
HOLES
10
170.5081
20
-112.2105
0
VERTEX
8
HOLES
10
170.5313
20
-112.1424
0
VERTEX
8
HOLES
10
170.5453
20
-112.0718
0
VERTEX
8
HOLES
10
170.5500
20
-112.0000
0
VERTEX
8
HOLES
10
170.5453
20
-111.9282
0
VERTEX
8
HOLES
10
170.5313
20
-111.8576
0
VERTEX
8
HOLES
10
170.5081
20
-111.7895
0
VERTEX
8
HOLES
10
170.4763
20
-111.7250
0
VERTEX
8
HOLES
10
170.4363
20
-111.6652
0
VERTEX
8
HOLES
10
170.3889
20
-111.6111
0
VERTEX
8
HOLES
10
170.3348
20
-111.5637
0
VERTEX
8
HOLES
10
170.2750
20
-111.5237
0
VERTEX
8
HOLES
10
170.2105
20
-111.4919
0
VERTEX
8
HOLES
10
170.1424
20
-111.4687
0
VERTEX
8
HOLES
10
170.0718
20
-111.4547
0
VERTEX
8
HOLES
10
170.0000
20
-111.4500
0
VERTEX
8
HOLES
10
169.9282
20
-111.4547
0
VERTEX
8
HOLES
10
169.8576
20
-111.4687
0
VERTEX
8
HOLES
10
169.7895
20
-111.4919
0
VERTEX
8
HOLES
10
169.7250
20
-111.5237
0
VERTEX
8
HOLES
10
169.6652
20
-111.5637
0
VERTEX
8
HOLES
10
169.6111
20
-111.6111
0
VERTEX
8
HOLES
10
169.5637
20
-111.6652
0
VERTEX
8
HOLES
10
169.5237
20
-111.7250
0
VERTEX
8
HOLES
10
169.4919
20
-111.7895
0
VERTEX
8
HOLES
10
169.4687
20
-111.8576
0
VERTEX
8
HOLES
10
169.4547
20
-111.9282
0
SEQEND
8
HOLES
0
POLYLINE
8
HOLES
66
1
70
1
0
VERTEX
8
HOLES
10
175.9500
20
-116.5000
0
VERTEX
8
HOLES
10
175.9547
20
-116.5718
0
VERTEX
8
HOLES
10
175.9687
20
-116.6424
0
VERTEX
8
HOLES
10
175.9919
20
-116.7105
0
VERTEX
8
HOLES
10
176.0237
20
-116.7750
0
VERTEX
8
HOLES
10
176.0637
20
-116.8348
0
VERTEX
8
HOLES
10
176.1111
20
-116.8889
0
VERTEX
8
HOLES
10
176.1652
20
-116.9363
0
VERTEX
8
HOLES
10
176.2250
20
-116.9763
0
VERTEX
8
HOLES
10
176.2895
20
-117.0081
0
VERTEX
8
HOLES
10
176.3576
20
-117.0313
0
VERTEX
8
HOLES
10
176.4282
20
-117.0453
0
VERTEX
8
HOLES
10
176.5000
20
-117.0500
0
VERTEX
8
HOLES
10
176.5718
20
-117.0453
0
VERTEX
8
HOLES
10
176.6424
20
-117.0313
0
VERTEX
8
HOLES
10
176.7105
20
-117.0081
0
VERTEX
8
HOLES
10
176.7750
20
-116.9763
0
VERTEX
8
HOLES
10
176.8348
20
-116.9363
0
VERTEX
8
HOLES
10
176.8889
20
-116.8889
0
VERTEX
8
HOLES
10
176.9363
20
-116.8348
0
VERTEX
8
HOLES
10
176.9763
20
-116.7750
0
VERTEX
8
HOLES
10
177.0081
20
-116.7105
0
VERTEX
8
HOLES
10
177.0313
20
-116.6424
0
VERTEX
8
HOLES
10
177.0453
20
-116.5718
0
VERTEX
8
HOLES
10
177.0500
20
-116.5000
0
VERTEX
8
HOLES
10
177.0453
20
-116.4282
0
VERTEX
8
HOLES
10
177.0313
20
-116.3576
0
VERTEX
8
HOLES
10
177.0081
20
-116.2895
0
VERTEX
8
HOLES
10
176.9763
20
-116.2250
0
VERTEX
8
HOLES
10
176.9363
20
-116.1652
0
VERTEX
8
HOLES
10
176.8889
20
-116.1111
0
VERTEX
8
HOLES
10
176.8348
20
-116.0637
0
VERTEX
8
HOLES
10
176.7750
20
-116.0237
0
VERTEX
8
HOLES
10
176.7105
20
-115.9919
0
VERTEX
8
HOLES
10
176.6424
20
-115.9687
0
VERTEX
8
HOLES
10
176.5718
20
-115.9547
0
VERTEX
8
HOLES
10
176.5000
20
-115.9500
0
VERTEX
8
HOLES
10
176.4282
20
-115.9547
0
VERTEX
8
HOLES
10
176.3576
20
-115.9687
0
VERTEX
8
HOLES
10
176.2895
20
-115.9919
0
VERTEX
8
HOLES
10
176.2250
20
-116.0237
0
VERTEX
8
HOLES
10
176.1652
20
-116.0637
0
VERTEX
8
HOLES
10
176.1111
20
-116.1111
0
VERTEX
8
HOLES
10
176.0637
20
-116.1652
0
VERTEX
8
HOLES
10
176.0237
20
-116.2250
0
VERTEX
8
HOLES
10
175.9919
20
-116.2895
0
VERTEX
8
HOLES
10
175.9687
20
-116.3576
0
VERTEX
8
HOLES
10
175.9547
20
-116.4282
0
SEQEND
8
HOLES
0
POLYLINE
8
HOLES
66
1
70
1
0
VERTEX
8
HOLES
10
169.4500
20
-116.5000
0
VERTEX
8
HOLES
10
169.4547
20
-116.5718
0
VERTEX
8
HOLES
10
169.4687
20
-116.6424
0
VERTEX
8
HOLES
10
169.4919
20
-116.7105
0
VERTEX
8
HOLES
10
169.5237
20
-116.7750
0
VERTEX
8
HOLES
10
169.5637
20
-116.8348
0
VERTEX
8
HOLES
10
169.6111
20
-116.8889
0
VERTEX
8
HOLES
10
169.6652
20
-116.9363
0
VERTEX
8
HOLES
10
169.7250
20
-116.9763
0
VERTEX
8
HOLES
10
169.7895
20
-117.0081
0
VERTEX
8
HOLES
10
169.8576
20
-117.0313
0
VERTEX
8
HOLES
10
169.9282
20
-117.0453
0
VERTEX
8
HOLES
10
170.0000
20
-117.0500
0
VERTEX
8
HOLES
10
170.0718
20
-117.0453
0
VERTEX
8
HOLES
10
170.1424
20
-117.0313
0
VERTEX
8
HOLES
10
170.2105
20
-117.0081
0
VERTEX
8
HOLES
10
170.2750
20
-116.9763
0
VERTEX
8
HOLES
10
170.3348
20
-116.9363
0
VERTEX
8
HOLES
10
170.3889
20
-116.8889
0
VERTEX
8
HOLES
10
170.4363
20
-116.8348
0
VERTEX
8
HOLES
10
170.4763
20
-116.7750
0
VERTEX
8
HOLES
10
170.5081
20
-116.7105
0
VERTEX
8
HOLES
10
170.5313
20
-116.6424
0
VERTEX
8
HOLES
10
170.5453
20
-116.5718
0
VERTEX
8
HOLES
10
170.5500
20
-116.5000
0
VERTEX
8
HOLES
10
170.5453
20
-116.4282
0
VERTEX
8
HOLES
10
170.5313
20
-116.3576
0
VERTEX
8
HOLES
10
170.5081
20
-116.2895
0
VERTEX
8
HOLES
10
170.4763
20
-116.2250
0
VERTEX
8
HOLES
10
170.4363
20
-116.1652
0
VERTEX
8
HOLES
10
170.3889
20
-116.1111
0
VERTEX
8
HOLES
10
170.3348
20
-116.0637
0
VERTEX
8
HOLES
10
170.2750
20
-116.0237
0
VERTEX
8
HOLES
10
170.2105
20
-115.9919
0
VERTEX
8
HOLES
10
170.1424
20
-115.9687
0
VERTEX
8
HOLES
10
170.0718
20
-115.9547
0
VERTEX
8
HOLES
10
170.0000
20
-115.9500
0
VERTEX
8
HOLES
10
169.9282
20
-115.9547
0
VERTEX
8
HOLES
10
169.8576
20
-115.9687
0
VERTEX
8
HOLES
10
169.7895
20
-115.9919
0
VERTEX
8
HOLES
10
169.7250
20
-116.0237
0
VERTEX
8
HOLES
10
169.6652
20
-116.0637
0
VERTEX
8
HOLES
10
169.6111
20
-116.1111
0
VERTEX
8
HOLES
10
169.5637
20
-116.1652
0
VERTEX
8
HOLES
10
169.5237
20
-116.2250
0
VERTEX
8
HOLES
10
169.4919
20
-116.2895
0
VERTEX
8
HOLES
10
169.4687
20
-116.3576
0
VERTEX
8
HOLES
10
169.4547
20
-116.4282
0
SEQEND
8
HOLES
0
POLYLINE
8
HOLES
66
1
70
1
0
VERTEX
8
HOLES
10
161.3200
20
-112.5000
0
VERTEX
8
HOLES
10
161.3234
20
-112.5522
0
VERTEX
8
HOLES
10
161.3336
20
-112.6035
0
VERTEX
8
HOLES
10
161.3504
20
-112.6531
0
VERTEX
8
HOLES
10
161.3736
20
-112.7000
0
VERTEX
8
HOLES
10
161.4027
20
-112.7435
0
VERTEX
8
HOLES
10
161.4372
20
-112.7828
0
VERTEX
8
HOLES
10
161.4765
20
-112.8173
0
VERTEX
8
HOLES
10
161.5200
20
-112.8464
0
VERTEX
8
HOLES
10
161.5669
20
-112.8696
0
VERTEX
8
HOLES
10
161.6165
20
-112.8864
0
VERTEX
8
HOLES
10
161.6678
20
-112.8966
0
VERTEX
8
HOLES
10
161.7200
20
-112.9000
0
VERTEX
8
HOLES
10
161.7722
20
-112.8966
0
VERTEX
8
HOLES
10
161.8235
20
-112.8864
0
VERTEX
8
HOLES
10
161.8731
20
-112.8696
0
VERTEX
8
HOLES
10
161.9200
20
-112.8464
0
VERTEX
8
HOLES
10
161.9635
20
-112.8173
0
VERTEX
8
HOLES
10
162.0028
20
-112.7828
0
VERTEX
8
HOLES
10
162.0373
20
-112.7435
0
VERTEX
8
HOLES
10
162.0664
20
-112.7000
0
VERTEX
8
HOLES
10
162.0896
20
-112.6531
0
VERTEX
8
HOLES
10
162.1064
20
-112.6035
0
VERTEX
8
HOLES
10
162.1166
20
-112.5522
0
VERTEX
8
HOLES
10
162.1200
20
-112.5000
0
VERTEX
8
HOLES
10
162.1166
20
-112.4478
0
VERTEX
8
HOLES
10
162.1064
20
-112.3965
0
VERTEX
8
HOLES
10
162.0896
20
-112.3469
0
VERTEX
8
HOLES
10
162.0664
20
-112.3000
0
VERTEX
8
HOLES
10
162.0373
20
-112.2565
0
VERTEX
8
HOLES
10
162.0028
20
-112.2172
0
VERTEX
8
HOLES
10
161.9635
20
-112.1827
0
VERTEX
8
HOLES
10
161.9200
20
-112.1536
0
VERTEX
8
HOLES
10
161.8731
20
-112.1304
0
VERTEX
8
HOLES
10
161.8235
20
-112.1136
0
VERTEX
8
HOLES
10
161.7722
20
-112.1034
0
VERTEX
8
HOLES
10
161.7200
20
-112.1000
0
VERTEX
8
HOLES
10
161.6678
20
-112.1034
0
VERTEX
8
HOLES
10
161.6165
20
-112.1136
0
VERTEX
8
HOLES
10
161.5669
20
-112.1304
0
VERTEX
8
HOLES
10
161.5200
20
-112.1536
0
VERTEX
8
HOLES
10
161.4765
20
-112.1827
0
VERTEX
8
HOLES
10
161.4372
20
-112.2172
0
VERTEX
8
HOLES
10
161.4027
20
-112.2565
0
VERTEX
8
HOLES
10
161.3736
20
-112.3000
0
VERTEX
8
HOLES
10
161.3504
20
-112.3469
0
VERTEX
8
HOLES
10
161.3336
20
-112.3965
0
VERTEX
8
HOLES
10
161.3234
20
-112.4478
0
SEQEND
8
HOLES
0
POLYLINE
8
HOLES
66
1
70
1
0
VERTEX
8
HOLES
10
161.3200
20
-122.6600
0
VERTEX
8
HOLES
10
161.3234
20
-122.7122
0
VERTEX
8
HOLES
10
161.3336
20
-122.7635
0
VERTEX
8
HOLES
10
161.3504
20
-122.8131
0
VERTEX
8
HOLES
10
161.3736
20
-122.8600
0
VERTEX
8
HOLES
10
161.4027
20
-122.9035
0
VERTEX
8
HOLES
10
161.4372
20
-122.9428
0
VERTEX
8
HOLES
10
161.4765
20
-122.9773
0
VERTEX
8
HOLES
10
161.5200
20
-123.0064
0
VERTEX
8
HOLES
10
161.5669
20
-123.0296
0
VERTEX
8
HOLES
10
161.6165
20
-123.0464
0
VERTEX
8
HOLES
10
161.6678
20
-123.0566
0
VERTEX
8
HOLES
10
161.7200
20
-123.0600
0
VERTEX
8
HOLES
10
161.7722
20
-123.0566
0
VERTEX
8
HOLES
10
161.8235
20
-123.0464
0
VERTEX
8
HOLES
10
161.8731
20
-123.0296
0
VERTEX
8
HOLES
10
161.9200
20
-123.0064
0
VERTEX
8
HOLES
10
161.9635
20
-122.9773
0
VERTEX
8
HOLES
10
162.0028
20
-122.9428
0
VERTEX
8
HOLES
10
162.0373
20
-122.9035
0
VERTEX
8
HOLES
10
162.0664
20
-122.8600
0
VERTEX
8
HOLES
10
162.0896
20
-122.8131
0
VERTEX
8
HOLES
10
162.1064
20
-122.7635
0
VERTEX
8
HOLES
10
162.1166
20
-122.7122
0
VERTEX
8
HOLES
10
162.1200
20
-122.6600
0
VERTEX
8
HOLES
10
162.1166
20
-122.6078
0
VERTEX
8
HOLES
10
162.1064
20
-122.5565
0
VERTEX
8
HOLES
10
162.0896
20
-122.5069
0
VERTEX
8
HOLES
10
162.0664
20
-122.4600
0
VERTEX
8
HOLES
10
162.0373
20
-122.4165
0
VERTEX
8
HOLES
10
162.0028
20
-122.3772
0
VERTEX
8
HOLES
10
161.9635
20
-122.3427
0
VERTEX
8
HOLES
10
161.9200
20
-122.3136
0
VERTEX
8
HOLES
10
161.8731
20
-122.2904
0
VERTEX
8
HOLES
10
161.8235
20
-122.2736
0
VERTEX
8
HOLES
10
161.7722
20
-122.2634
0
VERTEX
8
HOLES
10
161.7200
20
-122.2600
0
VERTEX
8
HOLES
10
161.6678
20
-122.2634
0
VERTEX
8
HOLES
10
161.6165
20
-122.2736
0
VERTEX
8
HOLES
10
161.5669
20
-122.2904
0
VERTEX
8
HOLES
10
161.5200
20
-122.3136
0
VERTEX
8
HOLES
10
161.4765
20
-122.3427
0
VERTEX
8
HOLES
10
161.4372
20
-122.3772
0
VERTEX
8
HOLES
10
161.4027
20
-122.4165
0
VERTEX
8
HOLES
10
161.3736
20
-122.4600
0
VERTEX
8
HOLES
10
161.3504
20
-122.5069
0
VERTEX
8
HOLES
10
161.3336
20
-122.5565
0
VERTEX
8
HOLES
10
161.3234
20
-122.6078
0
SEQEND
8
HOLES
0
POLYLINE
8
HOLES
66
1
70
1
0
VERTEX
8
HOLES
10
174.0000
20
-93.5600
0
VERTEX
8
HOLES
10
174.0043
20
-93.6253
0
VERTEX
8
HOLES
10
174.0170
20
-93.6894
0
VERTEX
8
HOLES
10
174.0381
20
-93.7513
0
VERTEX
8
HOLES
10
174.0670
20
-93.8100
0
VERTEX
8
HOLES
10
174.1033
20
-93.8644
0
VERTEX
8
HOLES
10
174.1464
20
-93.9136
0
VERTEX
8
HOLES
10
174.1956
20
-93.9567
0
VERTEX
8
HOLES
10
174.2500
20
-93.9930
0
VERTEX
8
HOLES
10
174.3087
20
-94.0219
0
VERTEX
8
HOLES
10
174.3706
20
-94.0430
0
VERTEX
8
HOLES
10
174.4347
20
-94.0557
0
VERTEX
8
HOLES
10
174.5000
20
-94.0600
0
VERTEX
8
HOLES
10
174.5653
20
-94.0557
0
VERTEX
8
HOLES
10
174.6294
20
-94.0430
0
VERTEX
8
HOLES
10
174.6913
20
-94.0219
0
VERTEX
8
HOLES
10
174.7500
20
-93.9930
0
VERTEX
8
HOLES
10
174.8044
20
-93.9567
0
VERTEX
8
HOLES
10
174.8536
20
-93.9136
0
VERTEX
8
HOLES
10
174.8967
20
-93.8644
0
VERTEX
8
HOLES
10
174.9330
20
-93.8100
0
VERTEX
8
HOLES
10
174.9619
20
-93.7513
0
VERTEX
8
HOLES
10
174.9830
20
-93.6894
0
VERTEX
8
HOLES
10
174.9957
20
-93.6253
0
VERTEX
8
HOLES
10
175.0000
20
-93.5600
0
VERTEX
8
HOLES
10
174.9957
20
-93.4947
0
VERTEX
8
HOLES
10
174.9830
20
-93.4306
0
VERTEX
8
HOLES
10
174.9619
20
-93.3687
0
VERTEX
8
HOLES
10
174.9330
20
-93.3100
0
VERTEX
8
HOLES
10
174.8967
20
-93.2556
0
VERTEX
8
HOLES
10
174.8536
20
-93.2064
0
VERTEX
8
HOLES
10
174.8044
20
-93.1633
0
VERTEX
8
HOLES
10
174.7500
20
-93.1270
0
VERTEX
8
HOLES
10
174.6913
20
-93.0981
0
VERTEX
8
HOLES
10
174.6294
20
-93.0770
0
VERTEX
8
HOLES
10
174.5653
20
-93.0643
0
VERTEX
8
HOLES
10
174.5000
20
-93.0600
0
VERTEX
8
HOLES
10
174.4347
20
-93.0643
0
VERTEX
8
HOLES
10
174.3706
20
-93.0770
0
VERTEX
8
HOLES
10
174.3087
20
-93.0981
0
VERTEX
8
HOLES
10
174.2500
20
-93.1270
0
VERTEX
8
HOLES
10
174.1956
20
-93.1633
0
VERTEX
8
HOLES
10
174.1464
20
-93.2064
0
VERTEX
8
HOLES
10
174.1033
20
-93.2556
0
VERTEX
8
HOLES
10
174.0670
20
-93.3100
0
VERTEX
8
HOLES
10
174.0381
20
-93.3687
0
VERTEX
8
HOLES
10
174.0170
20
-93.4306
0
VERTEX
8
HOLES
10
174.0043
20
-93.4947
0
SEQEND
8
HOLES
0
POLYLINE
8
HOLES
66
1
70
1
0
VERTEX
8
HOLES
10
174.0000
20
-96.1000
0
VERTEX
8
HOLES
10
174.0043
20
-96.1653
0
VERTEX
8
HOLES
10
174.0170
20
-96.2294
0
VERTEX
8
HOLES
10
174.0381
20
-96.2913
0
VERTEX
8
HOLES
10
174.0670
20
-96.3500
0
VERTEX
8
HOLES
10
174.1033
20
-96.4044
0
VERTEX
8
HOLES
10
174.1464
20
-96.4536
0
VERTEX
8
HOLES
10
174.1956
20
-96.4967
0
VERTEX
8
HOLES
10
174.2500
20
-96.5330
0
VERTEX
8
HOLES
10
174.3087
20
-96.5619
0
VERTEX
8
HOLES
10
174.3706
20
-96.5830
0
VERTEX
8
HOLES
10
174.4347
20
-96.5957
0
VERTEX
8
HOLES
10
174.5000
20
-96.6000
0
VERTEX
8
HOLES
10
174.5653
20
-96.5957
0
VERTEX
8
HOLES
10
174.6294
20
-96.5830
0
VERTEX
8
HOLES
10
174.6913
20
-96.5619
0
VERTEX
8
HOLES
10
174.7500
20
-96.5330
0
VERTEX
8
HOLES
10
174.8044
20
-96.4967
0
VERTEX
8
HOLES
10
174.8536
20
-96.4536
0
VERTEX
8
HOLES
10
174.8967
20
-96.4044
0
VERTEX
8
HOLES
10
174.9330
20
-96.3500
0
VERTEX
8
HOLES
10
174.9619
20
-96.2913
0
VERTEX
8
HOLES
10
174.9830
20
-96.2294
0
VERTEX
8
HOLES
10
174.9957
20
-96.1653
0
VERTEX
8
HOLES
10
175.0000
20
-96.1000
0
VERTEX
8
HOLES
10
174.9957
20
-96.0347
0
VERTEX
8
HOLES
10
174.9830
20
-95.9706
0
VERTEX
8
HOLES
10
174.9619
20
-95.9087
0
VERTEX
8
HOLES
10
174.9330
20
-95.8500
0
VERTEX
8
HOLES
10
174.8967
20
-95.7956
0
VERTEX
8
HOLES
10
174.8536
20
-95.7464
0
VERTEX
8
HOLES
10
174.8044
20
-95.7033
0
VERTEX
8
HOLES
10
174.7500
20
-95.6670
0
VERTEX
8
HOLES
10
174.6913
20
-95.6381
0
VERTEX
8
HOLES
10
174.6294
20
-95.6170
0
VERTEX
8
HOLES
10
174.5653
20
-95.6043
0
VERTEX
8
HOLES
10
174.5000
20
-95.6000
0
VERTEX
8
HOLES
10
174.4347
20
-95.6043
0
VERTEX
8
HOLES
10
174.3706
20
-95.6170
0
VERTEX
8
HOLES
10
174.3087
20
-95.6381
0
VERTEX
8
HOLES
10
174.2500
20
-95.6670
0
VERTEX
8
HOLES
10
174.1956
20
-95.7033
0
VERTEX
8
HOLES
10
174.1464
20
-95.7464
0
VERTEX
8
HOLES
10
174.1033
20
-95.7956
0
VERTEX
8
HOLES
10
174.0670
20
-95.8500
0
VERTEX
8
HOLES
10
174.0381
20
-95.9087
0
VERTEX
8
HOLES
10
174.0170
20
-95.9706
0
VERTEX
8
HOLES
10
174.0043
20
-96.0347
0
SEQEND
8
HOLES
0
POLYLINE
8
HOLES
66
1
70
1
0
VERTEX
8
HOLES
10
174.0000
20
-98.6400
0
VERTEX
8
HOLES
10
174.0043
20
-98.7053
0
VERTEX
8
HOLES
10
174.0170
20
-98.7694
0
VERTEX
8
HOLES
10
174.0381
20
-98.8313
0
VERTEX
8
HOLES
10
174.0670
20
-98.8900
0
VERTEX
8
HOLES
10
174.1033
20
-98.9444
0
VERTEX
8
HOLES
10
174.1464
20
-98.9936
0
VERTEX
8
HOLES
10
174.1956
20
-99.0367
0
VERTEX
8
HOLES
10
174.2500
20
-99.0730
0
VERTEX
8
HOLES
10
174.3087
20
-99.1019
0
VERTEX
8
HOLES
10
174.3706
20
-99.1230
0
VERTEX
8
HOLES
10
174.4347
20
-99.1357
0
VERTEX
8
HOLES
10
174.5000
20
-99.1400
0
VERTEX
8
HOLES
10
174.5653
20
-99.1357
0
VERTEX
8
HOLES
10
174.6294
20
-99.1230
0
VERTEX
8
HOLES
10
174.6913
20
-99.1019
0
VERTEX
8
HOLES
10
174.7500
20
-99.0730
0
VERTEX
8
HOLES
10
174.8044
20
-99.0367
0
VERTEX
8
HOLES
10
174.8536
20
-98.9936
0
VERTEX
8
HOLES
10
174.8967
20
-98.9444
0
VERTEX
8
HOLES
10
174.9330
20
-98.8900
0
VERTEX
8
HOLES
10
174.9619
20
-98.8313
0
VERTEX
8
HOLES
10
174.9830
20
-98.7694
0
VERTEX
8
HOLES
10
174.9957
20
-98.7053
0
VERTEX
8
HOLES
10
175.0000
20
-98.6400
0
VERTEX
8
HOLES
10
174.9957
20
-98.5747
0
VERTEX
8
HOLES
10
174.9830
20
-98.5106
0
VERTEX
8
HOLES
10
174.9619
20
-98.4487
0
VERTEX
8
HOLES
10
174.9330
20
-98.3900
0
VERTEX
8
HOLES
10
174.8967
20
-98.3356
0
VERTEX
8
HOLES
10
174.8536
20
-98.2864
0
VERTEX
8
HOLES
10
174.8044
20
-98.2433
0
VERTEX
8
HOLES
10
174.7500
20
-98.2070
0
VERTEX
8
HOLES
10
174.6913
20
-98.1781
0
VERTEX
8
HOLES
10
174.6294
20
-98.1570
0
VERTEX
8
HOLES
10
174.5653
20
-98.1443
0
VERTEX
8
HOLES
10
174.5000
20
-98.1400
0
VERTEX
8
HOLES
10
174.4347
20
-98.1443
0
VERTEX
8
HOLES
10
174.3706
20
-98.1570
0
VERTEX
8
HOLES
10
174.3087
20
-98.1781
0
VERTEX
8
HOLES
10
174.2500
20
-98.2070
0
VERTEX
8
HOLES
10
174.1956
20
-98.2433
0
VERTEX
8
HOLES
10
174.1464
20
-98.2864
0
VERTEX
8
HOLES
10
174.1033
20
-98.3356
0
VERTEX
8
HOLES
10
174.0670
20
-98.3900
0
VERTEX
8
HOLES
10
174.0381
20
-98.4487
0
VERTEX
8
HOLES
10
174.0170
20
-98.5106
0
VERTEX
8
HOLES
10
174.0043
20
-98.5747
0
SEQEND
8
HOLES
0
POLYLINE
8
HOLES
66
1
70
1
0
VERTEX
8
HOLES
10
174.0000
20
-101.1800
0
VERTEX
8
HOLES
10
174.0043
20
-101.2453
0
VERTEX
8
HOLES
10
174.0170
20
-101.3094
0
VERTEX
8
HOLES
10
174.0381
20
-101.3713
0
VERTEX
8
HOLES
10
174.0670
20
-101.4300
0
VERTEX
8
HOLES
10
174.1033
20
-101.4844
0
VERTEX
8
HOLES
10
174.1464
20
-101.5336
0
VERTEX
8
HOLES
10
174.1956
20
-101.5767
0
VERTEX
8
HOLES
10
174.2500
20
-101.6130
0
VERTEX
8
HOLES
10
174.3087
20
-101.6419
0
VERTEX
8
HOLES
10
174.3706
20
-101.6630
0
VERTEX
8
HOLES
10
174.4347
20
-101.6757
0
VERTEX
8
HOLES
10
174.5000
20
-101.6800
0
VERTEX
8
HOLES
10
174.5653
20
-101.6757
0
VERTEX
8
HOLES
10
174.6294
20
-101.6630
0
VERTEX
8
HOLES
10
174.6913
20
-101.6419
0
VERTEX
8
HOLES
10
174.7500
20
-101.6130
0
VERTEX
8
HOLES
10
174.8044
20
-101.5767
0
VERTEX
8
HOLES
10
174.8536
20
-101.5336
0
VERTEX
8
HOLES
10
174.8967
20
-101.4844
0
VERTEX
8
HOLES
10
174.9330
20
-101.4300
0
VERTEX
8
HOLES
10
174.9619
20
-101.3713
0
VERTEX
8
HOLES
10
174.9830
20
-101.3094
0
VERTEX
8
HOLES
10
174.9957
20
-101.2453
0
VERTEX
8
HOLES
10
175.0000
20
-101.1800
0
VERTEX
8
HOLES
10
174.9957
20
-101.1147
0
VERTEX
8
HOLES
10
174.9830
20
-101.0506
0
VERTEX
8
HOLES
10
174.9619
20
-100.9887
0
VERTEX
8
HOLES
10
174.9330
20
-100.9300
0
VERTEX
8
HOLES
10
174.8967
20
-100.8756
0
VERTEX
8
HOLES
10
174.8536
20
-100.8264
0
VERTEX
8
HOLES
10
174.8044
20
-100.7833
0
VERTEX
8
HOLES
10
174.7500
20
-100.7470
0
VERTEX
8
HOLES
10
174.6913
20
-100.7181
0
VERTEX
8
HOLES
10
174.6294
20
-100.6970
0
VERTEX
8
HOLES
10
174.5653
20
-100.6843
0
VERTEX
8
HOLES
10
174.5000
20
-100.6800
0
VERTEX
8
HOLES
10
174.4347
20
-100.6843
0
VERTEX
8
HOLES
10
174.3706
20
-100.6970
0
VERTEX
8
HOLES
10
174.3087
20
-100.7181
0
VERTEX
8
HOLES
10
174.2500
20
-100.7470
0
VERTEX
8
HOLES
10
174.1956
20
-100.7833
0
VERTEX
8
HOLES
10
174.1464
20
-100.8264
0
VERTEX
8
HOLES
10
174.1033
20
-100.8756
0
VERTEX
8
HOLES
10
174.0670
20
-100.9300
0
VERTEX
8
HOLES
10
174.0381
20
-100.9887
0
VERTEX
8
HOLES
10
174.0170
20
-101.0506
0
VERTEX
8
HOLES
10
174.0043
20
-101.1147
0
SEQEND
8
HOLES
0
POLYLINE
8
HOLES
66
1
70
1
0
VERTEX
8
HOLES
10
143.1000
20
-93.0200
0
VERTEX
8
HOLES
10
143.1034
20
-93.0722
0
VERTEX
8
HOLES
10
143.1136
20
-93.1235
0
VERTEX
8
HOLES
10
143.1304
20
-93.1731
0
VERTEX
8
HOLES
10
143.1536
20
-93.2200
0
VERTEX
8
HOLES
10
143.1827
20
-93.2635
0
VERTEX
8
HOLES
10
143.2172
20
-93.3028
0
VERTEX
8
HOLES
10
143.2565
20
-93.3373
0
VERTEX
8
HOLES
10
143.3000
20
-93.3664
0
VERTEX
8
HOLES
10
143.3469
20
-93.3896
0
VERTEX
8
HOLES
10
143.3965
20
-93.4064
0
VERTEX
8
HOLES
10
143.4478
20
-93.4166
0
VERTEX
8
HOLES
10
143.5000
20
-93.4200
0
VERTEX
8
HOLES
10
143.5522
20
-93.4166
0
VERTEX
8
HOLES
10
143.6035
20
-93.4064
0
VERTEX
8
HOLES
10
143.6531
20
-93.3896
0
VERTEX
8
HOLES
10
143.7000
20
-93.3664
0
VERTEX
8
HOLES
10
143.7435
20
-93.3373
0
VERTEX
8
HOLES
10
143.7828
20
-93.3028
0
VERTEX
8
HOLES
10
143.8173
20
-93.2635
0
VERTEX
8
HOLES
10
143.8464
20
-93.2200
0
VERTEX
8
HOLES
10
143.8696
20
-93.1731
0
VERTEX
8
HOLES
10
143.8864
20
-93.1235
0
VERTEX
8
HOLES
10
143.8966
20
-93.0722
0
VERTEX
8
HOLES
10
143.9000
20
-93.0200
0
VERTEX
8
HOLES
10
143.8966
20
-92.9678
0
VERTEX
8
HOLES
10
143.8864
20
-92.9165
0
VERTEX
8
HOLES
10
143.8696
20
-92.8669
0
VERTEX
8
HOLES
10
143.8464
20
-92.8200
0
VERTEX
8
HOLES
10
143.8173
20
-92.7765
0
VERTEX
8
HOLES
10
143.7828
20
-92.7372
0
VERTEX
8
HOLES
10
143.7435
20
-92.7027
0
VERTEX
8
HOLES
10
143.7000
20
-92.6736
0
VERTEX
8
HOLES
10
143.6531
20
-92.6504
0
VERTEX
8
HOLES
10
143.6035
20
-92.6336
0
VERTEX
8
HOLES
10
143.5522
20
-92.6234
0
VERTEX
8
HOLES
10
143.5000
20
-92.6200
0
VERTEX
8
HOLES
10
143.4478
20
-92.6234
0
VERTEX
8
HOLES
10
143.3965
20
-92.6336
0
VERTEX
8
HOLES
10
143.3469
20
-92.6504
0
VERTEX
8
HOLES
10
143.3000
20
-92.6736
0
VERTEX
8
HOLES
10
143.2565
20
-92.7027
0
VERTEX
8
HOLES
10
143.2172
20
-92.7372
0
VERTEX
8
HOLES
10
143.1827
20
-92.7765
0
VERTEX
8
HOLES
10
143.1536
20
-92.8200
0
VERTEX
8
HOLES
10
143.1304
20
-92.8669
0
VERTEX
8
HOLES
10
143.1136
20
-92.9165
0
VERTEX
8
HOLES
10
143.1034
20
-92.9678
0
SEQEND
8
HOLES
0
POLYLINE
8
HOLES
66
1
70
1
0
VERTEX
8
HOLES
10
143.1000
20
-95.5200
0
VERTEX
8
HOLES
10
143.1034
20
-95.5722
0
VERTEX
8
HOLES
10
143.1136
20
-95.6235
0
VERTEX
8
HOLES
10
143.1304
20
-95.6731
0
VERTEX
8
HOLES
10
143.1536
20
-95.7200
0
VERTEX
8
HOLES
10
143.1827
20
-95.7635
0
VERTEX
8
HOLES
10
143.2172
20
-95.8028
0
VERTEX
8
HOLES
10
143.2565
20
-95.8373
0
VERTEX
8
HOLES
10
143.3000
20
-95.8664
0
VERTEX
8
HOLES
10
143.3469
20
-95.8896
0
VERTEX
8
HOLES
10
143.3965
20
-95.9064
0
VERTEX
8
HOLES
10
143.4478
20
-95.9166
0
VERTEX
8
HOLES
10
143.5000
20
-95.9200
0
VERTEX
8
HOLES
10
143.5522
20
-95.9166
0
VERTEX
8
HOLES
10
143.6035
20
-95.9064
0
VERTEX
8
HOLES
10
143.6531
20
-95.8896
0
VERTEX
8
HOLES
10
143.7000
20
-95.8664
0
VERTEX
8
HOLES
10
143.7435
20
-95.8373
0
VERTEX
8
HOLES
10
143.7828
20
-95.8028
0
VERTEX
8
HOLES
10
143.8173
20
-95.7635
0
VERTEX
8
HOLES
10
143.8464
20
-95.7200
0
VERTEX
8
HOLES
10
143.8696
20
-95.6731
0
VERTEX
8
HOLES
10
143.8864
20
-95.6235
0
VERTEX
8
HOLES
10
143.8966
20
-95.5722
0
VERTEX
8
HOLES
10
143.9000
20
-95.5200
0
VERTEX
8
HOLES
10
143.8966
20
-95.4678
0
VERTEX
8
HOLES
10
143.8864
20
-95.4165
0
VERTEX
8
HOLES
10
143.8696
20
-95.3669
0
VERTEX
8
HOLES
10
143.8464
20
-95.3200
0
VERTEX
8
HOLES
10
143.8173
20
-95.2765
0
VERTEX
8
HOLES
10
143.7828
20
-95.2372
0
VERTEX
8
HOLES
10
143.7435
20
-95.2027
0
VERTEX
8
HOLES
10
143.7000
20
-95.1736
0
VERTEX
8
HOLES
10
143.6531
20
-95.1504
0
VERTEX
8
HOLES
10
143.6035
20
-95.1336
0
VERTEX
8
HOLES
10
143.5522
20
-95.1234
0
VERTEX
8
HOLES
10
143.5000
20
-95.1200
0
VERTEX
8
HOLES
10
143.4478
20
-95.1234
0
VERTEX
8
HOLES
10
143.3965
20
-95.1336
0
VERTEX
8
HOLES
10
143.3469
20
-95.1504
0
VERTEX
8
HOLES
10
143.3000
20
-95.1736
0
VERTEX
8
HOLES
10
143.2565
20
-95.2027
0
VERTEX
8
HOLES
10
143.2172
20
-95.2372
0
VERTEX
8
HOLES
10
143.1827
20
-95.2765
0
VERTEX
8
HOLES
10
143.1536
20
-95.3200
0
VERTEX
8
HOLES
10
143.1304
20
-95.3669
0
VERTEX
8
HOLES
10
143.1136
20
-95.4165
0
VERTEX
8
HOLES
10
143.1034
20
-95.4678
0
SEQEND
8
HOLES
0
POLYLINE
8
HOLES
66
1
70
1
0
VERTEX
8
HOLES
10
155.7300
20
-122.6600
0
VERTEX
8
HOLES
10
155.7338
20
-122.7187
0
VERTEX
8
HOLES
10
155.7453
20
-122.7765
0
VERTEX
8
HOLES
10
155.7643
20
-122.8322
0
VERTEX
8
HOLES
10
155.7903
20
-122.8850
0
VERTEX
8
HOLES
10
155.8230
20
-122.9339
0
VERTEX
8
HOLES
10
155.8618
20
-122.9782
0
VERTEX
8
HOLES
10
155.9061
20
-123.0170
0
VERTEX
8
HOLES
10
155.9550
20
-123.0497
0
VERTEX
8
HOLES
10
156.0078
20
-123.0757
0
VERTEX
8
HOLES
10
156.0635
20
-123.0947
0
VERTEX
8
HOLES
10
156.1213
20
-123.1062
0
VERTEX
8
HOLES
10
156.1800
20
-123.1100
0
VERTEX
8
HOLES
10
156.2387
20
-123.1062
0
VERTEX
8
HOLES
10
156.2965
20
-123.0947
0
VERTEX
8
HOLES
10
156.3522
20
-123.0757
0
VERTEX
8
HOLES
10
156.4050
20
-123.0497
0
VERTEX
8
HOLES
10
156.4539
20
-123.0170
0
VERTEX
8
HOLES
10
156.4982
20
-122.9782
0
VERTEX
8
HOLES
10
156.5370
20
-122.9339
0
VERTEX
8
HOLES
10
156.5697
20
-122.8850
0
VERTEX
8
HOLES
10
156.5957
20
-122.8322
0
VERTEX
8
HOLES
10
156.6147
20
-122.7765
0
VERTEX
8
HOLES
10
156.6262
20
-122.7187
0
VERTEX
8
HOLES
10
156.6300
20
-122.6600
0
VERTEX
8
HOLES
10
156.6262
20
-122.6013
0
VERTEX
8
HOLES
10
156.6147
20
-122.5435
0
VERTEX
8
HOLES
10
156.5957
20
-122.4878
0
VERTEX
8
HOLES
10
156.5697
20
-122.4350
0
VERTEX
8
HOLES
10
156.5370
20
-122.3861
0
VERTEX
8
HOLES
10
156.4982
20
-122.3418
0
VERTEX
8
HOLES
10
156.4539
20
-122.3030
0
VERTEX
8
HOLES
10
156.4050
20
-122.2703
0
VERTEX
8
HOLES
10
156.3522
20
-122.2443
0
VERTEX
8
HOLES
10
156.2965
20
-122.2253
0
VERTEX
8
HOLES
10
156.2387
20
-122.2138
0
VERTEX
8
HOLES
10
156.1800
20
-122.2100
0
VERTEX
8
HOLES
10
156.1213
20
-122.2138
0
VERTEX
8
HOLES
10
156.0635
20
-122.2253
0
VERTEX
8
HOLES
10
156.0078
20
-122.2443
0
VERTEX
8
HOLES
10
155.9550
20
-122.2703
0
VERTEX
8
HOLES
10
155.9061
20
-122.3030
0
VERTEX
8
HOLES
10
155.8618
20
-122.3418
0
VERTEX
8
HOLES
10
155.8230
20
-122.3861
0
VERTEX
8
HOLES
10
155.7903
20
-122.4350
0
VERTEX
8
HOLES
10
155.7643
20
-122.4878
0
VERTEX
8
HOLES
10
155.7453
20
-122.5435
0
VERTEX
8
HOLES
10
155.7338
20
-122.6013
0
SEQEND
8
HOLES
0
POLYLINE
8
HOLES
66
1
70
1
0
VERTEX
8
HOLES
10
158.2700
20
-122.6600
0
VERTEX
8
HOLES
10
158.2738
20
-122.7187
0
VERTEX
8
HOLES
10
158.2853
20
-122.7765
0
VERTEX
8
HOLES
10
158.3043
20
-122.8322
0
VERTEX
8
HOLES
10
158.3303
20
-122.8850
0
VERTEX
8
HOLES
10
158.3630
20
-122.9339
0
VERTEX
8
HOLES
10
158.4018
20
-122.9782
0
VERTEX
8
HOLES
10
158.4461
20
-123.0170
0
VERTEX
8
HOLES
10
158.4950
20
-123.0497
0
VERTEX
8
HOLES
10
158.5478
20
-123.0757
0
VERTEX
8
HOLES
10
158.6035
20
-123.0947
0
VERTEX
8
HOLES
10
158.6613
20
-123.1062
0
VERTEX
8
HOLES
10
158.7200
20
-123.1100
0
VERTEX
8
HOLES
10
158.7787
20
-123.1062
0
VERTEX
8
HOLES
10
158.8365
20
-123.0947
0
VERTEX
8
HOLES
10
158.8922
20
-123.0757
0
VERTEX
8
HOLES
10
158.9450
20
-123.0497
0
VERTEX
8
HOLES
10
158.9939
20
-123.0170
0
VERTEX
8
HOLES
10
159.0382
20
-122.9782
0
VERTEX
8
HOLES
10
159.0770
20
-122.9339
0
VERTEX
8
HOLES
10
159.1097
20
-122.8850
0
VERTEX
8
HOLES
10
159.1357
20
-122.8322
0
VERTEX
8
HOLES
10
159.1547
20
-122.7765
0
VERTEX
8
HOLES
10
159.1662
20
-122.7187
0
VERTEX
8
HOLES
10
159.1700
20
-122.6600
0
VERTEX
8
HOLES
10
159.1662
20
-122.6013
0
VERTEX
8
HOLES
10
159.1547
20
-122.5435
0
VERTEX
8
HOLES
10
159.1357
20
-122.4878
0
VERTEX
8
HOLES
10
159.1097
20
-122.4350
0
VERTEX
8
HOLES
10
159.0770
20
-122.3861
0
VERTEX
8
HOLES
10
159.0382
20
-122.3418
0
VERTEX
8
HOLES
10
158.9939
20
-122.3030
0
VERTEX
8
HOLES
10
158.9450
20
-122.2703
0
VERTEX
8
HOLES
10
158.8922
20
-122.2443
0
VERTEX
8
HOLES
10
158.8365
20
-122.2253
0
VERTEX
8
HOLES
10
158.7787
20
-122.2138
0
VERTEX
8
HOLES
10
158.7200
20
-122.2100
0
VERTEX
8
HOLES
10
158.6613
20
-122.2138
0
VERTEX
8
HOLES
10
158.6035
20
-122.2253
0
VERTEX
8
HOLES
10
158.5478
20
-122.2443
0
VERTEX
8
HOLES
10
158.4950
20
-122.2703
0
VERTEX
8
HOLES
10
158.4461
20
-122.3030
0
VERTEX
8
HOLES
10
158.4018
20
-122.3418
0
VERTEX
8
HOLES
10
158.3630
20
-122.3861
0
VERTEX
8
HOLES
10
158.3303
20
-122.4350
0
VERTEX
8
HOLES
10
158.3043
20
-122.4878
0
VERTEX
8
HOLES
10
158.2853
20
-122.5435
0
VERTEX
8
HOLES
10
158.2738
20
-122.6013
0
SEQEND
8
HOLES
0
POLYLINE
8
HOLES
66
1
70
1
0
VERTEX
8
HOLES
10
150.1000
20
-131.5000
0
VERTEX
8
HOLES
10
150.1034
20
-131.5522
0
VERTEX
8
HOLES
10
150.1136
20
-131.6035
0
VERTEX
8
HOLES
10
150.1304
20
-131.6531
0
VERTEX
8
HOLES
10
150.1536
20
-131.7000
0
VERTEX
8
HOLES
10
150.1827
20
-131.7435
0
VERTEX
8
HOLES
10
150.2172
20
-131.7828
0
VERTEX
8
HOLES
10
150.2565
20
-131.8173
0
VERTEX
8
HOLES
10
150.3000
20
-131.8464
0
VERTEX
8
HOLES
10
150.3469
20
-131.8696
0
VERTEX
8
HOLES
10
150.3965
20
-131.8864
0
VERTEX
8
HOLES
10
150.4478
20
-131.8966
0
VERTEX
8
HOLES
10
150.5000
20
-131.9000
0
VERTEX
8
HOLES
10
150.5522
20
-131.8966
0
VERTEX
8
HOLES
10
150.6035
20
-131.8864
0
VERTEX
8
HOLES
10
150.6531
20
-131.8696
0
VERTEX
8
HOLES
10
150.7000
20
-131.8464
0
VERTEX
8
HOLES
10
150.7435
20
-131.8173
0
VERTEX
8
HOLES
10
150.7828
20
-131.7828
0
VERTEX
8
HOLES
10
150.8173
20
-131.7435
0
VERTEX
8
HOLES
10
150.8464
20
-131.7000
0
VERTEX
8
HOLES
10
150.8696
20
-131.6531
0
VERTEX
8
HOLES
10
150.8864
20
-131.6035
0
VERTEX
8
HOLES
10
150.8966
20
-131.5522
0
VERTEX
8
HOLES
10
150.9000
20
-131.5000
0
VERTEX
8
HOLES
10
150.8966
20
-131.4478
0
VERTEX
8
HOLES
10
150.8864
20
-131.3965
0
VERTEX
8
HOLES
10
150.8696
20
-131.3469
0
VERTEX
8
HOLES
10
150.8464
20
-131.3000
0
VERTEX
8
HOLES
10
150.8173
20
-131.2565
0
VERTEX
8
HOLES
10
150.7828
20
-131.2172
0
VERTEX
8
HOLES
10
150.7435
20
-131.1827
0
VERTEX
8
HOLES
10
150.7000
20
-131.1536
0
VERTEX
8
HOLES
10
150.6531
20
-131.1304
0
VERTEX
8
HOLES
10
150.6035
20
-131.1136
0
VERTEX
8
HOLES
10
150.5522
20
-131.1034
0
VERTEX
8
HOLES
10
150.5000
20
-131.1000
0
VERTEX
8
HOLES
10
150.4478
20
-131.1034
0
VERTEX
8
HOLES
10
150.3965
20
-131.1136
0
VERTEX
8
HOLES
10
150.3469
20
-131.1304
0
VERTEX
8
HOLES
10
150.3000
20
-131.1536
0
VERTEX
8
HOLES
10
150.2565
20
-131.1827
0
VERTEX
8
HOLES
10
150.2172
20
-131.2172
0
VERTEX
8
HOLES
10
150.1827
20
-131.2565
0
VERTEX
8
HOLES
10
150.1536
20
-131.3000
0
VERTEX
8
HOLES
10
150.1304
20
-131.3469
0
VERTEX
8
HOLES
10
150.1136
20
-131.3965
0
VERTEX
8
HOLES
10
150.1034
20
-131.4478
0
SEQEND
8
HOLES
0
POLYLINE
8
HOLES
66
1
70
1
0
VERTEX
8
HOLES
10
150.1000
20
-121.3400
0
VERTEX
8
HOLES
10
150.1034
20
-121.3922
0
VERTEX
8
HOLES
10
150.1136
20
-121.4435
0
VERTEX
8
HOLES
10
150.1304
20
-121.4931
0
VERTEX
8
HOLES
10
150.1536
20
-121.5400
0
VERTEX
8
HOLES
10
150.1827
20
-121.5835
0
VERTEX
8
HOLES
10
150.2172
20
-121.6228
0
VERTEX
8
HOLES
10
150.2565
20
-121.6573
0
VERTEX
8
HOLES
10
150.3000
20
-121.6864
0
VERTEX
8
HOLES
10
150.3469
20
-121.7096
0
VERTEX
8
HOLES
10
150.3965
20
-121.7264
0
VERTEX
8
HOLES
10
150.4478
20
-121.7366
0
VERTEX
8
HOLES
10
150.5000
20
-121.7400
0
VERTEX
8
HOLES
10
150.5522
20
-121.7366
0
VERTEX
8
HOLES
10
150.6035
20
-121.7264
0
VERTEX
8
HOLES
10
150.6531
20
-121.7096
0
VERTEX
8
HOLES
10
150.7000
20
-121.6864
0
VERTEX
8
HOLES
10
150.7435
20
-121.6573
0
VERTEX
8
HOLES
10
150.7828
20
-121.6228
0
VERTEX
8
HOLES
10
150.8173
20
-121.5835
0
VERTEX
8
HOLES
10
150.8464
20
-121.5400
0
VERTEX
8
HOLES
10
150.8696
20
-121.4931
0
VERTEX
8
HOLES
10
150.8864
20
-121.4435
0
VERTEX
8
HOLES
10
150.8966
20
-121.3922
0
VERTEX
8
HOLES
10
150.9000
20
-121.3400
0
VERTEX
8
HOLES
10
150.8966
20
-121.2878
0
VERTEX
8
HOLES
10
150.8864
20
-121.2365
0
VERTEX
8
HOLES
10
150.8696
20
-121.1869
0
VERTEX
8
HOLES
10
150.8464
20
-121.1400
0
VERTEX
8
HOLES
10
150.8173
20
-121.0965
0
VERTEX
8
HOLES
10
150.7828
20
-121.0572
0
VERTEX
8
HOLES
10
150.7435
20
-121.0227
0
VERTEX
8
HOLES
10
150.7000
20
-120.9936
0
VERTEX
8
HOLES
10
150.6531
20
-120.9704
0
VERTEX
8
HOLES
10
150.6035
20
-120.9536
0
VERTEX
8
HOLES
10
150.5522
20
-120.9434
0
VERTEX
8
HOLES
10
150.5000
20
-120.9400
0
VERTEX
8
HOLES
10
150.4478
20
-120.9434
0
VERTEX
8
HOLES
10
150.3965
20
-120.9536
0
VERTEX
8
HOLES
10
150.3469
20
-120.9704
0
VERTEX
8
HOLES
10
150.3000
20
-120.9936
0
VERTEX
8
HOLES
10
150.2565
20
-121.0227
0
VERTEX
8
HOLES
10
150.2172
20
-121.0572
0
VERTEX
8
HOLES
10
150.1827
20
-121.0965
0
VERTEX
8
HOLES
10
150.1536
20
-121.1400
0
VERTEX
8
HOLES
10
150.1304
20
-121.1869
0
VERTEX
8
HOLES
10
150.1136
20
-121.2365
0
VERTEX
8
HOLES
10
150.1034
20
-121.2878
0
SEQEND
8
HOLES
0
POLYLINE
8
HOLES
66
1
70
1
0
VERTEX
8
HOLES
10
128.6000
20
-113.0000
0
VERTEX
8
HOLES
10
128.6034
20
-113.0522
0
VERTEX
8
HOLES
10
128.6136
20
-113.1035
0
VERTEX
8
HOLES
10
128.6304
20
-113.1531
0
VERTEX
8
HOLES
10
128.6536
20
-113.2000
0
VERTEX
8
HOLES
10
128.6827
20
-113.2435
0
VERTEX
8
HOLES
10
128.7172
20
-113.2828
0
VERTEX
8
HOLES
10
128.7565
20
-113.3173
0
VERTEX
8
HOLES
10
128.8000
20
-113.3464
0
VERTEX
8
HOLES
10
128.8469
20
-113.3696
0
VERTEX
8
HOLES
10
128.8965
20
-113.3864
0
VERTEX
8
HOLES
10
128.9478
20
-113.3966
0
VERTEX
8
HOLES
10
129.0000
20
-113.4000
0
VERTEX
8
HOLES
10
129.0522
20
-113.3966
0
VERTEX
8
HOLES
10
129.1035
20
-113.3864
0
VERTEX
8
HOLES
10
129.1531
20
-113.3696
0
VERTEX
8
HOLES
10
129.2000
20
-113.3464
0
VERTEX
8
HOLES
10
129.2435
20
-113.3173
0
VERTEX
8
HOLES
10
129.2828
20
-113.2828
0
VERTEX
8
HOLES
10
129.3173
20
-113.2435
0
VERTEX
8
HOLES
10
129.3464
20
-113.2000
0
VERTEX
8
HOLES
10
129.3696
20
-113.1531
0
VERTEX
8
HOLES
10
129.3864
20
-113.1035
0
VERTEX
8
HOLES
10
129.3966
20
-113.0522
0
VERTEX
8
HOLES
10
129.4000
20
-113.0000
0
VERTEX
8
HOLES
10
129.3966
20
-112.9478
0
VERTEX
8
HOLES
10
129.3864
20
-112.8965
0
VERTEX
8
HOLES
10
129.3696
20
-112.8469
0
VERTEX
8
HOLES
10
129.3464
20
-112.8000
0
VERTEX
8
HOLES
10
129.3173
20
-112.7565
0
VERTEX
8
HOLES
10
129.2828
20
-112.7172
0
VERTEX
8
HOLES
10
129.2435
20
-112.6827
0
VERTEX
8
HOLES
10
129.2000
20
-112.6536
0
VERTEX
8
HOLES
10
129.1531
20
-112.6304
0
VERTEX
8
HOLES
10
129.1035
20
-112.6136
0
VERTEX
8
HOLES
10
129.0522
20
-112.6034
0
VERTEX
8
HOLES
10
129.0000
20
-112.6000
0
VERTEX
8
HOLES
10
128.9478
20
-112.6034
0
VERTEX
8
HOLES
10
128.8965
20
-112.6136
0
VERTEX
8
HOLES
10
128.8469
20
-112.6304
0
VERTEX
8
HOLES
10
128.8000
20
-112.6536
0
VERTEX
8
HOLES
10
128.7565
20
-112.6827
0
VERTEX
8
HOLES
10
128.7172
20
-112.7172
0
VERTEX
8
HOLES
10
128.6827
20
-112.7565
0
VERTEX
8
HOLES
10
128.6536
20
-112.8000
0
VERTEX
8
HOLES
10
128.6304
20
-112.8469
0
VERTEX
8
HOLES
10
128.6136
20
-112.8965
0
VERTEX
8
HOLES
10
128.6034
20
-112.9478
0
SEQEND
8
HOLES
0
POLYLINE
8
HOLES
66
1
70
1
0
VERTEX
8
HOLES
10
128.6000
20
-123.1600
0
VERTEX
8
HOLES
10
128.6034
20
-123.2122
0
VERTEX
8
HOLES
10
128.6136
20
-123.2635
0
VERTEX
8
HOLES
10
128.6304
20
-123.3131
0
VERTEX
8
HOLES
10
128.6536
20
-123.3600
0
VERTEX
8
HOLES
10
128.6827
20
-123.4035
0
VERTEX
8
HOLES
10
128.7172
20
-123.4428
0
VERTEX
8
HOLES
10
128.7565
20
-123.4773
0
VERTEX
8
HOLES
10
128.8000
20
-123.5064
0
VERTEX
8
HOLES
10
128.8469
20
-123.5296
0
VERTEX
8
HOLES
10
128.8965
20
-123.5464
0
VERTEX
8
HOLES
10
128.9478
20
-123.5566
0
VERTEX
8
HOLES
10
129.0000
20
-123.5600
0
VERTEX
8
HOLES
10
129.0522
20
-123.5566
0
VERTEX
8
HOLES
10
129.1035
20
-123.5464
0
VERTEX
8
HOLES
10
129.1531
20
-123.5296
0
VERTEX
8
HOLES
10
129.2000
20
-123.5064
0
VERTEX
8
HOLES
10
129.2435
20
-123.4773
0
VERTEX
8
HOLES
10
129.2828
20
-123.4428
0
VERTEX
8
HOLES
10
129.3173
20
-123.4035
0
VERTEX
8
HOLES
10
129.3464
20
-123.3600
0
VERTEX
8
HOLES
10
129.3696
20
-123.3131
0
VERTEX
8
HOLES
10
129.3864
20
-123.2635
0
VERTEX
8
HOLES
10
129.3966
20
-123.2122
0
VERTEX
8
HOLES
10
129.4000
20
-123.1600
0
VERTEX
8
HOLES
10
129.3966
20
-123.1078
0
VERTEX
8
HOLES
10
129.3864
20
-123.0565
0
VERTEX
8
HOLES
10
129.3696
20
-123.0069
0
VERTEX
8
HOLES
10
129.3464
20
-122.9600
0
VERTEX
8
HOLES
10
129.3173
20
-122.9165
0
VERTEX
8
HOLES
10
129.2828
20
-122.8772
0
VERTEX
8
HOLES
10
129.2435
20
-122.8427
0
VERTEX
8
HOLES
10
129.2000
20
-122.8136
0
VERTEX
8
HOLES
10
129.1531
20
-122.7904
0
VERTEX
8
HOLES
10
129.1035
20
-122.7736
0
VERTEX
8
HOLES
10
129.0522
20
-122.7634
0
VERTEX
8
HOLES
10
129.0000
20
-122.7600
0
VERTEX
8
HOLES
10
128.9478
20
-122.7634
0
VERTEX
8
HOLES
10
128.8965
20
-122.7736
0
VERTEX
8
HOLES
10
128.8469
20
-122.7904
0
VERTEX
8
HOLES
10
128.8000
20
-122.8136
0
VERTEX
8
HOLES
10
128.7565
20
-122.8427
0
VERTEX
8
HOLES
10
128.7172
20
-122.8772
0
VERTEX
8
HOLES
10
128.6827
20
-122.9165
0
VERTEX
8
HOLES
10
128.6536
20
-122.9600
0
VERTEX
8
HOLES
10
128.6304
20
-123.0069
0
VERTEX
8
HOLES
10
128.6136
20
-123.0565
0
VERTEX
8
HOLES
10
128.6034
20
-123.1078
0
SEQEND
8
HOLES
0
POLYLINE
8
OUTLINE
66
1
70
1
0
VERTEX
8
OUTLINE
10
126.0000
20
-136.0000
0
VERTEX
8
OUTLINE
10
180.0000
20
-136.0000
0
VERTEX
8
OUTLINE
10
180.0000
20
-90.2000
0
VERTEX
8
OUTLINE
10
126.0000
20
-90.2000
0
SEQEND
8
OUTLINE
0
ENDSEC
0
EOF
